<svg width="500" height="500" viewBox="0 0 500 500" fill="none" xmlns="http://www.w3.org/2000/svg">
	<path d="M500 382.4H0V382.65H500V382.4Z" fill="#EBEBEB"/>
	<path d="M449.9 398.49H416.78V398.74H449.9V398.49Z" fill="#EBEBEB"/>
	<path d="M331.22 401.21H322.53V401.46H331.22V401.21Z" fill="#EBEBEB"/>
	<path d="M415.78 389.21H396.59V389.46H415.78V389.21Z" fill="#EBEBEB"/>
	<path d="M95.65 390.89H52.46V391.14H95.65V390.89Z" fill="#EBEBEB"/>
	<path d="M110.89 390.89H104.56V391.14H110.89V390.89Z" fill="#EBEBEB"/>
	<path d="M225.15 395.11H131.47V395.36H225.15V395.11Z" fill="#EBEBEB"/>
	<path d="M237 337.8H43.91C42.3973 337.797 40.9475 337.195 39.8788 336.124C38.8102 335.054 38.21 333.603 38.21 332.09V60.66C38.2231 59.156 38.8292 57.718 39.8964 56.6582C40.9637 55.5985 42.4059 55.0026 43.91 55H237C238.514 55 239.967 55.6016 241.038 56.6724C242.108 57.7433 242.71 59.1956 242.71 60.71V332.09C242.71 333.604 242.108 335.057 241.038 336.128C239.967 337.198 238.514 337.8 237 337.8ZM43.91 55.2C42.4636 55.2026 41.0774 55.7791 40.0556 56.8027C39.0338 57.8264 38.46 59.2136 38.46 60.66V332.09C38.46 333.536 39.0338 334.924 40.0556 335.947C41.0774 336.971 42.4636 337.547 43.91 337.55H237C238.447 337.547 239.834 336.971 240.858 335.948C241.881 334.924 242.457 333.537 242.46 332.09V60.66C242.457 59.2127 241.881 57.8255 240.858 56.8021C239.834 55.7787 238.447 55.2026 237 55.2H43.91Z" fill="#EBEBEB"/>
	<path d="M453.31 337.8H260.21C258.696 337.797 257.246 337.195 256.175 336.125C255.105 335.054 254.503 333.604 254.5 332.09V60.66C254.516 59.1551 255.124 57.7171 256.193 56.6576C257.262 55.5981 258.705 55.0025 260.21 55H453.31C454.812 55.0052 456.252 55.6022 457.317 56.6617C458.382 57.7212 458.987 59.1578 459 60.66V332.09C459 333.601 458.401 335.05 457.335 336.121C456.268 337.191 454.821 337.795 453.31 337.8ZM260.21 55.2C258.763 55.2026 257.375 55.7787 256.352 56.8021C255.329 57.8255 254.753 59.2127 254.75 60.66V332.09C254.753 333.537 255.329 334.924 256.352 335.948C257.375 336.971 258.763 337.547 260.21 337.55H453.31C454.757 337.547 456.145 336.971 457.168 335.948C458.191 334.924 458.767 333.537 458.77 332.09V60.66C458.767 59.2127 458.191 57.8255 457.168 56.8021C456.145 55.7787 454.757 55.2026 453.31 55.2H260.21Z" fill="#EBEBEB"/>
	<path d="M164.49 65.75H93.2402V307.46H164.49V65.75Z" fill="#FAFAFA"/>
	<path d="M153.88 65.75H149.72L124.87 307.46H129.03L153.88 65.75Z" fill="#F5F5F5"/>
	<path d="M163.23 66.6799H92.7798V68.8099H163.23V66.6799Z" fill="#E0E0E0"/>
	<path d="M163.23 305.34H92.7798V309.9H163.23V305.34Z" fill="#EBEBEB"/>
	<path d="M162.06 309.7H95.4902V309.9H162.06V309.7Z" fill="#EBEBEB"/>
	<path d="M95.49 66.6799H162.06V309.7H166.05V63.6899H91.5V309.7H95.49V66.6799Z" fill="#EBEBEB"/>
	<path d="M243.78 65.75H172.53V307.46H243.78V65.75Z" fill="#FAFAFA"/>
	<path d="M224.01 65.75H201.3L176.45 307.46H199.16L224.01 65.75Z" fill="#F5F5F5"/>
	<path d="M244.52 66.6799H172.07V68.8099H244.52V66.6799Z" fill="#E0E0E0"/>
	<path d="M244.52 305.34H172.07V309.9H244.52V305.34Z" fill="#EBEBEB"/>
	<path d="M241.35 309.7H174.78V309.9H241.35V309.7Z" fill="#EBEBEB"/>
	<path d="M174.78 66.6799H241.35V309.7H245.33V63.6899H170.79V309.7H174.78V66.6799Z" fill="#EBEBEB"/>
	<path d="M321.06 65.75H251.81V307.46H321.06V65.75Z" fill="#FAFAFA"/>
	<path d="M291.05 65.75H286.89L262.04 307.46H266.2L291.05 65.75Z" fill="#F5F5F5"/>
	<path d="M321.81 66.6799H251.36V68.8099H321.81V66.6799Z" fill="#E0E0E0"/>
	<path d="M321.81 305.34H251.36V309.9H321.81V305.34Z" fill="#EBEBEB"/>
	<path d="M320.64 309.7H254.07V309.9H320.64V309.7Z" fill="#EBEBEB"/>
	<path d="M254.07 66.6799H320.63V309.7H324.62V63.6899H250.08V309.7H254.07V66.6799Z" fill="#EBEBEB"/>
	<path d="M402.35 65.75H331.1V307.46H402.35V65.75Z" fill="#FAFAFA"/>
	<path d="M395.38 65.75H372.67L347.81 307.46H370.53L395.38 65.75Z" fill="#F5F5F5"/>
	<path d="M401.09 66.6799H330.64V68.8099H401.09V66.6799Z" fill="#E0E0E0"/>
	<path d="M401.09 305.34H330.64V309.9H401.09V305.34Z" fill="#EBEBEB"/>
	<path d="M333.35 66.6799H399.92V309.7H403.91V63.6899H329.37V309.7H333.35V66.6799Z" fill="#EBEBEB"/>
	<path d="M399.92 309.7H333.35V309.9H399.92V309.7Z" fill="#EBEBEB"/>
	<path d="M147.44 251.86H116.51V305.35H147.44V251.86Z" fill="#EBEBEB"/>
	<path d="M141.5 244.38V257.8H139.07H124.89H122.45V244.38H141.5Z" fill="#EBEBEB"/>
	<path d="M141.5 257.8H145.46V253.84H141.5V257.8Z" fill="#FAFAFA"/>
	<path d="M133.84 257.8H137.8V253.84H133.84V257.8Z" fill="#FAFAFA"/>
	<path d="M126.17 257.8H130.13V253.84H126.17V257.8Z" fill="#FAFAFA"/>
	<path d="M118.5 257.8H122.46V253.84H118.5V257.8Z" fill="#F0F0F0"/>
	<path d="M141.5 264.99H145.46V261.03H141.5V264.99Z" fill="#F0F0F0"/>
	<path d="M133.84 264.99H137.8V261.03H133.84V264.99Z" fill="#F0F0F0"/>
	<path d="M126.17 264.99H130.13V261.03H126.17V264.99Z" fill="#FAFAFA"/>
	<path d="M118.5 264.99H122.46V261.03H118.5V264.99Z" fill="#FAFAFA"/>
	<path d="M141.5 272.19H145.46V268.23H141.5V272.19Z" fill="#F0F0F0"/>
	<path d="M133.84 272.19H137.8V268.23H133.84V272.19Z" fill="#FAFAFA"/>
	<path d="M126.17 272.19H130.13V268.23H126.17V272.19Z" fill="#FAFAFA"/>
	<path d="M133.84 251.58H137.8V247.62H133.84V251.58Z" fill="#FAFAFA"/>
	<path d="M126.17 251.58H130.13V247.62H126.17V251.58Z" fill="#F0F0F0"/>
	<path d="M118.5 272.19H122.46V268.23H118.5V272.19Z" fill="#F0F0F0"/>
	<path d="M141.5 279.39H145.46V275.43H141.5V279.39Z" fill="#FAFAFA"/>
	<path d="M133.84 279.39H137.8V275.43H133.84V279.39Z" fill="#F0F0F0"/>
	<path d="M126.17 279.39H130.13V275.43H126.17V279.39Z" fill="#F0F0F0"/>
	<path d="M118.5 279.39H122.46V275.43H118.5V279.39Z" fill="#FAFAFA"/>
	<path d="M141.5 286.59H145.46V282.63H141.5V286.59Z" fill="#F0F0F0"/>
	<path d="M133.84 286.59H137.8V282.63H133.84V286.59Z" fill="#FAFAFA"/>
	<path d="M126.17 286.59H130.13V282.63H126.17V286.59Z" fill="#FAFAFA"/>
	<path d="M118.5 286.59H122.46V282.63H118.5V286.59Z" fill="#F0F0F0"/>
	<path d="M141.5 293.78H145.46V289.82H141.5V293.78Z" fill="#F0F0F0"/>
	<path d="M133.84 293.78H137.8V289.82H133.84V293.78Z" fill="#FAFAFA"/>
	<path d="M126.17 293.78H130.13V289.82H126.17V293.78Z" fill="#F0F0F0"/>
	<path d="M118.5 293.78H122.46V289.82H118.5V293.78Z" fill="#FAFAFA"/>
	<path d="M141.5 300.98H145.46V297.02H141.5V300.98Z" fill="#FAFAFA"/>
	<path d="M133.84 300.98H137.8V297.02H133.84V300.98Z" fill="#FAFAFA"/>
	<path d="M126.17 300.98H130.13V297.02H126.17V300.98Z" fill="#F0F0F0"/>
	<path d="M118.5 300.98H122.46V297.02H118.5V300.98Z" fill="#F0F0F0"/>
	<path d="M365.34 271.34H337.63V305.34H365.34V271.34Z" fill="#F0F0F0"/>
	<path d="M340.04 275.12H346.48H348.26H350.03V278.66H348.26H346.48H340.04V275.12Z" fill="#E6E6E6"/>
	<path d="M340.04 281.99H346.48H348.26H350.03V285.54H348.26H346.48H340.04V281.99Z" fill="#FAFAFA"/>
	<path d="M340.04 288.86H346.48H348.26H350.03V292.41H348.26H346.48H340.04V288.86Z" fill="#E6E6E6"/>
	<path d="M340.04 295.73H346.48H349.22H350.03V299.28H349.22H346.48H340.04V295.73Z" fill="#FAFAFA"/>
	<path d="M352.93 275.12H359.38H361.15H362.92V278.66H361.15H359.38H352.93V275.12Z" fill="#FAFAFA"/>
	<path d="M352.93 281.99H359.38H361.88H362.92V285.54H361.88H359.38H352.93V281.99Z" fill="#FAFAFA"/>
	<path d="M352.93 288.86H359.38H361.15H362.92V292.41H361.15H359.38H352.93V288.86Z" fill="#E6E6E6"/>
	<path d="M352.93 295.73H359.38H361.15H362.92V299.28H361.15H359.38H352.93V295.73Z" fill="#FAFAFA"/>
	<path d="M231.81 284.22H206.63V305.35H231.81V284.22Z" fill="#F0F0F0"/>
	<path d="M226.98 290.08H230.2V286.86H226.98V290.08Z" fill="#FAFAFA"/>
	<path d="M220.74 290.08H223.96V286.86H220.74V290.08Z" fill="#FAFAFA"/>
	<path d="M214.49 290.08H217.71V286.86H214.49V290.08Z" fill="#FAFAFA"/>
	<path d="M208.25 290.08H211.47V286.86H208.25V290.08Z" fill="#FAFAFA"/>
	<path d="M226.98 295.93H230.2V292.71H226.98V295.93Z" fill="#FAFAFA"/>
	<path d="M220.74 295.93H223.96V292.71H220.74V295.93Z" fill="#FAFAFA"/>
	<path d="M214.49 295.93H217.71V292.71H214.49V295.93Z" fill="#FAFAFA"/>
	<path d="M208.25 295.93H211.47V292.71H208.25V295.93Z" fill="#E6E6E6"/>
	<path d="M226.98 301.79H230.2V298.57H226.98V301.79Z" fill="#E6E6E6"/>
	<path d="M220.74 301.79H223.96V298.57H220.74V301.79Z" fill="#E6E6E6"/>
	<path d="M214.49 301.79H217.71V298.57H214.49V301.79Z" fill="#FAFAFA"/>
	<path d="M208.25 301.79H211.47V298.57H208.25V301.79Z" fill="#E6E6E6"/>
	<path d="M203.22 268.6H178.04V305.35H203.22V268.6Z" fill="#F0F0F0"/>
	<path d="M201.61 270.21H192.14V279.29H201.61V270.21Z" fill="#FAFAFA"/>
	<path d="M189.12 270.21H179.65V279.29H189.12V270.21Z" fill="#FAFAFA"/>
	<path d="M201.61 281.92H192.14V291H201.61V281.92Z" fill="#FAFAFA"/>
	<path d="M189.12 281.92H179.65V291H189.12V281.92Z" fill="#FAFAFA"/>
	<path d="M201.61 293.63H192.14V302.71H201.61V293.63Z" fill="#FAFAFA"/>
	<path d="M189.12 293.63H179.65V302.71H189.12V293.63Z" fill="#FAFAFA"/>
	<path d="M250 427.56C357.082 427.56 443.89 422.492 443.89 416.24C443.89 409.988 357.082 404.92 250 404.92C142.917 404.92 56.1099 409.988 56.1099 416.24C56.1099 422.492 142.917 427.56 250 427.56Z" fill="#F5F5F5"/>
	<path d="M444.57 79.6101V299.85L418.07 326.35H264.66V79.6101H444.57Z" fill="#62BFCC"/>
	<path opacity="0.8" d="M444.57 79.6101V299.85L418.07 326.35H264.66V79.6101H444.57Z" fill="white"/>
	<path opacity="0.2" d="M418.07 326.35V300.63H444.57L418.59 326.61" fill="black"/>
	<path opacity="0.1" d="M332.74 101H283.12C282.423 101 281.754 100.723 281.261 100.23C280.767 99.7367 280.49 99.0677 280.49 98.3702C280.489 98.024 280.556 97.6809 280.688 97.3607C280.819 97.0405 281.013 96.7493 281.257 96.5041C281.501 96.2588 281.792 96.0642 282.111 95.9314C282.431 95.7986 282.774 95.7302 283.12 95.7302H332.74C333.439 95.7329 334.108 96.0122 334.601 96.507C335.094 97.0018 335.37 97.6718 335.37 98.3702C335.37 99.0677 335.093 99.7367 334.6 100.23C334.107 100.723 333.438 101 332.74 101Z" fill="black"/>
	<path opacity="0.1" d="M422.74 122.34H303.12C302.774 122.34 302.431 122.272 302.111 122.139C301.792 122.006 301.501 121.812 301.257 121.566C301.013 121.321 300.819 121.03 300.688 120.71C300.556 120.389 300.489 120.046 300.49 119.7C300.49 119.003 300.767 118.334 301.261 117.84C301.754 117.347 302.423 117.07 303.12 117.07H422.74C423.438 117.07 424.107 117.347 424.6 117.84C425.093 118.334 425.37 119.003 425.37 119.7C425.37 120.399 425.094 121.068 424.601 121.563C424.108 122.058 423.439 122.337 422.74 122.34Z" fill="black"/>
	<path opacity="0.1" d="M422.74 132.71H283.12C282.423 132.71 281.754 132.433 281.261 131.94C280.767 131.447 280.49 130.778 280.49 130.08C280.489 129.734 280.556 129.391 280.688 129.071C280.819 128.75 281.013 128.459 281.257 128.214C281.501 127.969 281.792 127.774 282.111 127.641C282.431 127.509 282.774 127.44 283.12 127.44H422.74C423.439 127.443 424.108 127.722 424.601 128.217C425.094 128.712 425.37 129.382 425.37 130.08C425.37 130.778 425.093 131.447 424.6 131.94C424.107 132.433 423.438 132.71 422.74 132.71Z" fill="black"/>
	<path opacity="0.1" d="M422.74 144.43H283.12C282.774 144.43 282.431 144.362 282.111 144.229C281.792 144.096 281.501 143.902 281.257 143.656C281.013 143.411 280.819 143.12 280.688 142.8C280.556 142.479 280.489 142.136 280.49 141.79C280.49 141.093 280.767 140.424 281.261 139.93C281.754 139.437 282.423 139.16 283.12 139.16H422.74C423.438 139.16 424.107 139.437 424.6 139.93C425.093 140.424 425.37 141.093 425.37 141.79C425.37 142.489 425.094 143.159 424.601 143.653C424.108 144.148 423.439 144.427 422.74 144.43Z" fill="black"/>
	<path opacity="0.1" d="M422.74 156.14H283.12C282.423 156.14 281.754 155.863 281.261 155.37C280.767 154.877 280.49 154.208 280.49 153.51C280.49 152.813 280.767 152.144 281.261 151.65C281.754 151.157 282.423 150.88 283.12 150.88H422.74C423.438 150.88 424.107 151.157 424.6 151.65C425.093 152.144 425.37 152.813 425.37 153.51C425.37 154.208 425.093 154.877 424.6 155.37C424.107 155.863 423.438 156.14 422.74 156.14Z" fill="black"/>
	<path opacity="0.1" d="M422.74 167.86H283.12C282.423 167.86 281.754 167.583 281.261 167.09C280.767 166.597 280.49 165.928 280.49 165.23C280.489 164.884 280.556 164.542 280.688 164.222C280.819 163.902 281.013 163.612 281.258 163.367C281.502 163.123 281.793 162.929 282.112 162.798C282.432 162.666 282.775 162.599 283.12 162.6H422.74C423.438 162.6 424.107 162.877 424.6 163.37C425.093 163.864 425.37 164.533 425.37 165.23C425.37 165.928 425.093 166.597 424.6 167.09C424.107 167.583 423.438 167.86 422.74 167.86Z" fill="black"/>
	<path opacity="0.1" d="M422.74 179.58H283.12C282.423 179.58 281.754 179.303 281.261 178.81C280.767 178.317 280.49 177.648 280.49 176.95C280.489 176.604 280.556 176.261 280.688 175.941C280.819 175.62 281.013 175.329 281.257 175.084C281.501 174.839 281.792 174.644 282.111 174.511C282.431 174.378 282.774 174.31 283.12 174.31H422.74C423.439 174.313 424.108 174.592 424.601 175.087C425.094 175.582 425.37 176.252 425.37 176.95C425.37 177.648 425.093 178.317 424.6 178.81C424.107 179.303 423.438 179.58 422.74 179.58Z" fill="black"/>
	<path opacity="0.1" d="M422.75 186.03H283.12C281.668 186.03 280.49 187.208 280.49 188.66V188.67C280.49 190.123 281.668 191.3 283.12 191.3H422.75C424.203 191.3 425.38 190.123 425.38 188.67V188.66C425.38 187.208 424.203 186.03 422.75 186.03Z" fill="black"/>
	<path opacity="0.1" d="M422.74 203H283.12C282.423 203 281.754 202.723 281.261 202.23C280.767 201.737 280.49 201.068 280.49 200.37C280.49 199.673 280.767 199.004 281.261 198.511C281.754 198.017 282.423 197.74 283.12 197.74H422.74C423.438 197.74 424.107 198.017 424.6 198.511C425.093 199.004 425.37 199.673 425.37 200.37C425.37 201.068 425.093 201.737 424.6 202.23C424.107 202.723 423.438 203 422.74 203Z" fill="black"/>
	<path opacity="0.1" d="M422.74 214.73H283.12C282.423 214.73 281.754 214.453 281.261 213.96C280.767 213.467 280.49 212.798 280.49 212.1C280.489 211.754 280.556 211.412 280.688 211.092C280.819 210.773 281.013 210.482 281.258 210.238C281.502 209.993 281.793 209.799 282.112 209.668C282.432 209.536 282.775 209.469 283.12 209.47H422.74C423.438 209.47 424.107 209.747 424.6 210.241C425.093 210.734 425.37 211.403 425.37 212.1C425.37 212.798 425.093 213.467 424.6 213.96C424.107 214.453 423.438 214.73 422.74 214.73Z" fill="black"/>
	<path opacity="0.1" d="M422.74 226.45H283.12C282.423 226.45 281.754 226.173 281.261 225.68C280.767 225.187 280.49 224.518 280.49 223.82C280.489 223.474 280.556 223.131 280.688 222.811C280.819 222.49 281.013 222.199 281.257 221.954C281.501 221.709 281.792 221.514 282.111 221.381C282.431 221.249 282.774 221.18 283.12 221.18H422.74C423.439 221.183 424.108 221.462 424.601 221.957C425.094 222.452 425.37 223.122 425.37 223.82C425.37 224.518 425.093 225.187 424.6 225.68C424.107 226.173 423.438 226.45 422.74 226.45Z" fill="black"/>
	<path opacity="0.1" d="M422.74 238.17H283.12C282.774 238.17 282.431 238.102 282.111 237.969C281.792 237.836 281.501 237.642 281.257 237.396C281.013 237.151 280.819 236.86 280.688 236.54C280.556 236.219 280.489 235.876 280.49 235.53C280.49 234.833 280.767 234.164 281.261 233.67C281.754 233.177 282.423 232.9 283.12 232.9H422.74C423.438 232.9 424.107 233.177 424.6 233.67C425.093 234.164 425.37 234.833 425.37 235.53C425.37 236.229 425.094 236.899 424.601 237.393C424.108 237.888 423.439 238.168 422.74 238.17Z" fill="black"/>
	<path opacity="0.1" d="M342.74 249.88H283.12C282.423 249.88 281.754 249.603 281.261 249.11C280.767 248.617 280.49 247.948 280.49 247.25C280.49 246.553 280.767 245.884 281.261 245.39C281.754 244.897 282.423 244.62 283.12 244.62H342.74C343.438 244.62 344.107 244.897 344.6 245.39C345.093 245.884 345.37 246.553 345.37 247.25C345.37 247.948 345.093 248.617 344.6 249.11C344.107 249.603 343.438 249.88 342.74 249.88Z" fill="black"/>
	<path d="M412 133.58L411.81 133.42C411.27 133.01 410.96 133.15 410.71 132.36C410.53 131.79 410.71 131.15 410.5 130.56C410.024 129.545 409.479 128.562 408.87 127.62L406.41 123.19C405.861 122.209 404.945 121.486 403.864 121.179C402.782 120.871 401.623 121.005 400.64 121.55L377.99 134.17C377.9 134.93 377.27 135.45 377.14 136.17C377.095 136.383 377.107 136.604 377.174 136.811C377.24 137.018 377.36 137.204 377.52 137.35C377.266 137.345 377.02 137.257 376.82 137.1C375.47 136.35 375.11 135.75 373.72 136.51C373.12 136.83 372.53 137.17 371.94 137.51L365.94 140.86L347.14 151.33L325.14 163.61L306.81 173.82C304.31 175.21 301.28 176.43 299.05 178.2C299.67 178.52 299.78 179.01 299.23 179.49L298.23 180.4C298.23 180.65 298.59 180.65 298.82 180.55L300.06 180.02C299.199 181.114 298.161 182.057 296.99 182.81C295.024 183.952 292.911 184.82 290.71 185.39L291.77 184.06C291.85 183.95 291.95 183.81 291.88 183.68C291.81 183.55 291.68 183.54 291.56 183.53C291.03 183.47 290.5 183.53 290.11 183.14C286.69 185.14 283.11 187.04 279.63 188.98C278.649 189.529 277.926 190.445 277.618 191.526C277.311 192.608 277.445 193.767 277.99 194.75L300.83 235.75C301.1 236.237 301.464 236.665 301.899 237.011C302.335 237.356 302.835 237.613 303.37 237.765C303.905 237.917 304.465 237.963 305.017 237.898C305.57 237.834 306.104 237.661 306.59 237.39L312.6 234C312.6 233.29 313.16 232.5 312.74 231.85C312.681 231.771 312.643 231.678 312.63 231.58C312.63 231.45 312.75 231.35 312.86 231.28C313.476 230.889 314.182 230.662 314.91 230.62C315.16 230.62 315.49 230.73 315.45 230.97C315.45 230.75 316.74 230.29 316.95 230.22C317.05 230.76 316.68 231.34 317.31 231.45C317.94 231.56 318.9 230.45 319.31 230.25L325.31 226.9L344.31 216.33L365.15 204.72L379 197C379.5 196.71 380.09 196.37 380.57 196.13C380.744 195.213 381.19 194.37 381.85 193.71C382.85 193.02 384.43 193.78 385.26 192.8C385.42 192.61 385.52 192.38 385.66 192.18C385.94 191.855 386.279 191.587 386.66 191.39C386.902 191.2 387.194 191.086 387.5 191.06C387.8 191.06 388.12 191.31 388.08 191.61C390.14 191.13 392 189.74 393.82 188.71C394.48 188.34 400.27 185.62 400.25 185.19C400.17 183.86 400.98 182.72 400.94 181.35C400.94 181.09 400.43 179.35 400.66 179.22C395.46 182.32 390.06 185.14 384.76 188.08C384.58 188.19 383.9 188.42 383.76 188.62C383.76 188.62 383.71 188.71 383.69 188.76L383.54 189.09V189.17C383.325 189.851 383.071 190.518 382.78 191.17C382.78 191.26 381.65 192.66 381.56 192.33C381.12 190.72 380.56 190.47 379.33 191.13L377.57 192.13L371.98 195.24L353.15 205.74L330.96 218.1L312.47 228.4L304.72 232.71C303.173 229.91 301.617 227.114 300.05 224.32L297.05 218.93C296.746 218.183 296.298 217.503 295.73 216.93C295.3 216.61 294.57 216.69 294.19 216.4C293.26 215.69 292.59 214.4 291.71 213.57C291.11 213.01 290.2 211.33 290.45 210.4C290.75 210.52 291.05 210.65 291.35 210.74C291.193 210.124 291.228 209.476 291.45 208.88C288.45 203.83 285.69 198.55 282.82 193.39L282.63 193.06L289.63 189.16L294.74 186.31C295.791 185.858 296.796 185.306 297.74 184.66C298.39 184.1 299.05 183.4 299.74 182.8C300.203 182.448 300.707 182.153 301.24 181.92L303.13 181C303.227 180.942 303.337 180.908 303.45 180.9C303.563 180.913 303.674 180.939 303.78 180.98C304.78 181.19 307.26 179.34 308.16 178.84L313.98 175.6L331.54 165.81L353.42 153.63L375.32 141.42L392.94 131.61L401.94 126.61L402.36 126.38L412.09 143.85C412.692 145.028 413.656 145.981 414.84 146.57C415.24 146.7 415.69 146.98 415.64 147.39C415.59 147.8 414.99 148.14 415.13 148.56C415.27 148.98 416.04 148.82 416.22 149.2C416.4 149.58 415.91 150.2 415.97 150.72C416.177 151.343 416.484 151.927 416.88 152.45L419.71 157.54C421.29 160.36 422.86 163.19 424.45 166.04L407.15 175.68C407.236 175.749 407.307 175.834 407.36 175.93L407.45 176.16C407.794 176.282 408.128 176.429 408.45 176.6C408.588 176.677 408.702 176.791 408.78 176.928C408.857 177.066 408.896 177.222 408.89 177.38C408.888 177.536 408.844 177.689 408.763 177.823C408.682 177.956 408.567 178.066 408.43 178.14L407.37 178.74C407.332 178.972 407.225 179.187 407.063 179.357C406.9 179.526 406.69 179.643 406.46 179.69C406.337 179.701 406.213 179.701 406.09 179.69C405.985 179.767 405.864 179.821 405.737 179.847C405.609 179.872 405.477 179.87 405.35 179.84C405.124 179.771 404.933 179.616 404.818 179.41C404.702 179.203 404.671 178.959 404.73 178.73C404.771 178.627 404.825 178.53 404.89 178.44C404.814 178.294 404.78 178.131 404.79 177.967C404.801 177.803 404.856 177.645 404.95 177.51H404.63C404.45 177.51 404.29 177.41 404.12 177.36C403.221 177.916 402.521 178.742 402.12 179.72C402.077 179.774 402.055 179.842 402.06 179.91C402.06 180.05 402.28 180.06 402.41 180.12C402.71 180.26 402.64 180.7 402.49 180.99C402.34 181.28 402.16 181.65 402.36 181.91C402.436 181.998 402.52 182.078 402.61 182.15C403.04 182.64 402.38 184.06 403.43 183.48C403.356 183.171 403.403 182.846 403.56 182.57C403.738 182.292 404.012 182.089 404.33 182C405.107 181.812 405.901 181.698 406.7 181.66L427.55 170C428.531 169.451 429.254 168.535 429.562 167.454C429.869 166.372 429.736 165.213 429.19 164.23L429.07 164.02L419.65 147.11L414.21 137.33C413.68 136.4 413.21 135.43 412.63 134.51C412.471 134.169 412.258 133.855 412 133.58Z" fill="#62BFCC"/>
	<path d="M315.66 188.83C314.97 187.99 315.18 187.97 315.05 187.07C315.05 187.07 315.05 187.07 315.05 187.01L314.97 186.92L314.85 186.78C314.38 186.99 313.91 187.22 313.44 187.48L304.23 192.61L307.94 199.26C307.42 198.34 309.26 198.61 309.33 198.6C309.525 198.543 309.727 198.509 309.93 198.5C310.13 198.543 310.305 198.661 310.42 198.83C310.805 199.503 310.919 200.296 310.74 201.05C310.63 202.05 311.16 203.05 310.59 204.05C311.08 204.85 315.51 212.91 315.53 212.9L324.74 207.77C325.27 207.47 326.53 206.94 326.84 206.41C327.15 205.88 326.66 205.05 327.21 204.8C327.417 204.724 327.639 204.696 327.859 204.716C328.078 204.737 328.291 204.807 328.48 204.92C330.234 203.183 331.362 200.913 331.686 198.466C332.01 196.019 331.512 193.534 330.27 191.4C327.68 186.75 321.8 183.98 316.65 186.14C316.29 186.29 316.77 187.9 315.91 188.08C316.074 187.758 316.31 187.477 316.6 187.26M322.34 204L318.05 206.39C317.7 205.76 317.36 205.13 317 204.52C317.45 205.28 316.21 205.04 315.95 204.87C315.32 204.45 315.15 203.24 315.13 202.56C315.115 201.394 314.768 200.256 314.13 199.28C313.123 197.46 312.123 195.64 311.13 193.82L315.42 191.43C319.42 189.19 323.42 190.12 325.58 194C327.74 197.88 326.37 201.79 322.34 204Z" fill="#62BFCC"/>
	<path d="M346.11 171.8C346.329 172.275 346.392 172.807 346.29 173.32C346.24 173.6 345.79 174.32 345.85 174.5C346.01 174.9 346.17 175.3 346.32 175.7C346.347 175.766 346.384 175.826 346.43 175.88C346.507 175.932 346.598 175.96 346.69 175.96C348.28 176.1 348.21 176.26 348.31 177.6C348.4 178.75 349.39 179.41 349.95 180.41C350.702 181.724 351.029 183.239 350.886 184.746C350.742 186.253 350.136 187.679 349.15 188.827C348.163 189.976 346.845 190.79 345.377 191.16C343.909 191.529 342.363 191.435 340.95 190.89C340.913 190.926 340.873 190.96 340.83 190.99C340.62 191.096 340.379 191.124 340.15 191.07C339.63 190.923 339.16 190.638 338.788 190.246C338.417 189.853 338.159 189.367 338.04 188.84C338.025 188.761 338.025 188.679 338.04 188.6C337.757 188.25 337.506 187.875 337.29 187.48C336.776 186.654 336.439 185.73 336.298 184.768C336.158 183.805 336.217 182.823 336.474 181.885C336.73 180.946 337.177 180.07 337.787 179.312C338.398 178.554 339.158 177.931 340.02 177.48C341.271 176.767 342.704 176.44 344.14 176.54L344.06 176.42C343.2 175.28 346.3 174.82 344.9 174.05C344.31 173.73 344.41 172.28 344.26 171.69C341.989 171.741 339.765 172.357 337.79 173.48C331.39 177.05 329.18 184.12 332.54 190.15C333.954 192.744 336.292 194.711 339.09 195.66C339.748 195.947 340.453 196.109 341.17 196.14C341.99 196.07 341.59 196.14 341.94 195.65C342.29 195.16 342.08 194.95 342.61 194.43C343.14 193.91 343.76 193.6 343.87 192.8C343.87 193.16 344.27 193.42 344.27 193.8C344.27 193.91 344.27 194.02 344.27 194.12C344.292 194.251 344.351 194.373 344.44 194.47C344.78 194.93 345.35 195.47 345.36 196C346.823 195.758 348.228 195.242 349.5 194.48C355.87 190.93 358.13 183.87 354.75 177.82C353 174.73 349.71 172 346.11 171.8Z" fill="#62BFCC"/>
	<path d="M366.56 157.88L373.42 170.19L356.48 163.49L352.6 165.66C355.22 170.36 358 175.01 360.46 179.8C360.63 179.28 361.03 179.18 361.51 179.11C362.41 178.99 362.38 179.44 362.87 180.33C362.93 180.44 363 180.55 363.11 180.57C363.22 180.59 363.44 180.41 363.62 180.43C363.8 180.45 363.87 180.67 363.82 180.84C363.757 181.007 363.673 181.164 363.57 181.31C363.28 181.86 363.76 182.21 363.7 182.71C363.7 182.97 362.83 184.03 362.93 184.21L363.93 185.93L368.57 183.35L367.33 181.13H367.1C365.75 181.31 366.35 179.54 366.05 178.81C365.564 177.776 365.013 176.774 364.4 175.81L361.67 171L375.44 176.42C375.404 176.025 375.452 175.626 375.58 175.25C375.69 175.04 376.58 174.65 376.58 174.45C376.632 175.095 376.933 175.694 377.42 176.12C377.95 176.59 377.95 176.52 377.85 177.35L378.67 177.68L382.53 175.53L371.23 155.26L366.56 157.88Z" fill="#62BFCC"/>
	<path d="M389.87 166.53L387.25 161.84L396.67 156.59L394.67 152.94L385.26 158.19L382.81 153.78L389.17 150.24C389.439 149.894 389.78 149.61 390.17 149.41C390.368 149.309 390.596 149.284 390.81 149.34L393.5 147.85C393.5 147.85 391.59 144.44 391.41 144.08C390.49 144.5 391.41 145.66 390.48 146.22C390.67 146.42 390.95 147.13 390.48 147.22C390.21 147.22 390.01 146.88 389.74 146.91C389.47 146.94 389.46 147.07 389.32 147.03C389.278 147.018 389.239 146.997 389.206 146.967C389.173 146.938 389.147 146.901 389.13 146.86C389.001 146.558 388.837 146.273 388.64 146.01C388.01 145.4 382.26 149.23 381.46 149.68L376.11 152.68L387.4 172.95L391.91 170.44L392 170.32C392.33 169.9 392.65 169.47 393 169.08C393.142 168.945 393.324 168.859 393.519 168.836C393.713 168.813 393.91 168.853 394.08 168.95C394.161 168.992 394.232 169.05 394.29 169.12L403.1 164.21L401 160.44L389.87 166.53Z" fill="#62BFCC"/>
	<path d="M401.9 382.21C401.9 382.21 395.32 367.87 402.83 353.72C410.34 339.57 412.53 336.24 407.74 333.35C402.95 330.46 400.74 344.66 400.74 344.66C400.74 344.66 396.74 334.88 400.03 324.66C403.32 314.44 405.46 297.76 400.91 295.97C396.36 294.18 400.04 316.76 396.09 324.46C394.076 319.055 392.775 313.411 392.22 307.67C391.68 299.45 392.53 286.33 388.93 282.96C385.33 279.59 383.04 281.96 386.57 300.06C388.692 310.901 389.866 321.906 390.08 332.95C390.08 332.95 382.27 309.15 377.08 308.46C371.89 307.77 371.85 315.46 376.34 322.15C380.83 328.84 389.43 340.8 390.84 347C390.84 347 382.28 329.1 374.57 334.58C366.86 340.06 381.28 350.89 387.7 354.8C394.12 358.71 398.59 383.2 398.59 383.2L401.9 382.21Z" fill="#62BFCC"/>
	<path opacity="0.2" d="M401.9 382.21C401.9 382.21 395.32 367.87 402.83 353.72C410.34 339.57 412.53 336.24 407.74 333.35C402.95 330.46 400.74 344.66 400.74 344.66C400.74 344.66 396.74 334.88 400.03 324.66C403.32 314.44 405.46 297.76 400.91 295.97C396.36 294.18 400.04 316.76 396.09 324.46C394.076 319.055 392.775 313.411 392.22 307.67C391.68 299.45 392.53 286.33 388.93 282.96C385.33 279.59 383.04 281.96 386.57 300.06C388.692 310.901 389.866 321.906 390.08 332.95C390.08 332.95 382.27 309.15 377.08 308.46C371.89 307.77 371.85 315.46 376.34 322.15C380.83 328.84 389.43 340.8 390.84 347C390.84 347 382.28 329.1 374.57 334.58C366.86 340.06 381.28 350.89 387.7 354.8C394.12 358.71 398.59 383.2 398.59 383.2L401.9 382.21Z" fill="black"/>
	<path d="M396.7 388.1C396.7 388.1 403.11 373.65 395.43 359.62C387.75 345.59 385.52 342.29 390.28 339.32C395.04 336.35 397.4 350.53 397.4 350.53C397.4 350.53 401.32 340.7 397.87 330.53C394.42 320.36 392.12 303.71 396.65 301.86C401.18 300.01 397.77 322.64 401.81 330.27C403.761 324.841 404.991 319.179 405.47 313.43C405.92 305.2 404.91 292.09 408.47 288.67C412.03 285.25 414.36 287.55 411.04 305.74C409.05 316.606 408.009 327.624 407.93 338.67C407.93 338.67 415.45 314.76 420.68 313.99C425.91 313.22 425.99 320.92 421.59 327.67C417.19 334.42 408.69 346.52 407.34 352.67C407.34 352.67 415.69 334.67 423.46 340.02C431.23 345.37 416.95 356.42 410.58 360.42C404.21 364.42 400 389 400 389L396.7 388.1Z" fill="#62BFCC"/>
	<path d="M426.24 377.8H373.34L377.62 415.66H421.96L426.24 377.8Z" fill="#263238"/>
	<path d="M155.63 139.75H120.72C119.375 139.75 118.086 140.284 117.135 141.235C116.184 142.186 115.65 143.475 115.65 144.82V178.76C115.65 180.105 116.184 181.394 117.135 182.345C118.086 183.296 119.375 183.83 120.72 183.83H131.89L124.37 194.05L137.37 183.83H155.62C156.965 183.83 158.254 183.296 159.205 182.345C160.156 181.394 160.69 180.105 160.69 178.76V144.82C160.69 143.477 160.157 142.189 159.208 141.238C158.26 140.288 156.973 139.753 155.63 139.75Z" fill="#62BFCC"/>
	<path opacity="0.6" d="M155.63 139.75H120.72C119.375 139.75 118.086 140.284 117.135 141.235C116.184 142.186 115.65 143.475 115.65 144.82V178.76C115.65 180.105 116.184 181.394 117.135 182.345C118.086 183.296 119.375 183.83 120.72 183.83H131.89L124.37 194.05L137.37 183.83H155.62C156.965 183.83 158.254 183.296 159.205 182.345C160.156 181.394 160.69 180.105 160.69 178.76V144.82C160.69 143.477 160.157 142.189 159.208 141.238C158.26 140.288 156.973 139.753 155.63 139.75Z" fill="white"/>
	<path d="M138.18 177.64C146.934 177.64 154.03 170.544 154.03 161.79C154.03 153.036 146.934 145.94 138.18 145.94C129.426 145.94 122.33 153.036 122.33 161.79C122.33 170.544 129.426 177.64 138.18 177.64Z" fill="#62BFCC"/>
	<path opacity="0.2" d="M151.402 164.902C153.126 157.597 148.602 150.277 141.297 148.553C133.992 146.829 126.673 151.353 124.948 158.658C123.224 165.963 127.748 173.282 135.053 175.007C142.358 176.731 149.678 172.207 151.402 164.902Z" fill="black"/>
	<path d="M136.49 168.28C136.306 168.284 136.123 168.252 135.951 168.185C135.78 168.118 135.623 168.018 135.49 167.89L129.72 162.24C129.455 161.983 129.303 161.631 129.297 161.261C129.291 160.892 129.433 160.535 129.69 160.27C129.947 160.005 130.299 159.853 130.669 159.847C131.038 159.841 131.395 159.983 131.66 160.24L136.39 164.87L144.57 155.74C144.821 155.487 145.159 155.34 145.515 155.33C145.871 155.319 146.217 155.445 146.483 155.683C146.749 155.92 146.913 156.25 146.942 156.605C146.971 156.96 146.863 157.313 146.64 157.59L137.49 167.8C137.364 167.941 137.21 168.055 137.038 168.134C136.866 168.213 136.679 168.256 136.49 168.26V168.28Z" fill="white"/>
	<path d="M92.9003 392.92L121.71 390.08V357.59H133.13V390.07L162.06 392.92C163.447 393.054 164.733 393.7 165.669 394.732C166.604 395.764 167.122 397.107 167.12 398.5V402.83H87.8403V398.5C87.8388 397.107 88.3564 395.764 89.292 394.732C90.2276 393.7 91.5141 393.054 92.9003 392.92Z" fill="#263238"/>
	<path opacity="0.1" d="M92.9003 392.92L121.71 390.08V357.59H133.13V390.07L162.06 392.92C163.447 393.054 164.733 393.7 165.669 394.732C166.604 395.764 167.122 397.107 167.12 398.5V402.83H87.8403V398.5C87.8388 397.107 88.3564 395.764 89.292 394.732C90.2276 393.7 91.5141 393.054 92.9003 392.92Z" fill="white"/>
	<path d="M164.07 415.66C168.196 415.66 171.54 412.316 171.54 408.19C171.54 404.065 168.196 400.72 164.07 400.72C159.945 400.72 156.6 404.065 156.6 408.19C156.6 412.316 159.945 415.66 164.07 415.66Z" fill="#263238"/>
	<path d="M90.8899 415.66C95.0155 415.66 98.3599 412.316 98.3599 408.19C98.3599 404.065 95.0155 400.72 90.8899 400.72C86.7644 400.72 83.4199 404.065 83.4199 408.19C83.4199 412.316 86.7644 415.66 90.8899 415.66Z" fill="#263238"/>
	<path d="M130.96 366.29H123.84C122.745 366.29 121.695 365.855 120.92 365.08C120.145 364.306 119.71 363.255 119.71 362.16V330.22H135.09V362.16C135.09 363.255 134.655 364.306 133.881 365.08C133.106 365.855 132.056 366.29 130.96 366.29Z" fill="#263238"/>
	<path opacity="0.2" d="M130.96 366.29H123.84C122.745 366.29 121.695 365.855 120.92 365.08C120.145 364.306 119.71 363.255 119.71 362.16V330.22H135.09V362.16C135.09 363.255 134.655 364.306 133.881 365.08C133.106 365.855 132.056 366.29 130.96 366.29Z" fill="white"/>
	<path d="M87.5402 267.62C87.5402 267.62 96.1002 321 113 330.23H95.8202C95.8202 330.23 78.8202 312.03 73.7002 267.62H87.5402Z" fill="#263238"/>
	<path opacity="0.1" d="M87.5402 267.62C87.5402 267.62 96.1002 321 113 330.23H95.8202C95.8202 330.23 78.8202 312.03 73.7002 267.62H87.5402Z" fill="white"/>
	<path d="M95 322.68H161.92C163.246 322.68 164.518 323.207 165.456 324.145C166.393 325.082 166.92 326.354 166.92 327.68V334.37H90V327.68C90 326.354 90.5268 325.082 91.4645 324.145C92.4021 323.207 93.6739 322.68 95 322.68Z" fill="#62BFCC"/>
	<path d="M168.08 328.52H88.7702C87.6602 328.52 86.7603 329.42 86.7603 330.53V332.35C86.7603 333.46 87.6602 334.36 88.7702 334.36H168.08C169.19 334.36 170.09 333.46 170.09 332.35V330.53C170.09 329.42 169.19 328.52 168.08 328.52Z" fill="#263238"/>
	<path opacity="0.6" d="M168.08 328.52H88.7702C87.6602 328.52 86.7603 329.42 86.7603 330.53V332.35C86.7603 333.46 87.6602 334.36 88.7702 334.36H168.08C169.19 334.36 170.09 333.46 170.09 332.35V330.53C170.09 329.42 169.19 328.52 168.08 328.52Z" fill="white"/>
	<path d="M71.6701 278.48H99.1601C107.22 278.48 112.45 272.02 110.85 264.05L108.71 253.41C107.11 245.41 99.2801 238.99 91.2301 238.99H63.7401C55.6801 238.99 50.4501 245.45 52.0501 253.41L54.1901 264.05C55.7901 272 63.6101 278.48 71.6701 278.48Z" fill="#62BFCC"/>
	<path d="M217.54 367.89L211.24 370.36L206.71 361.82L202.59 354.05L209.57 349.87L213.79 359.4L217.54 367.89Z" fill="#E4897B"/>
	<path opacity="0.2" d="M213.79 359.4L206.71 361.82L202.59 354.05L209.57 349.87L213.79 359.4Z" fill="black"/>
	<path d="M212.48 354.74L203.91 359.34C203.91 359.34 171.52 302.39 166.54 302.87C161.56 303.35 114.31 333.45 99.9002 322.33C85.4902 311.21 99.5102 277.73 99.5102 277.73C99.5102 277.73 129.32 269.21 132.51 275.73C133.351 277.682 134.066 279.686 134.65 281.73C135.28 283.78 135.76 285.51 135.76 285.51C136.67 285.14 166.11 273.07 179.25 279.51C192.66 286.13 212.48 354.74 212.48 354.74Z" fill="#263238"/>
	<path opacity="0.3" d="M212.48 354.74L203.91 359.34C203.91 359.34 171.52 302.39 166.54 302.87C161.56 303.35 114.31 333.45 99.9002 322.33C85.4902 311.21 99.5102 277.73 99.5102 277.73C99.5102 277.73 129.32 269.21 132.51 275.73C133.351 277.682 134.066 279.686 134.65 281.73C135.28 283.78 135.76 285.51 135.76 285.51C136.67 285.14 166.11 273.07 179.25 279.51C192.66 286.13 212.48 354.74 212.48 354.74Z" fill="white"/>
	<path d="M165.92 401.18L159.2 400.41L159.16 390.93L159.15 382.23L167.28 381.85L166.56 392.08L165.92 401.18Z" fill="#E4897B"/>
	<path opacity="0.2" d="M166.54 392.29L159.14 391.11V382.32L167.27 381.89L166.54 392.29Z" fill="black"/>
	<path d="M199.72 356.51L212.26 350.23L213.57 355.55L204.07 360.45L199.72 356.51Z" fill="#62BFCC"/>
	<path d="M122.16 322.42C122.16 322.42 124.22 322.19 155.91 316.32C155.91 316.32 156.63 356.84 158.13 387.05L167.89 387.36C167.89 387.36 181.89 320.36 180.24 310.2C178.59 300.04 166.55 298.71 166.55 298.71C166.55 298.71 145.64 315 122.16 322.42Z" fill="#263238"/>
	<path opacity="0.4" d="M122.16 322.42C122.16 322.42 124.22 322.19 155.91 316.32C155.91 316.32 156.63 356.84 158.13 387.05L167.89 387.36C167.89 387.36 181.89 320.36 180.24 310.2C178.59 300.04 166.55 298.71 166.55 298.71C166.55 298.71 145.64 315 122.16 322.42Z" fill="white"/>
	<path opacity="0.3" d="M122.16 322.42C122.16 322.42 124.22 322.19 155.91 316.32C155.91 316.32 156.63 356.84 158.13 387.05L167.89 387.36C167.89 387.36 181.89 320.36 180.24 310.2C178.59 300.04 166.55 298.71 166.55 298.71C166.55 298.71 145.64 315 122.16 322.42Z" fill="black"/>
	<path d="M156.34 384.35L169.65 384.04L167.83 389.52L157.03 389.62L156.34 384.35Z" fill="#62BFCC"/>
	<path opacity="0.3" d="M135.8 285.53L118.53 291.68C118.53 291.68 127.61 284.9 134.69 281.75C135.32 283.8 135.8 285.53 135.8 285.53Z" fill="black"/>
	<path d="M97.5103 275.67L98.1503 280.46L130.52 273.59L129.77 267.93L97.5103 275.67Z" fill="#263238"/>
	<path opacity="0.2" d="M97.5103 275.67L98.1503 280.46L130.52 273.59L129.77 267.93L97.5103 275.67Z" fill="black"/>
	<path d="M108.236 272.19L106.623 272.489L108.146 280.699L109.759 280.4L108.236 272.19Z" fill="#263238"/>
	<path d="M122.35 270.112L115.288 271.704L116.495 277.059L123.557 275.468L122.35 270.112Z" fill="white"/>
	<path d="M126.892 266.768L125.285 267.063L126.788 275.246L128.395 274.951L126.892 266.768Z" fill="#263238"/>
	<path opacity="0.3" d="M108.236 272.19L106.623 272.489L108.146 280.699L109.759 280.4L108.236 272.19Z" fill="white"/>
	<path opacity="0.3" d="M126.892 266.768L125.285 267.063L126.788 275.246L128.395 274.951L126.892 266.768Z" fill="white"/>
	<path d="M230.06 379.07C229.009 378.748 227.907 378.622 226.81 378.7C226.81 378.7 222.74 377 217.81 368.91L213.61 369.46C212.903 369.566 212.246 369.887 211.728 370.379C211.209 370.871 210.854 371.51 210.71 372.21C210.68 372.409 210.68 372.611 210.71 372.81C210.891 373.825 211.138 374.827 211.45 375.81C212.527 379.061 213.799 382.243 215.26 385.34L215.94 385.06L213.77 379C213.05 376.93 215.56 378.68 216.89 380.68C218.22 382.68 220.11 384.62 224.6 382.92C229.82 380.88 231.89 379.8 230.06 379.07Z" fill="#263238"/>
	<path d="M216.76 366.76C216.76 366.76 223.5 377 226.81 378.7C226.81 378.7 223.1 381.7 218.15 376.88C211.76 370.69 210.69 372.81 210.69 372.81C210.633 371.597 210.69 370.382 210.86 369.18C211.37 366.83 216.76 366.76 216.76 366.76Z" fill="#E4897B"/>
	<path d="M176 413.1C175.042 412.548 173.992 412.175 172.9 412C172.9 412 169.35 409.39 166.5 400.37L162.29 399.91C161.576 399.843 160.858 399.999 160.236 400.357C159.614 400.715 159.119 401.258 158.82 401.91C158.73 402.089 158.669 402.282 158.64 402.48C158.57 403.502 158.57 404.528 158.64 405.55C158.911 408.963 159.392 412.356 160.08 415.71L160.81 415.6L160.16 409.18C159.95 407 161.98 409.3 162.8 411.56C163.62 413.82 164.99 416.15 169.75 415.56C175.31 414.81 177.57 414.25 176 413.1Z" fill="#263238"/>
	<path d="M166 398C166 398 170.12 409.55 172.93 412C172.93 412 168.62 414 164.93 408.18C160.18 400.65 158.65 402.46 158.65 402.46C158.874 401.271 159.208 400.106 159.65 398.98C160.71 396.78 166 398 166 398Z" fill="#E4897B"/>
	<path d="M90.4602 194L82.0002 195.7C81.6697 195.978 81.2792 196.177 80.8594 196.279C80.4395 196.381 80.0017 196.385 79.5802 196.29C77.0602 195.29 73.4302 192.36 72.9702 191.29C72.2902 189.78 72.9702 185.35 74.7502 184.55C76.5302 183.75 82.6602 191.15 82.6602 191.15L91.7502 189.1L90.4602 194Z" fill="#E4897B"/>
	<path d="M117.14 222.12C117.14 222.12 116.37 194.71 113.2 193.54C110.03 192.37 86.2001 195.64 86.2001 195.64L85.6201 189.38C85.6201 189.38 113.35 185.11 118.72 187.64C124.09 190.17 125.86 231.02 124.88 238.89L117.14 222.12Z" fill="#62BFCC"/>
	<path opacity="0.6" d="M117.14 222.12C117.14 222.12 116.37 194.71 113.2 193.54C110.03 192.37 86.2001 195.64 86.2001 195.64L85.6201 189.38C85.6201 189.38 113.35 185.11 118.72 187.64C124.09 190.17 125.86 231.02 124.88 238.89L117.14 222.12Z" fill="white"/>
	<path d="M86.6102 196.24L84.9502 189.36L87.3302 188.5L88.8402 196.45L86.6102 196.24Z" fill="#62BFCC"/>
	<path opacity="0.7" d="M86.6102 196.24L84.9502 189.36L87.3302 188.5L88.8402 196.45L86.6102 196.24Z" fill="white"/>
	<path d="M117 218.7C117 218.7 114.87 227.04 104.61 229.7C94.35 232.36 83 225.41 83 225.41L85.26 245.31L97.82 276.66L129.92 268.29C129.92 268.29 128 231.82 117 218.7Z" fill="#62BFCC"/>
	<path opacity="0.7" d="M117 218.7C117 218.7 114.87 227.04 104.61 229.7C94.35 232.36 83 225.41 83 225.41L85.26 245.31L97.82 276.66L129.92 268.29C129.92 268.29 128 231.82 117 218.7Z" fill="white"/>
	<path opacity="0.6" d="M122.579 251.77L126.336 250.584C126.753 250.453 126.983 250.009 126.852 249.593L124.614 242.498C124.482 242.082 124.039 241.851 123.623 241.982L119.865 243.168C119.449 243.299 119.218 243.743 119.349 244.159L121.588 251.254C121.719 251.67 122.163 251.901 122.579 251.77Z" fill="#62BFCC"/>
	<path opacity="0.2" d="M121.814 249.607L126.086 248.259L124.242 242.413L119.969 243.761L121.814 249.607Z" fill="black"/>
	<path d="M121.671 240.299L120.727 240.597L121.813 244.04L122.757 243.742L121.671 240.299Z" fill="#263238"/>
	<path d="M95.1799 187.55C87.2699 187.55 82.0499 195.93 83.8999 209.22C85.7499 222.51 93.1599 226.34 93.1599 226.34L92.6899 223.13C100.916 224.997 109.397 225.47 117.78 224.53C117.78 224.53 113.96 213.69 115.2 202.62C115.2 202.62 117.71 187.53 95.1799 187.55Z" fill="#263238"/>
	<path opacity="0.2" d="M110.89 227L114.12 239L108.44 234.67C108.44 234.67 113.97 247.31 115.44 254.67C115.44 254.67 110.66 242.14 106.54 235.27L104.13 242.15L94.4399 232.28C94.4399 232.28 103 225.72 110.89 227Z" fill="black"/>
	<path d="M106.17 230.87L96.3103 231.17C100.68 225.58 92.7803 215.84 92.7803 215.84L102.52 217.95C104.84 227.59 108.85 227.88 108.85 227.88L106.17 230.87Z" fill="#E4897B"/>
	<path opacity="0.2" d="M105.24 224.87C101.478 224.555 97.9786 222.813 95.4603 220C94.6822 218.555 93.7858 217.177 92.7803 215.88L102.52 218C103.036 220.426 103.956 222.748 105.24 224.87Z" fill="black"/>
	<path d="M102.51 191.62C111 192.33 113.36 197.1 113.25 205.91C113.12 216.91 110.04 224.48 99.6202 221.26C85.4602 216.89 88.4002 190.44 102.51 191.62Z" fill="#E4897B"/>
	<path d="M107.8 205C108.375 206.326 109.107 207.578 109.98 208.73C109.701 209.058 109.337 209.303 108.928 209.439C108.519 209.575 108.08 209.596 107.66 209.5L107.8 205Z" fill="#DE5753"/>
	<path d="M102.05 203.58L103.89 202.98C103.89 202.98 102.91 204.44 102.05 203.58Z" fill="#263238"/>
	<path d="M102.69 203.37C102.348 203.202 101.956 203.164 101.588 203.264C101.22 203.363 100.901 203.593 100.69 203.91C101.004 203.767 101.345 203.693 101.69 203.693C102.035 203.693 102.376 203.767 102.69 203.91V203.37Z" fill="#263238"/>
	<path d="M99.2699 199.32C99.1754 199.318 99.0856 199.278 99.0199 199.21C98.9851 199.177 98.9574 199.138 98.9384 199.094C98.9195 199.05 98.9097 199.003 98.9097 198.955C98.9097 198.907 98.9195 198.86 98.9384 198.816C98.9574 198.772 98.9851 198.733 99.0199 198.7C99.5776 198.212 100.241 197.861 100.958 197.673C101.674 197.486 102.425 197.468 103.15 197.62C103.244 197.64 103.326 197.696 103.379 197.777C103.432 197.858 103.45 197.956 103.43 198.05C103.41 198.144 103.354 198.227 103.273 198.279C103.192 198.332 103.094 198.35 103 198.33C102.395 198.206 101.77 198.22 101.171 198.371C100.572 198.522 100.015 198.805 99.5399 199.2C99.5064 199.238 99.4649 199.269 99.4182 199.29C99.3716 199.311 99.321 199.321 99.2699 199.32Z" fill="#263238"/>
	<path d="M112.59 199.47C112.511 199.473 112.433 199.448 112.37 199.4C111.97 199.033 111.493 198.76 110.974 198.601C110.455 198.442 109.907 198.401 109.37 198.48C109.324 198.493 109.276 198.496 109.229 198.49C109.182 198.484 109.136 198.468 109.095 198.445C109.054 198.421 109.017 198.39 108.988 198.352C108.959 198.314 108.938 198.271 108.925 198.225C108.913 198.179 108.909 198.131 108.916 198.084C108.922 198.037 108.937 197.991 108.961 197.95C108.984 197.908 109.016 197.872 109.054 197.843C109.091 197.814 109.134 197.793 109.18 197.78C109.828 197.665 110.494 197.701 111.127 197.882C111.759 198.064 112.342 198.389 112.83 198.83C112.904 198.891 112.952 198.978 112.963 199.073C112.974 199.168 112.948 199.264 112.89 199.34C112.854 199.384 112.808 199.419 112.756 199.441C112.704 199.464 112.647 199.474 112.59 199.47Z" fill="#263238"/>
	<path d="M92 205.16C92 205.16 96.55 198.52 96.4 193.08C96.4 193.08 113.81 187.6 113.22 204.76C113.22 204.76 116.12 189.76 101.55 188.17C86.98 186.58 85.29 208 92.3 215C92.3 215 89.21 209.32 92 205.16Z" fill="#263238"/>
	<path d="M93.27 207.07C93.27 206.08 92.8774 205.13 92.1781 204.429C91.4789 203.728 90.5302 203.333 89.54 203.33C86.88 203.4 85.18 208.7 91.62 210.55C92.54 210.81 93.15 209.94 93.27 207.07Z" fill="#E4897B"/>
	<path d="M107.73 212C107.107 212.837 106.549 213.719 106.06 214.64C105.89 214.58 105.71 214.53 105.54 214.46C103.19 213.63 102.37 212.46 102.18 211.46C102.091 210.952 102.128 210.43 102.29 209.94C102.373 209.658 102.495 209.389 102.65 209.14C103.872 210.301 105.333 211.182 106.93 211.72C107.41 211.9 107.73 212 107.73 212Z" fill="#263238"/>
	<path d="M106.93 211.7L106.42 212.47C104.2 211.68 102.75 210.83 102.29 209.92C102.373 209.638 102.494 209.369 102.65 209.12C103.872 210.281 105.333 211.162 106.93 211.7Z" fill="white"/>
	<path d="M105.54 214.46C103.19 213.63 102.37 212.46 102.18 211.46C103.069 211.788 103.892 212.272 104.61 212.89C105.076 213.304 105.401 213.853 105.54 214.46Z" fill="#DE5753"/>
	<path d="M102.28 192.25C102.28 192.25 97.6899 205.94 88.9099 205C80.1299 204.06 95.1799 187.52 95.1799 187.52C95.1799 187.52 109.99 183.29 116.44 191.52C122.89 199.75 113.25 204.74 113.25 204.74C113.25 204.74 114.69 194 102.28 192.25Z" fill="#263238"/>
	<path d="M95.2802 203.9C95.2294 203.898 95.1803 203.881 95.138 203.853C95.0957 203.825 95.0619 203.786 95.0402 203.74C95.0173 203.676 95.0202 203.606 95.0482 203.545C95.0762 203.483 95.1272 203.435 95.1902 203.41C102.19 200.74 102.03 191.35 102.03 191.25C102.027 191.217 102.031 191.184 102.042 191.153C102.053 191.122 102.071 191.094 102.093 191.07C102.116 191.047 102.144 191.028 102.174 191.016C102.205 191.004 102.237 190.998 102.27 191C102.335 191.002 102.397 191.027 102.445 191.071C102.493 191.116 102.523 191.175 102.53 191.24C102.53 191.34 102.69 201.08 95.3702 203.88L95.2802 203.9Z" fill="#263238"/>
	<path d="M110.67 204.41L112.51 203.82C112.51 203.82 111.52 205.27 110.67 204.41Z" fill="#263238"/>
	<path d="M111.31 204.2C110.967 204.031 110.574 203.993 110.205 204.094C109.837 204.196 109.518 204.429 109.31 204.75C109.619 204.596 109.958 204.511 110.303 204.501C110.649 204.49 110.992 204.555 111.31 204.69V204.2Z" fill="#263238"/>
	<path d="M97.7001 227.13L105.13 230.91L105.01 238.44L94.3901 232.25L97.7001 227.13Z" fill="#62BFCC"/>
	<path d="M106.26 225.71L106.7 230.28L111.55 235.41L110.89 226.97L106.26 225.71Z" fill="#62BFCC"/>
	<path d="M71.9303 174L68.8303 166C68.8869 165.572 68.8432 165.137 68.7026 164.73C68.562 164.322 68.3284 163.952 68.0203 163.65C65.8603 162.04 61.4003 160.58 60.2803 160.75C58.6503 160.99 55.2803 163.94 55.5703 165.87C55.8603 167.8 65.3803 168.99 65.3803 168.99L68.5403 177.76L71.9303 174Z" fill="#E4897B"/>
	<path d="M85.2799 245.31C85.2799 245.31 91.2799 240.54 88.8899 230L82.4399 200.84L71.3599 170.72L65.9399 173.46C65.9399 173.46 75.0399 202.89 75.8799 204.88C76.3099 205.88 78.0199 221.15 80.3499 231.38C82.4899 240.8 85.2799 245.31 85.2799 245.31Z" fill="#62BFCC"/>
	<path opacity="0.6" d="M85.2799 245.31C85.2799 245.31 91.2799 240.54 88.8899 230L82.4399 200.84L71.3599 170.72L65.9399 173.46C65.9399 173.46 75.0399 202.89 75.8799 204.88C76.3099 205.88 78.0199 221.15 80.3499 231.38C82.4899 240.8 85.2799 245.31 85.2799 245.31Z" fill="white"/>
	<path d="M64.9902 172.6L71.3202 169.43L72.7002 171.54L65.3002 174.82L64.9902 172.6Z" fill="#62BFCC"/>
	<path opacity="0.7" d="M64.9902 172.6L71.3202 169.43L72.7002 171.54L65.3002 174.82L64.9902 172.6Z" fill="white"/>
	<path opacity="0.6" d="M97.7001 227.13L105.13 230.91L105.01 238.44L94.3901 232.25L97.7001 227.13Z" fill="white"/>
	<path opacity="0.6" d="M106.26 225.71L106.7 230.28L111.55 235.41L110.89 226.97L106.26 225.71Z" fill="white"/>
	<path d="M317.26 211.41H287.3V234.69H317.26V211.41Z" fill="white"/>
	<path opacity="0.1" d="M317.26 211.41H309.58V234.69H317.26V211.41Z" fill="black"/>
	<path d="M285.58 255.25H319.45V213H308.54L285.58 223.99V255.25Z" fill="#62BFCC"/>
	<path opacity="0.2" d="M319.45 213H308.54V255.25H319.45V213Z" fill="black"/>
	<path opacity="0.7" d="M304.93 232.32H289.07V239.92H304.93V232.32Z" fill="white"/>
	<path opacity="0.7" d="M304.93 242.46H289.07V243.55H304.93V242.46Z" fill="white"/>
	<path opacity="0.7" d="M318.39 245.65H309.58V252.1H318.39V245.65Z" fill="white"/>
	<path d="M304.53 210.14H274.57V234.69H304.53V210.14Z" fill="white"/>
	<path opacity="0.1" d="M304.53 210.14H296.85V234.69H304.53V210.14Z" fill="black"/>
	<path d="M272.85 255.25H306.72V213H295.81L272.85 223.99V255.25Z" fill="#62BFCC"/>
	<path opacity="0.2" d="M306.72 213H295.81V255.25H306.72V213Z" fill="black"/>
	<path opacity="0.7" d="M292.2 232.32H276.34V239.92H292.2V232.32Z" fill="white"/>
	<path opacity="0.7" d="M292.2 242.46H276.34V243.55H292.2V242.46Z" fill="white"/>
	<path opacity="0.7" d="M305.66 245.65H296.85V252.1H305.66V245.65Z" fill="white"/>
	<path d="M251.81 415.66H257.94L268.94 262.41H260.81L251.81 415.66Z" fill="#263238"/>
	<path opacity="0.1" d="M251.81 415.66H257.94L268.4 270.02L268.94 262.66H260.81L260.38 270.02L251.81 415.66Z" fill="white"/>
	<path opacity="0.2" d="M260.38 269.66H268.4L268.94 262.66H260.81L260.38 269.66Z" fill="black"/>
	<path d="M206.85 415.66H212.98L213.98 262.41H205.85L206.85 415.66Z" fill="#263238"/>
	<path opacity="0.1" d="M205.84 262.66L206.01 287.38L206.84 415.66H212.97L213.81 287.38L213.97 262.66H205.84Z" fill="white"/>
	<path opacity="0.2" d="M205.84 262.66L206.01 287.66H213.81L213.97 262.66H205.84Z" fill="black"/>
	<path d="M141.81 415.66H147.94L158.94 262.41H150.81L141.81 415.66Z" fill="#263238"/>
	<path opacity="0.1" d="M141.81 415.66H147.94L158.41 270.02L158.94 262.66H150.81L150.38 270.02L141.81 415.66Z" fill="white"/>
	<path opacity="0.2" d="M150.38 269.66H158.41L158.94 262.66H150.81L150.38 269.66Z" fill="black"/>
	<path d="M321.89 415.66H328.02L319.01 262.41H310.88L321.89 415.66Z" fill="#263238"/>
	<path opacity="0.1" d="M310.88 262.66L311.43 270.02L321.89 415.66H328.01L319.45 270.02L319.01 262.66H310.88Z" fill="white"/>
	<path opacity="0.2" d="M319.01 262.66H310.88L311.43 269.66H319.45L319.01 262.66Z" fill="black"/>
	<path d="M323.3 266.25H146.54C146.256 266.25 145.975 266.194 145.713 266.086C145.451 265.977 145.213 265.818 145.013 265.617C144.812 265.417 144.653 265.179 144.544 264.917C144.436 264.655 144.38 264.374 144.38 264.09V258.58H325.46V264.09C325.46 264.374 325.404 264.655 325.296 264.917C325.187 265.179 325.028 265.417 324.827 265.617C324.627 265.818 324.389 265.977 324.127 266.086C323.864 266.194 323.584 266.25 323.3 266.25Z" fill="#62BFCC"/>
	<path opacity="0.4" d="M323.3 266.25H146.54C146.256 266.25 145.975 266.194 145.713 266.086C145.451 265.977 145.213 265.818 145.013 265.617C144.812 265.417 144.653 265.179 144.544 264.917C144.436 264.655 144.38 264.374 144.38 264.09V258.58H325.46V264.09C325.46 264.374 325.404 264.655 325.296 264.917C325.187 265.179 325.028 265.417 324.827 265.617C324.627 265.818 324.389 265.977 324.127 266.086C323.864 266.194 323.584 266.25 323.3 266.25Z" fill="white"/>
	<path opacity="0.2" d="M144.38 262.41H325.46V258.57H144.38V262.41Z" fill="black"/>
	<path d="M140.58 259.57H329.25C329.534 259.571 329.816 259.516 330.078 259.408C330.341 259.3 330.58 259.141 330.78 258.94C330.981 258.739 331.14 258.501 331.248 258.238C331.357 257.975 331.411 257.694 331.41 257.41C331.41 256.837 331.183 256.288 330.777 255.883C330.372 255.478 329.823 255.25 329.25 255.25H140.58C140.006 255.25 139.456 255.477 139.049 255.882C138.643 256.287 138.413 256.836 138.41 257.41C138.41 257.695 138.466 257.976 138.576 258.239C138.685 258.502 138.845 258.74 139.046 258.941C139.248 259.142 139.487 259.3 139.75 259.408C140.014 259.516 140.296 259.571 140.58 259.57Z" fill="#62BFCC"/>
	<path opacity="0.4" d="M140.58 259.57H329.25C329.534 259.571 329.816 259.516 330.078 259.408C330.341 259.3 330.58 259.141 330.78 258.94C330.981 258.739 331.14 258.501 331.248 258.238C331.357 257.975 331.411 257.694 331.41 257.41C331.41 256.837 331.183 256.288 330.777 255.883C330.372 255.478 329.823 255.25 329.25 255.25H140.58C140.006 255.25 139.456 255.477 139.049 255.882C138.643 256.287 138.413 256.836 138.41 257.41C138.41 257.695 138.466 257.976 138.576 258.239C138.685 258.502 138.845 258.74 139.046 258.941C139.248 259.142 139.487 259.3 139.75 259.408C140.014 259.516 140.296 259.571 140.58 259.57Z" fill="white"/>
	<path d="M288.71 255.23V251.85H290.98L288.71 250.53H290.41L288.14 249.05H285.99V247.35H288.49L285.99 246.36V242.67H288.49V240.26H290.98L288.49 239.42V237.7H290.27L288.81 236.25L287.55 234.98H248.91V236.71H246.36L249.2 237.99V239.42H243.99V242.08H241.68L243.99 243.24V246.21H245.63V247.63H248.91V251.85H247.07L248.58 253.36V255.25L288.71 255.23Z" fill="#62BFCC"/>
	<path opacity="0.7" d="M288.71 255.23V251.85H290.98L288.71 250.53H290.41L288.14 249.05H285.99V247.35H288.49L285.99 246.36V242.67H288.49V240.26H290.98L288.49 239.42V237.7H290.27L288.81 236.25L287.55 234.98H248.91V236.71H246.36L249.2 237.99V239.42H243.99V242.08H241.68L243.99 243.24V246.21H245.63V247.63H248.91V251.85H247.07L248.58 253.36V255.25L288.71 255.23Z" fill="white"/>
	<path opacity="0.1" d="M288.71 255.23V251.85H290.98L288.71 250.53H290.41L288.14 249.05H285.99V247.35H288.49L285.99 246.36V242.67H288.49V240.26H290.98L288.49 239.42V237.7H290.27L288.81 236.25L287.55 234.98H267.2V236.71H264.65L267.48 237.99V239.42H262.27V242.08H259.96L262.27 243.24V246.21H263.91V247.63H267.2V251.85H265.36L266.86 253.36V255.25L288.71 255.23Z" fill="black"/>
	<path opacity="0.1" d="M249.2 239.42H267.48L249.2 238.76V239.42Z" fill="black"/>
	<path opacity="0.1" d="M248.91 247.63H267.2L267.28 248.91L248.91 247.63Z" fill="black"/>
	<path opacity="0.1" d="M245.63 246.21H263.91L245.63 246.85V246.21Z" fill="black"/>
	<path opacity="0.1" d="M248.91 251.85H267.2L248.91 251.18V251.85Z" fill="black"/>
	<path opacity="0.1" d="M248.58 253.36H266.86V254.06L248.58 253.36Z" fill="black"/>
	<path opacity="0.1" d="M243.99 242.08H262.27L243.99 241.5V242.08Z" fill="black"/>
	<path opacity="0.1" d="M248.91 236.71H267.2L248.91 236.07V236.71Z" fill="black"/>
	<path opacity="0.1" d="M288.49 237.7H269.94L288.49 238.27V237.7Z" fill="black"/>
	<path opacity="0.1" d="M267.48 239.42H288.49L269.44 240.04L267.48 239.42Z" fill="black"/>
	<path opacity="0.1" d="M262.27 242.08L288.49 242.67V242.08H262.27Z" fill="black"/>
	<path opacity="0.1" d="M262.27 243.24H275.24L262.27 243.87V243.24Z" fill="black"/>
	<path opacity="0.1" d="M285.99 246.36L267.2 246.21L285.99 245.79V246.36Z" fill="black"/>
	<path opacity="0.1" d="M285.99 247.35H266.86L285.99 247.99V247.35Z" fill="black"/>
	<path opacity="0.1" d="M288.71 250.53H267.48V251.18L288.71 250.53Z" fill="black"/>
	<path opacity="0.1" d="M288.71 251.85H273.33L288.71 252.28V251.85Z" fill="black"/>
	<path d="M239.51 250.87V254.08C239.51 254.9 238.51 255.24 237.72 255.24H173.6C172.78 255.24 171.79 254.9 171.79 254.08V250.87H239.51Z" fill="#263238"/>
	<path opacity="0.4" d="M239.51 250.87V254.08C239.51 254.9 238.51 255.24 237.72 255.24H173.6C172.78 255.24 171.79 254.9 171.79 254.08V250.87H239.51Z" fill="white"/>
	<path opacity="0.2" d="M239.51 250.87V254.08C239.51 254.9 238.51 255.24 237.72 255.24H195.43C194.61 255.24 193.63 254.9 193.63 254.08V250.87H239.51Z" fill="black"/>
	<path d="M250.24 217.55L242.6 252.18C242.469 252.742 242.153 253.244 241.704 253.606C241.255 253.969 240.697 254.171 240.12 254.18H198.43C198.171 254.174 197.916 254.109 197.687 253.988C197.457 253.867 197.258 253.695 197.106 253.485C196.954 253.275 196.853 253.032 196.81 252.776C196.767 252.52 196.785 252.258 196.86 252.01L204.48 217.65C204.637 217.125 204.968 216.67 205.419 216.361C205.871 216.052 206.415 215.907 206.96 215.95H248.66C249.78 215.91 250.48 216.42 250.24 217.55Z" fill="#263238"/>
	<path opacity="0.4" d="M250.24 217.55L242.6 252.18C242.469 252.742 242.153 253.244 241.704 253.606C241.255 253.969 240.697 254.17 240.12 254.18H199.84C199.581 254.174 199.326 254.108 199.096 253.988C198.866 253.867 198.668 253.695 198.516 253.485C198.364 253.275 198.262 253.032 198.22 252.776C198.177 252.52 198.194 252.258 198.27 252.01L205.9 217.65C206.055 217.124 206.386 216.668 206.837 216.359C207.289 216.049 207.834 215.905 208.38 215.95H248.66C249.78 215.91 250.48 216.42 250.24 217.55Z" fill="white"/>
	<path opacity="0.2" d="M229.68 235.15C229.68 238.15 226.5 240.52 224.17 240.52C221.84 240.52 220.46 238.11 221.17 235.15C221.88 232.19 224.17 229.88 226.43 229.79C225.77 232.79 227.19 235.15 229.51 235.15H229.68Z" fill="black"/>
</svg>
