<svg width="500" height="500" viewBox="0 0 500 500" fill="none" xmlns="http://www.w3.org/2000/svg">
<path d="M166.19 77.92C166.19 77.92 90.4196 116.52 52.6296 176C14.8396 235.48 17.8296 312 63.7496 368.8C109.67 425.6 197.44 418.14 270.93 454.12C344.42 490.1 425.5 482.69 460.25 406.46C495 330.23 442.6 301.74 433.6 213.52C424.6 125.3 345.07 -3.88004 166.19 77.92Z" fill="#62BFCC"/>
<path opacity="0.7" d="M166.19 77.92C166.19 77.92 90.4196 116.52 52.6296 176C14.8396 235.48 17.8296 312 63.7496 368.8C109.67 425.6 197.44 418.14 270.93 454.12C344.42 490.1 425.5 482.69 460.25 406.46C495 330.23 442.6 301.74 433.6 213.52C424.6 125.3 345.07 -3.88004 166.19 77.92Z" fill="white"/>
<path d="M368.36 90.82C360.82 86.71 357.36 90.14 354.65 86.71C351.94 83.28 362.19 74.37 341.65 65.46C341.65 65.46 340.28 46.27 312.17 45.58C284.06 44.89 291.61 64.78 284.07 69.58C276.53 74.38 274.47 66.84 266.93 71.64C259.39 76.44 262.8 86 256.63 87.4C250.46 88.8 242.23 81.23 234.69 86.03C227.15 90.83 227.15 94.94 223.69 94.94C220.23 94.94 213.4 92.2 209.29 94.94C205.18 97.68 200.38 101.11 200.38 101.11H373.85C373.85 101.11 375.9 94.94 368.36 90.82Z" stroke="#263238" stroke-linecap="round" stroke-linejoin="round"/>
<path d="M265.77 88C264.787 88.5544 263.764 89.0357 262.71 89.44" stroke="#263238" stroke-linecap="round" stroke-linejoin="round"/>
<path d="M302.87 56C301.17 56.7591 299.675 57.914 298.511 59.3682C297.347 60.8225 296.548 62.5341 296.18 64.36C294.92 70.64 291.99 74.82 288.65 75.24C285.31 75.66 272.75 74.4 270.65 79.01C270.092 80.3574 269.699 81.7678 269.48 83.21" stroke="#263238" stroke-linecap="round" stroke-linejoin="round"/>
<path d="M199.06 140.1C195.11 137.95 193.31 139.74 191.87 137.95C190.43 136.16 195.82 131.48 185.04 126.8C185.04 126.8 184.32 116.74 169.59 116.38C154.86 116.02 158.8 126.44 154.85 129C150.9 131.56 149.85 127.56 145.85 130.08C141.85 132.6 143.7 137.63 140.46 138.35C137.22 139.07 132.91 135.11 128.96 137.63C125.01 140.15 124.96 142.3 123.21 142.3C121.46 142.3 117.82 140.86 115.66 142.3C113.5 143.74 110.99 145.53 110.99 145.53H201.92C201.92 145.53 203 142.26 199.06 140.1Z" stroke="#263238" stroke-linecap="round" stroke-linejoin="round"/>
<path d="M145.27 138.63C144.75 138.914 144.212 139.164 143.66 139.38" stroke="#263238" stroke-linecap="round" stroke-linejoin="round"/>
<path d="M164.72 121.84C163.828 122.237 163.044 122.842 162.433 123.604C161.823 124.366 161.403 125.263 161.21 126.22C160.55 129.51 159.02 131.71 157.21 131.93C155.4 132.15 148.88 131.49 147.78 133.93C147.49 134.637 147.282 135.375 147.16 136.13" stroke="#263238" stroke-linecap="round" stroke-linejoin="round"/>
<path d="M316.65 215.32C316.65 215.32 363.78 219.99 387.65 249.2C387.65 249.2 412.89 215.36 458.22 216.05C469.293 202.689 476.343 186.457 478.549 169.245C480.755 152.032 478.026 134.547 470.68 118.826C463.334 103.104 451.674 89.7922 437.056 80.4403C422.439 71.0884 405.465 66.0812 388.112 66.0015C370.759 65.9219 353.741 70.7731 339.038 79.9903C324.335 89.2076 312.553 102.412 305.063 118.065C297.573 133.719 294.684 151.178 296.732 168.41C298.78 185.642 305.68 201.938 316.63 215.4L316.65 215.32Z" fill="#62BFCC"/>
<path opacity="0.5" d="M316.65 215.32C316.65 215.32 363.78 219.99 387.65 249.2C387.65 249.2 412.89 215.36 458.22 216.05C469.293 202.689 476.343 186.457 478.549 169.245C480.755 152.032 478.026 134.547 470.68 118.826C463.334 103.104 451.674 89.7922 437.056 80.4403C422.439 71.0884 405.465 66.0812 388.112 66.0015C370.759 65.9219 353.741 70.7731 339.038 79.9903C324.335 89.2076 312.553 102.412 305.063 118.065C297.573 133.719 294.684 151.178 296.732 168.41C298.78 185.642 305.68 201.938 316.63 215.4L316.65 215.32Z" fill="white"/>
<path d="M386.11 72.46L384.51 432.76H392.47L386.11 72.46Z" fill="#263238"/>
<path d="M388.49 240.3C388.49 240.3 404.4 211.66 433 202.91C433 202.91 402.77 210.07 387.66 234.73L388.49 240.3Z" fill="#263238"/>
<path d="M388.49 159.16C388.49 159.16 404.4 130.53 433 121.78C433 121.78 402.77 128.94 387.66 153.59L388.49 159.16Z" fill="#263238"/>
<path d="M388.49 199.73C388.49 199.73 404.4 171.09 433 162.34C433 162.34 402.77 169.5 387.66 194.16L388.49 199.73Z" fill="#263238"/>
<path d="M386.13 179.84C386.13 179.84 370.78 151.21 343.13 142.46C343.13 142.46 372.3 149.62 386.88 174.28L386.13 179.84Z" fill="#263238"/>
<path d="M386.13 219.61C386.13 219.61 370.78 190.98 343.13 182.23C343.13 182.23 372.3 189.39 386.88 214.05L386.13 219.61Z" fill="#263238"/>
<path d="M169.16 252.67C169.16 252.67 208.16 256.54 227.97 280.73C227.97 280.73 248.87 252.73 286.41 253.28C295.584 242.214 301.426 228.77 303.255 214.512C305.084 200.255 302.826 185.771 296.742 172.748C290.659 159.724 281.001 148.697 268.893 140.95C256.785 133.203 242.725 129.055 228.351 128.988C213.977 128.922 199.88 132.941 187.701 140.576C175.523 148.211 165.763 159.149 159.56 172.116C153.357 185.083 150.965 199.545 152.663 213.819C154.361 228.092 160.078 241.59 169.15 252.74L169.16 252.67Z" fill="#62BFCC"/>
<path opacity="0.3" d="M169.16 252.67C169.16 252.67 208.16 256.54 227.97 280.73C227.97 280.73 248.87 252.73 286.41 253.28C295.584 242.214 301.426 228.77 303.255 214.512C305.084 200.255 302.826 185.771 296.742 172.748C290.659 159.724 281.001 148.697 268.893 140.95C256.785 133.203 242.725 129.055 228.351 128.988C213.977 128.922 199.88 132.941 187.701 140.576C175.523 148.211 165.763 159.149 159.56 172.116C153.357 185.083 150.965 199.545 152.663 213.819C154.361 228.092 160.078 241.59 169.15 252.74L169.16 252.67Z" fill="white"/>
<path d="M226.68 134.35L225.37 432.76H231.95L226.68 134.35Z" fill="#263238"/>
<path d="M228.66 273.36C228.66 273.36 241.83 249.64 265.55 242.36C265.55 242.36 240.55 248.29 228 268.71L228.66 273.36Z" fill="#263238"/>
<path d="M228.66 206.16C228.66 206.16 241.83 182.44 265.55 175.16C265.55 175.16 240.55 181.09 228 201.52L228.66 206.16Z" fill="#263238"/>
<path d="M228.66 239.76C228.66 239.76 241.83 216.04 265.55 208.76C265.55 208.76 240.55 214.69 228 235.12L228.66 239.76Z" fill="#263238"/>
<path d="M226.71 223.29C226.71 223.29 213.99 199.57 191.11 192.29C191.11 192.29 215.26 198.22 227.34 218.65L226.71 223.29Z" fill="#263238"/>
<path d="M226.71 256.23C226.71 256.23 213.99 232.51 191.11 225.23C191.11 225.23 215.26 231.16 227.34 251.59L226.71 256.23Z" fill="#263238"/>
<path d="M261.13 432.42C260.99 429.29 261.4 423.35 264.77 414.42C270.05 400.42 279.3 428.42 279.3 428.42C279.3 428.42 279.3 425.09 289.21 414.42C299.12 403.75 307.7 422.42 307.7 422.42C307.7 422.42 303.08 377.76 314.31 381.09C325.54 384.42 324.21 422.42 324.21 422.42C324.21 422.42 332.14 394.42 342.71 394.42C353.28 394.42 355.92 414.42 355.92 414.42C355.92 414.42 358.56 379.09 369.13 378.42C379.7 377.75 391.58 407.76 391.58 407.76C391.58 407.76 388.28 367.76 398.85 365.76C409.42 363.76 413.38 380.42 413.38 380.42C413.38 380.42 422.62 325.09 440.46 331.76C458.3 338.43 443.1 399.76 443.1 399.76C443.1 399.76 460.93 357.09 475.46 367.09C488.67 376.18 471.86 423.83 468.7 432.42H261.13Z" fill="#62BFCC"/>
<path d="M474.33 432.33C474.33 432.33 482.07 408.42 478.1 404.42C474.13 400.42 457 417.76 457 417.76C457 417.76 469.55 375.09 449.73 369.76C429.91 364.43 426.62 411.09 426.62 411.09C426.62 411.09 412.09 389.76 408.78 397.76C406.786 402.636 405.669 407.826 405.48 413.09C405.48 413.09 398.22 355.09 381.7 357.76C365.18 360.43 380.38 417.76 380.38 417.76C380.38 417.76 371.14 397.76 360.57 399.76C350 401.76 346 414.42 346 414.42C346 414.42 341.38 403.09 338.07 403.09C334.76 403.09 330.81 423.09 330.81 423.09C330.81 423.09 326.81 392.42 319.58 393.76C312.35 395.1 297.12 421.09 297.12 421.09C297.12 421.09 299.77 406.42 291.84 405.76C283.91 405.1 279.29 428.42 279.29 428.42C279.29 428.42 268.72 406.42 262.12 410.42C255.52 414.42 258.67 433 258.67 433" stroke="#263238" stroke-linecap="round" stroke-linejoin="round"/>
<path d="M438.67 432L444.42 403.76" stroke="#263238" stroke-linecap="round" stroke-linejoin="round"/>
<path d="M397.53 432.42L394.22 413.76" stroke="#263238" stroke-linecap="round" stroke-linejoin="round"/>
<path d="M314 432.33L318.27 417.09" stroke="#263238" stroke-linecap="round" stroke-linejoin="round"/>
<path d="M365.16 433.09L357.9 419.76" stroke="#263238" stroke-linecap="round" stroke-linejoin="round"/>
<path d="M439.8 421.09L434.51 410.42" stroke="#263238" stroke-linecap="round" stroke-linejoin="round"/>
<path d="M397.53 426.42L402.15 417.09" stroke="#263238" stroke-linecap="round" stroke-linejoin="round"/>
<path d="M361.86 425.76L365.16 419.76" stroke="#263238" stroke-linecap="round" stroke-linejoin="round"/>
<path d="M315.33 426.67L312.99 418.42" stroke="#263238" stroke-linecap="round" stroke-linejoin="round"/>
<path d="M231 432.57C231.11 430.14 230.8 425.57 228.33 418.57C224.46 407.7 217.67 429.44 217.67 429.44C217.67 429.44 217.67 426.85 210.41 418.57C203.15 410.29 196.85 424.78 196.85 424.78C196.85 424.78 200.24 390.11 192 392.7C183.76 395.29 184.74 424.78 184.74 424.78C184.74 424.78 179 403.08 171.2 403.08C163.4 403.08 161.51 418.6 161.51 418.6C161.51 418.6 159.58 391.17 151.83 390.66C144.08 390.15 135.36 413.42 135.36 413.42C135.36 413.42 137.78 382.42 130.03 380.82C122.28 379.22 119.37 392.21 119.37 392.21C119.37 392.21 112.59 349.26 99.5095 354.43C86.4295 359.6 97.5695 407.22 97.5695 407.22C97.5695 407.22 84.4895 374.1 73.8395 381.86C64.1495 388.92 76.4795 425.86 78.8395 432.57H231Z" fill="#62BFCC"/>
<path d="M74.67 432.5C74.67 432.5 69 413.94 71.9 410.84C74.8 407.74 87.4 421.19 87.4 421.19C87.4 421.19 78.2 388.07 92.73 383.93C107.26 379.79 109.73 416.01 109.73 416.01C109.73 416.01 120.39 399.45 122.81 405.66C124.275 409.464 125.093 413.486 125.23 417.56C125.23 417.56 130.56 372.56 142.67 374.61C154.78 376.66 143.67 421.19 143.67 421.19C143.67 421.19 150.45 405.66 158.2 407.19C165.95 408.72 168.86 418.57 168.86 418.57C168.86 418.57 172.25 409.77 174.67 409.77C177.09 409.77 180 425.3 180 425.3C180 425.3 182.91 401.49 188.24 402.53C193.57 403.57 204.71 423.74 204.71 423.74C204.71 423.74 202.77 412.36 208.58 411.84C214.39 411.32 217.78 429.44 217.78 429.44C217.78 429.44 225.53 412.36 230.38 415.44C235.23 418.52 232.84 433 232.84 433" stroke="#263238" stroke-linecap="round" stroke-linejoin="round"/>
<path d="M100.82 432.24L96.5996 410.32" stroke="#263238" stroke-linecap="round" stroke-linejoin="round"/>
<path d="M131 432.57L133.42 418.08" stroke="#263238" stroke-linecap="round" stroke-linejoin="round"/>
<path d="M192.26 432.5L189.12 420.67" stroke="#263238" stroke-linecap="round" stroke-linejoin="round"/>
<path d="M154.73 433.09L160.06 422.74" stroke="#263238" stroke-linecap="round" stroke-linejoin="round"/>
<path d="M100 423.77L103.87 415.49" stroke="#263238" stroke-linecap="round" stroke-linejoin="round"/>
<path d="M131 427.91L127.61 420.67" stroke="#263238" stroke-linecap="round" stroke-linejoin="round"/>
<path d="M157.15 427.4L154.73 422.74" stroke="#263238" stroke-linecap="round" stroke-linejoin="round"/>
<path d="M191.28 428.1L193 421.7" stroke="#263238" stroke-linecap="round" stroke-linejoin="round"/>
<path d="M17 432.76H494" stroke="#263238" stroke-linecap="round" stroke-linejoin="round"/>
<path d="M381.28 349.58L376.4 356.91L336.3 374.34C336.3 374.34 330.72 375.39 330.72 377.13C330.72 378.87 329.67 383.76 330.72 384.46C331.77 385.16 338.72 382.71 338.72 382.71C338.72 382.71 336.63 385.15 338.72 385.85C340.81 386.55 342.9 383.41 342.9 383.41C344.947 382.12 346.926 380.725 348.83 379.23C349.812 377.939 350.632 376.532 351.27 375.04L388.27 365.63L395.94 354.12C395.94 354.12 380.24 352.37 381.28 349.58Z" fill="#B5B5B5" stroke="#263238" stroke-linecap="round" stroke-linejoin="round"/>
<path d="M384.069 333.14L379.529 348.04L391.399 355.11L396.189 343.49L384.069 333.14Z" fill="white" stroke="#263238" stroke-linecap="round" stroke-linejoin="round"/>
<path d="M379.999 343.24L394.399 351.83L391.869 356.37L378.239 349.3C378.334 347.168 378.937 345.09 379.999 343.24Z" fill="white" stroke="#263238" stroke-linecap="round" stroke-linejoin="round"/>
<path d="M351.499 422C351.499 422 341.399 427.05 338.619 429.32C335.839 431.59 335.339 431.32 336.089 433.11H368.419L367.659 421.49L351.499 422Z" fill="white" stroke="#263238" stroke-linecap="round" stroke-linejoin="round"/>
<path d="M368.3 431.37H336.09C335.65 431.84 335.7 432.22 336.09 433.14H368.42L368.3 431.37Z" fill="white" stroke="#263238" stroke-linecap="round" stroke-linejoin="round"/>
<path d="M394.93 361.93C394.93 361.93 382.56 356.88 372.46 355.87C362.36 354.86 341.4 355.36 340.39 359.87C339.38 364.38 355.29 413.87 355.29 413.87C355.29 413.87 352.51 415.64 352.29 416.87C352.07 418.1 351.54 421.87 351.54 421.87L367.7 424.39C367.7 424.39 368.2 419.34 368.2 414.55C368.2 409.76 362.65 380.2 362.65 380.2L395.22 390.56L383.1 416.31C383.1 416.31 379.32 423.89 383.61 427.68C387.9 431.47 394.97 430.68 394.97 430.68L452.55 431.44L451.55 422.09C451.55 422.09 443.22 420.83 441.7 420.83C440.18 420.83 411.14 413.51 411.14 413.51C411.14 413.51 434.38 389.26 436.9 385.22C438.399 382.983 439.42 380.461 439.899 377.81C440.377 375.16 440.303 372.44 439.68 369.82C438.16 363.76 437.15 362.49 437.15 362.49C437.15 362.49 419.43 371 410.34 369C404.772 367.727 399.526 365.32 394.93 361.93Z" fill="#263238" stroke="#263238" stroke-linecap="round" stroke-linejoin="round"/>
<path d="M353.769 284.4C353.769 284.4 355.539 290.21 355.539 290.97C355.539 291.73 354.269 295.51 355.289 296.77C356.309 298.03 359.289 298.29 359.289 298.29C359.289 298.29 363.829 303.59 365.849 305.61C367.869 307.63 370.139 308.39 372.669 307.13C375.199 305.87 377.469 302.58 377.469 302.58L382.269 307.38L393.379 294.5L389.379 289.45C389.379 289.45 390.379 283.64 386.599 276.07C382.819 268.5 369.679 266.47 361.089 267.99C352.499 269.51 350.489 274.55 350.489 275.56C350.489 276.57 353.769 284.4 353.769 284.4Z" fill="white" stroke="#263238" stroke-linecap="round" stroke-linejoin="round"/>
<path d="M358.319 261.42C358.319 261.42 353.009 257.42 349.479 259.15C345.949 260.88 347.479 262.43 346.949 265.46C346.419 268.49 337.609 268.74 337.609 273.79C337.609 278.84 343.919 280.61 345.179 280.86C346.439 281.11 345.439 286.67 349.179 286.67C352.919 286.67 353.729 284.4 353.729 284.4C353.729 284.4 350.949 276.32 353.979 275.06C357.009 273.8 363.829 271.27 362.819 276.06C361.809 280.85 365.349 282.37 367.369 281.87C369.389 281.37 371.909 281.61 372.369 282.62C372.829 283.63 375.369 285.4 375.369 282.88C375.369 280.36 376.629 278.08 378.899 278.08C381.169 278.08 382.899 281.87 382.689 284.9C382.519 286.725 381.824 288.461 380.689 289.9L389.279 289.39C389.279 289.39 391.549 278.03 389.529 269.95C387.509 261.87 377.999 257.38 372.199 256.62C366.399 255.86 359.069 259.15 358.319 261.42Z" fill="#263238" stroke="#263238" stroke-linecap="round" stroke-linejoin="round"/>
<path d="M360.49 288.91C361.12 289.91 361.27 290.91 360.84 291.16C360.41 291.41 359.53 290.91 358.91 289.95C358.29 288.99 358.12 287.95 358.56 287.7C359 287.45 359.86 288 360.49 288.91Z" fill="#263238"/>
<path d="M363.77 300.25C364.976 300.01 366.07 299.378 366.88 298.452C367.69 297.526 368.172 296.358 368.25 295.13" stroke="#263238" stroke-linecap="round" stroke-linejoin="round"/>
<path d="M356.08 286.8C356.08 286.8 356.5 284.45 359.28 285.52" stroke="#263238" stroke-linecap="round" stroke-linejoin="round"/>
<path d="M382.809 311.67C382.809 311.67 380.809 328.34 383.059 333.39C385.309 338.44 393.419 358.64 393.419 358.64C393.419 358.64 391.649 371 396.699 374.3C401.749 377.6 420.939 378.09 428.269 373.54C435.599 368.99 438.619 365.46 438.619 362.18C438.619 358.9 433.819 344.5 426.249 330.11C420.706 319.571 413.054 310.285 403.769 302.83C398.469 298.54 396.449 296.52 395.439 296.52C394.429 296.52 382.309 306.88 382.809 311.67Z" fill="white" stroke="#263238" stroke-linecap="round" stroke-linejoin="round"/>
<path d="M393.419 293.24L379.779 308.64L382.559 316.98L397.959 297.03L393.419 293.24Z" fill="white" stroke="#263238" stroke-linecap="round" stroke-linejoin="round"/>
<path d="M393.67 349.55C393.67 349.55 365.89 365.46 362.36 366.73C358.83 368 347.46 367.99 344.17 367.73C343.766 367.658 343.352 367.676 342.956 367.782C342.56 367.888 342.193 368.081 341.879 368.345C341.566 368.609 341.315 368.94 341.144 369.312C340.973 369.685 340.886 370.09 340.89 370.5L340.39 380.1C340.39 380.1 343.16 380.86 344.39 380.1C345.62 379.34 346.91 376.56 346.91 376.56C346.91 376.56 351.46 377.07 352.97 376.06C353.961 375.386 354.891 374.626 355.75 373.79C360.416 373.403 365.054 372.735 369.64 371.79C374.69 370.52 397.92 362.95 401.46 362.19C405 361.43 406.26 359.41 406.51 358.19C406.76 356.97 393.67 349.55 393.67 349.55Z" fill="white" stroke="#263238" stroke-linecap="round" stroke-linejoin="round"/>
<path d="M362 366.83C358.14 367.98 347.36 367.98 344.17 367.74C343.766 367.668 343.352 367.686 342.956 367.792C342.56 367.898 342.193 368.091 341.879 368.355C341.566 368.619 341.315 368.95 341.144 369.322C340.973 369.695 340.886 370.1 340.89 370.51L340.39 380.11C340.39 380.11 343.16 380.87 344.39 380.11C345.62 379.35 346.91 376.57 346.91 376.57C346.91 376.57 351.46 377.08 352.97 376.07C353.961 375.396 354.891 374.636 355.75 373.8C355.75 373.8 359.99 373.43 364.28 372.8L362 366.83Z" fill="#62BFCC" stroke="#263238" stroke-linecap="round" stroke-linejoin="round"/>
<path d="M395.69 311.93C395.69 311.93 391.4 316.72 391.9 320.26C392.4 323.8 393.67 349.55 393.67 349.55L408.06 355.36L412.06 334.91C412.06 334.91 415.35 329.6 414.84 324.55" fill="white"/>
<path d="M395.69 311.93C395.69 311.93 391.4 316.72 391.9 320.26C392.4 323.8 393.67 349.55 393.67 349.55L408.06 355.36L412.06 334.91C412.06 334.91 415.35 329.6 414.84 324.55" stroke="#263238" stroke-linecap="round" stroke-linejoin="round"/>
<path d="M392.409 350.82L407.049 359.65C407.049 359.65 409.049 359.65 409.329 356.37C409.609 353.09 411.089 352.58 409.829 350.82C408.569 349.06 395.179 343.49 393.919 343.49C392.659 343.49 391.399 346.52 392.409 350.82Z" fill="white" stroke="#263238" stroke-linecap="round" stroke-linejoin="round"/>
<path d="M451.5 422.28C451.5 422.28 459.07 415.72 460.34 415.97C461.61 416.22 471.7 425.82 471.7 425.82C471.7 425.82 481.04 430.87 481.04 431.63C481.04 432.39 479.53 432.63 479.53 432.63L452.53 431.63L451.5 422.28Z" fill="white" stroke="#263238" stroke-linecap="round" stroke-linejoin="round"/>
<path d="M481 431.63C481 430.87 471.66 425.82 471.66 425.82C471.66 425.82 461.56 416.22 460.3 415.97C459.85 415.88 458.59 416.66 457.17 417.7L469.39 426.32L478.29 432.59L479.49 432.64C479.49 432.64 481 432.38 481 431.63Z" fill="white" stroke="#263238" stroke-linecap="round" stroke-linejoin="round"/>
<path d="M395.18 390.72L392.66 380.11" stroke="#999999" stroke-linecap="round" stroke-linejoin="round"/>
<path d="M307.32 348.68C304.32 346.98 299.91 344.68 299.91 344.68C299.91 344.68 293.97 329.68 289.31 322.68C284.65 315.68 281.889 314.83 276.799 314.41C271.709 313.99 256.46 318.01 255.8 319.07C255.8 319.07 241.6 325.64 238 330.31C234.4 334.98 235.66 371.21 235.66 371.21C235.66 371.21 220.42 381.53 216.4 393C213.84 400.27 216.82 412.28 230.6 415.89C235.197 417.12 240.023 417.227 244.67 416.2C248.25 419.22 252.214 421.752 256.459 423.73C270.66 430.51 279.98 431.78 288.67 432.21C297.36 432.64 306.26 429.88 307.96 428.21C309.66 426.54 313.049 419.94 304.359 410.41C296.869 402.18 274.27 393.02 268.17 390.65C268.776 387.091 269.111 383.49 269.17 379.88C269.17 379.88 282.31 364.88 283.17 361.44C284.03 358 286.17 344.06 286.17 344.06C286.17 344.06 293.38 357.21 295.5 359.11C297.62 361.01 309.91 359.54 311.18 359.54C312.45 359.54 313.09 354.03 313.09 354.03C311.478 351.937 309.528 350.129 307.32 348.68Z" fill="white" stroke="#263238" stroke-linecap="round" stroke-linejoin="round"/>
<path d="M304.359 410.36C296.869 402.13 274.27 392.97 268.17 390.6C268.36 389.49 268.52 388.41 268.64 387.39C262.937 388.65 257.016 388.53 251.37 387.04C235.26 382.8 231.87 374.11 231.87 374.11H231.75C226.94 378.01 219.11 385.24 216.4 392.97C213.84 400.24 216.82 412.25 230.6 415.86C235.197 417.09 240.023 417.197 244.67 416.17C248.25 419.19 252.214 421.722 256.459 423.7C270.66 430.48 279.98 431.75 288.67 432.18C297.36 432.61 306.26 429.85 307.96 428.18C309.66 426.51 313.049 419.89 304.359 410.36Z" fill="#696969" stroke="#263238" stroke-linecap="round" stroke-linejoin="round"/>
<path d="M224.869 394.46C224.869 394.46 232.499 385.13 242.469 388.95C277.299 402.3 286.129 417.14 288.469 423.07C290.809 429 289.949 432.19 288.049 433.46C286.149 434.73 266.219 430.07 256.679 426.68C247.139 423.29 234.419 424.98 223.609 415.87C212.799 406.76 214.499 397.87 217.889 390.22" fill="#696969"/>
<path d="M224.869 394.46C224.869 394.46 232.499 385.13 242.469 388.95C277.299 402.3 286.129 417.14 288.469 423.07C290.809 429 289.949 432.19 288.049 433.46C286.149 434.73 266.219 430.07 256.679 426.68C247.139 423.29 234.419 424.98 223.609 415.87C212.799 406.76 214.499 397.87 217.889 390.22" stroke="#263238" stroke-linecap="round" stroke-linejoin="round"/>
<path d="M313.05 354C311.446 351.928 309.51 350.137 307.32 348.7C304.32 347 299.91 344.7 299.91 344.7C299.91 344.7 298.2 340.38 295.91 335.29C293.34 337.43 289.13 341.54 287.51 346.53C289.71 350.43 293.93 357.73 295.51 359.11C297.62 361.02 309.92 359.54 311.19 359.54C312.46 359.54 313.05 354 313.05 354Z" fill="white" stroke="#263238" stroke-linecap="round" stroke-linejoin="round"/>
<path d="M286.13 344.01L285.92 332.57" stroke="#263238" stroke-linecap="round" stroke-linejoin="round"/>
<path d="M319.93 372.79C317.549 373.643 315.263 374.743 313.11 376.07C311.11 377.58 310.84 378.85 310.84 381.12C310.84 383.39 306.29 386.42 308.57 386.42C310.85 386.42 312.57 385.66 314.63 381.88C316.69 378.1 319.17 376.98 319.17 376.98C319.327 378.808 319.662 380.617 320.17 382.38C320.876 383.886 320.969 385.607 320.43 387.18C319.92 389.18 322.43 388.7 323.2 383.18C323.608 379.657 323.087 376.089 321.69 372.83L319.93 372.79Z" fill="white" stroke="#263238" stroke-linecap="round" stroke-linejoin="round"/>
<path d="M319.43 366.71C319.43 366.71 320.18 370.97 319.93 371.94C319.68 372.91 316.14 375.62 314.88 377.94C314.376 378.884 314.072 379.922 313.986 380.988C313.9 382.055 314.034 383.127 314.38 384.14C314.88 385.69 316.38 390.72 317.15 389.37C317.92 388.02 318.15 386.46 318.15 383.56C318.15 380.66 317.65 378.13 319.15 376.97L320.67 375.81C321.403 377.502 321.995 379.251 322.44 381.04C323.44 384.72 321.68 387.82 322.18 388.4C322.68 388.98 324.71 388.59 324.96 387.04C325.21 385.49 326.22 383.75 326.22 380.65C326.204 378.759 325.638 376.914 324.59 375.34C324.118 374.035 323.737 372.698 323.45 371.34C323 369 321.45 364.58 319.43 366.71Z" fill="white" stroke="#263238" stroke-linecap="round" stroke-linejoin="round"/>
<path d="M327.25 359.91C328.347 361.764 329.348 363.673 330.25 365.63C330.88 367.33 331.31 369.24 330.25 369.63C329.19 370.02 328.34 367.09 327.7 365.82C327.06 364.55 324.92 359.06 327.25 359.91Z" fill="#62BFCC" stroke="#263238" stroke-linecap="round" stroke-linejoin="round"/>
<path d="M327.249 359.91C325.979 357.16 318.769 352.91 316.859 351.86C315.529 351.11 311.279 351 308.859 350.99C308.279 350.9 307.689 350.9 307.109 350.99C307.109 350.99 303.719 353.53 303.929 356.29C304.008 357.077 304.345 357.816 304.888 358.391C305.43 358.966 306.148 359.346 306.929 359.47H307.929C307.767 360.499 307.946 361.552 308.439 362.47C310.13 365.08 311.159 368.063 311.439 371.16C311.439 373.92 314.619 372.86 315.039 370.74C315.459 368.62 314.409 364.81 314.409 363.96C314.409 363.11 316.099 360.78 316.099 360.78C316.099 360.78 320.769 365.65 321.399 366.71C322.029 367.77 322.249 373.28 323.949 373.71C325.649 374.14 325.639 370.71 325.639 370.71C325.991 370.739 326.344 370.695 326.677 370.58C327.011 370.466 327.317 370.284 327.576 370.045C327.835 369.806 328.042 369.517 328.184 369.194C328.326 368.871 328.399 368.522 328.399 368.17C328.75 365.363 328.353 362.514 327.249 359.91Z" fill="#62BFCC" stroke="#263238" stroke-linecap="round" stroke-linejoin="round"/>
<path d="M322.59 360.55C322.59 360.55 325.76 362.45 325.76 364.36C325.76 366.27 325.55 370.72 325.55 370.72" stroke="#263238" stroke-linecap="round" stroke-linejoin="round"/>
<path d="M289.099 428C289.099 431 290.789 431.39 284.219 435.42C277.649 439.45 267.689 436.69 257.939 434.57C248.189 432.45 236.529 430.75 232.079 430.75C227.629 430.75 216.999 432.4 212.999 432.4C208.999 432.4 202.409 431.98 203.259 429.86C204.109 427.74 214.909 424.34 215.759 423.5C216.609 422.66 216.399 420.95 218.519 417.77C218.999 416.898 219.775 416.227 220.707 415.878C221.639 415.53 222.665 415.527 223.599 415.87C227.343 419.3 231.995 421.581 236.999 422.44C244.999 423.71 259.669 424.34 265.399 424.34C271.129 424.34 278.329 426.89 278.959 426.89" fill="#696969"/>
<path d="M289.099 428C289.099 431 290.789 431.39 284.219 435.42C277.649 439.45 267.689 436.69 257.939 434.57C248.189 432.45 236.529 430.75 232.079 430.75C227.629 430.75 216.999 432.4 212.999 432.4C208.999 432.4 202.409 431.98 203.259 429.86C204.109 427.74 214.909 424.34 215.759 423.5C216.609 422.66 216.399 420.95 218.519 417.77C218.999 416.898 219.775 416.227 220.707 415.878C221.639 415.53 222.665 415.527 223.599 415.87C227.343 419.3 231.995 421.581 236.999 422.44C244.999 423.71 259.669 424.34 265.399 424.34C271.129 424.34 278.329 426.89 278.959 426.89" stroke="#263238" stroke-linecap="round" stroke-linejoin="round"/>
<path d="M236.999 422.44C232.009 421.573 227.372 419.293 223.639 415.87C222.705 415.527 221.679 415.53 220.747 415.878C219.815 416.227 219.039 416.898 218.559 417.77C216.439 420.95 216.649 422.65 215.799 423.5C214.949 424.35 204.139 427.74 203.299 429.86C202.459 431.98 208.999 432.4 212.999 432.4C216.999 432.4 227.629 430.7 232.079 430.7C234.391 430.764 236.698 430.955 238.989 431.27C238.989 431.08 238.909 430.89 238.859 430.7C238.239 428.06 240.019 424.61 241.009 422.97C239.539 422.81 238.169 422.63 236.999 422.44Z" fill="white" stroke="#263238" stroke-linecap="round" stroke-linejoin="round"/>
<path d="M223.6 415.87C222.666 415.527 221.64 415.53 220.707 415.878C219.775 416.227 218.999 416.898 218.52 417.77C216.4 420.95 216.61 422.65 215.76 423.5C214.91 424.35 204.1 427.74 203.26 429.86C202.95 430.61 203.59 431.14 204.71 431.52C207.2 428.85 215.11 426.63 217.32 425.02C219.53 423.41 217.88 422.86 220.21 419.68C220.79 418.937 221.512 418.318 222.335 417.858C223.157 417.397 224.063 417.106 225 417C224.08 416.34 223.6 415.87 223.6 415.87Z" stroke="#263238" stroke-linecap="round" stroke-linejoin="round"/>
<path d="M243.1 326C243.1 326 234.41 329.39 232.72 336.38C231.03 343.37 234.2 386.83 234.2 387.89C234.2 388.95 239.92 390.01 248.83 390.89C257.74 391.77 274.26 391.95 274.26 391.95C274.26 391.95 281.47 395.12 282.95 395.12C284.43 395.12 287.61 393.22 287.61 393.22C287.61 393.22 287.19 395.12 288.88 394.7C290.57 394.28 296.3 389.61 296.3 388.77C296.3 387.93 292.49 383.89 290.16 383.47C287.83 383.05 277.44 387.07 276.38 387.07C275.32 387.07 256.88 383.07 253.49 381.56C250.794 380.467 248.032 379.545 245.22 378.8L246.71 342.14" fill="white"/>
<path d="M243.1 326C243.1 326 234.41 329.39 232.72 336.38C231.03 343.37 234.2 386.83 234.2 387.89C234.2 388.95 239.92 390.01 248.83 390.89C257.74 391.77 274.26 391.95 274.26 391.95C274.26 391.95 281.47 395.12 282.95 395.12C284.43 395.12 287.61 393.22 287.61 393.22C287.61 393.22 287.19 395.12 288.88 394.7C290.57 394.28 296.3 389.61 296.3 388.77C296.3 387.93 292.49 383.89 290.16 383.47C287.83 383.05 277.44 387.07 276.38 387.07C275.32 387.07 256.88 383.07 253.49 381.56C250.794 380.467 248.032 379.545 245.22 378.8L246.71 342.14" stroke="#263238" stroke-linecap="round" stroke-linejoin="round"/>
<path d="M290.16 383.44C287.82 383.01 277.44 387.04 276.38 387.04C275.32 387.04 256.88 383.04 253.49 381.53C250.794 380.437 248.032 379.515 245.22 378.77L246.03 358.68L232.54 358.16C233.11 372.05 234.2 387.27 234.2 387.89C234.2 388.95 239.92 390.01 248.83 390.89C257.74 391.77 274.26 391.95 274.26 391.95C274.26 391.95 281.47 395.12 282.95 395.12C284.43 395.12 287.61 393.22 287.61 393.22C287.61 393.22 287.19 395.12 288.88 394.7C290.57 394.28 296.3 389.61 296.3 388.77C296.3 387.93 292.49 383.86 290.16 383.44Z" fill="white" stroke="#263238" stroke-linecap="round" stroke-linejoin="round"/>
<path d="M296.3 388.74C296.3 387.89 292.49 383.86 290.16 383.44C287.83 383.02 277.44 387.04 276.38 387.04C276.05 387.04 274.03 386.65 271.3 386.04C270.3 387.04 269.35 388.76 269.67 391.8L274.26 391.89C274.26 391.89 281.47 395.06 282.95 395.06C284.43 395.06 287.61 393.16 287.61 393.16C287.61 393.16 287.19 395.06 288.88 394.64C290.57 394.22 296.3 389.58 296.3 388.74Z" fill="#62BFCC" stroke="#263238" stroke-linecap="round" stroke-linejoin="round"/>
<path d="M250.1 284.45C250.1 284.45 242.04 278.1 238.86 280.22C235.68 282.34 222.33 299.29 221.06 303.95C219.79 308.61 226.78 309.68 224.24 313.49C221.7 317.3 216.82 318.79 218.73 323.49C220.64 328.19 228.27 328.58 229.96 329.64C231.65 330.7 234.41 334.73 240.56 333.03C246.71 331.33 245.43 323.49 250.1 322.43C254.77 321.37 254.34 315.02 252.22 309.93C250.1 304.84 248.83 297.85 251.37 294.67C253.91 291.49 250.1 284.45 250.1 284.45Z" fill="#263238" stroke="#263238" stroke-linecap="round" stroke-linejoin="round"/>
<path d="M254.8 280.09C254.8 280.09 248.3 280.46 245.23 288.58C242.16 296.7 245.23 308.8 246.13 310.79C247.03 312.78 251.73 314.79 254.62 313.13C257.51 311.47 261.48 305.19 264.36 303.56C267.24 301.93 273.03 295.08 273.03 295.08L277.18 300.31C277.18 300.31 279.89 299.95 280.97 294.72C282.05 289.49 278.09 283.89 271.59 280.64C265.09 277.39 258.05 277.57 254.8 280.09Z" fill="#263238" stroke="#263238" stroke-linecap="round" stroke-linejoin="round"/>
<path d="M253.91 316.67C253.91 316.67 254.12 323.03 255.61 325.79C257.1 328.55 260.91 340.79 265.78 341.26C270.65 341.73 270.44 324.09 270.44 324.09C270.44 324.09 264.72 324.3 261.33 320.7C257.94 317.1 254.34 315 253.91 316.67Z" stroke="#263238" stroke-linecap="round" stroke-linejoin="round"/>
<path d="M273.75 289.84C273.75 289.84 266.17 298.69 260.21 302.48C254.25 306.27 251.55 306.81 251.55 306.81C251.55 306.81 253.89 306.45 252.27 308.08C250.65 309.71 250.27 310.08 249.38 308.62C248.49 307.16 244.87 305.73 244.14 309.34C243.83 310.847 244.061 312.415 244.793 313.768C245.524 315.122 246.71 316.174 248.14 316.74C249.681 317.389 251.391 317.515 253.01 317.1C253.01 317.1 253.55 323.24 260.77 326.85C267.99 330.46 274.68 325.41 276.66 321.62C278.64 317.83 277.93 300.68 277.56 297.79C277.19 294.9 273.75 289.84 273.75 289.84Z" fill="white" stroke="#263238" stroke-linecap="round" stroke-linejoin="round"/>
<path d="M271.93 306.92C271.93 306.92 271.5 310.31 272.14 310.52C272.78 310.73 275.14 311.58 274.26 312.86C273.38 314.14 272.14 314.98 270.66 314.34" stroke="#263238" stroke-linecap="round" stroke-linejoin="round"/>
<path d="M262.39 317.31C262.39 317.31 264.09 320.06 270.66 318.58" stroke="#263238" stroke-linecap="round" stroke-linejoin="round"/>
<path d="M266.21 308.3C266.21 309.3 265.73 310.1 265.15 310.1C264.57 310.1 264.09 309.29 264.09 308.3C264.09 307.31 264.56 306.5 265.15 306.5C265.74 306.5 266.21 307.3 266.21 308.3Z" fill="#263238"/>
<path d="M275.319 307.24C275.319 308.24 274.849 309.04 274.259 309.04C273.669 309.04 273.199 308.23 273.199 307.24C273.199 306.25 273.669 305.44 274.259 305.44C274.849 305.44 275.319 306.24 275.319 307.24Z" fill="#263238"/>
<path d="M262 305C262.578 304.289 263.331 303.741 264.184 303.408C265.038 303.075 265.963 302.969 266.87 303.1" stroke="#263238" stroke-linecap="round" stroke-linejoin="round"/>
<path d="M272.14 302.89C272.14 302.89 273.41 300.14 276.14 302.05" stroke="#263238" stroke-linecap="round" stroke-linejoin="round"/>
<path d="M342.66 377.33C342.66 377.33 322.2 383.9 316.66 385.92C311.12 387.94 292.92 388.19 291.66 390.21C290.4 392.23 281.34 403.65 279.57 410.21C277.8 416.77 280.15 434.54 281.84 435.65C288.63 440.14 306.49 438.76 314.05 438.47C327.88 437.96 341.27 442.95 349.05 428.87C351.57 424.32 347.93 408.39 347.43 403.09C346.93 397.79 345.15 388.95 344.9 387.68C344.65 386.41 346.45 378.34 342.66 377.33Z" fill="white" stroke="#263238" stroke-linecap="round" stroke-linejoin="round"/>
<path d="M317.069 403C327.889 399.18 337.119 388 339.989 386.12C342.859 384.24 344.429 380.12 344.429 380.12C339.897 383.174 334.977 385.609 329.799 387.36" stroke="#263238" stroke-linecap="round" stroke-linejoin="round"/>
<path d="M344.13 381.94C342.084 388.257 338.468 393.952 333.62 398.49" stroke="#263238" stroke-linecap="round" stroke-linejoin="round"/>
<path d="M295.739 390.85C295.739 390.85 298.919 392.44 309.739 392.44" stroke="#263238" stroke-linecap="round" stroke-linejoin="round"/>
<path d="M294.46 391.17C294.46 391.17 297.01 402.31 311.34 406.77" stroke="#263238" stroke-linecap="round" stroke-linejoin="round"/>
<path d="M291.92 395C294.093 398.832 297.014 402.189 300.51 404.87" stroke="#263238" stroke-linecap="round" stroke-linejoin="round"/>
<path d="M90.94 341.77C90.94 341.77 96.59 357.88 96.59 364.38C96.59 370.88 101.11 406.49 101.67 410.45C102.045 412.909 102.812 415.293 103.94 417.51C107.8 421.077 112.184 424.032 116.94 426.27C125.13 430.27 124.85 429.1 123.44 430.79C122.03 432.48 109.02 432.79 103.09 432.21C97.16 431.63 91.22 433.62 90.94 431.08C90.66 428.54 90.65 418.36 90.65 413.84C90.65 409.32 78.78 387 77.37 379.92C75.96 372.84 76.52 361.84 76.52 361.84L69.46 344.84L90.94 341.77Z" fill="white" stroke="#263238" stroke-linecap="round" stroke-linejoin="round"/>
<path d="M102 420.34V424.34L90.7197 422.17C90.7197 425.99 90.8197 429.72 90.9797 431.17C91.2597 433.71 97.1897 431.73 103.13 432.3C109.07 432.87 122.06 432.58 123.48 430.88C124.9 429.18 125.17 430.32 116.98 426.36C112.226 424.118 107.843 421.164 103.98 417.6C103.98 417.6 102 417.79 102 420.34Z" fill="#263238" stroke="#263238" stroke-linecap="round" stroke-linejoin="round"/>
<path d="M67.7598 343.47C67.7598 343.47 68.5798 361.18 65.7598 368.34C51.6298 404.51 51.0698 418.08 51.0698 418.08C51.0698 418.08 65.2198 428.81 68.3298 430C71.4398 431.19 73.1298 431.69 71.1498 433.1C69.1698 434.51 51.3698 434.23 48.2598 434.23C45.1498 434.23 37.5198 431.97 36.6798 430.56C35.8398 429.15 38.6798 417.84 38.6798 417.84C38.6798 417.84 40.0998 389.58 40.0998 383.08C40.0998 376.58 47.1598 363.87 47.1598 361.6C47.1598 359.33 45.7498 342.39 45.7498 342.39C45.7498 342.39 62.6798 346.58 67.7598 343.47Z" fill="white" stroke="#263238" stroke-linecap="round" stroke-linejoin="round"/>
<path d="M71.1501 433.05C73.1501 431.64 71.4401 431.05 68.3301 429.95C65.2201 428.85 51.0901 418.08 51.0901 418.08C51.0901 418.08 49.6801 418.64 49.6801 420.9C49.7437 422.09 49.4475 423.271 48.8301 424.29C48.8301 424.29 44.3101 423.45 38.9401 422.29C38.4901 422.2 38.0801 422.11 37.6801 422.01C36.9501 425.38 36.1801 429.66 36.6801 430.49C37.5201 431.9 45.1501 434.16 48.2601 434.16C51.3701 434.16 69.1801 434.47 71.1501 433.05Z" fill="#263238" stroke="#263238" stroke-linecap="round" stroke-linejoin="round"/>
<path d="M91.2204 258.4L101.67 273.66L144.91 267.45V275.64C144.91 275.64 102 287.51 100.26 286.1C98.5204 284.69 84.1504 277.9 84.1504 277.9L91.2204 258.4Z" fill="#B5B5B5" stroke="#263238" stroke-linecap="round" stroke-linejoin="round"/>
<path d="M52.5002 238.34C52.5002 238.34 49.3902 256.43 49.3902 263.77V289.77C49.3902 289.77 40.3902 304.19 38.9402 316.9C37.4902 329.61 37.2402 343.75 37.2402 343.75C37.2402 343.75 50.8102 349.69 61.8302 348.84C68.3875 348.34 74.9027 347.391 81.3302 346L96.8702 342.33L85.2802 289.77C85.2802 289.77 90.9402 274.77 91.7802 273.95C92.6202 273.13 95.7802 262.95 94.6102 255.29C93.4402 247.63 89.2402 231.84 80.4802 227.6C71.7202 223.36 56.4602 228.45 52.5002 238.34Z" fill="#5E5E5E" stroke="#263238" stroke-linecap="round" stroke-linejoin="round"/>
<path d="M65.3803 290C64.7676 294.609 62.8291 298.942 59.8003 302.47C54.8003 308.24 50.6803 309.35 50.6803 309.35C50.6803 309.35 48.2603 332.84 49.1903 342" stroke="#263238" stroke-linecap="round" stroke-linejoin="round"/>
<path d="M68.0004 290.78C67.4984 295.113 66.1023 299.295 63.9004 303.06C60.3604 308.83 52.9004 310.88 52.9004 310.88" stroke="#263238" stroke-linecap="round" stroke-linejoin="round"/>
<path d="M85.5697 236.36C84.0897 231.31 79.7997 227.98 77.6997 226.61C71.1697 225 62.5697 227.28 57.0497 232.13C56.9497 232.73 56.8797 233.27 56.7397 233.82C56.4597 234.95 52.2197 259.53 52.2197 259.53C52.2197 259.53 53.2197 259.73 54.7797 260.01C53.2197 267.96 54.9697 281.22 54.9697 281.22C54.9697 281.22 63.3197 283.91 69.7797 283.64C76.2397 283.37 83.7797 279.64 83.7797 279.64C83.7797 277.37 85.6697 265.98 86.5597 260.74H86.9797C86.9797 260.74 87.5397 243.14 85.5697 236.36Z" fill="white" stroke="#263238" stroke-linecap="round" stroke-linejoin="round"/>
<path d="M73.8202 258.07C73.8202 258.07 63.8202 268.07 58.7402 269.64L73.8202 258.07Z" fill="white"/>
<path d="M73.8202 258.07C73.8202 258.07 63.8202 268.07 58.7402 269.64" stroke="#263238" stroke-linecap="round" stroke-linejoin="round"/>
<path d="M73.8198 263.18C73.8198 263.18 68.1598 268.3 63.5898 272.07L73.8198 263.18Z" fill="white"/>
<path d="M73.8198 263.18C73.8198 263.18 68.1598 268.3 63.5898 272.07" stroke="#263238" stroke-linecap="round" stroke-linejoin="round"/>
<path d="M95.6002 336.57C90.5993 339.239 85.0187 340.637 79.3502 340.64C79.3502 340.64 70.8702 344.32 57.5902 343.75C50.5054 343.366 43.6071 341.339 37.4402 337.83C37.2902 341.43 37.2402 343.75 37.2402 343.75C37.2402 343.75 50.8102 349.69 61.8302 348.84C68.3875 348.34 74.9027 347.391 81.3302 346L96.8702 342.33L95.6002 336.57Z" fill="white" stroke="#263238" stroke-linecap="round" stroke-linejoin="round"/>
<path d="M79.6299 346.58L80.1999 315.77" stroke="#263238" stroke-linecap="round" stroke-linejoin="round"/>
<path d="M107.61 199.06V206.4C107.61 206.4 111.28 209.23 109.02 211.21C108.111 212.126 107.061 212.889 105.91 213.47C105.91 213.47 104.5 219.97 101.39 223.08C98.2797 226.19 96.5897 225.62 92.0697 222.51C87.5497 219.4 84.7197 217.43 84.7197 217.43C84.7197 217.43 87.5397 203.58 89.5197 199.06C91.4997 194.54 97.7197 193.97 100.83 194.53C103.94 195.09 107.61 199.06 107.61 199.06Z" fill="white" stroke="#263238" stroke-linecap="round" stroke-linejoin="round"/>
<path d="M104.52 205.85C104.52 206.7 104.14 207.39 103.68 207.39C103.22 207.39 102.84 206.7 102.84 205.85C102.84 205 103.21 204.3 103.68 204.3C104.15 204.3 104.52 205 104.52 205.85Z" fill="#263238"/>
<path d="M101.85 202.2C101.85 202.2 103.4 199.68 105.5 201.78" stroke="#263238" stroke-linecap="round" stroke-linejoin="round"/>
<path d="M99.75 214C100.679 214.945 101.936 215.496 103.26 215.54" stroke="#263238" stroke-linecap="round" stroke-linejoin="round"/>
<path d="M95.0002 196.68C95.0002 196.68 89.0602 210.92 89.3602 217.75C89.6602 224.58 97.3602 244.17 94.1102 250.7C90.8602 257.23 84.0002 262 79.0002 254.26C74.0002 246.52 72.1702 244.17 68.9102 248.91C65.6502 253.65 61.7902 262.27 54.3702 262.27C46.9502 262.27 38.0002 252.48 42.4502 242.09C46.9002 231.7 57.0002 227.25 63.2302 217.16C67.8043 209.99 71.0243 202.042 72.7302 193.71L95.5802 194.6L95.0002 196.68Z" fill="#263238" stroke="#263238" stroke-linecap="round" stroke-linejoin="round"/>
<path d="M72.1299 198.16H107.75C107.75 198.16 107.75 183.02 104.75 180.65C101.75 178.28 78.3399 178.87 75.6699 180.65C72.9999 182.43 70.9999 196.38 72.1299 198.16Z" fill="#62BFCC" stroke="#263238" stroke-linecap="round" stroke-linejoin="round"/>
<path d="M96.3701 198C96.3701 198 104.68 201.26 112.1 201.26C119.52 201.26 123.38 198 123.38 198H96.3701Z" fill="#62BFCC" stroke="#263238" stroke-linecap="round" stroke-linejoin="round"/>
<path d="M154.8 266C154.8 266 157.91 265.44 157.91 267.7C157.91 269.96 154.24 269.7 151.13 268.55C148.02 267.4 152.26 266.6 154.8 266Z" fill="#B5B5B5" stroke="#263238" stroke-linecap="round" stroke-linejoin="round"/>
<path d="M155.37 268.86C155.37 268.86 158.48 268.29 158.48 270.56C158.48 272.83 154.8 272.56 151.7 271.4C148.6 270.24 152.83 269.43 155.37 268.86Z" fill="#B5B5B5" stroke="#263238" stroke-linecap="round" stroke-linejoin="round"/>
<path d="M155.94 271.69C155.94 271.69 159.04 271.12 159.04 273.38C159.04 275.64 155.37 275.38 152.26 274.23C149.15 273.08 153.39 272.25 155.94 271.69Z" fill="#B5B5B5" stroke="#263238" stroke-linecap="round" stroke-linejoin="round"/>
<path d="M155.38 274.58C155.38 274.58 158.49 274.01 158.49 276.27C158.49 278.53 154.81 278.27 151.71 277.12C148.61 275.97 152.84 275.14 155.38 274.58Z" fill="#B5B5B5" stroke="#263238" stroke-linecap="round" stroke-linejoin="round"/>
<path d="M141.8 268.86C141.8 268.86 124.28 307.29 124.28 309.86C124.28 312.43 124.28 319.18 125.98 323.14C127.68 327.1 137.85 334.44 142.37 335.29C146.89 336.14 166.11 331.62 168.37 331.05C170.63 330.48 176.57 314.66 176.28 311.55C175.99 308.44 168.65 296.55 167.52 294.6C166.39 292.65 157.07 279.9 155.94 277.6C154.81 275.3 151.41 269.41 151.41 269.41L141.8 268.86Z" fill="white" stroke="#263238" stroke-linecap="round" stroke-linejoin="round"/>
<path d="M144.91 275.64L142.65 292.32" stroke="#263238" stroke-linecap="round" stroke-linejoin="round"/>
<path d="M148.87 273.66V295.71" stroke="#263238" stroke-linecap="round" stroke-linejoin="round"/>
<path d="M151.7 271.4L159.61 296.27" stroke="#263238" stroke-linecap="round" stroke-linejoin="round"/>
<path d="M96.0005 271.12C96.0005 271.12 82.1605 236.12 78.4805 234.38C74.8005 232.64 63.8105 233 64.9405 246C66.0705 259 87.8305 286.13 90.6505 286.41C93.4705 286.69 137.85 272 137.85 272C137.85 272 152.85 274 153.96 272.28C155.07 270.56 155.37 264.37 155.37 264.37C155.37 264.37 157.37 260.13 155.37 258.72C153.37 257.31 144.37 258.15 142.94 258.15C141.51 258.15 134.74 264.93 134.74 264.93L96.0005 271.12Z" fill="white" stroke="#263238" stroke-linecap="round" stroke-linejoin="round"/>
<path d="M154 272.25C155.13 270.56 155.41 264.34 155.41 264.34C155.41 264.34 157.41 260.1 155.41 258.69C153.41 257.28 144.41 258.12 142.98 258.12C141.55 258.12 134.78 264.9 134.78 264.9L127.43 266.08L128.68 274.99C134.11 273.22 137.89 271.99 137.89 271.99C137.89 271.99 152.83 274 154 272.25Z" fill="#62BFCC" stroke="#263238" stroke-linecap="round" stroke-linejoin="round"/>
<path d="M159.04 254.73L175.15 263.21L172.04 268.86L159.04 254.73Z" fill="white" stroke="#263238" stroke-linecap="round" stroke-linejoin="round"/>
<path d="M145.76 257.56L148.02 251.62C148.02 251.62 149.72 250.77 155.94 252.47C162.16 254.17 174.3 271.4 174.3 271.4C174.3 271.4 165.54 277.62 164.13 277.9C162.72 278.18 157.63 262.9 157.07 261.51C156.622 260.503 156.051 259.556 155.37 258.69L145.76 257.56Z" fill="white" stroke="#263238" stroke-linecap="round" stroke-linejoin="round"/>
<path d="M155.37 258.69L150.37 255.44" stroke="#263238" stroke-linecap="round" stroke-linejoin="round"/>
<path d="M188.711 321.12H117.431V432.82H188.711V321.12Z" fill="#62BFCC" stroke="#263238" stroke-linecap="round" stroke-linejoin="round"/>
<path d="M188.54 359H117.6C117.096 359 116.613 358.8 116.257 358.444C115.9 358.087 115.7 357.604 115.7 357.1C115.7 356.596 115.9 356.113 116.257 355.757C116.613 355.4 117.096 355.2 117.6 355.2H188.54C189.044 355.2 189.527 355.4 189.884 355.757C190.24 356.113 190.44 356.596 190.44 357.1C190.44 357.604 190.24 358.087 189.884 358.444C189.527 358.8 189.044 359 188.54 359Z" fill="#62BFCC" stroke="#263238" stroke-linecap="round" stroke-linejoin="round"/>
<path d="M188.54 322.8H117.6C117.096 322.8 116.613 322.6 116.257 322.243C115.9 321.887 115.7 321.404 115.7 320.9C115.7 320.396 115.9 319.913 116.257 319.556C116.613 319.2 117.096 319 117.6 319H188.54C189.044 319 189.527 319.2 189.884 319.556C190.24 319.913 190.44 320.396 190.44 320.9C190.44 321.404 190.24 321.887 189.884 322.243C189.527 322.6 189.044 322.8 188.54 322.8Z" fill="#62BFCC" stroke="#263238" stroke-linecap="round" stroke-linejoin="round"/>
<path d="M188.54 396.84H117.6C117.096 396.84 116.613 396.64 116.257 396.284C115.9 395.927 115.7 395.444 115.7 394.94C115.7 394.436 115.9 393.953 116.257 393.596C116.613 393.24 117.096 393.04 117.6 393.04H188.54C189.044 393.04 189.527 393.24 189.884 393.596C190.24 393.953 190.44 394.436 190.44 394.94C190.44 395.444 190.24 395.927 189.884 396.284C189.527 396.64 189.044 396.84 188.54 396.84Z" fill="#62BFCC" stroke="#263238" stroke-linecap="round" stroke-linejoin="round"/>
</svg>
