<svg width="500" height="500" viewBox="0 0 500 500" fill="none" xmlns="http://www.w3.org/2000/svg">
<path d="M80.77 407.28C173.59 466.84 324.08 466.84 416.9 407.28C509.72 347.72 509.73 251.15 416.9 191.59C324.07 132.03 173.59 132.02 80.77 191.59C-12.05 251.16 -12 347.72 80.77 407.28Z" fill="#F5F5F5"/>
<path d="M438.81 347.64L434.18 345C434.18 345 431.96 332.76 433.62 322.24C435.95 307.44 446.03 302.33 449.69 303.81C453.35 305.29 454.21 309.66 447.6 318.21C443.7 323.24 438.69 333.91 438.81 347.64Z" fill="#37474F"/>
<path d="M437.13 341.76H437.18C437.266 341.748 437.344 341.702 437.396 341.633C437.448 341.563 437.471 341.476 437.46 341.39C435.55 327.53 441.12 312.39 447.38 306.24C447.442 306.178 447.477 306.093 447.477 306.005C447.477 305.917 447.442 305.832 447.38 305.77C447.318 305.708 447.233 305.673 447.145 305.673C447.057 305.673 446.972 305.708 446.91 305.77C440.54 312 434.86 327.42 436.81 341.48C436.82 341.558 436.858 341.629 436.917 341.681C436.976 341.732 437.052 341.761 437.13 341.76Z" fill="white"/>
<path d="M451.66 355.06C452.39 355.48 453.9 354.56 454.48 354.18C455.469 353.503 456.268 352.584 456.8 351.51C457.399 350.293 457.602 348.918 457.38 347.58C457.266 346.873 457.103 346.174 456.89 345.49L456.3 343.49C456.072 342.849 455.974 342.169 456.01 341.49C456.18 340.11 457.42 339.13 458.54 338.29C459.66 337.45 461.06 336.14 461.06 334.47C460.965 333.175 460.445 331.948 459.58 330.98C458.79 329.98 457.84 329.07 457.12 327.98C456.55 327.239 456.254 326.324 456.28 325.39C456.356 324.815 456.546 324.26 456.84 323.76C457.521 322.727 458.116 321.64 458.62 320.51C458.862 319.938 458.937 319.31 458.836 318.697C458.735 318.085 458.463 317.514 458.05 317.05C457.643 316.747 457.179 316.529 456.686 316.407C456.194 316.285 455.682 316.262 455.18 316.34C454.228 316.453 453.313 316.774 452.5 317.28C449.85 318.75 448.34 321.89 445.5 323.03C444.385 323.378 443.25 323.655 442.1 323.86C441.523 323.967 440.974 324.195 440.49 324.527C440.006 324.86 439.597 325.29 439.29 325.79C438.29 327.85 440.17 330.39 439.45 332.58C438.8 334.52 436.92 335.26 435.86 337.01C435.428 337.782 435.256 338.673 435.37 339.55C435.458 341.034 435.821 342.489 436.44 343.84C437.125 345.184 437.911 346.474 438.79 347.7C438.79 347.7 451.55 355 451.66 355.06Z" fill="#455A64"/>
<path d="M444.14 351.06C444.184 351.059 444.228 351.049 444.268 351.03C444.308 351.012 444.344 350.985 444.374 350.953C444.404 350.92 444.427 350.882 444.442 350.84C444.456 350.798 444.463 350.754 444.46 350.71C443.92 337.6 450.1 323.13 454.59 318.92C454.621 318.889 454.646 318.853 454.663 318.812C454.68 318.772 454.688 318.729 454.688 318.685C454.688 318.641 454.68 318.598 454.663 318.558C454.646 318.517 454.621 318.481 454.59 318.45C454.56 318.419 454.524 318.395 454.485 318.378C454.445 318.361 454.403 318.352 454.36 318.352C454.317 318.352 454.275 318.361 454.235 318.378C454.196 318.395 454.16 318.419 454.13 318.45C449.54 322.74 443.24 337.45 443.79 350.75C443.798 350.837 443.838 350.917 443.903 350.975C443.968 351.032 444.053 351.063 444.14 351.06Z" fill="white"/>
<path d="M446.11 335.57H446.21C449.315 334.715 452.504 334.202 455.72 334.04C455.808 334.035 455.891 333.995 455.951 333.93C456.011 333.865 456.043 333.778 456.04 333.69C456.039 333.646 456.029 333.603 456.01 333.563C455.992 333.524 455.965 333.488 455.932 333.459C455.899 333.43 455.861 333.408 455.819 333.394C455.778 333.381 455.734 333.376 455.69 333.38C452.416 333.544 449.17 334.067 446.01 334.94C445.927 334.965 445.857 335.023 445.815 335.1C445.774 335.176 445.765 335.266 445.79 335.35C445.814 335.415 445.858 335.471 445.915 335.51C445.973 335.549 446.041 335.57 446.11 335.57Z" fill="white"/>
<path d="M129.4 203.25L107.22 216.06L369.7 380.41L414.07 354.8L129.4 203.25Z" fill="#62BFCC"/>
<path d="M96.13 196.84L92.43 224.59L144.19 194.71L96.13 196.84Z" fill="#62BFCC"/>
<path d="M384.49 371.87L351.22 391.08L316.1 370.81C280.1 350.06 234.86 335.89 185.1 329.81C148.251 325.381 110.997 325.509 74.18 330.19L68.08 315.09L90.78 311.57C132.002 305.299 173.883 304.646 215.28 309.63C266.19 315.83 312.55 330.33 349.34 351.57L384.49 371.87Z" fill="#62BFCC"/>
<path d="M61.79 301.44L82.12 345.24L41.11 328.17L61.79 301.44Z" fill="#62BFCC"/>
<path d="M432.55 344.13L399.28 363.34L364.16 343.06C327.37 321.82 302.25 295.06 291.51 265.66C282.87 242 284.03 217.14 294.88 193.78L300.96 180.68L329.74 178C319.15 200.82 318.01 225.11 326.46 248.22C336.95 276.94 361.46 303.09 397.46 323.84L432.55 344.13Z" fill="#62BFCC"/>
<path d="M274.5 179.88L350.36 191.62L320.8 167.94L274.5 179.88Z" fill="#62BFCC"/>
<path d="M340.13 384.68L377.1 406.03L458.43 359.07L421.46 337.72L340.13 384.68Z" fill="#62BFCC"/>
<path opacity="0.1" d="M385.52 384.37C407.043 384.37 424.49 374.296 424.49 361.87C424.49 349.444 407.043 339.37 385.52 339.37C363.997 339.37 346.55 349.444 346.55 361.87C346.55 374.296 363.997 384.37 385.52 384.37Z" fill="black"/>
<path opacity="0.1" d="M205.53 266.91C211.312 266.91 216 264.206 216 260.87C216 257.534 211.312 254.83 205.53 254.83C199.748 254.83 195.06 257.534 195.06 260.87C195.06 264.206 199.748 266.91 205.53 266.91Z" fill="black"/>
<path d="M218.9 169L209.58 163.62C207.36 162.34 204.19 162.62 200.11 164.98C191.17 170.15 186.62 179.89 186.62 189.09C186.62 193.97 187.9 197.57 190.44 199.09L199.75 204.49C201.99 205.84 205.21 205.57 209.38 203.16C218.38 198 222.72 188.16 222.72 178.94C222.72 174.05 221.43 170.48 218.9 169Z" fill="#37474F"/>
<path d="M240.72 44.19L231.24 38.74C224.53 34.9 214.78 35.82 202.46 42.93C180.18 55.79 164.81 80.36 160.1 106.3L169.37 111.66L194.16 106.13C197 95.3 201.22 87.62 211 82C212.271 81.2567 213.611 80.6372 215 80.15C215.185 81.257 215.275 82.3777 215.27 83.5C215.27 91.87 209.62 101.41 187.03 123.87V159.43L196.3 164.78L222.82 149.48V129.81C235.9 115.72 251 94.68 251 68.94C251 56.84 247.4 48.12 240.72 44.19Z" fill="#37474F"/>
<path d="M196.2 129.22C218.8 106.76 224.45 97.22 224.45 88.86C224.45 81.53 221.15 76.11 210.95 82C201.22 87.62 196.95 95.3 194.16 106.13L169.37 111.66C174.08 85.72 189.46 61.15 211.74 48.29C236.53 34 251 44.68 251 68.94C251 94.68 235.94 115.72 222.76 129.81V149.48L196.24 164.78L196.2 129.22Z" fill="#455A64"/>
<path d="M195.89 194.45C195.89 185.24 200.44 175.5 209.38 170.34C218.17 165.27 222.72 169.75 222.72 178.96C222.72 188.17 218.33 198.02 209.38 203.18C200.43 208.34 195.89 203.65 195.89 194.45Z" fill="#455A64"/>
<path d="M224.45 88.86C224.45 97.23 218.8 106.76 196.2 129.22L186.93 123.87C209.53 101.4 215.17 91.87 215.17 83.5C215.18 82.3808 215.089 81.2631 214.9 80.16C222 77.7 224.45 82.58 224.45 88.86Z" fill="#263238"/>
<path d="M400.76 205.9C404.69 204.97 409.01 207.76 411.54 213.9C414.07 220.04 419.12 235.79 420.17 239.9C420.64 241.74 406.64 258.07 407.17 257.83C407.32 257.76 402.61 249.83 402.61 249.83L409.4 239.37L405.15 228.02L400.76 205.9Z" fill="#FFA8A7"/>
<path d="M409.82 352C410.35 352.2 410.48 353.21 410.56 355.23C410.62 356.75 410.95 359.42 409.17 359.95C407.39 360.48 404.76 360.21 403.62 358.77C402.19 356.98 401.22 355.4 399.18 353.21C397.41 351.31 395.5 349.54 394.79 346.87C394.14 344.47 394.68 343.42 396.32 342.72C398.58 341.72 402.13 344.9 403.9 345.4C405.42 345.87 409.28 351.84 409.82 352Z" fill="#263238"/>
<path d="M409.82 350.17V352.65C408.89 353.243 407.816 353.571 406.714 353.601C405.611 353.631 404.521 353.361 403.56 352.82C403.46 352.58 402.91 347.82 402.91 347.82L409.82 350.17Z" fill="#FFA8A7"/>
<path d="M391.4 365.19C391.4 365.19 392.11 367.34 392.5 369.19C392.8 370.69 393.24 373.19 392.71 374.31C392.18 375.43 390.14 376.16 386.98 376.14C384.93 376.14 381.73 377.52 379.54 378.74C377.339 379.829 374.846 380.18 372.43 379.74C369.61 379.4 366.69 377.74 366.24 376.6C365.79 375.46 366.37 374.87 373.01 372.04C373.07 372.04 380.01 368.88 383.23 365.33L391.4 365.19Z" fill="#263238"/>
<path d="M391.4 362.51C391.4 362.51 391.4 364.35 391.4 365.4C391.4 366.45 390.17 368.01 386.97 367.9C384.71 367.82 383.14 367.21 383.23 365.35V362.68L391.4 362.51Z" fill="#FFA8A7"/>
<path d="M412.25 315.87C411.73 311.528 410.724 307.258 409.25 303.14C409.25 303.14 410.65 292.2 411.46 281.68C412.91 262.83 411.74 256.68 408.04 248.21C408.04 248.21 376.41 245.01 375.44 258.15C374.24 274.52 375.84 306.15 376.27 311.94C376.7 317.73 377.27 320.33 379.27 332.41C380.83 341.6 383.27 362.68 383.27 362.68C384.541 363.326 385.951 363.649 387.376 363.619C388.802 363.59 390.197 363.209 391.44 362.51C391.44 362.51 394.03 336.19 393.76 329.51C393.536 324.582 392.673 319.705 391.19 315C391.19 315 393.19 288.32 393.72 284.07C393.72 284.07 394.72 292.54 395.14 298.32C395.56 304.1 397.29 309.63 398.97 320.37C400.42 329.68 403.11 350.51 403.11 350.51C407.31 352.78 409.99 350.26 409.99 350.26C409.99 350.26 413.39 324 412.25 315.87Z" fill="#37474F"/>
<path d="M384.56 201.64L386.05 213.86L396.8 212.89L395.57 199.33L384.56 201.64Z" fill="#FFA8A7"/>
<path d="M408.59 212C407.41 208.79 403.39 205.21 399.26 206C398.18 206.2 397.26 206.36 396.26 206.56C396.17 209.38 390.86 210.84 385.58 209.13C383.99 209.58 382.53 210.05 381.21 210.52C377.43 211.87 375.91 218.15 375.82 228.66C375.73 239.17 374.62 265.39 374.62 265.39L379.04 266.78L381.11 259.11L381.94 268.29C386.965 269.467 392.196 269.443 397.21 268.22C408.58 265.74 412.11 259.6 412.11 259.6C410.734 252.514 407.982 245.767 404.01 239.74C409.66 224.58 410.34 216.79 408.59 212Z" fill="#62BFCC"/>
<path opacity="0.2" d="M375.69 233.89L382.38 226.29L375.53 239.97L375.69 233.89Z" fill="black"/>
<path d="M383.27 209.76C383.27 209.76 376.7 210.28 373.89 214.54C371.08 218.8 360.06 234.54 360.06 234.54C360.06 234.54 342.53 225.77 341.67 224.73C340.81 223.69 341.3 221.59 341.53 220.43C341.76 219.27 342.16 216.7 342.42 215.98C342.87 214.72 341 215.06 339.91 216.24C338.82 217.42 338.32 219.72 337.77 220.12C337.22 220.52 333.05 215.72 331.03 213.4C329.01 211.08 328.03 209.47 326.7 210.4C325.7 211.09 326.35 212.47 327.8 214.45C328.481 215.284 329.105 216.163 329.67 217.08C329.85 217.43 329.31 217.71 329.1 217.9C328.71 218.26 328.01 218.83 327.96 219.38C327.985 219.679 327.985 219.981 327.96 220.28C327.77 220.94 326.96 221.28 326.72 221.9C326.55 222.36 326.72 222.9 326.64 223.37C326.58 223.69 326.41 223.97 326.35 224.29C326.329 224.605 326.377 224.921 326.489 225.216C326.601 225.511 326.775 225.778 327 226C328.42 227.69 330.37 228.34 332.23 229.37C333.78 230.23 335.38 230.6 337.16 231.37C338.94 232.14 360.01 248.31 363.29 246.51C366.57 244.71 383 225.62 383 225.62C388.54 216.72 383.27 209.76 383.27 209.76Z" fill="#FFA8A7"/>
<path d="M378.53 186.57C378.53 186.57 374.33 181.84 377.39 177.03C381 171.37 387.95 170.4 396.19 172.61C399.065 173.493 401.597 175.241 403.442 177.616C405.287 179.99 406.355 182.876 406.5 185.88C406.89 191.88 390.04 196.38 390.43 200.52L378.53 186.57Z" fill="#263238"/>
<path d="M376.22 188.41C376.22 188.41 373.93 192.08 374.22 192.41C374.789 192.762 375.415 193.012 376.07 193.15L376.22 188.41Z" fill="#F28F8F"/>
<path d="M383.19 176.8C380.91 178.06 376.96 180.38 376.19 188.94C375.37 197.73 377.41 200.72 378.63 201.84C379.46 202.59 383.63 202.76 385.78 202.03C388.47 201.11 394.28 198.03 396.91 193.45C400.01 188.04 400.49 180.93 396.67 178.25C391.27 174.48 385.13 175.73 383.19 176.8Z" fill="#FFA8A7"/>
<path d="M382.52 177.18C382.52 177.18 380.72 185.18 383.27 190.18C383.27 190.18 384.6 187.02 387.27 187.84C389.94 188.66 389.84 192.27 387.77 194.17C387.242 194.713 386.571 195.096 385.835 195.273C385.098 195.45 384.327 195.414 383.61 195.17C384.515 197.445 385.876 199.511 387.61 201.24C387.61 201.24 395.61 204.81 402.55 196.98C408.84 189.88 407.67 177.49 398.04 174.57C388.41 171.65 382.52 177.18 382.52 177.18Z" fill="#263238"/>
<path d="M383.65 195.21V206.21L396.58 204.44C399.328 204.063 401.847 202.704 403.67 200.614C405.494 198.524 406.499 195.844 406.5 193.07V185.85L396.24 192.42L391.39 196.71L386.48 196.31L383.65 195.21Z" fill="#263238"/>
<path d="M376.27 173.75C372.81 177.47 372.89 187.92 383.27 190.22L389.52 171.53C385.52 169.08 379.36 170.44 376.27 173.75Z" fill="#263238"/>
<path d="M382.31 193.11C382.056 193.026 381.821 192.893 381.618 192.718C381.416 192.543 381.249 192.33 381.129 192.091C381.009 191.852 380.937 191.591 380.917 191.324C380.898 191.057 380.931 190.789 381.015 190.535C381.099 190.281 381.232 190.046 381.407 189.843C381.582 189.641 381.795 189.474 382.034 189.354C382.273 189.234 382.534 189.162 382.801 189.142C383.068 189.123 383.336 189.156 383.59 189.24L382.31 193.11Z" fill="#263238"/>
<path d="M393.72 284L394.32 277.61C397.769 277.117 401.071 275.886 404 274C404 274 401.95 277.29 396.31 278.79L395.72 286.93L395.37 300.26L393.72 284Z" fill="#263238"/>
<circle cx="425.077" cy="52.077" r="20" transform="rotate(-13.3479 425.077 52.077)" fill="#73D0DD"/>
</svg>
