<svg width="618" height="776" viewBox="0 0 618 776" fill="none" xmlns="http://www.w3.org/2000/svg">
<path d="M198.77 547.28C291.59 606.84 442.08 606.84 534.9 547.28C627.72 487.72 627.73 391.15 534.9 331.59C442.07 272.03 291.59 272.02 198.77 331.59C105.95 391.16 106 487.72 198.77 547.28Z" fill="#F5F5F5"/>
<path d="M556.81 487.64L552.18 485C552.18 485 549.96 472.76 551.62 462.24C553.95 447.44 564.03 442.33 567.69 443.81C571.35 445.29 572.21 449.66 565.6 458.21C561.7 463.24 556.69 473.91 556.81 487.64Z" fill="#37474F"/>
<path d="M555.13 481.76H555.18C555.266 481.748 555.344 481.702 555.396 481.633C555.448 481.563 555.471 481.476 555.46 481.39C553.55 467.53 559.12 452.39 565.38 446.24C565.442 446.178 565.477 446.093 565.477 446.005C565.477 445.917 565.442 445.832 565.38 445.77C565.318 445.708 565.233 445.673 565.145 445.673C565.057 445.673 564.972 445.708 564.91 445.77C558.54 452 552.86 467.42 554.81 481.48C554.82 481.558 554.858 481.629 554.917 481.681C554.976 481.732 555.052 481.761 555.13 481.76Z" fill="white"/>
<path d="M569.66 495.06C570.39 495.48 571.9 494.56 572.48 494.18C573.469 493.503 574.268 492.584 574.8 491.51C575.399 490.293 575.602 488.918 575.38 487.58C575.266 486.873 575.103 486.174 574.89 485.49L574.3 483.49C574.072 482.849 573.974 482.169 574.01 481.49C574.18 480.11 575.42 479.13 576.54 478.29C577.66 477.45 579.06 476.14 579.06 474.47C578.965 473.175 578.445 471.948 577.58 470.98C576.79 469.98 575.84 469.07 575.12 467.98C574.55 467.239 574.254 466.324 574.28 465.39C574.356 464.815 574.546 464.26 574.84 463.76C575.521 462.727 576.116 461.64 576.62 460.51C576.862 459.938 576.937 459.31 576.836 458.697C576.735 458.085 576.463 457.514 576.05 457.05C575.643 456.747 575.179 456.529 574.686 456.407C574.194 456.285 573.682 456.262 573.18 456.34C572.228 456.453 571.313 456.774 570.5 457.28C567.85 458.75 566.34 461.89 563.5 463.03C562.385 463.378 561.25 463.655 560.1 463.86C559.523 463.967 558.974 464.195 558.49 464.527C558.006 464.86 557.597 465.29 557.29 465.79C556.29 467.85 558.17 470.39 557.45 472.58C556.8 474.52 554.92 475.26 553.86 477.01C553.428 477.782 553.256 478.673 553.37 479.55C553.458 481.034 553.821 482.489 554.44 483.84C555.125 485.184 555.911 486.474 556.79 487.7C556.79 487.7 569.55 495 569.66 495.06Z" fill="#455A64"/>
<path d="M562.14 491.06C562.184 491.059 562.228 491.049 562.268 491.03C562.308 491.012 562.344 490.985 562.374 490.953C562.404 490.92 562.427 490.882 562.442 490.84C562.456 490.798 562.463 490.754 562.46 490.71C561.92 477.6 568.1 463.13 572.59 458.92C572.621 458.889 572.646 458.853 572.663 458.812C572.68 458.772 572.688 458.729 572.688 458.685C572.688 458.641 572.68 458.598 572.663 458.558C572.646 458.517 572.621 458.481 572.59 458.45C572.56 458.419 572.524 458.395 572.485 458.378C572.445 458.361 572.403 458.352 572.36 458.352C572.317 458.352 572.275 458.361 572.235 458.378C572.196 458.395 572.16 458.419 572.13 458.45C567.54 462.74 561.24 477.45 561.79 490.75C561.798 490.837 561.838 490.917 561.903 490.975C561.968 491.032 562.053 491.063 562.14 491.06Z" fill="white"/>
<path d="M564.11 475.57H564.21C567.315 474.715 570.504 474.202 573.72 474.04C573.808 474.035 573.891 473.995 573.951 473.93C574.011 473.865 574.043 473.778 574.04 473.69C574.039 473.646 574.029 473.603 574.01 473.563C573.992 473.524 573.965 473.488 573.932 473.459C573.899 473.43 573.861 473.408 573.819 473.394C573.778 473.381 573.734 473.376 573.69 473.38C570.416 473.544 567.17 474.067 564.01 474.94C563.927 474.965 563.857 475.023 563.815 475.1C563.774 475.176 563.765 475.266 563.79 475.35C563.814 475.415 563.858 475.471 563.915 475.51C563.973 475.549 564.041 475.57 564.11 475.57Z" fill="white"/>
<path d="M247.4 343.25L225.22 356.06L487.7 520.41L532.07 494.8L247.4 343.25Z" fill="#62BFCC"/>
<path d="M214.13 336.84L210.43 364.59L262.19 334.71L214.13 336.84Z" fill="#62BFCC"/>
<path d="M502.49 511.87L469.22 531.08L434.1 510.81C398.1 490.06 352.86 475.89 303.1 469.81C266.251 465.381 228.997 465.509 192.18 470.19L186.08 455.09L208.78 451.57C250.002 445.299 291.883 444.646 333.28 449.63C384.19 455.83 430.55 470.33 467.34 491.57L502.49 511.87Z" fill="#62BFCC"/>
<path d="M179.79 441.44L200.12 485.24L159.11 468.17L179.79 441.44Z" fill="#62BFCC"/>
<path d="M550.55 484.13L517.28 503.34L482.16 483.06C445.37 461.82 420.25 435.06 409.51 405.66C400.87 382 402.03 357.14 412.88 333.78L418.96 320.68L447.74 318C437.15 340.82 436.01 365.11 444.46 388.22C454.95 416.94 479.46 443.09 515.46 463.84L550.55 484.13Z" fill="#62BFCC"/>
<path d="M392.5 319.88L468.36 331.62L438.8 307.94L392.5 319.88Z" fill="#62BFCC"/>
<path d="M458.13 524.68L495.1 546.03L576.43 499.07L539.46 477.72L458.13 524.68Z" fill="#62BFCC"/>
<path opacity="0.1" d="M503.52 524.37C525.043 524.37 542.49 514.296 542.49 501.87C542.49 489.444 525.043 479.37 503.52 479.37C481.997 479.37 464.55 489.444 464.55 501.87C464.55 514.296 481.997 524.37 503.52 524.37Z" fill="black"/>
<path opacity="0.1" d="M323.53 406.91C329.312 406.91 334 404.206 334 400.87C334 397.534 329.312 394.83 323.53 394.83C317.748 394.83 313.06 397.534 313.06 400.87C313.06 404.206 317.748 406.91 323.53 406.91Z" fill="black"/>
<path d="M336.9 309L327.58 303.62C325.36 302.34 322.19 302.62 318.11 304.98C309.17 310.15 304.62 319.89 304.62 329.09C304.62 333.97 305.9 337.57 308.44 339.09L317.75 344.49C319.99 345.84 323.21 345.57 327.38 343.16C336.38 338 340.72 328.16 340.72 318.94C340.72 314.05 339.43 310.48 336.9 309Z" fill="#37474F"/>
<path d="M358.72 184.19L349.24 178.74C342.53 174.9 332.78 175.82 320.46 182.93C298.18 195.79 282.81 220.36 278.1 246.3L287.37 251.66L312.16 246.13C315 235.3 319.22 227.62 329 222C330.271 221.257 331.611 220.637 333 220.15C333.185 221.257 333.275 222.378 333.27 223.5C333.27 231.87 327.62 241.41 305.03 263.87V299.43L314.3 304.78L340.82 289.48V269.81C353.9 255.72 369 234.68 369 208.94C369 196.84 365.4 188.12 358.72 184.19Z" fill="#37474F"/>
<path d="M314.2 269.22C336.8 246.76 342.45 237.22 342.45 228.86C342.45 221.53 339.15 216.11 328.95 222C319.22 227.62 314.95 235.3 312.16 246.13L287.37 251.66C292.08 225.72 307.46 201.15 329.74 188.29C354.53 174 369 184.68 369 208.94C369 234.68 353.94 255.72 340.76 269.81V289.48L314.24 304.78L314.2 269.22Z" fill="#455A64"/>
<path d="M313.89 334.45C313.89 325.24 318.44 315.5 327.38 310.34C336.17 305.27 340.72 309.75 340.72 318.96C340.72 328.17 336.33 338.02 327.38 343.18C318.43 348.34 313.89 343.65 313.89 334.45Z" fill="#455A64"/>
<path d="M342.45 228.86C342.45 237.23 336.8 246.76 314.2 269.22L304.93 263.87C327.53 241.4 333.17 231.87 333.17 223.5C333.18 222.381 333.089 221.263 332.9 220.16C340 217.7 342.45 222.58 342.45 228.86Z" fill="#263238"/>
<path d="M518.76 345.9C522.69 344.97 527.01 347.76 529.54 353.9C532.07 360.04 537.12 375.79 538.17 379.9C538.64 381.74 524.64 398.07 525.17 397.83C525.32 397.76 520.61 389.83 520.61 389.83L527.4 379.37L523.15 368.02L518.76 345.9Z" fill="#FFA8A7"/>
<path d="M527.82 492C528.35 492.2 528.48 493.21 528.56 495.23C528.62 496.75 528.95 499.42 527.17 499.95C525.39 500.48 522.76 500.21 521.62 498.77C520.19 496.98 519.22 495.4 517.18 493.21C515.41 491.31 513.5 489.54 512.79 486.87C512.14 484.47 512.68 483.42 514.32 482.72C516.58 481.72 520.13 484.9 521.9 485.4C523.42 485.87 527.28 491.84 527.82 492Z" fill="#263238"/>
<path d="M527.82 490.17V492.65C526.89 493.243 525.816 493.571 524.714 493.601C523.611 493.631 522.521 493.361 521.56 492.82C521.46 492.58 520.91 487.82 520.91 487.82L527.82 490.17Z" fill="#FFA8A7"/>
<path d="M509.4 505.19C509.4 505.19 510.11 507.34 510.5 509.19C510.8 510.69 511.24 513.19 510.71 514.31C510.18 515.43 508.14 516.16 504.98 516.14C502.93 516.14 499.73 517.52 497.54 518.74C495.339 519.829 492.846 520.18 490.43 519.74C487.61 519.4 484.69 517.74 484.24 516.6C483.79 515.46 484.37 514.87 491.01 512.04C491.07 512.04 498.01 508.88 501.23 505.33L509.4 505.19Z" fill="#263238"/>
<path d="M509.4 502.51C509.4 502.51 509.4 504.35 509.4 505.4C509.4 506.45 508.17 508.01 504.97 507.9C502.71 507.82 501.14 507.21 501.23 505.35V502.68L509.4 502.51Z" fill="#FFA8A7"/>
<path d="M530.25 455.87C529.73 451.528 528.724 447.258 527.25 443.14C527.25 443.14 528.65 432.2 529.46 421.68C530.91 402.83 529.74 396.68 526.04 388.21C526.04 388.21 494.41 385.01 493.44 398.15C492.24 414.52 493.84 446.15 494.27 451.94C494.7 457.73 495.27 460.33 497.27 472.41C498.83 481.6 501.27 502.68 501.27 502.68C502.541 503.326 503.951 503.649 505.376 503.619C506.802 503.59 508.197 503.209 509.44 502.51C509.44 502.51 512.03 476.19 511.76 469.51C511.536 464.582 510.673 459.705 509.19 455C509.19 455 511.19 428.32 511.72 424.07C511.72 424.07 512.72 432.54 513.14 438.32C513.56 444.1 515.29 449.63 516.97 460.37C518.42 469.68 521.11 490.51 521.11 490.51C525.31 492.78 527.99 490.26 527.99 490.26C527.99 490.26 531.39 464 530.25 455.87Z" fill="#37474F"/>
<path d="M502.56 341.64L504.05 353.86L514.8 352.89L513.57 339.33L502.56 341.64Z" fill="#FFA8A7"/>
<path d="M526.59 352C525.41 348.79 521.39 345.21 517.26 346C516.18 346.2 515.26 346.36 514.26 346.56C514.17 349.38 508.86 350.84 503.58 349.13C501.99 349.58 500.53 350.05 499.21 350.52C495.43 351.87 493.91 358.15 493.82 368.66C493.73 379.17 492.62 405.39 492.62 405.39L497.04 406.78L499.11 399.11L499.94 408.29C504.965 409.467 510.196 409.443 515.21 408.22C526.58 405.74 530.11 399.6 530.11 399.6C528.734 392.514 525.982 385.767 522.01 379.74C527.66 364.58 528.34 356.79 526.59 352Z" fill="#62BFCC"/>
<path opacity="0.2" d="M493.69 373.89L500.38 366.29L493.53 379.97L493.69 373.89Z" fill="black"/>
<path d="M501.27 349.76C501.27 349.76 494.7 350.28 491.89 354.54C489.08 358.8 478.06 374.54 478.06 374.54C478.06 374.54 460.53 365.77 459.67 364.73C458.81 363.69 459.3 361.59 459.53 360.43C459.76 359.27 460.16 356.7 460.42 355.98C460.87 354.72 459 355.06 457.91 356.24C456.82 357.42 456.32 359.72 455.77 360.12C455.22 360.52 451.05 355.72 449.03 353.4C447.01 351.08 446.03 349.47 444.7 350.4C443.7 351.09 444.35 352.47 445.8 354.45C446.481 355.284 447.105 356.163 447.67 357.08C447.85 357.43 447.31 357.71 447.1 357.9C446.71 358.26 446.01 358.83 445.96 359.38C445.985 359.679 445.985 359.981 445.96 360.28C445.77 360.94 444.96 361.28 444.72 361.9C444.55 362.36 444.72 362.9 444.64 363.37C444.58 363.69 444.41 363.97 444.35 364.29C444.329 364.605 444.377 364.921 444.489 365.216C444.601 365.511 444.775 365.778 445 366C446.42 367.69 448.37 368.34 450.23 369.37C451.78 370.23 453.38 370.6 455.16 371.37C456.94 372.14 478.01 388.31 481.29 386.51C484.57 384.71 501 365.62 501 365.62C506.54 356.72 501.27 349.76 501.27 349.76Z" fill="#FFA8A7"/>
<path d="M496.53 326.57C496.53 326.57 492.33 321.84 495.39 317.03C499 311.37 505.95 310.4 514.19 312.61C517.065 313.493 519.597 315.241 521.442 317.616C523.287 319.99 524.355 322.876 524.5 325.88C524.89 331.88 508.04 336.38 508.43 340.52L496.53 326.57Z" fill="#263238"/>
<path d="M494.22 328.41C494.22 328.41 491.93 332.08 492.22 332.41C492.789 332.762 493.415 333.012 494.07 333.15L494.22 328.41Z" fill="#F28F8F"/>
<path d="M501.19 316.8C498.91 318.06 494.96 320.38 494.19 328.94C493.37 337.73 495.41 340.72 496.63 341.84C497.46 342.59 501.63 342.76 503.78 342.03C506.47 341.11 512.28 338.03 514.91 333.45C518.01 328.04 518.49 320.93 514.67 318.25C509.27 314.48 503.13 315.73 501.19 316.8Z" fill="#FFA8A7"/>
<path d="M500.52 317.18C500.52 317.18 498.72 325.18 501.27 330.18C501.27 330.18 502.6 327.02 505.27 327.84C507.94 328.66 507.84 332.27 505.77 334.17C505.242 334.713 504.571 335.096 503.835 335.273C503.098 335.45 502.327 335.414 501.61 335.17C502.515 337.445 503.876 339.511 505.61 341.24C505.61 341.24 513.61 344.81 520.55 336.98C526.84 329.88 525.67 317.49 516.04 314.57C506.41 311.65 500.52 317.18 500.52 317.18Z" fill="#263238"/>
<path d="M501.65 335.21V346.21L514.58 344.44C517.328 344.063 519.847 342.704 521.67 340.614C523.494 338.524 524.499 335.844 524.5 333.07V325.85L514.24 332.42L509.39 336.71L504.48 336.31L501.65 335.21Z" fill="#263238"/>
<path d="M494.27 313.75C490.81 317.47 490.89 327.92 501.27 330.22L507.52 311.53C503.52 309.08 497.36 310.44 494.27 313.75Z" fill="#263238"/>
<path d="M500.31 333.11C500.056 333.026 499.821 332.893 499.618 332.718C499.416 332.543 499.249 332.33 499.129 332.091C499.009 331.852 498.937 331.591 498.917 331.324C498.898 331.057 498.931 330.789 499.015 330.535C499.099 330.281 499.232 330.046 499.407 329.843C499.582 329.641 499.795 329.474 500.034 329.354C500.273 329.234 500.534 329.162 500.801 329.142C501.068 329.123 501.336 329.156 501.59 329.24L500.31 333.11Z" fill="#263238"/>
<path d="M511.72 424L512.32 417.61C515.769 417.117 519.071 415.886 522 414C522 414 519.95 417.29 514.31 418.79L513.72 426.93L513.37 440.26L511.72 424Z" fill="#263238"/>
<circle cx="543.077" cy="192.077" r="20" transform="rotate(-13.3479 543.077 192.077)" fill="#73D0DD"/>
<path d="M283.047 56.3561C161 109.5 109.209 202 78.0467 261.356C44.4467 325.356 28.38 288.023 24.5467 261.356C21.7134 204.856 10.0467 97.0335 78.0467 38.3561C146.047 -20.3213 431.104 -8.11382 283.047 56.3561Z" fill="#73D0DD"/>
<circle cx="338.192" cy="697.192" r="50" transform="rotate(-13.3479 338.192 697.192)" fill="#73D0DD"/>
<path d="M156.5 614C100.5 570 57 551.5 91.5 426.5C24 470.5 -6 548 1.5 628.5C13.7181 759.641 48 787.126 91.5 771C145 751.167 242.353 681.456 156.5 614Z" fill="#73D0DD"/>
</svg>
