<svg width="749" height="783" viewBox="0 0 749 783" fill="none" xmlns="http://www.w3.org/2000/svg">
<path opacity="0.7" d="M201.93 333.09C201.93 333.09 174.05 405.09 213.23 477.59C252.41 550.09 333.11 588.39 397.7 621.14C462.29 653.89 529.36 637.94 561.23 584.3C593.1 530.66 549.39 492.37 549.33 415.88C549.27 339.39 560.78 319.14 519.33 254.52C477.88 189.9 376.27 175.59 299.43 223.52C222.59 271.45 201.93 333.09 201.93 333.09Z" fill="white"/>
<path d="M153.78 446.21C148.612 422.305 150.848 397.393 160.19 374.79C173 343.17 200.46 320.71 231.24 307.6C275.98 288.6 319.9 288.19 356.24 250.86C367.45 239.34 376.87 226.15 388.32 214.86C422.12 181.6 471.58 185.63 508.51 212.01C585.51 267.01 613.27 376.01 608.98 466.07C607.06 506.5 587.76 544.13 557.21 570.65C488.12 630.65 370.81 620.55 291.45 589.23C232.31 565.9 167.68 511.43 153.78 446.21Z" fill="#7BD8E5"/>
<path opacity="0.7" d="M153.78 446.21C148.612 422.305 150.848 397.393 160.19 374.79C173 343.17 200.46 320.71 231.24 307.6C275.98 288.6 319.9 288.19 356.24 250.86C367.45 239.34 376.87 226.15 388.32 214.86C422.12 181.6 471.58 185.63 508.51 212.01C585.51 267.01 613.27 376.01 608.98 466.07C607.06 506.5 587.76 544.13 557.21 570.65C488.12 630.65 370.81 620.55 291.45 589.23C232.31 565.9 167.68 511.43 153.78 446.21Z" fill="white"/>
<path d="M384.94 272.97V279.61" stroke="#263238" stroke-width="1.10721" stroke-linecap="round" stroke-linejoin="round"/>
<path d="M384.94 286.78V297.53" stroke="#263238" stroke-width="1.10721" stroke-linecap="round" stroke-linejoin="round" stroke-dasharray="7.17 7.17"/>
<path d="M384.94 301.11V307.75" stroke="#263238" stroke-width="1.10721" stroke-linecap="round" stroke-linejoin="round"/>
<path d="M490.91 385.38H484.27" stroke="#263238" stroke-width="1.10721" stroke-linecap="round" stroke-linejoin="round"/>
<path d="M477.1 385.38H466.35" stroke="#263238" stroke-width="1.10721" stroke-linecap="round" stroke-linejoin="round" stroke-dasharray="7.17 7.17"/>
<path d="M462.77 385.38H456.13" stroke="#263238" stroke-width="1.10721" stroke-linecap="round" stroke-linejoin="round"/>
<path d="M313.76 385.38H307.11" stroke="#263238" stroke-width="1.10721" stroke-linecap="round" stroke-linejoin="round"/>
<path d="M299.95 385.38H289.2" stroke="#263238" stroke-width="1.10721" stroke-linecap="round" stroke-linejoin="round" stroke-dasharray="7.17 7.17"/>
<path d="M285.62 385.38H278.97" stroke="#263238" stroke-width="1.10721" stroke-linecap="round" stroke-linejoin="round"/>
<path d="M568 407.9C568 407.436 568.184 406.991 568.513 406.663C568.841 406.334 569.286 406.15 569.75 406.15C570.214 406.15 570.659 406.334 570.987 406.663C571.316 406.991 571.5 407.436 571.5 407.9V411.72C571.5 412.184 571.316 412.629 570.987 412.957C570.659 413.286 570.214 413.47 569.75 413.47C569.286 413.47 568.841 413.286 568.513 412.957C568.184 412.629 568 412.184 568 411.72V407.9ZM569.15 411.79C569.15 412.31 569.38 412.51 569.75 412.51C570.12 412.51 570.34 412.31 570.34 411.79V407.79C570.34 407.27 570.11 407.07 569.75 407.07C569.39 407.07 569.15 407.27 569.15 407.79V411.79Z" fill="#263238"/>
<path d="M568.82 417.54C569.108 417.576 569.398 417.5 569.632 417.329C569.866 417.158 570.026 416.905 570.08 416.62H570.86V424H569.71V418.41H568.82V417.54Z" fill="#263238"/>
<path d="M568 428.85C568 428.386 568.184 427.941 568.513 427.613C568.841 427.284 569.286 427.1 569.75 427.1C570.214 427.1 570.659 427.284 570.987 427.613C571.316 427.941 571.5 428.386 571.5 428.85V432.66C571.5 433.124 571.316 433.569 570.987 433.897C570.659 434.226 570.214 434.41 569.75 434.41C569.286 434.41 568.841 434.226 568.513 433.897C568.184 433.569 568 433.124 568 432.66V428.85ZM569.15 432.74C569.15 433.26 569.38 433.46 569.75 433.46C570.12 433.46 570.34 433.26 570.34 432.74V428.74C570.34 428.21 570.11 428.02 569.75 428.02C569.39 428.02 569.15 428.21 569.15 428.74V432.74Z" fill="#263238"/>
<path d="M568.82 438.49C569.108 438.526 569.398 438.45 569.632 438.279C569.866 438.108 570.026 437.855 570.08 437.57H570.86V444.89H569.71V439.3H568.82V438.49Z" fill="#263238"/>
<path d="M568 449.8C568 449.336 568.184 448.891 568.513 448.563C568.841 448.234 569.286 448.05 569.75 448.05C570.214 448.05 570.659 448.234 570.987 448.563C571.316 448.891 571.5 449.336 571.5 449.8V453.61C571.5 454.074 571.316 454.519 570.987 454.847C570.659 455.176 570.214 455.36 569.75 455.36C569.286 455.36 568.841 455.176 568.513 454.847C568.184 454.519 568 454.074 568 453.61V449.8ZM569.15 453.68C569.15 454.21 569.38 454.4 569.75 454.4C570.12 454.4 570.34 454.21 570.34 453.68V449.68C570.34 449.16 570.11 448.96 569.75 448.96C569.39 448.96 569.15 449.16 569.15 449.68V453.68Z" fill="#263238"/>
<path d="M568.82 459.43C569.108 459.466 569.398 459.39 569.632 459.219C569.866 459.048 570.026 458.795 570.08 458.51H570.86V465.84H569.71V460.25H568.82V459.43Z" fill="#263238"/>
<path d="M568 470.74C568 470.276 568.184 469.831 568.513 469.503C568.841 469.174 569.286 468.99 569.75 468.99C570.214 468.99 570.659 469.174 570.987 469.503C571.316 469.831 571.5 470.276 571.5 470.74V474.56C571.5 475.024 571.316 475.469 570.987 475.797C570.659 476.126 570.214 476.31 569.75 476.31C569.286 476.31 568.841 476.126 568.513 475.797C568.184 475.469 568 475.024 568 474.56V470.74ZM569.15 474.63C569.15 475.15 569.38 475.35 569.75 475.35C570.12 475.35 570.34 475.15 570.34 474.63V470.63C570.34 470.11 570.11 469.91 569.75 469.91C569.39 469.91 569.15 470.11 569.15 470.63V474.63Z" fill="#263238"/>
<path d="M568 481.22C568 480.756 568.184 480.311 568.513 479.983C568.841 479.654 569.286 479.47 569.75 479.47C570.214 479.47 570.659 479.654 570.987 479.983C571.316 480.311 571.5 480.756 571.5 481.22V485C571.5 485.464 571.316 485.909 570.987 486.237C570.659 486.566 570.214 486.75 569.75 486.75C569.286 486.75 568.841 486.566 568.513 486.237C568.184 485.909 568 485.464 568 485V481.22ZM569.15 485.1C569.15 485.63 569.38 485.82 569.75 485.82C570.12 485.82 570.34 485.63 570.34 485.1V481.1C570.34 480.57 570.11 480.37 569.75 480.37C569.39 480.37 569.15 480.57 569.15 481.1V485.1Z" fill="#263238"/>
<path d="M568 491.69C568 491.226 568.184 490.781 568.513 490.453C568.841 490.124 569.286 489.94 569.75 489.94C570.214 489.94 570.659 490.124 570.987 490.453C571.316 490.781 571.5 491.226 571.5 491.69V495.5C571.5 495.964 571.316 496.409 570.987 496.737C570.659 497.066 570.214 497.25 569.75 497.25C569.286 497.25 568.841 497.066 568.513 496.737C568.184 496.409 568 495.964 568 495.5V491.69ZM569.15 495.58C569.15 496.1 569.38 496.3 569.75 496.3C570.12 496.3 570.34 496.1 570.34 495.58V491.58C570.34 491.06 570.11 490.86 569.75 490.86C569.39 490.86 569.15 491.06 569.15 491.58V495.58Z" fill="#263238"/>
<path d="M568.82 511.8C569.108 511.836 569.398 511.76 569.632 511.589C569.866 511.418 570.026 511.165 570.08 510.88H570.86V518.21H569.71V512.62H568.82V511.8Z" fill="#263238"/>
<path d="M568.82 522.28C569.109 522.318 569.402 522.242 569.637 522.069C569.872 521.895 570.031 521.638 570.08 521.35H570.86V528.68H569.71V523.09H568.82V522.28Z" fill="#263238"/>
<path d="M568.82 532.75C569.108 532.786 569.398 532.71 569.632 532.539C569.866 532.368 570.026 532.115 570.08 531.83H570.86V539.15H569.71V533.57H568.82V532.75Z" fill="#263238"/>
<path d="M568 544.06C568 543.596 568.184 543.151 568.513 542.823C568.841 542.494 569.286 542.31 569.75 542.31C570.214 542.31 570.659 542.494 570.987 542.823C571.316 543.151 571.5 543.596 571.5 544.06V547.87C571.5 548.334 571.316 548.779 570.987 549.107C570.659 549.436 570.214 549.62 569.75 549.62C569.286 549.62 568.841 549.436 568.513 549.107C568.184 548.779 568 548.334 568 547.87V544.06ZM569.15 547.94C569.15 548.47 569.38 548.66 569.75 548.66C570.12 548.66 570.34 548.47 570.34 547.94V544C570.34 543.47 570.11 543.27 569.75 543.27C569.39 543.27 569.15 543.47 569.15 544V547.94Z" fill="#263238"/>
<path d="M568 554.53C568 554.066 568.184 553.621 568.513 553.293C568.841 552.964 569.286 552.78 569.75 552.78C570.214 552.78 570.659 552.964 570.987 553.293C571.316 553.621 571.5 554.066 571.5 554.53V558.34C571.5 558.804 571.316 559.249 570.987 559.577C570.659 559.906 570.214 560.09 569.75 560.09C569.286 560.09 568.841 559.906 568.513 559.577C568.184 559.249 568 558.804 568 558.34V554.53ZM569.15 558.42C569.15 558.94 569.38 559.14 569.75 559.14C570.12 559.14 570.34 558.94 570.34 558.42V554.42C570.34 553.9 570.11 553.7 569.75 553.7C569.39 553.7 569.15 553.9 569.15 554.42V558.42Z" fill="#263238"/>
<path d="M568.82 564.17C569.108 564.206 569.398 564.13 569.632 563.959C569.866 563.788 570.026 563.535 570.08 563.25H570.86V570.57H569.71V565H568.82V564.17Z" fill="#263238"/>
<path d="M575 396.59C575.289 396.626 575.58 396.551 575.816 396.38C576.052 396.209 576.214 395.956 576.27 395.67H577.04V403H575.89V397.41H575V396.59Z" fill="#263238"/>
<path d="M575 407.07C575.289 407.106 575.58 407.031 575.816 406.86C576.052 406.689 576.214 406.436 576.27 406.15H577.04V413.47H575.89V407.88H575V407.07Z" fill="#263238"/>
<path d="M574.24 428.85C574.222 428.61 574.253 428.368 574.333 428.141C574.412 427.913 574.538 427.705 574.702 427.528C574.866 427.351 575.064 427.21 575.285 427.114C575.506 427.018 575.744 426.968 575.985 426.968C576.226 426.968 576.464 427.018 576.685 427.114C576.906 427.21 577.104 427.351 577.268 427.528C577.432 427.705 577.558 427.913 577.637 428.141C577.717 428.368 577.748 428.61 577.73 428.85V432.66C577.748 432.9 577.717 433.142 577.637 433.369C577.558 433.597 577.432 433.805 577.268 433.982C577.104 434.159 576.906 434.3 576.685 434.396C576.464 434.492 576.226 434.542 575.985 434.542C575.744 434.542 575.506 434.492 575.285 434.396C575.064 434.3 574.866 434.159 574.702 433.982C574.538 433.805 574.412 433.597 574.333 433.369C574.253 433.142 574.222 432.9 574.24 432.66V428.85ZM575.39 432.74C575.39 433.26 575.62 433.46 575.98 433.46C576.34 433.46 576.58 433.26 576.58 432.74V428.74C576.58 428.21 576.35 428.02 575.98 428.02C575.61 428.02 575.39 428.21 575.39 428.74V432.74Z" fill="#263238"/>
<path d="M575 459.43C575.289 459.466 575.58 459.391 575.816 459.22C576.052 459.049 576.214 458.796 576.27 458.51H577.04V465.84H575.89V460.25H575V459.43Z" fill="#263238"/>
<path d="M574.24 470.74C574.222 470.5 574.253 470.258 574.333 470.031C574.412 469.803 574.538 469.595 574.702 469.418C574.866 469.241 575.064 469.1 575.285 469.004C575.506 468.908 575.744 468.858 575.985 468.858C576.226 468.858 576.464 468.908 576.685 469.004C576.906 469.1 577.104 469.241 577.268 469.418C577.432 469.595 577.558 469.803 577.637 470.031C577.717 470.258 577.748 470.5 577.73 470.74V474.56C577.748 474.8 577.717 475.042 577.637 475.269C577.558 475.497 577.432 475.705 577.268 475.882C577.104 476.059 576.906 476.2 576.685 476.296C576.464 476.392 576.226 476.442 575.985 476.442C575.744 476.442 575.506 476.392 575.285 476.296C575.064 476.2 574.866 476.059 574.702 475.882C574.538 475.705 574.412 475.497 574.333 475.269C574.253 475.042 574.222 474.8 574.24 474.56V470.74ZM575.39 474.63C575.39 475.15 575.62 475.35 575.98 475.35C576.34 475.35 576.58 475.15 576.58 474.63V470.63C576.58 470.11 576.35 469.91 575.98 469.91C575.61 469.91 575.39 470.11 575.39 470.63V474.63Z" fill="#263238"/>
<path d="M575 480.38C575.289 480.416 575.58 480.341 575.816 480.17C576.052 479.999 576.214 479.746 576.27 479.46H577.04V486.79H575.89V481.2H575V480.38Z" fill="#263238"/>
<path d="M575 490.85C575.289 490.888 575.582 490.814 575.818 490.643C576.055 490.472 576.216 490.217 576.27 489.93H577.04V497.26H575.89V491.67H575V490.85Z" fill="#263238"/>
<path d="M575 501.33C575.289 501.366 575.58 501.291 575.816 501.12C576.052 500.949 576.214 500.696 576.27 500.41H577.04V507.73H575.89V502.14H575V501.33Z" fill="#263238"/>
<path d="M574.24 512.64C574.222 512.4 574.253 512.158 574.333 511.931C574.412 511.703 574.538 511.495 574.702 511.318C574.866 511.141 575.064 511 575.285 510.904C575.506 510.808 575.744 510.758 575.985 510.758C576.226 510.758 576.464 510.808 576.685 510.904C576.906 511 577.104 511.141 577.268 511.318C577.432 511.495 577.558 511.703 577.637 511.931C577.717 512.158 577.748 512.4 577.73 512.64V516.45C577.748 516.69 577.717 516.932 577.637 517.159C577.558 517.387 577.432 517.595 577.268 517.772C577.104 517.949 576.906 518.09 576.685 518.186C576.464 518.282 576.226 518.332 575.985 518.332C575.744 518.332 575.506 518.282 575.285 518.186C575.064 518.09 574.866 517.949 574.702 517.772C574.538 517.595 574.412 517.387 574.333 517.159C574.253 516.932 574.222 516.69 574.24 516.45V512.64ZM575.39 516.52C575.39 517.05 575.62 517.24 575.98 517.24C576.34 517.24 576.58 517.05 576.58 516.52V512.57C576.58 512.04 576.35 511.84 575.98 511.84C575.61 511.84 575.39 512.04 575.39 512.57V516.52Z" fill="#263238"/>
<path d="M574.24 523.11C574.222 522.87 574.253 522.628 574.333 522.401C574.412 522.173 574.538 521.965 574.702 521.788C574.866 521.611 575.064 521.47 575.285 521.374C575.506 521.278 575.744 521.228 575.985 521.228C576.226 521.228 576.464 521.278 576.685 521.374C576.906 521.47 577.104 521.611 577.268 521.788C577.432 521.965 577.558 522.173 577.637 522.401C577.717 522.628 577.748 522.87 577.73 523.11V526.92C577.748 527.16 577.717 527.402 577.637 527.629C577.558 527.857 577.432 528.065 577.268 528.242C577.104 528.419 576.906 528.56 576.685 528.656C576.464 528.752 576.226 528.802 575.985 528.802C575.744 528.802 575.506 528.752 575.285 528.656C575.064 528.56 574.866 528.419 574.702 528.242C574.538 528.065 574.412 527.857 574.333 527.629C574.253 527.402 574.222 527.16 574.24 526.92V523.11ZM575.39 527C575.39 527.52 575.62 527.72 575.98 527.72C576.34 527.72 576.58 527.52 576.58 527V523C576.58 522.48 576.35 522.28 575.98 522.28C575.61 522.28 575.39 522.48 575.39 523V527Z" fill="#263238"/>
<path d="M562.59 459.43C562.879 459.466 563.17 459.391 563.406 459.22C563.642 459.049 563.804 458.796 563.86 458.51H564.63V465.84H563.48V460.25H562.59V459.43Z" fill="#263238"/>
<path d="M561.78 470.74C561.78 470.276 561.964 469.831 562.293 469.503C562.621 469.174 563.066 468.99 563.53 468.99C563.994 468.99 564.439 469.174 564.767 469.503C565.096 469.831 565.28 470.276 565.28 470.74V474.56C565.28 475.024 565.096 475.469 564.767 475.797C564.439 476.126 563.994 476.31 563.53 476.31C563.066 476.31 562.621 476.126 562.293 475.797C561.964 475.469 561.78 475.024 561.78 474.56V470.74ZM562.93 474.63C562.93 475.15 563.16 475.35 563.53 475.35C563.9 475.35 564.13 475.15 564.13 474.63V470.63C564.13 470.11 563.9 469.91 563.53 469.91C563.16 469.91 562.93 470.11 562.93 470.63V474.63Z" fill="#263238"/>
<path d="M561.78 481.22C561.78 480.756 561.964 480.311 562.293 479.983C562.621 479.654 563.066 479.47 563.53 479.47C563.994 479.47 564.439 479.654 564.767 479.983C565.096 480.311 565.28 480.756 565.28 481.22V485C565.28 485.464 565.096 485.909 564.767 486.237C564.439 486.566 563.994 486.75 563.53 486.75C563.066 486.75 562.621 486.566 562.293 486.237C561.964 485.909 561.78 485.464 561.78 485V481.22ZM562.93 485.1C562.93 485.63 563.16 485.82 563.53 485.82C563.9 485.82 564.13 485.63 564.13 485.1V481.1C564.13 480.57 563.9 480.37 563.53 480.37C563.16 480.37 562.93 480.57 562.93 481.1V485.1Z" fill="#263238"/>
<path d="M562.59 490.85C562.879 490.888 563.172 490.814 563.408 490.643C563.645 490.472 563.806 490.217 563.86 489.93H564.63V497.26H563.48V491.67H562.59V490.85Z" fill="#263238"/>
<path d="M562.59 511.8C562.879 511.836 563.17 511.761 563.406 511.59C563.642 511.419 563.804 511.166 563.86 510.88H564.63V518.21H563.48V512.62H562.59V511.8Z" fill="#263238"/>
<path d="M562.59 522.28C562.88 522.315 563.173 522.239 563.409 522.066C563.645 521.894 563.806 521.637 563.86 521.35H564.63V528.68H563.48V523.09H562.59V522.28Z" fill="#263238"/>
<path d="M562.59 532.75C562.879 532.786 563.17 532.711 563.406 532.54C563.642 532.369 563.804 532.116 563.86 531.83H564.63V539.15H563.48V533.57H562.59V532.75Z" fill="#263238"/>
<path d="M555.56 428.85C555.542 428.61 555.573 428.368 555.653 428.141C555.732 427.913 555.858 427.705 556.022 427.528C556.185 427.351 556.384 427.21 556.605 427.114C556.826 427.018 557.064 426.968 557.305 426.968C557.546 426.968 557.784 427.018 558.005 427.114C558.226 427.21 558.424 427.351 558.588 427.528C558.752 427.705 558.878 427.913 558.957 428.141C559.037 428.368 559.068 428.61 559.05 428.85V432.66C559.068 432.9 559.037 433.142 558.957 433.369C558.878 433.597 558.752 433.805 558.588 433.982C558.424 434.159 558.226 434.3 558.005 434.396C557.784 434.492 557.546 434.542 557.305 434.542C557.064 434.542 556.826 434.492 556.605 434.396C556.384 434.3 556.185 434.159 556.022 433.982C555.858 433.805 555.732 433.597 555.653 433.369C555.573 433.142 555.542 432.9 555.56 432.66V428.85ZM556.71 432.74C556.71 433.26 556.94 433.46 557.3 433.46C557.66 433.46 557.9 433.26 557.9 432.74V428.74C557.9 428.21 557.67 428.02 557.3 428.02C556.93 428.02 556.71 428.21 556.71 428.74V432.74Z" fill="#263238"/>
<path d="M555.56 449.8C555.542 449.56 555.573 449.318 555.653 449.091C555.732 448.863 555.858 448.655 556.022 448.478C556.185 448.301 556.384 448.16 556.605 448.064C556.826 447.968 557.064 447.918 557.305 447.918C557.546 447.918 557.784 447.968 558.005 448.064C558.226 448.16 558.424 448.301 558.588 448.478C558.752 448.655 558.878 448.863 558.957 449.091C559.037 449.318 559.068 449.56 559.05 449.8V453.61C559.068 453.85 559.037 454.092 558.957 454.319C558.878 454.547 558.752 454.755 558.588 454.932C558.424 455.109 558.226 455.25 558.005 455.346C557.784 455.442 557.546 455.492 557.305 455.492C557.064 455.492 556.826 455.442 556.605 455.346C556.384 455.25 556.185 455.109 556.022 454.932C555.858 454.755 555.732 454.547 555.653 454.319C555.573 454.092 555.542 453.85 555.56 453.61V449.8ZM556.71 453.68C556.71 454.21 556.94 454.4 557.3 454.4C557.66 454.4 557.9 454.21 557.9 453.68V449.68C557.9 449.16 557.67 448.96 557.3 448.96C556.93 448.96 556.71 449.16 556.71 449.68V453.68Z" fill="#263238"/>
<path d="M556.36 480.38C556.649 480.416 556.94 480.341 557.176 480.17C557.412 479.999 557.574 479.746 557.63 479.46H558.4V486.79H557.25V481.2H556.36V480.38Z" fill="#263238"/>
<path d="M556.36 490.85C556.649 490.888 556.942 490.814 557.178 490.643C557.415 490.472 557.576 490.217 557.63 489.93H558.4V497.26H557.25V491.67H556.36V490.85Z" fill="#263238"/>
<path d="M556.36 522.28C556.65 522.315 556.943 522.239 557.179 522.066C557.415 521.894 557.576 521.637 557.63 521.35H558.4V528.68H557.25V523.09H556.36V522.28Z" fill="#263238"/>
<path d="M555.56 533.59C555.542 533.35 555.573 533.108 555.653 532.881C555.732 532.653 555.858 532.445 556.022 532.268C556.185 532.091 556.384 531.95 556.605 531.854C556.826 531.758 557.064 531.708 557.305 531.708C557.546 531.708 557.784 531.758 558.005 531.854C558.226 531.95 558.424 532.091 558.588 532.268C558.752 532.445 558.878 532.653 558.957 532.881C559.037 533.108 559.068 533.35 559.05 533.59V537.4C559.068 537.64 559.037 537.882 558.957 538.109C558.878 538.337 558.752 538.545 558.588 538.722C558.424 538.899 558.226 539.04 558.005 539.136C557.784 539.232 557.546 539.282 557.305 539.282C557.064 539.282 556.826 539.232 556.605 539.136C556.384 539.04 556.185 538.899 556.022 538.722C555.858 538.545 555.732 538.337 555.653 538.109C555.573 537.882 555.542 537.64 555.56 537.4V533.59ZM556.71 537.47C556.71 537.99 556.94 538.19 557.3 538.19C557.66 538.19 557.9 537.99 557.9 537.47V533.47C557.9 532.95 557.67 532.75 557.3 532.75C556.93 532.75 556.71 532.95 556.71 533.47V537.47Z" fill="#263238"/>
<path d="M556.36 543.22C556.649 543.256 556.94 543.181 557.176 543.01C557.412 542.839 557.574 542.586 557.63 542.3H558.4V549.63H557.25V544H556.36V543.22Z" fill="#263238"/>
<path d="M297.73 440C297.73 439.536 297.914 439.091 298.243 438.763C298.571 438.434 299.016 438.25 299.48 438.25C299.944 438.25 300.389 438.434 300.717 438.763C301.046 439.091 301.23 439.536 301.23 440V443.81C301.23 444.274 301.046 444.719 300.717 445.047C300.389 445.376 299.944 445.56 299.48 445.56C299.016 445.56 298.571 445.376 298.243 445.047C297.914 444.719 297.73 444.274 297.73 443.81V440ZM298.88 443.88C298.88 444.41 299.11 444.61 299.48 444.61C299.85 444.61 300.07 444.41 300.07 443.88V439.88C300.07 439.35 299.84 439.15 299.48 439.15C299.12 439.15 298.88 439.35 298.88 439.88V443.88Z" fill="#263238"/>
<path d="M297.73 450.5C297.73 450.036 297.914 449.591 298.243 449.263C298.571 448.934 299.016 448.75 299.48 448.75C299.944 448.75 300.389 448.934 300.717 449.263C301.046 449.591 301.23 450.036 301.23 450.5V454.31C301.23 454.774 301.046 455.219 300.717 455.547C300.389 455.876 299.944 456.06 299.48 456.06C299.016 456.06 298.571 455.876 298.243 455.547C297.914 455.219 297.73 454.774 297.73 454.31V450.5ZM298.88 454.39C298.88 454.91 299.11 455.11 299.48 455.11C299.85 455.11 300.07 454.91 300.07 454.39V450.39C300.07 449.87 299.84 449.67 299.48 449.67C299.12 449.67 298.88 449.87 298.88 450.39V454.39Z" fill="#263238"/>
<path d="M298.54 460.14C298.828 460.176 299.118 460.1 299.352 459.929C299.586 459.758 299.746 459.505 299.8 459.22H300.58V466.55H299.43V461H298.54V460.14Z" fill="#263238"/>
<path d="M297.73 471.45C297.73 470.986 297.914 470.541 298.243 470.213C298.571 469.884 299.016 469.7 299.48 469.7C299.944 469.7 300.389 469.884 300.717 470.213C301.046 470.541 301.23 470.986 301.23 471.45V475.26C301.23 475.724 301.046 476.169 300.717 476.497C300.389 476.826 299.944 477.01 299.48 477.01C299.016 477.01 298.571 476.826 298.243 476.497C297.914 476.169 297.73 475.724 297.73 475.26V471.45ZM298.88 475.33C298.88 475.86 299.11 476.06 299.48 476.06C299.85 476.06 300.07 475.86 300.07 475.33V471.38C300.07 470.85 299.84 470.65 299.48 470.65C299.12 470.65 298.88 470.85 298.88 471.38V475.33Z" fill="#263238"/>
<path d="M298.54 481.09C298.828 481.125 299.118 481.05 299.352 480.879C299.586 480.708 299.746 480.455 299.8 480.17H300.58V487.49H299.43V481.9H298.54V481.09Z" fill="#263238"/>
<path d="M297.73 492.4C297.73 491.936 297.914 491.491 298.243 491.163C298.571 490.834 299.016 490.65 299.48 490.65C299.944 490.65 300.389 490.834 300.717 491.163C301.046 491.491 301.23 491.936 301.23 492.4V496.21C301.23 496.674 301.046 497.119 300.717 497.447C300.389 497.776 299.944 497.96 299.48 497.96C299.016 497.96 298.571 497.776 298.243 497.447C297.914 497.119 297.73 496.674 297.73 496.21V492.4ZM298.88 496.28C298.88 496.8 299.11 497 299.48 497C299.85 497 300.07 496.8 300.07 496.28V492.28C300.07 491.76 299.84 491.56 299.48 491.56C299.12 491.56 298.88 491.76 298.88 492.28V496.28Z" fill="#263238"/>
<path d="M298.54 502C298.828 502.036 299.118 501.96 299.352 501.789C299.586 501.618 299.746 501.365 299.8 501.08H300.58V508.41H299.43V502.82H298.54V502Z" fill="#263238"/>
<path d="M297.73 513.34C297.73 512.876 297.914 512.431 298.243 512.103C298.571 511.774 299.016 511.59 299.48 511.59C299.944 511.59 300.389 511.774 300.717 512.103C301.046 512.431 301.23 512.876 301.23 513.34V517.15C301.23 517.614 301.046 518.059 300.717 518.387C300.389 518.716 299.944 518.9 299.48 518.9C299.016 518.9 298.571 518.716 298.243 518.387C297.914 518.059 297.73 517.614 297.73 517.15V513.34ZM298.88 517.23C298.88 517.75 299.11 517.95 299.48 517.95C299.85 517.95 300.07 517.75 300.07 517.23V513.23C300.07 512.71 299.84 512.51 299.48 512.51C299.12 512.51 298.88 512.71 298.88 513.23V517.23Z" fill="#263238"/>
<path d="M297.73 523.82C297.73 523.356 297.914 522.911 298.243 522.583C298.571 522.254 299.016 522.07 299.48 522.07C299.944 522.07 300.389 522.254 300.717 522.583C301.046 522.911 301.23 523.356 301.23 523.82V527.63C301.23 528.094 301.046 528.539 300.717 528.867C300.389 529.196 299.944 529.38 299.48 529.38C299.016 529.38 298.571 529.196 298.243 528.867C297.914 528.539 297.73 528.094 297.73 527.63V523.82ZM298.88 527.7C298.88 528.22 299.11 528.42 299.48 528.42C299.85 528.42 300.07 528.22 300.07 527.7V523.7C300.07 523.18 299.84 522.98 299.48 522.98C299.12 522.98 298.88 523.18 298.88 523.7V527.7Z" fill="#263238"/>
<path d="M297.73 534.29C297.73 533.826 297.914 533.381 298.243 533.053C298.571 532.724 299.016 532.54 299.48 532.54C299.944 532.54 300.389 532.724 300.717 533.053C301.046 533.381 301.23 533.826 301.23 534.29V538.1C301.23 538.564 301.046 539.009 300.717 539.337C300.389 539.666 299.944 539.85 299.48 539.85C299.016 539.85 298.571 539.666 298.243 539.337C297.914 539.009 297.73 538.564 297.73 538.1V534.29ZM298.88 538.17C298.88 538.7 299.11 538.9 299.48 538.9C299.85 538.9 300.07 538.7 300.07 538.17V534.22C300.07 533.69 299.84 533.5 299.48 533.5C299.12 533.5 298.88 533.69 298.88 534.22V538.17Z" fill="#263238"/>
<path d="M298.54 543.93C298.828 543.966 299.118 543.89 299.352 543.719C299.586 543.548 299.746 543.295 299.8 543.01H300.58V550.33H299.43V544.74H298.54V543.93Z" fill="#263238"/>
<path d="M298.54 554.4C298.828 554.435 299.118 554.36 299.352 554.189C299.586 554.018 299.746 553.765 299.8 553.48H300.58V560.81H299.43V555.22H298.54V554.4Z" fill="#263238"/>
<path d="M298.54 564.87C298.828 564.906 299.118 564.83 299.352 564.659C299.586 564.488 299.746 564.235 299.8 563.95H300.58V571.28H299.43V565.69H298.54V564.87Z" fill="#263238"/>
<path d="M298.54 575.35C298.828 575.386 299.118 575.31 299.352 575.139C299.586 574.968 299.746 574.715 299.8 574.43H300.58V581.75H299.43V576.16H298.54V575.35Z" fill="#263238"/>
<path d="M298.88 590.54C298.88 591.07 299.11 591.26 299.48 591.26C299.85 591.26 300.07 591.07 300.07 590.54V586.54C300.07 586.02 299.84 585.82 299.48 585.82C299.12 585.82 298.88 586.02 298.88 586.54V590.54Z" fill="#263238"/>
<path d="M304.76 481.09C305.049 481.126 305.34 481.051 305.576 480.88C305.812 480.709 305.974 480.456 306.03 480.17H306.8V487.49H305.65V481.9H304.76V481.09Z" fill="#263238"/>
<path d="M304.76 491.56C305.049 491.596 305.34 491.521 305.576 491.35C305.812 491.179 305.974 490.926 306.03 490.64H306.8V498H305.65V492.41H304.76V491.56Z" fill="#263238"/>
<path d="M304 513.34C303.982 513.1 304.013 512.858 304.093 512.631C304.172 512.403 304.298 512.195 304.462 512.018C304.625 511.841 304.824 511.7 305.045 511.604C305.266 511.508 305.504 511.458 305.745 511.458C305.986 511.458 306.224 511.508 306.445 511.604C306.666 511.7 306.864 511.841 307.028 512.018C307.192 512.195 307.318 512.403 307.397 512.631C307.477 512.858 307.508 513.1 307.49 513.34V517.15C307.508 517.39 307.477 517.632 307.397 517.859C307.318 518.087 307.192 518.295 307.028 518.472C306.864 518.649 306.666 518.79 306.445 518.886C306.224 518.982 305.986 519.032 305.745 519.032C305.504 519.032 305.266 518.982 305.045 518.886C304.824 518.79 304.625 518.649 304.462 518.472C304.298 518.295 304.172 518.087 304.093 517.859C304.013 517.632 303.982 517.39 304 517.15V513.34ZM305.15 517.23C305.15 517.75 305.38 517.95 305.74 517.95C306.1 517.95 306.34 517.75 306.34 517.23V513.23C306.34 512.71 306.11 512.51 305.74 512.51C305.37 512.51 305.15 512.71 305.15 513.23V517.23Z" fill="#263238"/>
<path d="M304.76 523C305.049 523.036 305.34 522.961 305.576 522.79C305.812 522.619 305.974 522.366 306.03 522.08H306.8V529.41H305.65V523.8H304.76V523Z" fill="#263238"/>
<path d="M304 534.29C303.982 534.05 304.013 533.808 304.093 533.581C304.172 533.353 304.298 533.145 304.462 532.968C304.625 532.791 304.824 532.65 305.045 532.554C305.266 532.458 305.504 532.408 305.745 532.408C305.986 532.408 306.224 532.458 306.445 532.554C306.666 532.65 306.864 532.791 307.028 532.968C307.192 533.145 307.318 533.353 307.397 533.581C307.477 533.808 307.508 534.05 307.49 534.29V538.1C307.508 538.34 307.477 538.582 307.397 538.809C307.318 539.037 307.192 539.245 307.028 539.422C306.864 539.599 306.666 539.74 306.445 539.836C306.224 539.932 305.986 539.982 305.745 539.982C305.504 539.982 305.266 539.932 305.045 539.836C304.824 539.74 304.625 539.599 304.462 539.422C304.298 539.245 304.172 539.037 304.093 538.809C304.013 538.582 303.982 538.34 304 538.1V534.29ZM305.15 538.17C305.15 538.7 305.38 538.9 305.74 538.9C306.1 538.9 306.34 538.7 306.34 538.17V534.22C306.34 533.69 306.11 533.5 305.74 533.5C305.37 533.5 305.15 533.69 305.15 534.22V538.17Z" fill="#263238"/>
<path d="M305.11 559.12C305.11 559.64 305.34 559.84 305.7 559.84C306.06 559.84 306.3 559.64 306.3 559.12V555.12C306.3 554.6 306.07 554.4 305.7 554.4C305.33 554.4 305.11 554.6 305.11 555.12V559.12Z" fill="#263238"/>
<path d="M304.76 564.87C305.037 564.9 305.315 564.828 305.543 564.668C305.772 564.508 305.934 564.271 306 564H306.77V571.33H305.62V565.74H304.73L304.76 564.87Z" fill="#263238"/>
<path d="M304.76 575.35C305.049 575.386 305.34 575.311 305.576 575.14C305.812 574.969 305.974 574.716 306.03 574.43H306.8V581.75H305.65V576.16H304.76V575.35Z" fill="#263238"/>
<path d="M304 607.6C303.982 607.36 304.013 607.118 304.093 606.891C304.172 606.663 304.298 606.455 304.462 606.278C304.625 606.101 304.824 605.96 305.045 605.864C305.266 605.768 305.504 605.718 305.745 605.718C305.986 605.718 306.224 605.768 306.445 605.864C306.666 605.96 306.864 606.101 307.028 606.278C307.192 606.455 307.318 606.663 307.397 606.891C307.477 607.118 307.508 607.36 307.49 607.6V611.42C307.508 611.66 307.477 611.902 307.397 612.129C307.318 612.357 307.192 612.565 307.028 612.742C306.864 612.919 306.666 613.06 306.445 613.156C306.224 613.252 305.986 613.302 305.745 613.302C305.504 613.302 305.266 613.252 305.045 613.156C304.824 613.06 304.625 612.919 304.462 612.742C304.298 612.565 304.172 612.357 304.093 612.129C304.013 611.902 303.982 611.66 304 611.42V607.6ZM305.15 611.49C305.15 612.01 305.38 612.21 305.74 612.21C306.1 612.21 306.34 612.01 306.34 611.49V607.49C306.34 606.97 306.11 606.77 305.74 606.77C305.37 606.77 305.15 606.97 305.15 607.49V611.49Z" fill="#263238"/>
<path d="M291.5 471.45C291.5 470.986 291.684 470.541 292.013 470.213C292.341 469.884 292.786 469.7 293.25 469.7C293.714 469.7 294.159 469.884 294.487 470.213C294.816 470.541 295 470.986 295 471.45V475.26C295 475.724 294.816 476.169 294.487 476.497C294.159 476.826 293.714 477.01 293.25 477.01C292.786 477.01 292.341 476.826 292.013 476.497C291.684 476.169 291.5 475.724 291.5 475.26V471.45ZM292.65 475.33C292.65 475.86 292.88 476.06 293.25 476.06C293.62 476.06 293.85 475.86 293.85 475.33V471.38C293.85 470.85 293.62 470.65 293.25 470.65C292.88 470.65 292.65 470.85 292.65 471.38V475.33Z" fill="#263238"/>
<path d="M292.31 481.09C292.599 481.126 292.89 481.051 293.126 480.88C293.362 480.709 293.524 480.456 293.58 480.17H294.35V487.49H293.2V481.9H292.31V481.09Z" fill="#263238"/>
<path d="M292.31 491.56C292.599 491.596 292.89 491.521 293.126 491.35C293.362 491.179 293.524 490.926 293.58 490.64H294.35V498H293.2V492.41H292.31V491.56Z" fill="#263238"/>
<path d="M291.5 502.87C291.5 502.406 291.684 501.961 292.013 501.633C292.341 501.304 292.786 501.12 293.25 501.12C293.714 501.12 294.159 501.304 294.487 501.633C294.816 501.961 295 502.406 295 502.87V506.68C295 507.144 294.816 507.589 294.487 507.917C294.159 508.246 293.714 508.43 293.25 508.43C292.786 508.43 292.341 508.246 292.013 507.917C291.684 507.589 291.5 507.144 291.5 506.68V502.87ZM292.65 506.75C292.65 507.28 292.88 507.48 293.25 507.48C293.62 507.48 293.85 507.28 293.85 506.75V502.8C293.85 502.27 293.62 502.07 293.25 502.07C292.88 502.07 292.65 502.27 292.65 502.8V506.75Z" fill="#263238"/>
<path d="M291.5 523.82C291.5 523.356 291.684 522.911 292.013 522.583C292.341 522.254 292.786 522.07 293.25 522.07C293.714 522.07 294.159 522.254 294.487 522.583C294.816 522.911 295 523.356 295 523.82V527.63C295 528.094 294.816 528.539 294.487 528.867C294.159 529.196 293.714 529.38 293.25 529.38C292.786 529.38 292.341 529.196 292.013 528.867C291.684 528.539 291.5 528.094 291.5 527.63V523.82ZM292.65 527.7C292.65 528.22 292.88 528.42 293.25 528.42C293.62 528.42 293.85 528.22 293.85 527.7V523.7C293.85 523.18 293.62 522.98 293.25 522.98C292.88 522.98 292.65 523.18 292.65 523.7V527.7Z" fill="#263238"/>
<path d="M291.5 534.29C291.5 533.826 291.684 533.381 292.013 533.053C292.341 532.724 292.786 532.54 293.25 532.54C293.714 532.54 294.159 532.724 294.487 533.053C294.816 533.381 295 533.826 295 534.29V538.1C295 538.564 294.816 539.009 294.487 539.337C294.159 539.666 293.714 539.85 293.25 539.85C292.786 539.85 292.341 539.666 292.013 539.337C291.684 539.009 291.5 538.564 291.5 538.1V534.29ZM292.65 538.17C292.65 538.7 292.88 538.9 293.25 538.9C293.62 538.9 293.85 538.7 293.85 538.17V534.22C293.85 533.69 293.62 533.5 293.25 533.5C292.88 533.5 292.65 533.69 292.65 534.22V538.17Z" fill="#263238"/>
<path d="M292.31 543.93C292.599 543.966 292.89 543.891 293.126 543.72C293.362 543.549 293.524 543.296 293.58 543.01H294.35V550.33H293.2V544.74H292.31V543.93Z" fill="#263238"/>
<path d="M291.5 555.24C291.5 554.776 291.684 554.331 292.013 554.003C292.341 553.674 292.786 553.49 293.25 553.49C293.714 553.49 294.159 553.674 294.487 554.003C294.816 554.331 295 554.776 295 555.24V559.05C295 559.514 294.816 559.959 294.487 560.287C294.159 560.616 293.714 560.8 293.25 560.8C292.786 560.8 292.341 560.616 292.013 560.287C291.684 559.959 291.5 559.514 291.5 559.05V555.24ZM292.65 559.12C292.65 559.64 292.88 559.84 293.25 559.84C293.62 559.84 293.85 559.64 293.85 559.12V555.12C293.85 554.6 293.62 554.4 293.25 554.4C292.88 554.4 292.65 554.6 292.65 555.12V559.12Z" fill="#263238"/>
<path d="M292.31 564.87C292.599 564.906 292.89 564.831 293.126 564.66C293.362 564.489 293.524 564.236 293.58 563.95H294.35V571.28H293.2V565.69H292.31V564.87Z" fill="#263238"/>
<path d="M285.28 450.5C285.262 450.26 285.293 450.018 285.373 449.791C285.452 449.563 285.578 449.355 285.742 449.178C285.905 449.001 286.104 448.86 286.325 448.764C286.546 448.668 286.784 448.618 287.025 448.618C287.266 448.618 287.504 448.668 287.725 448.764C287.946 448.86 288.144 449.001 288.308 449.178C288.472 449.355 288.598 449.563 288.677 449.791C288.757 450.018 288.788 450.26 288.77 450.5V454.31C288.788 454.55 288.757 454.792 288.677 455.019C288.598 455.247 288.472 455.455 288.308 455.632C288.144 455.809 287.946 455.95 287.725 456.046C287.504 456.142 287.266 456.192 287.025 456.192C286.784 456.192 286.546 456.142 286.325 456.046C286.104 455.95 285.905 455.809 285.742 455.632C285.578 455.455 285.452 455.247 285.373 455.019C285.293 454.792 285.262 454.55 285.28 454.31V450.5ZM286.43 454.39C286.43 454.91 286.66 455.11 287.02 455.11C287.38 455.11 287.62 454.91 287.62 454.39V450.39C287.62 449.87 287.39 449.67 287.02 449.67C286.65 449.67 286.43 449.87 286.43 450.39V454.39Z" fill="#263238"/>
<path d="M286.08 470.61C286.369 470.646 286.66 470.571 286.896 470.4C287.132 470.229 287.294 469.976 287.35 469.69H288.12V477H287V471.41H286.11L286.08 470.61Z" fill="#263238"/>
<path d="M286.08 491.56C286.369 491.596 286.66 491.521 286.896 491.35C287.132 491.179 287.294 490.926 287.35 490.64H288.12V498H287V492.41H286.11L286.08 491.56Z" fill="#263238"/>
<path d="M285.28 502.87C285.262 502.63 285.293 502.388 285.373 502.161C285.452 501.933 285.578 501.725 285.742 501.548C285.905 501.371 286.104 501.23 286.325 501.134C286.546 501.038 286.784 500.988 287.025 500.988C287.266 500.988 287.504 501.038 287.725 501.134C287.946 501.23 288.144 501.371 288.308 501.548C288.472 501.725 288.598 501.933 288.677 502.161C288.757 502.388 288.788 502.63 288.77 502.87V506.68C288.788 506.92 288.757 507.162 288.677 507.389C288.598 507.617 288.472 507.825 288.308 508.002C288.144 508.179 287.946 508.32 287.725 508.416C287.504 508.512 287.266 508.562 287.025 508.562C286.784 508.562 286.546 508.512 286.325 508.416C286.104 508.32 285.905 508.179 285.742 508.002C285.578 507.825 285.452 507.617 285.373 507.389C285.293 507.162 285.262 506.92 285.28 506.68V502.87ZM286.43 506.76C286.43 507.28 286.66 507.48 287.02 507.48C287.38 507.48 287.62 507.28 287.62 506.76V502.76C287.62 502.23 287.39 502.04 287.02 502.04C286.65 502.04 286.43 502.23 286.43 502.76V506.76Z" fill="#263238"/>
<path d="M286.08 533.45C286.369 533.486 286.66 533.411 286.896 533.24C287.132 533.069 287.294 532.816 287.35 532.53H288.12V539.86H287V534.27H286.11L286.08 533.45Z" fill="#263238"/>
<path d="M286.08 543.93C286.369 543.966 286.66 543.891 286.896 543.72C287.132 543.549 287.294 543.296 287.35 543.01H288.12V550.33H287V544.74H286.11L286.08 543.93Z" fill="#263238"/>
<path d="M286.08 554.4C286.369 554.436 286.66 554.361 286.896 554.19C287.132 554.019 287.294 553.766 287.35 553.48H288.12V560.81H287V555.22H286.11L286.08 554.4Z" fill="#263238"/>
<path d="M481.11 198.61C481.11 198.146 481.294 197.701 481.623 197.373C481.951 197.044 482.396 196.86 482.86 196.86C483.324 196.86 483.769 197.044 484.097 197.373C484.426 197.701 484.61 198.146 484.61 198.61V202.42C484.61 202.884 484.426 203.329 484.097 203.657C483.769 203.986 483.324 204.17 482.86 204.17C482.396 204.17 481.951 203.986 481.623 203.657C481.294 203.329 481.11 202.884 481.11 202.42V198.61ZM482.26 202.49C482.26 203.01 482.49 203.21 482.86 203.21C483.23 203.21 483.45 203.01 483.45 202.49V198.49C483.45 197.97 483.22 197.77 482.86 197.77C482.5 197.77 482.26 197.97 482.26 198.49V202.49Z" fill="#263238"/>
<path d="M481.11 209.08C481.11 208.616 481.294 208.171 481.623 207.843C481.951 207.514 482.396 207.33 482.86 207.33C483.324 207.33 483.769 207.514 484.097 207.843C484.426 208.171 484.61 208.616 484.61 209.08V212.89C484.61 213.354 484.426 213.799 484.097 214.127C483.769 214.456 483.324 214.64 482.86 214.64C482.396 214.64 481.951 214.456 481.623 214.127C481.294 213.799 481.11 213.354 481.11 212.89V209.08ZM482.26 213C482.26 213.53 482.49 213.73 482.86 213.73C483.23 213.73 483.45 213.53 483.45 213V209C483.45 208.47 483.22 208.27 482.86 208.27C482.5 208.27 482.26 208.47 482.26 209V213Z" fill="#263238"/>
<path d="M481.92 239.66C482.208 239.696 482.498 239.62 482.732 239.449C482.966 239.278 483.126 239.025 483.18 238.74H484V246.07H482.85V240.48H481.96L481.92 239.66Z" fill="#263238"/>
<path d="M481.92 250.14C482.208 250.176 482.498 250.1 482.732 249.929C482.966 249.758 483.126 249.505 483.18 249.22H484V256.54H482.85V251H481.96L481.92 250.14Z" fill="#263238"/>
<path d="M481.11 282.39C481.11 281.926 481.294 281.481 481.623 281.153C481.951 280.824 482.396 280.64 482.86 280.64C483.324 280.64 483.769 280.824 484.097 281.153C484.426 281.481 484.61 281.926 484.61 282.39V286.2C484.61 286.664 484.426 287.109 484.097 287.437C483.769 287.766 483.324 287.95 482.86 287.95C482.396 287.95 481.951 287.766 481.623 287.437C481.294 287.109 481.11 286.664 481.11 286.2V282.39ZM482.26 286.28C482.26 286.8 482.49 287 482.86 287C483.23 287 483.45 286.8 483.45 286.28V282.28C483.45 281.76 483.22 281.56 482.86 281.56C482.5 281.56 482.26 281.76 482.26 282.28V286.28Z" fill="#263238"/>
<path d="M481.11 303.34C481.11 302.876 481.294 302.431 481.623 302.103C481.951 301.774 482.396 301.59 482.86 301.59C483.324 301.59 483.769 301.774 484.097 302.103C484.426 302.431 484.61 302.876 484.61 303.34V307.15C484.61 307.614 484.426 308.059 484.097 308.387C483.769 308.716 483.324 308.9 482.86 308.9C482.396 308.9 481.951 308.716 481.623 308.387C481.294 308.059 481.11 307.614 481.11 307.15V303.34ZM482.26 307.22C482.26 307.75 482.49 307.95 482.86 307.95C483.23 307.95 483.45 307.75 483.45 307.22V303.27C483.45 302.74 483.22 302.55 482.86 302.55C482.5 302.55 482.26 302.74 482.26 303.27V307.22Z" fill="#263238"/>
<path d="M462.43 219.55C462.43 219.086 462.614 218.641 462.943 218.313C463.271 217.984 463.716 217.8 464.18 217.8C464.644 217.8 465.089 217.984 465.417 218.313C465.746 218.641 465.93 219.086 465.93 219.55V223.36C465.93 223.824 465.746 224.269 465.417 224.597C465.089 224.926 464.644 225.11 464.18 225.11C463.716 225.11 463.271 224.926 462.943 224.597C462.614 224.269 462.43 223.824 462.43 223.36V219.55ZM463.58 223.44C463.58 223.96 463.81 224.16 464.18 224.16C464.55 224.16 464.77 223.96 464.77 223.44V219.44C464.77 218.92 464.54 218.72 464.18 218.72C463.82 218.72 463.58 218.92 463.58 219.44V223.44Z" fill="#263238"/>
<path d="M462.43 230C462.43 229.536 462.614 229.091 462.943 228.763C463.271 228.434 463.716 228.25 464.18 228.25C464.644 228.25 465.089 228.434 465.417 228.763C465.746 229.091 465.93 229.536 465.93 230V233.81C465.93 234.274 465.746 234.719 465.417 235.047C465.089 235.376 464.644 235.56 464.18 235.56C463.716 235.56 463.271 235.376 462.943 235.047C462.614 234.719 462.43 234.274 462.43 233.81V230ZM463.58 233.88C463.58 234.4 463.81 234.6 464.18 234.6C464.55 234.6 464.77 234.4 464.77 233.88V230C464.77 229.48 464.54 229.28 464.18 229.28C463.82 229.28 463.58 229.48 463.58 230V233.88Z" fill="#263238"/>
<path d="M462.43 240.5C462.43 240.036 462.614 239.591 462.943 239.263C463.271 238.934 463.716 238.75 464.18 238.75C464.644 238.75 465.089 238.934 465.417 239.263C465.746 239.591 465.93 240.036 465.93 240.5V244.31C465.93 244.774 465.746 245.219 465.417 245.547C465.089 245.876 464.644 246.06 464.18 246.06C463.716 246.06 463.271 245.876 462.943 245.547C462.614 245.219 462.43 244.774 462.43 244.31V240.5ZM463.58 244.38C463.58 244.91 463.81 245.11 464.18 245.11C464.55 245.11 464.77 244.91 464.77 244.38V240.43C464.77 239.9 464.54 239.7 464.18 239.7C463.82 239.7 463.58 239.9 463.58 240.43V244.38Z" fill="#263238"/>
<path d="M463.24 250.14C463.528 250.176 463.818 250.1 464.052 249.929C464.286 249.758 464.446 249.505 464.5 249.22H465.28V256.54H464.13V251H463.24V250.14Z" fill="#263238"/>
<path d="M463.24 271.08C463.528 271.116 463.818 271.04 464.052 270.869C464.286 270.698 464.446 270.445 464.5 270.16H465.28V277.49H464.13V271.9H463.24V271.08Z" fill="#263238"/>
<path d="M463.24 281.56C463.528 281.596 463.818 281.52 464.052 281.349C464.286 281.178 464.446 280.925 464.5 280.64H465.28V288H464.13V282.41H463.24V281.56Z" fill="#263238"/>
<path d="M462.43 303.34C462.43 302.876 462.614 302.431 462.943 302.103C463.271 301.774 463.716 301.59 464.18 301.59C464.644 301.59 465.089 301.774 465.417 302.103C465.746 302.431 465.93 302.876 465.93 303.34V307.15C465.93 307.614 465.746 308.059 465.417 308.387C465.089 308.716 464.644 308.9 464.18 308.9C463.716 308.9 463.271 308.716 462.943 308.387C462.614 308.059 462.43 307.614 462.43 307.15V303.34ZM463.58 307.22C463.58 307.75 463.81 307.95 464.18 307.95C464.55 307.95 464.77 307.75 464.77 307.22V303.27C464.77 302.74 464.54 302.55 464.18 302.55C463.82 302.55 463.58 302.74 463.58 303.27V307.22Z" fill="#263238"/>
<path d="M463.24 313C463.528 313.035 463.818 312.96 464.052 312.789C464.286 312.618 464.446 312.365 464.5 312.08H465.28V319.4H464.13V313.81H463.24V313Z" fill="#263238"/>
<path d="M474.88 198.61C474.88 198.146 475.064 197.701 475.393 197.373C475.721 197.044 476.166 196.86 476.63 196.86C477.094 196.86 477.539 197.044 477.867 197.373C478.196 197.701 478.38 198.146 478.38 198.61V202.42C478.38 202.884 478.196 203.329 477.867 203.657C477.539 203.986 477.094 204.17 476.63 204.17C476.166 204.17 475.721 203.986 475.393 203.657C475.064 203.329 474.88 202.884 474.88 202.42V198.61ZM476 202.49C476 203.01 476.23 203.21 476.59 203.21C476.95 203.21 477.19 203.01 477.19 202.49V198.49C477.19 197.97 476.96 197.77 476.59 197.77C476.22 197.77 476 197.97 476 198.49V202.49Z" fill="#263238"/>
<path d="M475.69 208.24C475.979 208.276 476.27 208.201 476.506 208.03C476.742 207.859 476.904 207.606 476.96 207.32H477.73V214.65H476.58V209.06H475.69V208.24Z" fill="#263238"/>
<path d="M474.88 219.55C474.88 219.086 475.064 218.641 475.393 218.313C475.721 217.984 476.166 217.8 476.63 217.8C477.094 217.8 477.539 217.984 477.867 218.313C478.196 218.641 478.38 219.086 478.38 219.55V223.36C478.38 223.824 478.196 224.269 477.867 224.597C477.539 224.926 477.094 225.11 476.63 225.11C476.166 225.11 475.721 224.926 475.393 224.597C475.064 224.269 474.88 223.824 474.88 223.36V219.55ZM476 223.44C476 223.96 476.23 224.16 476.59 224.16C476.95 224.16 477.19 223.96 477.19 223.44V219.44C477.19 218.92 476.96 218.72 476.59 218.72C476.22 218.72 476 218.92 476 219.44V223.44Z" fill="#263238"/>
<path d="M475.69 229.19C475.979 229.226 476.27 229.151 476.506 228.98C476.742 228.809 476.904 228.556 476.96 228.27H477.73V235.6H476.58V230H475.69V229.19Z" fill="#263238"/>
<path d="M475.69 239.66C475.979 239.696 476.27 239.621 476.506 239.45C476.742 239.279 476.904 239.026 476.96 238.74H477.73V246.07H476.58V240.48H475.69V239.66Z" fill="#263238"/>
<path d="M475.69 250.14C475.979 250.176 476.27 250.101 476.506 249.93C476.742 249.759 476.904 249.506 476.96 249.22H477.73V256.54H476.58V251H475.69V250.14Z" fill="#263238"/>
<path d="M474.88 261.45C474.88 260.986 475.064 260.541 475.393 260.213C475.721 259.884 476.166 259.7 476.63 259.7C477.094 259.7 477.539 259.884 477.867 260.213C478.196 260.541 478.38 260.986 478.38 261.45V265.26C478.38 265.724 478.196 266.169 477.867 266.497C477.539 266.826 477.094 267.01 476.63 267.01C476.166 267.01 475.721 266.826 475.393 266.497C475.064 266.169 474.88 265.724 474.88 265.26V261.45ZM476 265.33C476 265.85 476.23 266.05 476.59 266.05C476.95 266.05 477.19 265.85 477.19 265.33V261.33C477.19 260.81 476.96 260.61 476.59 260.61C476.22 260.61 476 260.81 476 261.33V265.33Z" fill="#263238"/>
<path d="M474.88 271.92C474.88 271.456 475.064 271.011 475.393 270.683C475.721 270.354 476.166 270.17 476.63 270.17C477.094 270.17 477.539 270.354 477.867 270.683C478.196 271.011 478.38 271.456 478.38 271.92V275.73C478.38 276.194 478.196 276.639 477.867 276.967C477.539 277.296 477.094 277.48 476.63 277.48C476.166 277.48 475.721 277.296 475.393 276.967C475.064 276.639 474.88 276.194 474.88 275.73V271.92ZM476 275.8C476 276.33 476.23 276.53 476.59 276.53C476.95 276.53 477.19 276.33 477.19 275.8V271.8C477.19 271.27 476.96 271.08 476.59 271.08C476.22 271.08 476 271.27 476 271.8V275.8Z" fill="#263238"/>
<path d="M469.46 208.24C469.749 208.276 470.04 208.201 470.276 208.03C470.512 207.859 470.674 207.606 470.73 207.32H471.5V214.65H470.35V209.06H469.46V208.24Z" fill="#263238"/>
<path d="M468.66 219.55C468.642 219.31 468.673 219.068 468.753 218.841C468.832 218.613 468.958 218.405 469.122 218.228C469.285 218.051 469.484 217.91 469.705 217.814C469.926 217.718 470.164 217.668 470.405 217.668C470.646 217.668 470.884 217.718 471.105 217.814C471.326 217.91 471.525 218.051 471.688 218.228C471.852 218.405 471.978 218.613 472.057 218.841C472.137 219.068 472.168 219.31 472.15 219.55V223.36C472.168 223.6 472.137 223.842 472.057 224.069C471.978 224.297 471.852 224.505 471.688 224.682C471.525 224.859 471.326 225 471.105 225.096C470.884 225.192 470.646 225.242 470.405 225.242C470.164 225.242 469.926 225.192 469.705 225.096C469.484 225 469.285 224.859 469.122 224.682C468.958 224.505 468.832 224.297 468.753 224.069C468.673 223.842 468.642 223.6 468.66 223.36V219.55ZM469.81 223.44C469.81 223.96 470.04 224.16 470.4 224.16C470.76 224.16 471 223.96 471 223.44V219.44C471 218.92 470.77 218.72 470.4 218.72C470.03 218.72 469.81 218.92 469.81 219.44V223.44Z" fill="#263238"/>
<path d="M468.66 230C468.642 229.76 468.673 229.518 468.753 229.291C468.832 229.063 468.958 228.855 469.122 228.678C469.285 228.501 469.484 228.36 469.705 228.264C469.926 228.168 470.164 228.118 470.405 228.118C470.646 228.118 470.884 228.168 471.105 228.264C471.326 228.36 471.525 228.501 471.688 228.678C471.852 228.855 471.978 229.063 472.057 229.291C472.137 229.518 472.168 229.76 472.15 230V233.81C472.168 234.05 472.137 234.292 472.057 234.519C471.978 234.747 471.852 234.955 471.688 235.132C471.525 235.309 471.326 235.45 471.105 235.546C470.884 235.642 470.646 235.692 470.405 235.692C470.164 235.692 469.926 235.642 469.705 235.546C469.484 235.45 469.285 235.309 469.122 235.132C468.958 234.955 468.832 234.747 468.753 234.519C468.673 234.292 468.642 234.05 468.66 233.81V230ZM469.81 233.88C469.81 234.4 470.04 234.6 470.4 234.6C470.76 234.6 471 234.4 471 233.88V230C471 229.48 470.77 229.28 470.4 229.28C470.03 229.28 469.81 229.48 469.81 230V233.88Z" fill="#263238"/>
<path d="M469.46 239.66C469.749 239.696 470.04 239.621 470.276 239.45C470.512 239.279 470.674 239.026 470.73 238.74H471.5V246.07H470.35V240.48H469.46V239.66Z" fill="#263238"/>
<path d="M469.46 260.61C469.749 260.646 470.04 260.571 470.276 260.4C470.512 260.229 470.674 259.976 470.73 259.69H471.5V267H470.35V261.43H469.46V260.61Z" fill="#263238"/>
<path d="M469.46 271.08C469.749 271.116 470.04 271.041 470.276 270.87C470.512 270.699 470.674 270.446 470.73 270.16H471.5V277.49H470.35V271.9H469.46V271.08Z" fill="#263238"/>
<path d="M469.46 281.56C469.749 281.596 470.04 281.521 470.276 281.35C470.512 281.179 470.674 280.926 470.73 280.64H471.5V288H470.35V282.41H469.46V281.56Z" fill="#263238"/>
<path d="M188 314.57C188 314.106 188.184 313.661 188.513 313.333C188.841 313.004 189.286 312.82 189.75 312.82C190.214 312.82 190.659 313.004 190.987 313.333C191.316 313.661 191.5 314.106 191.5 314.57V318.39C191.5 318.854 191.316 319.299 190.987 319.627C190.659 319.956 190.214 320.14 189.75 320.14C189.286 320.14 188.841 319.956 188.513 319.627C188.184 319.299 188 318.854 188 318.39V314.57ZM189.15 318.46C189.15 318.98 189.38 319.18 189.75 319.18C190.12 319.18 190.34 318.98 190.34 318.46V314.46C190.34 313.94 190.11 313.74 189.75 313.74C189.39 313.74 189.15 313.94 189.15 314.46V318.46Z" fill="#263238"/>
<path d="M188 325.05C188 324.586 188.184 324.141 188.513 323.813C188.841 323.484 189.286 323.3 189.75 323.3C190.214 323.3 190.659 323.484 190.987 323.813C191.316 324.141 191.5 324.586 191.5 325.05V328.86C191.5 329.324 191.316 329.769 190.987 330.097C190.659 330.426 190.214 330.61 189.75 330.61C189.286 330.61 188.841 330.426 188.513 330.097C188.184 329.769 188 329.324 188 328.86V325.05ZM189.15 328.93C189.15 329.46 189.38 329.65 189.75 329.65C190.12 329.65 190.34 329.46 190.34 328.93V324.93C190.34 324.41 190.11 324.21 189.75 324.21C189.39 324.21 189.15 324.41 189.15 324.93V328.93Z" fill="#263238"/>
<path d="M188.8 334.68C189.088 334.716 189.378 334.64 189.612 334.469C189.846 334.298 190.006 334.045 190.06 333.76H190.84V341.09H189.69V335.5H188.8V334.68Z" fill="#263238"/>
<path d="M188 346C188 345.536 188.184 345.091 188.513 344.763C188.841 344.434 189.286 344.25 189.75 344.25C190.214 344.25 190.659 344.434 190.987 344.763C191.316 345.091 191.5 345.536 191.5 346V349.82C191.5 350.284 191.316 350.729 190.987 351.057C190.659 351.386 190.214 351.57 189.75 351.57C189.286 351.57 188.841 351.386 188.513 351.057C188.184 350.729 188 350.284 188 349.82V346ZM189.15 349.89C189.15 350.41 189.38 350.61 189.75 350.61C190.12 350.61 190.34 350.41 190.34 349.89V345.89C190.34 345.37 190.11 345.17 189.75 345.17C189.39 345.17 189.15 345.37 189.15 345.89V349.89Z" fill="#263238"/>
<path d="M188.8 355.63C189.088 355.666 189.378 355.59 189.612 355.419C189.846 355.248 190.006 354.995 190.06 354.71H190.84V362H189.69V356.41H188.8V355.63Z" fill="#263238"/>
<path d="M188 366.94C188 366.476 188.184 366.031 188.513 365.703C188.841 365.374 189.286 365.19 189.75 365.19C190.214 365.19 190.659 365.374 190.987 365.703C191.316 366.031 191.5 366.476 191.5 366.94V370.75C191.5 371.214 191.316 371.659 190.987 371.987C190.659 372.316 190.214 372.5 189.75 372.5C189.286 372.5 188.841 372.316 188.513 371.987C188.184 371.659 188 371.214 188 370.75V366.94ZM189.15 370.83C189.15 371.35 189.38 371.55 189.75 371.55C190.12 371.55 190.34 371.35 190.34 370.83V366.83C190.34 366.3 190.11 366.11 189.75 366.11C189.39 366.11 189.15 366.3 189.15 366.83V370.83Z" fill="#263238"/>
<path d="M188.8 376.58C189.088 376.616 189.378 376.54 189.612 376.369C189.846 376.198 190.006 375.945 190.06 375.66H190.84V383H189.69V377.41H188.8V376.58Z" fill="#263238"/>
<path d="M188 387.89C188 387.426 188.184 386.981 188.513 386.653C188.841 386.324 189.286 386.14 189.75 386.14C190.214 386.14 190.659 386.324 190.987 386.653C191.316 386.981 191.5 387.426 191.5 387.89V391.7C191.5 392.164 191.316 392.609 190.987 392.937C190.659 393.266 190.214 393.45 189.75 393.45C189.286 393.45 188.841 393.266 188.513 392.937C188.184 392.609 188 392.164 188 391.7V387.89ZM189.15 391.77C189.15 392.3 189.38 392.49 189.75 392.49C190.12 392.49 190.34 392.3 190.34 391.77V387.77C190.34 387.25 190.11 387.05 189.75 387.05C189.39 387.05 189.15 387.25 189.15 387.77V391.77Z" fill="#263238"/>
<path d="M188 398.36C188 397.896 188.184 397.451 188.513 397.123C188.841 396.794 189.286 396.61 189.75 396.61C190.214 396.61 190.659 396.794 190.987 397.123C191.316 397.451 191.5 397.896 191.5 398.36V402.17C191.5 402.634 191.316 403.079 190.987 403.407C190.659 403.736 190.214 403.92 189.75 403.92C189.286 403.92 188.841 403.736 188.513 403.407C188.184 403.079 188 402.634 188 402.17V398.36ZM189.15 402.25C189.15 402.77 189.38 402.97 189.75 402.97C190.12 402.97 190.34 402.77 190.34 402.25V398.25C190.34 397.73 190.11 397.53 189.75 397.53C189.39 397.53 189.15 397.73 189.15 398.25V402.25Z" fill="#263238"/>
<path d="M188 408.84C188 408.376 188.184 407.931 188.513 407.603C188.841 407.274 189.286 407.09 189.75 407.09C190.214 407.09 190.659 407.274 190.987 407.603C191.316 407.931 191.5 408.376 191.5 408.84V412.65C191.5 413.114 191.316 413.559 190.987 413.887C190.659 414.216 190.214 414.4 189.75 414.4C189.286 414.4 188.841 414.216 188.513 413.887C188.184 413.559 188 413.114 188 412.65V408.84ZM189.15 412.72C189.15 413.24 189.38 413.44 189.75 413.44C190.12 413.44 190.34 413.24 190.34 412.72V408.72C190.34 408.2 190.11 408 189.75 408C189.39 408 189.15 408.2 189.15 408.72V412.72Z" fill="#263238"/>
<path d="M188.8 428.94C189.088 428.978 189.38 428.904 189.614 428.732C189.849 428.561 190.009 428.306 190.06 428.02H190.84V435.35H189.69V429.76H188.8V428.94Z" fill="#263238"/>
<path d="M195 355.63C195.289 355.666 195.58 355.591 195.816 355.42C196.052 355.249 196.214 354.996 196.27 354.71H197.04V362H195.91V356.41H195V355.63Z" fill="#263238"/>
<path d="M195 366.1C195.289 366.136 195.58 366.061 195.816 365.89C196.052 365.719 196.214 365.466 196.27 365.18H197.04V372.51H195.91V366.92H195V366.1Z" fill="#263238"/>
<path d="M194.22 377.41C194.202 377.17 194.233 376.928 194.313 376.701C194.392 376.473 194.518 376.265 194.682 376.088C194.845 375.911 195.044 375.77 195.265 375.674C195.486 375.578 195.724 375.528 195.965 375.528C196.206 375.528 196.444 375.578 196.665 375.674C196.886 375.77 197.084 375.911 197.248 376.088C197.412 376.265 197.538 376.473 197.617 376.701C197.697 376.928 197.728 377.17 197.71 377.41V381.23C197.728 381.47 197.697 381.712 197.617 381.939C197.538 382.167 197.412 382.375 197.248 382.552C197.084 382.729 196.886 382.87 196.665 382.966C196.444 383.062 196.206 383.112 195.965 383.112C195.724 383.112 195.486 383.062 195.265 382.966C195.044 382.87 194.845 382.729 194.682 382.552C194.518 382.375 194.392 382.167 194.313 381.939C194.233 381.712 194.202 381.47 194.22 381.23V377.41ZM195.37 381.3C195.37 381.82 195.6 382.02 195.96 382.02C196.32 382.02 196.56 381.82 196.56 381.3V377.3C196.56 376.78 196.33 376.58 195.96 376.58C195.59 376.58 195.37 376.78 195.37 377.3V381.3Z" fill="#263238"/>
<path d="M194.22 387.89C194.202 387.65 194.233 387.408 194.313 387.181C194.392 386.953 194.518 386.745 194.682 386.568C194.845 386.391 195.044 386.25 195.265 386.154C195.486 386.058 195.724 386.008 195.965 386.008C196.206 386.008 196.444 386.058 196.665 386.154C196.886 386.25 197.084 386.391 197.248 386.568C197.412 386.745 197.538 386.953 197.617 387.181C197.697 387.408 197.728 387.65 197.71 387.89V391.7C197.728 391.94 197.697 392.182 197.617 392.409C197.538 392.637 197.412 392.845 197.248 393.022C197.084 393.199 196.886 393.34 196.665 393.436C196.444 393.532 196.206 393.582 195.965 393.582C195.724 393.582 195.486 393.532 195.265 393.436C195.044 393.34 194.845 393.199 194.682 393.022C194.518 392.845 194.392 392.637 194.313 392.409C194.233 392.182 194.202 391.94 194.22 391.7V387.89ZM195.37 391.77C195.37 392.3 195.6 392.49 195.96 392.49C196.32 392.49 196.56 392.3 196.56 391.77V387.77C196.56 387.25 196.33 387.05 195.96 387.05C195.59 387.05 195.37 387.25 195.37 387.77V391.77Z" fill="#263238"/>
<path d="M195 397.52C195.289 397.558 195.582 397.484 195.818 397.313C196.055 397.142 196.216 396.887 196.27 396.6H197.04V403.93H195.91V398.34H195V397.52Z" fill="#263238"/>
<path d="M195 418.47C195.289 418.506 195.58 418.431 195.816 418.26C196.052 418.089 196.214 417.836 196.27 417.55H197.04V424.88H195.91V419.29H195V418.47Z" fill="#263238"/>
<path d="M181.76 346C181.76 345.536 181.944 345.091 182.273 344.763C182.601 344.434 183.046 344.25 183.51 344.25C183.974 344.25 184.419 344.434 184.747 344.763C185.076 345.091 185.26 345.536 185.26 346V349.82C185.26 350.284 185.076 350.729 184.747 351.057C184.419 351.386 183.974 351.57 183.51 351.57C183.046 351.57 182.601 351.386 182.273 351.057C181.944 350.729 181.76 350.284 181.76 349.82V346ZM182.92 349.89C182.92 350.41 183.15 350.61 183.51 350.61C183.87 350.61 184.11 350.41 184.11 349.89V345.89C184.11 345.37 183.88 345.17 183.51 345.17C183.14 345.17 182.92 345.37 182.92 345.89V349.89Z" fill="#263238"/>
<path d="M182.57 355.63C182.859 355.666 183.15 355.591 183.386 355.42C183.622 355.249 183.784 354.996 183.84 354.71H184.61V362H183.46V356.41H182.57V355.63Z" fill="#263238"/>
<path d="M182.57 366.1C182.859 366.136 183.15 366.061 183.386 365.89C183.622 365.719 183.784 365.466 183.84 365.18H184.61V372.51H183.46V366.92H182.57V366.1Z" fill="#263238"/>
<path d="M181.76 377.41C181.76 376.946 181.944 376.501 182.273 376.173C182.601 375.844 183.046 375.66 183.51 375.66C183.974 375.66 184.419 375.844 184.747 376.173C185.076 376.501 185.26 376.946 185.26 377.41V381.23C185.26 381.694 185.076 382.139 184.747 382.467C184.419 382.796 183.974 382.98 183.51 382.98C183.046 382.98 182.601 382.796 182.273 382.467C181.944 382.139 181.76 381.694 181.76 381.23V377.41ZM182.92 381.3C182.92 381.82 183.15 382.02 183.51 382.02C183.87 382.02 184.11 381.82 184.11 381.3V377.3C184.11 376.78 183.88 376.58 183.51 376.58C183.14 376.58 182.92 376.78 182.92 377.3V381.3Z" fill="#263238"/>
<path d="M182.57 387.05C182.859 387.086 183.15 387.011 183.386 386.84C183.622 386.669 183.784 386.416 183.84 386.13H184.61V393.46H183.46V387.87H182.57V387.05Z" fill="#263238"/>
<path d="M181.76 398.36C181.76 397.896 181.944 397.451 182.273 397.123C182.601 396.794 183.046 396.61 183.51 396.61C183.974 396.61 184.419 396.794 184.747 397.123C185.076 397.451 185.26 397.896 185.26 398.36V402.17C185.26 402.634 185.076 403.079 184.747 403.407C184.419 403.736 183.974 403.92 183.51 403.92C183.046 403.92 182.601 403.736 182.273 403.407C181.944 403.079 181.76 402.634 181.76 402.17V398.36ZM182.92 402.25C182.92 402.77 183.15 402.97 183.51 402.97C183.87 402.97 184.11 402.77 184.11 402.25V398.25C184.11 397.73 183.88 397.53 183.51 397.53C183.14 397.53 182.92 397.73 182.92 398.25V402.25Z" fill="#263238"/>
<path d="M175.54 325.05C175.522 324.81 175.553 324.568 175.633 324.341C175.712 324.113 175.838 323.905 176.002 323.728C176.165 323.551 176.364 323.41 176.585 323.314C176.806 323.218 177.044 323.168 177.285 323.168C177.526 323.168 177.764 323.218 177.985 323.314C178.206 323.41 178.405 323.551 178.568 323.728C178.732 323.905 178.858 324.113 178.937 324.341C179.017 324.568 179.048 324.81 179.03 325.05V328.86C179.048 329.1 179.017 329.342 178.937 329.569C178.858 329.797 178.732 330.005 178.568 330.182C178.405 330.359 178.206 330.5 177.985 330.596C177.764 330.692 177.526 330.742 177.285 330.742C177.044 330.742 176.806 330.692 176.585 330.596C176.364 330.5 176.165 330.359 176.002 330.182C175.838 330.005 175.712 329.797 175.633 329.569C175.553 329.342 175.522 329.1 175.54 328.86V325.05ZM176.69 328.93C176.69 329.46 176.92 329.65 177.28 329.65C177.64 329.65 177.88 329.46 177.88 328.93V324.93C177.88 324.4 177.65 324.2 177.28 324.2C176.91 324.2 176.69 324.4 176.69 324.93V328.93Z" fill="#263238"/>
<path d="M176.34 345.16C176.629 345.196 176.92 345.121 177.156 344.95C177.392 344.779 177.554 344.526 177.61 344.24H178.38V351.56H177.23V346H176.34V345.16Z" fill="#263238"/>
<path d="M175.54 356.47C175.522 356.23 175.553 355.988 175.633 355.761C175.712 355.533 175.838 355.325 176.002 355.148C176.165 354.971 176.364 354.83 176.585 354.734C176.806 354.638 177.044 354.588 177.285 354.588C177.526 354.588 177.764 354.638 177.985 354.734C178.206 354.83 178.405 354.971 178.568 355.148C178.732 355.325 178.858 355.533 178.937 355.761C179.017 355.988 179.048 356.23 179.03 356.47V360.28C179.048 360.52 179.017 360.762 178.937 360.989C178.858 361.217 178.732 361.425 178.568 361.602C178.405 361.779 178.206 361.92 177.985 362.016C177.764 362.112 177.526 362.162 177.285 362.162C177.044 362.162 176.806 362.112 176.585 362.016C176.364 361.92 176.165 361.779 176.002 361.602C175.838 361.425 175.712 361.217 175.633 360.989C175.553 360.762 175.522 360.52 175.54 360.28V356.47ZM176.69 360.35C176.69 360.88 176.92 361.07 177.28 361.07C177.64 361.07 177.88 360.88 177.88 360.35V356.4C177.88 355.87 177.65 355.67 177.28 355.67C176.91 355.67 176.69 355.87 176.69 356.4V360.35Z" fill="#263238"/>
<path d="M175.54 377.42C175.522 377.18 175.553 376.938 175.633 376.711C175.712 376.483 175.838 376.275 176.002 376.098C176.165 375.921 176.364 375.78 176.585 375.684C176.806 375.588 177.044 375.538 177.285 375.538C177.526 375.538 177.764 375.588 177.985 375.684C178.206 375.78 178.405 375.921 178.568 376.098C178.732 376.275 178.858 376.483 178.937 376.711C179.017 376.938 179.048 377.18 179.03 377.42V381.23C179.048 381.47 179.017 381.712 178.937 381.939C178.858 382.167 178.732 382.375 178.568 382.552C178.405 382.729 178.206 382.87 177.985 382.966C177.764 383.062 177.526 383.112 177.285 383.112C177.044 383.112 176.806 383.062 176.585 382.966C176.364 382.87 176.165 382.729 176.002 382.552C175.838 382.375 175.712 382.167 175.633 381.939C175.553 381.712 175.522 381.47 175.54 381.23V377.42ZM176.69 381.3C176.69 381.82 176.92 382.02 177.28 382.02C177.64 382.02 177.88 381.82 177.88 381.3V377.3C177.88 376.78 177.65 376.58 177.28 376.58C176.91 376.58 176.69 376.78 176.69 377.3V381.3Z" fill="#263238"/>
<path d="M175.54 387.89C175.522 387.65 175.553 387.408 175.633 387.181C175.712 386.953 175.838 386.745 176.002 386.568C176.165 386.391 176.364 386.25 176.585 386.154C176.806 386.058 177.044 386.008 177.285 386.008C177.526 386.008 177.764 386.058 177.985 386.154C178.206 386.25 178.405 386.391 178.568 386.568C178.732 386.745 178.858 386.953 178.937 387.181C179.017 387.408 179.048 387.65 179.03 387.89V391.7C179.048 391.94 179.017 392.182 178.937 392.409C178.858 392.637 178.732 392.845 178.568 393.022C178.405 393.199 178.206 393.34 177.985 393.436C177.764 393.532 177.526 393.582 177.285 393.582C177.044 393.582 176.806 393.532 176.585 393.436C176.364 393.34 176.165 393.199 176.002 393.022C175.838 392.845 175.712 392.637 175.633 392.409C175.553 392.182 175.522 391.94 175.54 391.7V387.89ZM176.69 391.77C176.69 392.3 176.92 392.5 177.28 392.5C177.64 392.5 177.88 392.3 177.88 391.77V387.77C177.88 387.24 177.65 387.04 177.28 387.04C176.91 387.04 176.69 387.24 176.69 387.77V391.77Z" fill="#263238"/>
<path d="M175.54 398.36C175.522 398.12 175.553 397.878 175.633 397.651C175.712 397.423 175.838 397.215 176.002 397.038C176.165 396.861 176.364 396.72 176.585 396.624C176.806 396.528 177.044 396.478 177.285 396.478C177.526 396.478 177.764 396.528 177.985 396.624C178.206 396.72 178.405 396.861 178.568 397.038C178.732 397.215 178.858 397.423 178.937 397.651C179.017 397.878 179.048 398.12 179.03 398.36V402.17C179.048 402.41 179.017 402.652 178.937 402.879C178.858 403.107 178.732 403.315 178.568 403.492C178.405 403.669 178.206 403.81 177.985 403.906C177.764 404.002 177.526 404.052 177.285 404.052C177.044 404.052 176.806 404.002 176.585 403.906C176.364 403.81 176.165 403.669 176.002 403.492C175.838 403.315 175.712 403.107 175.633 402.879C175.553 402.652 175.522 402.41 175.54 402.17V398.36ZM176.69 402.25C176.69 402.77 176.92 402.97 177.28 402.97C177.64 402.97 177.88 402.77 177.88 402.25V398.25C177.88 397.73 177.65 397.53 177.28 397.53C176.91 397.53 176.69 397.73 176.69 398.25V402.25Z" fill="#263238"/>
<path d="M176.34 429C176.63 429.036 176.923 428.959 177.159 428.786C177.395 428.614 177.556 428.357 177.61 428.07H178.38V435.4H177.23V429.81H176.34V429Z" fill="#263238"/>
<path d="M527.13 422.61C494.45 409.38 492.08 363.88 492.08 363.88H499.08V358.44C515.67 358.44 527.13 348.15 527.13 348.15C527.13 348.15 538.59 358.44 555.18 358.44V363.88H562.18C562.18 363.88 559.8 409.38 527.13 422.61Z" stroke="#263238" stroke-width="1.10721" stroke-linecap="round" stroke-linejoin="round"/>
<path d="M527.13 416.6C505.72 406.6 499.52 380.04 497.81 368.6H504.21V362.88C512.438 361.864 520.3 358.88 527.13 354.18C533.964 358.88 541.829 361.864 550.06 362.88V368.6H556.44C554.71 380 548.47 406.6 527.13 416.6Z" stroke="#263238" stroke-width="1.10721" stroke-linecap="round" stroke-linejoin="round"/>
<path d="M538.67 378.97H515.58C514.834 378.97 514.23 379.574 514.23 380.32V394.19C514.23 394.936 514.834 395.54 515.58 395.54H538.67C539.416 395.54 540.02 394.936 540.02 394.19V380.32C540.02 379.574 539.416 378.97 538.67 378.97Z" fill="#263238"/>
<path d="M527.59 365C526.336 364.939 525.082 365.133 523.905 365.571C522.728 366.009 521.652 366.681 520.742 367.547C519.833 368.413 519.108 369.454 518.613 370.608C518.117 371.762 517.861 373.004 517.86 374.26V375.26C517.86 375.345 517.877 375.43 517.909 375.509C517.942 375.588 517.99 375.659 518.05 375.72C518.111 375.78 518.182 375.828 518.261 375.861C518.34 375.893 518.425 375.91 518.51 375.91H520.85C520.935 375.91 521.02 375.893 521.099 375.861C521.178 375.828 521.249 375.78 521.31 375.72C521.37 375.659 521.418 375.588 521.451 375.509C521.483 375.43 521.5 375.345 521.5 375.26V374.49C521.482 373.041 522.011 371.638 522.983 370.563C523.955 369.487 525.296 368.818 526.74 368.69C527.508 368.639 528.279 368.747 529.004 369.006C529.729 369.265 530.393 369.67 530.955 370.195C531.517 370.721 531.966 371.357 532.273 372.063C532.58 372.769 532.739 373.53 532.74 374.3V375.3C532.74 375.472 532.808 375.638 532.93 375.76C533.052 375.882 533.218 375.95 533.39 375.95H535.73C535.902 375.95 536.068 375.882 536.19 375.76C536.312 375.638 536.38 375.472 536.38 375.3V374.6C536.424 372.178 535.537 369.832 533.901 368.045C532.266 366.259 530.006 365.169 527.59 365Z" fill="#263238"/>
<path d="M529.55 385.4C529.551 384.968 529.436 384.543 529.218 384.17C528.999 383.797 528.684 383.49 528.307 383.28C527.929 383.07 527.502 382.964 527.07 382.975C526.638 382.986 526.216 383.112 525.85 383.341C525.483 383.57 525.184 383.892 524.984 384.276C524.784 384.659 524.691 385.089 524.713 385.52C524.736 385.952 524.873 386.37 525.112 386.73C525.351 387.091 525.681 387.381 526.07 387.57L525.19 391.46H529.06L528.18 387.57C528.588 387.372 528.933 387.064 529.175 386.681C529.417 386.297 529.547 385.853 529.55 385.4Z" fill="white" stroke="#263238" stroke-width="1.10721" stroke-linecap="round" stroke-linejoin="round"/>
<path d="M423.88 214.12H344.92C343.086 214.12 341.6 215.606 341.6 217.44V261.9C341.6 263.734 343.086 265.22 344.92 265.22H423.88C425.714 265.22 427.2 263.734 427.2 261.9V217.44C427.2 215.606 425.714 214.12 423.88 214.12Z" stroke="#263238" stroke-width="1.10721" stroke-linecap="round" stroke-linejoin="round"/>
<path d="M349.57 258.08H374.34C374.975 258.08 375.49 257.565 375.49 256.93V222.42C375.49 221.785 374.975 221.27 374.34 221.27H349.57C348.935 221.27 348.42 221.785 348.42 222.42V256.93C348.42 257.565 348.935 258.08 349.57 258.08Z" stroke="#263238" stroke-width="1.10721" stroke-linecap="round" stroke-linejoin="round"/>
<path d="M362 258.07H349.64C349.316 258.07 349.006 257.941 348.777 257.713C348.549 257.484 348.42 257.174 348.42 256.85V248.35C348.42 248.35 355.33 248.05 356.49 246.58C357.65 245.11 356.37 242.81 356.37 242.81C355.95 242.29 355.85 238.6 355.85 238.6L355.43 238.49C355.02 238.39 354.43 235.33 354.43 234.18C354.429 233.849 354.523 233.524 354.7 233.244C354.877 232.964 355.13 232.741 355.43 232.6C355.43 232.6 354.43 225.14 361.96 225.14C369.49 225.14 368.48 232.6 368.48 232.6C368.78 232.741 369.033 232.964 369.21 233.244C369.387 233.524 369.481 233.849 369.48 234.18C369.48 235.33 368.94 238.39 368.48 238.49L368.06 238.6C368.06 238.6 367.96 242.29 367.54 242.81C367.54 242.81 366.25 245.11 367.42 246.58C368.59 248.05 375.49 248.35 375.49 248.35V256.85C375.491 257.011 375.461 257.17 375.4 257.318C375.339 257.467 375.249 257.602 375.136 257.716C375.022 257.829 374.887 257.919 374.738 257.98C374.59 258.041 374.431 258.071 374.27 258.07H362Z" fill="#263238"/>
<path d="M418.62 258.25H401.8C401.466 258.25 401.145 258.119 400.905 257.886C400.666 257.652 400.528 257.334 400.52 257C400.52 256.66 400.655 256.335 400.895 256.095C401.135 255.855 401.461 255.72 401.8 255.72H418.62C418.959 255.72 419.285 255.855 419.525 256.095C419.765 256.335 419.9 256.66 419.9 257C419.892 257.334 419.754 257.652 419.515 257.886C419.275 258.119 418.954 258.25 418.62 258.25Z" fill="#263238"/>
<path d="M418.62 223.65H383.75C383.411 223.65 383.085 223.515 382.845 223.275C382.605 223.035 382.47 222.709 382.47 222.37C382.47 222.03 382.605 221.705 382.845 221.465C383.085 221.225 383.411 221.09 383.75 221.09H418.62C418.959 221.09 419.285 221.225 419.525 221.465C419.765 221.705 419.9 222.03 419.9 222.37C419.9 222.709 419.765 223.035 419.525 223.275C419.285 223.515 418.959 223.65 418.62 223.65Z" fill="#263238"/>
<path d="M403.75 232.3H383.75C383.58 232.3 383.412 232.266 383.256 232.201C383.099 232.135 382.957 232.039 382.838 231.918C382.719 231.797 382.625 231.654 382.562 231.496C382.498 231.338 382.467 231.17 382.47 231C382.47 230.66 382.605 230.335 382.845 230.095C383.085 229.855 383.411 229.72 383.75 229.72H403.75C404.084 229.728 404.402 229.866 404.636 230.105C404.869 230.345 405 230.666 405 231C405.005 231.338 404.877 231.664 404.643 231.907C404.409 232.151 404.088 232.292 403.75 232.3Z" fill="#263238"/>
<path d="M397.38 241H383.75C383.411 241 383.085 240.865 382.845 240.625C382.605 240.385 382.47 240.059 382.47 239.72C382.47 239.381 382.605 239.055 382.845 238.815C383.085 238.575 383.411 238.44 383.75 238.44H397.38C397.719 238.44 398.045 238.575 398.285 238.815C398.525 239.055 398.66 239.381 398.66 239.72C398.66 240.059 398.525 240.385 398.285 240.625C398.045 240.865 397.719 241 397.38 241Z" fill="#263238"/>
<path d="M403.75 249.6H383.75C383.411 249.6 383.085 249.465 382.845 249.225C382.605 248.985 382.47 248.659 382.47 248.32C382.465 248.149 382.494 247.978 382.556 247.818C382.618 247.658 382.711 247.512 382.83 247.389C382.95 247.266 383.093 247.168 383.251 247.101C383.409 247.034 383.578 247 383.75 247H403.75C403.919 247.004 404.086 247.041 404.24 247.11C404.394 247.178 404.534 247.277 404.65 247.4C404.766 247.522 404.857 247.667 404.917 247.825C404.977 247.983 405.005 248.151 405 248.32C405 248.654 404.869 248.975 404.636 249.215C404.402 249.454 404.084 249.592 403.75 249.6Z" fill="#263238"/>
<path d="M261.16 350.18V399.38L247.92 412.62H212.76V350.18H261.16Z" stroke="#263238" stroke-width="1.10721" stroke-linecap="round" stroke-linejoin="round"/>
<path d="M261.16 399.38L247.92 412.62V399.38H261.16Z" fill="#263238" stroke="#263238" stroke-width="1.10721" stroke-linecap="round" stroke-linejoin="round"/>
<path d="M224.55 358.14H253.76" stroke="#263238" stroke-width="1.10721" stroke-linecap="round" stroke-linejoin="round"/>
<path d="M220.15 363.64H253.76" stroke="#263238" stroke-width="1.10721" stroke-linecap="round" stroke-linejoin="round"/>
<path d="M220.15 369.14H253.76" stroke="#263238" stroke-width="1.10721" stroke-linecap="round" stroke-linejoin="round"/>
<path d="M220.15 374.64H253.76" stroke="#263238" stroke-width="1.10721" stroke-linecap="round" stroke-linejoin="round"/>
<path d="M220.15 380.14H253.76" stroke="#263238" stroke-width="1.10721" stroke-linecap="round" stroke-linejoin="round"/>
<path d="M220.15 385.64H253.76" stroke="#263238" stroke-width="1.10721" stroke-linecap="round" stroke-linejoin="round"/>
<path d="M220.15 391.13H253.76" stroke="#263238" stroke-width="1.10721" stroke-linecap="round" stroke-linejoin="round"/>
<path d="M220.15 396.63H249.37" stroke="#263238" stroke-width="1.10721" stroke-linecap="round" stroke-linejoin="round"/>
<path d="M263.46 358.14H269.11V407.34L255.88 420.58H220.72V414.76" stroke="#263238" stroke-width="1.10721" stroke-linecap="round" stroke-linejoin="round"/>
<path d="M269.11 407.34L255.88 420.58V407.34H269.11Z" fill="#263238" stroke="#263238" stroke-width="1.10721" stroke-linecap="round" stroke-linejoin="round"/>
<path d="M442.98 315.97H325.82C323.478 315.97 321.58 317.868 321.58 320.21V450.55C321.58 452.892 323.478 454.79 325.82 454.79H442.98C445.322 454.79 447.22 452.892 447.22 450.55V320.21C447.22 317.868 445.322 315.97 442.98 315.97Z" fill="#7BD8E5" stroke="#263238" stroke-width="1.10721" stroke-linecap="round" stroke-linejoin="round"/>
<g opacity="0.5">
<path d="M444.69 362.25H324.11" stroke="white" stroke-width="1.10721" stroke-linecap="round" stroke-linejoin="round"/>
<path d="M444.69 377.67H324.11" stroke="white" stroke-width="1.10721" stroke-linecap="round" stroke-linejoin="round"/>
<path d="M444.69 393.09H324.11" stroke="white" stroke-width="1.10721" stroke-linecap="round" stroke-linejoin="round"/>
<path d="M444.69 408.51H324.11" stroke="white" stroke-width="1.10721" stroke-linecap="round" stroke-linejoin="round"/>
<path d="M444.69 423.93H324.11" stroke="white" stroke-width="1.10721" stroke-linecap="round" stroke-linejoin="round"/>
<path d="M444.69 439.36H324.11" stroke="white" stroke-width="1.10721" stroke-linecap="round" stroke-linejoin="round"/>
<path d="M444.69 346.82H324.11" stroke="white" stroke-width="1.10721" stroke-linecap="round" stroke-linejoin="round"/>
<path d="M444.69 331.4H324.11" stroke="white" stroke-width="1.10721" stroke-linecap="round" stroke-linejoin="round"/>
<path d="M415.88 452.31V318.44" stroke="white" stroke-width="1.10721" stroke-linecap="round" stroke-linejoin="round"/>
<path d="M400.14 452.31V318.44" stroke="white" stroke-width="1.10721" stroke-linecap="round" stroke-linejoin="round"/>
<path d="M384.4 452.31V318.44" stroke="white" stroke-width="1.10721" stroke-linecap="round" stroke-linejoin="round"/>
<path d="M368.66 452.31V318.44" stroke="white" stroke-width="1.10721" stroke-linecap="round" stroke-linejoin="round"/>
<path d="M352.92 452.31V318.44" stroke="white" stroke-width="1.10721" stroke-linecap="round" stroke-linejoin="round"/>
<path d="M337.19 452.31V318.44" stroke="white" stroke-width="1.10721" stroke-linecap="round" stroke-linejoin="round"/>
<path d="M431.62 452.31V318.44" stroke="white" stroke-width="1.10721" stroke-linecap="round" stroke-linejoin="round"/>
</g>
<path d="M380 427.67C381.346 420.711 383.187 413.857 385.51 407.16C385.98 405.81 386.51 404.45 387.09 403C388.46 399.5 391.27 392.35 390.21 390.22C390.104 389.993 389.94 389.799 389.735 389.657C389.529 389.514 389.289 389.429 389.04 389.41C388.987 389.407 388.933 389.416 388.884 389.435C388.834 389.454 388.788 389.483 388.75 389.52C385.63 392.07 383.62 399.14 382.16 404.3L381.67 406.04C379.733 412.978 378.362 420.061 377.57 427.22" stroke="#263238" stroke-width="1.10721" stroke-linecap="round" stroke-linejoin="round"/>
<path d="M384.63 428C385.923 421.45 387.67 414.997 389.86 408.69C390.3 407.4 390.86 406.05 391.39 404.63C393.58 399.06 396.3 392.16 394.34 388.21C393.853 387.225 393.105 386.393 392.178 385.804C391.25 385.215 390.179 384.892 389.08 384.87C387.92 384.859 386.793 385.259 385.9 386C381.67 389.45 379.53 397 377.81 403.06L377.32 404.79C375.384 411.668 374.003 418.691 373.19 425.79" stroke="#263238" stroke-width="1.10721" stroke-linecap="round" stroke-linejoin="round"/>
<path d="M389.37 427.55C390.589 421.659 392.189 415.854 394.16 410.17C396.54 403.38 401.9 393.17 398.42 386.17C395.57 380.44 388.11 378.31 383.02 382.47C377.2 387.21 374.89 396.72 372.93 403.53C371.081 410.087 369.72 416.772 368.86 423.53" stroke="#263238" stroke-width="1.10721" stroke-linecap="round" stroke-linejoin="round"/>
<path d="M394.35 426.17C395.438 421.263 396.813 416.425 398.47 411.68C398.86 410.55 399.36 409.29 399.89 407.94C402.73 400.71 406.27 391.7 402.5 384.12C401.255 381.618 399.343 379.51 396.975 378.028C394.606 376.545 391.874 375.746 389.08 375.72C385.819 375.71 382.658 376.838 380.14 378.91C373.68 384.18 371.14 393.27 369.03 400.56L368.55 402.25C366.865 408.186 365.585 414.23 364.72 420.34" stroke="#263238" stroke-width="1.10721" stroke-linecap="round" stroke-linejoin="round"/>
<path d="M399.67 423.54C400.6 419.88 401.62 416.49 402.77 413.19C403.15 412.12 403.62 410.91 404.12 409.64C407.12 401.96 411.25 391.48 406.58 382.1C404.959 378.837 402.466 376.088 399.376 374.156C396.287 372.225 392.723 371.188 389.08 371.16C384.768 371.145 380.587 372.637 377.26 375.38C369.68 381.56 366.89 391.38 364.64 399.32L364.16 401C362.749 405.956 361.618 410.987 360.77 416.07" stroke="#263238" stroke-width="1.10721" stroke-linecap="round" stroke-linejoin="round"/>
<path d="M405.16 419.09C406.16 411.77 412.06 403.09 412.64 392.94C413.17 383.64 410.11 377.68 407.94 374.69C407.424 373.953 407.096 373.102 406.985 372.209C406.873 371.317 406.982 370.411 407.3 369.57C408.751 365.309 408.701 360.679 407.16 356.45" stroke="#263238" stroke-width="1.10721" stroke-linecap="round" stroke-linejoin="round"/>
<path d="M391.3 342.78C399 347.6 404 355.19 404.39 365C404.52 368.52 401.66 369.73 398.08 368.64C390.59 366.36 372.74 360.52 361.86 391.11C359.775 397.457 358.237 403.971 357.26 410.58" stroke="#263238" stroke-width="1.10721" stroke-linecap="round" stroke-linejoin="round"/>
<path d="M376 343.28C380.805 343.215 385.554 344.327 389.83 346.52C397.14 350.45 401.74 359.69 399.39 362.04C396.78 364.65 391.93 358.35 377.1 364.43C369.97 367.35 364.91 373.3 361.47 380.06C359.919 383.148 358.608 386.35 357.55 389.64C356.171 393.871 355.036 398.179 354.15 402.54" stroke="#263238" stroke-width="1.10721" stroke-linecap="round" stroke-linejoin="round"/>
<path d="M367.57 348.92C370.182 348.232 372.869 347.872 375.57 347.85C388.66 347.55 393.57 354.53 392.13 356.3C390.92 357.79 388.23 356.95 384.54 357.4C373.89 358.71 365.47 364.77 359.8 373.73C357.003 378.267 354.773 383.13 353.16 388.21C352.86 389.12 352.57 390.04 352.29 390.96" stroke="#263238" stroke-width="1.10721" stroke-linecap="round" stroke-linejoin="round"/>
<path d="M361.4 356.45C365.763 352.926 371.257 351.107 376.86 351.33C378.52 351.33 382.62 351.87 383.17 353.44C383.9 355.5 377.24 352.7 367.59 359.13C355.22 367.38 353.72 375.2 353.72 375.2" stroke="#263238" stroke-width="1.10721" stroke-linecap="round" stroke-linejoin="round"/>
<path d="M410.41 413.55C410.41 413.55 417.12 399.06 416.41 387.86C415.97 380.65 412.41 376.13 411.85 372.92C411.29 369.71 412.85 368.92 412.43 365.98" stroke="#263238" stroke-width="1.10721" stroke-linecap="round" stroke-linejoin="round"/>
<path d="M330.04 345.34V324.88H350.5" stroke="#263238" stroke-width="1.10721" stroke-linecap="round" stroke-linejoin="round"/>
<path d="M350.5 445.88H330.04V425.42" stroke="#263238" stroke-width="1.10721" stroke-linecap="round" stroke-linejoin="round"/>
<path d="M438.77 345.34V324.88H418.31" stroke="#263238" stroke-width="1.10721" stroke-linecap="round" stroke-linejoin="round"/>
<path d="M418.31 445.88H438.77V425.42" stroke="#263238" stroke-width="1.10721" stroke-linecap="round" stroke-linejoin="round"/>
<path d="M525.68 634C520.34 626 514.74 617.56 510.14 610.57C504.26 601.66 500.02 595.15 500.02 595.15C497.77 584.62 494.58 580.49 491.37 571.84C488.16 563.19 490.81 555.48 492.14 544.77C493.47 534.06 491.37 524.08 490.25 517.31C489.13 510.54 490.44 504.15 490.25 502.65C490.06 501.15 483.67 493.25 481.25 487.42C480.153 484.82 478.622 482.425 476.72 480.34C474.619 477.936 471.991 476.05 469.04 474.83C467.811 474.346 466.528 474.011 465.22 473.83C462.22 473.4 459.8 473.88 457.38 473.88C453.99 473.88 446.85 468.06 442.15 467.13C441.278 466.957 440.396 466.834 439.51 466.76C435.62 466.39 431.51 466.76 426.96 467.12C422.41 467.48 417.12 463.17 412.86 461.82H412.79C411.847 461.491 410.842 461.381 409.85 461.5C405.34 462.25 396.85 463 396.85 463C396.85 463 396.1 457.18 395.72 449.28C395.65 447.91 395.55 446.59 395.43 445.28C394.99 440.4 394.29 436.04 394.18 432.05C394.18 431.05 394.18 429.98 394.18 428.98C394.55 423.36 394.38 418.98 394.18 410.34C394.18 410.05 394.18 409.74 394.18 409.43C394.18 406.74 394.18 404.17 394.02 401.85C393.71 396.22 392.46 392.06 386.86 391.2C381.97 390.45 378.59 392.89 376.52 400.98C374.45 409.07 372.95 408.5 372.39 420.34C371.83 432.18 369.18 439.72 369.56 445.73C369.94 451.74 368.62 463.4 368.62 463.4C366.37 462.27 364.3 463.21 363.91 464.15C363.52 465.09 361.86 474.31 360.53 480.89C359.37 486.74 354.04 492.15 352.08 496.18V496.27C351.87 496.705 351.696 497.157 351.56 497.62C350.43 501.76 351 510.62 351 521.88C351 533.14 348.18 544.82 351 552.33C351.601 553.86 352.441 555.285 353.49 556.55C357.82 561.9 365.77 566.55 373 575.08C382 585.8 388.42 593.7 394.43 597.28C398.74 599.82 400.63 601.9 401.43 604.64C401.744 605.828 401.909 607.051 401.92 608.28C402 610.68 403.3 612.51 405.5 615.55C408.932 620.2 411.944 625.146 414.5 630.33C416.91 635.16 420.6 644.33 424.5 654.49L525.68 634Z" fill="white" stroke="#252525" stroke-width="2"/>
<path opacity="0.4" d="M394.15 428.93C394.09 429.93 394.08 430.93 394.15 432C386.96 430.64 373.08 434.19 372.87 438.43C372.63 443.6 372 455.82 374.63 458.67C377.26 461.52 382.9 463.34 382.9 463.34C382.484 463.372 382.07 463.425 381.66 463.5H381.52C379.72 463.879 378.08 464.8 376.82 466.14C371.32 471.78 371.09 484.28 372.89 490.3C380.42 515.3 368.23 535.08 363.89 532.68C359.55 530.28 359.2 508.79 360.51 503.76C361.301 500.826 361.688 497.798 361.66 494.76C359.74 494.12 355.71 495.05 352.01 496.2V496.11C354.01 492.11 359.3 486.67 360.46 480.82C361.79 474.24 363.46 465.02 363.84 464.08C364.22 463.14 366.3 462.2 368.55 463.33C368.55 463.33 369.87 451.68 369.49 445.66C369.11 439.64 371.75 432.12 372.32 420.27C372.89 408.42 374.38 409 376.45 400.91C378.52 392.82 381.9 390.38 386.79 391.13C392.39 391.99 393.64 396.13 393.95 401.78C393.321 401.183 392.653 400.629 391.95 400.12C390.179 398.745 387.954 398.087 385.72 398.28C383.13 398.64 380.86 401.28 379.42 404C377.35 408 377.01 412.29 379.92 410.82C383.22 409.17 390.03 409.72 394.18 410.27C394.35 418.9 394.52 423.31 394.15 428.93Z" fill="#7BD8E5"/>
<path opacity="0.4" d="M401.83 608.25C401.819 607.021 401.654 605.798 401.34 604.61C400.55 601.87 398.66 599.79 394.34 597.25C388.34 593.67 381.93 585.77 372.91 575.05C365.68 566.48 357.73 561.87 353.4 556.52C358.85 559.47 366.25 557.95 368.58 562.62C371.97 569.36 387.89 579.62 387.89 579.62C403.43 595 401.83 608.25 401.83 608.25Z" fill="#7BD8E5"/>
<path opacity="0.4" d="M412.7 461.78C410.87 461.41 405.91 473.64 405.44 477.98C404.19 489.23 409.96 523.91 402.54 523.13C399.47 522.81 395.87 506.61 395.66 499.06C394.99 476.13 395.91 466.6 395.91 466.6C395.91 466.6 394.27 453.9 395.37 445.25C395.49 446.55 395.59 447.87 395.66 449.25C396.04 457.15 396.79 462.97 396.79 462.97C396.79 462.97 405.25 462.22 409.79 461.47C410.771 461.353 411.766 461.459 412.7 461.78Z" fill="#7BD8E5"/>
<path opacity="0.4" d="M439.42 466.75C435.42 467.11 431.42 471.02 428.13 471.75C424.13 472.6 416.78 463.59 412.77 461.83C417.03 463.18 422.37 467.42 426.87 467.13C431.37 466.84 435.53 466.38 439.42 466.75Z" fill="#7BD8E5"/>
<path opacity="0.4" d="M465.17 473.82C463.188 476.302 461.593 479.07 460.44 482.03C457.22 492.44 460.26 531.83 455.07 525.38C448.31 517 455.37 487.93 450.44 476.83C448.88 473.28 443.31 467.6 442.1 467.12C446.8 468.05 453.94 473.87 457.33 473.87C459.75 473.87 462.18 473.39 465.17 473.82Z" fill="#7BD8E5"/>
<path opacity="0.4" d="M510.12 610.56C504.85 604.62 499.33 598.96 495.72 596.84C486.93 591.66 484.41 586.3 483.65 577.37C482.89 568.44 485.16 568.63 487.79 559.8C490.42 550.97 485.53 540.05 485.91 542.41C486.29 544.77 482.14 561.11 479.09 561.92C476.04 562.73 475.01 551.71 474.63 542.73C474.25 533.75 479.14 491.93 477.77 483.73C477.584 482.54 477.213 481.386 476.67 480.31C478.572 482.395 480.104 484.79 481.2 487.39C483.65 493.22 490.04 501.12 490.2 502.62C490.36 504.12 489.07 510.52 490.2 517.28C491.33 524.04 493.4 534.01 492.09 544.74C490.78 555.47 488.09 563.16 491.32 571.81C494.55 580.46 497.72 584.59 499.97 595.12C500 595.14 504.24 601.65 510.12 610.56Z" fill="#7BD8E5"/>
<path opacity="0.4" d="M430.75 489C432.75 491.1 434.01 518.62 435.14 525.39C436.27 532.16 432.76 548.39 430.75 543.45C428.74 538.51 422.61 480.44 430.75 489Z" fill="#7BD8E5"/>
<path d="M423 650.6C419.68 642.02 416.61 634.51 414.51 630.3C411.954 625.116 408.942 620.17 405.51 615.52C403.31 612.52 402.01 610.65 401.93 608.25C401.919 607.021 401.754 605.798 401.44 604.61C400.65 601.87 398.76 599.79 394.44 597.25C388.44 593.67 382.03 585.77 373.01 575.05C365.78 566.48 357.83 561.87 353.5 556.52C352.451 555.255 351.611 553.83 351.01 552.3C348.19 544.79 351.01 533.12 351.01 521.85C351.01 510.58 350.44 501.73 351.57 497.59C351.706 497.127 351.88 496.675 352.09 496.24V496.15C354.09 492.15 359.38 486.71 360.54 480.86C361.87 474.28 363.54 465.06 363.92 464.12C364.3 463.18 366.38 462.24 368.63 463.37C368.63 463.37 369.95 451.72 369.57 445.7C369.19 439.68 371.83 432.16 372.4 420.31C372.97 408.46 374.46 409.04 376.53 400.95C378.6 392.86 381.98 390.42 386.87 391.17C392.47 392.03 393.72 396.17 394.03 401.82C394.16 404.14 394.14 406.71 394.19 409.4C394.19 409.71 394.19 410.02 394.19 410.31C394.37 418.92 394.54 423.31 394.19 428.95C394.13 429.95 394.12 430.95 394.19 432.02C394.3 436.02 395 440.37 395.44 445.25C395.56 446.55 395.66 447.87 395.73 449.25C396.11 457.15 396.86 462.97 396.86 462.97C396.86 462.97 405.32 462.22 409.86 461.47C410.852 461.352 411.857 461.461 412.8 461.79H412.87C417.13 463.14 422.47 467.38 426.97 467.09C431.47 466.8 435.63 466.36 439.52 466.73C440.406 466.804 441.288 466.927 442.16 467.1C446.86 468.03 454 473.85 457.39 473.85C459.81 473.85 462.24 473.37 465.23 473.8C466.538 473.981 467.821 474.316 469.05 474.8C472.001 476.02 474.629 477.906 476.73 480.31C478.632 482.395 480.163 484.79 481.26 487.39C483.71 493.22 490.1 501.12 490.26 502.62C490.42 504.12 489.13 510.52 490.26 517.28C491.39 524.04 493.46 534.01 492.15 544.74C490.84 555.47 488.15 563.16 491.38 571.81C494.61 580.46 497.78 584.59 500.03 595.12C500.03 595.12 504.27 601.63 510.15 610.54C514.23 616.73 519.09 624.09 523.87 631.24" stroke="#263238" stroke-width="1.10721" stroke-linecap="round" stroke-linejoin="round"/>
<path d="M368.58 463.34C368.58 471.62 367.83 481.89 366.58 486.16C365.33 490.43 366.17 504.71 363.87 510.72" stroke="#263238" stroke-width="1.10721" stroke-linecap="round" stroke-linejoin="round"/>
<path d="M372.85 469.86C372.85 469.86 378.61 463.34 382.85 463.34C387.09 463.34 391.38 466.1 395.85 466.6C400.32 467.1 405.06 463.77 409.39 462.97" stroke="#263238" stroke-width="1.10721" stroke-linecap="round" stroke-linejoin="round"/>
<path d="M376.1 439.69C376.1 439.69 383.88 436.85 387.89 439.69" stroke="#263238" stroke-width="1.10721" stroke-linecap="round" stroke-linejoin="round"/>
<path d="M382 436C382 436 384.38 435.35 387.89 437.05" stroke="#263238" stroke-width="1.10721" stroke-linecap="round" stroke-linejoin="round"/>
<path d="M379.92 416C382.554 415.414 385.286 415.414 387.92 416" stroke="#263238" stroke-width="1.10721" stroke-linecap="round" stroke-linejoin="round"/>
<path d="M352 496.11C352 496.11 357 493.68 359 493.43" stroke="#263238" stroke-width="1.10721" stroke-linecap="round" stroke-linejoin="round"/>
<path d="M365.21 503.81C365.21 503.81 362.21 508.47 361.65 510.72" stroke="#263238" stroke-width="1.10721" stroke-linecap="round" stroke-linejoin="round"/>
<path d="M379.92 395.66C379.92 395.66 378.72 405.23 379.92 406.08C381.12 406.93 390.39 407.74 391.15 406.08C391.91 404.42 392.04 397.41 392.04 397.41C392.04 397.41 386.49 387.88 379.92 395.66Z" stroke="#263238" stroke-width="1.10721" stroke-linecap="round" stroke-linejoin="round"/>
<path d="M360.5 480.83C360.5 480.83 368.19 476.95 368.37 471.4C368.55 465.85 366.29 465.91 363.43 465.88" stroke="#263238" stroke-width="1.10721" stroke-linecap="round" stroke-linejoin="round"/>
<path d="M480.39 493.43C480.64 502.2 478.14 527.77 477.88 531.53C477.62 535.29 477.88 544.9 477.88 544.9" stroke="#263238" stroke-width="1.10721" stroke-linecap="round" stroke-linejoin="round"/>
<path d="M425.49 473.35C433.76 485.35 425.49 480.83 430.75 538.3" stroke="#263238" stroke-width="1.10721" stroke-linecap="round" stroke-linejoin="round"/>
<path d="M500 595.14C500 595.14 492.67 589.44 491.41 586.14" stroke="#263238" stroke-width="1.10721" stroke-linecap="round" stroke-linejoin="round"/>
<path d="M397.66 592.44C399.86 596.09 401.25 604.09 401.33 604.58" stroke="#263238" stroke-width="1.10721" stroke-linecap="round" stroke-linejoin="round"/>
<path d="M716.958 74.1303C712.958 14.9303 577.958 16.1303 544.958 52.1303C524.333 74.6303 571.458 74.1303 623.458 100.63C675.458 127.13 629.458 184.63 654.958 190.63C680.458 196.63 721.958 148.13 716.958 74.1303Z" fill="#7BD8E5"/>
<path d="M224 750C201.2 808.4 141.5 774.333 114.5 750C93 728.667 62.9 679.3 114.5 652.5C166.1 625.7 209 641.333 224 652.5C233.5 660.667 246.8 691.6 224 750Z" fill="#7BD8E5"/>
<path d="M94 73C72.13 86.7151 37.3333 90.8333 19.5 87.5V-0.5H141.5C141.5 -0.5 123.5 54.5 94 73Z" fill="#7BD8E6"/>
<path d="M659 483C663 573.4 564.667 656.667 515 687C430.2 747 445.333 775.667 463.5 782.5C518.833 779.5 644.9 747.5 706.5 643.5C768.1 539.5 778 308 722 324.5C695.5 336.5 655 392.6 659 483Z" fill="#7BD8E5" fill-opacity="0.7"/>
<circle cx="50" cy="231" r="50" fill="#7BD8E5" fill-opacity="0.95"/>
</svg>
