<svg width="500" height="500" viewBox="0 0 500 500" fill="none" xmlns="http://www.w3.org/2000/svg">
<path opacity="0.7" d="M67.93 167.09C67.93 167.09 40.05 239.09 79.23 311.59C118.41 384.09 199.11 422.39 263.7 455.14C328.29 487.89 395.36 471.94 427.23 418.3C459.1 364.66 415.39 326.37 415.33 249.88C415.27 173.39 426.78 153.14 385.33 88.52C343.88 23.9 242.27 9.59001 165.43 57.52C88.59 105.45 67.93 167.09 67.93 167.09Z" fill="white"/>
<path d="M19.78 280.21C14.6119 256.305 16.8478 231.393 26.19 208.79C39 177.17 66.46 154.71 97.24 141.6C141.98 122.6 185.9 122.19 222.24 84.86C233.45 73.34 242.87 60.15 254.32 48.86C288.12 15.6 337.58 19.63 374.51 46.01C451.51 101.01 479.27 210.01 474.98 300.07C473.06 340.5 453.76 378.13 423.21 404.65C354.12 464.65 236.81 454.55 157.45 423.23C98.31 399.9 33.68 345.43 19.78 280.21Z" fill="#7BD8E5"/>
<path opacity="0.7" d="M19.78 280.21C14.6119 256.305 16.8478 231.393 26.19 208.79C39 177.17 66.46 154.71 97.24 141.6C141.98 122.6 185.9 122.19 222.24 84.86C233.45 73.34 242.87 60.15 254.32 48.86C288.12 15.6 337.58 19.63 374.51 46.01C451.51 101.01 479.27 210.01 474.98 300.07C473.06 340.5 453.76 378.13 423.21 404.65C354.12 464.65 236.81 454.55 157.45 423.23C98.31 399.9 33.68 345.43 19.78 280.21Z" fill="white"/>
<path d="M250.94 106.97V113.61" stroke="#263238" stroke-width="1.10721" stroke-linecap="round" stroke-linejoin="round"/>
<path d="M250.94 120.78V131.53" stroke="#263238" stroke-width="1.10721" stroke-linecap="round" stroke-linejoin="round" stroke-dasharray="7.17 7.17"/>
<path d="M250.94 135.11V141.75" stroke="#263238" stroke-width="1.10721" stroke-linecap="round" stroke-linejoin="round"/>
<path d="M356.91 219.38H350.27" stroke="#263238" stroke-width="1.10721" stroke-linecap="round" stroke-linejoin="round"/>
<path d="M343.1 219.38H332.35" stroke="#263238" stroke-width="1.10721" stroke-linecap="round" stroke-linejoin="round" stroke-dasharray="7.17 7.17"/>
<path d="M328.77 219.38H322.13" stroke="#263238" stroke-width="1.10721" stroke-linecap="round" stroke-linejoin="round"/>
<path d="M179.76 219.38H173.11" stroke="#263238" stroke-width="1.10721" stroke-linecap="round" stroke-linejoin="round"/>
<path d="M165.95 219.38H155.2" stroke="#263238" stroke-width="1.10721" stroke-linecap="round" stroke-linejoin="round" stroke-dasharray="7.17 7.17"/>
<path d="M151.62 219.38H144.97" stroke="#263238" stroke-width="1.10721" stroke-linecap="round" stroke-linejoin="round"/>
<path d="M434 241.9C434 241.436 434.184 240.991 434.513 240.663C434.841 240.334 435.286 240.15 435.75 240.15C436.214 240.15 436.659 240.334 436.987 240.663C437.316 240.991 437.5 241.436 437.5 241.9V245.72C437.5 246.184 437.316 246.629 436.987 246.957C436.659 247.286 436.214 247.47 435.75 247.47C435.286 247.47 434.841 247.286 434.513 246.957C434.184 246.629 434 246.184 434 245.72V241.9ZM435.15 245.79C435.15 246.31 435.38 246.51 435.75 246.51C436.12 246.51 436.34 246.31 436.34 245.79V241.79C436.34 241.27 436.11 241.07 435.75 241.07C435.39 241.07 435.15 241.27 435.15 241.79V245.79Z" fill="#263238"/>
<path d="M434.82 251.54C435.108 251.576 435.398 251.5 435.632 251.329C435.866 251.158 436.026 250.905 436.08 250.62H436.86V258H435.71V252.41H434.82V251.54Z" fill="#263238"/>
<path d="M434 262.85C434 262.386 434.184 261.941 434.513 261.613C434.841 261.284 435.286 261.1 435.75 261.1C436.214 261.1 436.659 261.284 436.987 261.613C437.316 261.941 437.5 262.386 437.5 262.85V266.66C437.5 267.124 437.316 267.569 436.987 267.897C436.659 268.226 436.214 268.41 435.75 268.41C435.286 268.41 434.841 268.226 434.513 267.897C434.184 267.569 434 267.124 434 266.66V262.85ZM435.15 266.74C435.15 267.26 435.38 267.46 435.75 267.46C436.12 267.46 436.34 267.26 436.34 266.74V262.74C436.34 262.21 436.11 262.02 435.75 262.02C435.39 262.02 435.15 262.21 435.15 262.74V266.74Z" fill="#263238"/>
<path d="M434.82 272.49C435.108 272.526 435.398 272.45 435.632 272.279C435.866 272.108 436.026 271.855 436.08 271.57H436.86V278.89H435.71V273.3H434.82V272.49Z" fill="#263238"/>
<path d="M434 283.8C434 283.336 434.184 282.891 434.513 282.563C434.841 282.234 435.286 282.05 435.75 282.05C436.214 282.05 436.659 282.234 436.987 282.563C437.316 282.891 437.5 283.336 437.5 283.8V287.61C437.5 288.074 437.316 288.519 436.987 288.847C436.659 289.176 436.214 289.36 435.75 289.36C435.286 289.36 434.841 289.176 434.513 288.847C434.184 288.519 434 288.074 434 287.61V283.8ZM435.15 287.68C435.15 288.21 435.38 288.4 435.75 288.4C436.12 288.4 436.34 288.21 436.34 287.68V283.68C436.34 283.16 436.11 282.96 435.75 282.96C435.39 282.96 435.15 283.16 435.15 283.68V287.68Z" fill="#263238"/>
<path d="M434.82 293.43C435.108 293.466 435.398 293.39 435.632 293.219C435.866 293.048 436.026 292.795 436.08 292.51H436.86V299.84H435.71V294.25H434.82V293.43Z" fill="#263238"/>
<path d="M434 304.74C434 304.276 434.184 303.831 434.513 303.503C434.841 303.174 435.286 302.99 435.75 302.99C436.214 302.99 436.659 303.174 436.987 303.503C437.316 303.831 437.5 304.276 437.5 304.74V308.56C437.5 309.024 437.316 309.469 436.987 309.797C436.659 310.126 436.214 310.31 435.75 310.31C435.286 310.31 434.841 310.126 434.513 309.797C434.184 309.469 434 309.024 434 308.56V304.74ZM435.15 308.63C435.15 309.15 435.38 309.35 435.75 309.35C436.12 309.35 436.34 309.15 436.34 308.63V304.63C436.34 304.11 436.11 303.91 435.75 303.91C435.39 303.91 435.15 304.11 435.15 304.63V308.63Z" fill="#263238"/>
<path d="M434 315.22C434 314.756 434.184 314.311 434.513 313.983C434.841 313.654 435.286 313.47 435.75 313.47C436.214 313.47 436.659 313.654 436.987 313.983C437.316 314.311 437.5 314.756 437.5 315.22V319C437.5 319.464 437.316 319.909 436.987 320.237C436.659 320.566 436.214 320.75 435.75 320.75C435.286 320.75 434.841 320.566 434.513 320.237C434.184 319.909 434 319.464 434 319V315.22ZM435.15 319.1C435.15 319.63 435.38 319.82 435.75 319.82C436.12 319.82 436.34 319.63 436.34 319.1V315.1C436.34 314.57 436.11 314.37 435.75 314.37C435.39 314.37 435.15 314.57 435.15 315.1V319.1Z" fill="#263238"/>
<path d="M434 325.69C434 325.226 434.184 324.781 434.513 324.453C434.841 324.124 435.286 323.94 435.75 323.94C436.214 323.94 436.659 324.124 436.987 324.453C437.316 324.781 437.5 325.226 437.5 325.69V329.5C437.5 329.964 437.316 330.409 436.987 330.737C436.659 331.066 436.214 331.25 435.75 331.25C435.286 331.25 434.841 331.066 434.513 330.737C434.184 330.409 434 329.964 434 329.5V325.69ZM435.15 329.58C435.15 330.1 435.38 330.3 435.75 330.3C436.12 330.3 436.34 330.1 436.34 329.58V325.58C436.34 325.06 436.11 324.86 435.75 324.86C435.39 324.86 435.15 325.06 435.15 325.58V329.58Z" fill="#263238"/>
<path d="M434.82 345.8C435.108 345.836 435.398 345.76 435.632 345.589C435.866 345.418 436.026 345.165 436.08 344.88H436.86V352.21H435.71V346.62H434.82V345.8Z" fill="#263238"/>
<path d="M434.82 356.28C435.109 356.318 435.402 356.242 435.637 356.069C435.872 355.895 436.031 355.638 436.08 355.35H436.86V362.68H435.71V357.09H434.82V356.28Z" fill="#263238"/>
<path d="M434.82 366.75C435.108 366.786 435.398 366.71 435.632 366.539C435.866 366.368 436.026 366.115 436.08 365.83H436.86V373.15H435.71V367.57H434.82V366.75Z" fill="#263238"/>
<path d="M434 378.06C434 377.596 434.184 377.151 434.513 376.823C434.841 376.494 435.286 376.31 435.75 376.31C436.214 376.31 436.659 376.494 436.987 376.823C437.316 377.151 437.5 377.596 437.5 378.06V381.87C437.5 382.334 437.316 382.779 436.987 383.107C436.659 383.436 436.214 383.62 435.75 383.62C435.286 383.62 434.841 383.436 434.513 383.107C434.184 382.779 434 382.334 434 381.87V378.06ZM435.15 381.94C435.15 382.47 435.38 382.66 435.75 382.66C436.12 382.66 436.34 382.47 436.34 381.94V378C436.34 377.47 436.11 377.27 435.75 377.27C435.39 377.27 435.15 377.47 435.15 378V381.94Z" fill="#263238"/>
<path d="M434 388.53C434 388.066 434.184 387.621 434.513 387.293C434.841 386.964 435.286 386.78 435.75 386.78C436.214 386.78 436.659 386.964 436.987 387.293C437.316 387.621 437.5 388.066 437.5 388.53V392.34C437.5 392.804 437.316 393.249 436.987 393.577C436.659 393.906 436.214 394.09 435.75 394.09C435.286 394.09 434.841 393.906 434.513 393.577C434.184 393.249 434 392.804 434 392.34V388.53ZM435.15 392.42C435.15 392.94 435.38 393.14 435.75 393.14C436.12 393.14 436.34 392.94 436.34 392.42V388.42C436.34 387.9 436.11 387.7 435.75 387.7C435.39 387.7 435.15 387.9 435.15 388.42V392.42Z" fill="#263238"/>
<path d="M434.82 398.17C435.108 398.206 435.398 398.13 435.632 397.959C435.866 397.788 436.026 397.535 436.08 397.25H436.86V404.57H435.71V399H434.82V398.17Z" fill="#263238"/>
<path d="M441 230.59C441.289 230.626 441.58 230.551 441.816 230.38C442.052 230.209 442.214 229.956 442.27 229.67H443.04V237H441.89V231.41H441V230.59Z" fill="#263238"/>
<path d="M441 241.07C441.289 241.106 441.58 241.031 441.816 240.86C442.052 240.689 442.214 240.436 442.27 240.15H443.04V247.47H441.89V241.88H441V241.07Z" fill="#263238"/>
<path d="M440.24 262.85C440.222 262.61 440.253 262.368 440.333 262.141C440.412 261.913 440.538 261.705 440.702 261.528C440.866 261.351 441.064 261.21 441.285 261.114C441.506 261.018 441.744 260.968 441.985 260.968C442.226 260.968 442.464 261.018 442.685 261.114C442.906 261.21 443.104 261.351 443.268 261.528C443.432 261.705 443.558 261.913 443.637 262.141C443.717 262.368 443.748 262.61 443.73 262.85V266.66C443.748 266.9 443.717 267.142 443.637 267.369C443.558 267.597 443.432 267.805 443.268 267.982C443.104 268.159 442.906 268.3 442.685 268.396C442.464 268.492 442.226 268.542 441.985 268.542C441.744 268.542 441.506 268.492 441.285 268.396C441.064 268.3 440.866 268.159 440.702 267.982C440.538 267.805 440.412 267.597 440.333 267.369C440.253 267.142 440.222 266.9 440.24 266.66V262.85ZM441.39 266.74C441.39 267.26 441.62 267.46 441.98 267.46C442.34 267.46 442.58 267.26 442.58 266.74V262.74C442.58 262.21 442.35 262.02 441.98 262.02C441.61 262.02 441.39 262.21 441.39 262.74V266.74Z" fill="#263238"/>
<path d="M441 293.43C441.289 293.466 441.58 293.391 441.816 293.22C442.052 293.049 442.214 292.796 442.27 292.51H443.04V299.84H441.89V294.25H441V293.43Z" fill="#263238"/>
<path d="M440.24 304.74C440.222 304.5 440.253 304.258 440.333 304.031C440.412 303.803 440.538 303.595 440.702 303.418C440.866 303.241 441.064 303.1 441.285 303.004C441.506 302.908 441.744 302.858 441.985 302.858C442.226 302.858 442.464 302.908 442.685 303.004C442.906 303.1 443.104 303.241 443.268 303.418C443.432 303.595 443.558 303.803 443.637 304.031C443.717 304.258 443.748 304.5 443.73 304.74V308.56C443.748 308.8 443.717 309.042 443.637 309.269C443.558 309.497 443.432 309.705 443.268 309.882C443.104 310.059 442.906 310.2 442.685 310.296C442.464 310.392 442.226 310.442 441.985 310.442C441.744 310.442 441.506 310.392 441.285 310.296C441.064 310.2 440.866 310.059 440.702 309.882C440.538 309.705 440.412 309.497 440.333 309.269C440.253 309.042 440.222 308.8 440.24 308.56V304.74ZM441.39 308.63C441.39 309.15 441.62 309.35 441.98 309.35C442.34 309.35 442.58 309.15 442.58 308.63V304.63C442.58 304.11 442.35 303.91 441.98 303.91C441.61 303.91 441.39 304.11 441.39 304.63V308.63Z" fill="#263238"/>
<path d="M441 314.38C441.289 314.416 441.58 314.341 441.816 314.17C442.052 313.999 442.214 313.746 442.27 313.46H443.04V320.79H441.89V315.2H441V314.38Z" fill="#263238"/>
<path d="M441 324.85C441.289 324.888 441.582 324.814 441.818 324.643C442.055 324.472 442.216 324.217 442.27 323.93H443.04V331.26H441.89V325.67H441V324.85Z" fill="#263238"/>
<path d="M441 335.33C441.289 335.366 441.58 335.291 441.816 335.12C442.052 334.949 442.214 334.696 442.27 334.41H443.04V341.73H441.89V336.14H441V335.33Z" fill="#263238"/>
<path d="M440.24 346.64C440.222 346.4 440.253 346.158 440.333 345.931C440.412 345.703 440.538 345.495 440.702 345.318C440.866 345.141 441.064 345 441.285 344.904C441.506 344.808 441.744 344.758 441.985 344.758C442.226 344.758 442.464 344.808 442.685 344.904C442.906 345 443.104 345.141 443.268 345.318C443.432 345.495 443.558 345.703 443.637 345.931C443.717 346.158 443.748 346.4 443.73 346.64V350.45C443.748 350.69 443.717 350.932 443.637 351.159C443.558 351.387 443.432 351.595 443.268 351.772C443.104 351.949 442.906 352.09 442.685 352.186C442.464 352.282 442.226 352.332 441.985 352.332C441.744 352.332 441.506 352.282 441.285 352.186C441.064 352.09 440.866 351.949 440.702 351.772C440.538 351.595 440.412 351.387 440.333 351.159C440.253 350.932 440.222 350.69 440.24 350.45V346.64ZM441.39 350.52C441.39 351.05 441.62 351.24 441.98 351.24C442.34 351.24 442.58 351.05 442.58 350.52V346.57C442.58 346.04 442.35 345.84 441.98 345.84C441.61 345.84 441.39 346.04 441.39 346.57V350.52Z" fill="#263238"/>
<path d="M440.24 357.11C440.222 356.87 440.253 356.628 440.333 356.401C440.412 356.173 440.538 355.965 440.702 355.788C440.866 355.611 441.064 355.47 441.285 355.374C441.506 355.278 441.744 355.228 441.985 355.228C442.226 355.228 442.464 355.278 442.685 355.374C442.906 355.47 443.104 355.611 443.268 355.788C443.432 355.965 443.558 356.173 443.637 356.401C443.717 356.628 443.748 356.87 443.73 357.11V360.92C443.748 361.16 443.717 361.402 443.637 361.629C443.558 361.857 443.432 362.065 443.268 362.242C443.104 362.419 442.906 362.56 442.685 362.656C442.464 362.752 442.226 362.802 441.985 362.802C441.744 362.802 441.506 362.752 441.285 362.656C441.064 362.56 440.866 362.419 440.702 362.242C440.538 362.065 440.412 361.857 440.333 361.629C440.253 361.402 440.222 361.16 440.24 360.92V357.11ZM441.39 361C441.39 361.52 441.62 361.72 441.98 361.72C442.34 361.72 442.58 361.52 442.58 361V357C442.58 356.48 442.35 356.28 441.98 356.28C441.61 356.28 441.39 356.48 441.39 357V361Z" fill="#263238"/>
<path d="M428.59 293.43C428.879 293.466 429.17 293.391 429.406 293.22C429.642 293.049 429.804 292.796 429.86 292.51H430.63V299.84H429.48V294.25H428.59V293.43Z" fill="#263238"/>
<path d="M427.78 304.74C427.78 304.276 427.964 303.831 428.293 303.503C428.621 303.174 429.066 302.99 429.53 302.99C429.994 302.99 430.439 303.174 430.767 303.503C431.096 303.831 431.28 304.276 431.28 304.74V308.56C431.28 309.024 431.096 309.469 430.767 309.797C430.439 310.126 429.994 310.31 429.53 310.31C429.066 310.31 428.621 310.126 428.293 309.797C427.964 309.469 427.78 309.024 427.78 308.56V304.74ZM428.93 308.63C428.93 309.15 429.16 309.35 429.53 309.35C429.9 309.35 430.13 309.15 430.13 308.63V304.63C430.13 304.11 429.9 303.91 429.53 303.91C429.16 303.91 428.93 304.11 428.93 304.63V308.63Z" fill="#263238"/>
<path d="M427.78 315.22C427.78 314.756 427.964 314.311 428.293 313.983C428.621 313.654 429.066 313.47 429.53 313.47C429.994 313.47 430.439 313.654 430.767 313.983C431.096 314.311 431.28 314.756 431.28 315.22V319C431.28 319.464 431.096 319.909 430.767 320.237C430.439 320.566 429.994 320.75 429.53 320.75C429.066 320.75 428.621 320.566 428.293 320.237C427.964 319.909 427.78 319.464 427.78 319V315.22ZM428.93 319.1C428.93 319.63 429.16 319.82 429.53 319.82C429.9 319.82 430.13 319.63 430.13 319.1V315.1C430.13 314.57 429.9 314.37 429.53 314.37C429.16 314.37 428.93 314.57 428.93 315.1V319.1Z" fill="#263238"/>
<path d="M428.59 324.85C428.879 324.888 429.172 324.814 429.408 324.643C429.645 324.472 429.806 324.217 429.86 323.93H430.63V331.26H429.48V325.67H428.59V324.85Z" fill="#263238"/>
<path d="M428.59 345.8C428.879 345.836 429.17 345.761 429.406 345.59C429.642 345.419 429.804 345.166 429.86 344.88H430.63V352.21H429.48V346.62H428.59V345.8Z" fill="#263238"/>
<path d="M428.59 356.28C428.88 356.315 429.173 356.239 429.409 356.066C429.645 355.894 429.806 355.637 429.86 355.35H430.63V362.68H429.48V357.09H428.59V356.28Z" fill="#263238"/>
<path d="M428.59 366.75C428.879 366.786 429.17 366.711 429.406 366.54C429.642 366.369 429.804 366.116 429.86 365.83H430.63V373.15H429.48V367.57H428.59V366.75Z" fill="#263238"/>
<path d="M421.56 262.85C421.542 262.61 421.573 262.368 421.653 262.141C421.732 261.913 421.858 261.705 422.022 261.528C422.185 261.351 422.384 261.21 422.605 261.114C422.826 261.018 423.064 260.968 423.305 260.968C423.546 260.968 423.784 261.018 424.005 261.114C424.226 261.21 424.424 261.351 424.588 261.528C424.752 261.705 424.878 261.913 424.957 262.141C425.037 262.368 425.068 262.61 425.05 262.85V266.66C425.068 266.9 425.037 267.142 424.957 267.369C424.878 267.597 424.752 267.805 424.588 267.982C424.424 268.159 424.226 268.3 424.005 268.396C423.784 268.492 423.546 268.542 423.305 268.542C423.064 268.542 422.826 268.492 422.605 268.396C422.384 268.3 422.185 268.159 422.022 267.982C421.858 267.805 421.732 267.597 421.653 267.369C421.573 267.142 421.542 266.9 421.56 266.66V262.85ZM422.71 266.74C422.71 267.26 422.94 267.46 423.3 267.46C423.66 267.46 423.9 267.26 423.9 266.74V262.74C423.9 262.21 423.67 262.02 423.3 262.02C422.93 262.02 422.71 262.21 422.71 262.74V266.74Z" fill="#263238"/>
<path d="M421.56 283.8C421.542 283.56 421.573 283.318 421.653 283.091C421.732 282.863 421.858 282.655 422.022 282.478C422.185 282.301 422.384 282.16 422.605 282.064C422.826 281.968 423.064 281.918 423.305 281.918C423.546 281.918 423.784 281.968 424.005 282.064C424.226 282.16 424.424 282.301 424.588 282.478C424.752 282.655 424.878 282.863 424.957 283.091C425.037 283.318 425.068 283.56 425.05 283.8V287.61C425.068 287.85 425.037 288.092 424.957 288.319C424.878 288.547 424.752 288.755 424.588 288.932C424.424 289.109 424.226 289.25 424.005 289.346C423.784 289.442 423.546 289.492 423.305 289.492C423.064 289.492 422.826 289.442 422.605 289.346C422.384 289.25 422.185 289.109 422.022 288.932C421.858 288.755 421.732 288.547 421.653 288.319C421.573 288.092 421.542 287.85 421.56 287.61V283.8ZM422.71 287.68C422.71 288.21 422.94 288.4 423.3 288.4C423.66 288.4 423.9 288.21 423.9 287.68V283.68C423.9 283.16 423.67 282.96 423.3 282.96C422.93 282.96 422.71 283.16 422.71 283.68V287.68Z" fill="#263238"/>
<path d="M422.36 314.38C422.649 314.416 422.94 314.341 423.176 314.17C423.412 313.999 423.574 313.746 423.63 313.46H424.4V320.79H423.25V315.2H422.36V314.38Z" fill="#263238"/>
<path d="M422.36 324.85C422.649 324.888 422.942 324.814 423.178 324.643C423.415 324.472 423.576 324.217 423.63 323.93H424.4V331.26H423.25V325.67H422.36V324.85Z" fill="#263238"/>
<path d="M422.36 356.28C422.65 356.315 422.943 356.239 423.179 356.066C423.415 355.894 423.576 355.637 423.63 355.35H424.4V362.68H423.25V357.09H422.36V356.28Z" fill="#263238"/>
<path d="M421.56 367.59C421.542 367.35 421.573 367.108 421.653 366.881C421.732 366.653 421.858 366.445 422.022 366.268C422.185 366.091 422.384 365.95 422.605 365.854C422.826 365.758 423.064 365.708 423.305 365.708C423.546 365.708 423.784 365.758 424.005 365.854C424.226 365.95 424.424 366.091 424.588 366.268C424.752 366.445 424.878 366.653 424.957 366.881C425.037 367.108 425.068 367.35 425.05 367.59V371.4C425.068 371.64 425.037 371.882 424.957 372.109C424.878 372.337 424.752 372.545 424.588 372.722C424.424 372.899 424.226 373.04 424.005 373.136C423.784 373.232 423.546 373.282 423.305 373.282C423.064 373.282 422.826 373.232 422.605 373.136C422.384 373.04 422.185 372.899 422.022 372.722C421.858 372.545 421.732 372.337 421.653 372.109C421.573 371.882 421.542 371.64 421.56 371.4V367.59ZM422.71 371.47C422.71 371.99 422.94 372.19 423.3 372.19C423.66 372.19 423.9 371.99 423.9 371.47V367.47C423.9 366.95 423.67 366.75 423.3 366.75C422.93 366.75 422.71 366.95 422.71 367.47V371.47Z" fill="#263238"/>
<path d="M422.36 377.22C422.649 377.256 422.94 377.181 423.176 377.01C423.412 376.839 423.574 376.586 423.63 376.3H424.4V383.63H423.25V378H422.36V377.22Z" fill="#263238"/>
<path d="M163.73 274C163.73 273.536 163.914 273.091 164.243 272.763C164.571 272.434 165.016 272.25 165.48 272.25C165.944 272.25 166.389 272.434 166.717 272.763C167.046 273.091 167.23 273.536 167.23 274V277.81C167.23 278.274 167.046 278.719 166.717 279.047C166.389 279.376 165.944 279.56 165.48 279.56C165.016 279.56 164.571 279.376 164.243 279.047C163.914 278.719 163.73 278.274 163.73 277.81V274ZM164.88 277.88C164.88 278.41 165.11 278.61 165.48 278.61C165.85 278.61 166.07 278.41 166.07 277.88V273.88C166.07 273.35 165.84 273.15 165.48 273.15C165.12 273.15 164.88 273.35 164.88 273.88V277.88Z" fill="#263238"/>
<path d="M163.73 284.5C163.73 284.036 163.914 283.591 164.243 283.263C164.571 282.934 165.016 282.75 165.48 282.75C165.944 282.75 166.389 282.934 166.717 283.263C167.046 283.591 167.23 284.036 167.23 284.5V288.31C167.23 288.774 167.046 289.219 166.717 289.547C166.389 289.876 165.944 290.06 165.48 290.06C165.016 290.06 164.571 289.876 164.243 289.547C163.914 289.219 163.73 288.774 163.73 288.31V284.5ZM164.88 288.39C164.88 288.91 165.11 289.11 165.48 289.11C165.85 289.11 166.07 288.91 166.07 288.39V284.39C166.07 283.87 165.84 283.67 165.48 283.67C165.12 283.67 164.88 283.87 164.88 284.39V288.39Z" fill="#263238"/>
<path d="M164.54 294.14C164.828 294.176 165.118 294.1 165.352 293.929C165.586 293.758 165.746 293.505 165.8 293.22H166.58V300.55H165.43V295H164.54V294.14Z" fill="#263238"/>
<path d="M163.73 305.45C163.73 304.986 163.914 304.541 164.243 304.213C164.571 303.884 165.016 303.7 165.48 303.7C165.944 303.7 166.389 303.884 166.717 304.213C167.046 304.541 167.23 304.986 167.23 305.45V309.26C167.23 309.724 167.046 310.169 166.717 310.497C166.389 310.826 165.944 311.01 165.48 311.01C165.016 311.01 164.571 310.826 164.243 310.497C163.914 310.169 163.73 309.724 163.73 309.26V305.45ZM164.88 309.33C164.88 309.86 165.11 310.06 165.48 310.06C165.85 310.06 166.07 309.86 166.07 309.33V305.38C166.07 304.85 165.84 304.65 165.48 304.65C165.12 304.65 164.88 304.85 164.88 305.38V309.33Z" fill="#263238"/>
<path d="M164.54 315.09C164.828 315.125 165.118 315.05 165.352 314.879C165.586 314.708 165.746 314.455 165.8 314.17H166.58V321.49H165.43V315.9H164.54V315.09Z" fill="#263238"/>
<path d="M163.73 326.4C163.73 325.936 163.914 325.491 164.243 325.163C164.571 324.834 165.016 324.65 165.48 324.65C165.944 324.65 166.389 324.834 166.717 325.163C167.046 325.491 167.23 325.936 167.23 326.4V330.21C167.23 330.674 167.046 331.119 166.717 331.447C166.389 331.776 165.944 331.96 165.48 331.96C165.016 331.96 164.571 331.776 164.243 331.447C163.914 331.119 163.73 330.674 163.73 330.21V326.4ZM164.88 330.28C164.88 330.8 165.11 331 165.48 331C165.85 331 166.07 330.8 166.07 330.28V326.28C166.07 325.76 165.84 325.56 165.48 325.56C165.12 325.56 164.88 325.76 164.88 326.28V330.28Z" fill="#263238"/>
<path d="M164.54 336C164.828 336.036 165.118 335.96 165.352 335.789C165.586 335.618 165.746 335.365 165.8 335.08H166.58V342.41H165.43V336.82H164.54V336Z" fill="#263238"/>
<path d="M163.73 347.34C163.73 346.876 163.914 346.431 164.243 346.103C164.571 345.774 165.016 345.59 165.48 345.59C165.944 345.59 166.389 345.774 166.717 346.103C167.046 346.431 167.23 346.876 167.23 347.34V351.15C167.23 351.614 167.046 352.059 166.717 352.387C166.389 352.716 165.944 352.9 165.48 352.9C165.016 352.9 164.571 352.716 164.243 352.387C163.914 352.059 163.73 351.614 163.73 351.15V347.34ZM164.88 351.23C164.88 351.75 165.11 351.95 165.48 351.95C165.85 351.95 166.07 351.75 166.07 351.23V347.23C166.07 346.71 165.84 346.51 165.48 346.51C165.12 346.51 164.88 346.71 164.88 347.23V351.23Z" fill="#263238"/>
<path d="M163.73 357.82C163.73 357.356 163.914 356.911 164.243 356.583C164.571 356.254 165.016 356.07 165.48 356.07C165.944 356.07 166.389 356.254 166.717 356.583C167.046 356.911 167.23 357.356 167.23 357.82V361.63C167.23 362.094 167.046 362.539 166.717 362.867C166.389 363.196 165.944 363.38 165.48 363.38C165.016 363.38 164.571 363.196 164.243 362.867C163.914 362.539 163.73 362.094 163.73 361.63V357.82ZM164.88 361.7C164.88 362.22 165.11 362.42 165.48 362.42C165.85 362.42 166.07 362.22 166.07 361.7V357.7C166.07 357.18 165.84 356.98 165.48 356.98C165.12 356.98 164.88 357.18 164.88 357.7V361.7Z" fill="#263238"/>
<path d="M163.73 368.29C163.73 367.826 163.914 367.381 164.243 367.053C164.571 366.724 165.016 366.54 165.48 366.54C165.944 366.54 166.389 366.724 166.717 367.053C167.046 367.381 167.23 367.826 167.23 368.29V372.1C167.23 372.564 167.046 373.009 166.717 373.337C166.389 373.666 165.944 373.85 165.48 373.85C165.016 373.85 164.571 373.666 164.243 373.337C163.914 373.009 163.73 372.564 163.73 372.1V368.29ZM164.88 372.17C164.88 372.7 165.11 372.9 165.48 372.9C165.85 372.9 166.07 372.7 166.07 372.17V368.22C166.07 367.69 165.84 367.5 165.48 367.5C165.12 367.5 164.88 367.69 164.88 368.22V372.17Z" fill="#263238"/>
<path d="M164.54 377.93C164.828 377.966 165.118 377.89 165.352 377.719C165.586 377.548 165.746 377.295 165.8 377.01H166.58V384.33H165.43V378.74H164.54V377.93Z" fill="#263238"/>
<path d="M164.54 388.4C164.828 388.435 165.118 388.36 165.352 388.189C165.586 388.018 165.746 387.765 165.8 387.48H166.58V394.81H165.43V389.22H164.54V388.4Z" fill="#263238"/>
<path d="M164.54 398.87C164.828 398.906 165.118 398.83 165.352 398.659C165.586 398.488 165.746 398.235 165.8 397.95H166.58V405.28H165.43V399.69H164.54V398.87Z" fill="#263238"/>
<path d="M164.54 409.35C164.828 409.386 165.118 409.31 165.352 409.139C165.586 408.968 165.746 408.715 165.8 408.43H166.58V415.75H165.43V410.16H164.54V409.35Z" fill="#263238"/>
<path d="M164.88 424.54C164.88 425.07 165.11 425.26 165.48 425.26C165.85 425.26 166.07 425.07 166.07 424.54V420.54C166.07 420.02 165.84 419.82 165.48 419.82C165.12 419.82 164.88 420.02 164.88 420.54V424.54Z" fill="#263238"/>
<path d="M170.76 315.09C171.049 315.126 171.34 315.051 171.576 314.88C171.812 314.709 171.974 314.456 172.03 314.17H172.8V321.49H171.65V315.9H170.76V315.09Z" fill="#263238"/>
<path d="M170.76 325.56C171.049 325.596 171.34 325.521 171.576 325.35C171.812 325.179 171.974 324.926 172.03 324.64H172.8V332H171.65V326.41H170.76V325.56Z" fill="#263238"/>
<path d="M170 347.34C169.982 347.1 170.013 346.858 170.093 346.631C170.172 346.403 170.298 346.195 170.462 346.018C170.625 345.841 170.824 345.7 171.045 345.604C171.266 345.508 171.504 345.458 171.745 345.458C171.986 345.458 172.224 345.508 172.445 345.604C172.666 345.7 172.864 345.841 173.028 346.018C173.192 346.195 173.318 346.403 173.397 346.631C173.477 346.858 173.508 347.1 173.49 347.34V351.15C173.508 351.39 173.477 351.632 173.397 351.859C173.318 352.087 173.192 352.295 173.028 352.472C172.864 352.649 172.666 352.79 172.445 352.886C172.224 352.982 171.986 353.032 171.745 353.032C171.504 353.032 171.266 352.982 171.045 352.886C170.824 352.79 170.625 352.649 170.462 352.472C170.298 352.295 170.172 352.087 170.093 351.859C170.013 351.632 169.982 351.39 170 351.15V347.34ZM171.15 351.23C171.15 351.75 171.38 351.95 171.74 351.95C172.1 351.95 172.34 351.75 172.34 351.23V347.23C172.34 346.71 172.11 346.51 171.74 346.51C171.37 346.51 171.15 346.71 171.15 347.23V351.23Z" fill="#263238"/>
<path d="M170.76 357C171.049 357.036 171.34 356.961 171.576 356.79C171.812 356.619 171.974 356.366 172.03 356.08H172.8V363.41H171.65V357.8H170.76V357Z" fill="#263238"/>
<path d="M170 368.29C169.982 368.05 170.013 367.808 170.093 367.581C170.172 367.353 170.298 367.145 170.462 366.968C170.625 366.791 170.824 366.65 171.045 366.554C171.266 366.458 171.504 366.408 171.745 366.408C171.986 366.408 172.224 366.458 172.445 366.554C172.666 366.65 172.864 366.791 173.028 366.968C173.192 367.145 173.318 367.353 173.397 367.581C173.477 367.808 173.508 368.05 173.49 368.29V372.1C173.508 372.34 173.477 372.582 173.397 372.809C173.318 373.037 173.192 373.245 173.028 373.422C172.864 373.599 172.666 373.74 172.445 373.836C172.224 373.932 171.986 373.982 171.745 373.982C171.504 373.982 171.266 373.932 171.045 373.836C170.824 373.74 170.625 373.599 170.462 373.422C170.298 373.245 170.172 373.037 170.093 372.809C170.013 372.582 169.982 372.34 170 372.1V368.29ZM171.15 372.17C171.15 372.7 171.38 372.9 171.74 372.9C172.1 372.9 172.34 372.7 172.34 372.17V368.22C172.34 367.69 172.11 367.5 171.74 367.5C171.37 367.5 171.15 367.69 171.15 368.22V372.17Z" fill="#263238"/>
<path d="M171.11 393.12C171.11 393.64 171.34 393.84 171.7 393.84C172.06 393.84 172.3 393.64 172.3 393.12V389.12C172.3 388.6 172.07 388.4 171.7 388.4C171.33 388.4 171.11 388.6 171.11 389.12V393.12Z" fill="#263238"/>
<path d="M170.76 398.87C171.037 398.9 171.315 398.828 171.543 398.668C171.772 398.508 171.934 398.271 172 398H172.77V405.33H171.62V399.74H170.73L170.76 398.87Z" fill="#263238"/>
<path d="M170.76 409.35C171.049 409.386 171.34 409.311 171.576 409.14C171.812 408.969 171.974 408.716 172.03 408.43H172.8V415.75H171.65V410.16H170.76V409.35Z" fill="#263238"/>
<path d="M170 441.6C169.982 441.36 170.013 441.118 170.093 440.891C170.172 440.663 170.298 440.455 170.462 440.278C170.625 440.101 170.824 439.96 171.045 439.864C171.266 439.768 171.504 439.718 171.745 439.718C171.986 439.718 172.224 439.768 172.445 439.864C172.666 439.96 172.864 440.101 173.028 440.278C173.192 440.455 173.318 440.663 173.397 440.891C173.477 441.118 173.508 441.36 173.49 441.6V445.42C173.508 445.66 173.477 445.902 173.397 446.129C173.318 446.357 173.192 446.565 173.028 446.742C172.864 446.919 172.666 447.06 172.445 447.156C172.224 447.252 171.986 447.302 171.745 447.302C171.504 447.302 171.266 447.252 171.045 447.156C170.824 447.06 170.625 446.919 170.462 446.742C170.298 446.565 170.172 446.357 170.093 446.129C170.013 445.902 169.982 445.66 170 445.42V441.6ZM171.15 445.49C171.15 446.01 171.38 446.21 171.74 446.21C172.1 446.21 172.34 446.01 172.34 445.49V441.49C172.34 440.97 172.11 440.77 171.74 440.77C171.37 440.77 171.15 440.97 171.15 441.49V445.49Z" fill="#263238"/>
<path d="M157.5 305.45C157.5 304.986 157.684 304.541 158.013 304.213C158.341 303.884 158.786 303.7 159.25 303.7C159.714 303.7 160.159 303.884 160.487 304.213C160.816 304.541 161 304.986 161 305.45V309.26C161 309.724 160.816 310.169 160.487 310.497C160.159 310.826 159.714 311.01 159.25 311.01C158.786 311.01 158.341 310.826 158.013 310.497C157.684 310.169 157.5 309.724 157.5 309.26V305.45ZM158.65 309.33C158.65 309.86 158.88 310.06 159.25 310.06C159.62 310.06 159.85 309.86 159.85 309.33V305.38C159.85 304.85 159.62 304.65 159.25 304.65C158.88 304.65 158.65 304.85 158.65 305.38V309.33Z" fill="#263238"/>
<path d="M158.31 315.09C158.599 315.126 158.89 315.051 159.126 314.88C159.362 314.709 159.524 314.456 159.58 314.17H160.35V321.49H159.2V315.9H158.31V315.09Z" fill="#263238"/>
<path d="M158.31 325.56C158.599 325.596 158.89 325.521 159.126 325.35C159.362 325.179 159.524 324.926 159.58 324.64H160.35V332H159.2V326.41H158.31V325.56Z" fill="#263238"/>
<path d="M157.5 336.87C157.5 336.406 157.684 335.961 158.013 335.633C158.341 335.304 158.786 335.12 159.25 335.12C159.714 335.12 160.159 335.304 160.487 335.633C160.816 335.961 161 336.406 161 336.87V340.68C161 341.144 160.816 341.589 160.487 341.917C160.159 342.246 159.714 342.43 159.25 342.43C158.786 342.43 158.341 342.246 158.013 341.917C157.684 341.589 157.5 341.144 157.5 340.68V336.87ZM158.65 340.75C158.65 341.28 158.88 341.48 159.25 341.48C159.62 341.48 159.85 341.28 159.85 340.75V336.8C159.85 336.27 159.62 336.07 159.25 336.07C158.88 336.07 158.65 336.27 158.65 336.8V340.75Z" fill="#263238"/>
<path d="M157.5 357.82C157.5 357.356 157.684 356.911 158.013 356.583C158.341 356.254 158.786 356.07 159.25 356.07C159.714 356.07 160.159 356.254 160.487 356.583C160.816 356.911 161 357.356 161 357.82V361.63C161 362.094 160.816 362.539 160.487 362.867C160.159 363.196 159.714 363.38 159.25 363.38C158.786 363.38 158.341 363.196 158.013 362.867C157.684 362.539 157.5 362.094 157.5 361.63V357.82ZM158.65 361.7C158.65 362.22 158.88 362.42 159.25 362.42C159.62 362.42 159.85 362.22 159.85 361.7V357.7C159.85 357.18 159.62 356.98 159.25 356.98C158.88 356.98 158.65 357.18 158.65 357.7V361.7Z" fill="#263238"/>
<path d="M157.5 368.29C157.5 367.826 157.684 367.381 158.013 367.053C158.341 366.724 158.786 366.54 159.25 366.54C159.714 366.54 160.159 366.724 160.487 367.053C160.816 367.381 161 367.826 161 368.29V372.1C161 372.564 160.816 373.009 160.487 373.337C160.159 373.666 159.714 373.85 159.25 373.85C158.786 373.85 158.341 373.666 158.013 373.337C157.684 373.009 157.5 372.564 157.5 372.1V368.29ZM158.65 372.17C158.65 372.7 158.88 372.9 159.25 372.9C159.62 372.9 159.85 372.7 159.85 372.17V368.22C159.85 367.69 159.62 367.5 159.25 367.5C158.88 367.5 158.65 367.69 158.65 368.22V372.17Z" fill="#263238"/>
<path d="M158.31 377.93C158.599 377.966 158.89 377.891 159.126 377.72C159.362 377.549 159.524 377.296 159.58 377.01H160.35V384.33H159.2V378.74H158.31V377.93Z" fill="#263238"/>
<path d="M157.5 389.24C157.5 388.776 157.684 388.331 158.013 388.003C158.341 387.674 158.786 387.49 159.25 387.49C159.714 387.49 160.159 387.674 160.487 388.003C160.816 388.331 161 388.776 161 389.24V393.05C161 393.514 160.816 393.959 160.487 394.287C160.159 394.616 159.714 394.8 159.25 394.8C158.786 394.8 158.341 394.616 158.013 394.287C157.684 393.959 157.5 393.514 157.5 393.05V389.24ZM158.65 393.12C158.65 393.64 158.88 393.84 159.25 393.84C159.62 393.84 159.85 393.64 159.85 393.12V389.12C159.85 388.6 159.62 388.4 159.25 388.4C158.88 388.4 158.65 388.6 158.65 389.12V393.12Z" fill="#263238"/>
<path d="M158.31 398.87C158.599 398.906 158.89 398.831 159.126 398.66C159.362 398.489 159.524 398.236 159.58 397.95H160.35V405.28H159.2V399.69H158.31V398.87Z" fill="#263238"/>
<path d="M151.28 284.5C151.262 284.26 151.293 284.018 151.373 283.791C151.452 283.563 151.578 283.355 151.742 283.178C151.905 283.001 152.104 282.86 152.325 282.764C152.546 282.668 152.784 282.618 153.025 282.618C153.266 282.618 153.504 282.668 153.725 282.764C153.946 282.86 154.144 283.001 154.308 283.178C154.472 283.355 154.598 283.563 154.677 283.791C154.757 284.018 154.788 284.26 154.77 284.5V288.31C154.788 288.55 154.757 288.792 154.677 289.019C154.598 289.247 154.472 289.455 154.308 289.632C154.144 289.809 153.946 289.95 153.725 290.046C153.504 290.142 153.266 290.192 153.025 290.192C152.784 290.192 152.546 290.142 152.325 290.046C152.104 289.95 151.905 289.809 151.742 289.632C151.578 289.455 151.452 289.247 151.373 289.019C151.293 288.792 151.262 288.55 151.28 288.31V284.5ZM152.43 288.39C152.43 288.91 152.66 289.11 153.02 289.11C153.38 289.11 153.62 288.91 153.62 288.39V284.39C153.62 283.87 153.39 283.67 153.02 283.67C152.65 283.67 152.43 283.87 152.43 284.39V288.39Z" fill="#263238"/>
<path d="M152.08 304.61C152.369 304.646 152.66 304.571 152.896 304.4C153.132 304.229 153.294 303.976 153.35 303.69H154.12V311H153V305.41H152.11L152.08 304.61Z" fill="#263238"/>
<path d="M152.08 325.56C152.369 325.596 152.66 325.521 152.896 325.35C153.132 325.179 153.294 324.926 153.35 324.64H154.12V332H153V326.41H152.11L152.08 325.56Z" fill="#263238"/>
<path d="M151.28 336.87C151.262 336.63 151.293 336.388 151.373 336.161C151.452 335.933 151.578 335.725 151.742 335.548C151.905 335.371 152.104 335.23 152.325 335.134C152.546 335.038 152.784 334.988 153.025 334.988C153.266 334.988 153.504 335.038 153.725 335.134C153.946 335.23 154.144 335.371 154.308 335.548C154.472 335.725 154.598 335.933 154.677 336.161C154.757 336.388 154.788 336.63 154.77 336.87V340.68C154.788 340.92 154.757 341.162 154.677 341.389C154.598 341.617 154.472 341.825 154.308 342.002C154.144 342.179 153.946 342.32 153.725 342.416C153.504 342.512 153.266 342.562 153.025 342.562C152.784 342.562 152.546 342.512 152.325 342.416C152.104 342.32 151.905 342.179 151.742 342.002C151.578 341.825 151.452 341.617 151.373 341.389C151.293 341.162 151.262 340.92 151.28 340.68V336.87ZM152.43 340.76C152.43 341.28 152.66 341.48 153.02 341.48C153.38 341.48 153.62 341.28 153.62 340.76V336.76C153.62 336.23 153.39 336.04 153.02 336.04C152.65 336.04 152.43 336.23 152.43 336.76V340.76Z" fill="#263238"/>
<path d="M152.08 367.45C152.369 367.486 152.66 367.411 152.896 367.24C153.132 367.069 153.294 366.816 153.35 366.53H154.12V373.86H153V368.27H152.11L152.08 367.45Z" fill="#263238"/>
<path d="M152.08 377.93C152.369 377.966 152.66 377.891 152.896 377.72C153.132 377.549 153.294 377.296 153.35 377.01H154.12V384.33H153V378.74H152.11L152.08 377.93Z" fill="#263238"/>
<path d="M152.08 388.4C152.369 388.436 152.66 388.361 152.896 388.19C153.132 388.019 153.294 387.766 153.35 387.48H154.12V394.81H153V389.22H152.11L152.08 388.4Z" fill="#263238"/>
<path d="M347.11 32.61C347.11 32.1459 347.294 31.7007 347.623 31.3725C347.951 31.0444 348.396 30.86 348.86 30.86C349.324 30.86 349.769 31.0444 350.097 31.3725C350.426 31.7007 350.61 32.1459 350.61 32.61V36.42C350.61 36.8841 350.426 37.3292 350.097 37.6574C349.769 37.9856 349.324 38.17 348.86 38.17C348.396 38.17 347.951 37.9856 347.623 37.6574C347.294 37.3292 347.11 36.8841 347.11 36.42V32.61ZM348.26 36.49C348.26 37.01 348.49 37.21 348.86 37.21C349.23 37.21 349.45 37.01 349.45 36.49V32.49C349.45 31.97 349.22 31.77 348.86 31.77C348.5 31.77 348.26 31.97 348.26 32.49V36.49Z" fill="#263238"/>
<path d="M347.11 43.08C347.11 42.6158 347.294 42.1707 347.623 41.8425C347.951 41.5143 348.396 41.33 348.86 41.33C349.324 41.33 349.769 41.5143 350.097 41.8425C350.426 42.1707 350.61 42.6158 350.61 43.08V46.89C350.61 47.3541 350.426 47.7992 350.097 48.1274C349.769 48.4556 349.324 48.64 348.86 48.64C348.396 48.64 347.951 48.4556 347.623 48.1274C347.294 47.7992 347.11 47.3541 347.11 46.89V43.08ZM348.26 47C348.26 47.53 348.49 47.73 348.86 47.73C349.23 47.73 349.45 47.53 349.45 47V43C349.45 42.47 349.22 42.27 348.86 42.27C348.5 42.27 348.26 42.47 348.26 43V47Z" fill="#263238"/>
<path d="M347.92 73.66C348.208 73.6955 348.498 73.6202 348.732 73.4493C348.966 73.2784 349.126 73.0248 349.18 72.74H350V80.07H348.85V74.48H347.96L347.92 73.66Z" fill="#263238"/>
<path d="M347.92 84.14C348.208 84.1755 348.498 84.1002 348.732 83.9293C348.966 83.7584 349.126 83.5047 349.18 83.22H350V90.54H348.85V85H347.96L347.92 84.14Z" fill="#263238"/>
<path d="M347.11 116.39C347.11 115.926 347.294 115.481 347.623 115.153C347.951 114.824 348.396 114.64 348.86 114.64C349.324 114.64 349.769 114.824 350.097 115.153C350.426 115.481 350.61 115.926 350.61 116.39V120.2C350.61 120.664 350.426 121.109 350.097 121.437C349.769 121.766 349.324 121.95 348.86 121.95C348.396 121.95 347.951 121.766 347.623 121.437C347.294 121.109 347.11 120.664 347.11 120.2V116.39ZM348.26 120.28C348.26 120.8 348.49 121 348.86 121C349.23 121 349.45 120.8 349.45 120.28V116.28C349.45 115.76 349.22 115.56 348.86 115.56C348.5 115.56 348.26 115.76 348.26 116.28V120.28Z" fill="#263238"/>
<path d="M347.11 137.34C347.11 136.876 347.294 136.431 347.623 136.103C347.951 135.774 348.396 135.59 348.86 135.59C349.324 135.59 349.769 135.774 350.097 136.103C350.426 136.431 350.61 136.876 350.61 137.34V141.15C350.61 141.614 350.426 142.059 350.097 142.387C349.769 142.716 349.324 142.9 348.86 142.9C348.396 142.9 347.951 142.716 347.623 142.387C347.294 142.059 347.11 141.614 347.11 141.15V137.34ZM348.26 141.22C348.26 141.75 348.49 141.95 348.86 141.95C349.23 141.95 349.45 141.75 349.45 141.22V137.27C349.45 136.74 349.22 136.55 348.86 136.55C348.5 136.55 348.26 136.74 348.26 137.27V141.22Z" fill="#263238"/>
<path d="M328.43 53.55C328.43 53.0859 328.614 52.6407 328.943 52.3126C329.271 51.9844 329.716 51.8 330.18 51.8C330.644 51.8 331.089 51.9844 331.417 52.3126C331.746 52.6407 331.93 53.0859 331.93 53.55V57.36C331.93 57.8241 331.746 58.2692 331.417 58.5974C331.089 58.9256 330.644 59.11 330.18 59.11C329.716 59.11 329.271 58.9256 328.943 58.5974C328.614 58.2692 328.43 57.8241 328.43 57.36V53.55ZM329.58 57.44C329.58 57.96 329.81 58.16 330.18 58.16C330.55 58.16 330.77 57.96 330.77 57.44V53.44C330.77 52.92 330.54 52.72 330.18 52.72C329.82 52.72 329.58 52.92 329.58 53.44V57.44Z" fill="#263238"/>
<path d="M328.43 64C328.43 63.5359 328.614 63.0908 328.943 62.7626C329.271 62.4344 329.716 62.25 330.18 62.25C330.644 62.25 331.089 62.4344 331.417 62.7626C331.746 63.0908 331.93 63.5359 331.93 64V67.81C331.93 68.2741 331.746 68.7193 331.417 69.0474C331.089 69.3756 330.644 69.56 330.18 69.56C329.716 69.56 329.271 69.3756 328.943 69.0474C328.614 68.7193 328.43 68.2741 328.43 67.81V64ZM329.58 67.88C329.58 68.4 329.81 68.6 330.18 68.6C330.55 68.6 330.77 68.4 330.77 67.88V64C330.77 63.48 330.54 63.28 330.18 63.28C329.82 63.28 329.58 63.48 329.58 64V67.88Z" fill="#263238"/>
<path d="M328.43 74.5C328.43 74.0359 328.614 73.5908 328.943 73.2626C329.271 72.9344 329.716 72.75 330.18 72.75C330.644 72.75 331.089 72.9344 331.417 73.2626C331.746 73.5908 331.93 74.0359 331.93 74.5V78.31C331.93 78.7741 331.746 79.2193 331.417 79.5474C331.089 79.8756 330.644 80.06 330.18 80.06C329.716 80.06 329.271 79.8756 328.943 79.5474C328.614 79.2193 328.43 78.7741 328.43 78.31V74.5ZM329.58 78.38C329.58 78.91 329.81 79.11 330.18 79.11C330.55 79.11 330.77 78.91 330.77 78.38V74.43C330.77 73.9 330.54 73.7 330.18 73.7C329.82 73.7 329.58 73.9 329.58 74.43V78.38Z" fill="#263238"/>
<path d="M329.24 84.14C329.528 84.1755 329.818 84.1002 330.052 83.9293C330.286 83.7584 330.446 83.5047 330.5 83.22H331.28V90.54H330.13V85H329.24V84.14Z" fill="#263238"/>
<path d="M329.24 105.08C329.528 105.116 329.818 105.04 330.052 104.869C330.286 104.698 330.446 104.445 330.5 104.16H331.28V111.49H330.13V105.9H329.24V105.08Z" fill="#263238"/>
<path d="M329.24 115.56C329.528 115.596 329.818 115.52 330.052 115.349C330.286 115.178 330.446 114.925 330.5 114.64H331.28V122H330.13V116.41H329.24V115.56Z" fill="#263238"/>
<path d="M328.43 137.34C328.43 136.876 328.614 136.431 328.943 136.103C329.271 135.774 329.716 135.59 330.18 135.59C330.644 135.59 331.089 135.774 331.417 136.103C331.746 136.431 331.93 136.876 331.93 137.34V141.15C331.93 141.614 331.746 142.059 331.417 142.387C331.089 142.716 330.644 142.9 330.18 142.9C329.716 142.9 329.271 142.716 328.943 142.387C328.614 142.059 328.43 141.614 328.43 141.15V137.34ZM329.58 141.22C329.58 141.75 329.81 141.95 330.18 141.95C330.55 141.95 330.77 141.75 330.77 141.22V137.27C330.77 136.74 330.54 136.55 330.18 136.55C329.82 136.55 329.58 136.74 329.58 137.27V141.22Z" fill="#263238"/>
<path d="M329.24 147C329.528 147.035 329.818 146.96 330.052 146.789C330.286 146.618 330.446 146.365 330.5 146.08H331.28V153.4H330.13V147.81H329.24V147Z" fill="#263238"/>
<path d="M340.88 32.61C340.88 32.1459 341.064 31.7007 341.393 31.3725C341.721 31.0444 342.166 30.86 342.63 30.86C343.094 30.86 343.539 31.0444 343.867 31.3725C344.196 31.7007 344.38 32.1459 344.38 32.61V36.42C344.38 36.8841 344.196 37.3292 343.867 37.6574C343.539 37.9856 343.094 38.17 342.63 38.17C342.166 38.17 341.721 37.9856 341.393 37.6574C341.064 37.3292 340.88 36.8841 340.88 36.42V32.61ZM342 36.49C342 37.01 342.23 37.21 342.59 37.21C342.95 37.21 343.19 37.01 343.19 36.49V32.49C343.19 31.97 342.96 31.77 342.59 31.77C342.22 31.77 342 31.97 342 32.49V36.49Z" fill="#263238"/>
<path d="M341.69 42.24C341.979 42.2758 342.27 42.2008 342.506 42.0301C342.742 41.8593 342.904 41.6056 342.96 41.32H343.73V48.65H342.58V43.06H341.69V42.24Z" fill="#263238"/>
<path d="M340.88 53.55C340.88 53.0859 341.064 52.6407 341.393 52.3126C341.721 51.9844 342.166 51.8 342.63 51.8C343.094 51.8 343.539 51.9844 343.867 52.3126C344.196 52.6407 344.38 53.0859 344.38 53.55V57.36C344.38 57.8241 344.196 58.2692 343.867 58.5974C343.539 58.9256 343.094 59.11 342.63 59.11C342.166 59.11 341.721 58.9256 341.393 58.5974C341.064 58.2692 340.88 57.8241 340.88 57.36V53.55ZM342 57.44C342 57.96 342.23 58.16 342.59 58.16C342.95 58.16 343.19 57.96 343.19 57.44V53.44C343.19 52.92 342.96 52.72 342.59 52.72C342.22 52.72 342 52.92 342 53.44V57.44Z" fill="#263238"/>
<path d="M341.69 63.19C341.979 63.2258 342.27 63.1507 342.506 62.98C342.742 62.8093 342.904 62.5555 342.96 62.27H343.73V69.6H342.58V64H341.69V63.19Z" fill="#263238"/>
<path d="M341.69 73.66C341.979 73.6958 342.27 73.6208 342.506 73.45C342.742 73.2793 342.904 73.0256 342.96 72.74H343.73V80.07H342.58V74.48H341.69V73.66Z" fill="#263238"/>
<path d="M341.69 84.14C341.979 84.1758 342.27 84.1008 342.506 83.93C342.742 83.7593 342.904 83.5056 342.96 83.22H343.73V90.54H342.58V85H341.69V84.14Z" fill="#263238"/>
<path d="M340.88 95.45C340.88 94.9858 341.064 94.5407 341.393 94.2125C341.721 93.8843 342.166 93.7 342.63 93.7C343.094 93.7 343.539 93.8843 343.867 94.2125C344.196 94.5407 344.38 94.9858 344.38 95.45V99.26C344.38 99.7241 344.196 100.169 343.867 100.497C343.539 100.826 343.094 101.01 342.63 101.01C342.166 101.01 341.721 100.826 341.393 100.497C341.064 100.169 340.88 99.7241 340.88 99.26V95.45ZM342 99.33C342 99.85 342.23 100.05 342.59 100.05C342.95 100.05 343.19 99.85 343.19 99.33V95.33C343.19 94.81 342.96 94.61 342.59 94.61C342.22 94.61 342 94.81 342 95.33V99.33Z" fill="#263238"/>
<path d="M340.88 105.92C340.88 105.456 341.064 105.011 341.393 104.683C341.721 104.354 342.166 104.17 342.63 104.17C343.094 104.17 343.539 104.354 343.867 104.683C344.196 105.011 344.38 105.456 344.38 105.92V109.73C344.38 110.194 344.196 110.639 343.867 110.967C343.539 111.296 343.094 111.48 342.63 111.48C342.166 111.48 341.721 111.296 341.393 110.967C341.064 110.639 340.88 110.194 340.88 109.73V105.92ZM342 109.8C342 110.33 342.23 110.53 342.59 110.53C342.95 110.53 343.19 110.33 343.19 109.8V105.8C343.19 105.27 342.96 105.08 342.59 105.08C342.22 105.08 342 105.27 342 105.8V109.8Z" fill="#263238"/>
<path d="M335.46 42.24C335.749 42.2758 336.04 42.2008 336.276 42.0301C336.512 41.8593 336.674 41.6056 336.73 41.32H337.5V48.65H336.35V43.06H335.46V42.24Z" fill="#263238"/>
<path d="M334.66 53.55C334.642 53.3097 334.673 53.0683 334.753 52.8408C334.832 52.6133 334.958 52.4047 335.122 52.228C335.285 52.0513 335.484 51.9103 335.705 51.8139C335.926 51.7175 336.164 51.6678 336.405 51.6678C336.646 51.6678 336.884 51.7175 337.105 51.8139C337.326 51.9103 337.525 52.0513 337.688 52.228C337.852 52.4047 337.978 52.6133 338.057 52.8408C338.137 53.0683 338.168 53.3097 338.15 53.55V57.36C338.168 57.6002 338.137 57.8417 338.057 58.0692C337.978 58.2966 337.852 58.5053 337.688 58.682C337.525 58.8587 337.326 58.9996 337.105 59.096C336.884 59.1924 336.646 59.2422 336.405 59.2422C336.164 59.2422 335.926 59.1924 335.705 59.096C335.484 58.9996 335.285 58.8587 335.122 58.682C334.958 58.5053 334.832 58.2966 334.753 58.0692C334.673 57.8417 334.642 57.6002 334.66 57.36V53.55ZM335.81 57.44C335.81 57.96 336.04 58.16 336.4 58.16C336.76 58.16 337 57.96 337 57.44V53.44C337 52.92 336.77 52.72 336.4 52.72C336.03 52.72 335.81 52.92 335.81 53.44V57.44Z" fill="#263238"/>
<path d="M334.66 64C334.642 63.7597 334.673 63.5183 334.753 63.2908C334.832 63.0633 334.958 62.8547 335.122 62.678C335.285 62.5013 335.484 62.3604 335.705 62.264C335.926 62.1676 336.164 62.1178 336.405 62.1178C336.646 62.1178 336.884 62.1676 337.105 62.264C337.326 62.3604 337.525 62.5013 337.688 62.678C337.852 62.8547 337.978 63.0633 338.057 63.2908C338.137 63.5183 338.168 63.7597 338.15 64V67.81C338.168 68.0503 338.137 68.2917 338.057 68.5192C337.978 68.7467 337.852 68.9553 337.688 69.132C337.525 69.3087 337.326 69.4496 337.105 69.546C336.884 69.6424 336.646 69.6922 336.405 69.6922C336.164 69.6922 335.926 69.6424 335.705 69.546C335.484 69.4496 335.285 69.3087 335.122 69.132C334.958 68.9553 334.832 68.7467 334.753 68.5192C334.673 68.2917 334.642 68.0503 334.66 67.81V64ZM335.81 67.88C335.81 68.4 336.04 68.6 336.4 68.6C336.76 68.6 337 68.4 337 67.88V64C337 63.48 336.77 63.28 336.4 63.28C336.03 63.28 335.81 63.48 335.81 64V67.88Z" fill="#263238"/>
<path d="M335.46 73.66C335.749 73.6958 336.04 73.6208 336.276 73.45C336.512 73.2793 336.674 73.0256 336.73 72.74H337.5V80.07H336.35V74.48H335.46V73.66Z" fill="#263238"/>
<path d="M335.46 94.61C335.749 94.6458 336.04 94.5708 336.276 94.4C336.512 94.2293 336.674 93.9756 336.73 93.69H337.5V101H336.35V95.43H335.46V94.61Z" fill="#263238"/>
<path d="M335.46 105.08C335.749 105.116 336.04 105.041 336.276 104.87C336.512 104.699 336.674 104.446 336.73 104.16H337.5V111.49H336.35V105.9H335.46V105.08Z" fill="#263238"/>
<path d="M335.46 115.56C335.749 115.596 336.04 115.521 336.276 115.35C336.512 115.179 336.674 114.926 336.73 114.64H337.5V122H336.35V116.41H335.46V115.56Z" fill="#263238"/>
<path d="M54 148.57C54 148.106 54.1844 147.661 54.5126 147.333C54.8408 147.004 55.2859 146.82 55.75 146.82C56.2141 146.82 56.6592 147.004 56.9874 147.333C57.3156 147.661 57.5 148.106 57.5 148.57V152.39C57.5 152.854 57.3156 153.299 56.9874 153.627C56.6592 153.956 56.2141 154.14 55.75 154.14C55.2859 154.14 54.8408 153.956 54.5126 153.627C54.1844 153.299 54 152.854 54 152.39V148.57ZM55.15 152.46C55.15 152.98 55.38 153.18 55.75 153.18C56.12 153.18 56.34 152.98 56.34 152.46V148.46C56.34 147.94 56.11 147.74 55.75 147.74C55.39 147.74 55.15 147.94 55.15 148.46V152.46Z" fill="#263238"/>
<path d="M54 159.05C54 158.586 54.1844 158.141 54.5126 157.813C54.8408 157.484 55.2859 157.3 55.75 157.3C56.2141 157.3 56.6592 157.484 56.9874 157.813C57.3156 158.141 57.5 158.586 57.5 159.05V162.86C57.5 163.324 57.3156 163.769 56.9874 164.097C56.6592 164.426 56.2141 164.61 55.75 164.61C55.2859 164.61 54.8408 164.426 54.5126 164.097C54.1844 163.769 54 163.324 54 162.86V159.05ZM55.15 162.93C55.15 163.46 55.38 163.65 55.75 163.65C56.12 163.65 56.34 163.46 56.34 162.93V158.93C56.34 158.41 56.11 158.21 55.75 158.21C55.39 158.21 55.15 158.41 55.15 158.93V162.93Z" fill="#263238"/>
<path d="M54.8 168.68C55.0876 168.716 55.378 168.64 55.612 168.469C55.8461 168.298 56.0063 168.045 56.06 167.76H56.84V175.09H55.69V169.5H54.8V168.68Z" fill="#263238"/>
<path d="M54 180C54 179.536 54.1844 179.091 54.5126 178.763C54.8408 178.434 55.2859 178.25 55.75 178.25C56.2141 178.25 56.6592 178.434 56.9874 178.763C57.3156 179.091 57.5 179.536 57.5 180V183.82C57.5 184.284 57.3156 184.729 56.9874 185.057C56.6592 185.386 56.2141 185.57 55.75 185.57C55.2859 185.57 54.8408 185.386 54.5126 185.057C54.1844 184.729 54 184.284 54 183.82V180ZM55.15 183.89C55.15 184.41 55.38 184.61 55.75 184.61C56.12 184.61 56.34 184.41 56.34 183.89V179.89C56.34 179.37 56.11 179.17 55.75 179.17C55.39 179.17 55.15 179.37 55.15 179.89V183.89Z" fill="#263238"/>
<path d="M54.8 189.63C55.0876 189.666 55.378 189.59 55.612 189.419C55.8461 189.248 56.0063 188.995 56.06 188.71H56.84V196H55.69V190.41H54.8V189.63Z" fill="#263238"/>
<path d="M54 200.94C54 200.476 54.1844 200.031 54.5126 199.703C54.8408 199.374 55.2859 199.19 55.75 199.19C56.2141 199.19 56.6592 199.374 56.9874 199.703C57.3156 200.031 57.5 200.476 57.5 200.94V204.75C57.5 205.214 57.3156 205.659 56.9874 205.987C56.6592 206.316 56.2141 206.5 55.75 206.5C55.2859 206.5 54.8408 206.316 54.5126 205.987C54.1844 205.659 54 205.214 54 204.75V200.94ZM55.15 204.83C55.15 205.35 55.38 205.55 55.75 205.55C56.12 205.55 56.34 205.35 56.34 204.83V200.83C56.34 200.3 56.11 200.11 55.75 200.11C55.39 200.11 55.15 200.3 55.15 200.83V204.83Z" fill="#263238"/>
<path d="M54.8 210.58C55.0876 210.616 55.378 210.54 55.612 210.369C55.8461 210.198 56.0063 209.945 56.06 209.66H56.84V217H55.69V211.41H54.8V210.58Z" fill="#263238"/>
<path d="M54 221.89C54 221.426 54.1844 220.981 54.5126 220.653C54.8408 220.324 55.2859 220.14 55.75 220.14C56.2141 220.14 56.6592 220.324 56.9874 220.653C57.3156 220.981 57.5 221.426 57.5 221.89V225.7C57.5 226.164 57.3156 226.609 56.9874 226.937C56.6592 227.266 56.2141 227.45 55.75 227.45C55.2859 227.45 54.8408 227.266 54.5126 226.937C54.1844 226.609 54 226.164 54 225.7V221.89ZM55.15 225.77C55.15 226.3 55.38 226.49 55.75 226.49C56.12 226.49 56.34 226.3 56.34 225.77V221.77C56.34 221.25 56.11 221.05 55.75 221.05C55.39 221.05 55.15 221.25 55.15 221.77V225.77Z" fill="#263238"/>
<path d="M54 232.36C54 231.896 54.1844 231.451 54.5126 231.123C54.8408 230.794 55.2859 230.61 55.75 230.61C56.2141 230.61 56.6592 230.794 56.9874 231.123C57.3156 231.451 57.5 231.896 57.5 232.36V236.17C57.5 236.634 57.3156 237.079 56.9874 237.407C56.6592 237.736 56.2141 237.92 55.75 237.92C55.2859 237.92 54.8408 237.736 54.5126 237.407C54.1844 237.079 54 236.634 54 236.17V232.36ZM55.15 236.25C55.15 236.77 55.38 236.97 55.75 236.97C56.12 236.97 56.34 236.77 56.34 236.25V232.25C56.34 231.73 56.11 231.53 55.75 231.53C55.39 231.53 55.15 231.73 55.15 232.25V236.25Z" fill="#263238"/>
<path d="M54 242.84C54 242.376 54.1844 241.931 54.5126 241.603C54.8408 241.274 55.2859 241.09 55.75 241.09C56.2141 241.09 56.6592 241.274 56.9874 241.603C57.3156 241.931 57.5 242.376 57.5 242.84V246.65C57.5 247.114 57.3156 247.559 56.9874 247.887C56.6592 248.216 56.2141 248.4 55.75 248.4C55.2859 248.4 54.8408 248.216 54.5126 247.887C54.1844 247.559 54 247.114 54 246.65V242.84ZM55.15 246.72C55.15 247.24 55.38 247.44 55.75 247.44C56.12 247.44 56.34 247.24 56.34 246.72V242.72C56.34 242.2 56.11 242 55.75 242C55.39 242 55.15 242.2 55.15 242.72V246.72Z" fill="#263238"/>
<path d="M54.8 262.94C55.088 262.978 55.3796 262.904 55.6142 262.732C55.8489 262.561 56.0085 262.306 56.06 262.02H56.84V269.35H55.69V263.76H54.8V262.94Z" fill="#263238"/>
<path d="M61 189.63C61.2888 189.666 61.5805 189.591 61.8161 189.42C62.0518 189.249 62.214 188.996 62.27 188.71H63.04V196H61.91V190.41H61V189.63Z" fill="#263238"/>
<path d="M61 200.1C61.2888 200.136 61.5805 200.061 61.8161 199.89C62.0518 199.719 62.214 199.466 62.27 199.18H63.04V206.51H61.91V200.92H61V200.1Z" fill="#263238"/>
<path d="M60.22 211.41C60.2018 211.17 60.2334 210.928 60.3128 210.701C60.3923 210.473 60.5179 210.265 60.6817 210.088C60.8455 209.911 61.044 209.77 61.2649 209.674C61.4857 209.578 61.724 209.528 61.965 209.528C62.2059 209.528 62.4443 209.578 62.6651 209.674C62.886 209.77 63.0845 209.911 63.2483 210.088C63.4121 210.265 63.5377 210.473 63.6171 210.701C63.6966 210.928 63.7282 211.17 63.71 211.41V215.23C63.7282 215.47 63.6966 215.712 63.6171 215.939C63.5377 216.167 63.4121 216.375 63.2483 216.552C63.0845 216.729 62.886 216.87 62.6651 216.966C62.4443 217.062 62.2059 217.112 61.965 217.112C61.724 217.112 61.4857 217.062 61.2649 216.966C61.044 216.87 60.8455 216.729 60.6817 216.552C60.5179 216.375 60.3923 216.167 60.3128 215.939C60.2334 215.712 60.2018 215.47 60.22 215.23V211.41ZM61.37 215.3C61.37 215.82 61.6 216.02 61.96 216.02C62.32 216.02 62.56 215.82 62.56 215.3V211.3C62.56 210.78 62.33 210.58 61.96 210.58C61.59 210.58 61.37 210.78 61.37 211.3V215.3Z" fill="#263238"/>
<path d="M60.22 221.89C60.2018 221.65 60.2334 221.408 60.3128 221.181C60.3923 220.953 60.5179 220.745 60.6817 220.568C60.8455 220.391 61.044 220.25 61.2649 220.154C61.4857 220.058 61.724 220.008 61.965 220.008C62.2059 220.008 62.4443 220.058 62.6651 220.154C62.886 220.25 63.0845 220.391 63.2483 220.568C63.4121 220.745 63.5377 220.953 63.6171 221.181C63.6966 221.408 63.7282 221.65 63.71 221.89V225.7C63.7282 225.94 63.6966 226.182 63.6171 226.409C63.5377 226.637 63.4121 226.845 63.2483 227.022C63.0845 227.199 62.886 227.34 62.6651 227.436C62.4443 227.532 62.2059 227.582 61.965 227.582C61.724 227.582 61.4857 227.532 61.2649 227.436C61.044 227.34 60.8455 227.199 60.6817 227.022C60.5179 226.845 60.3923 226.637 60.3128 226.409C60.2334 226.182 60.2018 225.94 60.22 225.7V221.89ZM61.37 225.77C61.37 226.3 61.6 226.49 61.96 226.49C62.32 226.49 62.56 226.3 62.56 225.77V221.77C62.56 221.25 62.33 221.05 61.96 221.05C61.59 221.05 61.37 221.25 61.37 221.77V225.77Z" fill="#263238"/>
<path d="M61 231.52C61.2892 231.558 61.5821 231.484 61.8183 231.313C62.0546 231.142 62.2162 230.887 62.27 230.6H63.04V237.93H61.91V232.34H61V231.52Z" fill="#263238"/>
<path d="M61 252.47C61.2888 252.506 61.5805 252.431 61.8161 252.26C62.0518 252.089 62.214 251.836 62.27 251.55H63.04V258.88H61.91V253.29H61V252.47Z" fill="#263238"/>
<path d="M47.76 180C47.76 179.536 47.9444 179.091 48.2726 178.763C48.6008 178.434 49.0459 178.25 49.51 178.25C49.9741 178.25 50.4192 178.434 50.7474 178.763C51.0756 179.091 51.26 179.536 51.26 180V183.82C51.26 184.284 51.0756 184.729 50.7474 185.057C50.4192 185.386 49.9741 185.57 49.51 185.57C49.0459 185.57 48.6008 185.386 48.2726 185.057C47.9444 184.729 47.76 184.284 47.76 183.82V180ZM48.92 183.89C48.92 184.41 49.15 184.61 49.51 184.61C49.87 184.61 50.11 184.41 50.11 183.89V179.89C50.11 179.37 49.88 179.17 49.51 179.17C49.14 179.17 48.92 179.37 48.92 179.89V183.89Z" fill="#263238"/>
<path d="M48.57 189.63C48.8588 189.666 49.1505 189.591 49.3861 189.42C49.6218 189.249 49.784 188.996 49.84 188.71H50.61V196H49.46V190.41H48.57V189.63Z" fill="#263238"/>
<path d="M48.57 200.1C48.8588 200.136 49.1505 200.061 49.3861 199.89C49.6218 199.719 49.784 199.466 49.84 199.18H50.61V206.51H49.46V200.92H48.57V200.1Z" fill="#263238"/>
<path d="M47.76 211.41C47.76 210.946 47.9444 210.501 48.2726 210.173C48.6008 209.844 49.0459 209.66 49.51 209.66C49.9741 209.66 50.4192 209.844 50.7474 210.173C51.0756 210.501 51.26 210.946 51.26 211.41V215.23C51.26 215.694 51.0756 216.139 50.7474 216.467C50.4192 216.796 49.9741 216.98 49.51 216.98C49.0459 216.98 48.6008 216.796 48.2726 216.467C47.9444 216.139 47.76 215.694 47.76 215.23V211.41ZM48.92 215.3C48.92 215.82 49.15 216.02 49.51 216.02C49.87 216.02 50.11 215.82 50.11 215.3V211.3C50.11 210.78 49.88 210.58 49.51 210.58C49.14 210.58 48.92 210.78 48.92 211.3V215.3Z" fill="#263238"/>
<path d="M48.57 221.05C48.8588 221.086 49.1505 221.011 49.3861 220.84C49.6218 220.669 49.784 220.416 49.84 220.13H50.61V227.46H49.46V221.87H48.57V221.05Z" fill="#263238"/>
<path d="M47.76 232.36C47.76 231.896 47.9444 231.451 48.2726 231.123C48.6008 230.794 49.0459 230.61 49.51 230.61C49.9741 230.61 50.4192 230.794 50.7474 231.123C51.0756 231.451 51.26 231.896 51.26 232.36V236.17C51.26 236.634 51.0756 237.079 50.7474 237.407C50.4192 237.736 49.9741 237.92 49.51 237.92C49.0459 237.92 48.6008 237.736 48.2726 237.407C47.9444 237.079 47.76 236.634 47.76 236.17V232.36ZM48.92 236.25C48.92 236.77 49.15 236.97 49.51 236.97C49.87 236.97 50.11 236.77 50.11 236.25V232.25C50.11 231.73 49.88 231.53 49.51 231.53C49.14 231.53 48.92 231.73 48.92 232.25V236.25Z" fill="#263238"/>
<path d="M41.54 159.05C41.5218 158.81 41.5534 158.568 41.6329 158.341C41.7123 158.113 41.8379 157.905 42.0017 157.728C42.1655 157.551 42.364 157.41 42.5849 157.314C42.8057 157.218 43.044 157.168 43.285 157.168C43.526 157.168 43.7643 157.218 43.9851 157.314C44.206 157.41 44.4045 157.551 44.5683 157.728C44.7321 157.905 44.8577 158.113 44.9371 158.341C45.0166 158.568 45.0482 158.81 45.03 159.05V162.86C45.0482 163.1 45.0166 163.342 44.9371 163.569C44.8577 163.797 44.7321 164.005 44.5683 164.182C44.4045 164.359 44.206 164.5 43.9851 164.596C43.7643 164.692 43.526 164.742 43.285 164.742C43.044 164.742 42.8057 164.692 42.5849 164.596C42.364 164.5 42.1655 164.359 42.0017 164.182C41.8379 164.005 41.7123 163.797 41.6329 163.569C41.5534 163.342 41.5218 163.1 41.54 162.86V159.05ZM42.69 162.93C42.69 163.46 42.92 163.65 43.28 163.65C43.64 163.65 43.88 163.46 43.88 162.93V158.93C43.88 158.4 43.65 158.2 43.28 158.2C42.91 158.2 42.69 158.4 42.69 158.93V162.93Z" fill="#263238"/>
<path d="M42.34 179.16C42.6288 179.196 42.9205 179.121 43.1561 178.95C43.3918 178.779 43.554 178.526 43.61 178.24H44.38V185.56H43.23V180H42.34V179.16Z" fill="#263238"/>
<path d="M41.54 190.47C41.5218 190.23 41.5534 189.988 41.6329 189.761C41.7123 189.533 41.8379 189.325 42.0017 189.148C42.1655 188.971 42.364 188.83 42.5849 188.734C42.8057 188.638 43.044 188.588 43.285 188.588C43.526 188.588 43.7643 188.638 43.9851 188.734C44.206 188.83 44.4045 188.971 44.5683 189.148C44.7321 189.325 44.8577 189.533 44.9371 189.761C45.0166 189.988 45.0482 190.23 45.03 190.47V194.28C45.0482 194.52 45.0166 194.762 44.9371 194.989C44.8577 195.217 44.7321 195.425 44.5683 195.602C44.4045 195.779 44.206 195.92 43.9851 196.016C43.7643 196.112 43.526 196.162 43.285 196.162C43.044 196.162 42.8057 196.112 42.5849 196.016C42.364 195.92 42.1655 195.779 42.0017 195.602C41.8379 195.425 41.7123 195.217 41.6329 194.989C41.5534 194.762 41.5218 194.52 41.54 194.28V190.47ZM42.69 194.35C42.69 194.88 42.92 195.07 43.28 195.07C43.64 195.07 43.88 194.88 43.88 194.35V190.4C43.88 189.87 43.65 189.67 43.28 189.67C42.91 189.67 42.69 189.87 42.69 190.4V194.35Z" fill="#263238"/>
<path d="M41.54 211.42C41.5218 211.18 41.5534 210.938 41.6329 210.711C41.7123 210.483 41.8379 210.275 42.0017 210.098C42.1655 209.921 42.364 209.78 42.5849 209.684C42.8057 209.588 43.044 209.538 43.285 209.538C43.526 209.538 43.7643 209.588 43.9851 209.684C44.206 209.78 44.4045 209.921 44.5683 210.098C44.7321 210.275 44.8577 210.483 44.9371 210.711C45.0166 210.938 45.0482 211.18 45.03 211.42V215.23C45.0482 215.47 45.0166 215.712 44.9371 215.939C44.8577 216.167 44.7321 216.375 44.5683 216.552C44.4045 216.729 44.206 216.87 43.9851 216.966C43.7643 217.062 43.526 217.112 43.285 217.112C43.044 217.112 42.8057 217.062 42.5849 216.966C42.364 216.87 42.1655 216.729 42.0017 216.552C41.8379 216.375 41.7123 216.167 41.6329 215.939C41.5534 215.712 41.5218 215.47 41.54 215.23V211.42ZM42.69 215.3C42.69 215.82 42.92 216.02 43.28 216.02C43.64 216.02 43.88 215.82 43.88 215.3V211.3C43.88 210.78 43.65 210.58 43.28 210.58C42.91 210.58 42.69 210.78 42.69 211.3V215.3Z" fill="#263238"/>
<path d="M41.54 221.89C41.5218 221.65 41.5534 221.408 41.6329 221.181C41.7123 220.953 41.8379 220.745 42.0017 220.568C42.1655 220.391 42.364 220.25 42.5849 220.154C42.8057 220.058 43.044 220.008 43.285 220.008C43.526 220.008 43.7643 220.058 43.9851 220.154C44.206 220.25 44.4045 220.391 44.5683 220.568C44.7321 220.745 44.8577 220.953 44.9371 221.181C45.0166 221.408 45.0482 221.65 45.03 221.89V225.7C45.0482 225.94 45.0166 226.182 44.9371 226.409C44.8577 226.637 44.7321 226.845 44.5683 227.022C44.4045 227.199 44.206 227.34 43.9851 227.436C43.7643 227.532 43.526 227.582 43.285 227.582C43.044 227.582 42.8057 227.532 42.5849 227.436C42.364 227.34 42.1655 227.199 42.0017 227.022C41.8379 226.845 41.7123 226.637 41.6329 226.409C41.5534 226.182 41.5218 225.94 41.54 225.7V221.89ZM42.69 225.77C42.69 226.3 42.92 226.5 43.28 226.5C43.64 226.5 43.88 226.3 43.88 225.77V221.77C43.88 221.24 43.65 221.04 43.28 221.04C42.91 221.04 42.69 221.24 42.69 221.77V225.77Z" fill="#263238"/>
<path d="M41.54 232.36C41.5218 232.12 41.5534 231.878 41.6329 231.651C41.7123 231.423 41.8379 231.215 42.0017 231.038C42.1655 230.861 42.364 230.72 42.5849 230.624C42.8057 230.528 43.044 230.478 43.285 230.478C43.526 230.478 43.7643 230.528 43.9851 230.624C44.206 230.72 44.4045 230.861 44.5683 231.038C44.7321 231.215 44.8577 231.423 44.9371 231.651C45.0166 231.878 45.0482 232.12 45.03 232.36V236.17C45.0482 236.41 45.0166 236.652 44.9371 236.879C44.8577 237.107 44.7321 237.315 44.5683 237.492C44.4045 237.669 44.206 237.81 43.9851 237.906C43.7643 238.002 43.526 238.052 43.285 238.052C43.044 238.052 42.8057 238.002 42.5849 237.906C42.364 237.81 42.1655 237.669 42.0017 237.492C41.8379 237.315 41.7123 237.107 41.6329 236.879C41.5534 236.652 41.5218 236.41 41.54 236.17V232.36ZM42.69 236.25C42.69 236.77 42.92 236.97 43.28 236.97C43.64 236.97 43.88 236.77 43.88 236.25V232.25C43.88 231.73 43.65 231.53 43.28 231.53C42.91 231.53 42.69 231.73 42.69 232.25V236.25Z" fill="#263238"/>
<path d="M42.34 263C42.6303 263.036 42.9231 262.959 43.159 262.786C43.395 262.614 43.5562 262.357 43.61 262.07H44.38V269.4H43.23V263.81H42.34V263Z" fill="#263238"/>
<path d="M393.13 256.61C360.45 243.38 358.08 197.88 358.08 197.88H365.08V192.44C381.67 192.44 393.13 182.15 393.13 182.15C393.13 182.15 404.59 192.44 421.18 192.44V197.88H428.18C428.18 197.88 425.8 243.38 393.13 256.61Z" stroke="#263238" stroke-width="1.10721" stroke-linecap="round" stroke-linejoin="round"/>
<path d="M393.13 250.6C371.72 240.6 365.52 214.04 363.81 202.6H370.21V196.88C378.438 195.864 386.3 192.88 393.13 188.18C399.964 192.88 407.829 195.864 416.06 196.88V202.6H422.44C420.71 214 414.47 240.6 393.13 250.6Z" stroke="#263238" stroke-width="1.10721" stroke-linecap="round" stroke-linejoin="round"/>
<path d="M404.67 212.97H381.58C380.834 212.97 380.23 213.574 380.23 214.32V228.19C380.23 228.936 380.834 229.54 381.58 229.54H404.67C405.416 229.54 406.02 228.936 406.02 228.19V214.32C406.02 213.574 405.416 212.97 404.67 212.97Z" fill="#263238"/>
<path d="M393.59 199C392.336 198.939 391.082 199.133 389.905 199.571C388.728 200.009 387.652 200.681 386.742 201.547C385.833 202.413 385.108 203.454 384.613 204.608C384.117 205.762 383.861 207.004 383.86 208.26V209.26C383.86 209.345 383.877 209.43 383.909 209.509C383.942 209.588 383.99 209.659 384.05 209.72C384.111 209.78 384.182 209.828 384.261 209.861C384.34 209.893 384.425 209.91 384.51 209.91H386.85C386.935 209.91 387.02 209.893 387.099 209.861C387.178 209.828 387.249 209.78 387.31 209.72C387.37 209.659 387.418 209.588 387.451 209.509C387.483 209.43 387.5 209.345 387.5 209.26V208.49C387.482 207.041 388.011 205.638 388.983 204.563C389.955 203.487 391.296 202.818 392.74 202.69C393.508 202.639 394.279 202.747 395.004 203.006C395.729 203.265 396.393 203.67 396.955 204.195C397.517 204.721 397.966 205.357 398.273 206.063C398.58 206.769 398.739 207.53 398.74 208.3V209.3C398.74 209.472 398.808 209.638 398.93 209.76C399.052 209.882 399.218 209.95 399.39 209.95H401.73C401.902 209.95 402.068 209.882 402.19 209.76C402.312 209.638 402.38 209.472 402.38 209.3V208.6C402.424 206.178 401.537 203.832 399.901 202.045C398.266 200.259 396.006 199.169 393.59 199Z" fill="#263238"/>
<path d="M395.55 219.4C395.551 218.968 395.436 218.543 395.218 218.17C394.999 217.797 394.684 217.49 394.307 217.28C393.929 217.07 393.502 216.964 393.07 216.975C392.638 216.986 392.216 217.112 391.85 217.341C391.483 217.57 391.184 217.892 390.984 218.276C390.784 218.659 390.691 219.089 390.713 219.52C390.736 219.952 390.873 220.37 391.112 220.73C391.351 221.091 391.681 221.381 392.07 221.57L391.19 225.46H395.06L394.18 221.57C394.588 221.372 394.933 221.064 395.175 220.681C395.417 220.297 395.547 219.853 395.55 219.4Z" fill="white" stroke="#263238" stroke-width="1.10721" stroke-linecap="round" stroke-linejoin="round"/>
<path d="M289.88 48.12H210.92C209.086 48.12 207.6 49.6064 207.6 51.44V95.9C207.6 97.7336 209.086 99.22 210.92 99.22H289.88C291.714 99.22 293.2 97.7336 293.2 95.9V51.44C293.2 49.6064 291.714 48.12 289.88 48.12Z" stroke="#263238" stroke-width="1.10721" stroke-linecap="round" stroke-linejoin="round"/>
<path d="M215.57 92.08H240.34C240.975 92.08 241.49 91.5651 241.49 90.93V56.42C241.49 55.7849 240.975 55.27 240.34 55.27H215.57C214.935 55.27 214.42 55.7849 214.42 56.42V90.93C214.42 91.5651 214.935 92.08 215.57 92.08Z" stroke="#263238" stroke-width="1.10721" stroke-linecap="round" stroke-linejoin="round"/>
<path d="M228 92.07H215.64C215.316 92.07 215.006 91.9415 214.777 91.7127C214.549 91.4839 214.42 91.1736 214.42 90.85V82.35C214.42 82.35 221.33 82.05 222.49 80.58C223.65 79.11 222.37 76.81 222.37 76.81C221.95 76.29 221.85 72.6 221.85 72.6L221.43 72.49C221.02 72.39 220.43 69.33 220.43 68.18C220.429 67.8488 220.523 67.5242 220.7 67.2443C220.877 66.9644 221.13 66.7409 221.43 66.6C221.43 66.6 220.43 59.14 227.96 59.14C235.49 59.14 234.48 66.6 234.48 66.6C234.78 66.7409 235.033 66.9644 235.21 67.2443C235.387 67.5242 235.481 67.8488 235.48 68.18C235.48 69.33 234.94 72.39 234.48 72.49L234.06 72.6C234.06 72.6 233.96 76.29 233.54 76.81C233.54 76.81 232.25 79.11 233.42 80.58C234.59 82.05 241.49 82.35 241.49 82.35V90.85C241.491 91.0106 241.461 91.1698 241.4 91.3185C241.339 91.4671 241.249 91.6021 241.136 91.7157C241.022 91.8292 240.887 91.919 240.738 91.9799C240.59 92.0407 240.431 92.0713 240.27 92.07H228Z" fill="#263238"/>
<path d="M284.62 92.25H267.8C267.466 92.2501 267.145 92.1193 266.905 91.8857C266.666 91.6521 266.528 91.3342 266.52 91C266.52 90.6605 266.655 90.3349 266.895 90.0949C267.135 89.8548 267.461 89.72 267.8 89.72H284.62C284.959 89.72 285.285 89.8548 285.525 90.0949C285.765 90.3349 285.9 90.6605 285.9 91C285.892 91.3342 285.754 91.6521 285.515 91.8857C285.275 92.1193 284.954 92.2501 284.62 92.25Z" fill="#263238"/>
<path d="M284.62 57.65H249.75C249.411 57.65 249.085 57.5151 248.845 57.2751C248.605 57.035 248.47 56.7094 248.47 56.37C248.47 56.0305 248.605 55.7049 248.845 55.4649C249.085 55.2248 249.411 55.09 249.75 55.09H284.62C284.959 55.09 285.285 55.2248 285.525 55.4649C285.765 55.7049 285.9 56.0305 285.9 56.37C285.9 56.7094 285.765 57.035 285.525 57.2751C285.285 57.5151 284.959 57.65 284.62 57.65Z" fill="#263238"/>
<path d="M269.75 66.3H249.75C249.58 66.3 249.412 66.2662 249.256 66.2007C249.099 66.1351 248.957 66.039 248.838 65.918C248.719 65.797 248.625 65.6536 248.562 65.4959C248.498 65.3383 248.467 65.1697 248.47 65C248.47 64.6605 248.605 64.3349 248.845 64.0949C249.085 63.8548 249.411 63.72 249.75 63.72H269.75C270.084 63.7278 270.402 63.8661 270.636 64.1053C270.869 64.3445 271 64.6656 271 65C271.005 65.3378 270.877 65.664 270.643 65.9075C270.409 66.151 270.088 66.2921 269.75 66.3Z" fill="#263238"/>
<path d="M263.38 75H249.75C249.411 75 249.085 74.8651 248.845 74.6251C248.605 74.3851 248.47 74.0595 248.47 73.72C248.47 73.3805 248.605 73.0549 248.845 72.8149C249.085 72.5749 249.411 72.44 249.75 72.44H263.38C263.719 72.44 264.045 72.5749 264.285 72.8149C264.525 73.0549 264.66 73.3805 264.66 73.72C264.66 74.0595 264.525 74.3851 264.285 74.6251C264.045 74.8651 263.719 75 263.38 75Z" fill="#263238"/>
<path d="M269.75 83.6H249.75C249.411 83.6 249.085 83.4651 248.845 83.2251C248.605 82.9851 248.47 82.6595 248.47 82.32C248.465 82.1486 248.494 81.9778 248.556 81.8179C248.618 81.6579 248.711 81.5121 248.83 81.3889C248.95 81.2658 249.093 81.1679 249.251 81.1011C249.409 81.0343 249.578 80.9999 249.75 81H269.75C269.919 81.0039 270.086 81.0412 270.24 81.1098C270.394 81.1783 270.534 81.2768 270.65 81.3995C270.766 81.5223 270.857 81.6668 270.917 81.8248C270.977 81.9828 271.005 82.1511 271 82.32C271 82.6543 270.869 82.9755 270.636 83.2147C270.402 83.4539 270.084 83.5922 269.75 83.6Z" fill="#263238"/>
<path d="M127.16 184.18V233.38L113.92 246.62H78.76V184.18H127.16Z" stroke="#263238" stroke-width="1.10721" stroke-linecap="round" stroke-linejoin="round"/>
<path d="M127.16 233.38L113.92 246.62V233.38H127.16Z" fill="#263238" stroke="#263238" stroke-width="1.10721" stroke-linecap="round" stroke-linejoin="round"/>
<path d="M90.55 192.14H119.76" stroke="#263238" stroke-width="1.10721" stroke-linecap="round" stroke-linejoin="round"/>
<path d="M86.15 197.64H119.76" stroke="#263238" stroke-width="1.10721" stroke-linecap="round" stroke-linejoin="round"/>
<path d="M86.15 203.14H119.76" stroke="#263238" stroke-width="1.10721" stroke-linecap="round" stroke-linejoin="round"/>
<path d="M86.15 208.64H119.76" stroke="#263238" stroke-width="1.10721" stroke-linecap="round" stroke-linejoin="round"/>
<path d="M86.15 214.14H119.76" stroke="#263238" stroke-width="1.10721" stroke-linecap="round" stroke-linejoin="round"/>
<path d="M86.15 219.64H119.76" stroke="#263238" stroke-width="1.10721" stroke-linecap="round" stroke-linejoin="round"/>
<path d="M86.15 225.13H119.76" stroke="#263238" stroke-width="1.10721" stroke-linecap="round" stroke-linejoin="round"/>
<path d="M86.15 230.63H115.37" stroke="#263238" stroke-width="1.10721" stroke-linecap="round" stroke-linejoin="round"/>
<path d="M129.46 192.14H135.11V241.34L121.88 254.58H86.72V248.76" stroke="#263238" stroke-width="1.10721" stroke-linecap="round" stroke-linejoin="round"/>
<path d="M135.11 241.34L121.88 254.58V241.34H135.11Z" fill="#263238" stroke="#263238" stroke-width="1.10721" stroke-linecap="round" stroke-linejoin="round"/>
<path d="M308.98 149.97H191.82C189.478 149.97 187.58 151.868 187.58 154.21V284.55C187.58 286.892 189.478 288.79 191.82 288.79H308.98C311.322 288.79 313.22 286.892 313.22 284.55V154.21C313.22 151.868 311.322 149.97 308.98 149.97Z" fill="#7BD8E5" stroke="#263238" stroke-width="1.10721" stroke-linecap="round" stroke-linejoin="round"/>
<g opacity="0.5">
<path d="M310.69 196.25H190.11" stroke="white" stroke-width="1.10721" stroke-linecap="round" stroke-linejoin="round"/>
<path d="M310.69 211.67H190.11" stroke="white" stroke-width="1.10721" stroke-linecap="round" stroke-linejoin="round"/>
<path d="M310.69 227.09H190.11" stroke="white" stroke-width="1.10721" stroke-linecap="round" stroke-linejoin="round"/>
<path d="M310.69 242.51H190.11" stroke="white" stroke-width="1.10721" stroke-linecap="round" stroke-linejoin="round"/>
<path d="M310.69 257.93H190.11" stroke="white" stroke-width="1.10721" stroke-linecap="round" stroke-linejoin="round"/>
<path d="M310.69 273.36H190.11" stroke="white" stroke-width="1.10721" stroke-linecap="round" stroke-linejoin="round"/>
<path d="M310.69 180.82H190.11" stroke="white" stroke-width="1.10721" stroke-linecap="round" stroke-linejoin="round"/>
<path d="M310.69 165.4H190.11" stroke="white" stroke-width="1.10721" stroke-linecap="round" stroke-linejoin="round"/>
<path d="M281.88 286.31V152.44" stroke="white" stroke-width="1.10721" stroke-linecap="round" stroke-linejoin="round"/>
<path d="M266.14 286.31V152.44" stroke="white" stroke-width="1.10721" stroke-linecap="round" stroke-linejoin="round"/>
<path d="M250.4 286.31V152.44" stroke="white" stroke-width="1.10721" stroke-linecap="round" stroke-linejoin="round"/>
<path d="M234.66 286.31V152.44" stroke="white" stroke-width="1.10721" stroke-linecap="round" stroke-linejoin="round"/>
<path d="M218.92 286.31V152.44" stroke="white" stroke-width="1.10721" stroke-linecap="round" stroke-linejoin="round"/>
<path d="M203.19 286.31V152.44" stroke="white" stroke-width="1.10721" stroke-linecap="round" stroke-linejoin="round"/>
<path d="M297.62 286.31V152.44" stroke="white" stroke-width="1.10721" stroke-linecap="round" stroke-linejoin="round"/>
</g>
<path d="M246 261.67C247.346 254.711 249.187 247.857 251.51 241.16C251.98 239.81 252.51 238.45 253.09 237C254.46 233.5 257.27 226.35 256.21 224.22C256.104 223.993 255.94 223.799 255.735 223.657C255.529 223.514 255.289 223.429 255.04 223.41C254.987 223.407 254.933 223.416 254.884 223.435C254.834 223.454 254.788 223.483 254.75 223.52C251.63 226.07 249.62 233.14 248.16 238.3L247.67 240.04C245.733 246.978 244.362 254.061 243.57 261.22" stroke="#263238" stroke-width="1.10721" stroke-linecap="round" stroke-linejoin="round"/>
<path d="M250.63 262C251.923 255.45 253.67 248.997 255.86 242.69C256.3 241.4 256.86 240.05 257.39 238.63C259.58 233.06 262.3 226.16 260.34 222.21C259.853 221.225 259.105 220.393 258.178 219.804C257.25 219.215 256.179 218.892 255.08 218.87C253.92 218.859 252.793 219.259 251.9 220C247.67 223.45 245.53 231 243.81 237.06L243.32 238.79C241.384 245.668 240.003 252.691 239.19 259.79" stroke="#263238" stroke-width="1.10721" stroke-linecap="round" stroke-linejoin="round"/>
<path d="M255.37 261.55C256.589 255.659 258.189 249.854 260.16 244.17C262.54 237.38 267.9 227.17 264.42 220.17C261.57 214.44 254.11 212.31 249.02 216.47C243.2 221.21 240.89 230.72 238.93 237.53C237.081 244.087 235.72 250.772 234.86 257.53" stroke="#263238" stroke-width="1.10721" stroke-linecap="round" stroke-linejoin="round"/>
<path d="M260.35 260.17C261.438 255.263 262.813 250.425 264.47 245.68C264.86 244.55 265.36 243.29 265.89 241.94C268.73 234.71 272.27 225.7 268.5 218.12C267.255 215.618 265.343 213.51 262.975 212.028C260.606 210.545 257.874 209.746 255.08 209.72C251.819 209.71 248.658 210.838 246.14 212.91C239.68 218.18 237.14 227.27 235.03 234.56L234.55 236.25C232.865 242.186 231.585 248.23 230.72 254.34" stroke="#263238" stroke-width="1.10721" stroke-linecap="round" stroke-linejoin="round"/>
<path d="M265.67 257.54C266.6 253.88 267.62 250.49 268.77 247.19C269.15 246.12 269.62 244.91 270.12 243.64C273.12 235.96 277.25 225.48 272.58 216.1C270.959 212.837 268.466 210.088 265.376 208.156C262.287 206.225 258.723 205.188 255.08 205.16C250.768 205.145 246.587 206.637 243.26 209.38C235.68 215.56 232.89 225.38 230.64 233.32L230.16 235C228.749 239.956 227.618 244.987 226.77 250.07" stroke="#263238" stroke-width="1.10721" stroke-linecap="round" stroke-linejoin="round"/>
<path d="M271.16 253.09C272.16 245.77 278.06 237.09 278.64 226.94C279.17 217.64 276.11 211.68 273.94 208.69C273.424 207.953 273.096 207.102 272.985 206.209C272.873 205.317 272.982 204.411 273.3 203.57C274.751 199.309 274.701 194.679 273.16 190.45" stroke="#263238" stroke-width="1.10721" stroke-linecap="round" stroke-linejoin="round"/>
<path d="M257.3 176.78C265 181.6 270 189.19 270.39 199C270.52 202.52 267.66 203.73 264.08 202.64C256.59 200.36 238.74 194.52 227.86 225.11C225.775 231.457 224.237 237.971 223.26 244.58" stroke="#263238" stroke-width="1.10721" stroke-linecap="round" stroke-linejoin="round"/>
<path d="M242 177.28C246.805 177.215 251.554 178.327 255.83 180.52C263.14 184.45 267.74 193.69 265.39 196.04C262.78 198.65 257.93 192.35 243.1 198.43C235.97 201.35 230.91 207.3 227.47 214.06C225.919 217.148 224.608 220.35 223.55 223.64C222.171 227.871 221.036 232.179 220.15 236.54" stroke="#263238" stroke-width="1.10721" stroke-linecap="round" stroke-linejoin="round"/>
<path d="M233.57 182.92C236.182 182.232 238.869 181.872 241.57 181.85C254.66 181.55 259.57 188.53 258.13 190.3C256.92 191.79 254.23 190.95 250.54 191.4C239.89 192.71 231.47 198.77 225.8 207.73C223.003 212.267 220.773 217.13 219.16 222.21C218.86 223.12 218.57 224.04 218.29 224.96" stroke="#263238" stroke-width="1.10721" stroke-linecap="round" stroke-linejoin="round"/>
<path d="M227.4 190.45C231.763 186.926 237.257 185.107 242.86 185.33C244.52 185.33 248.62 185.87 249.17 187.44C249.9 189.5 243.24 186.7 233.59 193.13C221.22 201.38 219.72 209.2 219.72 209.2" stroke="#263238" stroke-width="1.10721" stroke-linecap="round" stroke-linejoin="round"/>
<path d="M276.41 247.55C276.41 247.55 283.12 233.06 282.41 221.86C281.97 214.65 278.41 210.13 277.85 206.92C277.29 203.71 278.85 202.92 278.43 199.98" stroke="#263238" stroke-width="1.10721" stroke-linecap="round" stroke-linejoin="round"/>
<path d="M196.04 179.34V158.88H216.5" stroke="#263238" stroke-width="1.10721" stroke-linecap="round" stroke-linejoin="round"/>
<path d="M216.5 279.88H196.04V259.42" stroke="#263238" stroke-width="1.10721" stroke-linecap="round" stroke-linejoin="round"/>
<path d="M304.77 179.34V158.88H284.31" stroke="#263238" stroke-width="1.10721" stroke-linecap="round" stroke-linejoin="round"/>
<path d="M284.31 279.88H304.77V259.42" stroke="#263238" stroke-width="1.10721" stroke-linecap="round" stroke-linejoin="round"/>
<path d="M391.68 468C386.34 460 380.74 451.56 376.14 444.57C370.26 435.66 366.02 429.15 366.02 429.15C363.77 418.62 360.58 414.49 357.37 405.84C354.16 397.19 356.81 389.48 358.14 378.77C359.47 368.06 357.37 358.08 356.25 351.31C355.13 344.54 356.44 338.15 356.25 336.65C356.06 335.15 349.67 327.25 347.25 321.42C346.153 318.82 344.622 316.425 342.72 314.34C340.619 311.936 337.991 310.05 335.04 308.83C333.811 308.346 332.528 308.011 331.22 307.83C328.22 307.4 325.8 307.88 323.38 307.88C319.99 307.88 312.85 302.06 308.15 301.13C307.278 300.957 306.396 300.834 305.51 300.76C301.62 300.39 297.51 300.76 292.96 301.12C288.41 301.48 283.12 297.17 278.86 295.82H278.79C277.847 295.491 276.842 295.381 275.85 295.5C271.34 296.25 262.85 297 262.85 297C262.85 297 262.1 291.18 261.72 283.28C261.65 281.91 261.55 280.59 261.43 279.28C260.99 274.4 260.29 270.04 260.18 266.05C260.18 265.05 260.18 263.98 260.18 262.98C260.55 257.36 260.38 252.98 260.18 244.34C260.18 244.05 260.18 243.74 260.18 243.43C260.18 240.74 260.18 238.17 260.02 235.85C259.71 230.22 258.46 226.06 252.86 225.2C247.97 224.45 244.59 226.89 242.52 234.98C240.45 243.07 238.95 242.5 238.39 254.34C237.83 266.18 235.18 273.72 235.56 279.73C235.94 285.74 234.62 297.4 234.62 297.4C232.37 296.27 230.3 297.21 229.91 298.15C229.52 299.09 227.86 308.31 226.53 314.89C225.37 320.74 220.04 326.15 218.08 330.18V330.27C217.87 330.705 217.696 331.157 217.56 331.62C216.43 335.76 217 344.62 217 355.88C217 367.14 214.18 378.82 217 386.33C217.601 387.86 218.441 389.285 219.49 390.55C223.82 395.9 231.77 400.55 239 409.08C248 419.8 254.42 427.7 260.43 431.28C264.74 433.82 266.63 435.9 267.43 438.64C267.744 439.828 267.909 441.051 267.92 442.28C268 444.68 269.3 446.51 271.5 449.55C274.932 454.2 277.944 459.146 280.5 464.33C282.91 469.16 286.6 478.33 290.5 488.49L391.68 468Z" fill="white" stroke="#252525" stroke-width="2"/>
<path opacity="0.4" d="M260.15 262.93C260.09 263.93 260.08 264.93 260.15 266C252.96 264.64 239.08 268.19 238.87 272.43C238.63 277.6 238 289.82 240.63 292.67C243.26 295.52 248.9 297.34 248.9 297.34C248.484 297.372 248.07 297.425 247.66 297.5H247.52C245.72 297.879 244.08 298.8 242.82 300.14C237.32 305.78 237.09 318.28 238.89 324.3C246.42 349.3 234.23 369.08 229.89 366.68C225.55 364.28 225.2 342.79 226.51 337.76C227.301 334.826 227.688 331.798 227.66 328.76C225.74 328.12 221.71 329.05 218.01 330.2V330.11C220.01 326.11 225.3 320.67 226.46 314.82C227.79 308.24 229.46 299.02 229.84 298.08C230.22 297.14 232.3 296.2 234.55 297.33C234.55 297.33 235.87 285.68 235.49 279.66C235.11 273.64 237.75 266.12 238.32 254.27C238.89 242.42 240.38 243 242.45 234.91C244.52 226.82 247.9 224.38 252.79 225.13C258.39 225.99 259.64 230.13 259.95 235.78C259.321 235.183 258.653 234.629 257.95 234.12C256.179 232.745 253.954 232.087 251.72 232.28C249.13 232.64 246.86 235.28 245.42 238C243.35 242 243.01 246.29 245.92 244.82C249.22 243.17 256.03 243.72 260.18 244.27C260.35 252.9 260.52 257.31 260.15 262.93Z" fill="#7BD8E5"/>
<path opacity="0.4" d="M267.83 442.25C267.819 441.021 267.654 439.798 267.34 438.61C266.55 435.87 264.66 433.79 260.34 431.25C254.34 427.67 247.93 419.77 238.91 409.05C231.68 400.48 223.73 395.87 219.4 390.52C224.85 393.47 232.25 391.95 234.58 396.62C237.97 403.36 253.89 413.62 253.89 413.62C269.43 429 267.83 442.25 267.83 442.25Z" fill="#7BD8E5"/>
<path opacity="0.4" d="M278.7 295.78C276.87 295.41 271.91 307.64 271.44 311.98C270.19 323.23 275.96 357.91 268.54 357.13C265.47 356.81 261.87 340.61 261.66 333.06C260.99 310.13 261.91 300.6 261.91 300.6C261.91 300.6 260.27 287.9 261.37 279.25C261.49 280.55 261.59 281.87 261.66 283.25C262.04 291.15 262.79 296.97 262.79 296.97C262.79 296.97 271.25 296.22 275.79 295.47C276.771 295.353 277.766 295.459 278.7 295.78Z" fill="#7BD8E5"/>
<path opacity="0.4" d="M305.42 300.75C301.42 301.11 297.42 305.02 294.13 305.75C290.13 306.6 282.78 297.59 278.77 295.83C283.03 297.18 288.37 301.42 292.87 301.13C297.37 300.84 301.53 300.38 305.42 300.75Z" fill="#7BD8E5"/>
<path opacity="0.4" d="M331.17 307.82C329.188 310.302 327.593 313.07 326.44 316.03C323.22 326.44 326.26 365.83 321.07 359.38C314.31 351 321.37 321.93 316.44 310.83C314.88 307.28 309.31 301.6 308.1 301.12C312.8 302.05 319.94 307.87 323.33 307.87C325.75 307.87 328.18 307.39 331.17 307.82Z" fill="#7BD8E5"/>
<path opacity="0.4" d="M376.12 444.56C370.85 438.62 365.33 432.96 361.72 430.84C352.93 425.66 350.41 420.3 349.65 411.37C348.89 402.44 351.16 402.63 353.79 393.8C356.42 384.97 351.53 374.05 351.91 376.41C352.29 378.77 348.14 395.11 345.09 395.92C342.04 396.73 341.01 385.71 340.63 376.73C340.25 367.75 345.14 325.93 343.77 317.73C343.584 316.54 343.213 315.386 342.67 314.31C344.572 316.395 346.104 318.79 347.2 321.39C349.65 327.22 356.04 335.12 356.2 336.62C356.36 338.12 355.07 344.52 356.2 351.28C357.33 358.04 359.4 368.01 358.09 378.74C356.78 389.47 354.09 397.16 357.32 405.81C360.55 414.46 363.72 418.59 365.97 429.12C366 429.14 370.24 435.65 376.12 444.56Z" fill="#7BD8E5"/>
<path opacity="0.4" d="M296.75 323C298.75 325.1 300.01 352.62 301.14 359.39C302.27 366.16 298.76 382.39 296.75 377.45C294.74 372.51 288.61 314.44 296.75 323Z" fill="#7BD8E5"/>
<path d="M289 484.6C285.68 476.02 282.61 468.51 280.51 464.3C277.954 459.116 274.942 454.17 271.51 449.52C269.31 446.52 268.01 444.65 267.93 442.25C267.919 441.021 267.754 439.798 267.44 438.61C266.65 435.87 264.76 433.79 260.44 431.25C254.44 427.67 248.03 419.77 239.01 409.05C231.78 400.48 223.83 395.87 219.5 390.52C218.451 389.255 217.611 387.83 217.01 386.3C214.19 378.79 217.01 367.12 217.01 355.85C217.01 344.58 216.44 335.73 217.57 331.59C217.706 331.127 217.88 330.675 218.09 330.24V330.15C220.09 326.15 225.38 320.71 226.54 314.86C227.87 308.28 229.54 299.06 229.92 298.12C230.3 297.18 232.38 296.24 234.63 297.37C234.63 297.37 235.95 285.72 235.57 279.7C235.19 273.68 237.83 266.16 238.4 254.31C238.97 242.46 240.46 243.04 242.53 234.95C244.6 226.86 247.98 224.42 252.87 225.17C258.47 226.03 259.72 230.17 260.03 235.82C260.16 238.14 260.14 240.71 260.19 243.4C260.19 243.71 260.19 244.02 260.19 244.31C260.37 252.92 260.54 257.31 260.19 262.95C260.13 263.95 260.12 264.95 260.19 266.02C260.3 270.02 261 274.37 261.44 279.25C261.56 280.55 261.66 281.87 261.73 283.25C262.11 291.15 262.86 296.97 262.86 296.97C262.86 296.97 271.32 296.22 275.86 295.47C276.852 295.352 277.857 295.461 278.8 295.79H278.87C283.13 297.14 288.47 301.38 292.97 301.09C297.47 300.8 301.63 300.36 305.52 300.73C306.406 300.804 307.288 300.927 308.16 301.1C312.86 302.03 320 307.85 323.39 307.85C325.81 307.85 328.24 307.37 331.23 307.8C332.538 307.981 333.821 308.316 335.05 308.8C338.001 310.02 340.629 311.906 342.73 314.31C344.632 316.395 346.163 318.79 347.26 321.39C349.71 327.22 356.1 335.12 356.26 336.62C356.42 338.12 355.13 344.52 356.26 351.28C357.39 358.04 359.46 368.01 358.15 378.74C356.84 389.47 354.15 397.16 357.38 405.81C360.61 414.46 363.78 418.59 366.03 429.12C366.03 429.12 370.27 435.63 376.15 444.54C380.23 450.73 385.09 458.09 389.87 465.24" stroke="#263238" stroke-width="1.10721" stroke-linecap="round" stroke-linejoin="round"/>
<path d="M234.58 297.34C234.58 305.62 233.83 315.89 232.58 320.16C231.33 324.43 232.17 338.71 229.87 344.72" stroke="#263238" stroke-width="1.10721" stroke-linecap="round" stroke-linejoin="round"/>
<path d="M238.85 303.86C238.85 303.86 244.61 297.34 248.85 297.34C253.09 297.34 257.38 300.1 261.85 300.6C266.32 301.1 271.06 297.77 275.39 296.97" stroke="#263238" stroke-width="1.10721" stroke-linecap="round" stroke-linejoin="round"/>
<path d="M242.1 273.69C242.1 273.69 249.88 270.85 253.89 273.69" stroke="#263238" stroke-width="1.10721" stroke-linecap="round" stroke-linejoin="round"/>
<path d="M248 270C248 270 250.38 269.35 253.89 271.05" stroke="#263238" stroke-width="1.10721" stroke-linecap="round" stroke-linejoin="round"/>
<path d="M245.92 250C248.554 249.414 251.286 249.414 253.92 250" stroke="#263238" stroke-width="1.10721" stroke-linecap="round" stroke-linejoin="round"/>
<path d="M218 330.11C218 330.11 223 327.68 225 327.43" stroke="#263238" stroke-width="1.10721" stroke-linecap="round" stroke-linejoin="round"/>
<path d="M231.21 337.81C231.21 337.81 228.21 342.47 227.65 344.72" stroke="#263238" stroke-width="1.10721" stroke-linecap="round" stroke-linejoin="round"/>
<path d="M245.92 229.66C245.92 229.66 244.72 239.23 245.92 240.08C247.12 240.93 256.39 241.74 257.15 240.08C257.91 238.42 258.04 231.41 258.04 231.41C258.04 231.41 252.49 221.88 245.92 229.66Z" stroke="#263238" stroke-width="1.10721" stroke-linecap="round" stroke-linejoin="round"/>
<path d="M226.5 314.83C226.5 314.83 234.19 310.95 234.37 305.4C234.55 299.85 232.29 299.91 229.43 299.88" stroke="#263238" stroke-width="1.10721" stroke-linecap="round" stroke-linejoin="round"/>
<path d="M346.39 327.43C346.64 336.2 344.14 361.77 343.88 365.53C343.62 369.29 343.88 378.9 343.88 378.9" stroke="#263238" stroke-width="1.10721" stroke-linecap="round" stroke-linejoin="round"/>
<path d="M291.49 307.35C299.76 319.35 291.49 314.83 296.75 372.3" stroke="#263238" stroke-width="1.10721" stroke-linecap="round" stroke-linejoin="round"/>
<path d="M366 429.14C366 429.14 358.67 423.44 357.41 420.14" stroke="#263238" stroke-width="1.10721" stroke-linecap="round" stroke-linejoin="round"/>
<path d="M263.66 426.44C265.86 430.09 267.25 438.09 267.33 438.58" stroke="#263238" stroke-width="1.10721" stroke-linecap="round" stroke-linejoin="round"/>
</svg>
