<svg width="191" height="89" viewBox="0 0 191 89" fill="none" xmlns="http://www.w3.org/2000/svg">
<g clip-path="url(#clip0_19_2138)">
<path d="M123.098 60.7039L98.4173 85.6442C98.4173 85.6442 85.9069 95.1312 79.1658 82.2094L78.637 25.5964C78.637 25.5964 81.4769 13.255 95.0759 16.7174L123.088 44.4502C123.088 44.4502 129.008 50.9386 123.095 60.7039H123.098Z" fill="#FEEB38"/>
<path d="M60.3471 28.2996L85.0278 3.35929C85.0278 3.35929 97.5382 -6.12772 104.279 6.79413L104.808 63.4071C104.808 63.4071 101.968 75.7484 88.3692 72.2861L60.3574 44.5533C60.3574 44.5533 54.4371 38.0649 60.3506 28.2996H60.3471Z" fill="#72CDDA"/>
<path d="M19.2171 36.4848V36.5432L10.1168 55.8195H9.10031L0 36.5398V36.4814H3.61608L8.53368 47.2221C9.01446 48.2388 9.32352 49.0323 9.63602 49.9082C9.94852 48.9464 10.3709 47.9572 10.7384 47.1672L15.5701 36.4814H19.2171V36.4848Z" fill="#231F20"/>
<path d="M20.9102 46.0645C20.9102 40.2975 25.0345 36.1138 30.9136 36.1138C36.7928 36.1138 40.9171 40.2975 40.9171 46.0645C40.9171 51.8316 36.8477 56.0702 30.9136 56.0702C24.9795 56.0702 20.9102 51.6908 20.9102 46.0645ZM37.5277 46.0645C37.5277 42.0527 34.9555 39.1124 30.9136 39.1124C26.8717 39.1124 24.2996 42.0527 24.2996 46.0645C24.2996 50.0764 26.8992 53.075 30.9136 53.075C34.9281 53.075 37.5277 49.939 37.5277 46.0645Z" fill="#231F20"/>
<path d="M45.6389 36.4848H48.9459V52.6526H57.3388V55.7061H45.6389V36.4848Z" fill="#231F20"/>
<path d="M60.2749 48.8914V36.4814H63.5819V48.6647C63.5819 51.6324 65.3608 53.0751 67.9913 53.0751C70.6218 53.0751 72.3732 51.6324 72.3732 48.6647V36.4814H75.6802V48.8914C75.6802 53.4976 72.4315 56.0702 67.9947 56.0702C63.5579 56.0702 60.2818 53.4976 60.2818 48.8914H60.2749Z" fill="#231F20"/>
<path d="M97.5758 36.4848V55.8195H96.3052L85.8793 44.4296C85.3986 43.9212 84.8354 43.2995 84.2688 42.6778C84.3546 43.3854 84.3821 44.0895 84.3821 44.7696V55.7096H81.1025V36.3749H82.3731L92.4899 47.4831C93.1115 48.1323 93.7331 48.8124 94.3821 49.5475C94.3237 48.6441 94.3237 47.7682 94.3237 46.9748V36.4882H97.5724L97.5758 36.4848Z" fill="#231F20"/>
<path d="M115.777 39.535H110.323V55.7027H107.016V39.535H101.563V36.4814H115.777V39.535Z" fill="#231F20"/>
<path d="M132.082 52.7934V55.7061H119.733V36.4848H131.827V39.3975H123.04V44.512H130.756V47.3389H123.04V52.7934H132.082Z" fill="#231F20"/>
<path d="M151.209 55.6203V55.7061H147.453L142.902 48.3865H139.963V55.7061H136.656V36.4848H144.2C148.016 36.4848 150.729 39.0575 150.729 42.4477C150.729 45.1612 149.032 47.253 146.264 48.043L151.209 55.6168V55.6203ZM143.891 45.6421C146.096 45.6421 147.425 44.4261 147.425 42.5335C147.425 40.641 146.014 39.3391 143.95 39.3391H139.966V45.6421H143.895H143.891Z" fill="#231F20"/>
<path d="M169.832 55.6203V55.7061H166.076L161.525 48.3865H158.586V55.7061H155.279V36.4848H162.823C166.639 36.4848 169.352 39.0575 169.352 42.4477C169.352 45.1612 167.655 47.253 164.887 48.043L169.832 55.6168V55.6203ZM162.514 45.6421C164.719 45.6421 166.048 44.4261 166.048 42.5335C166.048 40.641 164.637 39.3391 162.573 39.3391H158.589V45.6421H162.518H162.514Z" fill="#231F20"/>
<path d="M191 55.6203V55.7061H187.525L185.969 52.2026H176.927L175.344 55.7061H171.869V55.6478L180.941 36.3715H181.958L191 55.6203ZM180.121 44.9654L178.029 49.6024H184.839L182.748 44.9654C182.295 43.9487 181.872 42.9595 181.446 41.7161C180.993 42.9595 180.571 43.9212 180.117 44.9654H180.121Z" fill="#231F20"/>
</g>
<defs>
<clipPath id="clip0_19_2138">
<rect width="191" height="89" fill="white"/>
</clipPath>
</defs>
</svg>
