<svg width="557" height="260" viewBox="0 0 557 260" fill="none" xmlns="http://www.w3.org/2000/svg">
<g clip-path="url(#clip0_43_1717)">
<path d="M358.46 176.73L286.59 249.34C286.59 249.34 250.16 276.96 230.53 239.34L228.99 74.52C228.99 74.52 237.26 38.59 276.86 48.67L358.43 129.41C358.43 129.41 375.67 148.3 358.45 176.73H358.46Z" fill="#FEEB38"/>
<path d="M175.73 82.39L247.6 9.78001C247.6 9.78001 284.03 -17.84 303.66 19.78L305.2 184.6C305.2 184.6 296.93 220.53 257.33 210.45L175.76 129.71C175.76 129.71 158.52 110.82 175.74 82.39H175.73Z" fill="#72CDDA"/>
<path d="M55.96 106.22V106.39L29.46 162.51H26.5L0 106.38V106.21H10.53L24.85 137.48C26.25 140.44 27.15 142.75 28.06 145.3C28.97 142.5 30.2 139.62 31.27 137.32L45.34 106.21H55.96V106.22Z" fill="white"/>
<path d="M60.89 134.11C60.89 117.32 72.9 105.14 90.02 105.14C107.14 105.14 119.15 117.32 119.15 134.11C119.15 150.9 107.3 163.24 90.02 163.24C72.74 163.24 60.89 150.49 60.89 134.11ZM109.28 134.11C109.28 122.43 101.79 113.87 90.02 113.87C78.25 113.87 70.76 122.43 70.76 134.11C70.76 145.79 78.33 154.52 90.02 154.52C101.71 154.52 109.28 145.39 109.28 134.11Z" fill="white"/>
<path d="M132.9 106.22H142.53V153.29H166.97V162.18H132.9V106.22Z" fill="white"/>
<path d="M175.52 142.34V106.21H185.15V141.68C185.15 150.32 190.33 154.52 197.99 154.52C205.65 154.52 210.75 150.32 210.75 141.68V106.21H220.38V142.34C220.38 155.75 210.92 163.24 198 163.24C185.08 163.24 175.54 155.75 175.54 142.34H175.52Z" fill="white"/>
<path d="M284.14 106.22V162.51H280.44L250.08 129.35C248.68 127.87 247.04 126.06 245.39 124.25C245.64 126.31 245.72 128.36 245.72 130.34V162.19H236.17V105.9H239.87L269.33 138.24C271.14 140.13 272.95 142.11 274.84 144.25C274.67 141.62 274.67 139.07 274.67 136.76V106.23H284.13L284.14 106.22Z" fill="white"/>
<path d="M337.14 115.1H321.26V162.17H311.63V115.1H295.75V106.21H337.14V115.1Z" fill="white"/>
<path d="M384.62 153.7V162.18H348.66V106.22H383.88V114.7H358.29V129.59H380.76V137.82H358.29V153.7H384.62Z" fill="white"/>
<path d="M440.32 161.93V162.18H429.38L416.13 140.87H407.57V162.18H397.94V106.22H419.91C431.02 106.22 438.92 113.71 438.92 123.58C438.92 131.48 433.98 137.57 425.92 139.87L440.32 161.92V161.93ZM419.01 132.88C425.43 132.88 429.3 129.34 429.3 123.83C429.3 118.32 425.19 114.53 419.18 114.53H407.58V132.88H419.02H419.01Z" fill="white"/>
<path d="M494.55 161.93V162.18H483.61L470.36 140.87H461.8V162.18H452.17V106.22H474.14C485.25 106.22 493.15 113.71 493.15 123.58C493.15 131.48 488.21 137.57 480.15 139.87L494.55 161.92V161.93ZM473.24 132.88C479.66 132.88 483.53 129.34 483.53 123.83C483.53 118.32 479.42 114.53 473.41 114.53H461.81V132.88H473.25H473.24Z" fill="white"/>
<path d="M556.19 161.93V162.18H546.07L541.54 151.98H515.21L510.6 162.18H500.48V162.01L526.9 105.89H529.86L556.19 161.93ZM524.51 130.91L518.42 144.41H538.25L532.16 130.91C530.84 127.95 529.61 125.07 528.37 121.45C527.05 125.07 525.82 127.87 524.5 130.91H524.51Z" fill="white"/>
</g>
<defs>
<clipPath id="clip0_43_1717">
<rect width="556.19" height="259.11" fill="white"/>
</clipPath>
</defs>
</svg>
