<svg width="500" height="500" viewBox="0 0 500 500" fill="none" xmlns="http://www.w3.org/2000/svg">
<path d="M250 427.56C357.082 427.56 443.89 420.446 443.89 411.67C443.89 402.894 357.082 395.78 250 395.78C142.917 395.78 56.11 402.894 56.11 411.67C56.11 420.446 142.917 427.56 250 427.56Z" fill="#F5F5F5"/>
<path d="M297.68 348.92H280.68C271.83 348.92 264.68 361.75 264.68 377.58C264.68 393.41 271.85 406.23 280.68 406.23H297.68C306.53 406.23 313.68 393.4 313.68 377.58C313.68 361.76 306.53 348.92 297.68 348.92Z" fill="#263238"/>
<mask id="mask0_13_1669" style="mask-type:luminance" maskUnits="userSpaceOnUse" x="264" y="348" width="50" height="59">
<path d="M297.68 348.92H280.68C271.83 348.92 264.68 361.75 264.68 377.58C264.68 393.41 271.85 406.23 280.68 406.23H297.68C306.53 406.23 313.68 393.4 313.68 377.58C313.68 361.76 306.53 348.92 297.68 348.92Z" fill="white"/>
</mask>
<g mask="url(#mask0_13_1669)">
<path opacity="0.05" d="M317.68 348.92H300.68C291.83 348.92 284.68 361.75 284.68 377.58C284.68 393.41 291.85 406.23 300.68 406.23H317.68C326.53 406.23 333.68 393.4 333.68 377.58C333.68 361.76 326.53 348.92 317.68 348.92Z" fill="white"/>
</g>
<path d="M435.39 355.06L137.7 354.85V164.7H435.39V355.06Z" fill="#62BFCC"/>
<path opacity="0.3" d="M435.39 164.7H233.63V355.05H435.39V164.7Z" fill="#263238"/>
<path opacity="0.2" d="M233.63 164.7H137.7V358.81H233.63V164.7Z" fill="white"/>
<path opacity="0.1" d="M138.42 173.54H435.39" stroke="white" stroke-width="2" stroke-linecap="round" stroke-linejoin="round"/>
<path opacity="0.1" d="M138.42 181.77H435.39" stroke="white" stroke-width="2" stroke-linecap="round" stroke-linejoin="round"/>
<path opacity="0.1" d="M138.42 189.99H435.39" stroke="white" stroke-width="2" stroke-linecap="round" stroke-linejoin="round"/>
<path opacity="0.1" d="M138.42 198.21H435.39" stroke="white" stroke-width="2" stroke-linecap="round" stroke-linejoin="round"/>
<path opacity="0.1" d="M138.42 206.44H435.39" stroke="white" stroke-width="2" stroke-linecap="round" stroke-linejoin="round"/>
<path opacity="0.1" d="M138.42 214.66H435.39" stroke="white" stroke-width="2" stroke-linecap="round" stroke-linejoin="round"/>
<path opacity="0.1" d="M138.42 222.88H435.39" stroke="white" stroke-width="2" stroke-linecap="round" stroke-linejoin="round"/>
<path opacity="0.1" d="M138.42 231.1H435.39" stroke="white" stroke-width="2" stroke-linecap="round" stroke-linejoin="round"/>
<path opacity="0.1" d="M138.42 239.33H435.39" stroke="white" stroke-width="2" stroke-linecap="round" stroke-linejoin="round"/>
<path opacity="0.1" d="M138.42 247.55H435.39" stroke="white" stroke-width="2" stroke-linecap="round" stroke-linejoin="round"/>
<path opacity="0.1" d="M138.42 255.77H435.39" stroke="white" stroke-width="2" stroke-linecap="round" stroke-linejoin="round"/>
<path opacity="0.1" d="M138.42 264H435.39" stroke="white" stroke-width="2" stroke-linecap="round" stroke-linejoin="round"/>
<path opacity="0.1" d="M138.42 272.22H435.39" stroke="white" stroke-width="2" stroke-linecap="round" stroke-linejoin="round"/>
<path opacity="0.1" d="M138.42 280.44H435.39" stroke="white" stroke-width="2" stroke-linecap="round" stroke-linejoin="round"/>
<path opacity="0.1" d="M138.42 288.66H435.39" stroke="white" stroke-width="2" stroke-linecap="round" stroke-linejoin="round"/>
<path opacity="0.1" d="M138.42 296.89H435.39" stroke="white" stroke-width="2" stroke-linecap="round" stroke-linejoin="round"/>
<path opacity="0.1" d="M138.42 305.11H435.39" stroke="white" stroke-width="2" stroke-linecap="round" stroke-linejoin="round"/>
<path opacity="0.1" d="M138.42 313.33H435.39" stroke="white" stroke-width="2" stroke-linecap="round" stroke-linejoin="round"/>
<path opacity="0.1" d="M138.42 321.56H435.39" stroke="white" stroke-width="2" stroke-linecap="round" stroke-linejoin="round"/>
<path opacity="0.1" d="M138.42 329.78H435.39" stroke="white" stroke-width="2" stroke-linecap="round" stroke-linejoin="round"/>
<path opacity="0.1" d="M138.42 338H435.39" stroke="white" stroke-width="2" stroke-linecap="round" stroke-linejoin="round"/>
<path opacity="0.1" d="M138.42 346.23H435.39" stroke="white" stroke-width="2" stroke-linecap="round" stroke-linejoin="round"/>
<path d="M83.07 352.66H67.34C59.14 352.66 52.5 364.54 52.5 379.2C52.5 393.86 59.14 405.73 67.34 405.73H83.07C91.27 405.73 97.91 393.85 97.91 379.2C97.91 364.55 91.27 352.66 83.07 352.66Z" fill="#263238"/>
<path opacity="0.05" d="M103.08 352.66H87.34C79.14 352.66 72.5 364.54 72.5 379.2C72.5 393.86 79.14 405.73 87.34 405.73H103.08C111.27 405.73 117.92 393.85 117.92 379.2C117.92 364.55 111.27 352.66 103.08 352.66Z" fill="white"/>
<path d="M74.32 300.83H66.88C65.42 300.88 64.22 299.32 64.19 297.34C64.1701 297.134 64.1701 296.926 64.19 296.72L66.19 274.25C66.44 271.94 67.87 270.25 69.59 270.14H77.1C78.55 270.14 79.75 271.67 79.78 273.65C79.78 273.85 79.78 274.05 79.78 274.25L77.78 296.72C77.48 299 76 300.77 74.32 300.83Z" fill="#263238"/>
<path d="M81.76 226.61L67.41 304L223.64 365.2L222.55 212.68L188.19 211.68H94.07C88.41 211.63 83.42 217.71 81.76 226.61Z" fill="#62BFCC"/>
<path d="M198 239.06C192.17 238.8 186.94 243.58 185.23 250.71L173.41 300.23H150.66L149.42 365.56H224.25" fill="#62BFCC"/>
<path d="M84 296.07C81.71 296.07 79.86 293.13 79.86 289.51C79.859 288.879 79.9192 288.249 80.04 287.63L88.63 242.19C89.35 238.42 91.55 235.84 94.04 235.85H176.22C177.11 235.85 177.84 236.99 177.84 238.41C177.842 238.662 177.819 238.913 177.77 239.16C175.97 248.52 170.12 279.53 167.88 291.39C167.36 294.17 165.74 296.07 163.88 296.07H84Z" fill="#263238"/>
<path d="M159.62 316.21C159.619 317.006 159.562 317.802 159.45 318.59L159.02 321.52L158.77 323.25L156.93 335.89L153.93 356.44L153.1 362.15H36.8101V356.44L36.8901 335.89L37.0001 323.6V318.6C36.0001 312 39.1901 305.6 44.0501 304.27C44.6203 304.114 45.209 304.037 45.8001 304.04H150.66C155.61 304 159.62 309.48 159.62 316.21Z" fill="#62BFCC"/>
<path d="M218.73 242V290.71C218.73 293.66 217.22 296.06 215.35 296.07H186.93C185.06 296.07 183.55 293.67 183.55 290.71C183.549 290.227 183.59 289.746 183.67 289.27L192.43 239.47C192.85 237.08 194.25 235.47 195.81 235.56L215.47 236.64C217.29 236.75 218.73 239.12 218.73 242Z" fill="#263238"/>
<path opacity="0.1" d="M131.94 235.85H116.24L98.2101 296.07H113.92L131.94 235.85Z" fill="white"/>
<path opacity="0.1" d="M144.16 235.85H136.66L118.64 296.07H126.13L144.16 235.85Z" fill="white"/>
<path d="M189.75 335.89V356.44H36.8301L36.9101 335.89H189.75Z" fill="black"/>
<path d="M168.45 335.89H154.31L128.88 350.83V356.44H189.75V335.89H168.45Z" fill="white"/>
<path d="M63.1901 350.83V356.44H36.8301L36.9101 335.89H37.7701L63.1901 350.83Z" fill="white"/>
<path opacity="0.3" d="M223.71 365.56L222.55 212.68L201.55 211.68C196.31 211.42 190.26 217.51 188.73 224.57L173.51 304H167.58C160.92 304 156.36 308.85 156.37 314L156.46 365.58H223.71" fill="#263238"/>
<path d="M159.23 322.24C159.228 322.43 159.186 322.617 159.107 322.789C159.027 322.961 158.913 323.115 158.77 323.24C158.526 323.467 158.204 323.592 157.87 323.59H37V320.87H157.9C158.13 320.871 158.356 320.93 158.558 321.042C158.759 321.154 158.928 321.315 159.05 321.51C159.176 321.732 159.239 321.985 159.23 322.24Z" fill="white"/>
<path d="M58.3201 320.88V323.6H36.9601L36.9701 320.88H58.3201Z" fill="#263238"/>
<path d="M159.23 322.24C159.228 322.43 159.186 322.617 159.107 322.789C159.027 322.961 158.913 323.115 158.77 323.24C158.526 323.467 158.204 323.592 157.87 323.59H128.55V320.87H157.87C158.1 320.871 158.326 320.93 158.528 321.042C158.729 321.154 158.898 321.315 159.02 321.51C159.157 321.729 159.23 321.982 159.23 322.24Z" fill="#263238"/>
<path d="M440.73 360V360.54C440.73 361.866 440.203 363.138 439.266 364.076C438.328 365.013 437.056 365.54 435.73 365.54H38.53C37.2039 365.54 35.9322 365.013 34.9945 364.076C34.0568 363.138 33.53 361.866 33.53 360.54V360C33.53 358.674 34.0568 357.402 34.9945 356.464C35.9322 355.527 37.2039 355 38.53 355H435.73C437.056 355 438.328 355.527 439.266 356.464C440.203 357.402 440.73 358.674 440.73 360Z" fill="#263238"/>
<path d="M126.61 359.11H67.41V362H126.61V359.11Z" fill="black"/>
<path d="M51.66 360.55C51.66 360.876 51.5635 361.194 51.3826 361.466C51.2017 361.737 50.9446 361.948 50.6437 362.073C50.3428 362.199 50.0115 362.232 49.6917 362.169C49.372 362.106 49.0779 361.95 48.8468 361.72C48.6156 361.49 48.4577 361.197 48.3929 360.878C48.3281 360.559 48.3594 360.227 48.4827 359.925C48.6061 359.624 48.816 359.365 49.086 359.183C49.3561 359 49.6741 358.902 50 358.9C50.2175 358.899 50.4331 358.94 50.6345 359.023C50.8358 359.105 51.0189 359.226 51.1732 359.38C51.3275 359.533 51.4499 359.715 51.5334 359.916C51.617 360.117 51.66 360.332 51.66 360.55Z" fill="white"/>
<path d="M140.75 360.55C140.75 360.876 140.653 361.195 140.472 361.467C140.291 361.738 140.033 361.949 139.732 362.074C139.43 362.199 139.098 362.232 138.778 362.168C138.458 362.105 138.164 361.947 137.933 361.717C137.703 361.486 137.545 361.192 137.482 360.872C137.418 360.552 137.451 360.22 137.576 359.918C137.701 359.617 137.912 359.359 138.183 359.178C138.455 358.997 138.774 358.9 139.1 358.9C139.317 358.9 139.531 358.943 139.732 359.026C139.932 359.108 140.114 359.23 140.267 359.383C140.42 359.536 140.542 359.718 140.624 359.918C140.707 360.119 140.75 360.333 140.75 360.55Z" fill="white"/>
<path d="M188.59 376.93C188.59 361.02 195.8 348.12 204.7 348.12H187.61C178.72 348.12 171.51 361.02 171.51 376.93C171.51 392.84 178.72 405.73 187.61 405.73H204.7C195.8 405.76 188.59 392.87 188.59 376.93Z" fill="black"/>
<path opacity="0.7" d="M188.59 376.93C188.59 361.02 195.8 348.12 204.7 348.12H187.61C178.72 348.12 171.51 361.02 171.51 376.93C171.51 392.84 178.72 405.73 187.61 405.73H204.7C195.8 405.76 188.59 392.87 188.59 376.93Z" fill="#263238"/>
<path d="M204.7 405.77C213.597 405.77 220.81 392.871 220.81 376.96C220.81 361.049 213.597 348.15 204.7 348.15C195.803 348.15 188.59 361.049 188.59 376.96C188.59 392.871 195.803 405.77 204.7 405.77Z" fill="#263238"/>
<path d="M205.99 399.42C212.297 399.42 217.41 389.364 217.41 376.96C217.41 364.556 212.297 354.5 205.99 354.5C199.683 354.5 194.57 364.556 194.57 376.96C194.57 389.364 199.683 399.42 205.99 399.42Z" fill="white"/>
<path d="M204.95 396.4C210.986 396.4 215.88 387.696 215.88 376.96C215.88 366.223 210.986 357.52 204.95 357.52C198.914 357.52 194.02 366.223 194.02 376.96C194.02 387.696 198.914 396.4 204.95 396.4Z" fill="#263238"/>
<path d="M202.55 391.15C206.957 391.15 210.53 384.797 210.53 376.96C210.53 369.123 206.957 362.77 202.55 362.77C198.143 362.77 194.57 369.123 194.57 376.96C194.57 384.797 198.143 391.15 202.55 391.15Z" fill="black"/>
<path opacity="0.5" d="M440.73 360V360.54C440.73 361.866 440.203 363.138 439.266 364.076C438.328 365.013 437.056 365.54 435.73 365.54H233.63V355H435.73C437.056 355 438.328 355.527 439.266 356.464C440.203 357.402 440.73 358.674 440.73 360Z" fill="black"/>
<path d="M377.92 376.93C377.92 361.02 385.13 348.12 394.02 348.12H376.94C368.04 348.12 360.83 361.02 360.83 376.93C360.83 392.84 368.04 405.73 376.94 405.73H394C385.13 405.76 377.92 392.87 377.92 376.93Z" fill="black"/>
<path opacity="0.7" d="M377.92 376.93C377.92 361.02 385.13 348.12 394.02 348.12H376.94C368.04 348.12 360.83 361.02 360.83 376.93C360.83 392.84 368.04 405.73 376.94 405.73H394C385.13 405.76 377.92 392.87 377.92 376.93Z" fill="#263238"/>
<path d="M394.02 405.77C402.917 405.77 410.13 392.871 410.13 376.96C410.13 361.049 402.917 348.15 394.02 348.15C385.123 348.15 377.91 361.049 377.91 376.96C377.91 392.871 385.123 405.77 394.02 405.77Z" fill="#263238"/>
<path d="M395.32 399.42C401.627 399.42 406.74 389.364 406.74 376.96C406.74 364.556 401.627 354.5 395.32 354.5C389.013 354.5 383.9 364.556 383.9 376.96C383.9 389.364 389.013 399.42 395.32 399.42Z" fill="white"/>
<path d="M394.27 396.4C400.307 396.4 405.2 387.696 405.2 376.96C405.2 366.223 400.307 357.52 394.27 357.52C388.234 357.52 383.34 366.223 383.34 376.96C383.34 387.696 388.234 396.4 394.27 396.4Z" fill="#263238"/>
<path d="M391.87 391.15C396.277 391.15 399.85 384.797 399.85 376.96C399.85 369.123 396.277 362.77 391.87 362.77C387.463 362.77 383.89 369.123 383.89 376.96C383.89 384.797 387.463 391.15 391.87 391.15Z" fill="black"/>
<path d="M328.86 236C328.66 239.85 328.31 243.57 327.74 247.36C327.248 251.275 326.391 255.135 325.18 258.89C324.798 259.984 324.32 261.041 323.75 262.05C323.354 262.73 322.87 263.356 322.31 263.91L322.03 264.17L321.87 264.29L321.79 264.36L321.45 264.59L320.78 265.06C319.082 266.15 317.296 267.097 315.44 267.89C311.919 269.438 308.259 270.65 304.51 271.51L303.21 267.95C306.39 266.19 309.65 264.39 312.62 262.52C314.072 261.629 315.468 260.651 316.8 259.59L317.24 259.22L317.46 259.03C317.46 259.03 317.55 258.88 317.66 258.64C317.952 257.993 318.193 257.325 318.38 256.64C318.832 254.995 319.19 253.326 319.45 251.64C319.76 249.9 320.01 248.13 320.22 246.33C320.63 242.76 320.98 239.1 321.22 235.54L328.86 236Z" fill="#CE7A63"/>
<path d="M305.58 268L299.44 266.1L300.59 273.53C300.59 273.53 304.59 273.03 306.59 270.79L305.58 268Z" fill="#CE7A63"/>
<path d="M292 270.88L292.34 271.88C292.532 272.432 292.898 272.907 293.383 273.234C293.868 273.56 294.446 273.72 295.03 273.69L298.16 273.55L297 266.1L293.56 267.45C292.908 267.71 292.381 268.212 292.09 268.851C291.799 269.49 291.767 270.217 292 270.88Z" fill="#CE7A63"/>
<path d="M336.12 228.79C336.12 231.11 335 235.69 334.04 239.13C333.33 241.6 332.74 243.48 332.74 243.48L331.33 243.13L319.71 240.19C319.53 234.19 319.76 227.66 325.71 223.74C329.43 221.28 336.09 224.66 336.12 228.79Z" fill="#263238"/>
<path opacity="0.3" d="M336.11 229.19C335.35 228.39 333.63 228.25 329.88 229.44C324.51 231.14 323.01 237.02 322.94 241.01L331.33 243.13L332.05 243.32L332.74 243.48C332.74 243.48 333.03 242.54 333.45 241.11C333.62 240.53 333.83 239.85 334.03 239.11C335.031 235.875 335.727 232.554 336.11 229.19Z" fill="black"/>
<path d="M312.27 415.47L305.18 412.99L309.64 397.63L316.72 400.12L312.27 415.47Z" fill="#CE7A63"/>
<path d="M407 397.27L401.23 401.57L389.42 389.6L395.19 385.3L407 397.27Z" fill="#CE7A63"/>
<path d="M398.87 399.82L405.1 394.67C405.206 394.579 405.34 394.528 405.48 394.528C405.62 394.528 405.755 394.579 405.86 394.67L410.64 399.01C410.747 399.117 410.833 399.244 410.891 399.384C410.949 399.524 410.979 399.674 410.979 399.825C410.979 399.976 410.949 400.126 410.891 400.266C410.833 400.406 410.747 400.533 410.64 400.64L410.54 400.73C408.34 402.49 407.18 403.23 404.44 405.49C402.76 406.88 399.23 410.21 396.9 412.13C394.57 414.05 392.55 411.86 393.35 410.85C396.92 406.33 397.75 403.35 398.17 400.91C398.271 400.477 398.518 400.092 398.87 399.82Z" fill="#263238"/>
<path d="M304.7 410.77L312.58 414.06C312.721 414.121 312.837 414.227 312.913 414.36C312.989 414.494 313.019 414.648 313 414.8L312.11 421.75C312.075 422.028 311.931 422.281 311.71 422.454C311.489 422.626 311.208 422.704 310.93 422.67C310.827 422.659 310.725 422.632 310.63 422.59C307.84 421.46 306.53 420.9 303.07 419.45L292.45 415C289.57 413.79 290.19 410.63 291.45 410.86C297.28 411.92 301.04 411.57 303.34 410.7C303.56 410.621 303.794 410.587 304.027 410.599C304.261 410.611 304.489 410.669 304.7 410.77Z" fill="#263238"/>
<path opacity="0.2" d="M309.64 397.64L307.35 405.55L314.25 408.67L316.73 400.12L309.64 397.64Z" fill="black"/>
<path opacity="0.2" d="M395.2 385.3L389.42 389.6L395.51 395.77L401.28 391.47L395.2 385.3Z" fill="black"/>
<path d="M357.92 266.33L328.72 266.75C324.72 244.14 323.72 233.35 323.72 228.16C323.715 226.866 324.162 225.61 324.983 224.61C325.805 223.609 326.95 222.927 328.22 222.68C330 222.33 332.22 221.93 334.45 221.62C335.21 221.52 335.98 221.42 336.74 221.34C341.15 220.962 345.581 220.898 350 221.15C350.66 221.15 351.31 221.21 352 221.25C355 221.44 357.74 221.82 359.69 222.12C360.392 222.233 361.019 222.62 361.436 223.195C361.852 223.771 362.023 224.489 361.91 225.19C361.915 225.24 361.915 225.29 361.91 225.34C361.05 229.34 360.35 232.89 359.79 236.05C358.9 241.05 358.34 245.13 358.01 248.69C357.51 254.558 357.48 260.457 357.92 266.33Z" fill="#263238"/>
<path opacity="0.1" d="M358 248.72C356.53 244.31 356.61 235.16 358.19 232.2L359.8 236.07C358.89 241.1 358.33 245.16 358 248.72Z" fill="black"/>
<path d="M328.72 266.75C328.72 266.75 323.72 309.26 319.21 335.75C315.64 356.49 306.62 399.66 306.62 399.66L318.33 403.81C318.33 403.81 331.74 358.81 334.09 339.59C343.54 311.88 350.34 266.54 350.34 266.54L328.72 266.75Z" fill="#62BFCC"/>
<path d="M304.72 402.56L318.27 407.33L320.08 402.98L305.38 397.36L304.72 402.56Z" fill="#263238"/>
<path opacity="0.1" d="M343.52 279.38L339.14 287.77C337.54 294.09 337.92 309.47 339.95 319.19C343.59 304.54 346.5 289.12 348.31 278.77L343.52 279.38Z" fill="black"/>
<path d="M335.06 266.75C335.06 266.75 340.29 314.33 350.06 340.75C354.96 354 391.31 393.28 391.31 393.28L399.51 386.72C399.51 386.72 376.46 347.09 366.38 336.72C362.27 313.72 367.44 279.24 357.89 266.34L335.06 266.75Z" fill="#62BFCC"/>
<path d="M392 396.09L401.62 388.21L399.02 383.94L388.49 393.11L392 396.09Z" fill="#263238"/>
<path d="M358.38 264.62L359.73 267.21C359.83 267.41 359.6 267.63 359.26 267.63L328.62 268.07C328.35 268.07 328.14 267.94 328.11 267.78L327.82 265.17C327.82 264.99 328.03 264.83 328.31 264.83L357.89 264.4C357.983 264.394 358.077 264.412 358.162 264.45C358.247 264.488 358.322 264.546 358.38 264.62Z" fill="#263238"/>
<path d="M354.41 268H355.22C355.37 268 355.49 267.91 355.48 267.82L355.05 264.42C355.05 264.32 354.91 264.25 354.75 264.25H354C353.84 264.25 353.72 264.34 353.74 264.43L354.16 267.82C354.11 267.9 354.26 268 354.41 268Z" fill="#62BFCC"/>
<path d="M330.82 268.32H331.62C331.78 268.32 331.89 268.23 331.88 268.13L331.47 264.74C331.47 264.64 331.31 264.56 331.15 264.56H330.35C330.19 264.56 330.07 264.65 330.08 264.75L330.5 268.14C330.52 268.24 330.66 268.32 330.82 268.32Z" fill="#62BFCC"/>
<path d="M342.62 268.13H343.42C343.58 268.13 343.7 268.04 343.69 267.94L343.27 264.55C343.27 264.44 343.12 264.36 342.96 264.37H342.16C342 264.37 341.89 264.46 341.89 264.56L342.31 267.95C342.3 268.07 342.46 268.13 342.62 268.13Z" fill="#62BFCC"/>
<path d="M289.64 236.82L332.98 230.87L338.98 273.42L296.42 279.26L289.64 236.82Z" fill="#62BFCC"/>
<path opacity="0.8" d="M289.64 236.82L332.98 230.87L338.98 273.42L296.42 279.26L289.64 236.82Z" fill="white"/>
<path opacity="0.2" d="M333.575 228.815L322.002 230.452L328.21 274.349L339.783 272.712L333.575 228.815Z" fill="#62BFCC"/>
<path d="M345.27 268.06L339.27 265.71L339.86 273.21C339.86 273.21 343.86 273.01 346.01 270.92L345.27 268.06Z" fill="#CE7A63"/>
<path d="M364.14 230.72C365.75 235.22 367.14 239.72 368.32 244.32C368.92 246.63 369.48 248.95 369.93 251.32C370.15 252.52 370.34 253.74 370.48 255.01C370.641 256.337 370.698 257.674 370.65 259.01C370.622 259.88 370.488 260.743 370.25 261.58C369.922 262.61 369.372 263.555 368.64 264.35C367.571 265.496 366.3 266.435 364.89 267.12C362.582 268.24 360.153 269.089 357.65 269.65C352.971 270.735 348.2 271.375 343.4 271.56L342.93 267.79C345.12 267.27 347.36 266.69 349.54 266.08C351.72 265.47 353.89 264.79 355.97 264.03C357.957 263.347 359.873 262.473 361.69 261.42C362.351 261.034 362.939 260.537 363.43 259.95C363.56 259.75 363.56 259.7 363.54 259.7C363.56 259.404 363.56 259.106 363.54 258.81C363.502 257.841 363.399 256.875 363.23 255.92C363.07 254.92 362.85 253.8 362.61 252.7C362.11 250.56 361.55 248.37 360.92 246.18C359.67 241.84 358.26 237.43 356.85 233.18L364.14 230.72Z" fill="#CE7A63"/>
<path d="M333.74 269.41L334.21 271.15C334.351 271.709 334.671 272.206 335.12 272.567C335.569 272.928 336.124 273.133 336.7 273.15L339.92 273.24L339.33 265.75L336.05 266.12C335.702 266.155 335.364 266.258 335.056 266.424C334.748 266.59 334.475 266.815 334.254 267.086C334.033 267.357 333.868 267.67 333.767 268.005C333.667 268.34 333.634 268.692 333.67 269.04C333.685 269.165 333.708 269.288 333.74 269.41Z" fill="#CE7A63"/>
<path d="M360.73 222.34C364.09 223.71 366.84 234.75 366.84 234.75L357.56 242C357.56 242 350.98 231.7 352.32 227.23C353.46 223.45 356.45 220.61 360.73 222.34Z" fill="#263238"/>
<path d="M396.6 402.94H396.48C396.312 402.929 396.15 402.875 396.009 402.784C395.867 402.693 395.751 402.568 395.67 402.42C395.611 402.335 395.575 402.235 395.566 402.132C395.557 402.028 395.576 401.924 395.62 401.83C396.03 401.03 398.62 400.71 398.9 400.68C398.933 400.674 398.968 400.678 398.998 400.692C399.029 400.707 399.054 400.731 399.07 400.76C399.089 400.788 399.099 400.821 399.099 400.855C399.099 400.889 399.089 400.922 399.07 400.95C398.53 401.68 397.48 402.88 396.6 402.94ZM398.55 401.07C397.55 401.22 396.14 401.55 395.94 401.99C395.916 402.027 395.903 402.071 395.903 402.115C395.903 402.159 395.916 402.203 395.94 402.24C395.987 402.343 396.062 402.43 396.155 402.494C396.249 402.557 396.357 402.594 396.47 402.6C396.97 402.6 397.77 402.06 398.57 401.07H398.55Z" fill="#263238"/>
<path d="M398.78 401C397.91 401 396.17 400.69 395.78 400C395.718 399.88 395.698 399.743 395.723 399.611C395.749 399.478 395.818 399.358 395.92 399.27C396.008 399.173 396.117 399.097 396.238 399.047C396.359 398.997 396.489 398.974 396.62 398.98C397.67 398.98 399 400.59 399.04 400.68C399.055 400.704 399.063 400.732 399.063 400.76C399.063 400.788 399.055 400.816 399.04 400.84C399.032 400.869 399.015 400.896 398.992 400.915C398.969 400.935 398.94 400.947 398.91 400.95L398.78 401ZM396.56 399.34C396.419 399.354 396.288 399.418 396.19 399.52C396.04 399.68 396.07 399.78 396.11 399.86C396.34 400.3 397.71 400.66 398.59 400.66C398.089 400.031 397.409 399.567 396.64 399.33L396.56 399.34Z" fill="#263238"/>
<path d="M300.67 410.61C300.114 410.429 299.629 410.079 299.28 409.61C299.201 409.472 299.153 409.318 299.139 409.159C299.125 409 299.146 408.84 299.2 408.69C299.227 408.604 299.277 408.526 299.344 408.465C299.41 408.403 299.492 408.36 299.58 408.34C300.5 408.17 302.67 410.5 303.09 410.97C303.11 411 303.12 411.034 303.12 411.07C303.12 411.106 303.11 411.14 303.09 411.17C303.073 411.202 303.046 411.227 303.014 411.241C302.981 411.256 302.945 411.259 302.91 411.25C302.144 411.113 301.393 410.899 300.67 410.61ZM299.98 408.73C299.878 408.681 299.764 408.66 299.65 408.67C299.65 408.67 299.56 408.67 299.52 408.79C299.48 408.894 299.464 409.006 299.475 409.117C299.485 409.228 299.521 409.335 299.58 409.43C299.89 409.97 300.96 410.48 302.48 410.81C301.767 409.992 300.93 409.29 300 408.73H299.98Z" fill="#263238"/>
<path d="M302.9 411.23H302.84C302.11 410.5 300.92 408.31 301.33 407.61C301.42 407.46 301.61 407.3 302.04 407.42C303.65 407.89 303.16 411.01 303.13 411.14C303.13 411.173 303.118 411.204 303.096 411.229C303.073 411.253 303.043 411.267 303.01 411.27C302.99 411.274 302.969 411.273 302.949 411.266C302.93 411.259 302.913 411.246 302.9 411.23ZM302.1 407.74H302C301.84 407.69 301.72 407.74 301.68 407.74C301.44 408.15 302.21 409.8 302.91 410.68C302.9 409.91 303 408.14 302.1 407.74Z" fill="#263238"/>
<path d="M333.08 191.23C333.08 191.23 329.08 197.92 332.08 200.85C335.08 203.78 335.96 193.39 335.96 193.39L333.08 191.23Z" fill="#263238"/>
<path d="M351.66 206.93C351.66 206.93 356.66 199.11 354.58 191.34C352.5 183.57 342.78 188.59 338.68 186.46C337.178 185.547 335.578 184.806 333.91 184.25C333.642 184.171 333.359 184.154 333.084 184.2C332.808 184.247 332.547 184.357 332.32 184.52C331.32 185.4 333.06 187.05 333.6 187.67C333.268 187.286 332.884 186.949 332.46 186.67C331.93 186.32 331.22 186.29 331.46 187.18C331.871 188.136 332.608 188.916 333.54 189.38C333.15 189.16 330.84 187.99 330.68 188.72C330.66 188.897 330.706 189.075 330.81 189.22C332.31 192.02 335.33 195.54 338.81 195.61C343 195.67 347 207.46 351.66 206.93Z" fill="#263238"/>
<path d="M353.43 207.28C353.17 209.92 349.25 209.95 349.25 209.95C348.609 211.461 347.542 212.753 346.18 213.67C346.06 215.264 346.113 216.867 346.34 218.45C347 220.94 347.84 221.8 348.89 222.36L348.05 223.19C346.442 224.118 344.626 224.623 342.77 224.66L341.67 224.02L340.23 224.25C336.23 222.94 337.23 220.25 337.23 220.25C337.96 218.423 337.999 216.393 337.34 214.54C333.5 213.34 331.93 210 331.39 204.38C330.85 198.76 334.01 193.38 334.01 193.38C338.35 197.57 346.95 194.88 346.95 194.88C346.58 202.76 350.26 205.67 350.26 205.67C351.47 204.59 353.68 204.65 353.43 207.28Z" fill="#CE7A63"/>
<path d="M339.47 208C340.502 207.711 341.394 207.057 341.98 206.16C342.027 206.089 342.045 206.003 342.031 205.919C342.016 205.835 341.969 205.76 341.9 205.71C341.866 205.685 341.827 205.667 341.786 205.657C341.745 205.646 341.702 205.645 341.66 205.651C341.619 205.658 341.578 205.672 341.542 205.694C341.506 205.717 341.475 205.746 341.45 205.78C341.113 206.387 340.59 206.869 339.958 207.157C339.326 207.445 338.619 207.523 337.94 207.38C337.859 207.355 337.772 207.363 337.697 207.402C337.622 207.442 337.565 207.509 337.54 207.59C337.515 207.672 337.522 207.761 337.562 207.838C337.601 207.914 337.668 207.973 337.75 208C338.314 208.147 338.906 208.147 339.47 208Z" fill="#263238"/>
<path d="M340.61 201.12C340.61 201.63 340.41 202.07 340.07 202.12C339.73 202.17 339.42 201.75 339.38 201.24C339.34 200.73 339.59 200.24 339.93 200.24C340.27 200.24 340.57 200.6 340.61 201.12Z" fill="#263238"/>
<path d="M334.49 200.86C334.49 201.37 334.29 201.81 333.95 201.86C333.61 201.91 333.31 201.49 333.27 200.98C333.23 200.47 333.47 200.03 333.81 199.98C334.15 199.93 334.46 200.34 334.49 200.86Z" fill="#263238"/>
<path d="M336.11 205.81L336.04 202.11L334.2 205.23C334.455 205.464 334.758 205.638 335.089 205.738C335.42 205.838 335.769 205.863 336.11 205.81Z" fill="#BA4D3C"/>
<path d="M343.4 198C343.444 197.988 343.484 197.968 343.52 197.94C343.569 197.911 343.611 197.873 343.645 197.827C343.679 197.782 343.703 197.73 343.716 197.675C343.729 197.62 343.731 197.563 343.721 197.507C343.712 197.451 343.691 197.398 343.66 197.35C343.327 196.792 342.844 196.338 342.266 196.041C341.688 195.744 341.038 195.616 340.39 195.67C340.334 195.676 340.279 195.694 340.23 195.721C340.181 195.749 340.137 195.786 340.103 195.831C340.068 195.876 340.043 195.927 340.029 195.982C340.015 196.037 340.012 196.094 340.02 196.15C340.035 196.263 340.094 196.365 340.184 196.434C340.274 196.503 340.387 196.534 340.5 196.52C340.984 196.49 341.466 196.593 341.895 196.819C342.323 197.045 342.681 197.384 342.93 197.8C342.977 197.879 343.048 197.941 343.132 197.977C343.217 198.013 343.311 198.021 343.4 198Z" fill="#263238"/>
<path d="M332.55 197.59C332.662 197.561 332.759 197.489 332.82 197.39C332.999 197.119 333.254 196.905 333.552 196.776C333.85 196.646 334.179 196.606 334.5 196.66C334.555 196.672 334.612 196.672 334.668 196.661C334.723 196.65 334.776 196.628 334.822 196.596C334.869 196.564 334.909 196.524 334.939 196.476C334.97 196.429 334.99 196.376 335 196.32C335.021 196.209 334.996 196.094 334.933 196C334.869 195.907 334.771 195.842 334.66 195.82C334.165 195.728 333.654 195.788 333.194 195.991C332.734 196.195 332.345 196.532 332.08 196.96C332.024 197.059 332.009 197.175 332.037 197.285C332.064 197.395 332.134 197.49 332.23 197.55C332.328 197.602 332.442 197.617 332.55 197.59Z" fill="#263238"/>
<path d="M350.52 222.71L348.37 224.81L344.54 228.57L343.1 226.28L341.67 224.02L346.67 218.06L350.31 222.46L350.52 222.71Z" fill="white"/>
<path d="M341.67 224.02L340.56 225.87L338.93 228.57L335.19 221.82L337.58 219.01L341.67 224.02Z" fill="white"/>
</svg>
