<svg width="677" height="787" viewBox="0 0 677 787" fill="none" xmlns="http://www.w3.org/2000/svg">
<path d="M312 548.56C419.082 548.56 505.89 541.446 505.89 532.67C505.89 523.894 419.082 516.78 312 516.78C204.917 516.78 118.11 523.894 118.11 532.67C118.11 541.446 204.917 548.56 312 548.56Z" fill="#F5F5F5"/>
<path d="M359.68 469.92H342.68C333.83 469.92 326.68 482.75 326.68 498.58C326.68 514.41 333.85 527.23 342.68 527.23H359.68C368.53 527.23 375.68 514.4 375.68 498.58C375.68 482.76 368.53 469.92 359.68 469.92Z" fill="#263238"/>
<mask id="mask0_15_1856" style="mask-type:luminance" maskUnits="userSpaceOnUse" x="326" y="469" width="50" height="59">
<path d="M359.68 469.92H342.68C333.83 469.92 326.68 482.75 326.68 498.58C326.68 514.41 333.85 527.23 342.68 527.23H359.68C368.53 527.23 375.68 514.4 375.68 498.58C375.68 482.76 368.53 469.92 359.68 469.92Z" fill="white"/>
</mask>
<g mask="url(#mask0_15_1856)">
<path opacity="0.05" d="M379.68 469.92H362.68C353.83 469.92 346.68 482.75 346.68 498.58C346.68 514.41 353.85 527.23 362.68 527.23H379.68C388.53 527.23 395.68 514.4 395.68 498.58C395.68 482.76 388.53 469.92 379.68 469.92Z" fill="white"/>
</g>
<path d="M497.39 476.06L199.7 475.85V285.7H497.39V476.06Z" fill="#62BFCC"/>
<path opacity="0.3" d="M497.39 285.7H295.63V476.05H497.39V285.7Z" fill="#263238"/>
<path opacity="0.2" d="M295.63 285.7H199.7V479.81H295.63V285.7Z" fill="white"/>
<path opacity="0.1" d="M200.42 294.54H497.39" stroke="white" stroke-width="2" stroke-linecap="round" stroke-linejoin="round"/>
<path opacity="0.1" d="M200.42 302.77H497.39" stroke="white" stroke-width="2" stroke-linecap="round" stroke-linejoin="round"/>
<path opacity="0.1" d="M200.42 310.99H497.39" stroke="white" stroke-width="2" stroke-linecap="round" stroke-linejoin="round"/>
<path opacity="0.1" d="M200.42 319.21H497.39" stroke="white" stroke-width="2" stroke-linecap="round" stroke-linejoin="round"/>
<path opacity="0.1" d="M200.42 327.44H497.39" stroke="white" stroke-width="2" stroke-linecap="round" stroke-linejoin="round"/>
<path opacity="0.1" d="M200.42 335.66H497.39" stroke="white" stroke-width="2" stroke-linecap="round" stroke-linejoin="round"/>
<path opacity="0.1" d="M200.42 343.88H497.39" stroke="white" stroke-width="2" stroke-linecap="round" stroke-linejoin="round"/>
<path opacity="0.1" d="M200.42 352.1H497.39" stroke="white" stroke-width="2" stroke-linecap="round" stroke-linejoin="round"/>
<path opacity="0.1" d="M200.42 360.33H497.39" stroke="white" stroke-width="2" stroke-linecap="round" stroke-linejoin="round"/>
<path opacity="0.1" d="M200.42 368.55H497.39" stroke="white" stroke-width="2" stroke-linecap="round" stroke-linejoin="round"/>
<path opacity="0.1" d="M200.42 376.77H497.39" stroke="white" stroke-width="2" stroke-linecap="round" stroke-linejoin="round"/>
<path opacity="0.1" d="M200.42 385H497.39" stroke="white" stroke-width="2" stroke-linecap="round" stroke-linejoin="round"/>
<path opacity="0.1" d="M200.42 393.22H497.39" stroke="white" stroke-width="2" stroke-linecap="round" stroke-linejoin="round"/>
<path opacity="0.1" d="M200.42 401.44H497.39" stroke="white" stroke-width="2" stroke-linecap="round" stroke-linejoin="round"/>
<path opacity="0.1" d="M200.42 409.66H497.39" stroke="white" stroke-width="2" stroke-linecap="round" stroke-linejoin="round"/>
<path opacity="0.1" d="M200.42 417.89H497.39" stroke="white" stroke-width="2" stroke-linecap="round" stroke-linejoin="round"/>
<path opacity="0.1" d="M200.42 426.11H497.39" stroke="white" stroke-width="2" stroke-linecap="round" stroke-linejoin="round"/>
<path opacity="0.1" d="M200.42 434.33H497.39" stroke="white" stroke-width="2" stroke-linecap="round" stroke-linejoin="round"/>
<path opacity="0.1" d="M200.42 442.56H497.39" stroke="white" stroke-width="2" stroke-linecap="round" stroke-linejoin="round"/>
<path opacity="0.1" d="M200.42 450.78H497.39" stroke="white" stroke-width="2" stroke-linecap="round" stroke-linejoin="round"/>
<path opacity="0.1" d="M200.42 459H497.39" stroke="white" stroke-width="2" stroke-linecap="round" stroke-linejoin="round"/>
<path opacity="0.1" d="M200.42 467.23H497.39" stroke="white" stroke-width="2" stroke-linecap="round" stroke-linejoin="round"/>
<path d="M145.07 473.66H129.34C121.14 473.66 114.5 485.54 114.5 500.2C114.5 514.86 121.14 526.73 129.34 526.73H145.07C153.27 526.73 159.91 514.85 159.91 500.2C159.91 485.55 153.27 473.66 145.07 473.66Z" fill="#263238"/>
<path opacity="0.05" d="M165.08 473.66H149.34C141.14 473.66 134.5 485.54 134.5 500.2C134.5 514.86 141.14 526.73 149.34 526.73H165.08C173.27 526.73 179.92 514.85 179.92 500.2C179.92 485.55 173.27 473.66 165.08 473.66Z" fill="white"/>
<path d="M136.32 421.83H128.88C127.42 421.88 126.22 420.32 126.19 418.34C126.17 418.134 126.17 417.926 126.19 417.72L128.19 395.25C128.44 392.94 129.87 391.25 131.59 391.14H139.1C140.55 391.14 141.75 392.67 141.78 394.65C141.78 394.85 141.78 395.05 141.78 395.25L139.78 417.72C139.48 420 138 421.77 136.32 421.83Z" fill="#263238"/>
<path d="M143.76 347.61L129.41 425L285.64 486.2L284.55 333.68L250.19 332.68H156.07C150.41 332.63 145.42 338.71 143.76 347.61Z" fill="#62BFCC"/>
<path d="M260 360.06C254.17 359.8 248.94 364.58 247.23 371.71L235.41 421.23H212.66L211.42 486.56H286.25" fill="#62BFCC"/>
<path d="M146 417.07C143.71 417.07 141.86 414.13 141.86 410.51C141.859 409.879 141.919 409.249 142.04 408.63L150.63 363.19C151.35 359.42 153.55 356.84 156.04 356.85H238.22C239.11 356.85 239.84 357.99 239.84 359.41C239.842 359.662 239.819 359.913 239.77 360.16C237.97 369.52 232.12 400.53 229.88 412.39C229.36 415.17 227.74 417.07 225.88 417.07H146Z" fill="#263238"/>
<path d="M221.62 437.21C221.619 438.006 221.562 438.802 221.45 439.59L221.02 442.52L220.77 444.25L218.93 456.89L215.93 477.44L215.1 483.15H98.8101V477.44L98.8901 456.89L99.0001 444.6V439.6C98.0001 433 101.19 426.6 106.05 425.27C106.62 425.114 107.209 425.037 107.8 425.04H212.66C217.61 425 221.62 430.48 221.62 437.21Z" fill="#62BFCC"/>
<path d="M280.73 363V411.71C280.73 414.66 279.22 417.06 277.35 417.07H248.93C247.06 417.07 245.55 414.67 245.55 411.71C245.549 411.227 245.59 410.746 245.67 410.27L254.43 360.47C254.85 358.08 256.25 356.47 257.81 356.56L277.47 357.64C279.29 357.75 280.73 360.12 280.73 363Z" fill="#263238"/>
<path opacity="0.1" d="M193.94 356.85H178.24L160.21 417.07H175.92L193.94 356.85Z" fill="white"/>
<path opacity="0.1" d="M206.16 356.85H198.66L180.64 417.07H188.13L206.16 356.85Z" fill="white"/>
<path d="M251.75 456.89V477.44H98.8301L98.9101 456.89H251.75Z" fill="black"/>
<path d="M230.45 456.89H216.31L190.88 471.83V477.44H251.75V456.89H230.45Z" fill="white"/>
<path d="M125.19 471.83V477.44H98.8301L98.9101 456.89H99.7701L125.19 471.83Z" fill="white"/>
<path opacity="0.3" d="M285.71 486.56L284.55 333.68L263.55 332.68C258.31 332.42 252.26 338.51 250.73 345.57L235.51 425H229.58C222.92 425 218.36 429.85 218.37 435L218.46 486.58H285.71" fill="#263238"/>
<path d="M221.23 443.24C221.228 443.43 221.186 443.617 221.107 443.789C221.027 443.961 220.913 444.115 220.77 444.24C220.526 444.467 220.204 444.592 219.87 444.59H99V441.87H219.9C220.13 441.871 220.356 441.93 220.558 442.042C220.759 442.154 220.928 442.315 221.05 442.51C221.176 442.732 221.239 442.985 221.23 443.24Z" fill="white"/>
<path d="M120.32 441.88V444.6H98.9601L98.9701 441.88H120.32Z" fill="#263238"/>
<path d="M221.23 443.24C221.228 443.43 221.186 443.617 221.107 443.789C221.027 443.961 220.913 444.115 220.77 444.24C220.526 444.467 220.204 444.592 219.87 444.59H190.55V441.87H219.87C220.1 441.871 220.326 441.93 220.528 442.042C220.729 442.154 220.898 442.315 221.02 442.51C221.157 442.729 221.23 442.982 221.23 443.24Z" fill="#263238"/>
<path d="M502.73 481V481.54C502.73 482.866 502.203 484.138 501.266 485.076C500.328 486.013 499.056 486.54 497.73 486.54H100.53C99.2039 486.54 97.9322 486.013 96.9945 485.076C96.0568 484.138 95.53 482.866 95.53 481.54V481C95.53 479.674 96.0568 478.402 96.9945 477.464C97.9322 476.527 99.2039 476 100.53 476H497.73C499.056 476 500.328 476.527 501.266 477.464C502.203 478.402 502.73 479.674 502.73 481Z" fill="#263238"/>
<path d="M188.61 480.11H129.41V483H188.61V480.11Z" fill="black"/>
<path d="M113.66 481.55C113.66 481.876 113.563 482.194 113.383 482.466C113.202 482.737 112.945 482.948 112.644 483.073C112.343 483.199 112.012 483.232 111.692 483.169C111.372 483.106 111.078 482.95 110.847 482.72C110.616 482.49 110.458 482.197 110.393 481.878C110.328 481.559 110.359 481.227 110.483 480.925C110.606 480.624 110.816 480.365 111.086 480.183C111.356 480 111.674 479.902 112 479.9C112.218 479.899 112.433 479.94 112.634 480.023C112.836 480.105 113.019 480.226 113.173 480.38C113.327 480.533 113.45 480.715 113.533 480.916C113.617 481.117 113.66 481.332 113.66 481.55Z" fill="white"/>
<path d="M202.75 481.55C202.75 481.876 202.653 482.195 202.472 482.467C202.291 482.738 202.033 482.949 201.732 483.074C201.43 483.199 201.098 483.232 200.778 483.168C200.458 483.105 200.164 482.947 199.933 482.717C199.703 482.486 199.545 482.192 199.482 481.872C199.418 481.552 199.451 481.22 199.576 480.918C199.701 480.617 199.912 480.359 200.183 480.178C200.455 479.997 200.774 479.9 201.1 479.9C201.317 479.9 201.531 479.943 201.732 480.026C201.932 480.108 202.114 480.23 202.267 480.383C202.42 480.536 202.542 480.718 202.624 480.918C202.707 481.119 202.75 481.333 202.75 481.55Z" fill="white"/>
<path d="M250.59 497.93C250.59 482.02 257.8 469.12 266.7 469.12H249.61C240.72 469.12 233.51 482.02 233.51 497.93C233.51 513.84 240.72 526.73 249.61 526.73H266.7C257.8 526.76 250.59 513.87 250.59 497.93Z" fill="black"/>
<path opacity="0.7" d="M250.59 497.93C250.59 482.02 257.8 469.12 266.7 469.12H249.61C240.72 469.12 233.51 482.02 233.51 497.93C233.51 513.84 240.72 526.73 249.61 526.73H266.7C257.8 526.76 250.59 513.87 250.59 497.93Z" fill="#263238"/>
<path d="M266.7 526.77C275.597 526.77 282.81 513.871 282.81 497.96C282.81 482.049 275.597 469.15 266.7 469.15C257.803 469.15 250.59 482.049 250.59 497.96C250.59 513.871 257.803 526.77 266.7 526.77Z" fill="#263238"/>
<path d="M267.99 520.42C274.297 520.42 279.41 510.364 279.41 497.96C279.41 485.556 274.297 475.5 267.99 475.5C261.683 475.5 256.57 485.556 256.57 497.96C256.57 510.364 261.683 520.42 267.99 520.42Z" fill="white"/>
<path d="M266.95 517.4C272.986 517.4 277.88 508.696 277.88 497.96C277.88 487.223 272.986 478.52 266.95 478.52C260.914 478.52 256.02 487.223 256.02 497.96C256.02 508.696 260.914 517.4 266.95 517.4Z" fill="#263238"/>
<path d="M264.55 512.15C268.957 512.15 272.53 505.797 272.53 497.96C272.53 490.123 268.957 483.77 264.55 483.77C260.143 483.77 256.57 490.123 256.57 497.96C256.57 505.797 260.143 512.15 264.55 512.15Z" fill="black"/>
<path opacity="0.5" d="M502.73 481V481.54C502.73 482.866 502.203 484.138 501.266 485.076C500.328 486.013 499.056 486.54 497.73 486.54H295.63V476H497.73C499.056 476 500.328 476.527 501.266 477.464C502.203 478.402 502.73 479.674 502.73 481Z" fill="black"/>
<path d="M439.92 497.93C439.92 482.02 447.13 469.12 456.02 469.12H438.94C430.04 469.12 422.83 482.02 422.83 497.93C422.83 513.84 430.04 526.73 438.94 526.73H456C447.13 526.76 439.92 513.87 439.92 497.93Z" fill="black"/>
<path opacity="0.7" d="M439.92 497.93C439.92 482.02 447.13 469.12 456.02 469.12H438.94C430.04 469.12 422.83 482.02 422.83 497.93C422.83 513.84 430.04 526.73 438.94 526.73H456C447.13 526.76 439.92 513.87 439.92 497.93Z" fill="#263238"/>
<path d="M456.02 526.77C464.917 526.77 472.13 513.871 472.13 497.96C472.13 482.049 464.917 469.15 456.02 469.15C447.123 469.15 439.91 482.049 439.91 497.96C439.91 513.871 447.123 526.77 456.02 526.77Z" fill="#263238"/>
<path d="M457.32 520.42C463.627 520.42 468.74 510.364 468.74 497.96C468.74 485.556 463.627 475.5 457.32 475.5C451.013 475.5 445.9 485.556 445.9 497.96C445.9 510.364 451.013 520.42 457.32 520.42Z" fill="white"/>
<path d="M456.27 517.4C462.307 517.4 467.2 508.696 467.2 497.96C467.2 487.223 462.307 478.52 456.27 478.52C450.234 478.52 445.34 487.223 445.34 497.96C445.34 508.696 450.234 517.4 456.27 517.4Z" fill="#263238"/>
<path d="M453.87 512.15C458.277 512.15 461.85 505.797 461.85 497.96C461.85 490.123 458.277 483.77 453.87 483.77C449.463 483.77 445.89 490.123 445.89 497.96C445.89 505.797 449.463 512.15 453.87 512.15Z" fill="black"/>
<path d="M390.86 357C390.66 360.85 390.31 364.57 389.74 368.36C389.248 372.275 388.391 376.135 387.18 379.89C386.798 380.984 386.32 382.041 385.75 383.05C385.354 383.73 384.87 384.356 384.31 384.91L384.03 385.17L383.87 385.29L383.79 385.36L383.45 385.59L382.78 386.06C381.082 387.15 379.296 388.097 377.44 388.89C373.919 390.438 370.259 391.65 366.51 392.51L365.21 388.95C368.39 387.19 371.65 385.39 374.62 383.52C376.072 382.629 377.468 381.651 378.8 380.59L379.24 380.22L379.46 380.03C379.46 380.03 379.55 379.88 379.66 379.64C379.952 378.993 380.193 378.325 380.38 377.64C380.832 375.995 381.19 374.326 381.45 372.64C381.76 370.9 382.01 369.13 382.22 367.33C382.63 363.76 382.98 360.1 383.22 356.54L390.86 357Z" fill="#CE7A63"/>
<path d="M367.58 389L361.44 387.1L362.59 394.53C362.59 394.53 366.59 394.03 368.59 391.79L367.58 389Z" fill="#CE7A63"/>
<path d="M354 391.88L354.34 392.88C354.532 393.432 354.898 393.907 355.383 394.234C355.868 394.56 356.446 394.72 357.03 394.69L360.16 394.55L359 387.1L355.56 388.45C354.908 388.71 354.381 389.212 354.09 389.851C353.799 390.49 353.767 391.217 354 391.88Z" fill="#CE7A63"/>
<path d="M398.12 349.79C398.12 352.11 397 356.69 396.04 360.13C395.33 362.6 394.74 364.48 394.74 364.48L393.33 364.13L381.71 361.19C381.53 355.19 381.76 348.66 387.71 344.74C391.43 342.28 398.09 345.66 398.12 349.79Z" fill="#263238"/>
<path opacity="0.3" d="M398.11 350.19C397.35 349.39 395.63 349.25 391.88 350.44C386.51 352.14 385.01 358.02 384.94 362.01L393.33 364.13L394.05 364.32L394.74 364.48C394.74 364.48 395.03 363.54 395.45 362.11C395.62 361.53 395.83 360.85 396.03 360.11C397.031 356.875 397.727 353.554 398.11 350.19Z" fill="black"/>
<path d="M374.27 536.47L367.18 533.99L371.64 518.63L378.72 521.12L374.27 536.47Z" fill="#CE7A63"/>
<path d="M469 518.27L463.23 522.57L451.42 510.6L457.19 506.3L469 518.27Z" fill="#CE7A63"/>
<path d="M460.87 520.82L467.1 515.67C467.206 515.579 467.34 515.528 467.48 515.528C467.62 515.528 467.755 515.579 467.86 515.67L472.64 520.01C472.747 520.117 472.833 520.244 472.891 520.384C472.949 520.524 472.979 520.674 472.979 520.825C472.979 520.976 472.949 521.126 472.891 521.266C472.833 521.406 472.747 521.533 472.64 521.64L472.54 521.73C470.34 523.49 469.18 524.23 466.44 526.49C464.76 527.88 461.23 531.21 458.9 533.13C456.57 535.05 454.55 532.86 455.35 531.85C458.92 527.33 459.75 524.35 460.17 521.91C460.271 521.477 460.518 521.092 460.87 520.82Z" fill="#263238"/>
<path d="M366.7 531.77L374.58 535.06C374.721 535.121 374.837 535.227 374.913 535.36C374.989 535.494 375.019 535.648 375 535.8L374.11 542.75C374.075 543.028 373.931 543.281 373.71 543.454C373.489 543.626 373.208 543.704 372.93 543.67C372.827 543.659 372.725 543.632 372.63 543.59C369.84 542.46 368.53 541.9 365.07 540.45L354.45 536C351.57 534.79 352.19 531.63 353.45 531.86C359.28 532.92 363.04 532.57 365.34 531.7C365.56 531.621 365.794 531.587 366.027 531.599C366.261 531.611 366.489 531.669 366.7 531.77Z" fill="#263238"/>
<path opacity="0.2" d="M371.64 518.64L369.35 526.55L376.25 529.67L378.73 521.12L371.64 518.64Z" fill="black"/>
<path opacity="0.2" d="M457.2 506.3L451.42 510.6L457.51 516.77L463.28 512.47L457.2 506.3Z" fill="black"/>
<path d="M419.92 387.33L390.72 387.75C386.72 365.14 385.72 354.35 385.72 349.16C385.715 347.866 386.162 346.61 386.983 345.61C387.805 344.609 388.95 343.927 390.22 343.68C392 343.33 394.22 342.93 396.45 342.62C397.21 342.52 397.98 342.42 398.74 342.34C403.15 341.962 407.581 341.898 412 342.15C412.66 342.15 413.31 342.21 414 342.25C417 342.44 419.74 342.82 421.69 343.12C422.392 343.233 423.019 343.62 423.436 344.195C423.852 344.771 424.023 345.489 423.91 346.19C423.915 346.24 423.915 346.29 423.91 346.34C423.05 350.34 422.35 353.89 421.79 357.05C420.9 362.05 420.34 366.13 420.01 369.69C419.51 375.558 419.48 381.457 419.92 387.33Z" fill="#263238"/>
<path opacity="0.1" d="M420 369.72C418.53 365.31 418.61 356.16 420.19 353.2L421.8 357.07C420.89 362.1 420.33 366.16 420 369.72Z" fill="black"/>
<path d="M390.72 387.75C390.72 387.75 385.72 430.26 381.21 456.75C377.64 477.49 368.62 520.66 368.62 520.66L380.33 524.81C380.33 524.81 393.74 479.81 396.09 460.59C405.54 432.88 412.34 387.54 412.34 387.54L390.72 387.75Z" fill="#62BFCC"/>
<path d="M366.72 523.56L380.27 528.33L382.08 523.98L367.38 518.36L366.72 523.56Z" fill="#263238"/>
<path opacity="0.1" d="M405.52 400.38L401.14 408.77C399.54 415.09 399.92 430.47 401.95 440.19C405.59 425.54 408.5 410.12 410.31 399.77L405.52 400.38Z" fill="black"/>
<path d="M397.06 387.75C397.06 387.75 402.29 435.33 412.06 461.75C416.96 475 453.31 514.28 453.31 514.28L461.51 507.72C461.51 507.72 438.46 468.09 428.38 457.72C424.27 434.72 429.44 400.24 419.89 387.34L397.06 387.75Z" fill="#62BFCC"/>
<path d="M454 517.09L463.62 509.21L461.02 504.94L450.49 514.11L454 517.09Z" fill="#263238"/>
<path d="M420.38 385.62L421.73 388.21C421.83 388.41 421.6 388.63 421.26 388.63L390.62 389.07C390.35 389.07 390.14 388.94 390.11 388.78L389.82 386.17C389.82 385.99 390.03 385.83 390.31 385.83L419.89 385.4C419.983 385.394 420.077 385.412 420.162 385.45C420.247 385.488 420.322 385.546 420.38 385.62Z" fill="#263238"/>
<path d="M416.41 389H417.22C417.37 389 417.49 388.91 417.48 388.82L417.05 385.42C417.05 385.32 416.91 385.25 416.75 385.25H416C415.84 385.25 415.72 385.34 415.74 385.43L416.16 388.82C416.11 388.9 416.26 389 416.41 389Z" fill="#62BFCC"/>
<path d="M392.82 389.32H393.62C393.78 389.32 393.89 389.23 393.88 389.13L393.47 385.74C393.47 385.64 393.31 385.56 393.15 385.56H392.35C392.19 385.56 392.07 385.65 392.08 385.75L392.5 389.14C392.52 389.24 392.66 389.32 392.82 389.32Z" fill="#62BFCC"/>
<path d="M404.62 389.13H405.42C405.58 389.13 405.7 389.04 405.69 388.94L405.27 385.55C405.27 385.44 405.12 385.36 404.96 385.37H404.16C404 385.37 403.89 385.46 403.89 385.56L404.31 388.95C404.3 389.07 404.46 389.13 404.62 389.13Z" fill="#62BFCC"/>
<path d="M351.64 357.82L394.98 351.87L400.98 394.42L358.42 400.26L351.64 357.82Z" fill="#62BFCC"/>
<path opacity="0.8" d="M351.64 357.82L394.98 351.87L400.98 394.42L358.42 400.26L351.64 357.82Z" fill="white"/>
<path opacity="0.2" d="M395.575 349.815L384.002 351.452L390.21 395.349L401.783 393.712L395.575 349.815Z" fill="#62BFCC"/>
<path d="M407.27 389.06L401.27 386.71L401.86 394.21C401.86 394.21 405.86 394.01 408.01 391.92L407.27 389.06Z" fill="#CE7A63"/>
<path d="M426.14 351.72C427.75 356.22 429.14 360.72 430.32 365.32C430.92 367.63 431.48 369.95 431.93 372.32C432.15 373.52 432.34 374.74 432.48 376.01C432.641 377.337 432.698 378.674 432.65 380.01C432.622 380.88 432.488 381.743 432.25 382.58C431.922 383.61 431.372 384.555 430.64 385.35C429.571 386.496 428.3 387.435 426.89 388.12C424.582 389.24 422.153 390.089 419.65 390.65C414.971 391.735 410.2 392.375 405.4 392.56L404.93 388.79C407.12 388.27 409.36 387.69 411.54 387.08C413.72 386.47 415.89 385.79 417.97 385.03C419.957 384.347 421.873 383.473 423.69 382.42C424.351 382.034 424.939 381.537 425.43 380.95C425.56 380.75 425.56 380.7 425.54 380.7C425.56 380.404 425.56 380.106 425.54 379.81C425.502 378.841 425.399 377.875 425.23 376.92C425.07 375.92 424.85 374.8 424.61 373.7C424.11 371.56 423.55 369.37 422.92 367.18C421.67 362.84 420.26 358.43 418.85 354.18L426.14 351.72Z" fill="#CE7A63"/>
<path d="M395.74 390.41L396.21 392.15C396.351 392.709 396.671 393.206 397.12 393.567C397.569 393.928 398.124 394.133 398.7 394.15L401.92 394.24L401.33 386.75L398.05 387.12C397.702 387.155 397.364 387.258 397.056 387.424C396.748 387.59 396.475 387.815 396.254 388.086C396.033 388.357 395.868 388.67 395.767 389.005C395.667 389.34 395.634 389.692 395.67 390.04C395.685 390.165 395.708 390.288 395.74 390.41Z" fill="#CE7A63"/>
<path d="M422.73 343.34C426.09 344.71 428.84 355.75 428.84 355.75L419.56 363C419.56 363 412.98 352.7 414.32 348.23C415.46 344.45 418.45 341.61 422.73 343.34Z" fill="#263238"/>
<path d="M458.6 523.94H458.48C458.312 523.929 458.15 523.875 458.009 523.784C457.867 523.693 457.751 523.568 457.67 523.42C457.611 523.335 457.575 523.235 457.566 523.132C457.557 523.028 457.576 522.924 457.62 522.83C458.03 522.03 460.62 521.71 460.9 521.68C460.933 521.674 460.968 521.678 460.998 521.692C461.029 521.707 461.054 521.731 461.07 521.76C461.089 521.788 461.099 521.821 461.099 521.855C461.099 521.889 461.089 521.922 461.07 521.95C460.53 522.68 459.48 523.88 458.6 523.94ZM460.55 522.07C459.55 522.22 458.14 522.55 457.94 522.99C457.916 523.027 457.903 523.071 457.903 523.115C457.903 523.159 457.916 523.203 457.94 523.24C457.987 523.343 458.062 523.43 458.155 523.494C458.249 523.557 458.357 523.594 458.47 523.6C458.97 523.6 459.77 523.06 460.57 522.07H460.55Z" fill="#263238"/>
<path d="M460.78 522C459.91 522 458.17 521.69 457.78 521C457.718 520.88 457.698 520.743 457.723 520.611C457.749 520.478 457.818 520.358 457.92 520.27C458.008 520.173 458.117 520.097 458.238 520.047C458.359 519.997 458.489 519.974 458.62 519.98C459.67 519.98 461 521.59 461.04 521.68C461.055 521.704 461.063 521.732 461.063 521.76C461.063 521.788 461.055 521.816 461.04 521.84C461.032 521.869 461.015 521.896 460.992 521.915C460.969 521.935 460.94 521.947 460.91 521.95L460.78 522ZM458.56 520.34C458.419 520.354 458.288 520.418 458.19 520.52C458.04 520.68 458.07 520.78 458.11 520.86C458.34 521.3 459.71 521.66 460.59 521.66C460.089 521.031 459.409 520.567 458.64 520.33L458.56 520.34Z" fill="#263238"/>
<path d="M362.67 531.61C362.114 531.429 361.629 531.079 361.28 530.61C361.201 530.472 361.153 530.318 361.139 530.159C361.125 530 361.146 529.84 361.2 529.69C361.227 529.604 361.277 529.526 361.344 529.465C361.41 529.403 361.492 529.36 361.58 529.34C362.5 529.17 364.67 531.5 365.09 531.97C365.11 532 365.12 532.034 365.12 532.07C365.12 532.106 365.11 532.14 365.09 532.17C365.073 532.202 365.046 532.227 365.014 532.241C364.981 532.256 364.945 532.259 364.91 532.25C364.144 532.113 363.393 531.899 362.67 531.61ZM361.98 529.73C361.878 529.681 361.764 529.66 361.65 529.67C361.65 529.67 361.56 529.67 361.52 529.79C361.48 529.894 361.464 530.006 361.475 530.117C361.485 530.228 361.521 530.335 361.58 530.43C361.89 530.97 362.96 531.48 364.48 531.81C363.767 530.992 362.93 530.29 362 529.73H361.98Z" fill="#263238"/>
<path d="M364.9 532.23H364.84C364.11 531.5 362.92 529.31 363.33 528.61C363.42 528.46 363.61 528.3 364.04 528.42C365.65 528.89 365.16 532.01 365.13 532.14C365.13 532.173 365.118 532.204 365.096 532.229C365.073 532.253 365.043 532.267 365.01 532.27C364.99 532.274 364.969 532.273 364.949 532.266C364.93 532.259 364.913 532.246 364.9 532.23ZM364.1 528.74H364C363.84 528.69 363.72 528.74 363.68 528.74C363.44 529.15 364.21 530.8 364.91 531.68C364.9 530.91 365 529.14 364.1 528.74Z" fill="#263238"/>
<path d="M395.08 312.23C395.08 312.23 391.08 318.92 394.08 321.85C397.08 324.78 397.96 314.39 397.96 314.39L395.08 312.23Z" fill="#263238"/>
<path d="M413.66 327.93C413.66 327.93 418.66 320.11 416.58 312.34C414.5 304.57 404.78 309.59 400.68 307.46C399.178 306.547 397.578 305.806 395.91 305.25C395.642 305.171 395.359 305.154 395.084 305.2C394.808 305.247 394.547 305.357 394.32 305.52C393.32 306.4 395.06 308.05 395.6 308.67C395.268 308.286 394.884 307.949 394.46 307.67C393.93 307.32 393.22 307.29 393.46 308.18C393.871 309.136 394.608 309.916 395.54 310.38C395.15 310.16 392.84 308.99 392.68 309.72C392.66 309.897 392.706 310.075 392.81 310.22C394.31 313.02 397.33 316.54 400.81 316.61C405 316.67 409 328.46 413.66 327.93Z" fill="#263238"/>
<path d="M415.43 328.28C415.17 330.92 411.25 330.95 411.25 330.95C410.609 332.461 409.542 333.753 408.18 334.67C408.06 336.264 408.113 337.867 408.34 339.45C409 341.94 409.84 342.8 410.89 343.36L410.05 344.19C408.442 345.118 406.626 345.623 404.77 345.66L403.67 345.02L402.23 345.25C398.23 343.94 399.23 341.25 399.23 341.25C399.96 339.423 399.999 337.393 399.34 335.54C395.5 334.34 393.93 331 393.39 325.38C392.85 319.76 396.01 314.38 396.01 314.38C400.35 318.57 408.95 315.88 408.95 315.88C408.58 323.76 412.26 326.67 412.26 326.67C413.47 325.59 415.68 325.65 415.43 328.28Z" fill="#CE7A63"/>
<path d="M401.47 329C402.502 328.711 403.394 328.057 403.98 327.16C404.027 327.089 404.045 327.003 404.031 326.919C404.016 326.835 403.969 326.76 403.9 326.71C403.866 326.685 403.827 326.667 403.786 326.657C403.745 326.646 403.702 326.645 403.66 326.651C403.619 326.658 403.578 326.672 403.542 326.694C403.506 326.717 403.475 326.746 403.45 326.78C403.113 327.387 402.59 327.869 401.958 328.157C401.326 328.445 400.619 328.523 399.94 328.38C399.859 328.355 399.772 328.363 399.697 328.402C399.622 328.442 399.565 328.509 399.54 328.59C399.515 328.672 399.522 328.761 399.562 328.838C399.601 328.914 399.668 328.973 399.75 329C400.314 329.147 400.906 329.147 401.47 329Z" fill="#263238"/>
<path d="M402.61 322.12C402.61 322.63 402.41 323.07 402.07 323.12C401.73 323.17 401.42 322.75 401.38 322.24C401.34 321.73 401.59 321.24 401.93 321.24C402.27 321.24 402.57 321.6 402.61 322.12Z" fill="#263238"/>
<path d="M396.49 321.86C396.49 322.37 396.29 322.81 395.95 322.86C395.61 322.91 395.31 322.49 395.27 321.98C395.23 321.47 395.47 321.03 395.81 320.98C396.15 320.93 396.46 321.34 396.49 321.86Z" fill="#263238"/>
<path d="M398.11 326.81L398.04 323.11L396.2 326.23C396.455 326.464 396.758 326.638 397.089 326.738C397.42 326.838 397.769 326.863 398.11 326.81Z" fill="#BA4D3C"/>
<path d="M405.4 319C405.444 318.988 405.484 318.968 405.52 318.94C405.569 318.911 405.611 318.873 405.645 318.827C405.679 318.782 405.703 318.73 405.716 318.675C405.729 318.62 405.731 318.563 405.721 318.507C405.712 318.451 405.691 318.398 405.66 318.35C405.327 317.792 404.844 317.338 404.266 317.041C403.688 316.744 403.038 316.616 402.39 316.67C402.334 316.676 402.279 316.694 402.23 316.721C402.181 316.749 402.137 316.786 402.103 316.831C402.068 316.876 402.043 316.927 402.029 316.982C402.015 317.037 402.012 317.094 402.02 317.15C402.035 317.263 402.094 317.365 402.184 317.434C402.274 317.503 402.387 317.534 402.5 317.52C402.984 317.49 403.466 317.593 403.895 317.819C404.323 318.045 404.681 318.384 404.93 318.8C404.977 318.879 405.048 318.941 405.132 318.977C405.217 319.013 405.311 319.021 405.4 319Z" fill="#263238"/>
<path d="M394.55 318.59C394.662 318.561 394.759 318.489 394.82 318.39C394.999 318.119 395.254 317.905 395.552 317.776C395.85 317.646 396.179 317.606 396.5 317.66C396.555 317.672 396.612 317.672 396.668 317.661C396.723 317.65 396.776 317.628 396.822 317.596C396.869 317.564 396.909 317.524 396.939 317.476C396.97 317.429 396.99 317.376 397 317.32C397.021 317.209 396.996 317.094 396.933 317C396.869 316.907 396.771 316.842 396.66 316.82C396.165 316.728 395.654 316.788 395.194 316.991C394.734 317.195 394.345 317.532 394.08 317.96C394.024 318.059 394.009 318.175 394.037 318.285C394.064 318.395 394.134 318.49 394.23 318.55C394.328 318.602 394.442 318.617 394.55 318.59Z" fill="#263238"/>
<path d="M412.52 343.71L410.37 345.81L406.54 349.57L405.1 347.28L403.67 345.02L408.67 339.06L412.31 343.46L412.52 343.71Z" fill="white"/>
<path d="M403.67 345.02L402.56 346.87L400.93 349.57L397.19 342.82L399.58 340.01L403.67 345.02Z" fill="white"/>
<path d="M262 1.00003C144.8 5.80003 26 171 47.5001 202C75 218 77.9999 198.5 113 183C148 167.5 251.5 176.5 294 141C336.5 105.5 408.5 -4.99997 262 1.00003Z" fill="#73D0DD"/>
<circle cx="661" cy="81" r="50" fill="#73D0DD"/>
<path d="M14.79 665.77C23.2197 732.152 69.1577 717.473 143.693 756.855C205.291 794.621 149.898 601.769 116.104 665.911C82.3098 730.054 4.25296 582.793 14.79 665.77Z" fill="#73D0DD"/>
<path d="M588 367.5C624.4 601.1 428 657 328.5 637.5C217.5 607 385 824.5 560 668C700 542.8 637 414.833 588 366.5C572.833 269.5 551.6 133.9 588 367.5Z" fill="#73D0DD"/>
</svg>
