<svg width="679" height="796" viewBox="0 0 679 796" fill="none" xmlns="http://www.w3.org/2000/svg">
<path d="M230.19 207.92C230.19 207.92 154.42 246.52 116.63 306C78.84 365.48 81.83 442 127.75 498.8C173.67 555.6 261.44 548.14 334.93 584.12C408.42 620.1 489.5 612.69 524.25 536.46C559 460.23 506.6 431.74 497.6 343.52C488.6 255.3 409.07 126.12 230.19 207.92Z" fill="#62BFCC"/>
<path opacity="0.7" d="M230.19 207.92C230.19 207.92 154.42 246.52 116.63 306C78.84 365.48 81.83 442 127.75 498.8C173.67 555.6 261.44 548.14 334.93 584.12C408.42 620.1 489.5 612.69 524.25 536.46C559 460.23 506.6 431.74 497.6 343.52C488.6 255.3 409.07 126.12 230.19 207.92Z" fill="white"/>
<path d="M432.36 220.82C424.82 216.71 421.36 220.14 418.65 216.71C415.94 213.28 426.19 204.37 405.65 195.46C405.65 195.46 404.28 176.27 376.17 175.58C348.06 174.89 355.61 194.78 348.07 199.58C340.53 204.38 338.47 196.84 330.93 201.64C323.39 206.44 326.8 216 320.63 217.4C314.46 218.8 306.23 211.23 298.69 216.03C291.15 220.83 291.15 224.94 287.69 224.94C284.23 224.94 277.4 222.2 273.29 224.94C269.18 227.68 264.38 231.11 264.38 231.11H437.85C437.85 231.11 439.9 224.94 432.36 220.82Z" stroke="#263238" stroke-linecap="round" stroke-linejoin="round"/>
<path d="M329.77 218C328.787 218.554 327.764 219.036 326.71 219.44" stroke="#263238" stroke-linecap="round" stroke-linejoin="round"/>
<path d="M366.87 186C365.169 186.759 363.674 187.914 362.511 189.368C361.347 190.823 360.548 192.534 360.18 194.36C358.92 200.64 355.99 204.82 352.65 205.24C349.31 205.66 336.75 204.4 334.65 209.01C334.091 210.357 333.698 211.768 333.48 213.21" stroke="#263238" stroke-linecap="round" stroke-linejoin="round"/>
<path d="M263.06 270.1C259.11 267.95 257.31 269.74 255.87 267.95C254.43 266.16 259.82 261.48 249.04 256.8C249.04 256.8 248.32 246.74 233.59 246.38C218.86 246.02 222.8 256.44 218.85 259C214.9 261.56 213.85 257.56 209.85 260.08C205.85 262.6 207.7 267.63 204.46 268.35C201.22 269.07 196.91 265.11 192.96 267.63C189.01 270.15 188.96 272.3 187.21 272.3C185.46 272.3 181.82 270.86 179.66 272.3C177.5 273.74 174.99 275.53 174.99 275.53H265.92C265.92 275.53 267 272.26 263.06 270.1Z" stroke="#263238" stroke-linecap="round" stroke-linejoin="round"/>
<path d="M209.27 268.63C208.75 268.914 208.212 269.164 207.66 269.38" stroke="#263238" stroke-linecap="round" stroke-linejoin="round"/>
<path d="M228.72 251.84C227.828 252.237 227.044 252.842 226.433 253.604C225.823 254.366 225.403 255.263 225.21 256.22C224.55 259.51 223.02 261.71 221.21 261.93C219.4 262.15 212.88 261.49 211.78 263.93C211.49 264.637 211.282 265.375 211.16 266.13" stroke="#263238" stroke-linecap="round" stroke-linejoin="round"/>
<path d="M380.65 345.32C380.65 345.32 427.78 349.99 451.65 379.2C451.65 379.2 476.89 345.36 522.22 346.05C533.293 332.689 540.343 316.457 542.549 299.245C544.755 282.032 542.026 264.547 534.68 248.826C527.334 233.104 515.674 219.792 501.056 210.44C486.439 201.088 469.465 196.081 452.112 196.001C434.759 195.922 417.741 200.773 403.038 209.99C388.335 219.208 376.553 232.412 369.063 248.065C361.573 263.719 358.684 281.178 360.732 298.41C362.78 315.642 369.68 331.938 380.63 345.4L380.65 345.32Z" fill="#62BFCC"/>
<path opacity="0.5" d="M380.65 345.32C380.65 345.32 427.78 349.99 451.65 379.2C451.65 379.2 476.89 345.36 522.22 346.05C533.293 332.689 540.343 316.457 542.549 299.245C544.755 282.032 542.026 264.547 534.68 248.826C527.334 233.104 515.674 219.792 501.056 210.44C486.439 201.088 469.465 196.081 452.112 196.001C434.759 195.922 417.741 200.773 403.038 209.99C388.335 219.208 376.553 232.412 369.063 248.065C361.573 263.719 358.684 281.178 360.732 298.41C362.78 315.642 369.68 331.938 380.63 345.4L380.65 345.32Z" fill="white"/>
<path d="M450.11 202.46L448.51 562.76H456.47L450.11 202.46Z" fill="#263238"/>
<path d="M452.49 370.3C452.49 370.3 468.4 341.66 497 332.91C497 332.91 466.77 340.07 451.66 364.73L452.49 370.3Z" fill="#263238"/>
<path d="M452.49 289.16C452.49 289.16 468.4 260.53 497 251.78C497 251.78 466.77 258.94 451.66 283.59L452.49 289.16Z" fill="#263238"/>
<path d="M452.49 329.73C452.49 329.73 468.4 301.09 497 292.34C497 292.34 466.77 299.5 451.66 324.16L452.49 329.73Z" fill="#263238"/>
<path d="M450.13 309.84C450.13 309.84 434.78 281.21 407.13 272.46C407.13 272.46 436.3 279.62 450.88 304.28L450.13 309.84Z" fill="#263238"/>
<path d="M450.13 349.61C450.13 349.61 434.78 320.98 407.13 312.23C407.13 312.23 436.3 319.39 450.88 344.05L450.13 349.61Z" fill="#263238"/>
<path d="M233.16 382.67C233.16 382.67 272.16 386.54 291.97 410.73C291.97 410.73 312.87 382.73 350.41 383.28C359.584 372.214 365.426 358.77 367.255 344.512C369.084 330.255 366.825 315.771 360.742 302.748C354.658 289.724 345.001 278.697 332.893 270.95C320.785 263.203 306.725 259.055 292.351 258.988C277.977 258.922 263.88 262.941 251.701 270.576C239.522 278.211 229.763 289.149 223.56 302.116C217.357 315.083 214.965 329.545 216.663 343.819C218.361 358.092 224.078 371.59 233.15 382.74L233.16 382.67Z" fill="#62BFCC"/>
<path opacity="0.3" d="M233.16 382.67C233.16 382.67 272.16 386.54 291.97 410.73C291.97 410.73 312.87 382.73 350.41 383.28C359.584 372.214 365.426 358.77 367.255 344.512C369.084 330.255 366.825 315.771 360.742 302.748C354.658 289.724 345.001 278.697 332.893 270.95C320.785 263.203 306.725 259.055 292.351 258.988C277.977 258.922 263.88 262.941 251.701 270.576C239.522 278.211 229.763 289.149 223.56 302.116C217.357 315.083 214.965 329.545 216.663 343.819C218.361 358.092 224.078 371.59 233.15 382.74L233.16 382.67Z" fill="white"/>
<path d="M290.68 264.35L289.37 562.76H295.95L290.68 264.35Z" fill="#263238"/>
<path d="M292.66 403.36C292.66 403.36 305.83 379.64 329.55 372.36C329.55 372.36 304.55 378.29 292 398.71L292.66 403.36Z" fill="#263238"/>
<path d="M292.66 336.16C292.66 336.16 305.83 312.44 329.55 305.16C329.55 305.16 304.55 311.09 292 331.52L292.66 336.16Z" fill="#263238"/>
<path d="M292.66 369.76C292.66 369.76 305.83 346.04 329.55 338.76C329.55 338.76 304.55 344.69 292 365.12L292.66 369.76Z" fill="#263238"/>
<path d="M290.71 353.29C290.71 353.29 277.99 329.57 255.11 322.29C255.11 322.29 279.26 328.22 291.34 348.65L290.71 353.29Z" fill="#263238"/>
<path d="M290.71 386.23C290.71 386.23 277.99 362.51 255.11 355.23C255.11 355.23 279.26 361.16 291.34 381.59L290.71 386.23Z" fill="#263238"/>
<path d="M325.13 562.42C324.99 559.29 325.4 553.35 328.77 544.42C334.05 530.42 343.3 558.42 343.3 558.42C343.3 558.42 343.3 555.09 353.21 544.42C363.12 533.75 371.7 552.42 371.7 552.42C371.7 552.42 367.08 507.76 378.31 511.09C389.54 514.42 388.21 552.42 388.21 552.42C388.21 552.42 396.14 524.42 406.71 524.42C417.28 524.42 419.92 544.42 419.92 544.42C419.92 544.42 422.56 509.09 433.13 508.42C443.7 507.75 455.58 537.76 455.58 537.76C455.58 537.76 452.28 497.76 462.85 495.76C473.42 493.76 477.38 510.42 477.38 510.42C477.38 510.42 486.62 455.09 504.46 461.76C522.3 468.43 507.1 529.76 507.1 529.76C507.1 529.76 524.93 487.09 539.46 497.09C552.67 506.18 535.86 553.83 532.7 562.42H325.13Z" fill="#62BFCC"/>
<path d="M538.33 562.33C538.33 562.33 546.07 538.42 542.1 534.42C538.13 530.42 521 547.76 521 547.76C521 547.76 533.55 505.09 513.73 499.76C493.91 494.43 490.62 541.09 490.62 541.09C490.62 541.09 476.09 519.76 472.78 527.76C470.786 532.636 469.669 537.826 469.48 543.09C469.48 543.09 462.22 485.09 445.7 487.76C429.18 490.43 444.38 547.76 444.38 547.76C444.38 547.76 435.14 527.76 424.57 529.76C414 531.76 410 544.42 410 544.42C410 544.42 405.38 533.09 402.07 533.09C398.76 533.09 394.81 553.09 394.81 553.09C394.81 553.09 390.81 522.42 383.58 523.76C376.35 525.1 361.12 551.09 361.12 551.09C361.12 551.09 363.77 536.42 355.84 535.76C347.91 535.1 343.29 558.42 343.29 558.42C343.29 558.42 332.72 536.42 326.12 540.42C319.52 544.42 322.67 563 322.67 563" stroke="#263238" stroke-linecap="round" stroke-linejoin="round"/>
<path d="M502.67 562L508.42 533.76" stroke="#263238" stroke-linecap="round" stroke-linejoin="round"/>
<path d="M461.53 562.42L458.22 543.76" stroke="#263238" stroke-linecap="round" stroke-linejoin="round"/>
<path d="M378 562.33L382.27 547.09" stroke="#263238" stroke-linecap="round" stroke-linejoin="round"/>
<path d="M429.16 563.09L421.9 549.76" stroke="#263238" stroke-linecap="round" stroke-linejoin="round"/>
<path d="M503.8 551.09L498.51 540.42" stroke="#263238" stroke-linecap="round" stroke-linejoin="round"/>
<path d="M461.53 556.42L466.15 547.09" stroke="#263238" stroke-linecap="round" stroke-linejoin="round"/>
<path d="M425.86 555.76L429.16 549.76" stroke="#263238" stroke-linecap="round" stroke-linejoin="round"/>
<path d="M379.33 556.67L376.99 548.42" stroke="#263238" stroke-linecap="round" stroke-linejoin="round"/>
<path d="M295 562.57C295.11 560.14 294.8 555.57 292.33 548.57C288.46 537.7 281.67 559.44 281.67 559.44C281.67 559.44 281.67 556.85 274.41 548.57C267.15 540.29 260.85 554.78 260.85 554.78C260.85 554.78 264.24 520.11 256 522.7C247.76 525.29 248.74 554.78 248.74 554.78C248.74 554.78 243 533.08 235.2 533.08C227.4 533.08 225.51 548.6 225.51 548.6C225.51 548.6 223.58 521.17 215.83 520.66C208.08 520.15 199.36 543.42 199.36 543.42C199.36 543.42 201.78 512.42 194.03 510.82C186.28 509.22 183.37 522.21 183.37 522.21C183.37 522.21 176.59 479.26 163.51 484.43C150.43 489.6 161.57 537.22 161.57 537.22C161.57 537.22 148.49 504.1 137.84 511.86C128.15 518.92 140.48 555.86 142.84 562.57H295Z" fill="#62BFCC"/>
<path d="M138.67 562.5C138.67 562.5 133 543.94 135.9 540.84C138.8 537.74 151.4 551.19 151.4 551.19C151.4 551.19 142.2 518.07 156.73 513.93C171.26 509.79 173.73 546.01 173.73 546.01C173.73 546.01 184.39 529.45 186.81 535.66C188.275 539.464 189.093 543.486 189.23 547.56C189.23 547.56 194.56 502.56 206.67 504.61C218.78 506.66 207.67 551.19 207.67 551.19C207.67 551.19 214.45 535.66 222.2 537.19C229.95 538.72 232.86 548.57 232.86 548.57C232.86 548.57 236.25 539.77 238.67 539.77C241.09 539.77 244 555.3 244 555.3C244 555.3 246.91 531.49 252.24 532.53C257.57 533.57 268.71 553.74 268.71 553.74C268.71 553.74 266.77 542.36 272.58 541.84C278.39 541.32 281.78 559.44 281.78 559.44C281.78 559.44 289.53 542.36 294.38 545.44C299.23 548.52 296.84 563 296.84 563" stroke="#263238" stroke-linecap="round" stroke-linejoin="round"/>
<path d="M164.82 562.24L160.6 540.32" stroke="#263238" stroke-linecap="round" stroke-linejoin="round"/>
<path d="M195 562.57L197.42 548.08" stroke="#263238" stroke-linecap="round" stroke-linejoin="round"/>
<path d="M256.26 562.5L253.12 550.67" stroke="#263238" stroke-linecap="round" stroke-linejoin="round"/>
<path d="M218.73 563.09L224.06 552.74" stroke="#263238" stroke-linecap="round" stroke-linejoin="round"/>
<path d="M164 553.77L167.87 545.49" stroke="#263238" stroke-linecap="round" stroke-linejoin="round"/>
<path d="M195 557.91L191.61 550.67" stroke="#263238" stroke-linecap="round" stroke-linejoin="round"/>
<path d="M221.15 557.4L218.73 552.74" stroke="#263238" stroke-linecap="round" stroke-linejoin="round"/>
<path d="M255.28 558.1L257 551.7" stroke="#263238" stroke-linecap="round" stroke-linejoin="round"/>
<path d="M81 562.76H558" stroke="#263238" stroke-linecap="round" stroke-linejoin="round"/>
<path d="M445.28 479.58L440.4 486.91L400.3 504.34C400.3 504.34 394.72 505.39 394.72 507.13C394.72 508.87 393.67 513.76 394.72 514.46C395.77 515.16 402.72 512.71 402.72 512.71C402.72 512.71 400.63 515.15 402.72 515.85C404.81 516.55 406.9 513.41 406.9 513.41C408.948 512.12 410.927 510.725 412.83 509.23C413.812 507.939 414.632 506.532 415.27 505.04L452.27 495.63L459.94 484.12C459.94 484.12 444.24 482.37 445.28 479.58Z" fill="#B5B5B5" stroke="#263238" stroke-linecap="round" stroke-linejoin="round"/>
<path d="M448.07 463.14L443.53 478.04L455.4 485.11L460.19 473.49L448.07 463.14Z" fill="white" stroke="#263238" stroke-linecap="round" stroke-linejoin="round"/>
<path d="M444 473.24L458.4 481.83L455.87 486.37L442.24 479.3C442.334 477.168 442.938 475.09 444 473.24Z" fill="white" stroke="#263238" stroke-linecap="round" stroke-linejoin="round"/>
<path d="M415.5 552C415.5 552 405.4 557.05 402.62 559.32C399.84 561.59 399.34 561.32 400.09 563.11H432.42L431.66 551.49L415.5 552Z" fill="white" stroke="#263238" stroke-linecap="round" stroke-linejoin="round"/>
<path d="M432.3 561.37H400.09C399.65 561.84 399.7 562.22 400.09 563.14H432.42L432.3 561.37Z" fill="white" stroke="#263238" stroke-linecap="round" stroke-linejoin="round"/>
<path d="M458.93 491.93C458.93 491.93 446.56 486.88 436.46 485.87C426.36 484.86 405.4 485.36 404.39 489.87C403.38 494.38 419.29 543.87 419.29 543.87C419.29 543.87 416.51 545.64 416.29 546.87C416.07 548.1 415.54 551.87 415.54 551.87L431.7 554.39C431.7 554.39 432.2 549.34 432.2 544.55C432.2 539.76 426.65 510.2 426.65 510.2L459.22 520.56L447.1 546.31C447.1 546.31 443.32 553.89 447.61 557.68C451.9 561.47 458.97 560.68 458.97 560.68L516.55 561.44L515.55 552.09C515.55 552.09 507.22 550.83 505.7 550.83C504.18 550.83 475.14 543.51 475.14 543.51C475.14 543.51 498.38 519.26 500.9 515.22C502.4 512.983 503.421 510.461 503.899 507.81C504.377 505.16 504.303 502.44 503.68 499.82C502.16 493.76 501.15 492.49 501.15 492.49C501.15 492.49 483.43 501 474.34 499C468.772 497.727 463.527 495.32 458.93 491.93Z" fill="#263238" stroke="#263238" stroke-linecap="round" stroke-linejoin="round"/>
<path d="M417.77 414.4C417.77 414.4 419.54 420.21 419.54 420.97C419.54 421.73 418.27 425.51 419.29 426.77C420.31 428.03 423.29 428.29 423.29 428.29C423.29 428.29 427.83 433.59 429.85 435.61C431.87 437.63 434.14 438.39 436.67 437.13C439.2 435.87 441.47 432.58 441.47 432.58L446.27 437.38L457.38 424.5L453.38 419.45C453.38 419.45 454.38 413.64 450.6 406.07C446.82 398.5 433.68 396.47 425.09 397.99C416.5 399.51 414.49 404.55 414.49 405.56C414.49 406.57 417.77 414.4 417.77 414.4Z" fill="white" stroke="#263238" stroke-linecap="round" stroke-linejoin="round"/>
<path d="M422.32 391.42C422.32 391.42 417.01 387.42 413.48 389.15C409.95 390.88 411.48 392.43 410.95 395.46C410.42 398.49 401.61 398.74 401.61 403.79C401.61 408.84 407.92 410.61 409.18 410.86C410.44 411.11 409.44 416.67 413.18 416.67C416.92 416.67 417.73 414.4 417.73 414.4C417.73 414.4 414.95 406.32 417.98 405.06C421.01 403.8 427.83 401.27 426.82 406.06C425.81 410.85 429.35 412.37 431.37 411.87C433.39 411.37 435.91 411.61 436.37 412.62C436.83 413.63 439.37 415.4 439.37 412.88C439.37 410.36 440.63 408.08 442.9 408.08C445.17 408.08 446.9 411.87 446.69 414.9C446.52 416.725 445.825 418.461 444.69 419.9L453.28 419.39C453.28 419.39 455.55 408.03 453.53 399.95C451.51 391.87 442 387.38 436.2 386.62C430.4 385.86 423.07 389.15 422.32 391.42Z" fill="#263238" stroke="#263238" stroke-linecap="round" stroke-linejoin="round"/>
<path d="M424.49 418.91C425.12 419.91 425.27 420.91 424.84 421.16C424.41 421.41 423.53 420.91 422.91 419.95C422.29 418.99 422.12 417.95 422.56 417.7C423 417.45 423.86 418 424.49 418.91Z" fill="#263238"/>
<path d="M427.77 430.25C428.977 430.01 430.07 429.378 430.881 428.452C431.691 427.526 432.172 426.358 432.25 425.13" stroke="#263238" stroke-linecap="round" stroke-linejoin="round"/>
<path d="M420.08 416.8C420.08 416.8 420.5 414.45 423.28 415.52" stroke="#263238" stroke-linecap="round" stroke-linejoin="round"/>
<path d="M446.81 441.67C446.81 441.67 444.81 458.34 447.06 463.39C449.31 468.44 457.42 488.64 457.42 488.64C457.42 488.64 455.65 501 460.7 504.3C465.75 507.6 484.94 508.09 492.27 503.54C499.6 498.99 502.62 495.46 502.62 492.18C502.62 488.9 497.82 474.5 490.25 460.11C484.707 449.571 477.055 440.286 467.77 432.83C462.47 428.54 460.45 426.52 459.44 426.52C458.43 426.52 446.31 436.88 446.81 441.67Z" fill="white" stroke="#263238" stroke-linecap="round" stroke-linejoin="round"/>
<path d="M457.42 423.24L443.78 438.64L446.56 446.98L461.96 427.03L457.42 423.24Z" fill="white" stroke="#263238" stroke-linecap="round" stroke-linejoin="round"/>
<path d="M457.67 479.55C457.67 479.55 429.89 495.46 426.36 496.73C422.83 498 411.46 497.99 408.17 497.73C407.767 497.658 407.352 497.676 406.956 497.782C406.56 497.888 406.193 498.081 405.88 498.345C405.567 498.61 405.316 498.94 405.145 499.312C404.973 499.685 404.887 500.09 404.89 500.5L404.39 510.1C404.39 510.1 407.16 510.86 408.39 510.1C409.62 509.34 410.91 506.56 410.91 506.56C410.91 506.56 415.46 507.07 416.97 506.06C417.961 505.386 418.891 504.626 419.75 503.79C424.416 503.403 429.054 502.735 433.64 501.79C438.69 500.52 461.92 492.95 465.46 492.19C469 491.43 470.26 489.41 470.51 488.19C470.76 486.97 457.67 479.55 457.67 479.55Z" fill="white" stroke="#263238" stroke-linecap="round" stroke-linejoin="round"/>
<path d="M426 496.83C422.14 497.98 411.36 497.98 408.17 497.74C407.767 497.668 407.352 497.686 406.956 497.792C406.56 497.898 406.193 498.091 405.88 498.355C405.567 498.619 405.316 498.95 405.145 499.322C404.973 499.695 404.887 500.1 404.89 500.51L404.39 510.11C404.39 510.11 407.16 510.87 408.39 510.11C409.62 509.35 410.91 506.57 410.91 506.57C410.91 506.57 415.46 507.08 416.97 506.07C417.961 505.396 418.891 504.636 419.75 503.8C419.75 503.8 423.99 503.43 428.28 502.8L426 496.83Z" fill="#62BFCC" stroke="#263238" stroke-linecap="round" stroke-linejoin="round"/>
<path d="M459.69 441.93C459.69 441.93 455.4 446.72 455.9 450.26C456.4 453.8 457.67 479.55 457.67 479.55L472.06 485.36L476.06 464.91C476.06 464.91 479.35 459.6 478.84 454.55" fill="white"/>
<path d="M459.69 441.93C459.69 441.93 455.4 446.72 455.9 450.26C456.4 453.8 457.67 479.55 457.67 479.55L472.06 485.36L476.06 464.91C476.06 464.91 479.35 459.6 478.84 454.55" stroke="#263238" stroke-linecap="round" stroke-linejoin="round"/>
<path d="M456.41 480.82L471.05 489.65C471.05 489.65 473.05 489.65 473.33 486.37C473.61 483.09 475.09 482.58 473.83 480.82C472.57 479.06 459.18 473.49 457.92 473.49C456.66 473.49 455.4 476.52 456.41 480.82Z" fill="white" stroke="#263238" stroke-linecap="round" stroke-linejoin="round"/>
<path d="M515.5 552.28C515.5 552.28 523.07 545.72 524.34 545.97C525.61 546.22 535.7 555.82 535.7 555.82C535.7 555.82 545.04 560.87 545.04 561.63C545.04 562.39 543.53 562.63 543.53 562.63L516.53 561.63L515.5 552.28Z" fill="white" stroke="#263238" stroke-linecap="round" stroke-linejoin="round"/>
<path d="M545 561.63C545 560.87 535.66 555.82 535.66 555.82C535.66 555.82 525.56 546.22 524.3 545.97C523.85 545.88 522.59 546.66 521.17 547.7L533.39 556.32L542.29 562.59L543.49 562.64C543.49 562.64 545 562.38 545 561.63Z" fill="white" stroke="#263238" stroke-linecap="round" stroke-linejoin="round"/>
<path d="M459.18 520.72L456.66 510.11" stroke="#999999" stroke-linecap="round" stroke-linejoin="round"/>
<path d="M371.32 478.68C368.32 476.98 363.91 474.68 363.91 474.68C363.91 474.68 357.97 459.68 353.31 452.68C348.65 445.68 345.89 444.83 340.8 444.41C335.71 443.99 320.46 448.01 319.8 449.07C319.8 449.07 305.6 455.64 302 460.31C298.4 464.98 299.66 501.21 299.66 501.21C299.66 501.21 284.42 511.53 280.4 523C277.84 530.27 280.82 542.28 294.6 545.89C299.197 547.12 304.023 547.227 308.67 546.2C312.25 549.22 316.215 551.752 320.46 553.73C334.66 560.51 343.98 561.78 352.67 562.21C361.36 562.64 370.26 559.88 371.96 558.21C373.66 556.54 377.05 549.94 368.36 540.41C360.87 532.18 338.27 523.02 332.17 520.65C332.777 517.091 333.111 513.49 333.17 509.88C333.17 509.88 346.31 494.88 347.17 491.44C348.03 488 350.17 474.06 350.17 474.06C350.17 474.06 357.38 487.21 359.5 489.11C361.62 491.01 373.91 489.54 375.18 489.54C376.45 489.54 377.09 484.03 377.09 484.03C375.479 481.937 373.528 480.129 371.32 478.68Z" fill="white" stroke="#263238" stroke-linecap="round" stroke-linejoin="round"/>
<path d="M368.36 540.36C360.87 532.13 338.27 522.97 332.17 520.6C332.36 519.49 332.52 518.41 332.64 517.39C326.938 518.65 321.017 518.53 315.37 517.04C299.26 512.8 295.87 504.11 295.87 504.11H295.75C290.94 508.01 283.11 515.24 280.4 522.97C277.84 530.24 280.82 542.25 294.6 545.86C299.197 547.09 304.023 547.197 308.67 546.17C312.25 549.19 316.215 551.722 320.46 553.7C334.66 560.48 343.98 561.75 352.67 562.18C361.36 562.61 370.26 559.85 371.96 558.18C373.66 556.51 377.05 549.89 368.36 540.36Z" fill="#696969" stroke="#263238" stroke-linecap="round" stroke-linejoin="round"/>
<path d="M288.87 524.46C288.87 524.46 296.5 515.13 306.47 518.95C341.3 532.3 350.13 547.14 352.47 553.07C354.81 559 353.95 562.19 352.05 563.46C350.15 564.73 330.22 560.07 320.68 556.68C311.14 553.29 298.42 554.98 287.61 545.87C276.8 536.76 278.5 527.87 281.89 520.22" fill="#696969"/>
<path d="M288.87 524.46C288.87 524.46 296.5 515.13 306.47 518.95C341.3 532.3 350.13 547.14 352.47 553.07C354.81 559 353.95 562.19 352.05 563.46C350.15 564.73 330.22 560.07 320.68 556.68C311.14 553.29 298.42 554.98 287.61 545.87C276.8 536.76 278.5 527.87 281.89 520.22" stroke="#263238" stroke-linecap="round" stroke-linejoin="round"/>
<path d="M377.05 484C375.446 481.928 373.51 480.137 371.32 478.7C368.32 477 363.91 474.7 363.91 474.7C363.91 474.7 362.2 470.38 359.91 465.29C357.34 467.43 353.13 471.54 351.51 476.53C353.71 480.43 357.93 487.73 359.51 489.11C361.62 491.02 373.92 489.54 375.19 489.54C376.46 489.54 377.05 484 377.05 484Z" fill="white" stroke="#263238" stroke-linecap="round" stroke-linejoin="round"/>
<path d="M350.13 474.01L349.92 462.57" stroke="#263238" stroke-linecap="round" stroke-linejoin="round"/>
<path d="M383.93 502.79C381.549 503.643 379.263 504.743 377.11 506.07C375.11 507.58 374.84 508.85 374.84 511.12C374.84 513.39 370.29 516.42 372.57 516.42C374.85 516.42 376.57 515.66 378.63 511.88C380.69 508.1 383.17 506.98 383.17 506.98C383.327 508.808 383.662 510.617 384.17 512.38C384.876 513.886 384.969 515.607 384.43 517.18C383.92 519.18 386.43 518.7 387.2 513.18C387.608 509.657 387.087 506.089 385.69 502.83L383.93 502.79Z" fill="white" stroke="#263238" stroke-linecap="round" stroke-linejoin="round"/>
<path d="M383.43 496.71C383.43 496.71 384.18 500.97 383.93 501.94C383.68 502.91 380.14 505.62 378.88 507.94C378.376 508.884 378.072 509.922 377.986 510.988C377.9 512.055 378.034 513.127 378.38 514.14C378.88 515.69 380.38 520.72 381.15 519.37C381.92 518.02 382.15 516.46 382.15 513.56C382.15 510.66 381.65 508.13 383.15 506.97L384.67 505.81C385.403 507.502 385.995 509.251 386.44 511.04C387.44 514.72 385.68 517.82 386.18 518.4C386.68 518.98 388.71 518.59 388.96 517.04C389.21 515.49 390.22 513.75 390.22 510.65C390.204 508.759 389.638 506.914 388.59 505.34C388.118 504.035 387.737 502.698 387.45 501.34C387 499 385.45 494.58 383.43 496.71Z" fill="white" stroke="#263238" stroke-linecap="round" stroke-linejoin="round"/>
<path d="M391.25 489.91C392.347 491.764 393.349 493.673 394.25 495.63C394.88 497.33 395.31 499.24 394.25 499.63C393.19 500.02 392.34 497.09 391.7 495.82C391.06 494.55 388.92 489.06 391.25 489.91Z" fill="#62BFCC" stroke="#263238" stroke-linecap="round" stroke-linejoin="round"/>
<path d="M391.25 489.91C389.98 487.16 382.77 482.91 380.86 481.86C379.53 481.11 375.28 481 372.86 480.99C372.28 480.9 371.69 480.9 371.11 480.99C371.11 480.99 367.72 483.53 367.93 486.29C368.009 487.077 368.346 487.816 368.888 488.391C369.431 488.966 370.149 489.346 370.93 489.47H371.93C371.768 490.499 371.947 491.552 372.44 492.47C374.13 495.08 375.16 498.063 375.44 501.16C375.44 503.92 378.62 502.86 379.04 500.74C379.46 498.62 378.41 494.81 378.41 493.96C378.41 493.11 380.1 490.78 380.1 490.78C380.1 490.78 384.77 495.65 385.4 496.71C386.03 497.77 386.25 503.28 387.95 503.71C389.65 504.14 389.64 500.71 389.64 500.71C389.991 500.739 390.345 500.695 390.678 500.58C391.011 500.466 391.317 500.284 391.577 500.045C391.836 499.806 392.043 499.516 392.185 499.194C392.327 498.871 392.4 498.522 392.4 498.17C392.751 495.363 392.354 492.514 391.25 489.91Z" fill="#62BFCC" stroke="#263238" stroke-linecap="round" stroke-linejoin="round"/>
<path d="M386.59 490.55C386.59 490.55 389.76 492.45 389.76 494.36C389.76 496.27 389.55 500.72 389.55 500.72" stroke="#263238" stroke-linecap="round" stroke-linejoin="round"/>
<path d="M353.1 558C353.1 561 354.79 561.39 348.22 565.42C341.65 569.45 331.69 566.69 321.94 564.57C312.19 562.45 300.53 560.75 296.08 560.75C291.63 560.75 281 562.4 277 562.4C273 562.4 266.41 561.98 267.26 559.86C268.11 557.74 278.91 554.34 279.76 553.5C280.61 552.66 280.4 550.95 282.52 547.77C283 546.898 283.776 546.227 284.708 545.878C285.64 545.53 286.666 545.527 287.6 545.87C291.344 549.3 295.996 551.581 301 552.44C309 553.71 323.67 554.34 329.4 554.34C335.13 554.34 342.33 556.89 342.96 556.89" fill="#696969"/>
<path d="M353.1 558C353.1 561 354.79 561.39 348.22 565.42C341.65 569.45 331.69 566.69 321.94 564.57C312.19 562.45 300.53 560.75 296.08 560.75C291.63 560.75 281 562.4 277 562.4C273 562.4 266.41 561.98 267.26 559.86C268.11 557.74 278.91 554.34 279.76 553.5C280.61 552.66 280.4 550.95 282.52 547.77C283 546.898 283.776 546.227 284.708 545.878C285.64 545.53 286.666 545.527 287.6 545.87C291.344 549.3 295.996 551.581 301 552.44C309 553.71 323.67 554.34 329.4 554.34C335.13 554.34 342.33 556.89 342.96 556.89" stroke="#263238" stroke-linecap="round" stroke-linejoin="round"/>
<path d="M301 552.44C296.01 551.573 291.373 549.293 287.64 545.87C286.706 545.527 285.68 545.53 284.748 545.878C283.816 546.227 283.04 546.898 282.56 547.77C280.44 550.95 280.65 552.65 279.8 553.5C278.95 554.35 268.14 557.74 267.3 559.86C266.46 561.98 273 562.4 277 562.4C281 562.4 291.63 560.7 296.08 560.7C298.392 560.764 300.699 560.955 302.99 561.27C302.99 561.08 302.91 560.89 302.86 560.7C302.24 558.06 304.02 554.61 305.01 552.97C303.54 552.81 302.17 552.63 301 552.44Z" fill="white" stroke="#263238" stroke-linecap="round" stroke-linejoin="round"/>
<path d="M287.6 545.87C286.666 545.527 285.64 545.53 284.708 545.878C283.776 546.227 283 546.898 282.52 547.77C280.4 550.95 280.61 552.65 279.76 553.5C278.91 554.35 268.1 557.74 267.26 559.86C266.95 560.61 267.59 561.14 268.71 561.52C271.2 558.85 279.11 556.63 281.32 555.02C283.53 553.41 281.88 552.86 284.21 549.68C284.79 548.937 285.513 548.318 286.335 547.858C287.158 547.398 288.064 547.106 289 547C288.08 546.34 287.6 545.87 287.6 545.87Z" stroke="#263238" stroke-linecap="round" stroke-linejoin="round"/>
<path d="M307.1 456C307.1 456 298.41 459.39 296.72 466.38C295.03 473.37 298.2 516.83 298.2 517.89C298.2 518.95 303.92 520.01 312.83 520.89C321.74 521.77 338.26 521.95 338.26 521.95C338.26 521.95 345.47 525.12 346.95 525.12C348.43 525.12 351.61 523.22 351.61 523.22C351.61 523.22 351.19 525.12 352.88 524.7C354.57 524.28 360.3 519.61 360.3 518.77C360.3 517.93 356.49 513.89 354.16 513.47C351.83 513.05 341.44 517.07 340.38 517.07C339.32 517.07 320.88 513.07 317.49 511.56C314.794 510.467 312.032 509.545 309.22 508.8L310.71 472.14" fill="white"/>
<path d="M307.1 456C307.1 456 298.41 459.39 296.72 466.38C295.03 473.37 298.2 516.83 298.2 517.89C298.2 518.95 303.92 520.01 312.83 520.89C321.74 521.77 338.26 521.95 338.26 521.95C338.26 521.95 345.47 525.12 346.95 525.12C348.43 525.12 351.61 523.22 351.61 523.22C351.61 523.22 351.19 525.12 352.88 524.7C354.57 524.28 360.3 519.61 360.3 518.77C360.3 517.93 356.49 513.89 354.16 513.47C351.83 513.05 341.44 517.07 340.38 517.07C339.32 517.07 320.88 513.07 317.49 511.56C314.794 510.467 312.032 509.545 309.22 508.8L310.71 472.14" stroke="#263238" stroke-linecap="round" stroke-linejoin="round"/>
<path d="M354.16 513.44C351.82 513.01 341.44 517.04 340.38 517.04C339.32 517.04 320.88 513.04 317.49 511.53C314.794 510.437 312.032 509.515 309.22 508.77L310.03 488.68L296.54 488.16C297.11 502.05 298.2 517.27 298.2 517.89C298.2 518.95 303.92 520.01 312.83 520.89C321.74 521.77 338.26 521.95 338.26 521.95C338.26 521.95 345.47 525.12 346.95 525.12C348.43 525.12 351.61 523.22 351.61 523.22C351.61 523.22 351.19 525.12 352.88 524.7C354.57 524.28 360.3 519.61 360.3 518.77C360.3 517.93 356.49 513.86 354.16 513.44Z" fill="white" stroke="#263238" stroke-linecap="round" stroke-linejoin="round"/>
<path d="M360.3 518.74C360.3 517.89 356.49 513.86 354.16 513.44C351.83 513.02 341.44 517.04 340.38 517.04C340.05 517.04 338.03 516.65 335.3 516.04C334.3 517.04 333.35 518.76 333.67 521.8L338.26 521.89C338.26 521.89 345.47 525.06 346.95 525.06C348.43 525.06 351.61 523.16 351.61 523.16C351.61 523.16 351.19 525.06 352.88 524.64C354.57 524.22 360.3 519.58 360.3 518.74Z" fill="#62BFCC" stroke="#263238" stroke-linecap="round" stroke-linejoin="round"/>
<path d="M314.1 414.45C314.1 414.45 306.04 408.1 302.86 410.22C299.68 412.34 286.33 429.29 285.06 433.95C283.79 438.61 290.78 439.68 288.24 443.49C285.7 447.3 280.82 448.79 282.73 453.49C284.64 458.19 292.27 458.58 293.96 459.64C295.65 460.7 298.41 464.73 304.56 463.03C310.71 461.33 309.43 453.49 314.1 452.43C318.77 451.37 318.34 445.02 316.22 439.93C314.1 434.84 312.83 427.85 315.37 424.67C317.91 421.49 314.1 414.45 314.1 414.45Z" fill="#263238" stroke="#263238" stroke-linecap="round" stroke-linejoin="round"/>
<path d="M318.8 410.09C318.8 410.09 312.3 410.46 309.23 418.58C306.16 426.7 309.23 438.8 310.13 440.79C311.03 442.78 315.73 444.79 318.62 443.13C321.51 441.47 325.48 435.19 328.36 433.56C331.24 431.93 337.03 425.08 337.03 425.08L341.18 430.31C341.18 430.31 343.89 429.95 344.97 424.72C346.05 419.49 342.09 413.89 335.59 410.64C329.09 407.39 322.05 407.57 318.8 410.09Z" fill="#263238" stroke="#263238" stroke-linecap="round" stroke-linejoin="round"/>
<path d="M317.91 446.67C317.91 446.67 318.12 453.03 319.61 455.79C321.1 458.55 324.91 470.79 329.78 471.26C334.65 471.73 334.44 454.09 334.44 454.09C334.44 454.09 328.72 454.3 325.33 450.7C321.94 447.1 318.34 445 317.91 446.67Z" stroke="#263238" stroke-linecap="round" stroke-linejoin="round"/>
<path d="M337.75 419.84C337.75 419.84 330.17 428.69 324.21 432.48C318.25 436.27 315.55 436.81 315.55 436.81C315.55 436.81 317.89 436.45 316.27 438.08C314.65 439.71 314.27 440.08 313.38 438.62C312.49 437.16 308.87 435.73 308.14 439.34C307.83 440.847 308.061 442.415 308.792 443.768C309.524 445.122 310.709 446.174 312.14 446.74C313.68 447.389 315.391 447.515 317.01 447.1C317.01 447.1 317.55 453.24 324.77 456.85C331.99 460.46 338.68 455.41 340.66 451.62C342.64 447.83 341.93 430.68 341.56 427.79C341.19 424.9 337.75 419.84 337.75 419.84Z" fill="white" stroke="#263238" stroke-linecap="round" stroke-linejoin="round"/>
<path d="M335.93 436.92C335.93 436.92 335.5 440.31 336.14 440.52C336.78 440.73 339.14 441.58 338.26 442.86C337.38 444.14 336.14 444.98 334.66 444.34" stroke="#263238" stroke-linecap="round" stroke-linejoin="round"/>
<path d="M326.39 447.31C326.39 447.31 328.09 450.06 334.66 448.58" stroke="#263238" stroke-linecap="round" stroke-linejoin="round"/>
<path d="M330.21 438.3C330.21 439.3 329.73 440.1 329.15 440.1C328.57 440.1 328.09 439.29 328.09 438.3C328.09 437.31 328.56 436.5 329.15 436.5C329.74 436.5 330.21 437.3 330.21 438.3Z" fill="#263238"/>
<path d="M339.32 437.24C339.32 438.24 338.85 439.04 338.26 439.04C337.67 439.04 337.2 438.23 337.2 437.24C337.2 436.25 337.67 435.44 338.26 435.44C338.85 435.44 339.32 436.24 339.32 437.24Z" fill="#263238"/>
<path d="M326 435C326.578 434.289 327.331 433.741 328.184 433.408C329.038 433.075 329.963 432.969 330.87 433.1" stroke="#263238" stroke-linecap="round" stroke-linejoin="round"/>
<path d="M336.14 432.89C336.14 432.89 337.41 430.14 340.14 432.05" stroke="#263238" stroke-linecap="round" stroke-linejoin="round"/>
<path d="M406.66 507.33C406.66 507.33 386.2 513.9 380.66 515.92C375.12 517.94 356.92 518.19 355.66 520.21C354.4 522.23 345.34 533.65 343.57 540.21C341.8 546.77 344.15 564.54 345.84 565.65C352.63 570.14 370.49 568.76 378.05 568.47C391.88 567.96 405.27 572.95 413.05 558.87C415.57 554.32 411.93 538.39 411.43 533.09C410.93 527.79 409.15 518.95 408.9 517.68C408.65 516.41 410.45 508.34 406.66 507.33Z" fill="white" stroke="#263238" stroke-linecap="round" stroke-linejoin="round"/>
<path d="M381.07 533C391.89 529.18 401.12 518 403.99 516.12C406.86 514.24 408.43 510.12 408.43 510.12C403.898 513.174 398.977 515.609 393.8 517.36" stroke="#263238" stroke-linecap="round" stroke-linejoin="round"/>
<path d="M408.13 511.94C406.084 518.257 402.468 523.952 397.62 528.49" stroke="#263238" stroke-linecap="round" stroke-linejoin="round"/>
<path d="M359.74 520.85C359.74 520.85 362.92 522.44 373.74 522.44" stroke="#263238" stroke-linecap="round" stroke-linejoin="round"/>
<path d="M358.46 521.17C358.46 521.17 361.01 532.31 375.34 536.77" stroke="#263238" stroke-linecap="round" stroke-linejoin="round"/>
<path d="M355.92 525C358.093 528.832 361.014 532.189 364.51 534.87" stroke="#263238" stroke-linecap="round" stroke-linejoin="round"/>
<path d="M154.94 471.77C154.94 471.77 160.59 487.88 160.59 494.38C160.59 500.88 165.11 536.49 165.67 540.45C166.045 542.909 166.812 545.293 167.94 547.51C171.8 551.077 176.184 554.032 180.94 556.27C189.13 560.27 188.85 559.1 187.44 560.79C186.03 562.48 173.02 562.79 167.09 562.21C161.16 561.63 155.22 563.62 154.94 561.08C154.66 558.54 154.65 548.36 154.65 543.84C154.65 539.32 142.78 517 141.37 509.92C139.96 502.84 140.52 491.84 140.52 491.84L133.46 474.84L154.94 471.77Z" fill="white" stroke="#263238" stroke-linecap="round" stroke-linejoin="round"/>
<path d="M166 550.34V554.34L154.72 552.17C154.72 555.99 154.82 559.72 154.98 561.17C155.26 563.71 161.19 561.73 167.13 562.3C173.07 562.87 186.06 562.58 187.48 560.88C188.9 559.18 189.17 560.32 180.98 556.36C176.227 554.118 171.843 551.164 167.98 547.6C167.98 547.6 166 547.79 166 550.34Z" fill="#263238" stroke="#263238" stroke-linecap="round" stroke-linejoin="round"/>
<path d="M131.76 473.47C131.76 473.47 132.58 491.18 129.76 498.34C115.63 534.51 115.07 548.08 115.07 548.08C115.07 548.08 129.22 558.81 132.33 560C135.44 561.19 137.13 561.69 135.15 563.1C133.17 564.51 115.37 564.23 112.26 564.23C109.15 564.23 101.52 561.97 100.68 560.56C99.84 559.15 102.68 547.84 102.68 547.84C102.68 547.84 104.1 519.58 104.1 513.08C104.1 506.58 111.16 493.87 111.16 491.6C111.16 489.33 109.75 472.39 109.75 472.39C109.75 472.39 126.68 476.58 131.76 473.47Z" fill="white" stroke="#263238" stroke-linecap="round" stroke-linejoin="round"/>
<path d="M135.15 563.05C137.15 561.64 135.44 561.05 132.33 559.95C129.22 558.85 115.09 548.08 115.09 548.08C115.09 548.08 113.68 548.64 113.68 550.9C113.744 552.09 113.447 553.271 112.83 554.29C112.83 554.29 108.31 553.45 102.94 552.29C102.49 552.2 102.08 552.11 101.68 552.01C100.95 555.38 100.18 559.66 100.68 560.49C101.52 561.9 109.15 564.16 112.26 564.16C115.37 564.16 133.18 564.47 135.15 563.05Z" fill="#263238" stroke="#263238" stroke-linecap="round" stroke-linejoin="round"/>
<path d="M155.22 388.4L165.67 403.66L208.91 397.45V405.64C208.91 405.64 166 417.51 164.26 416.1C162.52 414.69 148.15 407.9 148.15 407.9L155.22 388.4Z" fill="#B5B5B5" stroke="#263238" stroke-linecap="round" stroke-linejoin="round"/>
<path d="M116.5 368.34C116.5 368.34 113.39 386.43 113.39 393.77V419.77C113.39 419.77 104.39 434.19 102.94 446.9C101.49 459.61 101.24 473.75 101.24 473.75C101.24 473.75 114.81 479.69 125.83 478.84C132.387 478.34 138.902 477.391 145.33 476L160.87 472.33L149.28 419.77C149.28 419.77 154.94 404.77 155.78 403.95C156.62 403.13 159.78 392.95 158.61 385.29C157.44 377.63 153.24 361.84 144.48 357.6C135.72 353.36 120.46 358.45 116.5 368.34Z" fill="#5E5E5E" stroke="#263238" stroke-linecap="round" stroke-linejoin="round"/>
<path d="M129.38 420C128.767 424.609 126.829 428.942 123.8 432.47C118.8 438.24 114.68 439.35 114.68 439.35C114.68 439.35 112.26 462.84 113.19 472" stroke="#263238" stroke-linecap="round" stroke-linejoin="round"/>
<path d="M132 420.78C131.498 425.113 130.102 429.295 127.9 433.06C124.36 438.83 116.9 440.88 116.9 440.88" stroke="#263238" stroke-linecap="round" stroke-linejoin="round"/>
<path d="M149.57 366.36C148.09 361.31 143.8 357.98 141.7 356.61C135.17 355 126.57 357.28 121.05 362.13C120.95 362.73 120.88 363.27 120.74 363.82C120.46 364.95 116.22 389.53 116.22 389.53C116.22 389.53 117.22 389.73 118.78 390.01C117.22 397.96 118.97 411.22 118.97 411.22C118.97 411.22 127.32 413.91 133.78 413.64C140.24 413.37 147.78 409.64 147.78 409.64C147.78 407.37 149.67 395.98 150.56 390.74H150.98C150.98 390.74 151.54 373.14 149.57 366.36Z" fill="white" stroke="#263238" stroke-linecap="round" stroke-linejoin="round"/>
<path d="M137.82 388.07C137.82 388.07 127.82 398.07 122.74 399.64L137.82 388.07Z" fill="white"/>
<path d="M137.82 388.07C137.82 388.07 127.82 398.07 122.74 399.64" stroke="#263238" stroke-linecap="round" stroke-linejoin="round"/>
<path d="M137.82 393.18C137.82 393.18 132.16 398.3 127.59 402.07L137.82 393.18Z" fill="white"/>
<path d="M137.82 393.18C137.82 393.18 132.16 398.3 127.59 402.07" stroke="#263238" stroke-linecap="round" stroke-linejoin="round"/>
<path d="M159.6 466.57C154.599 469.239 149.018 470.636 143.35 470.64C143.35 470.64 134.87 474.32 121.59 473.75C114.505 473.365 107.607 471.339 101.44 467.83C101.29 471.43 101.24 473.75 101.24 473.75C101.24 473.75 114.81 479.69 125.83 478.84C132.387 478.34 138.902 477.391 145.33 476L160.87 472.33L159.6 466.57Z" fill="white" stroke="#263238" stroke-linecap="round" stroke-linejoin="round"/>
<path d="M143.63 476.58L144.2 445.77" stroke="#263238" stroke-linecap="round" stroke-linejoin="round"/>
<path d="M171.61 329.06V336.4C171.61 336.4 175.28 339.23 173.02 341.21C172.112 342.126 171.061 342.889 169.91 343.47C169.91 343.47 168.5 349.97 165.39 353.08C162.28 356.19 160.59 355.62 156.07 352.51C151.55 349.4 148.72 347.43 148.72 347.43C148.72 347.43 151.54 333.58 153.52 329.06C155.5 324.54 161.72 323.97 164.83 324.53C167.94 325.09 171.61 329.06 171.61 329.06Z" fill="white" stroke="#263238" stroke-linecap="round" stroke-linejoin="round"/>
<path d="M168.52 335.85C168.52 336.7 168.14 337.39 167.68 337.39C167.22 337.39 166.84 336.7 166.84 335.85C166.84 335 167.21 334.3 167.68 334.3C168.15 334.3 168.52 335 168.52 335.85Z" fill="#263238"/>
<path d="M165.85 332.2C165.85 332.2 167.4 329.68 169.5 331.78" stroke="#263238" stroke-linecap="round" stroke-linejoin="round"/>
<path d="M163.75 344C164.679 344.945 165.936 345.496 167.26 345.54" stroke="#263238" stroke-linecap="round" stroke-linejoin="round"/>
<path d="M159 326.68C159 326.68 153.06 340.92 153.36 347.75C153.66 354.58 161.36 374.17 158.11 380.7C154.86 387.23 148 392 143 384.26C138 376.52 136.17 374.17 132.91 378.91C129.65 383.65 125.79 392.27 118.37 392.27C110.95 392.27 102 382.48 106.45 372.09C110.9 361.7 121 357.25 127.23 347.16C131.804 339.99 135.024 332.042 136.73 323.71L159.58 324.6L159 326.68Z" fill="#263238" stroke="#263238" stroke-linecap="round" stroke-linejoin="round"/>
<path d="M136.13 328.16H171.75C171.75 328.16 171.75 313.02 168.75 310.65C165.75 308.28 142.34 308.87 139.67 310.65C137 312.43 135 326.38 136.13 328.16Z" fill="#62BFCC" stroke="#263238" stroke-linecap="round" stroke-linejoin="round"/>
<path d="M160.37 328C160.37 328 168.68 331.26 176.1 331.26C183.52 331.26 187.38 328 187.38 328H160.37Z" fill="#62BFCC" stroke="#263238" stroke-linecap="round" stroke-linejoin="round"/>
<path d="M218.8 396C218.8 396 221.91 395.44 221.91 397.7C221.91 399.96 218.24 399.7 215.13 398.55C212.02 397.4 216.26 396.6 218.8 396Z" fill="#B5B5B5" stroke="#263238" stroke-linecap="round" stroke-linejoin="round"/>
<path d="M219.37 398.86C219.37 398.86 222.48 398.29 222.48 400.56C222.48 402.83 218.8 402.56 215.7 401.4C212.6 400.24 216.83 399.43 219.37 398.86Z" fill="#B5B5B5" stroke="#263238" stroke-linecap="round" stroke-linejoin="round"/>
<path d="M219.94 401.69C219.94 401.69 223.04 401.12 223.04 403.38C223.04 405.64 219.37 405.38 216.26 404.23C213.15 403.08 217.39 402.25 219.94 401.69Z" fill="#B5B5B5" stroke="#263238" stroke-linecap="round" stroke-linejoin="round"/>
<path d="M219.38 404.58C219.38 404.58 222.49 404.01 222.49 406.27C222.49 408.53 218.81 408.27 215.71 407.12C212.61 405.97 216.84 405.14 219.38 404.58Z" fill="#B5B5B5" stroke="#263238" stroke-linecap="round" stroke-linejoin="round"/>
<path d="M205.8 398.86C205.8 398.86 188.28 437.29 188.28 439.86C188.28 442.43 188.28 449.18 189.98 453.14C191.68 457.1 201.85 464.44 206.37 465.29C210.89 466.14 230.11 461.62 232.37 461.05C234.63 460.48 240.57 444.66 240.28 441.55C239.99 438.44 232.65 426.55 231.52 424.6C230.39 422.65 221.07 409.9 219.94 407.6C218.81 405.3 215.41 399.41 215.41 399.41L205.8 398.86Z" fill="white" stroke="#263238" stroke-linecap="round" stroke-linejoin="round"/>
<path d="M208.91 405.64L206.65 422.32" stroke="#263238" stroke-linecap="round" stroke-linejoin="round"/>
<path d="M212.87 403.66V425.71" stroke="#263238" stroke-linecap="round" stroke-linejoin="round"/>
<path d="M215.7 401.4L223.61 426.27" stroke="#263238" stroke-linecap="round" stroke-linejoin="round"/>
<path d="M160 401.12C160 401.12 146.16 366.12 142.48 364.38C138.8 362.64 127.81 363 128.94 376C130.07 389 151.83 416.13 154.65 416.41C157.47 416.69 201.85 402 201.85 402C201.85 402 216.85 404 217.96 402.28C219.07 400.56 219.37 394.37 219.37 394.37C219.37 394.37 221.37 390.13 219.37 388.72C217.37 387.31 208.37 388.15 206.94 388.15C205.51 388.15 198.74 394.93 198.74 394.93L160 401.12Z" fill="white" stroke="#263238" stroke-linecap="round" stroke-linejoin="round"/>
<path d="M218 402.25C219.13 400.56 219.41 394.34 219.41 394.34C219.41 394.34 221.41 390.1 219.41 388.69C217.41 387.28 208.41 388.12 206.98 388.12C205.55 388.12 198.78 394.9 198.78 394.9L191.43 396.08L192.68 404.99C198.11 403.22 201.89 401.99 201.89 401.99C201.89 401.99 216.83 404 218 402.25Z" fill="#62BFCC" stroke="#263238" stroke-linecap="round" stroke-linejoin="round"/>
<path d="M223.04 384.73L239.15 393.21L236.04 398.86L223.04 384.73Z" fill="white" stroke="#263238" stroke-linecap="round" stroke-linejoin="round"/>
<path d="M209.76 387.56L212.02 381.62C212.02 381.62 213.72 380.77 219.94 382.47C226.16 384.17 238.3 401.4 238.3 401.4C238.3 401.4 229.54 407.62 228.13 407.9C226.72 408.18 221.63 392.9 221.07 391.51C220.622 390.503 220.051 389.556 219.37 388.69L209.76 387.56Z" fill="white" stroke="#263238" stroke-linecap="round" stroke-linejoin="round"/>
<path d="M219.37 388.69L214.37 385.44" stroke="#263238" stroke-linecap="round" stroke-linejoin="round"/>
<path d="M252.71 451.12H181.43V562.82H252.71V451.12Z" fill="#62BFCC" stroke="#263238" stroke-linecap="round" stroke-linejoin="round"/>
<path d="M252.54 489H181.6C181.096 489 180.613 488.8 180.257 488.443C179.9 488.087 179.7 487.604 179.7 487.1C179.7 486.596 179.9 486.113 180.257 485.756C180.613 485.4 181.096 485.2 181.6 485.2H252.54C253.044 485.2 253.527 485.4 253.883 485.756C254.24 486.113 254.44 486.596 254.44 487.1C254.44 487.604 254.24 488.087 253.883 488.443C253.527 488.8 253.044 489 252.54 489Z" fill="#62BFCC" stroke="#263238" stroke-linecap="round" stroke-linejoin="round"/>
<path d="M252.54 452.8H181.6C181.096 452.8 180.613 452.6 180.257 452.243C179.9 451.887 179.7 451.404 179.7 450.9C179.7 450.396 179.9 449.913 180.257 449.556C180.613 449.2 181.096 449 181.6 449H252.54C253.044 449 253.527 449.2 253.883 449.556C254.24 449.913 254.44 450.396 254.44 450.9C254.44 451.404 254.24 451.887 253.883 452.243C253.527 452.6 253.044 452.8 252.54 452.8Z" fill="#62BFCC" stroke="#263238" stroke-linecap="round" stroke-linejoin="round"/>
<path d="M252.54 526.84H181.6C181.096 526.84 180.613 526.64 180.257 526.284C179.9 525.927 179.7 525.444 179.7 524.94C179.7 524.436 179.9 523.953 180.257 523.597C180.613 523.24 181.096 523.04 181.6 523.04H252.54C253.044 523.04 253.527 523.24 253.883 523.597C254.24 523.953 254.44 524.436 254.44 524.94C254.44 525.444 254.24 525.927 253.883 526.284C253.527 526.64 253.044 526.84 252.54 526.84Z" fill="#62BFCC" stroke="#263238" stroke-linecap="round" stroke-linejoin="round"/>
<path d="M248.5 145C178.9 186.6 71 177 32.5 152.5C17 145 21.2999 93.8 108.5 35C195.7 -23.8 290.5 8.50006 316.5 35C333.5 60.5 318.1 103.4 248.5 145Z" fill="#D0ECF0" fill-opacity="0.7"/>
<path d="M630 651C540.4 651 468.976 714.5 454 747C435.2 787.8 436.5 814.333 439.5 822.5H686.5L710 725.5C720.667 700.667 719.6 651 630 651Z" fill="#D0ECF0" fill-opacity="0.55"/>
<circle cx="50" cy="664" r="50" fill="#D0ECF0" fill-opacity="0.75"/>
<path d="M555 116.5C533.5 86.5 538.882 0.148083 500.882 0.148083C468.382 -3.01525 396.882 44.6481 445.382 129.148C493.882 213.648 644.724 255.472 664.882 215.648C685.382 175.148 577.247 147.542 555 116.5Z" fill="#9FD8E0" fill-opacity="0.5"/>
</svg>
