<svg width="240" height="240" viewBox="0 0 240 240" fill="none" xmlns="http://www.w3.org/2000/svg">
<path d="M205.666 97.5985C197.41 72.8113 175.815 51.9601 149.794 45.7921C120.389 38.8177 88.7905 50.1793 64.7185 66.9121C55.9345 73.0177 47.7409 80.2657 41.3857 88.9153C19.6801 118.493 56.1601 134.199 55.2433 148.978C54.3265 163.757 30.7633 166.987 48.7729 187.311C66.7825 207.634 123.595 203.011 167.933 179.458C182.573 171.682 196.627 160.867 203.635 145.416C210.773 129.658 210.754 112.882 205.666 97.5985Z" fill="#62BFCC"/>
<path opacity="0.7" d="M205.666 97.5985C197.41 72.8113 175.815 51.9601 149.794 45.7921C120.389 38.8177 88.7905 50.1793 64.7185 66.9121C55.9345 73.0177 47.7409 80.2657 41.3857 88.9153C19.6801 118.493 56.1601 134.199 55.2433 148.978C54.3265 163.757 30.7633 166.987 48.7729 187.311C66.7825 207.634 123.595 203.011 167.933 179.458C182.573 171.682 196.627 160.867 203.635 145.416C210.773 129.658 210.754 112.882 205.666 97.5985Z" fill="white"/>
<path d="M85.9485 175.843C81.0189 179.069 75.4605 187.675 72.6813 191.17C69.9021 194.664 69.9069 199.685 68.7405 201.029C67.5741 202.373 63.5421 198.25 64.4205 195.202C65.2989 192.154 66.8205 191.53 66.4845 190.094C66.1485 188.659 65.3181 187.762 66.2157 185.88C67.1133 183.998 69.7101 185.794 72.3117 183.998C74.9133 182.203 77.5101 174.494 80.7357 166.43C83.9613 158.366 90.7773 158.539 91.5837 157.286C92.3901 156.034 96.9597 139.714 101.625 140.525C106.291 141.336 114.72 149.578 112.036 154.08C109.353 158.582 106.209 158.477 102.436 161.074C98.6637 163.67 99.1197 164.213 96.6093 166.901C94.0989 169.589 92.2893 170.04 90.9597 170.395C90.9597 170.395 89.0781 172.459 87.9117 173.981C86.7453 175.502 85.9485 175.843 85.9485 175.843Z" fill="white"/>
<mask id="mask0_52_2453" style="mask-type:luminance" maskUnits="userSpaceOnUse" x="64" y="140" width="49" height="62">
<path d="M85.9485 175.843C81.0189 179.069 75.4605 187.675 72.6813 191.17C69.9021 194.664 69.9069 199.685 68.7405 201.029C67.5741 202.373 63.5421 198.25 64.4205 195.202C65.2989 192.154 66.8205 191.53 66.4845 190.094C66.1485 188.659 65.3181 187.762 66.2157 185.88C67.1133 183.998 69.7101 185.794 72.3117 183.998C74.9133 182.203 77.5101 174.494 80.7357 166.43C83.9613 158.366 90.7773 158.539 91.5837 157.286C92.3901 156.034 96.9597 139.714 101.625 140.525C106.291 141.336 114.72 149.578 112.036 154.08C109.353 158.582 106.209 158.477 102.436 161.074C98.6637 163.67 99.1197 164.213 96.6093 166.901C94.0989 169.589 92.2893 170.04 90.9597 170.395C90.9597 170.395 89.0781 172.459 87.9117 173.981C86.7453 175.502 85.9485 175.843 85.9485 175.843Z" fill="white"/>
</mask>
<g mask="url(#mask0_52_2453)">
<path d="M76.9677 180.72C78.5181 177.811 83.1741 170.822 88.0077 166.555C92.8413 162.288 108.192 155.88 108.192 155.88L111.177 155.285C111.482 154.892 111.762 154.482 112.017 154.056C114.705 149.578 106.281 141.331 101.62 140.525C96.9597 139.718 92.3853 156.029 91.5789 157.286C90.7725 158.544 83.9613 158.362 80.7309 166.43C77.5005 174.499 74.9037 182.208 72.3069 183.998C69.7101 185.789 67.1085 183.998 66.2109 185.88C65.3133 187.762 66.1197 188.659 66.4797 190.094C66.8397 191.53 65.3133 192.158 64.4157 195.202C63.5181 198.245 67.5549 202.373 68.7357 201.029C69.1773 200.346 69.4791 199.583 69.6237 198.782C68.8852 196.79 68.6719 194.641 69.0045 192.542C69.5997 187.709 75.4125 183.634 76.9677 180.72Z" fill="#62BFCC"/>
<path opacity="0.5" d="M76.9677 180.72C78.5181 177.811 83.1741 170.822 88.0077 166.555C92.8413 162.288 108.192 155.88 108.192 155.88L111.177 155.285C111.482 154.892 111.762 154.482 112.017 154.056C114.705 149.578 106.281 141.331 101.62 140.525C96.9597 139.718 92.3853 156.029 91.5789 157.286C90.7725 158.544 83.9613 158.362 80.7309 166.43C77.5005 174.499 74.9037 182.208 72.3069 183.998C69.7101 185.789 67.1085 183.998 66.2109 185.88C65.3133 187.762 66.1197 188.659 66.4797 190.094C66.8397 191.53 65.3133 192.158 64.4157 195.202C63.5181 198.245 67.5549 202.373 68.7357 201.029C69.1773 200.346 69.4791 199.583 69.6237 198.782C68.8852 196.79 68.6719 194.641 69.0045 192.542C69.5997 187.709 75.4125 183.634 76.9677 180.72Z" fill="white"/>
</g>
<path d="M85.9485 175.843C81.0189 179.069 75.4605 187.675 72.6813 191.17C69.9021 194.664 69.9069 199.685 68.7405 201.029C67.5741 202.373 63.5421 198.25 64.4205 195.202C65.2989 192.154 66.8205 191.53 66.4845 190.094C66.1485 188.659 65.3181 187.762 66.2157 185.88C67.1133 183.998 69.7101 185.794 72.3117 183.998C74.9133 182.203 77.5101 174.494 80.7357 166.43C83.9613 158.366 90.7773 158.539 91.5837 157.286C92.3901 156.034 96.9597 139.714 101.625 140.525C106.291 141.336 114.72 149.578 112.036 154.08C109.353 158.582 106.209 158.477 102.436 161.074C98.6637 163.67 99.1197 164.213 96.6093 166.901C94.0989 169.589 92.2893 170.04 90.9597 170.395C90.9597 170.395 89.0781 172.459 87.9117 173.981C86.7453 175.502 85.9485 175.843 85.9485 175.843Z" stroke="#263238" stroke-miterlimit="10" stroke-linecap="round"/>
<path d="M85.2671 176.323C84.1746 176.256 83.1017 176.002 82.0943 175.574C80.1263 174.749 79.3535 172.613 79.0655 170.722C76.5887 177.082 74.4575 182.53 72.3455 183.998C69.7439 185.794 67.1471 183.998 66.2495 185.88C65.3519 187.762 66.1583 188.659 66.5183 190.094C66.8783 191.53 65.3519 192.158 64.4543 195.202C63.5567 198.245 67.5935 202.373 68.7743 201.029C69.9551 199.685 69.9407 194.664 72.7151 191.17C75.3599 187.834 80.5151 179.851 85.2671 176.323Z" fill="#62BFCC"/>
<mask id="mask1_52_2453" style="mask-type:luminance" maskUnits="userSpaceOnUse" x="64" y="170" width="22" height="32">
<path d="M85.2671 176.323C84.1746 176.256 83.1017 176.002 82.0943 175.574C80.1263 174.749 79.3535 172.613 79.0655 170.722C76.5887 177.082 74.4575 182.53 72.3455 183.998C69.7439 185.794 67.1471 183.998 66.2495 185.88C65.3519 187.762 66.1583 188.659 66.5183 190.094C66.8783 191.53 65.3519 192.158 64.4543 195.202C63.5567 198.245 67.5935 202.373 68.7743 201.029C69.9551 199.685 69.9407 194.664 72.7151 191.17C75.3599 187.834 80.5151 179.851 85.2671 176.323Z" fill="white"/>
</mask>
<g mask="url(#mask1_52_2453)">
<path opacity="0.2" d="M68.7407 201.029C68.8087 200.948 68.8697 200.861 68.9231 200.77L68.9663 200.698C69.0191 200.602 69.0719 200.496 69.1247 200.376C69.1247 200.376 69.1247 200.333 69.1487 200.314C69.1919 200.208 69.2351 200.098 69.2735 199.982C69.2884 199.946 69.3012 199.91 69.3119 199.872C69.3599 199.738 69.4031 199.598 69.4463 199.454L69.4895 199.301C69.5183 199.19 69.5519 199.075 69.5855 198.955L69.6287 198.782C68.8902 196.79 68.6769 194.641 69.0095 192.542C69.5903 187.69 75.4127 183.614 76.9679 180.701C78.1274 178.627 79.418 176.629 80.8319 174.72C79.7711 173.683 79.2815 172.128 79.0655 170.707L78.6431 171.782L78.5759 171.965L78.1535 173.04L77.7551 174.048L77.6879 174.216C77.5583 174.542 77.4287 174.864 77.2991 175.176L77.2319 175.344C77.1023 175.666 76.9727 175.982 76.8431 176.304L76.4591 177.206L76.3871 177.374C76.2623 177.662 76.1375 177.941 76.0127 178.214L75.9551 178.349L75.6047 179.107L75.5663 179.189C75.4415 179.448 75.3215 179.698 75.2015 179.938C75.1775 179.99 75.1487 180.038 75.1247 180.082C75.0047 180.322 74.8847 180.562 74.7647 180.778L74.7215 180.859L74.3807 181.459L74.3279 181.55C74.2079 181.752 74.0927 181.939 73.9727 182.122L73.9007 182.227C73.7807 182.41 73.6607 182.578 73.5455 182.736L73.5119 182.774C73.4015 182.923 73.2863 183.062 73.1759 183.192L73.1135 183.264C72.9983 183.398 72.8783 183.514 72.7631 183.624L72.6959 183.686C72.5819 183.79 72.4616 183.886 72.3359 183.974C71.6233 184.462 70.7963 184.756 69.9359 184.829C69.4559 184.877 69.0431 184.877 68.6351 184.882C68.2595 184.876 67.884 184.898 67.5119 184.949C67.2363 184.972 66.9719 185.069 66.7459 185.228C66.5198 185.388 66.3402 185.604 66.2255 185.856C65.9831 186.329 65.844 186.847 65.8175 187.378C65.8124 187.549 65.8221 187.721 65.8463 187.891C65.856 187.972 65.8705 188.052 65.8895 188.131C66.0239 188.77 66.3167 189.355 66.4943 190.051C66.5346 190.216 66.5524 190.386 66.5471 190.555C66.5087 191.198 66.0671 191.741 65.5871 192.581C65.0941 193.386 64.7099 194.253 64.4447 195.158C64.2404 195.953 64.2857 196.791 64.5743 197.558C64.7869 198.157 65.0809 198.724 65.4479 199.243C65.5679 199.416 65.6927 199.579 65.8223 199.723C66.8591 201.01 68.1599 201.701 68.7407 201.029Z" fill="black"/>
</g>
<path d="M85.2671 176.323C84.1746 176.256 83.1017 176.002 82.0943 175.574C80.1263 174.749 79.3535 172.613 79.0655 170.722C76.5887 177.082 74.4575 182.53 72.3455 183.998C69.7439 185.794 67.1471 183.998 66.2495 185.88C65.3519 187.762 66.1583 188.659 66.5183 190.094C66.8783 191.53 65.3519 192.158 64.4543 195.202C63.5567 198.245 67.5935 202.373 68.7743 201.029C69.9551 199.685 69.9407 194.664 72.7151 191.17C75.3599 187.834 80.5151 179.851 85.2671 176.323Z" stroke="#263238" stroke-miterlimit="10" stroke-linecap="round"/>
<path d="M64.3198 127.882C64.3198 127.882 68.7118 133.795 73.3726 133.728C78.0334 133.661 80.7502 129.533 83.1454 129.816C84.916 130.084 86.6515 130.548 88.3198 131.198C88.3198 131.198 104.966 108.893 108.797 105.115C112.627 101.338 114.84 97.0128 109.579 95.6784C104.318 94.344 93.331 96.7104 87.8206 101.554C82.3102 106.397 64.8478 125.669 64.8478 125.669L64.3198 127.882Z" fill="#62BFCC"/>
<mask id="mask2_52_2453" style="mask-type:luminance" maskUnits="userSpaceOnUse" x="64" y="95" width="49" height="39">
<path d="M64.3198 127.882C64.3198 127.882 68.7118 133.795 73.3726 133.728C78.0334 133.661 80.7502 129.533 83.1454 129.816C84.916 130.084 86.6515 130.548 88.3198 131.198C88.3198 131.198 104.966 108.893 108.797 105.115C112.627 101.338 114.84 97.0128 109.579 95.6784C104.318 94.344 93.331 96.7104 87.8206 101.554C82.3102 106.397 64.8478 125.669 64.8478 125.669L64.3198 127.882Z" fill="white"/>
</mask>
<g mask="url(#mask2_52_2453)">
<path opacity="0.5" d="M64.3198 127.882C64.3198 127.882 68.7118 133.795 73.3726 133.728C78.0334 133.661 80.7502 129.533 83.1454 129.816C84.916 130.084 86.6515 130.548 88.3198 131.198C88.3198 131.198 104.966 108.893 108.797 105.115C112.627 101.338 114.84 97.0128 109.579 95.6784C104.318 94.344 93.331 96.7104 87.8206 101.554C82.3102 106.397 64.8478 125.669 64.8478 125.669L64.3198 127.882Z" fill="black" stroke="#263238" stroke-miterlimit="10" stroke-linecap="round"/>
</g>
<path d="M64.3198 127.882C64.3198 127.882 68.7118 133.795 73.3726 133.728C78.0334 133.661 80.7502 129.533 83.1454 129.816C84.916 130.084 86.6515 130.548 88.3198 131.198C88.3198 131.198 104.966 108.893 108.797 105.115C112.627 101.338 114.84 97.0128 109.579 95.6784C104.318 94.344 93.331 96.7104 87.8206 101.554C82.3102 106.397 64.8478 125.669 64.8478 125.669L64.3198 127.882Z" stroke="#263238" stroke-miterlimit="10" stroke-linecap="round"/>
<path d="M127.2 75.8017C127.2 75.8017 128.544 72.5761 131.232 71.1409C133.024 70.2472 134.99 69.7558 136.992 69.7009L143.981 65.3809C143.981 65.3809 145.954 58.5649 152.678 55.7809C159.403 52.9969 187.997 42.6049 188.266 42.4273C188.534 42.2497 191.851 40.6321 191.851 40.9009C191.855 41.3626 191.763 41.8201 191.582 42.2449C191.314 42.9649 184.68 47.2657 184.68 47.2657C184.68 47.2657 187.906 45.2929 187.997 46.3057C188.088 47.3185 187.997 47.5585 186.83 48.2785C185.664 48.9985 183.514 50.3377 183.067 50.6065C182.621 50.8753 180.917 52.4881 179.568 52.6705C178.219 52.8529 174.821 53.1169 174.552 53.3857C174.283 53.6545 165.494 62.1697 162.629 64.5937C159.763 67.0177 155.098 69.2545 155.098 69.2545C155.098 69.2545 148.824 75.9745 144.058 79.4737C139.291 82.9729 136.08 83.8657 136.08 83.8657L135.72 84.2209C135.72 84.2209 135.989 87.3601 135.989 87.7201C135.989 88.0801 138.59 96.9505 137.429 101.88C136.267 106.81 134.021 108.874 134.021 108.874C134.021 108.874 133.666 114.701 132.23 116.851C130.795 119.002 126.85 121.603 124.07 123.667C121.291 125.731 120.936 130.301 120.754 130.839C120.571 131.376 118.354 140.52 117.168 142.757C115.982 144.994 112.368 146.256 111.768 146.434C111.442 146.53 108.101 151.599 104.885 151.349C102.805 151.202 100.848 150.307 99.3753 148.831C97.903 147.354 97.0144 145.394 96.8736 143.314C96.8226 142.428 96.8547 141.539 96.9696 140.659C97.6848 135.187 99.8496 132.917 99.8496 132.917C99.8496 132.917 104.443 114.97 103.992 110.218C103.541 105.466 103.454 102.509 104.798 99.8209C106.142 97.1329 110.534 93.0097 117.35 90.0481C124.166 87.0865 124.968 85.1185 124.968 81.7153C125.037 79.5514 125.822 77.4716 127.2 75.8017Z" fill="white"/>
<mask id="mask3_52_2453" style="mask-type:luminance" maskUnits="userSpaceOnUse" x="96" y="40" width="96" height="112">
<path d="M127.2 75.8017C127.2 75.8017 128.544 72.5761 131.232 71.1409C133.024 70.2472 134.99 69.7558 136.992 69.7009L143.981 65.3809C143.981 65.3809 145.954 58.5649 152.678 55.7809C159.403 52.9969 187.997 42.6049 188.266 42.4273C188.534 42.2497 191.851 40.6321 191.851 40.9009C191.855 41.3626 191.763 41.8201 191.582 42.2449C191.314 42.9649 184.68 47.2657 184.68 47.2657C184.68 47.2657 187.906 45.2929 187.997 46.3057C188.088 47.3185 187.997 47.5585 186.83 48.2785C185.664 48.9985 183.514 50.3377 183.067 50.6065C182.621 50.8753 180.917 52.4881 179.568 52.6705C178.219 52.8529 174.821 53.1169 174.552 53.3857C174.283 53.6545 165.494 62.1697 162.629 64.5937C159.763 67.0177 155.098 69.2545 155.098 69.2545C155.098 69.2545 148.824 75.9745 144.058 79.4737C139.291 82.9729 136.08 83.8657 136.08 83.8657L135.72 84.2209C135.72 84.2209 135.989 87.3601 135.989 87.7201C135.989 88.0801 138.59 96.9505 137.429 101.88C136.267 106.81 134.021 108.874 134.021 108.874C134.021 108.874 133.666 114.701 132.23 116.851C130.795 119.002 126.85 121.603 124.07 123.667C121.291 125.731 120.936 130.301 120.754 130.839C120.571 131.376 118.354 140.52 117.168 142.757C115.982 144.994 112.368 146.256 111.768 146.434C111.442 146.53 108.101 151.599 104.885 151.349C102.805 151.202 100.848 150.307 99.3753 148.831C97.903 147.354 97.0144 145.394 96.8736 143.314C96.8226 142.428 96.8547 141.539 96.9696 140.659C97.6848 135.187 99.8496 132.917 99.8496 132.917C99.8496 132.917 104.443 114.97 103.992 110.218C103.541 105.466 103.454 102.509 104.798 99.8209C106.142 97.1329 110.534 93.0097 117.35 90.0481C124.166 87.0865 124.968 85.1185 124.968 81.7153C125.037 79.5514 125.822 77.4716 127.2 75.8017Z" fill="white"/>
</mask>
<g mask="url(#mask3_52_2453)">
<path d="M137.179 93.4178L137.126 93.3938C137.126 93.3938 136.738 99.2162 135.768 103.099C134.798 106.983 130.723 109.503 130.723 109.503L128.587 115.325C128.587 115.325 123.734 119.784 120.629 119.784C117.523 119.784 117.12 117.264 117.12 117.264C114.197 114.778 107.856 113.064 103.742 114.034C103.099 119.117 101.309 126.807 100.382 130.618C102.115 131.544 104.894 132.418 108.97 132.015C113.18 131.555 117.292 130.439 121.157 128.707C121.565 127.075 122.357 124.915 124.037 123.672L124.973 122.986C122.16 124.157 118.589 127.973 115.963 128.323C113.05 128.712 112.08 128.131 112.277 126.965C112.474 125.799 116.51 126.538 117.902 126.005C119.294 125.472 118.099 125.232 115.186 124.843C112.272 124.455 112.858 123.288 112.858 123.288C112.858 123.288 117.586 123.682 118.483 123.288C119.381 122.895 125.683 121.368 128.563 118.824C131.443 116.28 131.693 110.88 131.693 110.88L133.93 109.762C133.978 109.229 133.997 108.898 133.997 108.898C133.997 108.898 136.238 106.839 137.405 101.904C137.966 99.5138 137.654 96.2306 137.179 93.4178Z" fill="#62BFCC"/>
<path d="M160.872 62.5585C155.265 64.9873 154.152 64.2385 154.152 64.2385C154.638 64.5888 155.094 64.979 155.515 65.4049C156.326 66.1921 155.27 68.7218 152.28 70.9682C149.289 73.2146 139.569 79.2001 137.889 79.2001C136.209 79.2001 136.209 73.5985 136.209 73.5985C135.502 77.073 135.36 80.6387 135.787 84.1585L136.061 83.8897C136.061 83.8897 139.286 82.9921 144.038 79.4977C148.79 76.0033 155.078 69.2785 155.078 69.2785C155.078 69.2785 159.739 67.0369 162.609 64.6177C164.184 63.2881 167.539 60.1201 170.289 57.4897C167.27 59.3932 164.124 61.0867 160.872 62.5585Z" fill="#62BFCC"/>
<path opacity="0.5" d="M160.872 62.5585C155.265 64.9873 154.152 64.2385 154.152 64.2385C154.638 64.5888 155.094 64.979 155.515 65.4049C156.326 66.1921 155.27 68.7218 152.28 70.9682C149.289 73.2146 139.569 79.2001 137.889 79.2001C136.209 79.2001 136.209 73.5985 136.209 73.5985C135.502 77.073 135.36 80.6387 135.787 84.1585L136.061 83.8897C136.061 83.8897 139.286 82.9921 144.038 79.4977C148.79 76.0033 155.078 69.2785 155.078 69.2785C155.078 69.2785 159.739 67.0369 162.609 64.6177C164.184 63.2881 167.539 60.1201 170.289 57.4897C167.27 59.3932 164.124 61.0867 160.872 62.5585Z" fill="white"/>
<path opacity="0.5" d="M137.179 93.4178L137.126 93.3938C137.126 93.3938 136.738 99.2162 135.768 103.099C134.798 106.983 130.723 109.503 130.723 109.503L128.587 115.325C128.587 115.325 123.734 119.784 120.629 119.784C117.523 119.784 117.12 117.264 117.12 117.264C114.197 114.778 107.856 113.064 103.742 114.034C103.099 119.117 101.309 126.807 100.382 130.618C102.115 131.544 104.894 132.418 108.97 132.015C113.18 131.555 117.292 130.439 121.157 128.707C121.565 127.075 122.357 124.915 124.037 123.672L124.973 122.986C122.16 124.157 118.589 127.973 115.963 128.323C113.05 128.712 112.08 128.131 112.277 126.965C112.474 125.799 116.51 126.538 117.902 126.005C119.294 125.472 118.099 125.232 115.186 124.843C112.272 124.455 112.858 123.288 112.858 123.288C112.858 123.288 117.586 123.682 118.483 123.288C119.381 122.895 125.683 121.368 128.563 118.824C131.443 116.28 131.693 110.88 131.693 110.88L133.93 109.762C133.978 109.229 133.997 108.898 133.997 108.898C133.997 108.898 136.238 106.839 137.405 101.904C137.966 99.5138 137.654 96.2306 137.179 93.4178Z" fill="white"/>
</g>
<path d="M127.2 75.8017C127.2 75.8017 128.544 72.5761 131.232 71.1409C133.024 70.2472 134.99 69.7558 136.992 69.7009L143.981 65.3809C143.981 65.3809 145.954 58.5649 152.678 55.7809C159.403 52.9969 187.997 42.6049 188.266 42.4273C188.534 42.2497 191.851 40.6321 191.851 40.9009C191.855 41.3626 191.763 41.8201 191.582 42.2449C191.314 42.9649 184.68 47.2657 184.68 47.2657C184.68 47.2657 187.906 45.2929 187.997 46.3057C188.088 47.3185 187.997 47.5585 186.83 48.2785C185.664 48.9985 183.514 50.3377 183.067 50.6065C182.621 50.8753 180.917 52.4881 179.568 52.6705C178.219 52.8529 174.821 53.1169 174.552 53.3857C174.283 53.6545 165.494 62.1697 162.629 64.5937C159.763 67.0177 155.098 69.2545 155.098 69.2545C155.098 69.2545 148.824 75.9745 144.058 79.4737C139.291 82.9729 136.08 83.8657 136.08 83.8657L135.72 84.2209C135.72 84.2209 135.989 87.3601 135.989 87.7201C135.989 88.0801 138.59 96.9505 137.429 101.88C136.267 106.81 134.021 108.874 134.021 108.874C134.021 108.874 133.666 114.701 132.23 116.851C130.795 119.002 126.85 121.603 124.07 123.667C121.291 125.731 120.936 130.301 120.754 130.839C120.571 131.376 118.354 140.52 117.168 142.757C115.982 144.994 112.368 146.256 111.768 146.434C111.442 146.53 108.101 151.599 104.885 151.349C102.805 151.202 100.848 150.307 99.3753 148.831C97.903 147.354 97.0144 145.394 96.8736 143.314C96.8226 142.428 96.8547 141.539 96.9696 140.659C97.6848 135.187 99.8496 132.917 99.8496 132.917C99.8496 132.917 104.443 114.97 103.992 110.218C103.541 105.466 103.454 102.509 104.798 99.8209C106.142 97.1329 110.534 93.0097 117.35 90.0481C124.166 87.0865 124.968 85.1185 124.968 81.7153C125.037 79.5514 125.822 77.4716 127.2 75.8017Z" stroke="#263238" stroke-miterlimit="10" stroke-linecap="round"/>
<path d="M133.917 106.754C134.865 102.723 133.542 98.9636 130.962 98.3565C128.381 97.7493 125.521 100.525 124.572 104.555C123.624 108.586 124.947 112.346 127.527 112.953C130.108 113.56 132.969 110.785 133.917 106.754Z" fill="#62BFCC"/>
<path d="M117.6 123.672C112.757 124.747 110.88 122.415 110.88 122.415C110.88 122.415 111.417 126 116.529 126.538" stroke="#263238" stroke-linecap="round" stroke-linejoin="round"/>
<path d="M128.981 102.067C128.981 102.067 131.76 108.787 129.518 113.899C127.277 119.011 124.046 120.96 117.955 121.968" stroke="#263238" stroke-miterlimit="10" stroke-linecap="round"/>
<path d="M123.153 123.759C123.153 123.759 119.476 127.075 116.606 128.151C113.736 129.226 111.499 131.112 109.08 127.882" stroke="#263238" stroke-miterlimit="10" stroke-linecap="round"/>
<path d="M152.016 65.4912C152.016 65.4912 154.257 63.9696 155.51 65.4048C156.763 66.84 155.064 69.2448 155.064 69.2448" stroke="#263238" stroke-linecap="round" stroke-linejoin="round"/>
<path d="M136.421 72.125C135.935 74.5247 135.581 76.9491 135.36 79.3874C135.235 81.0089 135.355 82.6399 135.715 84.2258" stroke="#263238" stroke-linecap="round" stroke-linejoin="round"/>
<path d="M115.31 104.717L120.681 101.866" stroke="#263238" stroke-miterlimit="10" stroke-linecap="round"/>
<path d="M188.232 42.456C187.992 42.6144 165.283 50.88 155.592 54.648C156.465 54.6864 161.045 55.0704 162.259 59.04C162.793 60.7326 163.04 62.5027 162.989 64.2768C166.176 61.5072 174.283 53.6496 174.542 53.3904C174.801 53.1312 178.214 52.8528 179.558 52.6752C180.902 52.4976 182.606 50.88 183.057 50.6112C183.509 50.3424 185.654 48.9984 186.821 48.2832C187.987 47.568 188.078 47.2944 187.987 46.3104C187.896 45.3264 184.67 47.2704 184.67 47.2704C184.67 47.2704 191.304 42.9504 191.573 42.2496C191.754 41.8248 191.845 41.3673 191.841 40.9056C191.817 40.6608 188.501 42.2736 188.232 42.456Z" fill="#62BFCC" stroke="#263238" stroke-linecap="round" stroke-linejoin="round"/>
<path d="M184.646 47.2944L181.507 48.9072" stroke="#263238" stroke-linecap="round" stroke-linejoin="round"/>
<path d="M121.368 127.992C120.364 128.381 119.097 128.904 117.888 129.485C114.529 131.102 110.906 132.1 107.193 132.432C104.275 132.677 101.793 131.371 100.435 130.45C100.065 131.967 99.8252 132.922 99.8252 132.922C99.8252 132.922 97.6604 135.192 96.9452 140.664C96.8303 141.544 96.7981 142.433 96.8492 143.319C96.99 145.399 97.8785 147.359 99.3509 148.836C100.823 150.312 102.78 151.207 104.86 151.354C108.076 151.603 111.417 146.554 111.744 146.439C112.368 146.261 115.982 144.999 117.144 142.762C118.305 140.525 120.552 131.381 120.729 130.843C120.816 130.584 120.96 129.389 121.368 127.992Z" fill="#263238" stroke="#263238" stroke-miterlimit="10" stroke-linecap="round"/>
<path d="M102.144 135.566C102.144 135.566 105.984 133.91 109.862 135.288" stroke="white" stroke-width="0.75" stroke-linecap="round" stroke-linejoin="round"/>
<path d="M110.246 130.853C105.297 131.41 102.432 129.6 100.977 128.17C100.646 129.61 100.358 130.781 100.147 131.621C102.684 133.2 105.679 133.876 108.648 133.541C113.985 132.883 118.829 130.699 120.974 129.614C120.993 129.502 121.017 129.387 121.046 129.269C121.118 128.918 121.214 128.539 121.329 128.136C121.329 128.112 121.329 128.088 121.353 128.059C121.392 127.934 121.43 127.805 121.473 127.675C121.475 127.656 121.475 127.637 121.473 127.618C121.622 127.174 121.796 126.74 121.997 126.317C118.521 128.789 114.481 130.349 110.246 130.853Z" fill="#62BFCC" stroke="#263238" stroke-miterlimit="10" stroke-linecap="round"/>
<path d="M95.2126 99.36C95.2126 99.36 94.3438 99.8016 97.4782 97.7424C100.613 95.6832 99.667 98.664 101.798 93.3744C103.929 88.0848 106.281 84.144 110.136 82.7088C113.99 81.2736 125.376 83.3376 125.376 83.3376L128.064 85.2192L124.32 92.4768C123.418 92.0331 122.433 91.7872 121.428 91.7558C120.424 91.7243 119.425 91.908 118.497 92.2944C115.449 93.6384 113.832 95.2512 114.177 96.6864C114.523 98.1216 117.403 102.067 117.403 102.067C117.403 102.067 103.829 96.7344 101.678 97.896C99.5278 99.0576 92.9758 101.438 92.6158 101.621C92.2558 101.803 95.2126 99.36 95.2126 99.36Z" fill="#62BFCC" stroke="#263238" stroke-miterlimit="10" stroke-linecap="round"/>
<path d="M103.569 95.1601C104.025 94.4929 104.529 93.7201 105.043 92.8321C107.376 88.8913 112.037 87.1873 112.037 87.1873" stroke="#263238" stroke-miterlimit="10" stroke-linecap="round"/>
<path d="M112.378 91.4929C111.119 91.8014 109.934 92.356 108.891 93.1246C107.849 93.8932 106.968 94.8607 106.301 95.9713" stroke="#263238" stroke-miterlimit="10" stroke-linecap="round"/>
<path d="M109.886 104.309C109.886 104.309 104.419 103.503 100.286 106.997C96.1533 110.491 96.6189 114.24 96.6189 114.24C96.6189 114.24 92.5821 116.031 91.7757 118.08C91.3045 119.291 90.9821 120.555 90.8157 121.843C90.8157 121.843 88.6653 123.907 86.8701 125.967C85.0749 128.026 83.5533 128.367 83.1933 131.079C82.8333 133.791 83.0157 140.4 84.9885 146.943C86.9613 153.485 88.3053 156.355 88.8285 157.503C89.3517 158.65 94.0269 164.583 94.8333 164.765C95.6397 164.947 96.4461 165.12 97.0749 164.765C97.7037 164.41 102.355 163.325 102.187 161.986C102.152 161.27 101.901 160.582 101.467 160.013L101.289 159.744C101.289 159.744 102.096 158.218 101.558 157.503C101.021 156.787 100.569 156.696 99.5853 155.799C98.6013 154.901 98.0637 154.632 96.8973 154.632C95.7309 154.632 94.4973 154.723 94.4973 154.723C94.4973 154.723 92.7021 154.003 92.7021 148.805C92.7021 143.607 94.3149 139.123 95.1021 136.805C95.5774 135.479 95.8493 134.089 95.9085 132.682C95.9085 132.682 96.5373 133.579 100.929 131.515C105.321 129.451 106.31 123.629 106.31 123.629L99.8397 124.656C103.007 124.378 106.134 123.747 109.161 122.775C114.182 121.162 116.333 120.893 118.281 113.271" fill="white"/>
<mask id="mask4_52_2453" style="mask-type:luminance" maskUnits="userSpaceOnUse" x="83" y="104" width="36" height="61">
<path d="M109.886 104.309C109.886 104.309 104.419 103.503 100.286 106.997C96.1533 110.491 96.6189 114.24 96.6189 114.24C96.6189 114.24 92.5821 116.031 91.7757 118.08C91.3045 119.291 90.9821 120.555 90.8157 121.843C90.8157 121.843 88.6653 123.907 86.8701 125.967C85.0749 128.026 83.5533 128.367 83.1933 131.079C82.8333 133.791 83.0157 140.4 84.9885 146.943C86.9613 153.485 88.3053 156.355 88.8285 157.503C89.3517 158.65 94.0269 164.583 94.8333 164.765C95.6397 164.947 96.4461 165.12 97.0749 164.765C97.7037 164.41 102.355 163.325 102.187 161.986C102.152 161.27 101.901 160.582 101.467 160.013L101.289 159.744C101.289 159.744 102.096 158.218 101.558 157.503C101.021 156.787 100.569 156.696 99.5853 155.799C98.6013 154.901 98.0637 154.632 96.8973 154.632C95.7309 154.632 94.4973 154.723 94.4973 154.723C94.4973 154.723 92.7021 154.003 92.7021 148.805C92.7021 143.607 94.3149 139.123 95.1021 136.805C95.5774 135.479 95.8493 134.089 95.9085 132.682C95.9085 132.682 96.5373 133.579 100.929 131.515C105.321 129.451 106.31 123.629 106.31 123.629L99.8397 124.656C103.007 124.378 106.134 123.747 109.161 122.775C114.182 121.162 116.333 120.893 118.281 113.271" fill="white"/>
</mask>
<g mask="url(#mask4_52_2453)">
<path d="M101.361 120.926C100.439 119.693 105.681 116.126 107.068 114.758C108.455 113.39 102.595 117.072 101.207 117.379C99.8203 117.686 98.5867 116.76 99.3595 112.445C99.917 109.734 101.234 107.236 103.156 105.245C102.113 105.678 101.142 106.267 100.276 106.992C96.1531 110.486 96.6043 114.254 96.6043 114.254C96.6043 114.254 92.5675 116.045 91.7611 118.094C91.2898 119.305 90.9675 120.569 90.8011 121.858C90.8011 121.858 88.6507 123.922 86.8555 125.981C85.0603 128.04 83.5387 128.381 83.1787 131.093C82.8187 133.805 83.0011 140.414 84.9739 146.957C86.9467 153.499 88.2907 156.37 88.8139 157.517C89.3371 158.664 94.0123 164.597 94.8187 164.779C95.6251 164.962 96.4315 165.134 97.0603 164.779C97.6891 164.424 102.34 163.339 102.172 162C102.132 161.675 102.067 161.354 101.975 161.04C100.257 161.256 97.1131 162.355 96.2683 162.355C95.3467 162.355 94.4203 160.968 93.0331 159.422C91.6459 157.877 89.4859 153.874 89.1931 148.939C88.9003 144.005 91.0411 139.378 91.0411 137.064C91.0411 134.75 88.2667 140.15 88.8811 137.837C89.4955 135.523 91.9675 132.13 93.8155 131.203C95.6635 130.277 97.8283 129.662 98.6155 128.122C99.4027 126.581 95.8411 127.642 97.0747 126.422C98.3083 125.203 106.329 123.619 108.95 122.102C111.571 120.586 102.287 122.16 101.361 120.926Z" fill="#62BFCC"/>
<path opacity="0.5" d="M101.361 120.926C100.439 119.693 105.681 116.126 107.068 114.758C108.455 113.39 102.595 117.072 101.207 117.379C99.8203 117.686 98.5867 116.76 99.3595 112.445C99.917 109.734 101.234 107.236 103.156 105.245C102.113 105.678 101.142 106.267 100.276 106.992C96.1531 110.486 96.6043 114.254 96.6043 114.254C96.6043 114.254 92.5675 116.045 91.7611 118.094C91.2898 119.305 90.9675 120.569 90.8011 121.858C90.8011 121.858 88.6507 123.922 86.8555 125.981C85.0603 128.04 83.5387 128.381 83.1787 131.093C82.8187 133.805 83.0011 140.414 84.9739 146.957C86.9467 153.499 88.2907 156.37 88.8139 157.517C89.3371 158.664 94.0123 164.597 94.8187 164.779C95.6251 164.962 96.4315 165.134 97.0603 164.779C97.6891 164.424 102.34 163.339 102.172 162C102.132 161.675 102.067 161.354 101.975 161.04C100.257 161.256 97.1131 162.355 96.2683 162.355C95.3467 162.355 94.4203 160.968 93.0331 159.422C91.6459 157.877 89.4859 153.874 89.1931 148.939C88.9003 144.005 91.0411 139.378 91.0411 137.064C91.0411 134.75 88.2667 140.15 88.8811 137.837C89.4955 135.523 91.9675 132.13 93.8155 131.203C95.6635 130.277 97.8283 129.662 98.6155 128.122C99.4027 126.581 95.8411 127.642 97.0747 126.422C98.3083 125.203 106.329 123.619 108.95 122.102C111.571 120.586 102.287 122.16 101.361 120.926Z" fill="white"/>
</g>
<path d="M109.886 104.309C109.886 104.309 104.419 103.503 100.286 106.997C96.1533 110.491 96.6189 114.24 96.6189 114.24C96.6189 114.24 92.5821 116.031 91.7757 118.08C91.3045 119.291 90.9821 120.555 90.8157 121.843C90.8157 121.843 88.6653 123.907 86.8701 125.967C85.0749 128.026 83.5533 128.367 83.1933 131.079C82.8333 133.791 83.0157 140.4 84.9885 146.943C86.9613 153.485 88.3053 156.355 88.8285 157.503C89.3517 158.65 94.0269 164.583 94.8333 164.765C95.6397 164.947 96.4461 165.12 97.0749 164.765C97.7037 164.41 102.355 163.325 102.187 161.986C102.152 161.27 101.901 160.582 101.467 160.013L101.289 159.744C101.289 159.744 102.096 158.218 101.558 157.503C101.021 156.787 100.569 156.696 99.5853 155.799C98.6013 154.901 98.0637 154.632 96.8973 154.632C95.7309 154.632 94.4973 154.723 94.4973 154.723C94.4973 154.723 92.7021 154.003 92.7021 148.805C92.7021 143.607 94.3149 139.123 95.1021 136.805C95.5774 135.479 95.8493 134.089 95.9085 132.682C95.9085 132.682 96.5373 133.579 100.929 131.515C105.321 129.451 106.31 123.629 106.31 123.629L99.8397 124.656C103.007 124.378 106.134 123.747 109.161 122.775C114.182 121.162 116.333 120.893 118.281 113.271" stroke="#263238" stroke-miterlimit="10" stroke-linecap="round"/>
<path d="M95.8989 132.725L95.3853 128.611" stroke="#263238" stroke-linecap="round" stroke-linejoin="round"/>
<path d="M121.267 100.901C123.869 100.095 124.498 96.869 126.019 93.461C127.222 90.9311 128.578 88.4769 130.08 86.1122C127.456 86.1483 124.847 85.7226 122.371 84.8546C118.334 83.4146 113.582 84.4082 112.69 85.3922C111.797 86.3762 111.883 85.1234 112.061 88.1714C112.238 91.2194 113.405 95.6114 114.461 97.1378C115.517 98.6642 116.165 99.5378 116.165 99.5378" fill="white"/>
<mask id="mask5_52_2453" style="mask-type:luminance" maskUnits="userSpaceOnUse" x="111" y="84" width="20" height="17">
<path d="M121.267 100.901C123.869 100.095 124.498 96.869 126.019 93.461C127.222 90.9311 128.578 88.4769 130.08 86.1122C127.456 86.1483 124.847 85.7226 122.371 84.8546C118.334 83.4146 113.582 84.4082 112.69 85.3922C111.797 86.3762 111.883 85.1234 112.061 88.1714C112.238 91.2194 113.405 95.6114 114.461 97.1378C115.517 98.6642 116.165 99.5378 116.165 99.5378" fill="white"/>
</mask>
<g mask="url(#mask5_52_2453)">
<path d="M128.928 86.1026C126.685 86.0126 124.467 85.5921 122.347 84.8546C118.31 83.4146 113.558 84.4082 112.666 85.3922C111.773 86.3762 111.859 85.1234 112.037 88.1714C112.214 91.2194 113.381 95.6114 114.437 97.1378L114.821 97.6754L129.149 86.213L128.928 86.1026Z" fill="#62BFCC"/>
<path opacity="0.5" d="M128.928 86.1026C126.685 86.0126 124.467 85.5921 122.347 84.8546C118.31 83.4146 113.558 84.4082 112.666 85.3922C111.773 86.3762 111.859 85.1234 112.037 88.1714C112.214 91.2194 113.381 95.6114 114.437 97.1378L114.821 97.6754L129.149 86.213L128.928 86.1026Z" fill="white"/>
</g>
<path d="M121.267 100.901C123.869 100.095 124.498 96.869 126.019 93.461C127.222 90.9311 128.578 88.4769 130.08 86.1122C127.456 86.1483 124.847 85.7226 122.371 84.8546C118.334 83.4146 113.582 84.4082 112.69 85.3922C111.797 86.3762 111.883 85.1234 112.061 88.1714C112.238 91.2194 113.405 95.6114 114.461 97.1378C115.517 98.6642 116.165 99.5378 116.165 99.5378" stroke="#263238" stroke-miterlimit="10" stroke-linecap="round"/>
<path d="M120.643 95.6114C122.234 95.6237 123.821 95.4284 125.362 95.0306C125.568 94.517 125.784 93.9938 126.019 93.461C127.222 90.9311 128.578 88.4769 130.08 86.1122C127.456 86.1483 124.847 85.7226 122.371 84.8546C118.334 83.4146 113.582 84.4082 112.69 85.3922C111.797 86.3762 111.883 85.1234 112.061 88.1714C112.192 89.9234 112.496 91.6582 112.968 93.3506C114.418 94.5602 116.794 95.573 120.643 95.6114Z" stroke="#263238" stroke-miterlimit="10" stroke-linecap="round"/>
<path d="M121.488 99.48L119.328 89.9712" stroke="#263238" stroke-linecap="round" stroke-linejoin="round"/>
<path d="M123.988 68.2368C124.247 67.1766 124.436 66.1008 124.555 65.016C124.737 63.312 120.643 60.2928 116.428 60.6528C112.214 61.0128 113.74 65.136 113.203 66.48C112.665 67.824 108.628 66.3888 107.553 68.808C106.478 71.2272 108.36 71.9472 108.36 72.648C108.36 73.3488 105.043 75.2496 105.48 79.464C105.916 83.6784 113.188 87.7968 114.801 88.1568C116.414 88.5168 118.387 86.9904 118.387 85.7568C118.387 84.5232 121.075 84.0528 121.795 82.8768C122.515 81.7008 120.628 77.6784 120.715 76.7808C120.801 75.8832 123.595 72.3024 122.688 71.4048C121.78 70.5072 123.988 68.2368 123.988 68.2368Z" fill="#263238" stroke="#263238" stroke-miterlimit="10" stroke-linecap="round"/>
<path d="M119.698 69.2448C119.698 69.2448 121.09 69.0912 121.09 66.0048C121.09 62.9184 116.616 63.6912 115.997 64.9248C115.378 66.1584 115.843 68.472 114.302 69.0912C112.762 69.7104 110.29 69.7056 110.29 70.9392V72.6384" stroke="white" stroke-width="0.75" stroke-linecap="round" stroke-linejoin="round"/>
<path d="M115.68 71.7121C115.68 71.7121 109.973 71.4049 107.04 76.6465" stroke="white" stroke-width="0.75" stroke-linecap="round" stroke-linejoin="round"/>
<path d="M116.462 73.0994C116.462 73.0994 112.622 73.253 110.602 75.8738" stroke="white" stroke-width="0.75" stroke-linecap="round" stroke-linejoin="round"/>
<path d="M123.038 68.8034C123.292 68.4722 126.609 71.9186 126.739 72.3074C126.87 72.7812 126.974 73.2619 127.051 73.7474C127.066 73.8381 127.099 73.9249 127.149 74.0025C127.198 74.08 127.263 74.1467 127.339 74.1986L129.657 75.7874C129.807 75.8921 129.909 76.0514 129.943 76.231C129.976 76.4106 129.937 76.5961 129.835 76.7474L129.028 77.909C128.958 78.0078 128.916 78.1236 128.906 78.2443C128.896 78.3651 128.918 78.4863 128.971 78.5954C129.619 79.9874 131.913 84.9314 131.76 85.3154C131.579 85.7869 131.226 86.1715 130.771 86.3906C130.324 86.5682 122.078 89.3474 121.089 89.4386C120.331 89.5058 118.507 86.3906 117.7 84.941C117.606 84.7813 117.451 84.6658 117.271 84.6199C117.091 84.574 116.9 84.6014 116.74 84.6962C116.395 84.8957 116.005 85.006 115.606 85.0169C115.207 85.0277 114.812 84.939 114.456 84.7586C112.66 83.9474 110.616 82.4258 111.494 80.7218C112.372 79.0178 113.827 78.9314 114.456 79.3778C114.873 79.6754 115.612 80.2994 116.059 80.6738C116.166 80.7673 116.301 80.8249 116.443 80.8387C116.584 80.8524 116.727 80.8217 116.851 80.7506L117.23 80.5298C117.32 80.4805 117.399 80.4115 117.459 80.3279C117.519 80.2443 117.56 80.1482 117.578 80.0468C117.596 79.9454 117.59 79.8412 117.563 79.742C117.535 79.6428 117.485 79.5512 117.417 79.4738C117.274 79.2915 117.16 79.0873 117.081 78.869C117.081 78.869 119.678 76.6274 118.785 75.3746C117.892 74.1218 115.468 72.2354 115.737 71.2514C116.006 70.2674 119.577 69.0098 121.113 69.0098C121.684 68.9906 122.851 69.053 123.038 68.8034Z" fill="white"/>
<mask id="mask6_52_2453" style="mask-type:luminance" maskUnits="userSpaceOnUse" x="111" y="68" width="21" height="22">
<path d="M123.038 68.8034C123.292 68.4722 126.609 71.9186 126.739 72.3074C126.87 72.7812 126.974 73.2619 127.051 73.7474C127.066 73.8381 127.099 73.9249 127.149 74.0025C127.198 74.08 127.263 74.1467 127.339 74.1986L129.657 75.7874C129.807 75.8921 129.909 76.0514 129.943 76.231C129.976 76.4106 129.937 76.5961 129.835 76.7474L129.028 77.909C128.958 78.0078 128.916 78.1236 128.906 78.2443C128.896 78.3651 128.918 78.4863 128.971 78.5954C129.619 79.9874 131.913 84.9314 131.76 85.3154C131.579 85.7869 131.226 86.1715 130.771 86.3906C130.324 86.5682 122.078 89.3474 121.089 89.4386C120.331 89.5058 118.507 86.3906 117.7 84.941C117.606 84.7813 117.451 84.6658 117.271 84.6199C117.091 84.574 116.9 84.6014 116.74 84.6962C116.395 84.8957 116.005 85.006 115.606 85.0169C115.207 85.0277 114.812 84.939 114.456 84.7586C112.66 83.9474 110.616 82.4258 111.494 80.7218C112.372 79.0178 113.827 78.9314 114.456 79.3778C114.873 79.6754 115.612 80.2994 116.059 80.6738C116.166 80.7673 116.301 80.8249 116.443 80.8387C116.584 80.8524 116.727 80.8217 116.851 80.7506L117.23 80.5298C117.32 80.4805 117.399 80.4115 117.459 80.3279C117.519 80.2443 117.56 80.1482 117.578 80.0468C117.596 79.9454 117.59 79.8412 117.563 79.742C117.535 79.6428 117.485 79.5512 117.417 79.4738C117.274 79.2915 117.16 79.0873 117.081 78.869C117.081 78.869 119.678 76.6274 118.785 75.3746C117.892 74.1218 115.468 72.2354 115.737 71.2514C116.006 70.2674 119.577 69.0098 121.113 69.0098C121.684 68.9906 122.851 69.053 123.038 68.8034Z" fill="white"/>
</mask>
<g mask="url(#mask6_52_2453)">
<path d="M118.761 75.3602C119.654 76.613 117.057 78.8546 117.057 78.8546C117.136 79.0729 117.249 79.277 117.393 79.4594C117.461 79.5367 117.511 79.6284 117.539 79.7276C117.566 79.8268 117.571 79.931 117.553 80.0324C117.535 80.1338 117.495 80.2299 117.435 80.3135C117.375 80.3971 117.296 80.4661 117.206 80.5154L116.827 80.7362C116.703 80.8072 116.56 80.838 116.418 80.8243C116.276 80.8105 116.142 80.7529 116.035 80.6594C115.588 80.285 114.849 79.661 114.431 79.3634C113.803 78.917 112.367 79.0034 111.47 80.7074C110.572 82.4114 112.636 83.933 114.431 84.7442C114.787 84.9246 115.183 85.0133 115.582 85.0024C115.981 84.9915 116.371 84.8813 116.716 84.6818C116.876 84.587 117.067 84.5596 117.247 84.6055C117.427 84.6514 117.581 84.7669 117.676 84.9266C118.483 86.3666 120.307 89.4914 121.065 89.4242C122.054 89.333 130.3 86.5442 130.747 86.3762C131.201 86.1571 131.555 85.7724 131.735 85.301C131.735 85.301 128.174 86.9858 126.235 85.2386C124.295 83.4914 121.771 80.9714 120.993 79.805C120.215 78.6386 121.833 76.061 120.215 73.5938C118.598 71.1266 115.689 71.2274 115.689 71.2274C115.444 72.2162 117.863 74.0978 118.761 75.3602Z" fill="#62BFCC"/>
<path opacity="0.5" d="M118.761 75.3602C119.654 76.613 117.057 78.8546 117.057 78.8546C117.136 79.0729 117.249 79.277 117.393 79.4594C117.461 79.5367 117.511 79.6284 117.539 79.7276C117.566 79.8268 117.571 79.931 117.553 80.0324C117.535 80.1338 117.495 80.2299 117.435 80.3135C117.375 80.3971 117.296 80.4661 117.206 80.5154L116.827 80.7362C116.703 80.8072 116.56 80.838 116.418 80.8243C116.276 80.8105 116.142 80.7529 116.035 80.6594C115.588 80.285 114.849 79.661 114.431 79.3634C113.803 78.917 112.367 79.0034 111.47 80.7074C110.572 82.4114 112.636 83.933 114.431 84.7442C114.787 84.9246 115.183 85.0133 115.582 85.0024C115.981 84.9915 116.371 84.8813 116.716 84.6818C116.876 84.587 117.067 84.5596 117.247 84.6055C117.427 84.6514 117.581 84.7669 117.676 84.9266C118.483 86.3666 120.307 89.4914 121.065 89.4242C122.054 89.333 130.3 86.5442 130.747 86.3762C131.201 86.1571 131.555 85.7724 131.735 85.301C131.735 85.301 128.174 86.9858 126.235 85.2386C124.295 83.4914 121.771 80.9714 120.993 79.805C120.215 78.6386 121.833 76.061 120.215 73.5938C118.598 71.1266 115.689 71.2274 115.689 71.2274C115.444 72.2162 117.863 74.0978 118.761 75.3602Z" fill="white"/>
</g>
<path d="M123.038 68.8034C123.292 68.4722 126.609 71.9186 126.739 72.3074C126.87 72.7812 126.974 73.2619 127.051 73.7474C127.066 73.8381 127.099 73.9249 127.149 74.0025C127.198 74.08 127.263 74.1467 127.339 74.1986L129.657 75.7874C129.807 75.8921 129.909 76.0514 129.943 76.231C129.976 76.4106 129.937 76.5961 129.835 76.7474L129.028 77.909C128.958 78.0078 128.916 78.1236 128.906 78.2443C128.896 78.3651 128.918 78.4863 128.971 78.5954C129.619 79.9874 131.913 84.9314 131.76 85.3154C131.579 85.7869 131.226 86.1715 130.771 86.3906C130.324 86.5682 122.078 89.3474 121.089 89.4386C120.331 89.5058 118.507 86.3906 117.7 84.941C117.606 84.7813 117.451 84.6658 117.271 84.6199C117.091 84.574 116.9 84.6014 116.74 84.6962C116.395 84.8957 116.005 85.006 115.606 85.0169C115.207 85.0277 114.812 84.939 114.456 84.7586C112.66 83.9474 110.616 82.4258 111.494 80.7218C112.372 79.0178 113.827 78.9314 114.456 79.3778C114.873 79.6754 115.612 80.2994 116.059 80.6738C116.166 80.7673 116.301 80.8249 116.443 80.8387C116.584 80.8524 116.727 80.8217 116.851 80.7506L117.23 80.5298C117.32 80.4805 117.399 80.4115 117.459 80.3279C117.519 80.2443 117.56 80.1482 117.578 80.0468C117.596 79.9454 117.59 79.8412 117.563 79.742C117.535 79.6428 117.485 79.5512 117.417 79.4738C117.274 79.2915 117.16 79.0873 117.081 78.869C117.081 78.869 119.678 76.6274 118.785 75.3746C117.892 74.1218 115.468 72.2354 115.737 71.2514C116.006 70.2674 119.577 69.0098 121.113 69.0098C121.684 68.9906 122.851 69.053 123.038 68.8034Z" stroke="#263238" stroke-miterlimit="10" stroke-linecap="round"/>
<path d="M125.553 73.6032C125.553 73.6032 123.633 73.6032 123.091 73.8768C122.549 74.1504 121.857 76.0656 121.857 76.0656L123.638 74.9712L125.688 74.5632L126.235 73.0608L125.553 73.6032Z" fill="#263238"/>
<path d="M125.688 75.5186L124.046 76.3394H125.688" fill="white"/>
<path d="M125.688 75.5186L124.046 76.3394H125.688" stroke="#263238" stroke-miterlimit="10" stroke-linecap="round"/>
<path d="M123.96 163.383C120.855 164.338 117.876 165.661 115.085 167.323C110.88 169.92 103.877 174.048 100.742 174.24C97.608 174.432 96.6192 173.434 94.7376 172.719C92.856 172.003 91.8576 174.331 91.8576 175.675C91.8576 177.019 91.8576 177.648 90.96 178.906C90.0624 180.163 87.744 184.8 87.744 184.8C87.744 184.8 86.4864 189.821 87.744 189.999C89.0016 190.176 89.8032 188.477 92.4048 186.327C95.0064 184.176 99.1248 179.511 102.802 179.155C106.478 178.8 122.885 177.091 129.682 173.875C136.478 170.659 136.046 171.543 138.019 170.035C139.992 168.528 139.272 165.643 138.288 163.671C137.765 162.556 136.999 161.572 136.046 160.791" fill="white"/>
<mask id="mask7_52_2453" style="mask-type:luminance" maskUnits="userSpaceOnUse" x="87" y="160" width="53" height="31">
<path d="M123.96 163.383C120.855 164.338 117.876 165.661 115.085 167.323C110.88 169.92 103.877 174.048 100.742 174.24C97.608 174.432 96.6192 173.434 94.7376 172.719C92.856 172.003 91.8576 174.331 91.8576 175.675C91.8576 177.019 91.8576 177.648 90.96 178.906C90.0624 180.163 87.744 184.8 87.744 184.8C87.744 184.8 86.4864 189.821 87.744 189.999C89.0016 190.176 89.8032 188.477 92.4048 186.327C95.0064 184.176 99.1248 179.511 102.802 179.155C106.478 178.8 122.885 177.091 129.682 173.875C136.478 170.659 136.046 171.543 138.019 170.035C139.992 168.528 139.272 165.643 138.288 163.671C137.765 162.556 136.999 161.572 136.046 160.791" fill="white"/>
</mask>
<g mask="url(#mask7_52_2453)">
<path d="M133.733 172.061C132.926 171.917 132.293 171.706 132.293 171.408C132.293 170.631 134.621 170.631 135.787 169.08C136.954 167.53 135.59 165.975 134.04 164.227C133.445 163.56 132.71 162.605 131.918 161.674L123.979 163.383C120.874 164.338 117.895 165.661 115.104 167.323C110.88 169.92 103.877 174.048 100.742 174.24C97.608 174.432 96.6192 173.434 94.7376 172.719C92.856 172.003 91.8576 174.331 91.8576 175.675C91.8576 177.019 91.8576 177.648 90.96 178.906C90.0624 180.163 87.744 184.8 87.744 184.8C87.744 184.8 86.4864 189.821 87.744 189.999C89.0016 190.176 89.8032 188.477 92.4048 186.327C95.0064 184.176 99.1248 179.511 102.802 179.155C106.478 178.8 122.885 177.091 129.682 173.875C131.486 173.021 132.768 172.459 133.733 172.061Z" fill="#62BFCC"/>
<path opacity="0.5" d="M133.733 172.061C132.926 171.917 132.293 171.706 132.293 171.408C132.293 170.631 134.621 170.631 135.787 169.08C136.954 167.53 135.59 165.975 134.04 164.227C133.445 163.56 132.71 162.605 131.918 161.674L123.979 163.383C120.874 164.338 117.895 165.661 115.104 167.323C110.88 169.92 103.877 174.048 100.742 174.24C97.608 174.432 96.6192 173.434 94.7376 172.719C92.856 172.003 91.8576 174.331 91.8576 175.675C91.8576 177.019 91.8576 177.648 90.96 178.906C90.0624 180.163 87.744 184.8 87.744 184.8C87.744 184.8 86.4864 189.821 87.744 189.999C89.0016 190.176 89.8032 188.477 92.4048 186.327C95.0064 184.176 99.1248 179.511 102.802 179.155C106.478 178.8 122.885 177.091 129.682 173.875C131.486 173.021 132.768 172.459 133.733 172.061Z" fill="white"/>
</g>
<path d="M123.96 163.383C120.855 164.338 117.876 165.661 115.085 167.323C110.88 169.92 103.877 174.048 100.742 174.24C97.608 174.432 96.6192 173.434 94.7376 172.719C92.856 172.003 91.8576 174.331 91.8576 175.675C91.8576 177.019 91.8576 177.648 90.96 178.906C90.0624 180.163 87.744 184.8 87.744 184.8C87.744 184.8 86.4864 189.821 87.744 189.999C89.0016 190.176 89.8032 188.477 92.4048 186.327C95.0064 184.176 99.1248 179.511 102.802 179.155C106.478 178.8 122.885 177.091 129.682 173.875C136.478 170.659 136.046 171.543 138.019 170.035C139.992 168.528 139.272 165.643 138.288 163.671C137.765 162.556 136.999 161.572 136.046 160.791" stroke="#263238" stroke-miterlimit="10" stroke-linecap="round"/>
<path d="M138.677 164.64C138.677 164.64 136.541 156.293 122.256 144.221C112.656 136.099 108.36 134.362 102.893 139.2C97.4256 144.038 98.5008 147.182 100.493 150.24C102.485 153.298 110.53 159.115 117.163 162.077C123.797 165.038 130.522 169.157 134.285 168.797" fill="white"/>
<mask id="mask8_52_2453" style="mask-type:luminance" maskUnits="userSpaceOnUse" x="98" y="136" width="41" height="33">
<path d="M138.677 164.64C138.677 164.64 136.541 156.293 122.256 144.221C112.656 136.099 108.36 134.362 102.893 139.2C97.4256 144.038 98.5008 147.182 100.493 150.24C102.485 153.298 110.53 159.115 117.163 162.077C123.797 165.038 130.522 169.157 134.285 168.797" fill="white"/>
</mask>
<g mask="url(#mask8_52_2453)">
<path d="M128.006 158.597C126.062 158.405 129.557 162.288 125.482 161.314C121.406 160.339 107.242 148.315 104.328 144.432C101.928 141.235 104.006 138.571 104.808 137.712C104.129 138.138 103.486 138.619 102.888 139.152C97.4207 143.995 98.4959 147.13 100.488 150.192C102.48 153.255 110.525 159.067 117.158 162.029C123.792 164.991 130.517 169.109 134.28 168.749L136.07 167.069C135.749 166.157 134.923 165.221 134.035 164.218C132.48 162.48 129.946 158.794 128.006 158.597Z" fill="#62BFCC"/>
<path opacity="0.5" d="M128.006 158.597C126.062 158.405 129.557 162.288 125.482 161.314C121.406 160.339 107.242 148.315 104.328 144.432C101.928 141.235 104.006 138.571 104.808 137.712C104.129 138.138 103.486 138.619 102.888 139.152C97.4207 143.995 98.4959 147.13 100.488 150.192C102.48 153.255 110.525 159.067 117.158 162.029C123.792 164.991 130.517 169.109 134.28 168.749L136.07 167.069C135.749 166.157 134.923 165.221 134.035 164.218C132.48 162.48 129.946 158.794 128.006 158.597Z" fill="white"/>
</g>
<path d="M138.677 164.64C138.677 164.64 136.541 156.293 122.256 144.221C112.656 136.099 108.36 134.362 102.893 139.2C97.4256 144.038 98.5008 147.182 100.493 150.24C102.485 153.298 110.53 159.115 117.163 162.077C123.797 165.038 130.522 169.157 134.285 168.797" stroke="#263238" stroke-miterlimit="10" stroke-linecap="round"/>
<path d="M116.698 172.527C115.79 170.525 116.011 168.274 116.448 166.536C115.992 166.786 115.536 167.045 115.085 167.323C110.88 169.92 103.877 174.048 100.742 174.24C97.608 174.432 96.6192 173.434 94.7376 172.719C92.856 172.003 91.8576 174.331 91.8576 175.675C91.8576 177.019 91.8576 177.648 90.96 178.906C90.0624 180.163 87.744 184.8 87.744 184.8C87.744 184.8 86.4864 189.821 87.744 189.999C89.0016 190.176 89.8032 188.477 92.4048 186.327C95.0064 184.176 99.1248 179.511 102.802 179.155C108.952 178.571 115.069 177.672 121.128 176.463C119.19 175.787 117.597 174.372 116.698 172.527Z" fill="#62BFCC"/>
<mask id="mask9_52_2453" style="mask-type:luminance" maskUnits="userSpaceOnUse" x="87" y="166" width="35" height="25">
<path d="M116.698 172.527C115.79 170.525 116.011 168.274 116.448 166.536C115.992 166.786 115.536 167.045 115.085 167.323C110.88 169.92 103.877 174.048 100.742 174.24C97.608 174.432 96.6192 173.434 94.7376 172.719C92.856 172.003 91.8576 174.331 91.8576 175.675C91.8576 177.019 91.8576 177.648 90.96 178.906C90.0624 180.163 87.744 184.8 87.744 184.8C87.744 184.8 86.4864 189.821 87.744 189.999C89.0016 190.176 89.8032 188.477 92.4048 186.327C95.0064 184.176 99.1248 179.511 102.802 179.155C108.952 178.571 115.069 177.672 121.128 176.463C119.19 175.787 117.597 174.372 116.698 172.527Z" fill="white"/>
</mask>
<g mask="url(#mask9_52_2453)">
<path opacity="0.2" d="M116.698 172.527C115.79 170.525 116.011 168.274 116.448 166.536C115.992 166.786 115.536 167.045 115.085 167.323C110.88 169.92 103.877 174.048 100.742 174.24C97.608 174.432 96.6192 173.434 94.7376 172.719C92.856 172.003 91.8576 174.331 91.8576 175.675C91.8576 177.019 91.8576 177.648 90.96 178.906C90.0624 180.163 87.744 184.8 87.744 184.8C87.744 184.8 86.4864 189.821 87.744 189.999C89.0016 190.176 89.8032 188.477 92.4048 186.327C95.0064 184.176 99.1248 179.511 102.802 179.155C108.952 178.571 115.069 177.672 121.128 176.463C119.19 175.787 117.597 174.372 116.698 172.527Z" fill="black"/>
</g>
<path d="M116.698 172.527C115.79 170.525 116.011 168.274 116.448 166.536C115.992 166.786 115.536 167.045 115.085 167.323C110.88 169.92 103.877 174.048 100.742 174.24C97.608 174.432 96.6192 173.434 94.7376 172.719C92.856 172.003 91.8576 174.331 91.8576 175.675C91.8576 177.019 91.8576 177.648 90.96 178.906C90.0624 180.163 87.744 184.8 87.744 184.8C87.744 184.8 86.4864 189.821 87.744 189.999C89.0016 190.176 89.8032 188.477 92.4048 186.327C95.0064 184.176 99.1248 179.511 102.802 179.155C108.952 178.571 115.069 177.672 121.128 176.463C119.19 175.787 117.597 174.372 116.698 172.527Z" stroke="#263238" stroke-linecap="round" stroke-linejoin="round"/>
<path d="M101.141 149.007C101.141 149.007 120.749 161.554 126.499 163.647C132.249 165.739 130.944 161.813 130.944 161.813" stroke="#263238" stroke-linecap="round" stroke-linejoin="round"/>
<path d="M118.656 173.578C118.656 173.578 124.147 174.101 127.805 170.698" stroke="#263238" stroke-linecap="round" stroke-linejoin="round"/>
<path d="M117.451 103.315C117.451 103.315 110.501 98.7696 102.456 99.7296C94.411 100.69 84.859 108.917 78.667 115.954C72.475 122.99 44.947 161.371 44.947 161.371L44.0926 155.098C43.6927 152.142 44.474 149.148 46.267 146.765L50.6398 140.942C50.6398 140.942 51.0766 133.781 54.9598 130.104C57.5382 127.692 60.3396 125.531 63.3262 123.648C64.3294 122.957 74.3662 112.901 81.4462 105.71C88.5262 98.52 97.1182 93.3696 104.904 95.5488C112.689 97.728 115.809 99.3888 117.624 100.992C119.438 102.595 119.501 102.432 119.501 102.432L117.451 103.315Z" fill="#62BFCC" stroke="#263238" stroke-miterlimit="10" stroke-linecap="round"/>
<path d="M70.2671 120.375L71.8847 118.555" stroke="#263238" stroke-miterlimit="10" stroke-linecap="round"/>
<path d="M50.6396 140.943L69.5996 120.999" stroke="#263238" stroke-miterlimit="10" stroke-linecap="round"/>
<path d="M96.7436 98.6641C96.2348 98.8657 95.726 99.0913 95.2124 99.3553" stroke="#263238" stroke-miterlimit="10" stroke-linecap="round"/>
<path d="M118.325 103.118C118.325 103.118 108.518 95.232 98.2607 98.1552" stroke="#263238" stroke-miterlimit="10" stroke-linecap="round"/>
<path d="M101.28 159.797C101.28 159.797 102.086 158.27 101.549 157.555C101.011 156.84 100.56 156.749 99.576 155.851C98.592 154.954 98.0544 154.685 96.888 154.685C95.7216 154.685 94.488 154.776 94.488 154.776C94.488 154.776 92.6928 154.056 92.6928 148.858C92.7401 145.648 93.2675 142.464 94.2576 139.411C92.6864 140.341 90.9261 140.906 89.1072 141.062C88.016 141.181 86.9126 141.021 85.9003 140.597C84.8879 140.173 83.9995 139.499 83.3184 138.638C83.6098 141.462 84.1593 144.253 84.96 146.976C86.9328 153.518 88.2768 156.389 88.8 157.536C89.3232 158.683 93.9984 164.616 94.8048 164.798C95.6112 164.981 96.4176 165.154 97.0464 164.798C97.6752 164.443 102.326 163.358 102.158 162.019C102.124 161.304 101.873 160.616 101.438 160.046L101.28 159.797Z" fill="#62BFCC"/>
<mask id="mask10_52_2453" style="mask-type:luminance" maskUnits="userSpaceOnUse" x="83" y="138" width="20" height="28">
<path d="M101.28 159.797C101.28 159.797 102.086 158.27 101.549 157.555C101.011 156.84 100.56 156.749 99.576 155.851C98.592 154.954 98.0544 154.685 96.888 154.685C95.7216 154.685 94.488 154.776 94.488 154.776C94.488 154.776 92.6928 154.056 92.6928 148.858C92.7401 145.648 93.2675 142.464 94.2576 139.411C92.6864 140.341 90.9261 140.906 89.1072 141.062C88.016 141.181 86.9126 141.021 85.9003 140.597C84.8879 140.173 83.9995 139.499 83.3184 138.638C83.6098 141.462 84.1593 144.253 84.96 146.976C86.9328 153.518 88.2768 156.389 88.8 157.536C89.3232 158.683 93.9984 164.616 94.8048 164.798C95.6112 164.981 96.4176 165.154 97.0464 164.798C97.6752 164.443 102.326 163.358 102.158 162.019C102.124 161.304 101.873 160.616 101.438 160.046L101.28 159.797Z" fill="white"/>
</mask>
<g mask="url(#mask10_52_2453)">
<path opacity="0.2" d="M102.178 162.038C102.178 161.894 102.135 161.765 102.111 161.645C102.111 161.606 102.111 161.568 102.111 161.53C102.111 161.491 102.072 161.357 102.053 161.28C102.034 161.203 102.015 161.15 102 161.093C100.282 161.309 97.1378 162.408 96.293 162.408C95.3714 162.408 94.445 161.021 93.0578 159.475C91.6706 157.93 89.5106 153.926 89.2178 148.992C89.0306 146.035 89.7314 143.194 90.3218 140.885C89.9378 140.962 89.5442 141.019 89.1218 141.062C88.0307 141.181 86.9273 141.021 85.9149 140.597C84.9025 140.173 84.0142 139.499 83.333 138.638C83.333 138.763 83.3618 138.893 83.3762 139.018C83.4002 139.238 83.429 139.459 83.4578 139.69C83.4578 139.838 83.501 139.997 83.5202 140.17C83.5394 140.342 83.5826 140.582 83.6114 140.794C83.6402 141.005 83.6642 141.115 83.6882 141.274C83.7122 141.432 83.7602 141.696 83.7986 141.907L83.885 142.387L84.0002 143.04L84.101 143.52C84.149 143.746 84.2018 143.976 84.2546 144.206C84.2882 144.36 84.3218 144.514 84.3602 144.662C84.4226 144.922 84.4898 145.181 84.557 145.435C84.5858 145.565 84.6194 145.694 84.653 145.819C84.7586 146.208 84.869 146.597 84.9842 146.981C86.957 153.523 88.301 156.394 88.8242 157.541C88.8679 157.634 88.9176 157.723 88.973 157.81C89.069 157.973 89.1938 158.17 89.3474 158.395C89.6018 158.77 89.9282 159.216 90.3074 159.706L90.533 159.998C92.1266 162.096 94.3154 164.683 94.853 164.798C95.6594 164.976 96.4658 165.154 97.0946 164.798C97.3277 164.689 97.5683 164.596 97.8146 164.52L98.1842 164.4C99.7202 163.901 102.312 163.046 102.178 162.038Z" fill="black"/>
<path d="M100.767 158.198L99.6387 159.134C99.6387 159.134 100.474 159.077 101.458 160.066" stroke="#263238" stroke-linecap="round" stroke-linejoin="round"/>
</g>
<path d="M101.28 159.797C101.28 159.797 102.086 158.27 101.549 157.555C101.011 156.84 100.56 156.749 99.576 155.851C98.592 154.954 98.0544 154.685 96.888 154.685C95.7216 154.685 94.488 154.776 94.488 154.776C94.488 154.776 92.6928 154.056 92.6928 148.858C92.7401 145.648 93.2675 142.464 94.2576 139.411C92.6864 140.341 90.9261 140.906 89.1072 141.062C88.016 141.181 86.9126 141.021 85.9003 140.597C84.8879 140.173 83.9995 139.499 83.3184 138.638C83.6098 141.462 84.1593 144.253 84.96 146.976C86.9328 153.518 88.2768 156.389 88.8 157.536C89.3232 158.683 93.9984 164.616 94.8048 164.798C95.6112 164.981 96.4176 165.154 97.0464 164.798C97.6752 164.443 102.326 163.358 102.158 162.019C102.124 161.304 101.873 160.616 101.438 160.046L101.28 159.797Z" stroke="#263238" stroke-linecap="round" stroke-linejoin="round"/>
<path d="M171.283 66.2207L155.827 80.7311" stroke="#263238" stroke-linecap="round" stroke-linejoin="round"/>
<path d="M154.378 82.0896L151.872 84.4416" stroke="#263238" stroke-linecap="round" stroke-linejoin="round"/>
<path d="M59.304 158.15L56.6064 160.685" stroke="#263238" stroke-linecap="round" stroke-linejoin="round"/>
<path d="M79.2624 139.421L61.4736 156.115" stroke="#263238" stroke-linecap="round" stroke-linejoin="round"/>
<path d="M96 191.366L94.2144 193.041" stroke="#263238" stroke-linecap="round" stroke-linejoin="round"/>
<path d="M107.146 180.902L97.8052 189.667" stroke="#263238" stroke-linecap="round" stroke-linejoin="round"/>
<path d="M31.5697 166.33L29.4146 168.355" stroke="#263238" stroke-linecap="round" stroke-linejoin="round"/>
<path d="M52.0755 147.091L34.4595 163.622" stroke="#263238" stroke-linecap="round" stroke-linejoin="round"/>
<path d="M83.3572 97.4976L80.6548 100.032" stroke="#263238" stroke-linecap="round" stroke-linejoin="round"/>
<path d="M103.315 78.7678L85.6992 95.3038" stroke="#263238" stroke-linecap="round" stroke-linejoin="round"/>
<path d="M167.453 73.5408L144.792 94.8048" stroke="#263238" stroke-linecap="round" stroke-linejoin="round"/>
<path d="M200.741 124.248C197.472 122.467 195.989 123.95 194.803 122.467C193.617 120.984 198.067 117.12 189.158 113.28C189.158 113.28 188.563 104.961 176.385 104.64C164.208 104.318 167.477 112.958 164.208 115.037C160.939 117.115 160.051 113.846 156.782 115.929C153.513 118.013 155.001 122.169 152.328 122.76C149.654 123.35 146.088 120.086 142.824 122.165C139.56 124.243 139.555 126.005 138.072 126.005C136.589 126.005 133.617 124.819 131.832 126.005C130.046 127.19 127.968 128.678 127.968 128.678H203.117C203.117 128.678 204 126.029 200.741 124.248Z" fill="white"/>
<path d="M91.8719 76.1808C90.6095 75.4944 90.0383 76.0656 89.5775 75.4944C89.1167 74.9232 90.8399 73.4304 87.4031 71.9424C87.4031 71.9424 87.1727 68.7312 82.4735 68.616C77.7743 68.5008 79.0367 71.8272 77.7743 72.6288C76.5119 73.4304 76.1711 72.1488 74.8943 72.9696C73.6175 73.7904 74.2079 75.3696 73.1759 75.6096C72.1439 75.8496 70.7759 74.5776 69.5087 75.3792C68.2415 76.1808 68.2463 76.8672 67.6751 76.8672C67.1039 76.8672 65.9567 76.4112 65.2751 76.8672C64.5935 77.3232 63.7871 77.8992 63.7871 77.8992H92.7839C92.7839 77.8992 93.1199 76.8672 91.8719 76.1808Z" fill="white"/>
</svg>
