<svg width="240" height="240" viewBox="0 0 240 240" fill="none" xmlns="http://www.w3.org/2000/svg">
<path d="M131.04 71.376C110.971 77.8944 94.8386 44.5536 76.2098 40.9056C55.2002 36.792 42.2018 52.8 40.6322 72.7536C37.3394 114.514 76.0466 157.618 115.186 165.734C156.696 174.346 189.403 134.136 191.261 94.992C192.01 79.2048 187.954 52.512 170.285 46.1232C145.071 37.0032 148.954 65.5488 131.04 71.376Z" fill="#62BFCC"/>
<path opacity="0.9" d="M131.04 71.376C110.971 77.8944 94.8386 44.5536 76.2098 40.9056C55.2002 36.792 42.2018 52.8 40.6322 72.7536C37.3394 114.514 76.0466 157.618 115.186 165.734C156.696 174.346 189.403 134.136 191.261 94.992C192.01 79.2048 187.954 52.512 170.285 46.1232C145.071 37.0032 148.954 65.5488 131.04 71.376Z" fill="white"/>
<path d="M120 205.229C171.399 205.229 213.067 202.796 213.067 199.795C213.067 196.794 171.399 194.362 120 194.362C68.6002 194.362 26.9326 196.794 26.9326 199.795C26.9326 202.796 68.6002 205.229 120 205.229Z" fill="#F5F5F5"/>
<path d="M156.12 101.894C155.76 104.698 155.366 107.515 154.949 110.318L153.696 118.843C153.502 119.879 153.088 120.861 152.481 121.723C151.927 122.496 151.259 123.181 150.499 123.754C149.16 124.729 147.672 125.482 146.093 125.981C144.642 126.456 143.153 126.806 141.643 127.027C140.899 127.142 140.16 127.219 139.416 127.282C138.672 127.344 137.952 127.382 137.16 127.382L136.915 124.675C138.206 124.378 139.574 124.032 140.856 123.605C142.126 123.211 143.367 122.73 144.571 122.165C145.666 121.676 146.683 121.029 147.59 120.245C147.944 119.923 148.247 119.549 148.488 119.136C148.663 118.809 148.77 118.45 148.8 118.08L148.939 116.059C148.987 115.339 149.054 114.619 149.117 113.909C149.241 112.478 149.384 111.053 149.544 109.632C149.856 106.781 150.225 103.954 150.672 101.117L156.12 101.894Z" fill="#E4897B"/>
<path d="M153.014 97.5984C153.014 97.5984 148.742 108.533 152.798 128.899H172.171C172.301 125.923 170.433 111.422 173.304 97.4112C171.162 96.9983 168.996 96.7257 166.819 96.5952C164.077 96.4343 161.329 96.4343 158.587 96.5952C156.706 96.7833 154.843 97.1187 153.014 97.5984Z" fill="#62BFCC"/>
<path opacity="0.2" d="M153.014 97.5984C153.014 97.5984 148.742 108.533 152.798 128.899H172.171C172.301 125.923 170.433 111.422 173.304 97.4112C171.162 96.9983 168.996 96.7257 166.819 96.5952C164.077 96.4343 161.329 96.4343 158.587 96.5952C156.706 96.7833 154.843 97.1187 153.014 97.5984Z" fill="black"/>
<path d="M157.315 100.075C158.534 103.315 155.611 114.178 155.611 114.178L147.566 110.155C147.566 110.155 147.946 104.741 149.789 100.555C151.632 96.3696 156 96.5232 157.315 100.075Z" fill="#62BFCC"/>
<path opacity="0.2" d="M157.315 100.075C158.534 103.315 155.611 114.178 155.611 114.178L147.566 110.155C147.566 110.155 147.946 104.741 149.789 100.555C151.632 96.3696 156 96.5232 157.315 100.075Z" fill="black"/>
<path d="M175.939 195.331H172.315L169.493 186.946H173.117L175.939 195.331Z" fill="#E4897B"/>
<path d="M145.872 186.946L146.366 191.27H149.99L149.491 186.946H145.872Z" fill="#CE6F64"/>
<path d="M173.117 186.946H169.493L170.952 191.27H174.571L173.117 186.946Z" fill="#CE6F64"/>
<path d="M159.672 128.899C159.672 128.899 152.472 149.059 154.733 159.432C157.2 170.784 169.248 190.43 169.248 190.43H175.882C175.882 190.43 167.006 171.71 165.595 160.464C164.064 148.262 172.171 137.971 172.171 128.899H159.672Z" fill="#62BFCC"/>
<path opacity="0.7" d="M159.672 128.899C159.672 128.899 152.472 149.059 154.733 159.432C157.2 170.784 169.248 190.43 169.248 190.43H175.882C175.882 190.43 167.006 171.71 165.595 160.464C164.064 148.262 172.171 137.971 172.171 128.899H159.672Z" fill="black"/>
<path d="M150.451 195.331H146.832L145.867 186.946H149.491L150.451 195.331Z" fill="#E4897B"/>
<path d="M152.798 128.899C152.798 128.899 138.681 148.469 139.075 159.509C139.483 170.995 145.008 190.43 145.008 190.43H151.142C151.142 190.43 148.632 171.667 148.901 160.387C149.198 148.09 165.533 138.384 165.533 128.899H152.798Z" fill="#62BFCC"/>
<path opacity="0.7" d="M152.798 128.899C152.798 128.899 138.681 148.469 139.075 159.509C139.483 170.995 145.008 190.43 145.008 190.43H151.142C151.142 190.43 148.632 171.667 148.901 160.387C149.198 148.09 165.533 138.384 165.533 128.899H152.798Z" fill="black"/>
<path d="M171.84 194.909H176.256C176.328 194.908 176.398 194.933 176.454 194.979C176.51 195.024 176.549 195.088 176.563 195.158L177.278 198.374C177.296 198.453 177.295 198.534 177.277 198.613C177.258 198.691 177.222 198.764 177.171 198.826C177.121 198.889 177.056 198.939 176.983 198.973C176.91 199.007 176.831 199.024 176.75 199.022C175.31 198.998 174.293 198.912 172.502 198.912C171.403 198.912 169.142 199.027 167.616 199.027C166.09 199.027 165.898 197.525 166.522 197.39C169.31 196.776 170.362 195.95 171.254 195.134C171.415 194.989 171.624 194.909 171.84 194.909Z" fill="#263238"/>
<path d="M146.88 194.909H150.835C150.908 194.909 150.978 194.934 151.035 194.979C151.091 195.025 151.131 195.088 151.147 195.158L151.862 198.374C151.88 198.453 151.879 198.534 151.861 198.611C151.843 198.689 151.807 198.762 151.757 198.824C151.706 198.887 151.643 198.937 151.57 198.971C151.498 199.005 151.419 199.023 151.339 199.022C149.899 198.998 147.85 198.912 146.059 198.912C143.962 198.912 142.152 199.027 139.694 199.027C138.206 199.027 137.774 197.525 138.418 197.39C141.25 196.766 143.563 196.704 146.011 195.192C146.269 195.019 146.57 194.921 146.88 194.909Z" fill="#263238"/>
<path d="M138.84 124.344L134.89 124.608L136.738 128.846C137.479 128.826 138.195 128.568 138.78 128.111C139.365 127.654 139.788 127.022 139.987 126.307L138.84 124.344Z" fill="#E4897B"/>
<path d="M132.753 125.947L134.947 128.914L136.737 128.846L134.889 124.608L132.753 125.947Z" fill="#E4897B"/>
<path opacity="0.2" d="M169.353 104.107C169.987 100.91 171.221 101.462 172.387 103.037C171.886 107.275 171.656 111.542 171.696 115.81C170.88 114.456 168.297 109.464 169.353 104.107Z" fill="black"/>
<path d="M166.003 87.3217C165.485 89.9713 164.966 94.8241 166.819 96.5953C166.819 96.5953 166.094 99.2785 161.169 99.2785C155.76 99.2785 158.587 96.5953 158.587 96.5953C161.539 95.8897 161.467 93.7153 160.949 91.6369L166.003 87.3217Z" fill="#E4897B"/>
<path d="M163.944 89.0833L160.949 91.6369C161.076 92.1084 161.161 92.5903 161.203 93.0769C162.331 92.9137 163.882 91.6753 164.002 90.4945C164.068 90.0244 164.048 89.5463 163.944 89.0833Z" fill="#CE6F64"/>
<path d="M159.576 77.1505C157.69 77.5969 155.702 83.0785 157.757 84.5905C159.811 86.1025 163.142 76.3201 159.576 77.1505Z" fill="#263238"/>
<path d="M166.771 84.1921C165.72 87.6289 165.278 89.6929 163.085 91.0609C159.792 93.1201 155.885 90.4897 155.885 86.8081C155.885 83.4913 157.608 78.4321 161.357 77.8609C162.181 77.7341 163.025 77.8199 163.807 78.1102C164.589 78.4004 165.284 78.8855 165.826 79.5195C166.368 80.1536 166.74 80.9155 166.905 81.7331C167.07 82.5508 167.024 83.3972 166.771 84.1921Z" fill="#E4897B"/>
<path d="M165.705 87.552C163.684 87.8688 162.091 80.352 167.4 79.7712C173.836 79.0416 168.96 87.0432 165.705 87.552Z" fill="#263238"/>
<path d="M168.269 81.5568C165.729 81.6048 158.304 80.0832 157.344 75.9648C156.95 74.2752 159.873 72.0672 162.821 72.3984C158.928 74.1072 161.985 76.8384 166.113 76.4784C170.832 76.0608 171.696 81.4944 168.269 81.5568Z" fill="#263238"/>
<path d="M169.396 80.1216C169.396 80.1216 171.96 79.9344 171.316 82.2192C171.205 81.7333 170.97 81.2846 170.633 80.9169C170.297 80.5493 169.871 80.2752 169.396 80.1216Z" fill="#263238"/>
<path d="M168.71 80.04C168.71 80.04 170.914 81.3696 171.36 79.032C171.041 79.412 170.63 79.7042 170.166 79.8806C169.703 80.057 169.201 80.1119 168.71 80.04Z" fill="#263238"/>
<path d="M167.424 88.416C166.774 89.0429 165.903 89.3878 165 89.376C163.805 89.352 163.56 88.2 164.17 87.2496C164.726 86.3952 166.022 85.3728 167.083 85.8576C168.144 86.3424 168.206 87.6336 167.424 88.416Z" fill="#E4897B"/>
<path d="M168.072 190.574H176.745V188.242L167.049 188.093L168.072 190.574Z" fill="#62BFCC"/>
<path d="M143.64 190.574H152.309V188.213L142.618 188.093L143.64 190.574Z" fill="#62BFCC"/>
<path d="M161.246 83.8992C161.179 84.1824 160.973 84.3792 160.766 84.3312C160.56 84.2832 160.488 84.0192 160.555 83.736C160.622 83.4528 160.829 83.256 161.035 83.304C161.242 83.352 161.314 83.616 161.246 83.8992Z" fill="#263238"/>
<path d="M158.035 83.1264C157.968 83.4144 157.761 83.6064 157.555 83.5632C157.349 83.52 157.277 83.2512 157.344 82.968C157.411 82.6848 157.617 82.488 157.824 82.5312C158.03 82.5744 158.102 82.8432 158.035 83.1264Z" fill="#263238"/>
<path d="M159.024 83.52C158.476 84.3067 157.821 85.0141 157.08 85.6224C157.241 85.8077 157.44 85.9557 157.664 86.056C157.888 86.1564 158.131 86.2066 158.376 86.2032L159.024 83.52Z" fill="#DE5753"/>
<path d="M159.662 87.2593C159.446 87.2584 159.23 87.2326 159.019 87.1825C158.996 87.1768 158.977 87.1626 158.964 87.143C158.952 87.1234 158.947 87.0997 158.952 87.0769C158.955 87.0658 158.96 87.0554 158.966 87.0463C158.973 87.0372 158.982 87.0295 158.992 87.0237C159.001 87.0179 159.012 87.0141 159.024 87.0125C159.035 87.0109 159.046 87.0116 159.057 87.0145C159.409 87.1074 159.777 87.1159 160.133 87.0391C160.488 86.9624 160.82 86.8026 161.102 86.5729C161.119 86.557 161.141 86.5483 161.164 86.5487C161.187 86.5492 161.209 86.5587 161.225 86.5753C161.241 86.5918 161.249 86.614 161.249 86.637C161.248 86.6599 161.239 86.6818 161.222 86.6977C160.787 87.0669 160.233 87.2663 159.662 87.2593Z" fill="#263238"/>
<path d="M162.499 83.1024C162.466 83.1007 162.435 83.09 162.408 83.0713C162.38 83.0527 162.359 83.0269 162.346 82.9968C162.263 82.7944 162.132 82.6151 161.965 82.4739C161.798 82.3327 161.599 82.2338 161.386 82.1856C161.363 82.1821 161.342 82.1742 161.323 82.1623C161.304 82.1505 161.287 82.1349 161.274 82.1166C161.262 82.0982 161.252 82.0775 161.248 82.0555C161.243 82.0336 161.242 82.0109 161.247 81.9888C161.254 81.9436 161.278 81.9031 161.315 81.8761C161.352 81.8491 161.398 81.8379 161.443 81.8448C161.708 81.9056 161.955 82.0294 162.162 82.2057C162.369 82.382 162.531 82.6056 162.634 82.8576C162.643 82.8783 162.649 82.9008 162.65 82.9237C162.65 82.9466 162.647 82.9694 162.639 82.9908C162.631 83.0123 162.618 83.0319 162.603 83.0486C162.587 83.0652 162.568 83.0786 162.547 83.088C162.532 83.0948 162.516 83.0997 162.499 83.1024Z" fill="#263238"/>
<path d="M156.96 81.6912C156.919 81.6924 156.88 81.6788 156.849 81.6528C156.815 81.6238 156.793 81.5825 156.788 81.5376C156.784 81.4928 156.797 81.448 156.825 81.4128C156.994 81.1954 157.214 81.0224 157.465 80.9087C157.716 80.795 157.99 80.7439 158.265 80.76C158.31 80.766 158.351 80.7895 158.379 80.8254C158.407 80.8613 158.419 80.9068 158.414 80.952C158.412 80.9741 158.405 80.9955 158.394 81.015C158.383 81.0345 158.369 81.0517 158.352 81.0655C158.334 81.0793 158.314 81.0896 158.293 81.0956C158.271 81.1017 158.249 81.1034 158.227 81.1008C158.011 81.0936 157.797 81.1377 157.602 81.2295C157.406 81.3213 157.236 81.4581 157.104 81.6288C157.087 81.6504 157.065 81.6675 157.04 81.6784C157.014 81.6893 156.987 81.6937 156.96 81.6912Z" fill="#263238"/>
<path d="M170.635 195.542C170.383 195.565 170.131 195.5 169.92 195.36C169.855 195.305 169.805 195.234 169.774 195.154C169.743 195.075 169.732 194.989 169.743 194.904C169.742 194.855 169.755 194.806 169.781 194.764C169.806 194.722 169.843 194.687 169.887 194.664C170.285 194.458 171.456 195.173 171.591 195.259C171.605 195.268 171.616 195.281 171.623 195.297C171.629 195.312 171.632 195.329 171.629 195.346C171.625 195.362 171.617 195.377 171.605 195.389C171.593 195.401 171.578 195.409 171.562 195.413C171.259 195.491 170.948 195.535 170.635 195.542ZM170.098 194.794C170.059 194.791 170.021 194.799 169.987 194.818C169.969 194.826 169.954 194.84 169.944 194.857C169.934 194.874 169.929 194.894 169.93 194.914C169.922 194.972 169.928 195.031 169.949 195.085C169.97 195.14 170.005 195.188 170.05 195.226C170.452 195.413 170.911 195.437 171.331 195.293C170.956 195.048 170.537 194.879 170.098 194.794Z" fill="#62BFCC"/>
<path d="M171.562 195.418C171.549 195.422 171.536 195.422 171.523 195.418C171.144 195.216 170.424 194.424 170.501 194.021C170.511 193.957 170.544 193.9 170.593 193.858C170.643 193.817 170.705 193.794 170.77 193.795C170.835 193.787 170.902 193.793 170.966 193.812C171.03 193.831 171.089 193.863 171.139 193.906C171.557 194.246 171.619 195.293 171.648 195.346C171.648 195.361 171.645 195.377 171.638 195.391C171.632 195.405 171.622 195.418 171.61 195.427C171.593 195.429 171.576 195.426 171.562 195.418ZM170.832 193.949H170.794C170.678 193.949 170.674 194.016 170.669 194.035C170.621 194.275 171.082 194.875 171.456 195.158C171.43 194.745 171.281 194.349 171.029 194.021C170.973 193.975 170.904 193.949 170.832 193.949Z" fill="#62BFCC"/>
<path d="M145.353 195.542C145.042 195.571 144.731 195.493 144.47 195.322C144.412 195.27 144.367 195.205 144.339 195.132C144.312 195.06 144.302 194.981 144.312 194.904C144.314 194.857 144.328 194.812 144.353 194.772C144.377 194.731 144.411 194.698 144.451 194.674C144.892 194.429 146.347 195.154 146.515 195.254C146.53 195.263 146.542 195.276 146.55 195.291C146.557 195.306 146.56 195.324 146.558 195.341C146.556 195.358 146.549 195.375 146.537 195.388C146.524 195.401 146.508 195.41 146.491 195.413C146.117 195.492 145.736 195.535 145.353 195.542ZM144.696 194.794C144.641 194.79 144.586 194.802 144.537 194.827C144.52 194.836 144.506 194.849 144.496 194.865C144.486 194.881 144.48 194.899 144.48 194.918C144.475 194.969 144.482 195.02 144.5 195.068C144.518 195.115 144.548 195.158 144.585 195.192C144.811 195.389 145.406 195.422 146.203 195.293C145.733 195.042 145.223 194.873 144.696 194.794Z" fill="#62BFCC"/>
<path d="M146.472 195.418H146.438C146.002 195.221 145.138 194.458 145.2 194.03C145.2 193.934 145.286 193.814 145.522 193.79C145.607 193.779 145.694 193.786 145.777 193.811C145.86 193.836 145.936 193.878 146.002 193.934C146.482 194.314 146.558 195.288 146.563 195.331C146.566 195.346 146.564 195.361 146.558 195.375C146.552 195.388 146.542 195.4 146.53 195.408C146.512 195.417 146.492 195.42 146.472 195.418ZM145.589 193.949H145.541C145.382 193.949 145.373 194.026 145.373 194.045C145.33 194.294 145.92 194.909 146.366 195.178C146.325 194.764 146.157 194.374 145.886 194.059C145.804 193.987 145.698 193.948 145.589 193.949Z" fill="#62BFCC"/>
<path d="M146.251 101.496C147.08 100.915 148.016 100.504 149.005 100.286C149.993 100.068 151.015 100.047 152.012 100.226C153.008 100.404 153.96 100.778 154.811 101.325C155.663 101.873 156.398 102.583 156.974 103.416C158.651 102.248 160.723 101.794 162.734 102.153C164.745 102.513 166.532 103.657 167.7 105.334C168.868 107.01 169.322 109.082 168.962 111.094C168.603 113.105 167.459 114.891 165.782 116.059L153.12 124.867L144.316 112.219C143.736 111.389 143.326 110.453 143.109 109.463C142.892 108.474 142.873 107.452 143.053 106.455C143.232 105.458 143.608 104.507 144.156 103.656C144.705 102.805 145.417 102.071 146.251 101.496Z" fill="#62BFCC"/>
<path opacity="0.3" d="M146.251 101.496C147.08 100.915 148.016 100.504 149.005 100.286C149.993 100.068 151.015 100.047 152.012 100.226C153.008 100.404 153.96 100.778 154.811 101.325C155.663 101.873 156.398 102.583 156.974 103.416C158.651 102.248 160.723 101.794 162.734 102.153C164.745 102.513 166.532 103.657 167.7 105.334C168.868 107.01 169.322 109.082 168.962 111.094C168.603 113.105 167.459 114.891 165.782 116.059L153.12 124.867L144.316 112.219C143.736 111.389 143.326 110.453 143.109 109.463C142.892 108.474 142.873 107.452 143.053 106.455C143.232 105.458 143.608 104.507 144.156 103.656C144.705 102.805 145.417 102.071 146.251 101.496Z" fill="white"/>
<path d="M129.465 114.518C129.824 112.889 130.814 111.468 132.219 110.568C133.624 109.669 135.328 109.363 136.958 109.718C137.346 108.121 138.343 106.739 139.737 105.867C141.13 104.995 142.81 104.704 144.416 105.054C146.022 105.405 147.427 106.37 148.33 107.743C149.234 109.116 149.564 110.788 149.251 112.402L146.568 124.694L134.275 122.011C133.467 121.835 132.702 121.502 132.023 121.03C131.344 120.558 130.764 119.957 130.317 119.262C129.871 118.566 129.566 117.789 129.419 116.975C129.273 116.161 129.289 115.326 129.465 114.518Z" fill="#62BFCC"/>
<path opacity="0.5" d="M129.465 114.518C129.824 112.889 130.814 111.468 132.219 110.568C133.624 109.669 135.328 109.363 136.958 109.718C137.346 108.121 138.343 106.739 139.737 105.867C141.13 104.995 142.81 104.704 144.416 105.054C146.022 105.405 147.427 106.37 148.33 107.743C149.234 109.116 149.564 110.788 149.251 112.402L146.568 124.694L134.275 122.011C133.467 121.835 132.702 121.502 132.023 121.03C131.344 120.558 130.764 119.957 130.317 119.262C129.871 118.566 129.566 117.789 129.419 116.975C129.273 116.161 129.289 115.326 129.465 114.518Z" fill="white"/>
<path d="M137.045 118.978C138.607 116.646 141.031 115.029 143.784 114.484C146.537 113.939 149.395 114.509 151.728 116.069C152.489 114.886 153.479 113.867 154.639 113.07C155.799 112.274 157.105 111.717 158.483 111.432C159.86 111.146 161.281 111.138 162.662 111.408C164.043 111.678 165.356 112.22 166.524 113.003C167.693 113.786 168.694 114.794 169.469 115.968C170.244 117.142 170.777 118.459 171.038 119.841C171.298 121.224 171.28 122.644 170.985 124.02C170.69 125.395 170.124 126.698 169.32 127.853L157.541 145.44L139.949 133.656C138.792 132.885 137.799 131.893 137.027 130.737C136.255 129.581 135.718 128.284 135.448 126.92C135.179 125.556 135.181 124.153 135.455 122.79C135.729 121.427 136.269 120.131 137.045 118.978Z" fill="#62BFCC"/>
<path opacity="0.7" d="M137.045 118.978C138.607 116.646 141.031 115.029 143.784 114.484C146.537 113.939 149.395 114.509 151.728 116.069C152.489 114.886 153.479 113.867 154.639 113.07C155.799 112.274 157.105 111.717 158.483 111.432C159.86 111.146 161.281 111.138 162.662 111.408C164.043 111.678 165.356 112.22 166.524 113.003C167.693 113.786 168.694 114.794 169.469 115.968C170.244 117.142 170.777 118.459 171.038 119.841C171.298 121.224 171.28 122.644 170.985 124.02C170.69 125.395 170.124 126.698 169.32 127.853L157.541 145.44L139.949 133.656C138.792 132.885 137.799 131.893 137.027 130.737C136.255 129.581 135.718 128.284 135.448 126.92C135.179 125.556 135.181 124.153 135.455 122.79C135.729 121.427 136.269 120.131 137.045 118.978Z" fill="white"/>
<path d="M174.681 100.229C174.998 100.901 175.257 101.496 175.507 102.149C175.757 102.802 175.987 103.406 176.237 104.069C176.717 105.341 177.115 106.632 177.475 107.952C177.848 109.278 178.154 110.622 178.392 111.979L178.565 113.011L178.689 114.062C178.737 114.413 178.757 114.773 178.781 115.128L178.819 115.666V115.8V116.021C178.819 116.194 178.819 116.342 178.819 116.501C178.725 117.445 178.451 118.362 178.013 119.203C177.674 119.88 177.289 120.533 176.861 121.157C176.069 122.298 175.201 123.386 174.264 124.411C172.457 126.396 170.499 128.239 168.408 129.922L166.488 128.002C168.057 126 169.617 123.931 171.033 121.877C171.727 120.877 172.368 119.842 172.953 118.776C173.218 118.296 173.449 117.799 173.645 117.288C173.787 116.961 173.868 116.612 173.885 116.256C173.885 116.232 173.885 116.256 173.885 116.256C173.885 116.28 173.885 116.285 173.885 116.256V116.146L173.817 115.714C173.774 115.421 173.736 115.138 173.669 114.84L173.496 113.966L173.289 113.083C173.001 111.907 172.665 110.726 172.286 109.55C171.907 108.374 171.494 107.198 171.057 106.027C170.846 105.442 170.621 104.861 170.39 104.28L169.704 102.59L174.681 100.229Z" fill="#E4897B"/>
<path d="M174.058 97.6512C177.288 98.8944 179.606 110.712 179.606 110.712L171.926 113.741C171.926 113.741 169.349 107.803 168.485 103.411C167.558 98.7888 170.4 96.24 174.058 97.6512Z" fill="#62BFCC"/>
<path opacity="0.2" d="M174.058 97.6512C177.288 98.8944 179.606 110.712 179.606 110.712L171.926 113.741C171.926 113.741 169.349 107.803 168.485 103.411C167.558 98.7888 170.4 96.24 174.058 97.6512Z" fill="black"/>
<path d="M167.328 127.464L163.776 128.424L166.718 131.99C166.718 131.99 169.565 130.517 168.95 128.918L167.328 127.464Z" fill="#E4897B"/>
<path d="M161.203 131.376L163.776 134.17L166.718 131.976L163.776 128.41L161.203 131.376Z" fill="#E4897B"/>
<path d="M92.8509 82.7376C92.8509 82.7376 94.7277 83.3952 90.9693 106.488H74.9853C75.2541 99.984 75.2637 95.9712 72.1533 82.6224C74.391 82.1599 76.6594 81.8615 78.9405 81.7296C81.3566 81.5566 83.782 81.5566 86.1981 81.7296C89.3181 82.0128 92.8509 82.7376 92.8509 82.7376Z" fill="#62BFCC"/>
<path opacity="0.6" d="M92.8509 82.7376C92.8509 82.7376 94.7277 83.3952 90.9693 106.488H74.9853C75.2541 99.984 75.2637 95.9712 72.1533 82.6224C74.391 82.1599 76.6594 81.8615 78.9405 81.7296C81.3566 81.5566 83.782 81.5566 86.1981 81.7296C89.3181 82.0128 92.8509 82.7376 92.8509 82.7376Z" fill="white"/>
<path d="M104.99 95.8944C104.141 96.696 103.253 97.5024 102.365 98.2704C101.477 99.0384 100.57 99.7776 99.6576 100.43C99.2171 100.749 98.7587 101.042 98.2848 101.309C97.9432 101.511 97.5791 101.672 97.2 101.789L97.1376 101.626L96.84 100.834C96.0925 98.6574 95.5069 96.429 95.088 94.1664C94.8576 93.024 94.6992 91.8672 94.5264 90.7152C94.3536 89.5632 94.2288 88.3728 94.128 87.2784L90.1104 87.5328C90.1872 88.8432 90.3408 90.0384 90.5088 91.2864C90.6768 92.5344 90.912 93.7392 91.176 94.9632C91.6904 97.4257 92.4295 99.8358 93.384 102.163L93.7824 103.046L93.8784 103.262L93.9312 103.373C93.9509 103.422 93.9733 103.47 93.9984 103.517C94.136 103.795 94.3086 104.055 94.512 104.29C94.7548 104.567 95.0459 104.798 95.3712 104.971C95.6922 105.138 96.0398 105.246 96.3984 105.293C96.9437 105.351 97.4953 105.293 98.016 105.12C98.7452 104.873 99.433 104.517 100.056 104.064C100.597 103.68 101.115 103.263 101.606 102.816C103.437 101.108 105.081 99.2114 106.512 97.1568L104.99 95.8944Z" fill="#E4897B"/>
<path d="M92.8509 82.7377C94.4733 83.1505 95.6061 89.8225 95.6061 89.8225L91.1373 92.8609C91.1373 92.8609 86.8509 86.1409 88.0989 84.3457C89.3997 82.4881 90.4845 82.1329 92.8509 82.7377Z" fill="#62BFCC"/>
<path opacity="0.6" d="M92.8509 82.7377C94.4733 83.1505 95.6061 89.8225 95.6061 89.8225L91.1373 92.8609C91.1373 92.8609 86.8509 86.1409 88.0989 84.3457C89.3997 82.4881 90.4845 82.1329 92.8509 82.7377Z" fill="white"/>
<path d="M84.0767 195.082H88.0127L88.2767 185.966H84.3407L84.0767 195.082Z" fill="#E4897B"/>
<path d="M88.147 194.626H83.7262C83.6496 194.624 83.575 194.65 83.5165 194.7C83.4581 194.749 83.42 194.818 83.4094 194.894L82.9054 198.389C82.8967 198.477 82.9066 198.567 82.9345 198.651C82.9623 198.736 83.0075 198.813 83.0672 198.879C83.1268 198.945 83.1996 198.998 83.2809 199.034C83.3621 199.071 83.45 199.089 83.539 199.09C85.0798 199.09 85.8238 198.974 87.7678 198.974C88.963 198.974 91.435 199.099 93.091 199.099C94.747 199.099 94.8286 197.462 94.1422 197.318C91.0558 196.651 89.8222 195.739 88.8046 194.866C88.6207 194.71 88.3877 194.625 88.147 194.626Z" fill="#263238"/>
<path d="M88.2721 185.966L88.1377 190.666H84.2017L84.3361 185.966H88.2721Z" fill="#CE6F64"/>
<path d="M56.2128 170.674L59.2128 173.223L55.6704 176.381L52.6704 173.832L56.2128 170.674Z" fill="#CE6F64"/>
<path d="M89.6256 195.312C89.2095 195.303 88.795 195.256 88.3872 195.173C88.3677 195.168 88.3501 195.158 88.3364 195.144C88.3227 195.129 88.3137 195.111 88.3104 195.091C88.3079 195.072 88.3112 195.053 88.3197 195.036C88.3283 195.019 88.3417 195.005 88.3584 194.995C88.536 194.904 90.1056 194.102 90.5904 194.366C90.6348 194.392 90.6724 194.429 90.7 194.472C90.7275 194.515 90.7443 194.565 90.7488 194.616C90.7589 194.699 90.749 194.784 90.7198 194.862C90.6905 194.941 90.6429 195.011 90.5808 195.067C90.2995 195.255 89.9625 195.341 89.6256 195.312ZM88.6944 195.038C89.568 195.182 90.216 195.144 90.456 194.933C90.4963 194.894 90.527 194.847 90.5454 194.794C90.5637 194.742 90.5693 194.686 90.5616 194.63C90.5608 194.61 90.5546 194.589 90.5437 194.572C90.5328 194.554 90.5174 194.54 90.4992 194.53C90.24 194.4 89.3376 194.726 88.6944 195.038Z" fill="#62BFCC"/>
<path d="M88.4018 195.173C88.3847 195.179 88.3661 195.179 88.349 195.173C88.3367 195.163 88.3268 195.151 88.3201 195.137C88.3135 195.122 88.3102 195.107 88.3106 195.091C88.3106 195.048 88.4066 193.987 88.901 193.574C88.9712 193.514 89.053 193.469 89.1414 193.442C89.2297 193.415 89.3227 193.406 89.4146 193.416C89.6738 193.416 89.7506 193.57 89.765 193.675C89.837 194.122 88.9106 194.971 88.4402 195.182L88.4018 195.173ZM89.3618 193.579C89.2435 193.578 89.1289 193.621 89.0402 193.699C88.7506 194.042 88.5745 194.466 88.5362 194.914C89.0162 194.621 89.645 193.954 89.6018 193.69C89.6018 193.69 89.6018 193.598 89.4146 193.579H89.3618Z" fill="#62BFCC"/>
<path d="M90.9695 106.488C90.9695 106.488 94.0799 136.8 93.8159 148.8C93.5471 161.28 88.9727 189.754 88.9727 189.754H83.6543C83.6543 189.754 84.4943 162.01 84.0239 149.75C83.5103 136.387 79.2671 106.483 79.2671 106.483L90.9695 106.488Z" fill="#62BFCC"/>
<path opacity="0.5" d="M90.9695 106.488C90.9695 106.488 94.0799 136.8 93.8159 148.8C93.5471 161.28 88.9727 189.754 88.9727 189.754H83.6543C83.6543 189.754 84.4943 162.01 84.0239 149.75C83.5103 136.387 79.2671 106.483 79.2671 106.483L90.9695 106.488Z" fill="black"/>
<path d="M104.947 95.6448L107.074 92.2848L108.278 96.1008C108.278 96.1008 106.536 97.9296 104.957 97.4928L104.947 95.6448Z" fill="#E4897B"/>
<path d="M49.3486 176.798L52.3486 179.347L59.2126 173.223L56.2126 170.674L49.3486 176.798Z" fill="#E4897B"/>
<path d="M53.1695 179.04L50.2607 175.714C50.2126 175.654 50.1442 175.615 50.0688 175.604C49.9934 175.592 49.9164 175.609 49.8527 175.651L46.8863 177.571C46.8137 177.623 46.7527 177.689 46.7073 177.765C46.6618 177.841 46.6329 177.926 46.6225 178.015C46.6121 178.103 46.6204 178.192 46.6468 178.277C46.6733 178.362 46.7172 178.441 46.7759 178.507C47.8079 179.65 48.3647 180.149 49.6559 181.613C50.4431 182.515 51.4991 183.912 52.5839 185.155C53.6687 186.398 54.9839 185.39 54.6191 184.776C53.0879 182.016 53.4575 181.046 53.4287 179.693C53.4226 179.451 53.3307 179.22 53.1695 179.04Z" fill="#263238"/>
<path d="M75.3887 70.6897C72.0287 74.4289 75.1439 82.8385 80.8559 79.4977C86.5679 76.1569 81.5471 72.9601 81.5471 72.9601L75.3887 70.6897Z" fill="#263238"/>
<path d="M75.6671 79.0272C75.6508 79.027 75.6348 79.0235 75.6199 79.0169C75.6051 79.0103 75.5917 79.0007 75.5807 78.9888C74.0639 77.4816 73.3151 75.8976 73.3535 74.2848C73.4275 72.814 74.0571 71.4261 75.1151 70.4016C75.1262 70.39 75.1397 70.3807 75.1545 70.3744C75.1694 70.3681 75.1853 70.3649 75.2015 70.3649C75.2176 70.3649 75.2335 70.3681 75.2484 70.3744C75.2632 70.3807 75.2767 70.39 75.2879 70.4016C75.2995 70.4128 75.3087 70.4262 75.315 70.4411C75.3213 70.4559 75.3246 70.4719 75.3246 70.488C75.3246 70.5041 75.3213 70.5201 75.315 70.5349C75.3087 70.5498 75.2995 70.5632 75.2879 70.5744C74.2871 71.5601 73.6884 72.8825 73.6079 74.2848C73.5695 75.8256 74.2943 77.3472 75.7583 78.8064C75.7699 78.8176 75.7791 78.831 75.7854 78.8459C75.7917 78.8607 75.795 78.8767 75.795 78.8928C75.795 78.9089 75.7917 78.9249 75.7854 78.9397C75.7791 78.9546 75.7699 78.968 75.7583 78.9792C75.7476 78.9935 75.7338 79.0052 75.7181 79.0135C75.7023 79.0218 75.6849 79.0265 75.6671 79.0272Z" fill="#263238"/>
<path d="M83.1599 63.4032C82.7663 64.6848 85.7135 66.9888 84.9839 70.2336C84.5951 71.9664 85.3295 73.5936 86.1503 74.0736C86.9711 74.5536 90.0911 74.7552 90.7295 73.272C89.6719 71.685 89.0435 69.851 88.9055 67.9488C88.6319 64.4208 84.2495 59.856 83.1599 63.4032Z" fill="#263238"/>
<path d="M83.5822 62.1408C82.2094 59.7408 70.9726 61.9488 74.9422 69.9408C78.9118 77.9328 83.5822 62.1408 83.5822 62.1408Z" fill="#263238"/>
<path d="M79.68 73.5553C80.136 75.8929 80.5968 80.1697 78.96 81.7153C78.96 81.7153 79.5984 84.0817 83.9376 84.0817C88.7088 84.0817 86.2176 81.7153 86.2176 81.7153C83.616 81.0913 83.6832 79.1617 84.1344 77.3473L79.68 73.5553Z" fill="#E4897B"/>
<path d="M81.4752 75.1056L84.1152 77.3568C84.0009 77.7794 83.9253 78.2116 83.8896 78.648C82.896 78.504 81.528 77.4096 81.4224 76.368C81.3652 75.9474 81.3831 75.52 81.4752 75.1056Z" fill="#CE6F64"/>
<path d="M77.1982 69.2736C78.115 73.0704 78.4222 74.6976 80.707 76.3248C84.1486 78.768 88.6126 76.8048 88.867 72.8208C89.083 69.2256 87.547 63.6192 83.5198 62.7408C82.6292 62.5402 81.7019 62.572 80.8272 62.8332C79.9524 63.0944 79.1595 63.5761 78.5247 64.2322C77.8898 64.8882 77.4344 65.6965 77.2021 66.5794C76.9698 67.4623 76.9684 68.3901 77.1982 69.2736Z" fill="#E4897B"/>
<path d="M83.1937 189.946H89.4337L89.8945 187.954L82.9009 187.714L83.1937 189.946Z" fill="#62BFCC"/>
<path opacity="0.2" d="M84.0768 114.029C88.0032 121.93 84.864 136.334 83.4768 141.691C82.7664 133.642 81.5568 123.806 80.6304 116.578C81.2256 112.488 82.2672 110.4 84.0768 114.029Z" fill="black"/>
<path d="M83.2081 69.312C83.2657 69.624 83.4769 69.8496 83.6881 69.792C83.8993 69.7344 84.0144 69.4704 83.9616 69.1584C83.9088 68.8464 83.6928 68.6208 83.4816 68.6784C83.2704 68.736 83.1553 69 83.2081 69.312Z" fill="#263238"/>
<path d="M86.7454 68.6881C86.7982 69.0001 87.0094 69.2257 87.2254 69.1681C87.4414 69.1105 87.5518 68.8513 87.499 68.5393C87.4462 68.2273 87.2302 68.0017 87.019 68.0353C86.8078 68.0689 86.6878 68.3761 86.7454 68.6881Z" fill="#263238"/>
<path d="M86.9277 68.088L87.6381 67.7424C87.6381 67.7424 87.3597 68.3952 86.9277 68.088Z" fill="#263238"/>
<path d="M85.9199 69.3888C86.3244 70.0535 86.8187 70.6592 87.3887 71.1888C87.2487 71.3306 87.0798 71.4405 86.8934 71.5109C86.7069 71.5814 86.5075 71.6106 86.3087 71.5968L85.9199 69.3888Z" fill="#DE5753"/>
<path d="M84.8831 73.0657C84.2041 73.0771 83.5476 72.8221 83.0543 72.3553C83.0367 72.3373 83.0269 72.3132 83.0269 72.2881C83.0269 72.2629 83.0367 72.2388 83.0543 72.2209C83.0628 72.2123 83.0729 72.2055 83.084 72.2009C83.0951 72.1962 83.107 72.1938 83.1191 72.1938C83.1311 72.1938 83.1431 72.1962 83.1542 72.2009C83.1653 72.2055 83.1754 72.2123 83.1839 72.2209C83.4758 72.4878 83.8266 72.6822 84.2078 72.7881C84.5889 72.894 84.9897 72.9085 85.3775 72.8305C85.4015 72.8276 85.4258 72.8339 85.4454 72.8481C85.465 72.8624 85.4784 72.8835 85.4831 72.9073C85.4873 72.9321 85.4816 72.9575 85.4673 72.9782C85.4529 72.9988 85.431 73.013 85.4063 73.0177C85.2333 73.0468 85.0585 73.0628 84.8831 73.0657Z" fill="#263238"/>
<path d="M84.5906 63.1297C84.4802 64.4641 80.885 65.5297 80.3618 68.7985C80.0834 70.5457 78.7874 71.8081 77.8562 71.9329C76.5758 71.9095 75.3476 71.4216 74.4002 70.5601C74.3005 70.4489 74.2257 70.3177 74.1809 70.1752C74.1362 70.0327 74.1224 69.8823 74.1406 69.7341C74.1588 69.5858 74.2085 69.4432 74.2864 69.3158C74.3643 69.1884 74.4685 69.0791 74.5922 68.9953C75.9074 68.0737 77.2994 66.9505 77.5586 65.2129C77.8754 63.1729 84.8978 59.4289 84.5906 63.1297Z" fill="#263238"/>
<path d="M77.0354 72.5424C77.3295 73.2371 77.8845 73.7886 78.581 74.0784C79.5122 74.4528 80.0834 73.6512 79.9202 72.7152C79.7666 71.8752 79.1042 70.6704 78.1298 70.6944C77.9167 70.7035 77.7092 70.7657 77.5262 70.8752C77.3432 70.9848 77.1904 71.1383 77.0817 71.3218C76.973 71.5054 76.9118 71.7131 76.9038 71.9263C76.8957 72.1394 76.9409 72.3512 77.0354 72.5424Z" fill="#E4897B"/>
<path d="M81.912 68.3664C81.8833 68.3709 81.8542 68.3709 81.8256 68.3664C81.7825 68.342 81.7501 68.3023 81.735 68.2552C81.7199 68.208 81.7231 68.1569 81.744 68.112C81.8731 67.8452 82.0643 67.6131 82.3014 67.4353C82.5386 67.2574 82.8149 67.1389 83.1072 67.0896C83.1568 67.0845 83.2065 67.0993 83.2452 67.1309C83.2839 67.1624 83.3085 67.208 83.3136 67.2576C83.3187 67.3072 83.3038 67.3569 83.2723 67.3956C83.2408 67.4343 83.1952 67.4589 83.1456 67.464C82.9146 67.5054 82.6968 67.6015 82.5106 67.7443C82.3243 67.8871 82.175 68.0724 82.0752 68.2848C82.0575 68.3115 82.0332 68.3332 82.0045 68.3475C81.9759 68.3618 81.9439 68.3683 81.912 68.3664Z" fill="#263238"/>
<path d="M88.0272 66.7776C88.002 66.7778 87.9771 66.7728 87.954 66.7628C87.9308 66.7529 87.91 66.7383 87.8928 66.72C87.7354 66.5458 87.5389 66.4114 87.3194 66.328C87.0999 66.2445 86.8638 66.2144 86.6304 66.24C86.5852 66.2421 86.5408 66.2277 86.5053 66.1996C86.4699 66.1714 86.4459 66.1314 86.4377 66.0869C86.4295 66.0424 86.4377 65.9964 86.4607 65.9575C86.4838 65.9186 86.5202 65.8894 86.5632 65.8752C86.8575 65.8369 87.1567 65.8706 87.4351 65.9734C87.7136 66.0763 87.9628 66.2452 88.1616 66.4656C88.1965 66.5007 88.2161 66.5481 88.2161 66.5976C88.2161 66.6471 88.1965 66.6945 88.1616 66.7296C88.1244 66.7618 88.0764 66.779 88.0272 66.7776Z" fill="#263238"/>
<path d="M77.2801 98.0545C75.3601 99.0145 73.3825 100.051 71.4577 100.834C71.0929 100.987 70.7281 101.117 70.3777 101.232C70.4161 101.006 70.4497 100.781 70.4881 100.555C70.6705 99.5377 70.8913 98.5153 71.1697 97.4929C71.4481 96.4705 71.7313 95.4385 72.0481 94.4161C72.7009 92.3857 73.4209 90.3121 74.1745 88.3489L70.4497 86.8273C69.5888 88.9305 68.8437 91.0794 68.2177 93.2641C67.5633 95.4631 67.0819 97.71 66.7777 99.9841C66.7201 100.574 66.6481 101.16 66.6337 101.774L66.6097 102.226C66.5939 102.53 66.6181 102.835 66.6817 103.133C66.7443 103.385 66.8447 103.626 66.9793 103.848C67.1364 104.102 67.3399 104.323 67.5793 104.501C67.9441 104.771 68.3755 104.937 68.8273 104.981C69.0967 105.014 69.3691 105.014 69.6385 104.981C69.8439 104.949 70.0474 104.906 70.2481 104.851C70.5754 104.76 70.8962 104.646 71.2081 104.51C71.7719 104.273 72.3202 104.001 72.8497 103.694C74.8181 102.538 76.677 101.204 78.4033 99.7105L77.2801 98.0545Z" fill="#E4897B"/>
<path d="M54.2398 180.96H54.1822C53.7022 180.907 53.2222 180.12 52.9582 179.659C52.9479 179.644 52.9424 179.625 52.9424 179.606C52.9424 179.588 52.9479 179.569 52.9582 179.554C52.9696 179.54 52.9848 179.53 53.0019 179.525C53.019 179.52 53.0371 179.52 53.0542 179.525C53.2126 179.568 54.5758 179.962 54.7246 180.442C54.7403 180.496 54.7414 180.553 54.728 180.608C54.7145 180.663 54.6868 180.713 54.6478 180.754C54.5983 180.815 54.5363 180.865 54.466 180.901C54.3956 180.936 54.3185 180.956 54.2398 180.96ZM53.2318 179.765C53.5774 180.37 53.9374 180.725 54.1918 180.773C54.2529 180.777 54.3139 180.765 54.3692 180.739C54.4246 180.713 54.4725 180.673 54.5086 180.624C54.5259 180.607 54.5381 180.585 54.5441 180.561C54.55 180.538 54.5493 180.513 54.5422 180.49C54.4798 180.216 53.7598 179.918 53.2366 179.746L53.2318 179.765Z" fill="#62BFCC"/>
<path d="M53.6687 179.76C53.4466 179.766 53.2249 179.739 53.0111 179.678C52.9962 179.672 52.9832 179.662 52.9731 179.65C52.963 179.637 52.9563 179.622 52.9535 179.606C52.9503 179.591 52.9513 179.575 52.9563 179.559C52.9614 179.544 52.9703 179.531 52.9823 179.52C53.0207 179.486 53.8847 178.752 54.4223 178.819C54.4939 178.826 54.563 178.849 54.6245 178.887C54.686 178.924 54.7383 178.975 54.7775 179.035C54.823 179.094 54.8478 179.165 54.8478 179.239C54.8478 179.313 54.823 179.385 54.7775 179.443C54.4592 179.681 54.0646 179.794 53.6687 179.76ZM53.2463 179.544C53.7263 179.63 54.4895 179.544 54.6575 179.328C54.6863 179.294 54.7103 179.237 54.6575 179.141C54.6327 179.102 54.5995 179.07 54.5605 179.046C54.5214 179.022 54.4775 179.007 54.4319 179.002C53.9906 179.057 53.5769 179.247 53.2463 179.544Z" fill="#62BFCC"/>
<path d="M83.395 68.7169L84.1054 68.3665C84.1054 68.3665 83.8222 69.0193 83.395 68.7169Z" fill="#263238"/>
<path d="M86.7504 106.488C86.7504 106.488 83.1312 138.005 80.3952 148.123C77.1504 160.123 56.9856 176.299 56.9856 176.299L52.896 172.829C52.896 172.829 67.512 155.266 69.9936 148.939C75.2736 135.432 70.7568 115.301 74.9856 106.488H86.7504Z" fill="#62BFCC"/>
<path opacity="0.5" d="M86.7504 106.488C86.7504 106.488 83.1312 138.005 80.3952 148.123C77.1504 160.123 56.9856 176.299 56.9856 176.299L52.896 172.829C52.896 172.829 67.512 155.266 69.9936 148.939C75.2736 135.432 70.7568 115.301 74.9856 106.488H86.7504Z" fill="black"/>
<path d="M52.2432 172.642L57.3168 176.952L59.2128 175.814L53.472 170.477L52.2432 172.642Z" fill="#62BFCC"/>
<path d="M74.7504 105.552L74.3376 106.992C74.2848 107.102 74.4144 107.213 74.6016 107.213H91.0512C91.1952 107.213 91.3152 107.146 91.3248 107.054L91.4688 105.614C91.4688 105.514 91.3536 105.432 91.1952 105.432H75.0096C74.9596 105.427 74.9093 105.436 74.8637 105.457C74.8182 105.478 74.7791 105.511 74.7504 105.552Z" fill="#62BFCC"/>
<path opacity="0.2" d="M74.7504 105.552L74.3376 106.992C74.2848 107.102 74.4144 107.213 74.6016 107.213H91.0512C91.1952 107.213 91.3152 107.146 91.3248 107.054L91.4688 105.614C91.4688 105.514 91.3536 105.432 91.1952 105.432H75.0096C74.9596 105.427 74.9093 105.436 74.8637 105.457C74.8182 105.478 74.7791 105.511 74.7504 105.552Z" fill="white"/>
<path d="M76.9202 107.362H76.4882C76.4018 107.362 76.3346 107.314 76.3442 107.261L76.5458 105.403C76.5458 105.346 76.6274 105.302 76.7138 105.302H77.1458C77.2322 105.302 77.2994 105.346 77.2946 105.403L77.0882 107.261C77.0834 107.314 77.0066 107.362 76.9202 107.362Z" fill="#62BFCC"/>
<path d="M89.832 107.362H89.4C89.3136 107.362 89.2464 107.314 89.2512 107.261L89.4576 105.403C89.4576 105.346 89.5392 105.302 89.6256 105.302H90.0576C90.144 105.302 90.2064 105.346 90.2016 105.403L90 107.261C89.9952 107.314 89.9184 107.362 89.832 107.362Z" fill="#62BFCC"/>
<path d="M83.376 107.362H82.944C82.8576 107.362 82.7904 107.314 82.7952 107.261L83.0016 105.403C83.0016 105.346 83.0832 105.302 83.1696 105.302H83.6016C83.688 105.302 83.7552 105.346 83.7504 105.403L83.544 107.261C83.52 107.314 83.4624 107.362 83.376 107.362Z" fill="#62BFCC"/>
<path opacity="0.5" d="M76.9202 107.362H76.4882C76.4018 107.362 76.3346 107.314 76.3442 107.261L76.5458 105.403C76.5458 105.346 76.6274 105.302 76.7138 105.302H77.1458C77.2322 105.302 77.2994 105.346 77.2946 105.403L77.0882 107.261C77.0834 107.314 77.0066 107.362 76.9202 107.362Z" fill="black"/>
<path opacity="0.5" d="M89.832 107.362H89.4C89.3136 107.362 89.2464 107.314 89.2512 107.261L89.4576 105.403C89.4576 105.346 89.5392 105.302 89.6256 105.302H90.0576C90.144 105.302 90.2064 105.346 90.2016 105.403L90 107.261C89.9952 107.314 89.9184 107.362 89.832 107.362Z" fill="black"/>
<path opacity="0.5" d="M83.376 107.362H82.944C82.8576 107.362 82.7904 107.314 82.7952 107.261L83.0016 105.403C83.0016 105.346 83.0832 105.302 83.1696 105.302H83.6016C83.688 105.302 83.7552 105.346 83.7504 105.403L83.544 107.261C83.52 107.314 83.4624 107.362 83.376 107.362Z" fill="black"/>
<path d="M106.008 85.4401C104.294 84.1538 102.208 83.4597 100.065 83.4625V82.9825C102.316 82.9738 104.508 83.7021 106.305 85.0561L106.008 85.4401Z" fill="#62BFCC"/>
<path d="M108.446 88.0705C108.011 87.387 107.496 86.7585 106.91 86.1985L107.241 85.8529C107.856 86.4383 108.398 87.0958 108.854 87.8113L108.446 88.0705Z" fill="#62BFCC"/>
<path opacity="0.2" d="M106.008 85.4401C104.294 84.1538 102.208 83.4597 100.065 83.4625V82.9825C102.316 82.9738 104.508 83.7021 106.305 85.0561L106.008 85.4401Z" fill="black"/>
<path opacity="0.2" d="M108.446 88.0705C108.011 87.387 107.496 86.7585 106.91 86.1985L107.241 85.8529C107.856 86.4383 108.398 87.0958 108.854 87.8113L108.446 88.0705Z" fill="black"/>
<path d="M80.8606 89.9088C82.2474 88.0572 84.3127 86.832 86.6025 86.5026C88.8923 86.1732 91.2192 86.7664 93.0718 88.152C94.4755 86.3466 96.5319 85.1644 98.7985 84.8598C101.065 84.5552 103.361 85.1525 105.191 86.5233C107.022 87.894 108.241 89.9287 108.587 92.1893C108.933 94.45 108.377 96.756 107.04 98.6112L96.5806 112.579L82.6126 102.125C81.6954 101.438 80.9226 100.577 80.3382 99.591C79.7538 98.6053 79.3692 97.514 79.2065 96.3797C79.0439 95.2453 79.1062 94.09 79.39 92.9798C79.6738 91.8695 80.1735 90.826 80.8606 89.9088Z" fill="#62BFCC"/>
<path opacity="0.2" d="M80.8606 89.9088C82.2474 88.0572 84.3127 86.832 86.6025 86.5026C88.8923 86.1732 91.2192 86.7664 93.0718 88.152C94.4755 86.3466 96.5319 85.1644 98.7985 84.8598C101.065 84.5552 103.361 85.1525 105.191 86.5233C107.022 87.894 108.241 89.9287 108.587 92.1893C108.933 94.45 108.377 96.756 107.04 98.6112L96.5806 112.579L82.6126 102.125C81.6954 101.438 80.9226 100.577 80.3382 99.591C79.7538 98.6053 79.3692 97.514 79.2065 96.3797C79.0439 95.2453 79.1062 94.09 79.39 92.9798C79.6738 91.8695 80.1735 90.826 80.8606 89.9088Z" fill="black"/>
<path d="M80.7983 92.592L82.4111 95.5344L80.1599 97.8336L78.0527 94.4352L80.7983 92.592Z" fill="#E4897B"/>
<path d="M76.7329 98.4769L78.0529 94.4353L80.1601 97.8337C80.1601 97.8337 78.9217 100.037 77.2801 100.003L76.7329 98.4769Z" fill="#E4897B"/>
<path d="M72.1536 82.6225C70.5552 83.1025 68.6304 88.6225 68.6304 88.6225L74.8416 93.0625C74.8416 93.0625 77.1072 88.4593 76.4352 86.3905C75.7344 84.2353 73.9824 82.0801 72.1536 82.6225Z" fill="#62BFCC"/>
<path opacity="0.6" d="M72.1536 82.6225C70.5552 83.1025 68.6304 88.6225 68.6304 88.6225L74.8416 93.0625C74.8416 93.0625 77.1072 88.4593 76.4352 86.3905C75.7344 84.2353 73.9824 82.0801 72.1536 82.6225Z" fill="white"/>
<path d="M110.189 91.176L111.029 94.4256L108.279 96.1056L107.074 92.2896L110.189 91.176Z" fill="#E4897B"/>
</svg>
