<svg width="240" height="240" viewBox="0 0 240 240" fill="none" xmlns="http://www.w3.org/2000/svg">
<path d="M58.8194 100.435C45.2978 106.56 37.2482 120.418 34.4354 134.208C32.2466 144.926 33.1634 156.437 38.6162 166.09C47.621 182.035 67.037 190.248 85.7858 194.472C107.779 199.421 131.213 200.386 152.837 194.179C174.461 187.973 194.069 174.019 203.439 154.786C208.431 144.523 210.403 132.706 207.317 121.829C204.231 110.952 195.648 101.189 184.205 97.6176C169.834 93.144 153.533 99.0576 142.882 109.138C137.602 114.134 132.063 120.658 124.565 120.13C119.899 119.808 116.055 116.731 112.565 113.808C108.547 110.4 86.1218 88.104 58.8194 100.435Z" fill="#62BFCC"/>
<g opacity="0.9">
<path d="M58.8194 100.435C45.2978 106.56 37.2482 120.418 34.4354 134.208C32.2466 144.926 33.1634 156.437 38.6162 166.09C47.621 182.035 67.037 190.248 85.7858 194.472C107.779 199.421 131.213 200.386 152.837 194.179C174.461 187.973 194.069 174.019 203.439 154.786C208.431 144.523 210.403 132.706 207.317 121.829C204.231 110.952 195.648 101.189 184.205 97.6176C169.834 93.144 153.533 99.0576 142.882 109.138C137.602 114.134 132.063 120.658 124.565 120.13C119.899 119.808 116.055 116.731 112.565 113.808C108.547 110.4 86.1218 88.104 58.8194 100.435Z" fill="white"/>
</g>
<path d="M120 204.965C171.399 204.965 213.067 202.532 213.067 199.531C213.067 196.53 171.399 194.098 120 194.098C68.6002 194.098 26.9326 196.53 26.9326 199.531C26.9326 202.532 68.6002 204.965 120 204.965Z" fill="#F5F5F5"/>
<path d="M150.144 88.6127C148.152 90.8783 145.527 92.3375 143.194 94.1711C140.861 96.0047 138.691 98.5247 138.346 101.645C137.976 104.971 139.752 108.12 140.064 111.451C140.64 117.595 135.706 123.307 130.123 124.238C124.541 125.17 118.863 122.078 115.099 117.475C113.122 115.046 111.538 112.114 111.159 108.883C110.511 103.373 113.405 97.9487 112.949 92.4143C112.435 86.1743 107.832 81.2927 103.133 77.6831C98.4337 74.0735 93.1729 70.9199 90.0481 65.6543C86.2849 59.3135 86.4433 50.7311 89.6113 44.0159C92.7793 37.3007 98.6257 32.3855 105.077 29.6687C111.528 26.9519 118.56 26.3087 125.463 26.5487C129.682 26.7119 133.949 27.2255 137.866 28.9487C141.783 30.6719 145.339 33.7487 147.125 37.9103C149.251 42.8591 148.642 48.4703 147.399 53.9087C147.11 55.1378 147.07 56.4121 147.281 57.6567C147.492 58.9014 147.95 60.0914 148.627 61.1567C150.292 63.6626 151.639 66.3647 152.64 69.2015C154.848 75.6623 154.507 83.6447 150.144 88.6127Z" fill="#62BFCC"/>
<g opacity="0.7">
<path d="M150.144 88.6127C148.152 90.8783 145.527 92.3375 143.194 94.1711C140.861 96.0047 138.691 98.5247 138.346 101.645C137.976 104.971 139.752 108.12 140.064 111.451C140.64 117.595 135.706 123.307 130.123 124.238C124.541 125.17 118.863 122.078 115.099 117.475C113.122 115.046 111.538 112.114 111.159 108.883C110.511 103.373 113.405 97.9487 112.949 92.4143C112.435 86.1743 107.832 81.2927 103.133 77.6831C98.4337 74.0735 93.1729 70.9199 90.0481 65.6543C86.2849 59.3135 86.4433 50.7311 89.6113 44.0159C92.7793 37.3007 98.6257 32.3855 105.077 29.6687C111.528 26.9519 118.56 26.3087 125.463 26.5487C129.682 26.7119 133.949 27.2255 137.866 28.9487C141.783 30.6719 145.339 33.7487 147.125 37.9103C149.251 42.8591 148.642 48.4703 147.399 53.9087C147.11 55.1378 147.07 56.4121 147.281 57.6567C147.492 58.9014 147.95 60.0914 148.627 61.1567C150.292 63.6626 151.639 66.3647 152.64 69.2015C154.848 75.6623 154.507 83.6447 150.144 88.6127Z" fill="white"/>
</g>
<path d="M102.279 63.5328C109.479 63.5328 115.315 57.6961 115.315 50.496C115.315 43.296 109.479 37.4592 102.279 37.4592C95.0785 37.4592 89.2417 43.296 89.2417 50.496C89.2417 57.6961 95.0785 63.5328 102.279 63.5328Z" fill="#62BFCC"/>
<g opacity="0.9">
<path d="M104.025 38.4L105.667 39.36V40.9295C105.667 40.9295 104.419 40.7568 104.025 40.08C104.025 40.08 104.361 39.936 103.401 39.36C102.441 38.784 102.662 38.112 104.025 38.4Z" fill="white"/>
<path d="M103.118 50.8799L102.158 51.3599C102.158 51.3599 101.875 51.9071 101.933 51.8879C101.99 51.8687 101.722 53.0207 101.779 53.0399C101.837 53.0591 101.232 53.5487 101.232 53.5487L100.949 54.2495V55.0607L102.312 56.9135L103.31 57.4799L102.442 62.2415L102.802 62.3711L107.333 59.0495L107.635 58.2335L108.979 57.7055L109.694 55.8383L110.51 54.8783C110.546 54.5705 110.546 54.2596 110.51 53.9519C110.434 53.9519 110.074 54.1007 110.074 54.1007L109.392 53.5919C108.894 53.487 108.388 53.4244 107.88 53.4047C107.808 53.4815 107.582 52.5263 107.582 52.5263L106.258 52.1567L104.88 51.2495L103.877 51.4367L103.118 50.8799Z" fill="white"/>
<path d="M100.545 48.5327H101.28L102.317 49.0799L104.237 49.5599L104.328 49.7135L102.408 49.6847L102.763 49.4591L102.48 49.2815H101.702L101.798 49.1855L100.997 48.7775C100.997 48.7775 100.493 48.6575 100.478 48.7151L100.267 48.7391L100.545 48.5327Z" fill="white"/>
<path d="M102.048 49.7185L101.87 49.5457L101.578 49.5601L101.698 49.7185H102.048Z" fill="white"/>
<path d="M106.632 38.3999H106.406L108 39.3599L108.254 39.6383L109.843 40.5503L110.155 40.9487L110.409 41.8271L111.259 42.5087L110.861 42.7919L111.768 43.9247H112.08L112.195 43.4447L111.513 42.0287L112.473 42.5567C111.047 40.5553 108.99 39.0913 106.632 38.3999Z" fill="white"/>
<path d="M113.28 43.6174H113.035L112.627 43.0798L112.19 44.2702C112.19 44.2702 112.459 45.6574 112.483 45.7438C112.507 45.8302 112.358 46.027 112.358 46.027L112.483 47.5582L112.795 48.0958L113.035 49.3966L114.106 50.8702L114.97 49.6318L115.109 49.9342C115.094 47.7002 114.461 45.5139 113.28 43.6174Z" fill="white"/>
<path d="M106.915 39.6431H106.632V39.9887L106.915 40.1615H107.169V39.9023L106.915 39.6431Z" fill="white"/>
<path d="M108.643 40.3296L109.065 40.7856L109.181 41.1648L109.608 41.5776L109.776 41.3232L110.088 41.5776V41.2944L109.862 40.9536L108.643 40.3296Z" fill="white"/>
<path d="M105.667 43.3343C104.735 43.6722 103.826 44.0699 102.946 44.5247C102.724 44.6881 102.549 44.9076 102.441 45.1607C102.332 45.4138 102.292 45.6913 102.326 45.9647L101.131 46.6415L101.414 47.9423L101.131 48.1151L100.68 47.0399C99.9353 46.9258 99.181 46.8888 98.4288 46.9295C97.7664 47.0399 97.6176 48.3695 97.6176 48.3695L98.016 49.4447L98.9232 49.5023L99.0336 48.8783L99.9936 48.9359L99.3696 50.1263L100.502 50.2943L100.618 51.1343L101.75 51.9983C101.75 51.9983 101.976 52.2815 101.75 52.3919C101.525 52.5023 96.1392 49.2767 95.6304 48.4847C95.1216 47.6927 94.4688 45.5087 94.9776 43.9775C95.3952 42.7343 96.1632 41.5775 96.4176 40.8335C96.4196 40.8127 96.4196 40.7918 96.4176 40.7711C96.4302 40.7131 96.4311 40.6531 96.4202 40.5947C96.4093 40.5363 96.3869 40.4807 96.3543 40.4311C96.3217 40.3815 96.2795 40.3388 96.2302 40.3057C96.1809 40.2726 96.1254 40.2497 96.0672 40.2383C95.8704 40.1807 95.5008 40.4063 95.5008 40.4063H94.7808L95.5296 39.9791L95.8416 39.6479L96.0432 39.4703L96.7776 39.1583L96.768 38.8799C97.1948 38.6228 97.6649 38.4455 98.1552 38.3567L97.6176 38.7647H98.184L98.2992 39.4079H99.432C99.432 39.4079 99.1488 39.3311 99.8304 38.9567C100.512 38.5823 102.72 38.3999 102.72 38.3999L102.038 39.3599L103.512 40.1903L103.344 40.8143L102.326 40.5311V40.1903L101.698 39.8399L101.645 40.5023L101.414 40.7855L101.131 40.5599L100.32 41.3519L101.76 42.7199L101.986 40.9391L104.03 41.3903L105.667 43.3343Z" fill="white"/>
</g>
<path d="M146.525 71.947C145.834 71.5246 144.922 71.2558 144.24 71.6926C143.559 72.1294 143.415 73.1854 143.405 74.059C142.21 73.3726 140.525 74.0062 139.891 75.2254C139.602 75.8535 139.499 76.5513 139.594 77.2362C139.689 77.9211 139.979 78.5643 140.429 79.0894C141.357 80.1288 142.631 80.7944 144.015 80.9614C145.354 81.163 146.347 80.8846 147.101 79.7518C147.643 78.9406 148.392 78.5566 148.968 77.8318C150.384 76.0318 148.056 72.883 146.525 71.947Z" fill="#62BFCC"/>
<path d="M141.831 72.2256C141.956 72.093 142.04 71.9259 142.071 71.7456C142.527 72.6432 143.103 73.4592 143.631 74.3184C143.448 74.136 141.701 72.3552 141.831 72.2256Z" fill="#62BFCC"/>
<path d="M142.469 71.7263C142.51 71.2695 142.601 70.8187 142.742 70.3823C143.084 70.7385 143.341 71.1665 143.496 71.6351C143.554 71.8711 143.558 72.1168 143.51 72.3549C143.462 72.593 143.362 72.8176 143.218 73.0127C142.68 73.7279 142.45 72.0479 142.469 71.7263Z" fill="#62BFCC"/>
<path d="M140.948 75.4414C140.882 75.4558 140.82 75.4869 140.77 75.5318C140.719 75.5768 140.681 75.6339 140.659 75.6978C140.637 75.7617 140.632 75.8302 140.644 75.8967C140.656 75.9632 140.685 76.0254 140.728 76.0774C140.772 76.1294 140.827 76.1694 140.891 76.1936C140.954 76.2177 141.022 76.2252 141.089 76.2154C141.156 76.2055 141.219 76.1785 141.272 76.1371C141.326 76.0957 141.368 76.0413 141.394 75.979C141.414 75.9159 141.419 75.849 141.409 75.7835C141.399 75.718 141.373 75.6559 141.334 75.6022C141.296 75.5484 141.245 75.5046 141.186 75.4742C141.127 75.4437 141.062 75.4276 140.996 75.427L140.948 75.4414Z" fill="white"/>
<path d="M144.034 80.0399C144.101 80.051 144.171 80.0391 144.231 80.0063C144.332 79.9391 144.303 79.7663 144.207 79.6799C144.102 79.6087 143.982 79.5642 143.856 79.5503C143.451 79.4613 143.074 79.2743 142.757 79.0057C142.441 78.7371 142.195 78.3951 142.042 78.0095C141.979 77.8078 141.899 77.6118 141.802 77.4239C141.552 76.9967 140.952 76.9439 140.842 77.4767C140.746 77.8751 141.236 78.4367 141.471 78.7055C142.122 79.4631 143.04 79.941 144.034 80.0399Z" fill="white"/>
<path d="M132.408 36.8208C132.41 37.9301 132.741 39.0141 133.359 39.9355C133.976 40.857 134.853 41.5747 135.879 41.998C136.904 42.4212 138.032 42.531 139.12 42.3134C140.208 42.0958 141.207 41.5606 141.99 40.7755C142.774 39.9904 143.308 38.9905 143.523 37.9023C143.739 36.8141 143.628 35.6864 143.203 34.6616C142.778 33.6369 142.058 32.7611 141.136 32.1449C140.213 31.5288 139.129 31.2 138.019 31.2C137.282 31.2006 136.552 31.3465 135.871 31.6293C135.189 31.9121 134.571 32.3263 134.05 32.8482C133.529 33.3702 133.116 33.9896 132.834 34.6712C132.552 35.3528 132.408 36.0832 132.408 36.8208ZM137.083 32.6688C136.9 32.7393 136.696 32.7393 136.512 32.6688C136.599 33.0624 136.215 33.408 135.85 33.6288C135.37 33.888 134.851 33.9936 134.751 33.5712C134.688 33.3216 134.88 32.9616 135.36 32.6112C135.492 32.5131 135.643 32.444 135.804 32.4084C135.964 32.3728 136.13 32.3716 136.291 32.4048C136.253 32.1696 136.464 31.9248 136.771 31.8C137.079 31.6752 137.467 31.8 137.549 32.0304C137.631 32.2608 137.429 32.5536 137.083 32.6688ZM139.81 34.5888C139.696 34.7555 139.521 34.8717 139.324 34.9129C139.126 34.9541 138.92 34.9172 138.749 34.8099C138.577 34.7026 138.454 34.5332 138.405 34.3372C138.356 34.1411 138.385 33.9337 138.485 33.7584C138.537 33.6669 138.608 33.5869 138.692 33.5233C138.776 33.4597 138.872 33.4136 138.974 33.388C139.076 33.3624 139.182 33.3577 139.287 33.3742C139.391 33.3907 139.49 33.4281 139.58 33.484C139.669 33.54 139.746 33.6134 139.806 33.6999C139.866 33.7864 139.909 33.8842 139.93 33.9874C139.952 34.0905 139.952 34.197 139.931 34.3003C139.911 34.4037 139.869 34.5018 139.81 34.5888ZM137.184 40.9968C137.184 40.8781 137.219 40.7621 137.285 40.6634C137.351 40.5647 137.445 40.4878 137.555 40.4424C137.664 40.397 137.785 40.3851 137.901 40.4083C138.018 40.4314 138.125 40.4886 138.208 40.5725C138.292 40.6564 138.35 40.7633 138.373 40.8797C138.396 40.9961 138.384 41.1167 138.339 41.2264C138.293 41.336 138.216 41.4297 138.118 41.4956C138.019 41.5616 137.903 41.5968 137.784 41.5968C137.625 41.5968 137.472 41.5335 137.36 41.421C137.247 41.3085 137.184 41.1559 137.184 40.9968ZM137.026 38.9376C137.026 38.8474 137.044 38.7582 137.078 38.6749C137.113 38.5916 137.163 38.5159 137.227 38.4522C137.291 38.3885 137.366 38.3379 137.45 38.3034C137.533 38.2689 137.622 38.2512 137.712 38.2512H137.76C137.678 37.8183 137.711 37.3716 137.854 36.9551C137.997 36.5385 138.247 36.1666 138.578 35.8758C138.909 35.5851 139.31 35.3856 139.741 35.2971C140.173 35.2086 140.62 35.2342 141.039 35.3712C141.101 35.224 141.198 35.0936 141.32 34.9906C141.442 34.8877 141.587 34.815 141.743 34.7785C141.899 34.742 142.061 34.7427 142.216 34.7806C142.371 34.8184 142.516 34.8924 142.637 34.9964C142.759 35.1005 142.854 35.2317 142.915 35.3794C142.976 35.5271 143.002 35.6872 142.99 35.8467C142.978 36.0061 142.928 36.1605 142.845 36.2972C142.762 36.4339 142.648 36.5491 142.512 36.6336C142.681 36.9667 142.774 37.333 142.785 37.7063C142.795 38.0795 142.724 38.4506 142.575 38.793C142.426 39.1354 142.203 39.4407 141.923 39.6873C141.642 39.9338 141.311 40.1154 140.952 40.2192C140.998 40.295 141.025 40.3813 141.028 40.4701C141.032 40.5588 141.013 40.647 140.973 40.7263C140.933 40.8056 140.873 40.8735 140.8 40.9235C140.727 40.9736 140.642 41.0041 140.553 41.0123C140.465 41.0204 140.376 41.0059 140.295 40.9702C140.213 40.9344 140.143 40.8786 140.089 40.8079C140.035 40.7372 140 40.654 139.988 40.5661C139.975 40.4782 139.985 40.3886 140.016 40.3056C139.622 40.2684 139.242 40.1385 138.907 39.9264C138.654 39.7775 138.428 39.5859 138.24 39.36C138.177 39.4401 138.096 39.5047 138.003 39.5488C137.911 39.5929 137.81 39.6153 137.707 39.6144C137.528 39.6131 137.356 39.5416 137.228 39.415C137.101 39.2885 137.028 39.1171 137.026 38.9376ZM135.519 34.9392C135.508 34.8421 135.526 34.7441 135.57 34.6567C135.613 34.5694 135.681 34.4962 135.764 34.4458C135.848 34.3955 135.944 34.37 136.042 34.3723C136.139 34.3747 136.234 34.4048 136.315 34.4592C136.324 34.2788 136.394 34.1068 136.515 33.9724C136.635 33.838 136.798 33.7494 136.977 33.7217C137.155 33.694 137.338 33.7288 137.493 33.8202C137.649 33.9117 137.768 34.0541 137.831 34.2235C137.893 34.3928 137.896 34.5786 137.837 34.7493C137.778 34.92 137.662 35.0652 137.509 35.1602C137.355 35.2552 137.173 35.2941 136.994 35.2705C136.815 35.2468 136.65 35.162 136.527 35.0304C136.497 35.1298 136.438 35.218 136.357 35.2839C136.277 35.3497 136.179 35.3901 136.075 35.4C135.941 35.412 135.806 35.3704 135.702 35.2841C135.598 35.1978 135.532 35.0738 135.519 34.9392ZM134.775 39.6528C134.775 39.5759 134.797 39.5007 134.84 39.4367C134.883 39.3728 134.944 39.323 135.015 39.2935C135.086 39.2641 135.164 39.2564 135.239 39.2714C135.315 39.2864 135.384 39.3235 135.438 39.3778C135.493 39.4322 135.53 39.5015 135.545 39.5769C135.56 39.6523 135.552 39.7305 135.523 39.8015C135.493 39.8726 135.443 39.9333 135.379 39.976C135.315 40.0188 135.24 40.0416 135.163 40.0416C135.112 40.0416 135.062 40.0315 135.015 40.012C134.967 39.9924 134.925 39.9638 134.888 39.9277C134.852 39.8916 134.824 39.8487 134.804 39.8015C134.785 39.7544 134.775 39.7038 134.775 39.6528ZM134.016 35.2656C134.01 35.1647 134.034 35.0642 134.084 34.9768C134.135 34.8893 134.21 34.8187 134.301 34.7738C134.391 34.7289 134.493 34.7116 134.593 34.7243C134.693 34.7369 134.788 34.7789 134.864 34.8448C134.941 34.9108 134.996 34.9979 135.023 35.0952C135.051 35.1925 135.049 35.2957 135.018 35.3918C134.986 35.488 134.928 35.5728 134.849 35.6357C134.77 35.6987 134.674 35.7369 134.573 35.7456C134.436 35.7548 134.3 35.7097 134.196 35.6198C134.092 35.53 134.027 35.4027 134.016 35.2656Z" fill="#62BFCC"/>
<path d="M132.408 36.8208C132.41 37.9301 132.741 39.0141 133.359 39.9355C133.976 40.857 134.853 41.5747 135.879 41.998C136.904 42.4212 138.032 42.531 139.12 42.3134C140.208 42.0958 141.207 41.5606 141.99 40.7755C142.774 39.9904 143.308 38.9905 143.523 37.9023C143.739 36.8141 143.628 35.6864 143.203 34.6616C142.778 33.6369 142.058 32.7611 141.136 32.1449C140.213 31.5288 139.129 31.2 138.019 31.2C137.282 31.2006 136.552 31.3465 135.871 31.6293C135.189 31.9121 134.571 32.3263 134.05 32.8482C133.529 33.3702 133.116 33.9896 132.834 34.6712C132.552 35.3528 132.408 36.0832 132.408 36.8208ZM137.083 32.6688C136.9 32.7393 136.696 32.7393 136.512 32.6688C136.599 33.0624 136.215 33.408 135.85 33.6288C135.37 33.888 134.851 33.9936 134.751 33.5712C134.688 33.3216 134.88 32.9616 135.36 32.6112C135.492 32.5131 135.643 32.444 135.804 32.4084C135.964 32.3728 136.13 32.3716 136.291 32.4048C136.253 32.1696 136.464 31.9248 136.771 31.8C137.079 31.6752 137.467 31.8 137.549 32.0304C137.631 32.2608 137.429 32.5536 137.083 32.6688ZM139.81 34.5888C139.696 34.7555 139.521 34.8717 139.324 34.9129C139.126 34.9541 138.92 34.9172 138.749 34.8099C138.577 34.7026 138.454 34.5332 138.405 34.3372C138.356 34.1411 138.385 33.9337 138.485 33.7584C138.537 33.6669 138.608 33.5869 138.692 33.5233C138.776 33.4597 138.872 33.4136 138.974 33.388C139.076 33.3624 139.182 33.3577 139.287 33.3742C139.391 33.3907 139.49 33.4281 139.58 33.484C139.669 33.54 139.746 33.6134 139.806 33.6999C139.866 33.7864 139.909 33.8842 139.93 33.9874C139.952 34.0905 139.952 34.197 139.931 34.3003C139.911 34.4037 139.869 34.5018 139.81 34.5888ZM137.184 40.9968C137.184 40.8781 137.219 40.7621 137.285 40.6634C137.351 40.5647 137.445 40.4878 137.555 40.4424C137.664 40.397 137.785 40.3851 137.901 40.4083C138.018 40.4314 138.125 40.4886 138.208 40.5725C138.292 40.6564 138.35 40.7633 138.373 40.8797C138.396 40.9961 138.384 41.1167 138.339 41.2264C138.293 41.336 138.216 41.4297 138.118 41.4956C138.019 41.5616 137.903 41.5968 137.784 41.5968C137.625 41.5968 137.472 41.5335 137.36 41.421C137.247 41.3085 137.184 41.1559 137.184 40.9968ZM137.026 38.9376C137.026 38.8474 137.044 38.7582 137.078 38.6749C137.113 38.5916 137.163 38.5159 137.227 38.4522C137.291 38.3885 137.366 38.3379 137.45 38.3034C137.533 38.2689 137.622 38.2512 137.712 38.2512H137.76C137.678 37.8183 137.711 37.3716 137.854 36.9551C137.997 36.5385 138.247 36.1666 138.578 35.8758C138.909 35.5851 139.31 35.3856 139.741 35.2971C140.173 35.2086 140.62 35.2342 141.039 35.3712C141.101 35.224 141.198 35.0936 141.32 34.9906C141.442 34.8877 141.587 34.815 141.743 34.7785C141.899 34.742 142.061 34.7427 142.216 34.7806C142.371 34.8184 142.516 34.8924 142.637 34.9964C142.759 35.1005 142.854 35.2317 142.915 35.3794C142.976 35.5271 143.002 35.6872 142.99 35.8467C142.978 36.0061 142.928 36.1605 142.845 36.2972C142.762 36.4339 142.648 36.5491 142.512 36.6336C142.681 36.9667 142.774 37.333 142.785 37.7063C142.795 38.0795 142.724 38.4506 142.575 38.793C142.426 39.1354 142.203 39.4407 141.923 39.6873C141.642 39.9338 141.311 40.1154 140.952 40.2192C140.998 40.295 141.025 40.3813 141.028 40.4701C141.032 40.5588 141.013 40.647 140.973 40.7263C140.933 40.8056 140.873 40.8735 140.8 40.9235C140.727 40.9736 140.642 41.0041 140.553 41.0123C140.465 41.0204 140.376 41.0059 140.295 40.9702C140.213 40.9344 140.143 40.8786 140.089 40.8079C140.035 40.7372 140 40.654 139.988 40.5661C139.975 40.4782 139.985 40.3886 140.016 40.3056C139.622 40.2684 139.242 40.1385 138.907 39.9264C138.654 39.7775 138.428 39.5859 138.24 39.36C138.177 39.4401 138.096 39.5047 138.003 39.5488C137.911 39.5929 137.81 39.6153 137.707 39.6144C137.528 39.6131 137.356 39.5416 137.228 39.415C137.101 39.2885 137.028 39.1171 137.026 38.9376ZM135.519 34.9392C135.508 34.8421 135.526 34.7441 135.57 34.6567C135.613 34.5694 135.681 34.4962 135.764 34.4458C135.848 34.3955 135.944 34.37 136.042 34.3723C136.139 34.3747 136.234 34.4048 136.315 34.4592C136.324 34.2788 136.394 34.1068 136.515 33.9724C136.635 33.838 136.798 33.7494 136.977 33.7217C137.155 33.694 137.338 33.7288 137.493 33.8202C137.649 33.9117 137.768 34.0541 137.831 34.2235C137.893 34.3928 137.896 34.5786 137.837 34.7493C137.778 34.92 137.662 35.0652 137.509 35.1602C137.355 35.2552 137.173 35.2941 136.994 35.2705C136.815 35.2468 136.65 35.162 136.527 35.0304C136.497 35.1298 136.438 35.218 136.357 35.2839C136.277 35.3497 136.179 35.3901 136.075 35.4C135.941 35.412 135.806 35.3704 135.702 35.2841C135.598 35.1978 135.532 35.0738 135.519 34.9392ZM134.775 39.6528C134.775 39.5759 134.797 39.5007 134.84 39.4367C134.883 39.3728 134.944 39.323 135.015 39.2935C135.086 39.2641 135.164 39.2564 135.239 39.2714C135.315 39.2864 135.384 39.3235 135.438 39.3778C135.493 39.4322 135.53 39.5015 135.545 39.5769C135.56 39.6523 135.552 39.7305 135.523 39.8015C135.493 39.8726 135.443 39.9333 135.379 39.976C135.315 40.0188 135.24 40.0416 135.163 40.0416C135.112 40.0416 135.062 40.0315 135.015 40.012C134.967 39.9924 134.925 39.9638 134.888 39.9277C134.852 39.8916 134.824 39.8487 134.804 39.8015C134.785 39.7544 134.775 39.7038 134.775 39.6528ZM134.016 35.2656C134.01 35.1647 134.034 35.0642 134.084 34.9768C134.135 34.8893 134.21 34.8187 134.301 34.7738C134.391 34.7289 134.493 34.7116 134.593 34.7243C134.693 34.7369 134.788 34.7789 134.864 34.8448C134.941 34.9108 134.996 34.9979 135.023 35.0952C135.051 35.1925 135.049 35.2957 135.018 35.3918C134.986 35.488 134.928 35.5728 134.849 35.6357C134.77 35.6987 134.674 35.7369 134.573 35.7456C134.436 35.7548 134.3 35.7097 134.196 35.6198C134.092 35.53 134.027 35.4027 134.016 35.2656Z" fill="#62BFCC"/>
<path d="M134.774 39.6527C134.774 39.7558 134.815 39.8547 134.888 39.9276C134.961 40.0006 135.06 40.0415 135.163 40.0415C135.266 40.0415 135.365 40.0006 135.438 39.9276C135.511 39.8547 135.552 39.7558 135.552 39.6527C135.552 39.5496 135.511 39.4507 135.438 39.3778C135.365 39.3049 135.266 39.2639 135.163 39.2639C135.06 39.2639 134.961 39.3049 134.888 39.3778C134.815 39.4507 134.774 39.5496 134.774 39.6527Z" fill="#E6E6E6"/>
<path d="M134.722 39.6527C134.722 39.5642 134.748 39.4777 134.797 39.4042C134.847 39.3307 134.917 39.2735 134.998 39.2398C135.08 39.2062 135.17 39.1976 135.257 39.2152C135.344 39.2329 135.423 39.2758 135.485 39.3388C135.548 39.4017 135.59 39.4817 135.607 39.5686C135.623 39.6555 135.614 39.7454 135.579 39.8269C135.545 39.9083 135.487 39.9777 135.413 40.0262C135.339 40.0747 135.252 40.1 135.163 40.0991C135.105 40.0991 135.047 40.0875 134.993 40.065C134.939 40.0425 134.89 40.0096 134.849 39.968C134.808 39.9265 134.776 39.8773 134.754 39.8231C134.732 39.769 134.721 39.7111 134.722 39.6527Z" fill="#62BFCC"/>
<path d="M137.126 40.9966C137.126 40.8664 137.163 40.7388 137.235 40.63C137.307 40.5212 137.409 40.4362 137.529 40.3857C137.649 40.3352 137.782 40.3215 137.909 40.3463C138.037 40.3711 138.155 40.4334 138.247 40.5251C138.34 40.6169 138.403 40.7341 138.429 40.8618C138.454 40.9895 138.442 41.1219 138.392 41.2424C138.342 41.3628 138.258 41.4658 138.15 41.5383C138.042 41.6107 137.914 41.6494 137.784 41.6494C137.611 41.6494 137.444 41.5808 137.321 41.4585C137.198 41.3362 137.128 41.1702 137.126 40.9966Z" fill="#62BFCC"/>
<path d="M138.72 34.8912C138.533 34.7725 138.4 34.5844 138.35 34.368C138.302 34.1511 138.34 33.924 138.456 33.7344C138.529 33.6167 138.63 33.5189 138.75 33.4497C138.87 33.3804 139.005 33.3419 139.143 33.3376C139.282 33.3332 139.419 33.3631 139.543 33.4247C139.667 33.4863 139.774 33.5775 139.854 33.6904C139.935 33.8033 139.986 33.9342 140.003 34.0716C140.021 34.209 140.004 34.3485 139.954 34.4778C139.905 34.6072 139.824 34.7222 139.719 34.8127C139.614 34.9033 139.489 34.9665 139.354 34.9968C139.291 35.0038 139.229 35.0038 139.166 34.9968C139.011 35.002 138.857 34.9655 138.72 34.8912Z" fill="#62BFCC"/>
<path d="M135.662 35.3328C135.605 35.2844 135.558 35.2252 135.523 35.1585C135.488 35.0917 135.467 35.0188 135.461 34.944C135.454 34.8696 135.462 34.7947 135.485 34.7237C135.509 34.6527 135.546 34.5872 135.595 34.5312C135.642 34.4727 135.7 34.4243 135.766 34.3888C135.832 34.3534 135.905 34.3316 135.979 34.3248C136.078 34.32 136.177 34.3381 136.267 34.3776C136.295 34.1726 136.398 33.9854 136.557 33.8521C136.715 33.7189 136.917 33.6491 137.124 33.6563C137.33 33.6634 137.527 33.7471 137.676 33.891C137.824 34.0349 137.914 34.2288 137.928 34.4352C137.938 34.5443 137.926 34.6543 137.893 34.7588C137.86 34.8634 137.807 34.9604 137.737 35.0443C137.666 35.1282 137.58 35.1973 137.483 35.2476C137.385 35.2979 137.279 35.3285 137.17 35.3376C137.057 35.3487 136.944 35.3365 136.837 35.3018C136.729 35.2671 136.63 35.2106 136.546 35.136C136.503 35.2286 136.435 35.3079 136.351 35.3653C136.266 35.4228 136.168 35.4563 136.066 35.4624H136.013C135.885 35.4597 135.761 35.414 135.662 35.3328Z" fill="#62BFCC"/>
<path d="M133.964 35.2703C133.954 35.1215 134.003 34.9749 134.1 34.8618C134.197 34.7487 134.335 34.678 134.483 34.6648C134.632 34.6517 134.779 34.6971 134.895 34.7914C135.01 34.8857 135.084 35.0213 135.101 35.1695C135.113 35.3208 135.065 35.4707 134.967 35.5867C134.869 35.7026 134.729 35.7752 134.578 35.7887H134.53C134.388 35.7881 134.251 35.7347 134.147 35.6388C134.042 35.543 133.977 35.4116 133.964 35.2703Z" fill="#62BFCC"/>
<g opacity="0.1">
<path d="M135 38.8462C135.014 38.8408 135.025 38.8304 135.031 38.817C135.037 38.8035 135.038 38.7882 135.034 38.7742C134.722 37.8574 134.966 36.019 134.966 35.9998C134.969 35.9925 134.969 35.9846 134.968 35.977C134.967 35.9694 134.963 35.9622 134.959 35.9561C134.954 35.95 134.948 35.9451 134.941 35.9418C134.934 35.9386 134.926 35.9371 134.918 35.9374C134.911 35.9361 134.904 35.9362 134.896 35.938C134.889 35.9397 134.882 35.9429 134.876 35.9475C134.871 35.952 134.866 35.9577 134.862 35.9643C134.859 35.9708 134.857 35.978 134.856 35.9854C134.856 36.0622 134.606 37.8718 134.928 38.8126C134.93 38.8199 134.934 38.8265 134.939 38.8323C134.943 38.838 134.95 38.8426 134.956 38.8458C134.963 38.8489 134.971 38.8506 134.978 38.8507C134.986 38.8508 134.993 38.8493 135 38.8462Z" fill="white"/>
</g>
<path opacity="0.1" d="M134.367 39.3598C134.38 39.3654 134.396 39.3654 134.41 39.3598C134.415 39.3549 134.419 39.3489 134.422 39.3423C134.425 39.3357 134.426 39.3286 134.426 39.3214C134.426 39.3142 134.425 39.3071 134.422 39.3005C134.419 39.2939 134.415 39.2879 134.41 39.283C133.972 38.9364 133.658 38.4586 133.512 37.9198C133.512 37.9109 133.51 37.9022 133.505 37.8943C133.501 37.8865 133.495 37.8797 133.488 37.8746C133.481 37.8694 133.472 37.8661 133.463 37.8647C133.455 37.8633 133.446 37.864 133.437 37.8667C133.429 37.8694 133.421 37.8741 133.414 37.8803C133.408 37.8865 133.403 37.8941 133.4 37.9025C133.397 37.9109 133.396 37.9198 133.397 37.9287C133.398 37.9375 133.402 37.946 133.407 37.9534C133.558 38.5089 133.882 39.0017 134.333 39.3598C134.338 39.3621 134.344 39.3632 134.35 39.3632C134.356 39.3632 134.361 39.3621 134.367 39.3598Z" fill="white"/>
<path opacity="0.1" d="M136.8 40.1471C136.815 40.1471 136.83 40.1411 136.841 40.1303C136.851 40.1195 136.858 40.1048 136.858 40.0895C136.858 40.0743 136.851 40.0596 136.841 40.0488C136.83 40.038 136.815 40.0319 136.8 40.0319C136.528 40.0234 136.258 39.9782 135.998 39.8975C135.991 39.8953 135.983 39.8946 135.976 39.8953C135.968 39.896 135.961 39.8982 135.954 39.9018C135.948 39.9054 135.942 39.9102 135.937 39.9161C135.932 39.9219 135.929 39.9287 135.926 39.9359C135.924 39.9432 135.923 39.9508 135.924 39.9584C135.925 39.9659 135.927 39.9732 135.931 39.9799C135.934 39.9866 135.939 39.9925 135.945 39.9973C135.951 40.0021 135.958 40.0057 135.965 40.0079C136.235 40.0878 136.514 40.1346 136.795 40.1471H136.8Z" fill="white"/>
<path opacity="0.1" d="M134.756 41.1215C134.767 41.122 134.779 41.1184 134.789 41.1115C134.798 41.1045 134.805 41.0945 134.808 41.0831L135 40.3775C135.003 40.3703 135.003 40.3627 135.003 40.3551C135.002 40.3476 135 40.3403 134.996 40.3336C134.993 40.3269 134.988 40.321 134.982 40.3161C134.976 40.3113 134.969 40.3077 134.962 40.3055C134.947 40.3026 134.932 40.3055 134.92 40.3136C134.907 40.3216 134.898 40.3342 134.895 40.3487L134.703 41.0495C134.7 41.0568 134.7 41.0644 134.7 41.0719C134.701 41.0795 134.703 41.0868 134.707 41.0935C134.711 41.1002 134.715 41.1061 134.721 41.1109C134.727 41.1157 134.734 41.1193 134.741 41.1215H134.756Z" fill="white"/>
<path opacity="0.1" d="M133.551 40.1518C133.838 40.1356 134.119 40.0605 134.376 39.931C134.386 39.9228 134.393 39.9116 134.396 39.8991C134.398 39.8866 134.397 39.8735 134.391 39.8619C134.386 39.8504 134.377 39.841 134.365 39.8352C134.354 39.8295 134.341 39.8277 134.328 39.8302C134.083 39.9523 133.815 40.0241 133.541 40.0414C133.527 40.0426 133.513 40.0492 133.503 40.0599C133.494 40.0705 133.488 40.0845 133.488 40.099C133.491 40.1138 133.498 40.1273 133.51 40.137C133.521 40.1467 133.536 40.152 133.551 40.1518Z" fill="white"/>
<path opacity="0.1" d="M135.696 39.0768C135.707 39.0768 135.717 39.0742 135.726 39.0691C135.735 39.0641 135.743 39.0568 135.749 39.048C135.97 38.568 136.791 36.9504 136.795 36.936C136.802 36.9226 136.803 36.907 136.799 36.8927C136.794 36.8783 136.785 36.8663 136.771 36.8592C136.76 36.8506 136.747 36.8459 136.733 36.8459C136.719 36.8459 136.705 36.8506 136.695 36.8592C136.695 36.8592 135.864 38.496 135.643 38.976C135.64 38.9825 135.638 38.9897 135.638 38.997C135.638 39.0043 135.639 39.0115 135.642 39.0183C135.645 39.025 135.649 39.0312 135.654 39.0363C135.659 39.0414 135.665 39.0454 135.672 39.048L135.696 39.0768Z" fill="white"/>
<path opacity="0.1" d="M136.762 41.635C136.771 41.6352 136.781 41.6326 136.79 41.6275C136.798 41.6224 136.805 41.6151 136.81 41.6062C136.819 41.5957 136.824 41.582 136.824 41.5678C136.824 41.5537 136.819 41.54 136.81 41.5294C136.301 41.2289 135.877 40.8024 135.581 40.291C135.57 40.2816 135.557 40.2764 135.542 40.2764C135.528 40.2764 135.514 40.2816 135.504 40.291C135.495 40.302 135.491 40.3155 135.491 40.3294C135.491 40.3434 135.495 40.3569 135.504 40.3678C135.808 40.8989 136.245 41.3421 136.771 41.6542L136.762 41.635Z" fill="white"/>
<path d="M134.919 33.8304C134.861 33.8054 134.81 33.7664 134.77 33.717C134.731 33.6676 134.705 33.6093 134.693 33.5472C134.621 33.2496 134.866 32.8656 135.327 32.5488C135.591 32.3633 135.913 32.2797 136.234 32.3136C136.257 32.1749 136.32 32.0459 136.416 31.9427C136.511 31.8395 136.635 31.7665 136.771 31.7328C136.942 31.6805 137.124 31.6805 137.295 31.7328C137.368 31.7517 137.436 31.7876 137.492 31.8377C137.549 31.8877 137.593 31.9505 137.621 32.0208C137.712 32.2896 137.477 32.616 137.098 32.7408C136.929 32.7932 136.748 32.7932 136.579 32.7408C136.579 33.2208 136.056 33.5424 135.879 33.6432C135.652 33.7737 135.4 33.8524 135.139 33.8736C135.064 33.8769 134.988 33.8621 134.919 33.8304Z" fill="#62BFCC"/>
<path d="M139.91 40.4927C139.906 40.4512 139.906 40.4094 139.91 40.3679C139.53 40.3239 139.164 40.1943 138.84 39.9887C138.613 39.8448 138.41 39.6648 138.24 39.4559C138.156 39.5438 138.052 39.6097 137.936 39.6479C137.821 39.6861 137.698 39.6954 137.578 39.675C137.458 39.6546 137.345 39.6051 137.248 39.5309C137.152 39.4567 137.075 39.3599 137.025 39.2492C136.975 39.1385 136.952 39.0171 136.96 38.8957C136.967 38.7743 137.005 38.6566 137.068 38.5529C137.132 38.4492 137.22 38.3626 137.324 38.3008C137.429 38.239 137.547 38.2038 137.669 38.1983C137.65 38.0648 137.64 37.93 137.64 37.7951C137.638 37.3882 137.732 36.9865 137.914 36.6228C138.097 36.2591 138.363 35.9436 138.69 35.7022C139.018 35.4607 139.398 35.3001 139.799 35.2334C140.201 35.1667 140.612 35.1958 141 35.3183C141.069 35.166 141.173 35.0319 141.303 34.9266C141.433 34.8214 141.585 34.7479 141.749 34.712C141.912 34.6762 142.082 34.6789 142.244 34.72C142.406 34.7611 142.556 34.8395 142.683 34.9489C142.809 35.0583 142.908 35.1956 142.972 35.3501C143.037 35.5046 143.064 35.6719 143.052 35.8387C143.04 36.0055 142.989 36.1672 142.904 36.311C142.819 36.4549 142.701 36.5768 142.56 36.6671C142.721 37.0019 142.809 37.3674 142.816 37.7388C142.824 38.1103 142.752 38.4791 142.605 38.8204C142.458 39.1616 142.24 39.4674 141.964 39.7169C141.689 39.9665 141.364 40.1541 141.01 40.2671C141.038 40.3389 141.053 40.4154 141.053 40.4927C141.06 40.5724 141.051 40.6528 141.025 40.7287C141 40.8046 140.959 40.8744 140.905 40.9335C140.851 40.9926 140.785 41.0399 140.712 41.0722C140.639 41.1045 140.559 41.1212 140.479 41.1212C140.399 41.1212 140.32 41.1045 140.247 41.0722C140.173 41.0399 140.108 40.9926 140.054 40.9335C140 40.8744 139.959 40.8046 139.933 40.7287C139.908 40.6528 139.898 40.5724 139.906 40.4927H139.91Z" fill="#62BFCC"/>
<g opacity="0.1">
<path d="M139.91 40.4927C139.906 40.4512 139.906 40.4094 139.91 40.3679C139.53 40.3239 139.164 40.1943 138.84 39.9887C138.613 39.8448 138.41 39.6648 138.24 39.4559C138.156 39.5438 138.052 39.6097 137.936 39.6479C137.821 39.6861 137.698 39.6954 137.578 39.675C137.458 39.6546 137.345 39.6051 137.248 39.5309C137.152 39.4567 137.075 39.3599 137.025 39.2492C136.975 39.1385 136.952 39.0171 136.96 38.8957C136.967 38.7743 137.005 38.6566 137.068 38.5529C137.132 38.4492 137.22 38.3626 137.324 38.3008C137.429 38.239 137.547 38.2038 137.669 38.1983C137.65 38.0648 137.64 37.93 137.64 37.7951C137.638 37.3882 137.732 36.9865 137.914 36.6228C138.097 36.2591 138.363 35.9436 138.69 35.7022C139.018 35.4607 139.398 35.3001 139.799 35.2334C140.201 35.1667 140.612 35.1958 141 35.3183C141.069 35.166 141.173 35.0319 141.303 34.9266C141.433 34.8214 141.585 34.7479 141.749 34.712C141.912 34.6762 142.082 34.6789 142.244 34.72C142.406 34.7611 142.556 34.8395 142.683 34.9489C142.809 35.0583 142.908 35.1956 142.972 35.3501C143.037 35.5046 143.064 35.6719 143.052 35.8387C143.04 36.0055 142.989 36.1672 142.904 36.311C142.819 36.4549 142.701 36.5768 142.56 36.6671C142.721 37.0019 142.809 37.3674 142.816 37.7388C142.824 38.1103 142.752 38.4791 142.605 38.8204C142.458 39.1616 142.24 39.4674 141.964 39.7169C141.689 39.9665 141.364 40.1541 141.01 40.2671C141.038 40.3389 141.053 40.4154 141.053 40.4927C141.06 40.5724 141.051 40.6528 141.025 40.7287C141 40.8046 140.959 40.8744 140.905 40.9335C140.851 40.9926 140.785 41.0399 140.712 41.0722C140.639 41.1045 140.559 41.1212 140.479 41.1212C140.399 41.1212 140.32 41.1045 140.247 41.0722C140.173 41.0399 140.108 40.9926 140.054 40.9335C140 40.8744 139.959 40.8046 139.933 40.7287C139.908 40.6528 139.898 40.5724 139.906 40.4927H139.91Z" fill="black"/>
</g>
<path opacity="0.1" d="M140.045 37.9199C140.009 37.8968 139.978 37.8667 139.954 37.8311C139.93 37.7956 139.914 37.7556 139.906 37.7135C139.897 37.6712 139.896 37.6276 139.904 37.5851C139.912 37.5426 139.928 37.502 139.952 37.4659C139.975 37.4297 140.006 37.3986 140.042 37.3744C140.078 37.3501 140.118 37.3332 140.16 37.3247C140.202 37.3157 140.245 37.3153 140.288 37.3235C140.33 37.3318 140.37 37.3485 140.405 37.3727C140.442 37.3954 140.474 37.4254 140.498 37.4609C140.523 37.4964 140.54 37.5366 140.549 37.5791C140.564 37.6653 140.547 37.7542 140.501 37.8287C140.452 37.8994 140.378 37.9491 140.295 37.9679H140.223C140.16 37.971 140.098 37.9542 140.045 37.9199Z" fill="white"/>
<g opacity="0.1">
<path d="M134.774 39.619C134.774 39.6959 134.797 39.7711 134.84 39.835C134.883 39.899 134.943 39.9488 135.014 39.9782C135.085 40.0077 135.164 40.0154 135.239 40.0004C135.314 39.9853 135.384 39.9483 135.438 39.8939C135.493 39.8396 135.53 39.7703 135.545 39.6949C135.56 39.6195 135.552 39.5413 135.522 39.4702C135.493 39.3992 135.443 39.3385 135.379 39.2957C135.315 39.253 135.24 39.2302 135.163 39.2302C135.06 39.2302 134.961 39.2712 134.888 39.3441C134.815 39.417 134.774 39.5159 134.774 39.619Z" fill="black"/>
<path d="M134.722 39.619C134.722 39.5305 134.748 39.444 134.797 39.3705C134.847 39.297 134.917 39.2398 134.998 39.2061C135.08 39.1725 135.17 39.1639 135.257 39.1815C135.344 39.1992 135.423 39.2422 135.485 39.3051C135.548 39.368 135.59 39.448 135.607 39.5349C135.623 39.6218 135.614 39.7117 135.579 39.7932C135.545 39.8746 135.487 39.944 135.413 39.9925C135.339 40.041 135.252 40.0663 135.163 40.0654C135.105 40.0654 135.047 40.0538 134.993 40.0313C134.939 40.0088 134.89 39.9759 134.849 39.9343C134.808 39.8928 134.776 39.8436 134.754 39.7894C134.732 39.7353 134.721 39.6774 134.722 39.619Z" fill="black"/>
<path d="M137.126 40.9678C137.126 40.8376 137.163 40.71 137.235 40.6012C137.307 40.4924 137.409 40.4074 137.529 40.3569C137.649 40.3064 137.782 40.2926 137.909 40.3175C138.037 40.3423 138.155 40.4046 138.247 40.4963C138.34 40.5881 138.403 40.7053 138.429 40.833C138.454 40.9606 138.442 41.0931 138.392 41.2136C138.342 41.334 138.258 41.437 138.15 41.5095C138.042 41.5819 137.914 41.6206 137.784 41.6206C137.611 41.6206 137.444 41.552 137.321 41.4297C137.198 41.3074 137.128 41.1414 137.126 40.9678Z" fill="black"/>
<path d="M138.72 34.8574C138.627 34.8 138.546 34.7246 138.483 34.6355C138.419 34.5465 138.374 34.4457 138.35 34.339C138.302 34.1221 138.34 33.895 138.456 33.7054C138.515 33.6109 138.591 33.5288 138.682 33.4639C138.772 33.399 138.874 33.3525 138.983 33.3271C139.091 33.3017 139.203 33.2978 139.313 33.3158C139.423 33.3338 139.528 33.3732 139.622 33.4318C139.717 33.4905 139.799 33.5671 139.864 33.6575C139.929 33.7478 139.975 33.8501 140.001 33.9584C140.026 34.0667 140.03 34.1789 140.012 34.2887C139.994 34.3985 139.955 34.5037 139.896 34.5982C139.776 34.7843 139.588 34.9167 139.373 34.9678C139.155 35.015 138.928 34.9754 138.739 34.8574H138.72Z" fill="black"/>
<path d="M135.662 35.3037C135.547 35.2051 135.475 35.0657 135.461 34.9149C135.453 34.8398 135.461 34.764 135.485 34.6922C135.508 34.6204 135.545 34.5541 135.595 34.4973C135.692 34.3823 135.829 34.3098 135.979 34.2957C136.078 34.2885 136.177 34.3066 136.267 34.3485C136.295 34.1655 136.384 33.997 136.518 33.8696C136.652 33.7422 136.825 33.6631 137.01 33.6447C137.194 33.6264 137.379 33.6698 137.536 33.7681C137.693 33.8664 137.813 34.0142 137.877 34.188C137.94 34.3619 137.945 34.552 137.889 34.7285C137.832 34.905 137.719 35.0579 137.567 35.1631C137.415 35.2684 137.231 35.3199 137.047 35.3098C136.862 35.2996 136.685 35.2282 136.545 35.1069C136.501 35.199 136.434 35.2777 136.35 35.335C136.265 35.3924 136.167 35.4263 136.065 35.4333H136.013C135.885 35.431 135.761 35.3853 135.662 35.3037Z" fill="black"/>
<path d="M133.963 35.2366C133.957 35.1621 133.965 35.0871 133.987 35.0159C134.01 34.9446 134.046 34.8785 134.094 34.8214C134.143 34.7643 134.202 34.7173 134.268 34.6831C134.335 34.6489 134.407 34.6282 134.482 34.6221C134.556 34.6158 134.631 34.6243 134.702 34.6469C134.773 34.6695 134.839 34.706 134.896 34.7541C134.953 34.8022 135 34.8611 135.034 34.9274C135.069 34.9938 135.09 35.0662 135.096 35.1405C135.102 35.2149 135.094 35.2898 135.071 35.361C135.049 35.4321 135.012 35.4981 134.964 35.5551C134.916 35.6122 134.857 35.6592 134.791 35.6935C134.724 35.7278 134.652 35.7486 134.578 35.7549H134.53C134.388 35.7544 134.251 35.7009 134.146 35.6051C134.042 35.5093 133.976 35.3779 133.963 35.2366Z" fill="black"/>
<path d="M134.918 33.8015C134.861 33.7751 134.811 33.7358 134.772 33.6866C134.733 33.6374 134.706 33.5798 134.693 33.5183C134.621 33.2159 134.865 32.8367 135.326 32.5199C135.59 32.3331 135.912 32.2478 136.233 32.2799C136.257 32.1418 136.32 32.0135 136.416 31.9112C136.511 31.8088 136.635 31.7367 136.771 31.7039C136.935 31.6466 137.111 31.6383 137.28 31.6799C137.354 31.696 137.422 31.7304 137.479 31.7798C137.536 31.8293 137.58 31.8923 137.606 31.9631C137.697 32.2367 137.462 32.5583 137.083 32.6879C136.914 32.7377 136.734 32.7377 136.565 32.6879C136.565 33.1679 136.041 33.4895 135.864 33.5855C135.639 33.7198 135.386 33.8003 135.125 33.8207C135.055 33.827 134.985 33.8205 134.918 33.8015Z" fill="black"/>
</g>
<path d="M125.899 71.9232L124.906 67.6848L125.467 67.5504L126.082 70.1712L128.611 64.7424L138.447 66.12L138.365 66.6912L128.952 65.3712L125.899 71.9232Z" fill="#62BFCC"/>
<path d="M109.44 68.8174L108.672 69.4126L110.203 70.7566L109.565 71.2366L108.029 69.8878L107.208 70.5214L109.008 72.1006L108.346 72.5806L105.792 70.339L109.344 67.6174L111.835 69.8062L111.173 70.2862L109.44 68.8174Z" fill="white"/>
<path d="M111.663 73.1136L113.904 75.0816L113.29 75.5616L111.043 73.5936L111.663 73.1136ZM112.92 72.1536L115.162 74.1216L114.543 74.6016L112.301 72.6336L112.92 72.1536Z" fill="white"/>
<path d="M120.514 80.2319C120.423 80.3382 120.32 80.4332 120.207 80.5151L118.695 81.6767L117.96 81.0335L119.4 79.9151C119.47 79.8622 119.534 79.8027 119.592 79.7375C119.644 79.6884 119.685 79.6282 119.71 79.5615C119.736 79.4947 119.747 79.4231 119.741 79.3518C119.736 79.2805 119.714 79.2113 119.678 79.1493C119.643 79.0873 119.594 79.0341 119.535 78.9935C119.362 78.8441 119.139 78.7667 118.911 78.7774C118.683 78.7881 118.468 78.8861 118.311 79.0511L116.909 80.1215L116.175 79.4783L117.615 78.3599C117.683 78.3084 117.745 78.2506 117.802 78.1871C117.854 78.1383 117.895 78.0784 117.921 78.0119C117.947 77.9454 117.958 77.8738 117.953 77.8025C117.948 77.7312 117.927 77.662 117.892 77.5998C117.856 77.5376 117.808 77.4841 117.749 77.4431C117.575 77.2905 117.349 77.2112 117.118 77.2219C116.887 77.2327 116.67 77.3326 116.511 77.5007L115.124 78.5663L114.389 77.9231L117.12 75.8303L117.816 76.4399L117.528 76.6559C117.92 76.6472 118.3 76.7899 118.589 77.0543C118.754 77.1798 118.879 77.3489 118.952 77.5424C119.025 77.7359 119.043 77.946 119.002 78.1487C119.242 78.122 119.484 78.1467 119.713 78.2212C119.943 78.2957 120.153 78.4183 120.332 78.5807C120.464 78.6681 120.575 78.7835 120.658 78.9188C120.741 79.0541 120.793 79.2059 120.81 79.3635C120.828 79.5211 120.81 79.6807 120.759 79.8307C120.708 79.9808 120.624 80.1178 120.514 80.2319Z" fill="white"/>
<path d="M120.404 81.2303C120.575 81.0252 120.787 80.8582 121.027 80.7399C121.267 80.6217 121.528 80.5548 121.795 80.5435C122.062 80.5322 122.329 80.5767 122.578 80.6743C122.827 80.7719 123.052 80.9204 123.24 81.1103C123.493 81.2927 123.685 81.5466 123.792 81.8391C123.899 82.1317 123.916 82.4496 123.84 82.7519L122.943 82.5167C122.99 82.3665 122.99 82.2053 122.943 82.0551C122.896 81.9048 122.804 81.7727 122.679 81.6767C122.573 81.5854 122.449 81.517 122.316 81.4757C122.182 81.4345 122.042 81.4214 121.903 81.4372C121.764 81.453 121.63 81.4973 121.509 81.5674C121.388 81.6376 121.283 81.7319 121.2 81.8447C121.127 81.9178 121.07 82.0061 121.034 82.1035C120.998 82.2009 120.984 82.3049 120.993 82.4083C121.002 82.5117 121.033 82.612 121.084 82.702C121.136 82.792 121.207 82.8697 121.292 82.9295C121.414 83.0404 121.564 83.1177 121.725 83.1538C121.887 83.19 122.055 83.1838 122.213 83.1359L122.458 83.9471C122.153 84.0257 121.833 84.0255 121.528 83.9466C121.224 83.8677 120.944 83.7126 120.716 83.4959C119.909 82.8095 119.804 81.9119 120.404 81.2303Z" fill="white"/>
<path d="M124.887 83.6782L125.751 84.4414L125.328 84.7678L123.687 83.3278L124.023 83.0638L125.583 83.227C125.957 83.2606 126.111 83.227 126.211 83.107C126.312 82.987 126.288 82.8094 126.077 82.627C125.991 82.5495 125.89 82.4907 125.78 82.4543C125.67 82.418 125.554 82.4049 125.439 82.4158L125.328 81.8974C125.546 81.868 125.769 81.8891 125.977 81.959C126.186 82.0289 126.376 82.1457 126.533 82.3006C127.013 82.7086 127.09 83.1886 126.797 83.5198C126.61 83.7358 126.403 83.8318 125.698 83.7646L124.887 83.6782Z" fill="white"/>
<path d="M131.654 94.9102L125.491 90.9982L138.451 84.2302L131.654 94.9102ZM126.451 91.0366L131.52 94.2478L137.083 85.4878L126.451 91.0366Z" fill="#62BFCC"/>
<path d="M131.655 94.9103L128.923 93.1775L129.043 92.976C129.37 92.4264 129.869 91.9993 130.462 91.76C131.055 91.5207 131.71 91.4825 132.327 91.6512C132.636 91.7361 132.929 91.8707 133.195 92.0496L133.387 92.184L131.655 94.9103ZM129.6 93.0288L131.52 94.248L132.744 92.328C132.576 92.2372 132.399 92.1648 132.216 92.1119C131.739 91.9824 131.233 92.0007 130.766 92.1644C130.299 92.3281 129.892 92.6294 129.6 93.0288Z" fill="#62BFCC"/>
<path d="M123.269 111.048C122.891 111.091 122.507 111.058 122.141 110.952C121.776 110.846 121.434 110.668 121.138 110.429C120.542 109.947 120.052 109.347 119.698 108.667C119.307 108.011 119.065 107.277 118.987 106.517C118.951 106.137 118.996 105.753 119.12 105.392C119.244 105.031 119.445 104.701 119.707 104.424C119.986 104.18 120.31 103.994 120.661 103.877C121.012 103.759 121.383 103.714 121.752 103.742C122.36 103.77 122.953 103.94 123.483 104.24C124.013 104.539 124.464 104.96 124.801 105.467C125.138 105.974 125.35 106.553 125.421 107.157C125.492 107.762 125.419 108.375 125.208 108.946C124.872 109.92 124.402 110.88 123.269 111.048Z" fill="#62BFCC"/>
<path d="M125.357 99.6335C126.845 99.7493 128.237 100.416 129.26 101.504C130.282 102.591 130.863 104.021 130.887 105.514C130.887 106.536 130.58 107.587 130.887 108.562C131.088 109.186 131.525 109.766 131.453 110.414C131.357 111.269 130.45 111.749 129.658 112.085C128.929 112.446 128.14 112.669 127.33 112.742C126.925 112.772 126.52 112.69 126.159 112.505C125.798 112.321 125.494 112.041 125.28 111.696C125.098 111.336 124.431 109.814 124.028 109.824C123.624 109.834 122.319 110.712 121.839 109.968C121.546 109.512 121.268 109.57 121.724 109.277C121.032 109.339 121.796 110.818 121.138 110.429C119.29 109.339 118.618 106.589 118.498 105.662C118.292 104.045 119.184 102.427 120.471 101.429C121.867 100.326 123.579 99.6968 125.357 99.6335Z" fill="#62BFCC"/>
<g opacity="0.9">
<path d="M125.357 99.6335C126.845 99.7493 128.237 100.416 129.26 101.504C130.282 102.591 130.863 104.021 130.887 105.514C130.887 106.536 130.58 107.587 130.887 108.562C131.088 109.186 131.525 109.766 131.453 110.414C131.357 111.269 130.45 111.749 129.658 112.085C128.929 112.446 128.14 112.669 127.33 112.742C126.925 112.772 126.52 112.69 126.159 112.505C125.798 112.321 125.494 112.041 125.28 111.696C125.098 111.336 124.431 109.814 124.028 109.824C123.624 109.834 122.319 110.712 121.839 109.968C121.546 109.512 121.268 109.57 121.724 109.277C121.032 109.339 121.796 110.818 121.138 110.429C119.29 109.339 118.618 106.589 118.498 105.662C118.292 104.045 119.184 102.427 120.471 101.429C121.867 100.326 123.579 99.6968 125.357 99.6335Z" fill="white"/>
</g>
<path d="M125.698 104.438C125.79 104.754 125.815 105.085 125.771 105.411C125.728 105.737 125.616 106.05 125.443 106.329C125.297 106.623 125.079 106.875 124.81 107.063C124.54 107.251 124.229 107.368 123.903 107.405C123.581 107.403 123.268 107.306 123.002 107.127C122.735 106.947 122.528 106.693 122.405 106.397C122.292 106.097 122.248 105.775 122.277 105.456C122.306 105.136 122.407 104.828 122.573 104.553C122.861 104.073 123.533 103.358 124.152 103.291C124.771 103.224 125.501 103.853 125.698 104.438Z" fill="#62BFCC"/>
<path d="M126.763 103.881C126.806 104.171 126.909 104.448 127.064 104.696C127.219 104.944 127.424 105.157 127.666 105.321C127.894 105.504 128.165 105.628 128.453 105.681C128.741 105.733 129.038 105.714 129.317 105.624C129.578 105.506 129.798 105.312 129.948 105.069C130.098 104.825 130.173 104.542 130.162 104.256C130.145 103.97 130.064 103.691 129.923 103.442C129.783 103.192 129.587 102.978 129.351 102.816C129.103 102.628 128.821 102.492 128.52 102.415C128.219 102.339 127.906 102.323 127.599 102.369C127.32 102.504 127.09 102.721 126.94 102.992C126.79 103.263 126.729 103.574 126.763 103.881Z" fill="#62BFCC"/>
<path d="M128.04 106.306C128.224 106.382 128.378 106.517 128.477 106.69C128.499 106.761 128.506 106.837 128.497 106.912C128.488 106.987 128.464 107.059 128.425 107.123C128.387 107.188 128.335 107.244 128.274 107.288C128.212 107.331 128.143 107.361 128.069 107.376C127.918 107.397 127.764 107.375 127.626 107.312C127.487 107.249 127.37 107.148 127.286 107.021C127.286 107.223 127.207 107.418 127.066 107.563C126.995 107.635 126.902 107.68 126.802 107.69C126.702 107.701 126.602 107.676 126.518 107.621C126.459 107.565 126.415 107.496 126.389 107.419C126.364 107.341 126.359 107.259 126.374 107.179C126.413 107.021 126.478 106.87 126.566 106.733C126.677 106.536 126.922 105.878 127.147 105.835C127.373 105.792 127.862 106.21 128.04 106.306Z" fill="#62BFCC"/>
<path d="M130.301 108.408C130.301 108.566 130.459 108.792 130.435 108.95C130.249 109.112 130.044 109.252 129.826 109.368C128.606 109.938 127.328 110.372 126.015 110.664C125.853 110.262 125.549 109.934 125.16 109.742C125.373 109.733 125.583 109.795 125.757 109.919C125.931 110.042 126.059 110.22 126.12 110.424C127.565 110.132 128.955 109.614 130.239 108.888C130.186 108.6 130.042 108.082 130.512 108.005C130.498 108 130.378 108 130.301 108.408Z" fill="#62BFCC"/>
<path d="M126.528 59.3807L124.565 58.7759L124.243 57.8975L127.291 58.8383L126.528 59.3807Z" fill="#F0F0F0"/>
<path d="M132.091 52.032C131.916 52.5935 131.625 53.1119 131.236 53.5535C130.847 53.9951 130.37 54.35 129.835 54.5952C129.479 54.7498 129.16 54.9788 128.899 55.2669C128.638 55.555 128.442 55.8955 128.323 56.2656L128.227 56.568L124.743 55.4976L124.839 55.1904C124.948 54.8178 124.977 54.4262 124.924 54.0415C124.871 53.6568 124.737 53.2877 124.531 52.9584C124.08 52.2181 123.871 51.3556 123.932 50.4908C123.993 49.6259 124.322 48.8016 124.872 48.132C125.423 47.4625 126.169 46.981 127.006 46.7543C127.843 46.5277 128.729 46.5671 129.543 46.8672C130.544 47.2431 131.365 47.9862 131.839 48.9455C132.312 49.9048 132.402 51.0084 132.091 52.032Z" fill="#62BFCC"/>
<path opacity="0.9" d="M132.091 52.032C131.916 52.5935 131.625 53.1119 131.236 53.5535C130.847 53.9951 130.37 54.35 129.835 54.5952C129.479 54.7498 129.16 54.9788 128.899 55.2669C128.638 55.555 128.442 55.8955 128.323 56.2656L128.227 56.568L124.743 55.4976L124.839 55.1904C124.948 54.8178 124.977 54.4262 124.924 54.0415C124.871 53.6568 124.737 53.2877 124.531 52.9584C124.08 52.2181 123.871 51.3556 123.932 50.4908C123.993 49.6259 124.322 48.8016 124.872 48.132C125.423 47.4625 126.169 46.981 127.006 46.7543C127.843 46.5277 128.729 46.5671 129.543 46.8672C130.544 47.2431 131.365 47.9862 131.839 48.9455C132.312 49.9048 132.402 51.0084 132.091 52.032Z" fill="white"/>
<path d="M126.135 51.3369L125.707 55.7031L125.955 55.7275L126.383 51.3612L126.135 51.3369Z" fill="#62BFCC"/>
<path d="M129.203 52.2332L127.101 56.084L127.32 56.2036L129.422 52.3528L129.203 52.2332Z" fill="#62BFCC"/>
<path d="M127.719 53.7552L127.503 52.7328L126.749 53.4576L126.164 52.1328L126.394 52.032L126.836 53.0256L127.656 52.2336L127.892 53.352L128.813 52.776L128.948 52.992L127.719 53.7552Z" fill="#62BFCC"/>
<path d="M128.261 56.4624L127.598 58.6176L124.109 57.5568L124.771 55.4016L128.261 56.4624Z" fill="#62BFCC"/>
<path d="M124.107 57.5801L124.035 57.8191L127.527 58.8735L127.599 58.6345L124.107 57.5801Z" fill="#62BFCC"/>
<path d="M125.084 55.0104L125.012 55.25L128.514 56.3079L128.586 56.0683L125.084 55.0104Z" fill="#62BFCC"/>
<g opacity="0.2">
<path d="M125.084 55.0101L125.012 55.2498L128.514 56.3077L128.586 56.0681L125.084 55.0101Z" fill="black"/>
</g>
<g opacity="0.2">
<path d="M124.107 57.5801L124.035 57.8191L127.527 58.8735L127.599 58.6345L124.107 57.5801Z" fill="black"/>
</g>
<path d="M54.6243 185.77H78.1011V179.933H54.6243V185.77Z" fill="#62BFCC"/>
<path opacity="0.6" d="M54.7009 185.798H78.1777V179.962H54.7009V185.798Z" fill="white"/>
<path opacity="0.6" d="M54.6239 185.798H72.6431V179.962H54.6239V185.798Z" fill="white"/>
<path d="M54.7439 185.03L78.1055 185.755L78.0767 185.165L54.7295 184.858L54.7439 185.03Z" fill="#62BFCC"/>
<path d="M78.1058 182.333L54.7778 181.018V181.214L78.1058 182.774V182.333Z" fill="#62BFCC"/>
<path d="M78.1058 180.566L54.7778 181.104V181.291L78.1058 181.013V180.566Z" fill="#62BFCC"/>
<path d="M78.1678 183.475L54.8398 184.613V184.44L78.1678 183.086V183.475Z" fill="#62BFCC"/>
<path d="M54.6865 180.01L78.0097 180.029V180.221H54.6865V180.01Z" fill="#62BFCC"/>
<path d="M56.3137 168.384H79.7905V162.547H56.3137V168.384Z" fill="#62BFCC"/>
<path opacity="0.6" d="M56.3855 168.413H79.8623V162.576H56.3855V168.413Z" fill="white"/>
<path opacity="0.6" d="M56.3138 168.413H74.333V162.576H56.3138V168.413Z" fill="white"/>
<path d="M56.4242 167.645L79.7858 168.37L79.7617 167.779L56.4146 167.472L56.4242 167.645Z" fill="#62BFCC"/>
<path d="M79.7856 164.947L56.4624 163.632V163.829L79.7856 165.389V164.947Z" fill="#62BFCC"/>
<path d="M79.7856 163.181L56.4624 163.719V163.911L79.7856 163.627V163.181Z" fill="#62BFCC"/>
<path d="M79.8529 166.089L56.5249 167.227V167.059L79.8529 165.701V166.089Z" fill="#62BFCC"/>
<path d="M56.0159 179.851H79.4927V174.015H56.0159V179.851Z" fill="#62BFCC"/>
<path opacity="0.6" d="M56.093 179.88H79.5698V174.043H56.093V179.88Z" fill="white"/>
<path opacity="0.6" d="M74.0881 174.043H56.0688V179.88H74.0881V174.043Z" fill="white"/>
<path d="M79.397 178.939L56.045 179.246L56.021 179.837L79.3826 179.112L79.397 178.939Z" fill="#62BFCC"/>
<path d="M56.1694 174.091L79.4974 174.115V174.307H56.1694V174.091Z" fill="#62BFCC"/>
<path d="M56.021 176.856L79.3442 175.296V175.099L56.021 176.414V176.856Z" fill="#62BFCC"/>
<path d="M79.4974 174.648L56.1694 175.186V175.378L79.4974 175.094V174.648Z" fill="#62BFCC"/>
<path d="M79.5599 177.562L56.2319 178.694V178.526L79.5599 177.173V177.562Z" fill="#62BFCC"/>
<path d="M78.6815 168.514L55.2143 168.634L55.1807 174.35H78.6815V168.514Z" fill="#62BFCC"/>
<path opacity="0.6" d="M55.2097 174.35H78.6865V168.514H55.2097V174.35Z" fill="white"/>
<path opacity="0.6" d="M73.1999 168.514H55.1807V174.35H73.1999V168.514Z" fill="white"/>
<path d="M73.9056 168.634H55.2144V169.229H73.5072L73.9056 168.634Z" fill="#62BFCC"/>
<path d="M78.5472 171.024L55.2144 171.24V171.413H78.5472V171.024Z" fill="#62BFCC"/>
<path d="M55.2144 173.726L78.5472 172.589V172.762L55.2144 174.115V173.726Z" fill="#62BFCC"/>
<path d="M55.2144 171.528L78.5472 171.994V172.162L55.2144 171.917V171.528Z" fill="#62BFCC"/>
<path d="M84.6766 155.818H61.3486V158.755H84.6766V155.818Z" fill="#62BFCC"/>
<path opacity="0.6" d="M84.6766 155.818H61.3486V158.755H84.6766V155.818Z" fill="white"/>
<path opacity="0.6" d="M79.939 155.818H61.3486V158.755H79.939V155.818Z" fill="white"/>
<path d="M84.6913 157.901L61.3633 158.016V158.102H84.6913V157.901Z" fill="#62BFCC"/>
<path d="M61.3633 156.802L84.6913 156.211V156.298L61.3633 157.003V156.802Z" fill="#62BFCC"/>
<path d="M61.2866 156.643L84.6146 156.883V156.97L61.2866 156.845V156.643Z" fill="#62BFCC"/>
<path d="M81.413 154.521H58.085V155.937H81.413V154.521Z" fill="#62BFCC"/>
<path opacity="0.6" d="M81.413 154.536H58.085V155.942H81.413V154.536Z" fill="white"/>
<path opacity="0.6" d="M76.6754 154.445H58.085V155.938H76.6754V154.445Z" fill="white"/>
<path d="M58.0991 155.602L81.4223 155.006V155.098L58.0991 155.803V155.602Z" fill="#62BFCC"/>
<path d="M58.0991 154.891L81.4223 155.131V155.222L58.0991 155.093V154.891Z" fill="#62BFCC"/>
<path d="M83.5873 153.077H60.2593V154.493H83.5873V153.077Z" fill="#62BFCC"/>
<path opacity="0.6" d="M83.5873 153.086H60.2593V154.493H83.5873V153.086Z" fill="white"/>
<path opacity="0.6" d="M78.8497 153H60.2593V154.493H78.8497V153Z" fill="white"/>
<path d="M60.2738 153.715L83.6066 153.998L83.6018 154.089L60.2642 153.917L60.2738 153.715Z" fill="#62BFCC"/>
<path d="M60.269 153.446L83.597 153.681V153.773L60.269 153.643V153.446Z" fill="#62BFCC"/>
<path d="M83.0975 158.755H59.7695V162.542H83.0975V158.755Z" fill="#62BFCC"/>
<path opacity="0.6" d="M83.0975 158.755H59.7695V162.542H83.0975V158.755Z" fill="white"/>
<path opacity="0.6" d="M77.7695 158.755H59.7695V162.542H77.7695V158.755Z" fill="white"/>
<path d="M82.9487 159.931L59.6255 159.802V159.696H82.9487V159.931Z" fill="#62BFCC"/>
<path d="M59.7842 160.483L83.1122 161.165V161.064L59.7842 160.253V160.483Z" fill="#62BFCC"/>
<path d="M83.1121 158.76H61.1089L61.5937 159.226H83.1121V158.76Z" fill="#62BFCC"/>
<path d="M59.8657 161.957L83.1889 161.674V161.578L59.8657 161.722V161.957Z" fill="#62BFCC"/>
<path d="M120.893 146.64C120.936 148.238 120.893 149.731 120.816 151.272C120.739 152.813 120.633 154.334 120.485 155.87C120.196 159.005 119.631 162.109 118.795 165.144L118.411 166.325L118.315 166.617L118.291 166.694L118.253 166.805L118.133 167.122C117.979 167.488 117.783 167.834 117.547 168.153C117.173 168.672 116.716 169.124 116.193 169.493C115.774 169.8 115.327 170.068 114.859 170.294C113.303 171.023 111.651 171.527 109.953 171.792C106.872 172.297 103.744 172.458 100.627 172.272L100.464 169.209L102.59 168.773C103.305 168.629 104.03 168.451 104.712 168.293C106.118 167.957 107.505 167.597 108.821 167.165C110.038 166.802 111.208 166.294 112.305 165.653C112.601 165.495 112.852 165.266 113.035 164.985C113.035 164.909 112.915 165.23 113.035 164.726L113.27 163.766C113.817 161.002 114.173 158.203 114.336 155.39C114.441 153.95 114.509 152.51 114.576 151.07C114.643 149.63 114.662 148.147 114.681 146.75L120.893 146.64Z" fill="#FFC3BD"/>
<path d="M101.76 169.382L98.4 166.958L97.3872 172.07C97.3872 172.07 100.699 173.51 101.65 171.83L101.76 169.382Z" fill="#FFC3BD"/>
<path d="M94.9919 167.069L94.3535 171.336L97.3871 172.07L98.3951 166.958L94.9919 167.069Z" fill="#FFC3BD"/>
<path d="M123.326 142.373C124.061 146.213 121.075 155.232 121.075 155.232L111.36 154.008C112.853 150.59 113.385 145.656 115.267 142.43C117.009 139.536 122.525 138.206 123.326 142.373Z" fill="#62BFCC"/>
<path opacity="0.5" d="M123.326 142.373C124.061 146.213 121.075 155.232 121.075 155.232L111.36 154.008C112.853 150.59 113.385 145.656 115.267 142.43C117.009 139.536 122.525 138.206 123.326 142.373Z" fill="black"/>
<path d="M137.208 139.618C137.511 139.657 137.804 139.756 138.069 139.909C138.334 140.062 138.566 140.265 138.752 140.507C138.939 140.75 139.075 141.027 139.155 141.322C139.234 141.617 139.254 141.926 139.214 142.229C139.214 142.253 139.214 142.272 139.214 142.291C138.659 146.038 138.324 149.814 138.211 153.6C138.11 156.782 138.149 159.806 138.254 162.542C138.485 168.955 139.061 173.808 139.022 175.478L117.6 177.269C113.851 160.219 115.075 147.605 116.126 143.006C116.289 142.29 116.65 141.635 117.169 141.116C117.688 140.597 118.343 140.236 119.059 140.074C119.88 139.891 120.864 139.694 121.91 139.541C122.275 139.507 122.65 139.44 123.024 139.397C126.11 139.149 129.208 139.078 132.302 139.186C132.888 139.186 133.478 139.238 134.059 139.277C135.187 139.373 136.291 139.498 137.208 139.618Z" fill="#62BFCC"/>
<path opacity="0.5" d="M137.208 139.618C137.511 139.657 137.804 139.756 138.069 139.909C138.334 140.062 138.566 140.265 138.752 140.507C138.939 140.75 139.075 141.027 139.155 141.322C139.234 141.617 139.254 141.926 139.214 142.229C139.214 142.253 139.214 142.272 139.214 142.291C138.659 146.038 138.324 149.814 138.211 153.6C138.11 156.782 138.149 159.806 138.254 162.542C138.485 168.955 139.061 173.808 139.022 175.478L117.6 177.269C113.851 160.219 115.075 147.605 116.126 143.006C116.289 142.29 116.65 141.635 117.169 141.116C117.688 140.597 118.343 140.236 119.059 140.074C119.88 139.891 120.864 139.694 121.91 139.541C122.275 139.507 122.65 139.44 123.024 139.397C126.11 139.149 129.208 139.078 132.302 139.186C132.888 139.186 133.478 139.238 134.059 139.277C135.187 139.373 136.291 139.498 137.208 139.618Z" fill="black"/>
<path d="M131.16 128.784C130.632 131.774 130.152 137.251 132.278 139.2C127.56 143.04 124.781 148.075 123.763 147.125C123.226 146.645 122.458 140.366 123.01 139.382C126.322 138.523 126.187 136.061 125.563 133.752L131.16 128.784Z" fill="#FFC3BD"/>
<path opacity="0.2" d="M128.885 130.81L125.573 133.747C125.728 134.284 125.834 134.833 125.89 135.389C127.162 135.182 128.88 133.752 128.986 132.413C129.048 131.877 129.014 131.334 128.885 130.81Z" fill="black"/>
<path d="M120 121.248C118.027 121.507 117.24 125.021 119.52 127.675C121.8 130.329 122.649 120.897 120 121.248Z" fill="#263238"/>
<path d="M130.032 123.36C130.622 127.363 131.174 129.677 129.614 132.125C127.257 135.811 121.992 135.043 120.206 131.294C118.608 127.934 117.897 121.944 121.44 119.554C122.217 119.022 123.117 118.698 124.054 118.612C124.992 118.526 125.936 118.681 126.796 119.063C127.657 119.444 128.406 120.039 128.972 120.791C129.539 121.543 129.903 122.427 130.032 123.36Z" fill="#FFC3BD"/>
<path d="M126.283 123.979C126.413 124.38 126.655 124.734 126.981 125.001C127.307 125.267 127.703 125.434 128.121 125.482C128.576 126.335 128.681 127.331 128.414 128.261L129.893 128.453C129.882 127.859 130.099 127.283 130.499 126.843C130.898 126.403 131.451 126.133 132.043 126.086C131.64 127.686 131.16 129.272 130.603 130.843C132.203 129.503 133.434 127.777 134.179 125.827C134.565 124.896 134.746 123.892 134.712 122.885C134.665 121.868 134.216 120.912 133.464 120.226C132.935 119.836 132.321 119.578 131.672 119.472C131.024 119.366 130.36 119.415 129.734 119.616C127.507 120.23 125.28 121.387 126.283 123.979Z" fill="#263238"/>
<path d="M132.768 126.509C132.685 127.522 132.203 128.461 131.429 129.12C130.397 129.989 129.326 129.201 129.149 127.934C128.985 126.797 129.331 124.973 130.589 124.574C131.846 124.176 132.854 125.28 132.768 126.509Z" fill="#FFC3BD"/>
<path d="M124.272 125.76C124.339 126.081 124.224 126.384 124.013 126.427C123.801 126.47 123.576 126.245 123.504 125.923C123.432 125.601 123.552 125.304 123.763 125.261C123.974 125.217 124.205 125.433 124.272 125.76Z" fill="#263238"/>
<path d="M120.643 126.523C120.71 126.845 120.595 127.142 120.384 127.19C120.173 127.238 119.947 127.008 119.88 126.686C119.813 126.365 119.928 126.067 120.134 126.024C120.341 125.981 120.566 126.202 120.643 126.523Z" fill="#263238"/>
<path d="M121.824 126.442C121.645 127.506 121.322 128.541 120.864 129.518C121.117 129.627 121.391 129.68 121.667 129.674C121.943 129.667 122.214 129.601 122.462 129.48L121.824 126.442Z" fill="#ED847E"/>
<path d="M125.151 124.32C125.118 124.335 125.083 124.34 125.048 124.335C125.013 124.33 124.98 124.314 124.954 124.291C124.774 124.127 124.558 124.008 124.324 123.944C124.089 123.88 123.843 123.872 123.605 123.922C123.561 123.94 123.512 123.941 123.467 123.926C123.422 123.911 123.384 123.881 123.36 123.84V123.802C123.353 123.778 123.35 123.753 123.352 123.728C123.355 123.704 123.362 123.68 123.373 123.658C123.385 123.636 123.401 123.617 123.42 123.601C123.439 123.585 123.461 123.573 123.485 123.566C123.784 123.501 124.094 123.508 124.389 123.586C124.685 123.665 124.957 123.812 125.184 124.018C125.223 124.05 125.248 124.096 125.254 124.146C125.259 124.196 125.245 124.247 125.213 124.286C125.194 124.301 125.173 124.312 125.151 124.32Z" fill="#263238"/>
<path d="M124.291 130.627C124.746 130.487 125.161 130.239 125.5 129.905C125.839 129.571 126.093 129.16 126.24 128.707C126.244 128.694 126.245 128.681 126.243 128.667C126.241 128.654 126.237 128.641 126.23 128.629C126.223 128.618 126.215 128.608 126.204 128.6C126.193 128.591 126.181 128.586 126.168 128.582C126.141 128.576 126.113 128.58 126.089 128.593C126.065 128.607 126.047 128.628 126.038 128.654C125.898 129.07 125.661 129.448 125.347 129.755C125.034 130.063 124.652 130.293 124.234 130.425C124.21 130.435 124.19 130.454 124.179 130.477C124.168 130.5 124.166 130.527 124.173 130.552C124.18 130.577 124.196 130.598 124.218 130.612C124.24 130.626 124.266 130.631 124.291 130.627Z" fill="#263238"/>
<path d="M118.805 125.601C118.787 125.61 118.767 125.614 118.747 125.614C118.727 125.614 118.708 125.61 118.689 125.601C118.665 125.596 118.642 125.585 118.621 125.571C118.601 125.556 118.583 125.538 118.57 125.516C118.556 125.495 118.547 125.471 118.543 125.446C118.539 125.421 118.54 125.396 118.545 125.371C118.612 125.071 118.75 124.792 118.947 124.556C119.144 124.321 119.395 124.136 119.678 124.017C119.726 124 119.779 124.003 119.824 124.025C119.87 124.046 119.906 124.085 119.923 124.133C119.939 124.179 119.936 124.23 119.916 124.275C119.895 124.319 119.858 124.354 119.813 124.373C119.592 124.468 119.397 124.613 119.242 124.797C119.088 124.982 118.979 125.2 118.925 125.433C118.925 125.471 118.914 125.507 118.893 125.537C118.871 125.568 118.84 125.59 118.805 125.601Z" fill="#263238"/>
<path d="M93.4653 155.275L98.4573 171.36C98.4573 171.36 103.392 169.805 105.552 171.154C106.889 172.003 108.134 172.989 109.267 174.096L105.821 156.59C105.821 156.59 101.237 151.2 93.4653 155.275Z" fill="#62BFCC"/>
<path d="M105.821 156.595L109.267 174.101C109.267 174.101 114.624 168.307 119.534 170.741L121.2 171.6L119.184 154.08C119.184 154.08 112.8 150.845 105.821 156.595Z" fill="#62BFCC"/>
<path opacity="0.8" d="M105.821 156.595L109.267 174.101C109.267 174.101 114.624 168.307 119.534 170.741L121.2 171.6L119.184 154.08C119.184 154.08 112.8 150.845 105.821 156.595Z" fill="white"/>
<path opacity="0.8" d="M93.4653 155.275L98.4573 171.36C98.4573 171.36 103.392 169.805 105.552 171.154C106.889 172.003 108.134 172.989 109.267 174.096L105.821 156.59C105.821 156.59 101.237 151.2 93.4653 155.275Z" fill="white"/>
<path d="M109.258 173.928C105.091 172.579 101.035 171.163 97.7087 174.12C96.4751 169.363 94.6415 164.827 93.2543 160.118C92.1407 156.341 92.1359 157.003 94.1279 155.904C95.8511 154.944 103.901 154.09 105.605 158.506C106.224 160.118 108.96 173.554 109.258 173.928Z" fill="#263238"/>
<path d="M122.453 173.194C119.991 171.038 116.117 171.154 113.559 173.194C112.464 174.058 110.938 174.662 110.943 174.552L107.386 158.194L107.242 158.299C107.971 155.832 111.754 154.632 114.149 154.555C116.278 154.601 118.347 155.269 120.101 156.475C120.101 156.475 121.92 168.451 122.453 173.194Z" fill="#263238"/>
<path d="M110.943 174.552C110.943 174.552 109.503 174.998 108.941 173.822L105.432 158.088C105.432 158.088 106.023 159.12 107.237 158.275L107.381 158.169L110.938 174.528C110.94 174.536 110.942 174.544 110.943 174.552Z" fill="#263238"/>
<path opacity="0.1" d="M110.943 174.552C110.943 174.552 109.503 174.998 108.941 173.822L105.432 158.088C105.432 158.088 106.023 159.12 107.237 158.275L107.381 158.169L110.938 174.528C110.94 174.536 110.942 174.544 110.943 174.552Z" fill="white"/>
<path opacity="0.1" d="M136.142 141.778C134.342 141.514 133.598 142.157 132.35 144.614C131.198 146.885 130.565 153.427 130.565 153.427C130.344 157.008 129.888 156.605 133.277 156.864C135.446 157.032 138.192 157.488 138.192 157.488C138.192 157.488 141.523 142.56 136.142 141.778Z" fill="black"/>
<path d="M141.154 145.166C141.192 146.765 141.154 148.257 141.077 149.803C141 151.349 140.895 152.861 140.741 154.397C140.452 157.534 139.888 160.641 139.056 163.68L138.667 164.856L138.571 165.153V165.225L138.528 165.341L138.413 165.653C138.26 166.02 138.063 166.368 137.827 166.689C137.449 167.204 136.993 167.656 136.474 168.029C136.053 168.336 135.604 168.604 135.135 168.83C133.577 169.556 131.926 170.06 130.229 170.328C127.148 170.833 124.02 170.994 120.903 170.808L120.744 167.75L122.871 167.313C123.581 167.165 124.311 166.987 124.992 166.833C126.394 166.497 127.781 166.137 129.101 165.701C130.318 165.338 131.488 164.832 132.586 164.193C132.881 164.034 133.132 163.803 133.315 163.521C133.315 163.449 133.195 163.771 133.315 163.267L133.555 162.307C134.1 159.542 134.456 156.744 134.621 153.931C134.727 152.491 134.794 151.051 134.861 149.611C134.928 148.171 134.947 146.693 134.967 145.291L141.154 145.166Z" fill="#FFC3BD"/>
<path d="M122.011 167.914L118.651 165.49L117.633 170.597C117.633 170.597 120.95 172.037 121.901 170.357L122.011 167.914Z" fill="#FFC3BD"/>
<path d="M115.253 165.595L114.614 169.862L117.643 170.597L118.656 165.49L115.253 165.595Z" fill="#FFC3BD"/>
<path d="M141.249 142.195C143.534 145.349 142.781 155.986 142.781 155.986L132.177 154.968C132.177 154.968 131.078 149.016 132.657 144.23C134.361 139.037 138.48 138.365 141.249 142.195Z" fill="#62BFCC"/>
<path opacity="0.5" d="M141.249 142.195C143.534 145.349 142.781 155.986 142.781 155.986L132.177 154.968C132.177 154.968 131.078 149.016 132.657 144.23C134.361 139.037 138.48 138.365 141.249 142.195Z" fill="black"/>
<path d="M118.305 122.654C117.888 122.114 117.513 121.543 117.182 120.946C118.579 121.224 118.723 120.504 119.294 118.546C119.947 116.333 122.453 114.912 123.782 114.706C133.008 113.213 133.531 118.45 133.622 119.304C133.628 119.619 133.54 119.929 133.369 120.194C133.198 120.459 132.952 120.667 132.662 120.792C132.077 121.027 131.45 121.141 130.819 121.128C129.48 121.186 127.488 121.656 126.197 121.32C120.96 119.947 118.944 122.726 118.305 122.654Z" fill="#263238"/>
<path d="M111.346 191.357L117.6 194.621L120.605 196.19L119.309 199.536L116.338 198.456L109.085 195.816L111.346 191.357Z" fill="#FFC3BD"/>
<path opacity="0.2" d="M111.346 191.357L117.6 194.621L116.338 198.456L109.085 195.816L111.346 191.357Z" fill="black"/>
<path d="M100.795 200.237L94.0849 202.416L90.8641 203.467L89.3809 200.198L92.2321 198.835L99.1921 195.499L100.795 200.237Z" fill="#FFC3BD"/>
<path opacity="0.2" d="M100.795 200.237L94.0847 202.416L92.2319 198.835L99.1919 195.499L100.795 200.237Z" fill="black"/>
<path d="M141.36 181.685C141.241 181.359 141.067 181.055 140.847 180.787C138.663 178.185 130.647 178.238 125.775 178.752C123.557 178.982 120.667 180.101 117.538 181.685C117.083 180.982 116.48 180.388 115.771 179.942C111.715 177.576 106.171 176.717 100.743 176.793C108.648 176.539 117.576 177.273 117.576 177.273L138.893 175.507C140.115 177.383 140.954 179.483 141.36 181.685Z" fill="#62BFCC"/>
<path opacity="0.1" d="M141.36 181.685C141.241 181.359 141.067 181.055 140.847 180.787C138.663 178.185 130.647 178.238 125.775 178.752C123.557 178.982 120.667 180.101 117.538 181.685C117.083 180.982 116.48 180.388 115.771 179.942C111.715 177.576 106.171 176.717 100.743 176.793C108.648 176.539 117.576 177.273 117.576 177.273L138.893 175.507C140.115 177.383 140.954 179.483 141.36 181.685Z" fill="black"/>
<path d="M118.714 190.56C117.533 192.422 115.325 193.44 113.136 193.704C110.947 193.968 108.734 193.584 106.56 193.195L100.891 192.197L91.6512 190.56C89.9136 190.248 88.1328 189.926 86.5872 189.067C81.6096 186.302 80.6016 183.187 83.184 180.907C84.0476 180.184 85.0369 179.626 86.1024 179.261L86.2272 179.208C89.1926 178.173 92.2645 177.472 95.3856 177.12H95.496C97.2372 176.908 98.9885 176.79 100.742 176.765C106.186 176.688 111.715 177.547 115.771 179.913C116.48 180.359 117.082 180.954 117.538 181.656C119.29 184.243 120.082 188.419 118.714 190.56Z" fill="#62BFCC"/>
<path opacity="0.1" d="M118.714 190.56C117.533 192.422 115.325 193.44 113.136 193.704C110.947 193.968 108.734 193.584 106.56 193.195L100.891 192.197L91.6512 190.56C89.9136 190.248 88.1328 189.926 86.5872 189.067C81.6096 186.302 80.6016 183.187 83.184 180.907C84.0476 180.184 85.0369 179.626 86.1024 179.261L86.2272 179.208C89.1926 178.173 92.2645 177.472 95.3856 177.12H95.496C97.2372 176.908 98.9885 176.79 100.742 176.765C106.186 176.688 111.715 177.547 115.771 179.913C116.48 180.359 117.082 180.954 117.538 181.656C119.29 184.243 120.082 188.419 118.714 190.56Z" fill="black"/>
<path d="M84.6529 180C84.6529 180 79.3057 182.688 80.4961 188.001C80.4961 188.001 81.3601 191.39 91.4545 193.401C101.549 195.413 114.351 197.721 114.351 197.721L115.642 193.593C115.642 193.593 102.365 182.126 92.3185 179.673C89.7865 179.029 87.1211 179.143 84.6529 180Z" fill="#62BFCC"/>
<path d="M114.912 199.339L111.658 199.277L114.504 191.27L117.077 192.777L114.912 199.339Z" fill="#62BFCC"/>
<g opacity="0.6">
<path d="M114.912 199.339L111.658 199.277L114.504 191.27L117.077 192.777L114.912 199.339Z" fill="white"/>
</g>
<path d="M118.796 194.4C118.858 194.674 128.52 197.28 132.12 195.998C143.386 192 116.16 182.909 118.796 194.4Z" fill="#62BFCC"/>
<path opacity="0.1" d="M118.796 194.4C118.858 194.674 128.52 197.28 132.12 195.998C143.386 192 116.16 182.909 118.796 194.4Z" fill="black"/>
<path d="M140.995 188.189C140.742 188.986 140.421 189.76 140.035 190.502C139.963 190.627 139.901 190.757 139.829 190.877C139.653 191.192 139.461 191.498 139.253 191.794L139.214 191.856C139.118 191.99 139.027 192.115 138.926 192.245C136.046 195.955 128.51 197.414 126.725 195.014C125.979 193.89 125.414 192.656 125.05 191.357C118.971 194.502 112.655 197.167 106.162 199.33C102.802 200.443 99.2544 201.499 95.6544 202.363L93.48 197.798L94.3392 197.126C95.5392 196.166 97.92 194.352 100.906 192.202C105.677 188.755 112.003 184.483 117.552 181.67C120.682 180.086 123.571 178.968 125.789 178.738C130.661 178.224 138.677 178.171 140.861 180.773C141.081 181.041 141.255 181.345 141.374 181.67C141.994 183.302 141.778 185.818 140.995 188.189Z" fill="#62BFCC"/>
<path d="M93.0674 196.949L95.4914 194.774L98.8658 202.57L95.9522 203.222L93.0674 196.949Z" fill="#62BFCC"/>
<g opacity="0.6">
<path d="M93.0674 196.949L95.4914 194.774L98.8658 202.57L95.9522 203.222L93.0674 196.949Z" fill="white"/>
</g>
<path d="M114.975 202.176C115.061 202.24 115.16 202.284 115.265 202.308C115.37 202.331 115.479 202.332 115.584 202.31C115.69 202.278 115.792 202.238 115.892 202.19C116.16 202.071 116.395 201.886 116.573 201.653L116.736 201.451C116.973 201.149 117.185 200.828 117.37 200.491C117.379 200.473 117.38 200.451 117.374 200.432C117.368 200.412 117.354 200.396 117.336 200.386C117.316 200.373 117.293 200.366 117.269 200.366C117.245 200.366 117.222 200.373 117.202 200.386C117.154 200.386 117.039 200.453 116.88 200.52L116.808 200.549L116.328 200.76C115.671 201.082 114.888 201.533 114.816 201.883C114.812 201.942 114.824 202.001 114.852 202.053C114.881 202.105 114.923 202.148 114.975 202.176ZM115.071 201.917C115.085 201.853 115.119 201.794 115.167 201.749C115.63 201.374 116.142 201.064 116.688 200.827L116.818 200.77L117 200.698C116.924 200.822 116.847 200.938 116.77 201.048C116.605 201.291 116.415 201.516 116.204 201.72C116.027 201.914 115.799 202.054 115.546 202.123C115.475 202.141 115.401 202.141 115.329 202.126C115.257 202.11 115.19 202.078 115.133 202.032C115.112 202.021 115.095 202.005 115.084 201.984C115.073 201.964 115.068 201.94 115.071 201.917Z" fill="#62BFCC"/>
<path d="M114.182 200.27C114.403 200.621 115.57 200.784 116.338 200.75C116.469 200.749 116.601 200.74 116.731 200.722C116.747 200.725 116.763 200.725 116.779 200.722C116.779 200.722 116.813 200.693 116.818 200.674C116.828 200.66 116.833 200.643 116.833 200.626C116.833 200.608 116.828 200.591 116.818 200.578C116.324 200.108 115.703 199.794 115.032 199.675C114.797 199.657 114.562 199.721 114.37 199.858C114.091 200.016 114.115 200.16 114.182 200.27ZM114.398 200.184C114.398 200.184 114.341 200.098 114.509 199.978L114.566 199.939C114.699 199.865 114.852 199.833 115.003 199.848C115.55 199.948 116.06 200.195 116.477 200.563C115.747 200.64 114.562 200.438 114.398 200.184Z" fill="#62BFCC"/>
<path d="M117.226 198.989L120.432 195.653C120.5 195.585 120.587 195.539 120.681 195.521C120.775 195.503 120.872 195.514 120.96 195.552L125.035 197.309C125.123 197.339 125.202 197.389 125.267 197.455C125.332 197.521 125.38 197.601 125.409 197.689C125.438 197.776 125.446 197.87 125.433 197.961C125.42 198.053 125.385 198.14 125.333 198.216L125.285 198.274C121.008 204.178 118.565 205.814 117.975 206.405C116.247 208.094 114.821 206.779 115.195 206.107C116.885 203.093 116.89 201.998 116.77 200.563C116.766 200.005 116.925 199.458 117.226 198.989Z" fill="#263238"/>
<path d="M86.9138 196.378C86.8277 196.443 86.7558 196.525 86.7022 196.619C86.6486 196.713 86.6144 196.817 86.6018 196.925C86.6001 197.034 86.6081 197.143 86.6258 197.251C86.657 197.545 86.7627 197.826 86.933 198.067C86.9762 198.139 87.0242 198.206 87.077 198.278C87.2889 198.596 87.5282 198.895 87.7922 199.171C87.7994 199.179 87.8079 199.184 87.8174 199.188C87.8269 199.193 87.8371 199.195 87.8474 199.195C87.8577 199.195 87.8679 199.193 87.8774 199.188C87.8869 199.184 87.8954 199.179 87.9026 199.171C87.9216 199.156 87.9361 199.136 87.9445 199.113C87.953 199.09 87.9551 199.066 87.9506 199.042C87.9506 198.994 87.9506 198.869 87.917 198.696C87.917 198.696 87.917 198.643 87.917 198.614C87.917 198.47 87.8834 198.298 87.8546 198.134C87.749 197.41 87.5618 196.512 87.245 196.354C87.193 196.327 87.1345 196.314 87.076 196.319C87.0175 196.323 86.9614 196.343 86.9138 196.378ZM87.1346 196.55C87.1918 196.584 87.2371 196.634 87.2642 196.694C87.4835 197.25 87.6241 197.833 87.6818 198.427C87.6867 198.472 87.6867 198.517 87.6818 198.562C87.6818 198.629 87.6818 198.691 87.6818 198.758C87.581 198.653 87.4946 198.538 87.413 198.437C87.2303 198.204 87.0696 197.955 86.933 197.693C86.8039 197.465 86.7407 197.206 86.7506 196.944C86.7567 196.871 86.7788 196.8 86.8153 196.736C86.8517 196.672 86.9018 196.617 86.9618 196.574C86.9713 196.561 86.9834 196.55 86.9973 196.541C87.0113 196.533 87.0269 196.527 87.043 196.525C87.0592 196.523 87.0757 196.524 87.0914 196.528C87.1072 196.533 87.1219 196.54 87.1346 196.55Z" fill="#62BFCC"/>
<path d="M88.9729 196.205C88.5697 196.31 88.0609 197.371 87.8449 198.125C87.8083 198.249 87.7795 198.376 87.7585 198.504C87.7585 198.504 87.7585 198.504 87.7585 198.528C87.7537 198.544 87.7537 198.56 87.7585 198.576C87.765 198.596 87.7766 198.614 87.7921 198.629C87.8068 198.639 87.8244 198.645 87.8425 198.645C87.8606 198.645 87.8782 198.639 87.8929 198.629C88.4922 198.298 88.98 197.797 89.2945 197.189C89.3849 196.969 89.3951 196.724 89.3233 196.498C89.2417 196.195 89.0881 196.171 88.9729 196.205ZM88.9729 196.435C88.9969 196.435 89.0737 196.411 89.1361 196.603V196.67C89.1676 196.819 89.1525 196.973 89.0929 197.112C88.831 197.605 88.4392 198.016 87.9601 198.302C88.1713 197.587 88.6945 196.512 88.9873 196.435H88.9729Z" fill="#62BFCC"/>
<path d="M89.4625 199.805L91.1953 203.165C91.2385 203.25 91.2551 203.347 91.2432 203.441C91.2312 203.536 91.1911 203.626 91.1281 203.698L87.6721 206.29C87.6168 206.365 87.5445 206.426 87.4611 206.469C87.3777 206.511 87.2856 206.533 87.1921 206.533C87.0986 206.533 87.0064 206.511 86.923 206.469C86.8396 206.426 86.7674 206.365 86.7121 206.29L86.6689 206.227C82.3489 200.362 81.3313 197.688 80.9521 196.93C79.8721 194.77 81.5521 193.81 82.0801 194.371C84.4417 196.891 86.2561 198.322 87.6577 198.643C89.5969 199.33 89.3281 199.565 89.4625 199.805Z" fill="#263238"/>
<path d="M119.582 128.568H119.554C119.158 128.562 118.773 128.439 118.447 128.215C118.121 127.99 117.869 127.674 117.723 127.306C117.576 126.938 117.543 126.535 117.625 126.148C117.708 125.761 117.904 125.407 118.188 125.131C118.472 124.855 118.831 124.67 119.22 124.598C119.61 124.526 120.012 124.572 120.375 124.728C120.739 124.885 121.047 125.146 121.263 125.478C121.478 125.811 121.59 126.199 121.584 126.595C121.576 127.121 121.362 127.623 120.988 127.992C120.613 128.361 120.108 128.568 119.582 128.568ZM119.582 125.016C119.176 125.017 118.787 125.178 118.498 125.463C118.209 125.749 118.043 126.136 118.037 126.542C118.03 126.953 118.187 127.349 118.472 127.644C118.757 127.939 119.148 128.109 119.558 128.117C119.97 128.121 120.366 127.961 120.659 127.673C120.952 127.385 121.119 126.992 121.123 126.581C121.127 126.17 120.967 125.774 120.679 125.48C120.391 125.187 119.998 125.02 119.587 125.016H119.582Z" fill="#263238"/>
<path d="M124.2 127.469H124.166C123.77 127.463 123.385 127.34 123.059 127.115C122.733 126.89 122.481 126.574 122.335 126.205C122.189 125.837 122.155 125.434 122.239 125.047C122.322 124.66 122.518 124.306 122.802 124.03C123.087 123.755 123.447 123.569 123.836 123.498C124.226 123.427 124.628 123.473 124.991 123.631C125.355 123.788 125.663 124.05 125.878 124.383C126.092 124.716 126.203 125.105 126.197 125.501C126.189 126.025 125.975 126.526 125.602 126.894C125.228 127.262 124.725 127.469 124.2 127.469ZM124.2 123.922C123.795 123.923 123.406 124.083 123.117 124.367C122.828 124.652 122.662 125.038 122.654 125.443C122.649 125.75 122.734 126.052 122.9 126.31C123.066 126.568 123.305 126.771 123.586 126.893C123.867 127.016 124.179 127.052 124.48 126.997C124.782 126.943 125.061 126.8 125.282 126.587C125.503 126.373 125.655 126.1 125.72 125.8C125.785 125.5 125.759 125.187 125.646 124.902C125.534 124.617 125.339 124.371 125.086 124.197C124.834 124.022 124.536 123.926 124.229 123.922H124.2Z" fill="#263238"/>
<path d="M121.411 125.851L120.96 125.76C120.96 125.688 121.114 125.026 121.598 124.882C121.78 124.852 121.965 124.874 122.135 124.944C122.304 125.015 122.451 125.131 122.558 125.28L122.242 125.597C122.021 125.376 121.834 125.275 121.714 125.314C121.594 125.352 121.44 125.707 121.411 125.851Z" fill="#263238"/>
<path d="M125.995 125.376L125.895 124.934L130.45 123.854L131.328 124.046L131.232 124.488L130.45 124.315L125.995 125.376Z" fill="#263238"/>
<path d="M147.811 187.718V190.8C147.739 190.809 147.673 190.844 147.626 190.898C147.578 190.953 147.551 191.023 147.551 191.095C147.551 191.168 147.578 191.237 147.626 191.292C147.673 191.346 147.739 191.381 147.811 191.39H151.339V187.114H147.811C147.731 187.114 147.654 187.145 147.597 187.202C147.541 187.259 147.509 187.336 147.509 187.416C147.509 187.496 147.541 187.573 147.597 187.63C147.654 187.686 147.731 187.718 147.811 187.718Z" fill="#62BFCC"/>
<path opacity="0.3" d="M147.811 187.718V190.8C147.739 190.809 147.673 190.844 147.626 190.898C147.578 190.953 147.551 191.023 147.551 191.095C147.551 191.168 147.578 191.237 147.626 191.292C147.673 191.346 147.739 191.381 147.811 191.39H151.339V187.114H147.811C147.731 187.114 147.654 187.145 147.597 187.202C147.541 187.259 147.509 187.336 147.509 187.416C147.509 187.496 147.541 187.573 147.597 187.63C147.654 187.686 147.731 187.718 147.811 187.718Z" fill="white"/>
<path d="M150.548 187.723H147.812V190.8H150.548V187.723Z" fill="#62BFCC"/>
<path opacity="0.6" d="M150.548 187.723H147.812V190.8H150.548V187.723Z" fill="white"/>
<path d="M149.976 187.421H165.091C165.744 187.421 166.272 188.242 166.272 189.259C166.272 190.277 165.744 191.093 165.091 191.093H149.976V187.421Z" fill="#62BFCC"/>
<path opacity="0.9" d="M149.976 187.421H165.091C165.744 187.421 166.272 188.242 166.272 189.259C166.272 190.277 165.744 191.093 165.091 191.093H149.976V187.421Z" fill="white"/>
<path d="M149.976 191.39C153.082 191.39 161.818 191.443 164.928 191.39C167.055 191.352 167.17 187.272 165.082 187.128C163.642 187.027 162.13 187.128 160.671 187.128H149.976C149.904 187.137 149.838 187.172 149.791 187.227C149.743 187.281 149.716 187.351 149.716 187.423C149.716 187.496 149.743 187.566 149.791 187.62C149.838 187.674 149.904 187.709 149.976 187.718H164.434C165.115 187.718 165.605 187.718 165.874 188.53C166.099 189.226 166.027 190.646 165.096 190.8C164.989 190.807 164.882 190.807 164.775 190.8H149.976C149.904 190.809 149.838 190.844 149.791 190.899C149.743 190.953 149.716 191.023 149.716 191.095C149.716 191.168 149.743 191.238 149.791 191.292C149.838 191.346 149.904 191.381 149.976 191.39Z" fill="#62BFCC"/>
<g opacity="0.2">
<path d="M149.976 191.39C153.082 191.39 161.818 191.443 164.928 191.39C167.055 191.352 167.17 187.272 165.082 187.128C163.642 187.027 162.13 187.128 160.671 187.128H149.976C149.904 187.137 149.838 187.172 149.791 187.227C149.743 187.281 149.716 187.351 149.716 187.423C149.716 187.496 149.743 187.566 149.791 187.62C149.838 187.674 149.904 187.709 149.976 187.718H164.434C165.115 187.718 165.605 187.718 165.874 188.53C166.099 189.226 166.027 190.646 165.096 190.8C164.989 190.807 164.882 190.807 164.775 190.8H149.976C149.904 190.809 149.838 190.844 149.791 190.899C149.743 190.953 149.716 191.023 149.716 191.095C149.716 191.168 149.743 191.238 149.791 191.292C149.838 191.346 149.904 191.381 149.976 191.39Z" fill="white"/>
</g>
<path d="M148.32 191.875V194.731C148.254 194.74 148.194 194.772 148.15 194.822C148.107 194.872 148.083 194.936 148.083 195.003C148.083 195.069 148.107 195.133 148.15 195.183C148.194 195.233 148.254 195.265 148.32 195.274H151.584V191.328H148.32C148.247 191.328 148.178 191.357 148.127 191.408C148.075 191.46 148.046 191.529 148.046 191.602C148.046 191.674 148.075 191.744 148.127 191.795C148.178 191.847 148.247 191.875 148.32 191.875Z" fill="#62BFCC"/>
<path opacity="0.3" d="M148.32 191.875V194.731C148.254 194.74 148.194 194.772 148.15 194.822C148.107 194.872 148.083 194.936 148.083 195.003C148.083 195.069 148.107 195.133 148.15 195.183C148.194 195.233 148.254 195.265 148.32 195.274H151.584V191.328H148.32C148.247 191.328 148.178 191.357 148.127 191.408C148.075 191.46 148.046 191.529 148.046 191.602C148.046 191.674 148.075 191.744 148.127 191.795C148.178 191.847 148.247 191.875 148.32 191.875Z" fill="white"/>
<path d="M150.874 191.88H148.339V194.731H150.874V191.88Z" fill="#62BFCC"/>
<path opacity="0.6" d="M150.874 191.88H148.339V194.731H150.874V191.88Z" fill="white"/>
<path d="M150.341 191.602H164.338C164.942 191.602 165.432 192.365 165.432 193.301C165.432 194.237 164.952 195 164.338 195H150.341V191.602Z" fill="#62BFCC"/>
<path opacity="0.9" d="M150.341 191.602H164.338C164.942 191.602 165.432 192.365 165.432 193.301C165.432 194.237 164.952 195 164.338 195H150.341V191.602Z" fill="white"/>
<path d="M150.341 195.274C153.221 195.274 161.309 195.327 164.189 195.274C166.157 195.24 166.263 191.463 164.333 191.328C162.984 191.237 161.597 191.328 160.248 191.328H150.341C150.268 191.328 150.199 191.357 150.148 191.408C150.096 191.46 150.067 191.529 150.067 191.602C150.067 191.674 150.096 191.744 150.148 191.795C150.199 191.847 150.268 191.875 150.341 191.875H163.733C164.362 191.875 164.813 191.875 165.058 192.629C165.269 193.272 165.202 194.587 164.338 194.731C164.24 194.739 164.142 194.739 164.045 194.731H150.341C150.275 194.74 150.215 194.772 150.171 194.822C150.128 194.872 150.104 194.936 150.104 195.003C150.104 195.069 150.128 195.133 150.171 195.183C150.215 195.233 150.275 195.265 150.341 195.274Z" fill="#62BFCC"/>
<path d="M146.712 195.874V199.272C146.633 199.282 146.56 199.32 146.507 199.38C146.454 199.439 146.425 199.516 146.425 199.596C146.425 199.676 146.454 199.753 146.507 199.812C146.56 199.872 146.633 199.91 146.712 199.92C148.003 199.92 149.299 199.92 150.595 199.92V195.206H146.712C146.624 195.206 146.539 195.241 146.476 195.304C146.414 195.367 146.378 195.451 146.378 195.54C146.378 195.628 146.414 195.713 146.476 195.776C146.539 195.838 146.624 195.874 146.712 195.874Z" fill="#62BFCC"/>
<path opacity="0.3" d="M146.712 195.874V199.272C146.633 199.282 146.56 199.32 146.507 199.38C146.454 199.439 146.425 199.516 146.425 199.596C146.425 199.676 146.454 199.753 146.507 199.812C146.56 199.872 146.633 199.91 146.712 199.92C148.003 199.92 149.299 199.92 150.595 199.92V195.206H146.712C146.624 195.206 146.539 195.241 146.476 195.304C146.414 195.367 146.378 195.451 146.378 195.54C146.378 195.628 146.414 195.713 146.476 195.776C146.539 195.838 146.624 195.874 146.712 195.874Z" fill="white"/>
<path d="M149.731 195.878H146.712V199.272H149.731V195.878Z" fill="#62BFCC"/>
<path opacity="0.6" d="M149.731 195.878H146.712V199.272H149.731V195.878Z" fill="white"/>
<path d="M149.093 195.552H165.754C166.474 195.552 167.054 196.454 167.054 197.573C167.054 198.691 166.474 199.598 165.754 199.598H149.093V195.552Z" fill="#62BFCC"/>
<path opacity="0.9" d="M149.093 195.552H165.754C166.474 195.552 167.054 196.454 167.054 197.573C167.054 198.691 166.474 199.598 165.754 199.598H149.093V195.552Z" fill="white"/>
<path d="M149.093 199.92C152.52 199.92 162.149 199.982 165.571 199.92C167.918 199.882 168.043 195.384 165.744 195.226C164.141 195.115 162.49 195.226 160.882 195.226H149.093C149.014 195.235 148.941 195.274 148.888 195.333C148.835 195.393 148.806 195.47 148.806 195.55C148.806 195.629 148.835 195.706 148.888 195.766C148.941 195.826 149.014 195.864 149.093 195.874H165.029C165.782 195.874 166.32 195.874 166.608 196.771C166.862 197.539 166.781 199.104 165.754 199.272C165.637 199.282 165.52 199.282 165.403 199.272H149.083C149.004 199.282 148.931 199.32 148.878 199.38C148.826 199.439 148.796 199.516 148.796 199.596C148.796 199.676 148.826 199.753 148.878 199.812C148.931 199.872 149.004 199.91 149.083 199.92H149.093Z" fill="#62BFCC"/>
<g opacity="0.2">
<path d="M149.093 199.92C152.52 199.92 162.149 199.982 165.571 199.92C167.918 199.882 168.043 195.384 165.744 195.226C164.141 195.115 162.49 195.226 160.882 195.226H149.093C149.014 195.235 148.941 195.274 148.888 195.333C148.835 195.393 148.806 195.47 148.806 195.55C148.806 195.629 148.835 195.706 148.888 195.766C148.941 195.826 149.014 195.864 149.093 195.874H165.029C165.782 195.874 166.32 195.874 166.608 196.771C166.862 197.539 166.781 199.104 165.754 199.272C165.637 199.282 165.52 199.282 165.403 199.272H149.083C149.004 199.282 148.931 199.32 148.878 199.38C148.826 199.439 148.796 199.516 148.796 199.596C148.796 199.676 148.826 199.753 148.878 199.812C148.931 199.872 149.004 199.91 149.083 199.92H149.093Z" fill="black"/>
</g>
<path d="M44.3042 199.157L48.8642 192.005L56.7938 189.442L67.9346 191.184L68.6018 197.842L63.077 198.888L58.3298 198.168L55.6898 197.141L52.6466 199.747L48.4178 200.482L45.605 200.126L44.3042 199.157Z" fill="#62BFCC"/>
<path opacity="0.1" d="M44.3042 199.157L48.8642 192.005L56.7938 189.442L67.9346 191.184L68.6018 197.842L63.077 198.888L58.3298 198.168L55.6898 197.141L52.6466 199.747L48.4178 200.482L45.605 200.126L44.3042 199.157Z" fill="black"/>
<path opacity="0.2" d="M58.3346 189.682L57.5234 197.856L55.6898 197.141L53.5874 198.941L55.3778 189.902L56.7938 189.442L58.3346 189.682Z" fill="black"/>
<path d="M44.0161 200.299C44.0161 200.299 51.9025 203.578 55.9345 197.899C55.9345 197.899 64.1953 201.95 68.6017 197.851L67.8385 196.603C67.8385 196.603 65.6977 200.107 55.6033 196.354C55.6033 196.354 51.3121 201.95 44.3041 199.166L44.0161 200.299Z" fill="#62BFCC"/>
<path opacity="0.8" d="M44.0161 200.299C44.0161 200.299 51.9025 203.578 55.9345 197.899C55.9345 197.899 64.1953 201.95 68.6017 197.851L67.8385 196.603C67.8385 196.603 65.6977 200.107 55.6033 196.354C55.6033 196.354 51.3121 201.95 44.3041 199.166L44.0161 200.299Z" fill="white"/>
<path d="M49.9443 193.224L55.6611 188.635L63.7299 188.189L74.0499 191.64L73.4163 196.848L67.9395 196.589L63.5379 195.139L61.2099 193.853L57.8067 195.259L53.6211 195.019L51.0051 194.208L49.9443 193.224Z" fill="#62BFCC"/>
<path opacity="0.1" d="M49.9443 193.224L55.6611 188.635L63.7299 188.189L74.0499 191.64L73.4163 196.848L67.9395 196.589L63.5379 195.139L61.2099 193.853L57.8067 195.259L53.6211 195.019L51.0051 194.208L49.9443 193.224Z" fill="black"/>
<path opacity="0.2" d="M65.1603 188.664L62.8275 194.746L61.2099 193.853L58.8579 194.822L62.2899 188.266L63.7299 188.189L65.1603 188.664Z" fill="black"/>
<path d="M49.4399 194.035C49.4399 194.035 56.3567 198.043 61.2911 194.472C61.2911 194.472 68.4191 199.138 73.4063 196.843L72.9263 195.749C72.9263 195.749 70.2143 198.014 61.2767 193.229C59.5578 194.235 57.602 194.765 55.6103 194.765C53.6186 194.765 51.6629 194.235 49.9439 193.229L49.4399 194.035Z" fill="#62BFCC"/>
<path opacity="0.8" d="M49.4399 194.035C49.4399 194.035 56.3567 198.043 61.2911 194.472C61.2911 194.472 68.4191 199.138 73.4063 196.843L72.9263 195.749C72.9263 195.749 70.2143 198.014 61.2767 193.229C59.5578 194.235 57.602 194.765 55.6103 194.765C53.6186 194.765 51.6629 194.235 49.9439 193.229L49.4399 194.035Z" fill="white"/>
<path d="M116.885 179.328L142.171 180.403C142.171 180.403 141.715 177.307 141.384 177.226C141.053 177.144 136.901 173.563 132.058 175.267C131.002 175.632 130.234 175.915 129.686 176.117C129.158 175.867 128.419 175.526 127.397 175.066C122.712 172.958 118.277 176.174 117.931 176.227C117.586 176.28 116.885 179.328 116.885 179.328Z" fill="#62BFCC"/>
<path opacity="0.6" d="M116.885 179.328L142.171 180.403V180.326C142.094 179.846 141.691 177.302 141.394 177.226L141.336 177.197C140.746 176.875 136.728 173.626 132.072 175.277C131.011 175.646 130.243 175.925 129.696 176.136C129.168 175.882 128.429 175.541 127.406 175.08C122.722 172.973 118.286 176.189 117.946 176.242C117.605 176.294 116.885 179.328 116.885 179.328Z" fill="white"/>
<path d="M113.995 179.208L139.589 180.293C139.589 180.293 139.109 177.158 138.792 177.077C138.475 176.995 134.237 173.842 129.336 175.565C128.266 175.939 126.888 177.509 126.888 177.509C126.888 177.509 125.65 175.824 124.613 175.363C119.875 173.232 115.402 176.011 115.056 176.069C114.71 176.126 113.995 179.208 113.995 179.208Z" fill="#62BFCC"/>
<path opacity="0.8" d="M113.995 179.208L139.589 180.293C139.589 180.293 139.109 177.158 138.792 177.077C138.475 176.995 134.237 173.842 129.336 175.565C128.266 175.939 126.888 177.509 126.888 177.509C126.888 177.509 125.65 175.824 124.613 175.363C119.875 173.232 115.402 176.011 115.056 176.069C114.71 176.126 113.995 179.208 113.995 179.208Z" fill="white"/>
<path d="M126.739 178.358L127.488 179.866L125.563 179.784L126.739 178.358Z" fill="#62BFCC"/>
<g opacity="0.3">
<path d="M126.739 178.358L127.488 179.866L125.563 179.784L126.739 178.358Z" fill="black"/>
</g>
<path opacity="0.1" d="M138.826 177.091C138.983 177.45 139.105 177.823 139.19 178.205C139.387 179.165 139.589 180.293 139.589 180.293L142.171 180.403V180.327C142.094 179.847 141.691 177.303 141.394 177.226L141.336 177.197L138.826 177.091Z" fill="black"/>
<path d="M112.978 180.115L125.515 180.96H125.544C125.811 180.742 126.148 180.629 126.492 180.643C126.836 180.657 127.163 180.797 127.411 181.037L127.435 181.061L140.366 181.44L143.63 181.541L143.434 180.413L127.493 179.736C127.243 179.481 126.905 179.331 126.549 179.316C126.192 179.301 125.843 179.422 125.573 179.654L113.342 179.117L112.978 180.115Z" fill="#263238"/>
<g opacity="0.3">
<path d="M140.165 180.23L140.371 181.397L143.635 181.498L143.434 180.37L140.165 180.23Z" fill="black"/>
</g>
<path d="M125.655 177.624C125.655 177.624 123.783 175.277 121.378 175.598C121.378 175.598 123.058 175.459 125.655 177.624Z" fill="#62BFCC"/>
<path opacity="0.4" d="M125.655 177.624C125.655 177.624 123.783 175.277 121.378 175.598C121.378 175.598 123.058 175.459 125.655 177.624Z" fill="white"/>
<path d="M130.301 178.862C130.301 178.862 132.994 177.542 135.034 178.862C135.034 178.858 133.57 178.013 130.301 178.862Z" fill="#62BFCC"/>
<path opacity="0.4" d="M130.301 178.862C130.301 178.862 132.994 177.542 135.034 178.862C135.034 178.858 133.57 178.013 130.301 178.862Z" fill="white"/>
<path d="M127.843 177.984C127.843 177.984 130.037 175.939 132.37 176.606C132.37 176.606 130.728 176.222 127.843 177.984Z" fill="#62BFCC"/>
<path opacity="0.4" d="M127.843 177.984C127.843 177.984 130.037 175.939 132.37 176.606C132.37 176.606 130.728 176.222 127.843 177.984Z" fill="white"/>
<path d="M122.52 177.456C122.52 177.456 119.957 175.896 117.807 177.024C117.807 177.024 119.338 176.314 122.52 177.456Z" fill="#62BFCC"/>
<path opacity="0.4" d="M122.52 177.456C122.52 177.456 119.957 175.896 117.807 177.024C117.807 177.024 119.338 176.314 122.52 177.456Z" fill="white"/>
<path d="M155.621 177.12C154.8 177.283 153.966 177.367 153.13 177.37C151.437 177.378 149.76 177.052 148.194 176.408C146.629 175.765 145.207 174.817 144.01 173.621L143.64 173.995C144.887 175.235 146.366 176.215 147.993 176.881C149.62 177.547 151.362 177.884 153.12 177.874C154.002 177.871 154.881 177.782 155.746 177.61C155.646 177.496 155.591 177.349 155.592 177.197C155.6 177.171 155.61 177.145 155.621 177.12Z" fill="#62BFCC"/>
<path d="M157.179 176.699L154.63 176.707L154.651 184.075L157.2 184.067L157.179 176.699Z" fill="#62BFCC"/>
<g opacity="0.2">
<path d="M157.179 176.699L154.63 176.707L154.651 184.075L157.2 184.067L157.179 176.699Z" fill="black"/>
</g>
<path d="M148.171 187.099C148.171 185.179 151.627 183.614 155.904 183.6C160.181 183.586 163.651 185.136 163.656 187.056C158.659 188.458 153.377 188.491 148.363 187.152L148.171 187.099Z" fill="#62BFCC"/>
<path d="M162.953 155.6L144.524 174.261L144.9 174.632L163.329 155.971L162.953 155.6Z" fill="#62BFCC"/>
<path d="M166.502 164.424C166.503 162.661 166.154 160.916 165.475 159.29C164.796 157.663 163.801 156.188 162.547 154.949L162.178 155.323C163.839 156.969 165.022 159.037 165.598 161.304C166.175 163.571 166.123 165.952 165.449 168.192C164.776 170.432 163.505 172.446 161.773 174.019C160.042 175.592 157.915 176.664 155.621 177.12C155.619 177.153 155.619 177.187 155.621 177.221C155.62 177.373 155.674 177.519 155.774 177.634C158.812 177.012 161.541 175.36 163.5 172.957C165.458 170.554 166.526 167.548 166.522 164.448L166.502 164.424Z" fill="#62BFCC"/>
<path d="M160.896 171.744C159.585 173.102 157.9 174.041 156.055 174.442C154.21 174.843 152.287 174.688 150.531 173.996C148.774 173.305 147.261 172.108 146.185 170.557C145.108 169.006 144.516 167.17 144.482 165.282C144.448 163.395 144.975 161.539 145.996 159.951C147.017 158.362 148.486 157.112 150.217 156.359C151.948 155.605 153.864 155.382 155.722 155.717C157.58 156.052 159.297 156.931 160.656 158.241C162.478 160.001 163.526 162.411 163.571 164.943C163.616 167.475 162.654 169.921 160.896 171.744Z" fill="#62BFCC"/>
<path d="M157.632 168.595L157.325 168.297C159.523 166.017 161.309 161.861 160.469 158.309L160.886 158.213C161.76 161.909 159.912 166.233 157.632 168.595Z" fill="#62BFCC"/>
<path d="M147.571 171.998L147.658 171.576C151.234 172.291 155.338 170.362 157.526 168.086L157.838 168.384C155.558 170.746 151.301 172.742 147.571 171.998Z" fill="#62BFCC"/>
<path d="M150.768 161.961L150.456 161.664C152.736 159.302 156.994 157.301 160.723 158.049L160.637 158.467C157.061 157.752 152.966 159.686 150.768 161.961Z" fill="#62BFCC"/>
<path d="M147.408 171.84C146.534 168.144 148.368 163.819 150.662 161.458L150.97 161.755C148.771 164.03 146.986 168.192 147.826 171.744L147.408 171.84Z" fill="#62BFCC"/>
<path d="M160.525 158.13L147.261 171.866L147.572 172.166L160.836 158.43L160.525 158.13Z" fill="#62BFCC"/>
<path d="M151.917 155.716L151.617 156.027L163.246 167.257L163.546 166.946L151.917 155.716Z" fill="#62BFCC"/>
<path d="M147.221 158.475L146.92 158.786L160.652 172.047L160.952 171.736L147.221 158.475Z" fill="#62BFCC"/>
<path d="M144.783 163.412L144.483 163.723L155.805 174.656L156.105 174.345L144.783 163.412Z" fill="#62BFCC"/>
<g opacity="0.2">
<path d="M157.632 168.595L157.325 168.297C159.523 166.017 161.309 161.861 160.469 158.309L160.886 158.213C161.76 161.909 159.912 166.233 157.632 168.595Z" fill="black"/>
<path d="M147.571 171.998L147.658 171.576C151.234 172.291 155.338 170.361 157.526 168.086L157.838 168.384C155.558 170.745 151.301 172.742 147.571 171.998Z" fill="black"/>
<path d="M150.768 161.961L150.456 161.664C152.736 159.302 156.994 157.301 160.723 158.049L160.637 158.467C157.061 157.752 152.966 159.686 150.768 161.961Z" fill="black"/>
<path d="M147.408 171.84C146.534 168.144 148.368 163.819 150.662 161.458L150.97 161.755C148.771 164.03 146.986 168.192 147.826 171.744L147.408 171.84Z" fill="black"/>
<path d="M160.525 158.13L147.261 171.866L147.572 172.166L160.836 158.43L160.525 158.13Z" fill="black"/>
<path d="M151.917 155.716L151.617 156.027L163.246 167.257L163.546 166.946L151.917 155.716Z" fill="black"/>
<path d="M147.221 158.475L146.92 158.786L160.652 172.047L160.952 171.736L147.221 158.475Z" fill="black"/>
<path d="M144.783 163.412L144.483 163.722L155.805 174.656L156.105 174.345L144.783 163.412Z" fill="black"/>
</g>
</svg>
