<svg width="240" height="240" viewBox="0 0 240 240" fill="none" xmlns="http://www.w3.org/2000/svg">
<path d="M32.0114 177.715L32.3186 177.01C33.5519 174.088 35.5608 171.56 38.1278 169.699C40.6948 167.838 43.722 166.714 46.8818 166.45C47.7079 166.39 48.5373 166.39 49.3634 166.45C52.3598 166.712 55.245 167.71 57.7629 169.356C60.2808 171.001 62.3535 173.243 63.797 175.882C65.477 179.006 66.341 182.75 69.0242 185.045C72.5234 188.026 77.6642 187.445 82.1762 186.662C86.6882 185.88 91.8386 185.314 95.3234 188.314C97.5026 190.19 98.5202 193.152 98.765 196.037C99.4034 203.674 95.0546 211.176 88.8002 215.472C82.5458 219.768 74.6738 221.155 67.1186 220.685C56.5298 220.027 45.9506 215.674 38.8514 207.677C31.7522 199.68 28.6082 187.867 32.0114 177.715Z" fill="#F5F5F5"/>
<path d="M214.79 62.4384L214.555 63.1728C213.618 66.2022 211.871 68.9179 209.502 71.0261C207.133 73.1344 204.233 74.555 201.115 75.1344C200.3 75.2762 199.475 75.358 198.648 75.3792C195.642 75.4161 192.673 74.7094 190.006 73.3217C187.338 71.9341 185.055 69.9086 183.36 67.4256C181.378 64.4832 180.149 60.8448 177.25 58.8288C173.472 56.2032 168.403 57.312 164.002 58.5168C159.6 59.7216 154.522 60.816 150.758 58.1808C148.402 56.5248 147.096 53.6832 146.568 50.8368C145.176 43.3008 148.762 35.4 154.56 30.5088C160.358 25.6176 168.048 23.4528 175.618 23.1696C186.216 22.776 197.174 26.0496 205.032 33.3168C212.89 40.584 217.171 51.9984 214.79 62.4384Z" fill="#F5F5F5"/>
<path d="M183.327 212.674C191.802 212.674 198.672 205.803 198.672 197.328C198.672 188.853 191.802 181.982 183.327 181.982C174.851 181.982 167.981 188.853 167.981 197.328C167.981 205.803 174.851 212.674 183.327 212.674Z" fill="#F5F5F5"/>
<path d="M71.2372 55.6128C79.7123 55.6128 86.5828 48.7424 86.5828 40.2672C86.5828 31.7921 79.7123 24.9216 71.2372 24.9216C62.7621 24.9216 55.8916 31.7921 55.8916 40.2672C55.8916 48.7424 62.7621 55.6128 71.2372 55.6128Z" fill="#F5F5F5"/>
<path d="M195.768 49.2624C195.806 49.32 188.054 54.5424 178.459 60.96C168.864 67.3776 161.045 72.5136 161.006 72.48C160.968 72.4464 168.72 67.2 178.32 60.7776C187.92 54.3552 195.73 49.2048 195.768 49.2624Z" fill="#263238"/>
<path d="M192.926 60.2592C192.965 60.3168 190.09 62.3232 186.504 64.7376C182.918 67.152 179.986 69.0576 179.947 69.0096C179.909 68.9616 182.779 66.9456 186.365 64.5312C189.95 62.1168 192.888 60.2016 192.926 60.2592Z" fill="#263238"/>
<path d="M40.7565 159.144C40.7181 159.091 46.3197 155.266 53.2653 150.61C60.2109 145.954 65.8797 142.224 65.9181 142.282C65.9565 142.339 60.3549 146.16 53.4045 150.816C46.4541 155.472 40.7997 159.202 40.7565 159.144Z" fill="#263238"/>
<path d="M71.04 150.802C71.0784 150.859 61.008 157.886 48.5472 166.493C36.0864 175.099 25.92 182.04 25.8912 181.982C25.8624 181.925 35.9184 174.902 48.384 166.286C60.8496 157.67 70.9776 150.744 71.04 150.802Z" fill="#263238"/>
<path d="M67.3297 165.6C67.3681 165.658 63.6289 168.336 58.9729 171.586C54.3169 174.835 50.5153 177.423 50.4769 177.346C50.4385 177.269 54.1777 174.61 58.8337 171.36C63.4897 168.111 67.2913 165.528 67.3297 165.6Z" fill="#263238"/>
<path d="M144.96 172.118C141.55 170.405 138.529 168.008 136.085 165.077C135.45 164.308 134.856 163.507 134.304 162.677C133.896 162.062 132.97 161.006 132.864 160.277C132.672 158.837 135.038 157.282 136.186 156.874C137.333 156.466 139.723 156.182 140.616 157.19C141.322 157.987 141.408 160.018 141.768 161.03C142.796 163.941 144.333 166.646 146.309 169.018C146.764 169.482 147.12 170.034 147.355 170.64C147.466 170.946 147.472 171.28 147.373 171.59C147.274 171.9 147.076 172.169 146.808 172.354C146.251 172.68 145.55 172.411 144.96 172.118Z" fill="#62BFCC"/>
<path d="M235.253 109.651C221.629 112.322 207.594 112.073 194.074 108.922C190.622 108.11 182.05 106.166 178.565 107.558C176.784 108.274 175.123 109.579 173.424 110.698C167.323 114.71 165.552 117.288 159.12 116.285L147.907 153.955C151.219 149.765 154.598 145.512 158.554 142.752C162.509 139.992 167.194 138.912 171.005 141.254C175.613 144.134 181.685 154.8 185.971 152.458C189.106 150.874 185.41 141.922 185.136 141.475C188.275 146.582 194.789 156.6 200.083 151.109C201.547 148.68 198.552 142.406 198.552 142.406C201.154 146.501 204.854 148.512 208.114 148.19C210.883 147.922 212.366 144.446 210.845 141.898C210.198 140.804 209.425 139.791 208.541 138.878C211.901 142.08 216.331 143.362 220.978 141.403C224.702 139.834 224.635 134.736 222.23 131.803L218.39 127.546C225.989 126.48 232.757 119.65 235.253 109.651Z" fill="#E0E0E0"/>
<g opacity="0.3">
<path d="M165.749 115.752L162.24 116.486L158.563 142.752C158.563 142.752 161.328 140.899 162.729 140.587C164.596 137.283 165.83 133.659 166.368 129.902C167.04 125.174 167.549 120.178 165.749 115.752Z" fill="black"/>
</g>
<g opacity="0.3">
<path d="M203.688 133.114C201.233 132.721 198.972 131.542 197.246 129.754C197.484 130.935 197.584 132.14 197.544 133.344C197.51 134.54 197.054 135.686 196.257 136.579C194.985 137.856 193.133 137.659 191.577 136.834C189.994 135.951 188.63 134.724 187.584 133.243C186.504 131.77 185.217 130.046 184.147 128.678C184.329 130.483 185.107 133.085 185.347 134.875C185.601 136.906 185.798 138.49 184.694 139.853C183.662 141.13 182.856 141.106 181.363 140.597C179.87 140.088 177.163 137.477 175.953 136.392L173.846 133.781C175.243 137.675 178.046 140.906 181.704 142.838C183.182 143.587 185.04 144.038 186.35 142.982C187.761 141.85 187.819 139.622 187.742 137.702C189.293 138.662 190.867 139.622 192.595 140.04C194.323 140.458 196.257 140.338 197.702 139.219C199.147 138.101 199.925 135.859 199.142 134.117C201.091 135.034 203.222 135.634 205.334 135.394C206.424 135.286 207.471 134.919 208.39 134.324C209.308 133.728 210.071 132.922 210.614 131.971C208.452 132.975 206.058 133.37 203.688 133.114Z" fill="black"/>
</g>
<path d="M213.12 130.142L213.062 130.2L212.885 130.363C212.721 130.502 212.501 130.728 212.169 130.978C211.216 131.701 210.151 132.263 209.016 132.643L208.449 132.83C208.253 132.888 208.046 132.922 207.84 132.97C207.633 133.018 207.417 133.07 207.197 133.104L206.515 133.186C206.28 133.22 206.042 133.238 205.805 133.238C205.565 133.238 205.325 133.238 205.065 133.238C204.543 133.222 204.022 133.174 203.505 133.094C202.954 133.009 202.409 132.889 201.873 132.734C201.313 132.551 200.764 132.331 200.232 132.077C199.084 131.519 198.039 130.771 197.141 129.864L197.323 129.768C197.66 131.105 197.791 132.486 197.712 133.862C197.639 134.599 197.415 135.313 197.054 135.96C196.685 136.649 196.08 137.183 195.35 137.462C194.589 137.7 193.774 137.7 193.013 137.462C192.239 137.258 191.502 136.934 190.829 136.502C189.489 135.563 188.295 134.431 187.286 133.142C185.966 131.506 184.821 129.737 183.869 127.862L184.099 127.781C184.541 129.821 184.949 131.803 185.294 133.723C185.489 134.662 185.6 135.616 185.625 136.574C185.619 137.503 185.401 138.417 184.987 139.248C184.797 139.653 184.516 140.008 184.165 140.286C183.815 140.563 183.404 140.755 182.966 140.846C182.131 140.941 181.288 140.759 180.566 140.328C179.318 139.601 178.186 138.691 177.206 137.63C175.792 136.131 174.494 134.527 173.323 132.83C172.905 132.235 172.598 131.77 172.392 131.453L172.161 131.088C172.107 131.008 172.083 130.965 172.089 130.958L172.181 131.074L172.425 131.424L173.385 132.778C174.579 134.452 175.891 136.038 177.312 137.525C178.297 138.564 179.429 139.453 180.672 140.165C181.355 140.563 182.147 140.731 182.933 140.645C183.339 140.56 183.72 140.38 184.044 140.121C184.368 139.862 184.627 139.53 184.8 139.152C185.195 138.35 185.401 137.468 185.405 136.574C185.373 135.631 185.261 134.691 185.069 133.766C184.718 131.846 184.305 129.878 183.864 127.838C183.857 127.807 183.862 127.773 183.879 127.745C183.896 127.718 183.923 127.698 183.955 127.69C183.982 127.685 184.01 127.689 184.035 127.701C184.06 127.713 184.081 127.733 184.094 127.757C185.037 129.602 186.166 131.345 187.464 132.96C188.458 134.232 189.632 135.352 190.949 136.286C191.598 136.714 192.311 137.038 193.061 137.246C193.775 137.47 194.54 137.47 195.254 137.246C195.931 136.986 196.492 136.49 196.833 135.85C197.182 135.234 197.4 134.552 197.472 133.848C197.548 132.494 197.422 131.137 197.097 129.821C197.092 129.792 197.098 129.763 197.114 129.738C197.13 129.714 197.155 129.697 197.184 129.691C197.201 129.689 197.219 129.692 197.236 129.697C197.252 129.703 197.267 129.713 197.28 129.725C198.16 130.616 199.182 131.354 200.304 131.909C200.825 132.164 201.364 132.382 201.917 132.562C202.442 132.718 202.978 132.84 203.52 132.926C204.026 133.011 204.538 133.064 205.051 133.085H205.785C206.02 133.085 206.254 133.071 206.486 133.042L207.158 132.965C207.379 132.936 207.59 132.878 207.797 132.84C208.003 132.802 208.205 132.763 208.401 132.706L208.963 132.533C210.091 132.165 211.155 131.624 212.117 130.93C212.448 130.69 212.678 130.474 212.851 130.344L213.038 130.195C213.081 130.157 213.12 130.138 213.12 130.142Z" fill="#263238"/>
<g opacity="0.3">
<path d="M181.949 117.514C181.133 118.589 180.182 118.829 179.117 119.731L170.222 125.933C172.949 124.45 176.025 123.226 178.752 121.742C179.478 121.202 180.341 120.874 181.243 120.797C182.145 120.72 183.051 120.896 183.859 121.306C188.429 122.842 193.094 124.186 197.87 124.435C202.646 124.685 207.561 123.84 211.68 121.195C201.561 123.802 191.193 122.736 181.949 117.514Z" fill="black"/>
</g>
<path d="M220.579 117.787L220.449 117.859L220.056 118.061L218.529 118.805C217.862 119.112 217.017 119.429 216.053 119.832C215.573 120.005 215.025 120.178 214.464 120.37L213.595 120.658L212.664 120.912C209.682 121.751 206.614 122.25 203.52 122.4C199.737 122.58 195.947 122.257 192.249 121.44C188.65 120.627 185.176 119.335 181.92 117.6H182.045C178.671 120.315 175.155 122.85 171.513 125.194C170.174 126.058 169.113 126.71 168.355 127.152L167.501 127.632L167.28 127.757C167.227 127.786 167.203 127.795 167.198 127.79L167.27 127.738L167.481 127.598L168.317 127.075C169.046 126.595 170.112 125.938 171.437 125.064C174.091 123.312 177.792 120.744 181.901 117.384L181.958 117.336L182.025 117.374C185.286 119.076 188.758 120.338 192.35 121.128C196.013 121.955 199.768 122.3 203.52 122.155C206.593 122.012 209.64 121.529 212.606 120.715L213.537 120.475L214.406 120.192L215.995 119.674C216.955 119.29 217.809 118.982 218.481 118.69L220.022 117.989L220.425 117.816C220.475 117.799 220.527 117.79 220.579 117.787Z" fill="#263238"/>
<path d="M77.683 81.3264C76.5358 79.608 75.5038 77.7313 74.0878 76.3441C71.3326 73.6369 62.1982 71.8656 58.507 71.1792C44.1657 68.5168 30.516 62.9642 18.3886 54.8593C16.4158 64.9921 19.9678 74.0065 26.8414 78.1057L21.2686 80.4001C17.6542 82.0801 15.3598 86.6736 18.2686 89.6448C21.8974 93.3504 26.7358 94.008 31.3918 92.4864C30.1431 92.947 28.9513 93.5494 27.8398 94.2817C25.2574 95.9713 25.1614 99.7489 27.7246 101.141C30.7198 102.778 35.1886 102.48 39.499 99.84C39.499 99.84 33.8542 104.318 34.219 107.136C36.931 114.336 47.6206 107.894 52.891 104.534C52.411 104.827 44.9374 111.456 47.2654 114.197C50.3806 118.094 60.9262 110.89 66.643 110.174C71.3518 109.589 75.4078 112.531 78.019 116.683C80.6302 120.835 82.0318 126.096 83.3998 131.285L93.091 93.0673C86.3998 91.3105 81.8206 87.504 77.683 81.3264Z" fill="#E0E0E0"/>
<g opacity="0.3">
<path d="M38.6113 89.2369C41.1536 89.8842 43.833 89.7402 46.2913 88.8241C45.5493 89.7954 44.9242 90.8507 44.4289 91.9681C43.9374 93.0655 43.8758 94.3074 44.2561 95.4481C44.9233 97.1329 46.8001 97.7185 48.6625 97.6129C50.5759 97.471 52.4368 96.9211 54.1201 96.0001C55.8097 95.1073 57.8113 94.0801 59.4481 93.2641C58.4881 94.8337 56.5681 96.8737 55.5697 98.4097C54.4369 100.157 53.5489 101.52 54.0145 103.21C54.4561 104.799 55.2481 105.13 56.8945 105.264C58.5409 105.399 62.3425 104.16 63.9841 103.68L67.1665 102.173C64.0351 105.173 59.9295 106.949 55.5985 107.175C53.8417 107.247 51.8497 106.887 51.0433 105.389C50.1793 103.771 51.1009 101.712 52.0033 100.003C50.0833 100.224 48.1633 100.445 46.2913 100.128C44.4193 99.8113 42.6241 98.8849 41.7121 97.2481C40.8001 95.6113 41.0401 93.2737 42.5521 92.0065C40.2673 92.0353 37.9441 91.6993 36.0097 90.6097C34.0753 89.5201 32.5729 87.5761 32.4097 85.3297C34.0907 87.1628 36.2321 88.5119 38.6113 89.2369Z" fill="black"/>
</g>
<path d="M30.811 82.6416C30.811 82.6416 30.811 82.6656 30.859 82.7136L30.9742 82.9344C31.0894 83.1312 31.2142 83.4144 31.4542 83.7984C32.0958 84.8562 32.9066 85.8016 33.8542 86.5968C35.5587 88.0101 37.6011 88.9563 39.7814 89.3425C41.9616 89.7288 44.2048 89.5418 46.291 88.8C46.3042 88.7946 46.3184 88.792 46.3326 88.7923C46.3469 88.7925 46.3609 88.7957 46.374 88.8015C46.387 88.8073 46.3987 88.8157 46.4083 88.8262C46.418 88.8367 46.4255 88.849 46.4302 88.8624C46.4372 88.8783 46.4409 88.8954 46.4409 88.9128C46.4409 88.9302 46.4372 88.9473 46.4302 88.9632C45.5271 90.0327 44.8011 91.24 44.2798 92.5392C44.0416 93.2278 43.9645 93.9618 44.0542 94.6848C44.1309 95.4338 44.498 96.1231 45.0766 96.6048C45.7025 97.0595 46.438 97.3395 47.2078 97.416C48.0038 97.5301 48.8119 97.5301 49.6078 97.416C51.2461 97.1165 52.8353 96.5932 54.331 95.8608C56.3107 94.9314 58.1921 93.8058 59.947 92.5008C59.9598 92.4906 59.9745 92.4831 59.9902 92.4787C60.006 92.4744 60.0224 92.4733 60.0386 92.4756C60.0548 92.4778 60.0703 92.4833 60.0843 92.4918C60.0983 92.5003 60.1104 92.5115 60.1198 92.5248C60.1374 92.5456 60.1471 92.572 60.1471 92.5992C60.1471 92.6264 60.1374 92.6528 60.1198 92.6736C58.7806 94.368 57.4942 96.0336 56.3086 97.6416C55.707 98.4112 55.1844 99.2393 54.7486 100.114C54.3565 100.951 54.191 101.876 54.2686 102.797C54.3135 103.232 54.4581 103.651 54.691 104.021C54.9234 104.373 55.2446 104.658 55.6222 104.846C56.3764 105.176 57.2049 105.299 58.0222 105.202C58.79 105.136 59.55 104.999 60.2926 104.794C61.0078 104.611 61.6798 104.376 62.3182 104.15C64.3054 103.391 66.2393 102.5 68.107 101.482L69.619 100.661L70.0078 100.445L70.1422 100.378C70.1422 100.378 70.1038 100.411 70.0174 100.464L69.6382 100.699C69.3022 100.901 68.803 101.179 68.1502 101.558C66.2973 102.608 64.3725 103.526 62.3902 104.304C61.7518 104.534 61.075 104.784 60.3502 104.966C59.5985 105.178 58.8288 105.319 58.051 105.389C57.2002 105.494 56.3367 105.37 55.5502 105.029C55.1424 104.822 54.7939 104.515 54.5374 104.136C54.2795 103.742 54.1153 103.293 54.0574 102.826C53.9734 101.865 54.1387 100.9 54.5374 100.022C54.9775 99.1318 55.5083 98.2889 56.1214 97.5072C57.307 95.8752 58.5886 94.2192 59.9278 92.52L60.0958 92.6976C58.3292 94.0216 56.4332 95.1634 54.4366 96.1056C52.9173 96.8502 51.3018 97.3801 49.6366 97.68C48.8199 97.7952 47.991 97.7952 47.1742 97.68C46.362 97.5933 45.587 97.2936 44.9278 96.8112C44.3071 96.2916 43.9115 95.552 43.8238 94.7472C43.731 93.9867 43.8131 93.2151 44.0638 92.4912C44.5976 91.1717 45.3399 89.9465 46.2622 88.8624L46.3822 89.0304C43.9871 89.886 41.3903 90.003 38.9278 89.3664C37.0321 88.8972 35.2729 87.9897 33.7918 86.7168C32.8335 85.9006 32.0218 84.9266 31.3918 83.8368C31.1764 83.4494 30.9825 83.0504 30.811 82.6416Z" fill="#263238"/>
<g opacity="0.3">
<path d="M66.4558 84.0001C66.7774 85.3153 67.5886 85.9201 68.2174 87.1873L74.0974 96.5137C72.1102 94.0321 69.6766 91.6513 67.6894 89.1697C67.1619 88.4 66.4823 87.7465 65.6926 87.2497C64.8249 86.8716 63.893 86.6631 62.947 86.6353C57.859 86.1553 52.7614 85.4353 48.0382 83.7025C43.315 81.9697 38.9182 79.1377 36.1006 75.0385C44.7403 81.7205 55.5723 84.9184 66.4558 84.0001Z" fill="black"/>
</g>
<path d="M29.0063 68.3041C29.0063 68.3041 29.0495 68.3377 29.1215 68.4097L29.4383 68.7409C29.7215 69.0481 30.1199 69.4801 30.6335 70.0273C31.1471 70.5745 31.8479 71.2129 32.6207 71.9713L33.9359 73.0993L34.6559 73.7137L35.4527 74.3185C37.9767 76.2754 40.7026 77.957 43.5839 79.3345C47.113 81.0222 50.8373 82.2668 54.6719 83.0401C58.5458 83.827 62.5034 84.1221 66.4511 83.9185H66.5231L66.5567 83.9857C69.0863 88.7377 71.5295 92.6257 73.3247 95.2993C74.2223 96.6433 74.9519 97.6993 75.4559 98.4097L76.0319 99.2305L76.1759 99.4417L76.2191 99.5185C76.2191 99.5185 76.2191 99.5185 76.1567 99.4561C76.0943 99.3937 76.0655 99.3361 75.9983 99.2497L75.3936 98.4529C74.8751 97.7473 74.1264 96.7105 73.2095 95.3761C70.7231 91.7407 68.435 87.9736 66.3551 84.0913L66.4608 84.1537C62.4944 84.3718 58.5165 84.0814 54.6239 83.2897C50.7694 82.518 47.0267 81.2667 43.4831 79.5649C40.5863 78.1725 37.8501 76.468 35.3231 74.4817L34.5599 73.8481L33.8447 73.2241L32.5343 72.0721C31.7711 71.3041 31.0943 70.6321 30.5711 70.0945L29.4095 68.7745L29.1119 68.4241C29.0723 68.3882 29.0369 68.3479 29.0063 68.3041Z" fill="#263238"/>
<g opacity="0.3">
<path d="M75.6143 113.611C75.6143 113.611 82.4063 97.5073 88.2911 91.3489C88.2911 91.3489 92.4431 93.2113 94.2719 93.4465C96.1007 93.6817 94.1135 93.9745 93.6383 93.9745C93.1631 93.9745 78.7199 118.56 78.7199 118.56C78.7199 118.56 76.9199 114.965 75.6143 113.611Z" fill="black"/>
</g>
<path d="M172.686 109.886C174.937 108.247 171.537 99.7464 165.093 90.8996C158.649 82.0528 151.601 76.2098 149.351 77.849C147.1 79.4881 150.5 87.9886 156.944 96.8355C163.388 105.682 170.436 111.525 172.686 109.886Z" fill="#62BFCC"/>
<path d="M171.485 84.9936C177.965 93.7872 178.517 103.003 173.885 107.75C170.688 111.038 164.606 103.622 158.126 94.8288C151.646 86.0352 145.723 78.0864 149.659 75.7392C155.942 72 165.005 76.2 171.485 84.9936Z" fill="#62BFCC"/>
<g opacity="0.3">
<path d="M172.686 109.886C174.937 108.247 171.537 99.7464 165.093 90.8996C158.649 82.0528 151.601 76.2098 149.351 77.849C147.1 79.4881 150.5 87.9886 156.944 96.8355C163.388 105.682 170.436 111.525 172.686 109.886Z" fill="black"/>
</g>
<path d="M99.8782 86.0065C99.8782 86.0065 92.995 89.0449 80.5342 109.766L132.091 169.147C132.091 169.147 150.475 158.328 155.817 145.56L99.8782 86.0065Z" fill="#62BFCC"/>
<path d="M152.894 133.848C152.894 155.741 136.642 173.275 115.325 173.275C94.0079 173.275 74.3999 153.12 74.3999 131.208C74.3943 124.538 76.0436 117.971 79.1999 112.094C85.7711 99.8593 98.4575 91.5697 113.026 91.5697C134.328 91.5697 152.894 111.955 152.894 133.848Z" fill="#62BFCC"/>
<path d="M164.558 121.675C164.558 144.062 147.696 161.995 125.578 161.995C103.459 161.995 83.1217 141.355 83.1217 118.982C83.1087 112.157 84.8121 105.437 88.0753 99.4417C91.4936 93.1071 96.559 87.813 102.737 84.1185C108.914 80.4239 115.975 78.466 123.173 78.4513C145.296 78.4465 164.558 99.2881 164.558 121.675Z" fill="#62BFCC"/>
<path d="M162.24 123.235C162.24 145.133 145.992 162.663 124.67 162.663C103.348 162.663 83.75 142.503 83.75 120.6C83.75 98.6977 101.03 80.9569 122.352 80.9569C143.673 80.9569 162.24 101.343 162.24 123.235Z" fill="white"/>
<path d="M162.24 123.235C162.24 123.235 162.24 123.019 162.211 122.592C162.182 122.165 162.211 121.526 162.12 120.672C161.952 118.242 161.567 115.833 160.968 113.472C160.776 112.704 160.536 111.902 160.286 111.072C160.037 110.242 159.73 109.358 159.36 108.466C158.611 106.513 157.719 104.618 156.691 102.797C154.204 98.3364 150.977 94.3307 147.149 90.9504C144.925 88.9897 142.502 87.2667 139.92 85.8096C138.547 85.0395 137.13 84.3503 135.677 83.7456C134.162 83.1271 132.608 82.6092 131.026 82.1952C124.608 80.4624 117.197 80.6928 110.122 83.1168C102.68 85.7124 96.207 90.5146 91.5648 96.8832C89.1239 100.237 87.2196 103.95 85.92 107.89C83.878 113.994 83.3589 120.504 84.408 126.854C84.7704 128.941 85.2919 130.996 85.968 133.003C87.3079 136.93 89.1971 140.647 91.5792 144.043C96.0679 150.51 102.173 155.686 109.286 159.058C112.594 160.599 116.107 161.655 119.717 162.192C123.123 162.689 126.583 162.689 129.989 162.192C136.132 161.33 141.949 158.9 146.88 155.136C150.944 152.038 154.34 148.151 156.864 143.707C158.759 140.351 160.173 136.744 161.064 132.994C161.622 130.628 161.977 128.219 162.125 125.794C162.197 124.958 162.182 124.32 162.206 123.874C162.23 123.427 162.235 123.226 162.235 123.226C162.235 123.226 162.235 123.446 162.235 123.874C162.235 124.301 162.235 124.944 162.182 125.794C162.054 128.23 161.713 130.65 161.165 133.027C160.286 136.791 158.88 140.413 156.989 143.784C154.472 148.262 151.07 152.182 146.99 155.304C143.135 158.237 138.737 160.377 134.05 161.6C129.363 162.822 124.48 163.104 119.683 162.427C116.051 161.889 112.516 160.83 109.186 159.283C102.036 155.897 95.8979 150.697 91.3824 144.202C88.9831 140.79 87.0809 137.055 85.7328 133.109C85.0507 131.09 84.5259 129.021 84.1632 126.922C83.1054 120.533 83.6278 113.982 85.6848 107.842C86.9912 103.88 88.9087 100.147 91.368 96.7776C96.0402 90.3705 102.556 85.5412 110.045 82.9344C117.163 80.5056 124.622 80.28 131.078 82.0368C132.669 82.4533 134.231 82.9744 135.754 83.5968C137.214 84.207 138.637 84.9026 140.016 85.68C142.607 87.1461 145.036 88.8804 147.264 90.8544C151.091 94.2425 154.315 98.2545 156.802 102.72C157.829 104.548 158.718 106.451 159.461 108.413C159.83 109.31 160.094 110.198 160.382 111.029C160.67 111.859 160.862 112.68 161.054 113.453C161.64 115.815 162.011 118.224 162.163 120.653C162.23 121.483 162.206 122.126 162.226 122.573C162.245 123.019 162.24 123.235 162.24 123.235Z" fill="#263238"/>
<path d="M132.614 90.3361L130.804 96.9841L129.264 96.5665L130.737 91.1521L129.408 90.7921L129.744 89.5585L132.614 90.3361Z" fill="#263238"/>
<path d="M137.28 97.3968L136.939 98.6496L131.914 97.2816L132.187 96.288L135.408 94.5648C135.678 94.4306 135.926 94.2558 136.142 94.0464C136.279 93.8989 136.379 93.7214 136.435 93.528C136.474 93.4136 136.485 93.2914 136.466 93.172C136.448 93.0525 136.401 92.9392 136.33 92.8416C136.14 92.619 135.882 92.4668 135.595 92.4096C135.325 92.3347 135.042 92.3183 134.765 92.3616C134.498 92.4111 134.248 92.5285 134.04 92.7024L133.104 91.68C133.48 91.3598 133.937 91.1475 134.424 91.0656C134.976 90.9716 135.543 91.0061 136.08 91.1664C136.528 91.277 136.948 91.4797 137.314 91.7616C137.62 91.998 137.855 92.3156 137.99 92.6784C138.109 93.0435 138.109 93.4366 137.99 93.8016C137.905 94.1538 137.741 94.482 137.51 94.7616C137.172 95.1101 136.774 95.3947 136.334 95.6016L134.414 96.6288L137.28 97.3968Z" fill="#263238"/>
<path d="M148.857 100.397L147.633 107.179L146.068 106.896L147.062 101.376L145.704 101.131L145.929 99.8737L148.857 100.397Z" fill="#263238"/>
<path d="M156.057 118.958L155.832 120.24L150.72 119.314L150.902 118.296L153.965 116.299C154.221 116.142 154.451 115.946 154.646 115.718C154.772 115.561 154.858 115.375 154.896 115.176C154.924 115.059 154.924 114.937 154.895 114.82C154.867 114.704 154.811 114.595 154.733 114.504C154.524 114.301 154.254 114.173 153.965 114.139C153.688 114.086 153.403 114.094 153.129 114.163C152.868 114.236 152.63 114.375 152.438 114.566L151.425 113.606C151.771 113.252 152.208 113 152.688 112.877C153.229 112.737 153.795 112.721 154.344 112.829C154.799 112.901 155.235 113.064 155.625 113.309C155.951 113.52 156.212 113.818 156.379 114.168C156.535 114.517 156.578 114.906 156.504 115.282C156.441 115.642 156.296 115.984 156.081 116.28C155.776 116.664 155.403 116.989 154.982 117.24L153.158 118.43L156.057 118.958Z" fill="#263238"/>
<path d="M154.949 132.413C155.204 132.82 155.291 133.31 155.193 133.781C155.125 134.168 154.949 134.527 154.685 134.818C154.391 135.128 154.015 135.346 153.6 135.446C153.07 135.563 152.521 135.563 151.992 135.446C151.515 135.361 151.052 135.212 150.614 135.005C150.213 134.819 149.847 134.564 149.534 134.251L150.36 133.162C150.595 133.411 150.871 133.619 151.176 133.776C151.493 133.943 151.835 134.06 152.189 134.122C152.508 134.198 152.842 134.176 153.149 134.059C153.269 134.01 153.374 133.931 153.454 133.829C153.534 133.728 153.586 133.607 153.605 133.478C153.705 132.922 153.331 132.571 152.486 132.418L151.771 132.288L151.953 131.251L153.633 129.926L150.753 129.403L150.979 128.146L155.726 129L155.544 130.018L153.701 131.52C154.207 131.665 154.648 131.981 154.949 132.413Z" fill="#263238"/>
<path d="M148.181 146.227L147.077 146.026L146.817 147.466L145.286 147.192L145.545 145.752L141.893 145.094L142.085 144.038L146.054 140.314L147.701 140.611L144.005 144.154L145.824 144.485L146.054 143.213L147.533 143.482L147.307 144.749L148.411 144.946L148.181 146.227Z" fill="#263238"/>
<path d="M135.36 151.594C135.55 151.819 135.684 152.086 135.754 152.372C135.824 152.658 135.827 152.957 135.763 153.245C135.698 153.644 135.521 154.016 135.254 154.32C134.961 154.638 134.58 154.862 134.16 154.963C133.629 155.091 133.077 155.099 132.542 154.987C132.068 154.901 131.606 154.752 131.17 154.546C130.763 154.363 130.394 154.108 130.08 153.792L130.915 152.707C131.149 152.955 131.423 153.161 131.726 153.317C132.04 153.484 132.379 153.601 132.73 153.662C133.049 153.736 133.384 153.713 133.69 153.595C133.809 153.541 133.913 153.458 133.993 153.354C134.073 153.25 134.127 153.128 134.148 152.999C134.17 152.869 134.16 152.737 134.118 152.612C134.077 152.488 134.006 152.375 133.91 152.285C133.559 152.04 133.151 151.888 132.725 151.843L130.992 151.531L132.029 147.778L136.162 148.522L135.936 149.784L133.133 149.28L132.792 150.547L133.344 150.648C134.104 150.725 134.815 151.058 135.36 151.594Z" fill="#263238"/>
<path d="M119.294 151.267C119.607 151.495 119.851 151.803 120 152.16C120.148 152.528 120.187 152.932 120.11 153.322C120.042 153.747 119.848 154.141 119.553 154.455C119.263 154.758 118.894 154.974 118.488 155.078C118.045 155.19 117.583 155.204 117.134 155.117C116.718 155.066 116.318 154.926 115.961 154.707C115.604 154.487 115.298 154.193 115.065 153.845C114.614 153.041 114.49 152.093 114.72 151.2C114.825 150.513 115.097 149.862 115.512 149.304C115.879 148.825 116.38 148.465 116.952 148.272C117.561 148.083 118.208 148.048 118.833 148.171C119.184 148.233 119.526 148.338 119.851 148.483C120.138 148.599 120.404 148.761 120.638 148.963L119.851 150.01C119.513 149.705 119.092 149.508 118.641 149.443C118.396 149.388 118.143 149.383 117.895 149.428C117.648 149.472 117.412 149.566 117.201 149.703C116.767 150.036 116.478 150.524 116.395 151.066C116.657 150.898 116.951 150.786 117.257 150.735C117.564 150.683 117.878 150.695 118.181 150.768C118.585 150.846 118.967 151.017 119.294 151.267ZM118.133 153.806C118.249 153.729 118.349 153.628 118.426 153.511C118.502 153.393 118.555 153.262 118.579 153.124C118.604 152.985 118.601 152.844 118.569 152.707C118.538 152.57 118.479 152.442 118.397 152.328C118.195 152.095 117.915 151.943 117.609 151.901C117.305 151.837 116.988 151.885 116.717 152.035C116.592 152.105 116.484 152.201 116.401 152.317C116.318 152.433 116.262 152.567 116.237 152.707C116.209 152.844 116.211 152.986 116.243 153.122C116.276 153.258 116.337 153.385 116.424 153.495C116.634 153.737 116.926 153.893 117.245 153.931C117.546 154.002 117.862 153.957 118.133 153.806Z" fill="#263238"/>
<path d="M107.966 141.35L107.784 142.368L104.227 147.677L102.523 147.37L105.945 142.31L103.699 141.902L103.502 143.006L102.105 142.757L102.533 140.357L107.966 141.35Z" fill="#263238"/>
<path d="M98.9038 132.418C99.0352 132.728 99.0687 133.072 98.9998 133.402C98.9393 133.801 98.7426 134.167 98.443 134.438C98.1218 134.722 97.7278 134.91 97.3054 134.981C96.7949 135.079 96.2703 135.079 95.7598 134.981C95.2511 134.896 94.7627 134.717 94.3198 134.453C93.9527 134.236 93.6522 133.922 93.451 133.546C93.272 133.186 93.218 132.778 93.2974 132.384C93.351 132.05 93.5031 131.739 93.7342 131.491C93.9749 131.242 94.2784 131.063 94.6126 130.973C94.3959 130.787 94.2306 130.549 94.1326 130.282C94.0359 130.011 94.0159 129.718 94.075 129.437C94.1338 129.068 94.3147 128.73 94.5886 128.477C94.8832 128.216 95.2433 128.04 95.6302 127.968C96.5671 127.809 97.5303 127.979 98.3566 128.448C98.6977 128.647 98.9756 128.938 99.1582 129.288C99.3274 129.623 99.3781 130.005 99.3022 130.373C99.2581 130.657 99.1387 130.924 98.9566 131.146C98.7671 131.362 98.5261 131.527 98.2558 131.626C98.5395 131.826 98.7634 132.1 98.9038 132.418ZM96.9598 133.718C97.0865 133.658 97.1964 133.567 97.28 133.454C97.3637 133.341 97.4185 133.209 97.4398 133.07C97.4703 132.935 97.4665 132.793 97.4288 132.659C97.3911 132.525 97.3206 132.402 97.2238 132.302C96.9834 132.065 96.6713 131.913 96.3358 131.87C96.0141 131.793 95.6758 131.827 95.3758 131.966C95.2514 132.033 95.1437 132.126 95.0607 132.24C94.9778 132.354 94.9217 132.485 94.8967 132.624C94.8718 132.762 94.8786 132.905 94.9167 133.04C94.9548 133.176 95.0231 133.301 95.1166 133.406C95.3519 133.642 95.6595 133.793 95.9902 133.834C96.3173 133.903 96.658 133.862 96.9598 133.718ZM95.9998 129.202C95.8931 129.259 95.8014 129.34 95.7321 129.439C95.6629 129.539 95.6181 129.653 95.6014 129.773C95.5746 129.889 95.5764 130.01 95.6065 130.125C95.6366 130.241 95.6941 130.347 95.7742 130.435C95.9673 130.635 96.2232 130.762 96.499 130.795C96.771 130.858 97.0561 130.829 97.3102 130.714C97.4173 130.659 97.5098 130.579 97.58 130.482C97.6501 130.384 97.6959 130.271 97.7134 130.152C97.7391 130.033 97.7364 129.91 97.7056 129.792C97.6747 129.675 97.6165 129.566 97.5358 129.475C97.338 129.276 97.0797 129.148 96.8014 129.11C96.5317 129.046 96.2481 129.078 95.9998 129.202Z" fill="#263238"/>
<path d="M97.9198 114.994C98.3721 115.794 98.4992 116.737 98.275 117.629C98.175 118.324 97.9046 118.984 97.4878 119.549C97.1231 120.03 96.621 120.39 96.0478 120.581C95.4371 120.771 94.7883 120.804 94.1614 120.677C93.8124 120.617 93.4722 120.513 93.1486 120.37C92.8629 120.254 92.5985 120.092 92.3662 119.89L93.1534 118.843C93.4894 119.151 93.9115 119.349 94.363 119.41C94.6084 119.466 94.8627 119.472 95.1103 119.426C95.3579 119.381 95.5936 119.285 95.803 119.146C96.2368 118.809 96.5267 118.32 96.6142 117.778C96.351 117.947 96.0564 118.061 95.7479 118.114C95.4395 118.167 95.1235 118.157 94.819 118.085C94.4074 118.016 94.0177 117.852 93.6814 117.605C93.3693 117.377 93.1253 117.068 92.9758 116.712C92.8223 116.343 92.7839 115.937 92.8654 115.546C92.9305 115.122 93.123 114.729 93.4174 114.418C93.7077 114.115 94.0767 113.898 94.483 113.794C94.926 113.682 95.388 113.669 95.8366 113.755C96.253 113.798 96.655 113.931 97.0148 114.145C97.3746 114.359 97.6834 114.648 97.9198 114.994ZM96.2782 116.808C96.3987 116.736 96.502 116.639 96.5808 116.523C96.6596 116.407 96.7119 116.275 96.7342 116.136C96.7649 116 96.7644 115.858 96.7329 115.722C96.7013 115.585 96.6394 115.458 96.5518 115.349C96.3426 115.108 96.0522 114.953 95.7358 114.912C95.4407 114.847 95.1318 114.891 94.867 115.037C94.7504 115.115 94.6507 115.215 94.574 115.333C94.4972 115.45 94.4449 115.582 94.4203 115.72C94.3956 115.858 94.3991 115.999 94.4305 116.136C94.4619 116.273 94.5206 116.402 94.603 116.515C94.8124 116.74 95.0893 116.889 95.3916 116.942C95.6938 116.995 96.0051 116.948 96.2782 116.808Z" fill="#263238"/>
<path d="M100.598 99.6528L98.9421 106.339L97.3965 105.955L98.7453 100.512L97.4061 100.181L97.7133 98.9376L100.598 99.6528Z" fill="#263238"/>
<path d="M101.568 106.675C101.194 106.274 100.943 105.774 100.843 105.235C100.644 103.924 100.974 102.588 101.76 101.52C102.015 101.208 102.333 100.953 102.693 100.772C103.053 100.59 103.447 100.486 103.85 100.467C104.253 100.448 104.655 100.513 105.031 100.659C105.407 100.805 105.748 101.028 106.032 101.314C106.406 101.715 106.657 102.214 106.757 102.754C106.948 104.065 106.617 105.399 105.835 106.469C105.58 106.781 105.262 107.036 104.902 107.217C104.542 107.399 104.148 107.502 103.745 107.522C103.342 107.541 102.94 107.476 102.564 107.33C102.188 107.184 101.847 106.961 101.563 106.675H101.568ZM104.362 105.854C104.751 105.423 105.01 104.891 105.11 104.318C105.292 103.766 105.31 103.173 105.163 102.61C105.102 102.421 104.994 102.252 104.85 102.116C104.705 101.981 104.528 101.885 104.336 101.837C104.144 101.789 103.943 101.791 103.752 101.842C103.561 101.893 103.386 101.992 103.243 102.13C102.855 102.562 102.596 103.094 102.494 103.666C102.313 104.22 102.295 104.815 102.442 105.379C102.499 105.567 102.605 105.737 102.749 105.87C102.893 106.003 103.071 106.096 103.262 106.138C103.454 106.192 103.657 106.194 103.85 106.144C104.043 106.095 104.22 105.995 104.362 105.854Z" fill="#263238"/>
<path d="M115.584 90.2401L113.923 96.9265L112.377 96.5425L113.726 91.0993L112.392 90.7681L112.699 89.5249L115.584 90.2401Z" fill="#263238"/>
<path d="M119.328 91.1472L117.667 97.8336L116.122 97.4496L117.47 92.0064L116.131 91.6752L116.443 90.432L119.328 91.1472Z" fill="#263238"/>
<g opacity="0.3">
<path d="M84.8351 123.178C84.8351 101.285 102.115 83.5393 123.441 83.5393C139.161 83.5393 153.379 94.6321 159.763 109.234C154.003 93.3937 139.037 80.9569 122.395 80.9569C101.078 80.9569 83.7935 98.7169 83.7935 120.6C83.8282 126.137 85.0235 131.605 87.3023 136.651C85.6911 132.341 84.8558 127.779 84.8351 123.178Z" fill="black"/>
</g>
<path d="M126.379 72.2449C126.235 71.4721 117.571 72.4081 107.021 74.3425C96.4704 76.2769 88.0368 78.4705 88.176 79.2433C88.3152 80.0161 96.984 79.0753 107.534 77.1457C118.085 75.2161 126.518 73.0177 126.379 72.2449Z" fill="#62BFCC"/>
<path d="M107.27 74.2896L88.176 79.2336C88.176 79.2336 86.0784 66.4176 104.534 62.7264" fill="#62BFCC"/>
<path d="M126.379 72.2449C126.379 72.2449 124.459 59.8129 107.27 62.1313C106.761 62.2033 104.534 62.7265 104.534 62.7265L106.79 74.3617L126.379 72.2449Z" fill="#62BFCC"/>
<path d="M100.483 64.0896C100.335 63.0296 100.603 61.9536 101.229 61.086C101.856 60.2183 102.793 59.6262 103.846 59.433C104.899 59.2398 105.985 59.4605 106.879 60.0491C107.773 60.6377 108.405 61.5487 108.643 62.592" fill="#62BFCC"/>
<path d="M168 82.3345C168.439 82.0111 168.938 81.7775 169.468 81.6468C169.997 81.5162 170.548 81.4912 171.087 81.5732C171.626 81.6552 172.144 81.8427 172.611 82.1248C173.078 82.407 173.485 82.7783 173.808 83.2177C174.131 83.657 174.365 84.1558 174.496 84.6854C174.626 85.2151 174.651 85.7653 174.569 86.3046C174.487 86.8439 174.3 87.3618 174.018 87.8287C173.736 88.2956 173.364 88.7023 172.925 89.0257" fill="#62BFCC"/>
<g opacity="0.2">
<path d="M129.091 127.128L129.254 125.28L125.357 125.371C125.357 125.338 125.357 125.309 125.357 125.28C125.357 124.652 125.148 124.042 124.762 123.547L127.325 109.834C127.368 109.61 127.353 109.378 127.282 109.162C127.199 108.937 127.064 108.736 126.888 108.574C126.712 108.412 126.5 108.295 126.27 108.232C126.039 108.168 125.797 108.161 125.563 108.21C125.329 108.259 125.11 108.363 124.925 108.514H124.896C124.647 108.72 124.477 109.007 124.416 109.325L122.227 120.12L115.339 100.968L114.96 100.44C114.206 99.3984 112.473 100.09 112.761 101.323C112.759 101.346 112.759 101.368 112.761 101.39C113.078 102.662 116.942 113.774 120.206 123.091C119.893 123.36 119.64 123.692 119.466 124.066C119.292 124.441 119.201 124.848 119.198 125.261C119.198 125.338 119.198 125.414 119.198 125.496L88.5503 126.24L119.75 126.926C120.012 127.292 120.35 127.595 120.742 127.816C121.133 128.036 121.568 128.168 122.016 128.203C123.629 132.802 124.805 136.128 124.805 136.128L127.593 135.067L124.714 127.09L124.752 127.037L129.091 127.128Z" fill="black"/>
</g>
<path d="M122.985 124.723L126.297 107.597C126.357 107.268 126.526 106.968 126.777 106.747H126.806C126.992 106.59 127.213 106.482 127.45 106.431C127.688 106.381 127.934 106.389 128.167 106.457C128.4 106.524 128.613 106.648 128.787 106.818C128.961 106.987 129.09 107.197 129.163 107.429C129.236 107.657 129.253 107.899 129.211 108.134L126.12 125.458L122.985 124.723Z" fill="#455A64"/>
<path d="M116.842 98.2753C116.684 98.0434 116.45 97.8734 116.181 97.7941C115.912 97.7147 115.624 97.731 115.365 97.8402C115.107 97.9493 114.894 98.1446 114.764 98.3928C114.633 98.641 114.592 98.9268 114.648 99.2017V99.2737C115.205 101.611 126.648 135.686 126.648 135.686L129.437 134.573L117.192 98.8273L116.842 98.2753Z" fill="#455A64"/>
<path d="M130.987 126.25L131.15 124.31L90.4512 125.314L130.987 126.25Z" fill="#263238"/>
<path d="M124.181 127.392C125.883 127.392 127.262 126.012 127.262 124.31C127.262 122.609 125.883 121.229 124.181 121.229C122.479 121.229 121.099 122.609 121.099 124.31C121.099 126.012 122.479 127.392 124.181 127.392Z" fill="#62BFCC"/>
<g opacity="0.3">
<path d="M126.379 72.2449C126.235 71.4721 117.571 72.4081 107.021 74.3425C96.4704 76.2769 88.0368 78.4705 88.176 79.2433C88.3152 80.0161 96.984 79.0753 107.534 77.1457C118.085 75.2161 126.518 73.0177 126.379 72.2449Z" fill="black"/>
</g>
<path d="M110.736 61.824C110.736 61.8672 110.006 61.8768 108.816 61.9824C107.293 62.1196 105.781 62.3553 104.289 62.688C102.799 63.0276 101.332 63.4621 99.8975 63.9888C98.7983 64.3968 98.1359 64.6992 98.1167 64.6608C98.2534 64.5564 98.4036 64.4708 98.5631 64.4064C98.8511 64.2528 99.2879 64.0512 99.8351 63.8256C101.261 63.2421 102.733 62.7797 104.237 62.4432C105.74 62.1045 107.268 61.891 108.806 61.8048C109.392 61.776 109.872 61.7712 110.203 61.8048C110.381 61.7886 110.56 61.795 110.736 61.824Z" fill="#263238"/>
<path d="M104.76 74.736C104.793 75.2448 106.296 82.6272 106.296 82.6272L110.673 81.5184L108.854 73.6512L104.76 74.736Z" fill="#62BFCC"/>
<path d="M116.16 72.6864C116.09 72.7166 116.015 72.736 115.939 72.744L115.291 72.8688L112.891 73.2864C110.875 73.6416 108.091 74.1408 105.029 74.7264C101.966 75.312 99.2015 75.9168 97.1999 76.3488L94.8335 76.8624L94.1855 76.9968C94.1097 77.0133 94.0326 77.0229 93.9551 77.0256C94.0242 76.9876 94.0986 76.9601 94.1759 76.944L94.8095 76.7712C95.3615 76.6224 96.1679 76.416 97.1615 76.1808C99.1535 75.7008 101.913 75.0816 104.981 74.4816C108.048 73.8816 110.841 73.4064 112.862 73.0992C113.875 72.9456 114.696 72.8304 115.262 72.7584L115.915 72.6816C115.996 72.6701 116.079 72.6718 116.16 72.6864Z" fill="#263238"/>
<path d="M119.597 78.648C119.332 78.7028 119.065 78.7397 118.795 78.7584C118.277 78.8064 117.528 78.8976 116.611 79.0416C115.694 79.1856 114.605 79.392 113.414 79.68C112.224 79.968 110.923 80.3568 109.574 80.832C108.226 81.3072 107.002 81.8592 105.898 82.392C104.794 82.9248 103.824 83.4672 103.018 83.9472C102.211 84.4272 101.578 84.8352 101.155 85.128C100.938 85.2887 100.709 85.4316 100.469 85.5552C100.667 85.3698 100.879 85.1997 101.102 85.0464C101.515 84.7296 102.134 84.2976 102.922 83.7984C103.709 83.2992 104.678 82.7472 105.802 82.1856C107.003 81.5913 108.235 81.061 109.493 80.5968C110.752 80.1479 112.033 79.7666 113.333 79.4544C114.538 79.1808 115.637 78.9744 116.563 78.8688C117.49 78.7632 118.243 78.6768 118.762 78.6576C119.039 78.6288 119.319 78.6256 119.597 78.648Z" fill="#263238"/>
<path d="M153.552 93.7249L162.84 87.4081L165.537 90.9505L155.659 97.1521L153.552 93.7249Z" fill="#62BFCC"/>
<path d="M168.624 96C168.479 95.8434 168.351 95.6729 168.24 95.4912C167.976 95.112 167.649 94.6368 167.251 94.0512C166.42 92.8464 165.254 91.2 163.92 89.4144C162.585 87.6288 161.323 86.0544 160.372 84.9456C159.892 84.3888 159.513 83.9472 159.24 83.64C159.09 83.4937 158.955 83.3329 158.836 83.16C159.012 83.2819 159.173 83.4237 159.316 83.5824C159.609 83.8704 160.022 84.2928 160.512 84.84C161.496 85.9248 162.782 87.4896 164.126 89.2752C165.47 91.0608 166.608 92.7312 167.404 93.96C167.803 94.5744 168.115 95.0784 168.326 95.4288C168.444 95.6088 168.544 95.8001 168.624 96Z" fill="#263238"/>
<path d="M175.142 91.6801C175.104 91.6801 174.811 90.9601 174.254 89.8177C173.528 88.3311 172.69 86.9015 171.749 85.5409C170.803 84.1831 169.755 82.8993 168.614 81.7009C167.736 80.7841 167.174 80.2609 167.174 80.2177C167.332 80.3153 167.48 80.4279 167.616 80.5537C167.89 80.7841 168.274 81.1297 168.73 81.5809C169.92 82.7569 170.997 84.0426 171.946 85.4209C172.896 86.792 173.719 88.2477 174.403 89.7697C174.662 90.3505 174.854 90.8305 174.974 91.1713C175.048 91.3345 175.104 91.5051 175.142 91.6801Z" fill="#263238"/>
<path d="M156.072 96.3841C155.906 96.2229 155.757 96.0461 155.625 95.8561C155.352 95.5105 154.953 95.0065 154.44 94.4161C153.118 92.8339 151.701 91.3335 150.197 89.9233C148.693 88.5102 147.106 87.1879 145.445 85.9633C144.806 85.4833 144.283 85.1233 143.918 84.8689C143.721 84.7502 143.536 84.6119 143.366 84.4561C143.578 84.5475 143.78 84.6584 143.971 84.7873C144.355 85.0129 144.893 85.3681 145.55 85.8193C147.243 87.0087 148.847 88.3193 150.35 89.7409C151.865 91.1571 153.274 92.6828 154.565 94.3057C155.045 94.9249 155.438 95.4481 155.688 95.8129C155.832 95.9917 155.961 96.1828 156.072 96.3841Z" fill="#263238"/>
<path d="M81.1199 109.128C81.1199 109.128 81.0863 109.219 81.0143 109.387L80.6831 110.126C80.3999 110.779 79.9727 111.739 79.4831 113.006C75.7869 121.86 75.6305 131.795 79.0463 140.76C80.1541 143.912 81.6095 146.93 83.3855 149.76C85.2886 152.802 87.5283 155.62 90.0623 158.16C91.3464 159.449 92.7005 160.667 94.1183 161.808C95.501 162.903 96.9432 163.92 98.4383 164.856C99.8862 165.754 101.383 166.572 102.921 167.304C104.406 167.99 105.929 168.591 107.481 169.104C110.358 170.057 113.34 170.653 116.361 170.88C118.989 171.062 121.629 170.972 124.238 170.611C128.025 170.086 131.71 168.984 135.163 167.342C136.387 166.766 137.304 166.253 137.923 165.902L138.624 165.494L138.864 165.36C138.79 165.416 138.713 165.467 138.633 165.514L137.947 165.946C137.337 166.31 136.425 166.838 135.206 167.434C131.756 169.114 128.066 170.248 124.267 170.794C121.645 171.17 118.99 171.27 116.347 171.091C113.312 170.875 110.315 170.285 107.424 169.334C105.861 168.824 104.329 168.223 102.835 167.534C101.286 166.801 99.7797 165.98 98.3231 165.077C96.8129 164.14 95.3577 163.118 93.9647 162.014C92.5379 160.87 91.1758 159.647 89.8847 158.352C87.333 155.799 85.0786 152.965 83.1647 149.904C81.3772 147.059 79.9106 144.024 78.7919 140.856C76.8585 135.489 76.0895 129.772 76.5359 124.085C76.9369 120.27 77.8892 116.533 79.3631 112.992C80.3951 110.453 81.1199 109.128 81.1199 109.128Z" fill="#263238"/>
<path d="M78.0958 161.323C82.4649 160.624 86.5734 158.788 90.0094 156C90.5374 155.568 91.6414 154.891 91.9294 154.258C92.4958 153.024 90.883 150.936 90.0094 150.235C89.1358 149.534 87.1294 148.584 86.0686 149.232C85.2334 149.741 84.5902 151.536 83.9854 152.347C82.2805 154.645 80.1807 156.621 77.7838 158.184C77.2575 158.472 76.7941 158.862 76.4206 159.331C76.2415 159.577 76.145 159.874 76.145 160.178C76.145 160.483 76.2415 160.779 76.4206 161.026C76.8238 161.448 77.5102 161.414 78.0958 161.323Z" fill="#62BFCC"/>
<path d="M77.3613 158.549C77.3613 158.52 77.8797 158.107 78.7149 157.406C79.8058 156.501 80.8488 155.54 81.8397 154.526C82.8284 153.505 83.764 152.433 84.6429 151.315C84.9847 150.834 85.3533 150.373 85.7469 149.933C85.6891 150.082 85.6117 150.222 85.5165 150.35C85.3533 150.61 85.1037 150.979 84.7821 151.421C83.099 153.74 81.0931 155.808 78.8253 157.56C78.3933 157.896 78.0333 158.155 77.7741 158.323C77.6487 158.419 77.5095 158.495 77.3613 158.549Z" fill="#263238"/>
<path d="M91.1184 154.978C90.8151 155.36 90.4689 155.706 90.0864 156.01C89.1983 156.778 88.246 157.468 87.24 158.074C86.2354 158.679 85.1859 159.207 84.1008 159.653C83.6622 159.863 83.2019 160.024 82.728 160.133C83.1476 159.894 83.5821 159.682 84.0288 159.499C85.0832 159.008 86.1118 158.464 87.1104 157.867C88.1108 157.265 89.0727 156.602 89.9904 155.88C90.3477 155.557 90.7244 155.255 91.1184 154.978Z" fill="#263238"/>
<path d="M91.5408 154.56C91.5902 154.114 91.6062 153.665 91.5888 153.216C91.5046 152.142 91.0359 151.135 90.2688 150.379C89.4779 149.65 88.4352 149.256 87.36 149.28C86.9141 149.313 86.4713 149.378 86.0352 149.477C86.134 149.402 86.2464 149.346 86.3664 149.314C86.6834 149.194 87.0168 149.123 87.3552 149.102C87.9183 149.064 88.4833 149.141 89.0151 149.331C89.5469 149.52 90.0341 149.816 90.4464 150.202C91.2592 150.996 91.7324 152.075 91.7664 153.211C91.7829 153.549 91.7505 153.886 91.6704 154.214C91.6516 154.337 91.6074 154.455 91.5408 154.56Z" fill="#263238"/>
<path d="M146.15 117.259C146.185 117.382 146.212 117.507 146.232 117.634C146.275 117.883 146.361 118.248 146.414 118.723C146.592 120.072 146.644 121.435 146.568 122.794C146.408 126.29 145.443 129.701 143.749 132.763C142.055 135.825 139.676 138.455 136.8 140.448C135.148 141.61 133.35 142.549 131.453 143.242C130.179 143.717 128.862 144.069 127.521 144.293C127.041 144.384 126.677 144.408 126.427 144.442C126.3 144.464 126.172 144.474 126.043 144.47C126.166 144.437 126.291 144.411 126.417 144.394C126.667 144.341 127.037 144.302 127.502 144.197C128.828 143.937 130.129 143.563 131.39 143.078C133.262 142.365 135.036 141.418 136.67 140.261C140.722 137.428 143.736 133.346 145.253 128.64C146.297 125.445 146.66 122.067 146.318 118.723C146.28 118.243 146.208 117.878 146.184 117.629C146.16 117.507 146.148 117.383 146.15 117.259Z" fill="#263238"/>
<path d="M142.306 124.387C142.357 124.582 142.386 124.781 142.392 124.982C142.421 125.216 142.434 125.452 142.43 125.688C142.447 126.008 142.447 126.328 142.43 126.648C142.383 127.457 142.262 128.26 142.07 129.048C141.827 130.018 141.489 130.961 141.062 131.866C140.622 132.762 140.095 133.612 139.488 134.405C138.987 135.048 138.428 135.645 137.818 136.186C137.568 136.426 137.338 136.608 137.098 136.781C136.914 136.928 136.722 137.065 136.522 137.189C136.359 137.31 136.183 137.413 135.998 137.496C135.97 137.453 136.699 137.016 137.698 136.056C138.28 135.503 138.818 134.904 139.306 134.266C140.492 132.69 141.356 130.896 141.85 128.986C142.047 128.207 142.182 127.414 142.253 126.614C142.354 125.246 142.258 124.392 142.306 124.387Z" fill="#263238"/>
<path d="M200.16 124.037C200.172 124.247 200.159 124.458 200.122 124.666C200.057 125.24 199.951 125.81 199.805 126.37C199.596 127.215 199.174 127.993 198.581 128.63C198.22 129.009 197.779 129.301 197.29 129.485C196.756 129.668 196.182 129.706 195.629 129.595C194.614 129.327 193.643 128.912 192.749 128.362C191.904 127.882 191.174 127.402 190.574 127.003C189.974 126.605 189.514 126.221 189.202 125.962C189.027 125.836 188.866 125.693 188.722 125.534C188.906 125.636 189.081 125.753 189.245 125.885C189.576 126.12 190.056 126.461 190.685 126.845C191.314 127.229 192.024 127.69 192.869 128.146C193.751 128.675 194.705 129.074 195.701 129.331C196.212 129.437 196.742 129.405 197.237 129.24C197.692 129.073 198.104 128.805 198.442 128.458C199.02 127.85 199.44 127.11 199.666 126.302C199.825 125.755 199.955 125.199 200.054 124.637C200.072 124.434 200.107 124.233 200.16 124.037Z" fill="#263238"/>
<path d="M185.688 120.638C185.713 120.86 185.726 121.083 185.726 121.306C185.75 121.733 185.832 122.347 185.918 123.115C186.054 124.026 185.985 124.956 185.717 125.837C185.542 126.367 185.225 126.838 184.8 127.2C184.325 127.576 183.735 127.778 183.129 127.771C182.544 127.768 181.962 127.68 181.401 127.512C180.003 127.131 178.697 126.469 177.561 125.568C177.08 125.189 176.635 124.766 176.232 124.306C176.088 124.142 175.987 124.008 175.92 123.917C175.881 123.872 175.848 123.822 175.824 123.768C176.403 124.361 177.02 124.916 177.672 125.429C178.391 125.968 179.172 126.417 180 126.768C180.484 126.976 180.983 127.148 181.493 127.282C182.03 127.441 182.588 127.524 183.149 127.526C183.698 127.53 184.233 127.351 184.67 127.018C185.059 126.681 185.351 126.247 185.515 125.76C185.784 124.913 185.866 124.017 185.755 123.134C185.693 122.366 185.64 121.742 185.645 121.306C185.628 121.082 185.643 120.858 185.688 120.638Z" fill="#263238"/>
<path d="M57.5566 86.88C57.508 86.9234 57.4529 86.959 57.3934 86.9856C57.283 87.048 57.1198 87.1392 56.9134 87.2448C56.3066 87.5421 55.685 87.808 55.051 88.0416C54.1117 88.3883 53.1494 88.669 52.171 88.8816C51.619 89.0016 51.0286 89.1024 50.419 89.184C49.7838 89.2798 49.1411 89.3168 48.499 89.2944C47.8628 89.2918 47.2404 89.1087 46.7043 88.7662C46.1681 88.4238 45.7401 87.9361 45.4702 87.36C45.0343 86.4327 44.8679 85.4014 44.9902 84.384C45.0637 83.7107 45.1921 83.0445 45.3742 82.392C45.4284 82.1496 45.5022 81.912 45.595 81.6816C45.5727 81.9297 45.5294 82.1754 45.4654 82.416C45.324 83.0698 45.2246 83.732 45.1678 84.3984C45.0611 85.3843 45.2271 86.3805 45.6478 87.2784C45.904 87.7904 46.2813 88.232 46.747 88.5648C47.2631 88.8991 47.8605 89.0866 48.475 89.1072C49.0994 89.1303 49.7245 89.095 50.3422 89.0016C50.9518 88.9296 51.5326 88.8288 52.0798 88.7184C53.0553 88.5184 54.0172 88.2571 54.9598 87.936C55.7662 87.6672 56.3998 87.4032 56.8414 87.216C57.0706 87.0853 57.3097 86.973 57.5566 86.88Z" fill="#263238"/>
<path d="M70.5601 91.7665C70.3345 91.8683 70.0999 91.9487 69.8593 92.0065C69.4033 92.1361 68.7409 92.3137 67.9105 92.4865C67.0801 92.6593 66.0865 92.8513 64.9729 93.0001C64.4161 93.0721 63.8305 93.1345 63.2209 93.1873C62.5822 93.2633 61.936 93.2504 61.3009 93.1489C60.6484 93.0392 60.0572 92.6985 59.6353 92.1889C59.2604 91.709 59.0112 91.1431 58.9105 90.5425C58.7609 89.5414 58.8464 88.5192 59.1601 87.5569C59.3905 86.7409 59.6113 86.0929 59.7409 85.6369C59.795 85.3976 59.8639 85.162 59.9473 84.9313C59.9358 85.178 59.8972 85.4226 59.8321 85.6609C59.7361 86.1409 59.5393 86.7889 59.3521 87.6049C59.0717 88.538 59.0045 89.5222 59.1553 90.4849C59.2563 91.0449 59.4919 91.572 59.8417 92.0209C60.2289 92.4879 60.7702 92.8011 61.3681 92.9041C61.9795 93.0007 62.6012 93.0136 63.2161 92.9425C63.8209 92.8945 64.4017 92.8369 64.9585 92.7697C66.0673 92.6353 67.0609 92.4721 67.8913 92.3137C68.7217 92.1553 69.3889 92.0065 69.8497 91.9009C70.0822 91.8357 70.3198 91.7907 70.5601 91.7665Z" fill="#263238"/>
<g opacity="0.3">
<path d="M104.693 63.3984C101.429 64.6176 98.1216 65.8656 95.3424 67.9632C92.5632 70.0608 90.3408 73.1664 90.1392 76.6416L102.696 73.7616C102.332 71.9878 102.321 70.1595 102.663 68.3814C103.006 66.6032 103.696 64.91 104.693 63.3984Z" fill="white"/>
</g>
<g opacity="0.3">
<path d="M151.243 75.8401L151.392 75.9745C155.964 78.5855 159.887 82.1953 162.869 86.5345C164.736 84.9796 166.9 83.8201 169.229 83.1265C167.191 80.3754 164.434 78.2397 161.261 76.9542C158.087 75.6687 154.621 75.2832 151.243 75.8401Z" fill="white"/>
</g>
<path d="M97.6077 66.7825C97.6077 66.8305 96.9165 67.0657 95.8845 67.6705C95.2831 68.0227 94.7131 68.4257 94.1805 68.8753C93.5346 69.4338 92.9417 70.0508 92.4093 70.7185C91.8894 71.3957 91.4346 72.1206 91.0509 72.8833C90.7419 73.5096 90.4881 74.1616 90.2925 74.8321C89.9565 75.9793 89.8989 76.7233 89.8509 76.7185C89.8277 76.5448 89.8277 76.3689 89.8509 76.1953C89.8632 75.9904 89.8905 75.7866 89.9325 75.5857C89.973 75.3155 90.0291 75.0478 90.1005 74.7841C90.2787 74.0956 90.5214 73.4254 90.8253 72.7825C91.205 71.9988 91.6634 71.2558 92.1933 70.5649C92.7329 69.8822 93.3427 69.2579 94.0125 68.7025C94.5609 68.2502 95.1526 67.8531 95.7789 67.5169C96.0158 67.3813 96.2611 67.2611 96.5133 67.1569C96.6971 67.0658 96.8881 66.9903 97.0845 66.9313C97.2523 66.8609 97.428 66.811 97.6077 66.7825Z" fill="white"/>
<path d="M103.416 60.6096C103.449 60.6768 102.979 60.9504 102.523 61.4208C102.067 61.8912 101.798 62.3808 101.736 62.3376C101.839 61.927 102.048 61.5509 102.343 61.2475C102.638 60.944 103.008 60.7239 103.416 60.6096Z" fill="white"/>
<path d="M137.203 81.8401L137.088 81.8161L136.757 81.7249C136.464 81.6481 136.042 81.5041 135.49 81.3649C133.93 80.9373 132.349 80.596 130.752 80.3425C120.109 78.613 109.208 81.0282 100.291 87.0913C98.9588 87.9947 97.6768 88.9706 96.4513 90.0145C96.0097 90.3793 95.6881 90.6865 95.4577 90.8785L95.1937 91.1041C95.1361 91.1521 95.1025 91.1761 95.0977 91.1713C95.1211 91.1406 95.1467 91.1117 95.1745 91.0849L95.4193 90.8449C95.6401 90.6385 95.9521 90.3169 96.3793 89.9425C97.5945 88.8623 98.8771 87.8603 100.219 86.9425C109.126 80.7683 120.099 78.3332 130.781 80.1601C132.38 80.4296 133.96 80.7983 135.514 81.2641C136.066 81.4225 136.474 81.5809 136.771 81.6721L137.098 81.7873L137.203 81.8401Z" fill="white"/>
<path d="M168.653 82.9537C168.471 82.7522 168.303 82.5389 168.149 82.3153C167.702 81.731 167.221 81.1732 166.709 80.6449C165.001 78.8945 162.929 77.5412 160.639 76.681C158.35 75.8208 155.899 75.4747 153.461 75.6673C152.723 75.7209 151.988 75.8203 151.262 75.9649C150.997 76.0303 150.728 76.08 150.456 76.1137C150.518 76.0788 150.584 76.0529 150.653 76.0369C150.787 75.9985 150.979 75.9313 151.238 75.8689C151.962 75.6868 152.699 75.5601 153.442 75.4897C155.91 75.246 158.402 75.5728 160.724 76.4451C163.046 77.3173 165.136 78.7115 166.834 80.5201C167.348 81.0626 167.819 81.6435 168.245 82.2577C168.398 82.4689 168.499 82.6513 168.576 82.7665C168.653 82.8817 168.662 82.9489 168.653 82.9537Z" fill="white"/>
<path d="M173.395 83.7745C173.352 83.7745 173.285 83.5585 173.059 83.2945C172.757 82.9253 172.358 82.6477 171.907 82.4929C171.441 82.3422 170.957 82.2535 170.467 82.2289C170.093 82.2001 169.857 82.1761 169.857 82.1377C170.054 82.0669 170.263 82.0374 170.472 82.0513C170.981 82.0275 171.49 82.0975 171.974 82.2577C172.47 82.4253 172.895 82.7529 173.184 83.1889C173.414 83.5201 173.419 83.7745 173.395 83.7745Z" fill="white"/>
<path d="M82.7613 130.56C82.6614 130.299 82.5812 130.031 82.5213 129.758C82.4493 129.499 82.3677 129.182 82.2909 128.798C82.2141 128.414 82.1133 127.997 82.0413 127.522C81.8685 126.562 81.7245 125.434 81.6237 124.162C81.423 121.399 81.56 118.621 82.0317 115.891C82.2573 114.638 82.5117 113.491 82.7757 112.589C82.8957 112.109 83.0397 111.71 83.1549 111.346C83.2701 110.981 83.3805 110.674 83.4765 110.419C83.562 110.154 83.6679 109.896 83.7933 109.646C83.7365 109.92 83.6612 110.19 83.5677 110.453C83.4861 110.707 83.3853 111.019 83.2893 111.413C83.1933 111.806 83.0541 112.195 82.9485 112.661C82.7037 113.587 82.4685 114.706 82.2573 115.954C82.0461 117.202 81.9021 118.594 81.8253 120.053C81.7645 121.425 81.7741 122.8 81.8541 124.171C81.9405 125.434 82.0653 126.571 82.2141 127.531C82.2765 128.011 82.3629 128.434 82.4301 128.808C82.4973 129.182 82.5597 129.504 82.6173 129.768C82.6879 130.027 82.7361 130.292 82.7613 130.56Z" fill="white"/>
<g opacity="0.3">
<path d="M85.5693 159.058C85.5693 159.058 90.2445 159.437 91.6845 158.549C93.1245 157.661 91.1181 154.978 91.1181 154.978L85.5693 159.058Z" fill="black"/>
</g>
<path d="M30.9696 78.1536C30.8944 78.1236 30.8221 78.0866 30.7537 78.0432L30.1537 77.6832C29.8381 77.4961 29.5336 77.291 29.2417 77.0688C28.8398 76.7925 28.4521 76.4961 28.0801 76.1808L27.4273 75.6336C27.2017 75.4416 26.9905 75.216 26.7553 75C26.2753 74.568 25.8337 74.04 25.3537 73.5264C23.3021 71.1702 21.7405 68.4288 20.7601 65.4624C20.5489 64.776 20.3377 64.128 20.2081 63.504C20.1409 63.192 20.0545 62.8944 20.0065 62.6016C19.9585 62.3088 19.9105 62.0304 19.8673 61.7616C19.7854 61.2848 19.7277 60.8042 19.6945 60.3216C19.6531 59.9567 19.6323 59.5897 19.6321 59.2224C19.6321 58.944 19.6321 58.7136 19.6321 58.5216C19.6207 58.442 19.6207 58.3612 19.6321 58.2816C19.6513 58.3603 19.6626 58.4407 19.6657 58.5216C19.6657 58.7088 19.6945 58.9392 19.7185 59.2176C19.7338 59.5823 19.7675 59.9459 19.8193 60.3072C19.8769 60.7296 19.9153 61.2192 20.0257 61.7472C20.0737 62.016 20.1265 62.2896 20.1793 62.5776C20.2321 62.8656 20.3233 63.1632 20.3953 63.4704C20.5297 64.0848 20.7505 64.728 20.9617 65.3904C21.4784 66.8451 22.1175 68.2533 22.8721 69.6C23.6467 70.9332 24.5347 72.197 25.5265 73.3776C26.0065 73.9056 26.4385 74.4192 26.9041 74.8512C27.1297 75.072 27.3361 75.2928 27.5569 75.4896L28.1905 76.0464C28.5889 76.4112 28.9873 76.6896 29.3233 76.9584C29.6083 77.1876 29.9046 77.4023 30.2113 77.6016L30.7777 78C30.9073 78.0912 30.9745 78.144 30.9696 78.1536Z" fill="white"/>
<path d="M23.3613 89.4769C23.2232 89.4377 23.0932 89.3743 22.9773 89.2897C22.6471 89.0854 22.3355 88.8525 22.0461 88.5937C21.6126 88.2068 21.2418 87.755 20.9469 87.2545C20.5807 86.6342 20.3714 85.9339 20.3373 85.2145C20.2979 84.4871 20.4821 83.7652 20.8653 83.1457C21.1916 82.6498 21.6506 82.2557 22.1901 82.0081C22.5497 81.8437 22.942 81.7632 23.3373 81.7729C23.4819 81.7686 23.6258 81.7947 23.7597 81.8497C23.2441 81.8426 22.7337 81.9525 22.2669 82.1713C21.7717 82.4198 21.3548 82.8002 21.0621 83.2705C20.7154 83.8488 20.5483 84.517 20.5821 85.1905C20.6186 85.8646 20.8091 86.5214 21.1389 87.1105C21.4161 87.5962 21.7603 88.0406 22.1613 88.4305C22.8573 89.1361 23.3853 89.4385 23.3613 89.4769Z" fill="white"/>
<path d="M29.2511 98.8801C29.2075 98.5823 29.2406 98.2784 29.3471 97.9969C29.5644 97.301 29.966 96.677 30.5095 96.1911C31.0529 95.7051 31.7177 95.3754 32.4335 95.2369C32.7263 95.1619 33.0334 95.1619 33.3263 95.2369C33.3263 95.2801 32.9855 95.2753 32.4719 95.4049C31.8068 95.5805 31.192 95.9093 30.6767 96.3649C30.1626 96.8237 29.7646 97.3978 29.5151 98.0401C29.3279 98.5441 29.2799 98.8801 29.2511 98.8801Z" fill="white"/>
<path d="M41.2801 88.032C41.1343 88.0274 40.9901 87.9998 40.8529 87.9504C40.4735 87.8482 40.1001 87.7248 39.7345 87.5808C38.5223 87.1071 37.3792 86.4726 36.3361 85.6944C35.2944 84.9127 34.3614 83.9959 33.5617 82.968C33.32 82.6619 33.0972 82.3413 32.8945 82.008C32.8097 81.8901 32.7418 81.7608 32.6929 81.624C32.7265 81.624 33.0673 82.104 33.7009 82.8624C34.5246 83.8448 35.4587 84.7291 36.4849 85.4976C37.514 86.2614 38.6268 86.9056 39.8017 87.4176C40.6897 87.8112 41.2801 87.9936 41.2801 88.032Z" fill="white"/>
<path d="M56.7408 73.4688C56.6146 73.4632 56.4892 73.4455 56.3664 73.416L55.3008 73.2192C54.8208 73.1328 54.2736 73.0177 53.6208 72.8641C52.968 72.7105 52.224 72.5617 51.408 72.3457C49.7712 71.9425 47.8416 71.3856 45.72 70.7232C43.5984 70.0608 41.2896 69.2112 38.9088 68.2464C36.528 67.2816 34.3056 66.2352 32.3136 65.2416C30.3216 64.248 28.5648 63.2736 27.1152 62.4144C26.3856 61.9968 25.7424 61.5889 25.1712 61.2385C24.6 60.8881 24.12 60.5761 23.7312 60.3121L22.8336 59.7072C22.7258 59.6413 22.6232 59.5675 22.5264 59.4865C22.6435 59.5341 22.7547 59.5953 22.8576 59.6688L23.784 60.2305C24.1824 60.4801 24.672 60.7825 25.248 61.1185C25.824 61.4545 26.472 61.8577 27.2112 62.2609C28.6512 63.1009 30.432 64.0417 32.4192 65.0353C34.4064 66.0289 36.6384 67.0368 39.0096 68.016C41.3808 68.9952 43.6848 69.8065 45.7968 70.5025C47.9088 71.1985 49.8288 71.7505 51.456 72.1729C52.2672 72.3985 53.0112 72.5665 53.6592 72.7297C54.3072 72.8929 54.864 73.0224 55.3248 73.1232L56.3808 73.3681C56.5029 73.3936 56.6231 73.4273 56.7408 73.4688Z" fill="white"/>
<path d="M46.1278 94.4977C46.0758 93.8587 46.2077 93.2182 46.5079 92.6518C46.8082 92.0853 47.2642 91.6166 47.8222 91.3009C47.4151 91.7575 47.0488 92.249 46.7278 92.7697C46.4786 93.3275 46.2779 93.9056 46.1278 94.4977Z" fill="white"/>
<path d="M55.6797 102.907C55.7498 102.495 55.8758 102.095 56.0541 101.717C56.4428 100.785 56.9253 99.8961 57.4941 99.0624C58.0531 98.2274 58.6965 97.4522 59.4141 96.7488C59.6965 96.4409 60.0194 96.1729 60.3741 95.952C60.1172 96.2766 59.8381 96.5829 59.5389 96.8688C58.1867 98.3274 57.0694 99.9872 56.2269 101.789C56.0687 102.173 55.8859 102.547 55.6797 102.907Z" fill="white"/>
<path d="M35.0398 106.968C34.992 106.616 35.0198 106.257 35.1214 105.917C35.3249 105.077 35.7247 104.297 36.2878 103.642C36.848 102.984 37.5574 102.471 38.3566 102.144C38.6781 101.992 39.0283 101.91 39.3838 101.904C39.3838 101.947 39.0046 102.034 38.4238 102.307C37.6775 102.667 37.0137 103.177 36.4743 103.806C35.9348 104.434 35.5314 105.168 35.2894 105.96C35.1166 106.56 35.0878 106.973 35.0398 106.968Z" fill="white"/>
<path d="M49.0414 113.366C48.9636 113.08 48.9472 112.781 48.9934 112.488C49.0625 111.771 49.2834 111.078 49.6414 110.453C49.9994 109.823 50.4909 109.279 51.0814 108.859C51.3074 108.665 51.5751 108.526 51.8638 108.451C51.6501 108.648 51.4241 108.831 51.187 108.998C50.6638 109.445 50.2206 109.977 49.8766 110.573C49.538 111.168 49.3057 111.818 49.1902 112.493C49.1603 112.787 49.1106 113.079 49.0414 113.366Z" fill="white"/>
<path d="M185.659 109.92C184.875 109.571 184.034 109.366 183.178 109.315C182.253 109.285 181.329 109.412 180.446 109.69C179.364 110.04 178.334 110.534 177.384 111.158C176.357 111.811 175.43 112.512 174.581 113.136C173.731 113.76 172.944 114.312 172.258 114.73C171.718 115.064 171.155 115.359 170.573 115.613C170.366 115.699 170.203 115.762 170.093 115.8C169.982 115.838 169.92 115.853 169.92 115.843C170.116 115.721 170.321 115.615 170.534 115.526C171.095 115.235 171.64 114.915 172.166 114.566C172.834 114.134 173.606 113.578 174.446 112.939C175.286 112.301 176.218 111.59 177.254 110.933C178.224 110.298 179.277 109.801 180.384 109.454C181.294 109.176 182.247 109.065 183.197 109.128C183.834 109.169 184.461 109.317 185.05 109.565C185.215 109.633 185.375 109.711 185.53 109.8C185.611 109.853 185.664 109.886 185.659 109.92Z" fill="white"/>
<path d="M179.923 135.84C178.85 135.031 177.829 134.156 176.865 133.219C175.85 132.343 174.888 131.407 173.985 130.416C175.061 131.223 176.084 132.099 177.048 133.037C178.064 133.91 179.024 134.847 179.923 135.84Z" fill="white"/>
<path d="M193.214 134.621C192.857 134.507 192.516 134.346 192.202 134.141C191.42 133.687 190.673 133.173 189.97 132.605C189.266 132.035 188.607 131.412 187.997 130.742C187.728 130.479 187.495 130.18 187.306 129.854C187.363 129.802 188.486 131.093 190.123 132.408C191.76 133.723 193.253 134.554 193.214 134.621Z" fill="white"/>
<path d="M208.286 131.63C207.907 131.649 207.528 131.615 207.158 131.53C206.257 131.374 205.371 131.136 204.513 130.819C203.654 130.501 202.827 130.104 202.041 129.634C201.703 129.46 201.392 129.236 201.12 128.971C201.163 128.904 202.608 129.854 204.6 130.584C206.592 131.314 208.32 131.549 208.286 131.63Z" fill="white"/>
<path d="M223.526 116.597C223.441 116.636 223.35 116.665 223.258 116.683L222.48 116.87C221.803 117.038 220.819 117.245 219.6 117.48C216.411 118.076 213.192 118.498 209.957 118.742C206.723 118.981 203.478 119.04 200.237 118.92C198.994 118.872 197.986 118.81 197.294 118.747L196.493 118.67C196.401 118.665 196.309 118.652 196.219 118.632C196.312 118.618 196.405 118.618 196.498 118.632L197.299 118.661C197.995 118.69 198.998 118.728 200.242 118.752C202.723 118.81 206.16 118.781 209.942 118.502C213.725 118.224 217.142 117.734 219.571 117.312C220.795 117.106 221.784 116.923 222.451 116.789L223.238 116.64C223.332 116.614 223.429 116.6 223.526 116.597Z" fill="white"/>
</svg>
