<svg width="240" height="240" viewBox="0 0 240 240" fill="none" xmlns="http://www.w3.org/2000/svg">
<path d="M200.554 111.706C201.102 104.185 200.735 96.6256 199.459 89.1936C198.248 82.5215 196.15 76.0416 193.219 69.9264C178.502 39.1776 143.597 19.4688 109.699 26.304C90.9791 30.072 68.0735 43.176 62.1407 62.5104C57.9455 76.176 59.7407 91.1424 53.0543 104.126C46.1903 117.504 39.2447 129.35 41.0543 145.114C42.9743 162 54.4319 176.75 68.6783 186.014C86.3663 197.534 109.69 203.89 130.747 202.411C172.118 199.512 197.875 152.352 200.554 111.706Z" fill="#62BFCC"/>
<path opacity="0.8" d="M200.554 111.706C201.102 104.185 200.735 96.6256 199.459 89.1936C198.248 82.5215 196.15 76.0416 193.219 69.9264C178.502 39.1776 143.597 19.4688 109.699 26.304C90.9791 30.072 68.0735 43.176 62.1407 62.5104C57.9455 76.176 59.7407 91.1424 53.0543 104.126C46.1903 117.504 39.2447 129.35 41.0543 145.114C42.9743 162 54.4319 176.75 68.6783 186.014C86.3663 197.534 109.69 203.89 130.747 202.411C172.118 199.512 197.875 152.352 200.554 111.706Z" fill="white"/>
<path opacity="0.2" d="M199.781 92.376H181.618C180.494 92.376 179.583 93.2872 179.583 94.4112V103.867C179.583 104.991 180.494 105.902 181.618 105.902H199.781C200.905 105.902 201.816 104.991 201.816 103.867V94.4112C201.816 93.2872 200.905 92.376 199.781 92.376Z" fill="#263238"/>
<path d="M179.962 93.864L189.629 98.8272C189.933 98.98 190.268 99.0596 190.608 99.0596C190.948 99.0596 191.284 98.98 191.588 98.8272L201.504 93.8256" stroke="white" stroke-width="0.75" stroke-linecap="round" stroke-linejoin="round"/>
<path opacity="0.2" d="M60.5953 91.4255C60.5228 91.3316 60.4297 91.2555 60.3232 91.2031C60.2167 91.1507 60.0996 91.1233 59.9809 91.1231H40.1377L39.3601 88.8239C39.3061 88.6764 39.2081 88.5489 39.0793 88.4588C38.9506 88.3686 38.7973 88.3202 38.6401 88.3199H33.6001C33.4063 88.3353 33.2254 88.4231 33.0934 88.5658C32.9615 88.7086 32.8882 88.8959 32.8882 89.0903C32.8882 89.2848 32.9615 89.472 33.0934 89.6148C33.2254 89.7576 33.4063 89.8454 33.6001 89.8607H38.0689L42.9121 104.4C42.9627 104.554 43.0604 104.687 43.1914 104.782C43.3224 104.877 43.48 104.928 43.6417 104.928H43.9249C43.666 105.329 43.5199 105.792 43.502 106.269C43.4841 106.746 43.5951 107.219 43.8233 107.638C44.0515 108.057 44.3885 108.407 44.7987 108.65C45.209 108.894 45.6773 109.023 46.1545 109.023C46.6317 109.023 47.1001 108.894 47.5103 108.65C47.9206 108.407 48.2576 108.057 48.4858 107.638C48.714 107.219 48.8249 106.746 48.8071 106.269C48.7892 105.792 48.6431 105.329 48.3841 104.928H52.0849C51.826 105.329 51.6799 105.792 51.662 106.269C51.6441 106.746 51.7551 107.219 51.9833 107.638C52.2115 108.057 52.5485 108.407 52.9587 108.65C53.369 108.894 53.8373 109.023 54.3145 109.023C54.7917 109.023 55.2601 108.894 55.6703 108.65C56.0806 108.407 56.4176 108.057 56.6458 107.638C56.874 107.219 56.9849 106.746 56.9671 106.269C56.9492 105.792 56.8031 105.329 56.5441 104.928H57.1393C57.3331 104.913 57.5141 104.825 57.646 104.682C57.778 104.539 57.8513 104.352 57.8513 104.158C57.8513 103.963 57.778 103.776 57.646 103.633C57.5141 103.49 57.3331 103.402 57.1393 103.387H44.1793L43.3345 100.848H57.7345C57.904 100.848 58.0687 100.791 58.2031 100.688C58.3375 100.585 58.4343 100.44 58.4785 100.277L60.6721 92.1167C60.7146 92.0036 60.7298 91.8821 60.7164 91.762C60.7031 91.6419 60.6616 91.5266 60.5953 91.4255ZM46.1953 107.443C45.9751 107.443 45.7598 107.378 45.5766 107.255C45.3935 107.133 45.2508 106.959 45.1665 106.756C45.0822 106.552 45.0602 106.328 45.1031 106.112C45.1461 105.896 45.2522 105.698 45.4079 105.542C45.5636 105.386 45.7621 105.28 45.9781 105.237C46.1941 105.194 46.418 105.216 46.6215 105.301C46.825 105.385 46.9989 105.528 47.1213 105.711C47.2436 105.894 47.3089 106.109 47.3089 106.33C47.309 106.478 47.2794 106.625 47.2219 106.761C47.1645 106.898 47.0803 107.022 46.9743 107.126C46.8684 107.229 46.7427 107.311 46.6049 107.365C46.467 107.42 46.3196 107.446 46.1713 107.443H46.1953ZM54.3553 107.443C54.1351 107.443 53.9198 107.378 53.7366 107.255C53.5535 107.133 53.4108 106.959 53.3265 106.756C53.2422 106.552 53.2202 106.328 53.2631 106.112C53.3061 105.896 53.4122 105.698 53.5679 105.542C53.7236 105.386 53.9221 105.28 54.1381 105.237C54.3541 105.194 54.578 105.216 54.7815 105.301C54.985 105.385 55.1589 105.528 55.2812 105.711C55.4036 105.894 55.4689 106.109 55.4689 106.33C55.469 106.478 55.4394 106.625 55.3819 106.761C55.3245 106.898 55.2403 107.022 55.1343 107.126C55.0284 107.229 54.9027 107.311 54.7649 107.365C54.627 107.42 54.4796 107.446 54.3313 107.443H54.3553ZM56.4097 99.2831H53.5585V92.6639H56.4097V99.2831ZM49.1665 92.6639H52.0177V99.2831H49.1665V92.6639ZM47.6257 99.2831H44.7457V92.6639H47.6257V99.2831ZM40.6513 92.6639H43.2001V99.2831H42.8545L40.6513 92.6639ZM57.9313 96.5615V92.6639H58.9825L57.9313 96.5615Z" fill="#263238"/>
<path opacity="0.2" d="M182.4 54.72L184.181 53.9088L183.802 51.7728L181.839 51.6192C181.59 50.9597 181.259 50.334 180.855 49.7568L181.867 48.048L180.336 46.512L178.613 47.5392C177.622 46.8653 176.5 46.4074 175.32 46.1952L174.84 44.2272H172.671L172.191 46.2048C171.517 46.3333 170.861 46.5428 170.237 46.8288L168.687 45.4848L166.911 46.728L167.64 48.648C167.165 49.1374 166.748 49.6802 166.397 50.2656L164.352 50.0544L163.608 52.0944L165.303 53.2416C165.22 53.7171 165.178 54.1989 165.178 54.6816C165.178 54.888 165.178 55.0896 165.202 55.2912L163.426 56.2848L163.987 58.3824H165.999C166.296 59.0103 166.669 59.6001 167.107 60.1392L166.219 61.92L167.88 63.312L169.493 62.16C170.098 62.5089 170.743 62.7845 171.413 62.9808L171.735 64.9008L173.899 65.0928L174.547 63.2496C175.258 63.1881 175.957 63.0381 176.631 62.8032L177.994 64.1856L179.875 63.1008L179.357 61.2336C179.9 60.7703 180.384 60.2415 180.797 59.6592L182.717 60.0096L183.648 58.08L182.151 56.8416C182.32 56.1472 182.404 55.4347 182.4 54.72ZM179.189 54.6816C179.189 55.7534 178.871 56.8011 178.276 57.6923C177.68 58.5835 176.834 59.2781 175.844 59.6883C174.853 60.0984 173.764 60.2057 172.713 59.9966C171.661 59.7875 170.696 59.2714 169.938 58.5135C169.18 57.7556 168.664 56.79 168.455 55.7388C168.246 54.6876 168.353 53.598 168.763 52.6077C169.173 51.6175 169.868 50.7711 170.759 50.1757C171.65 49.5802 172.698 49.2624 173.77 49.2624C174.486 49.2592 175.197 49.3983 175.859 49.6717C176.522 49.945 177.123 50.3472 177.629 50.8549C178.135 51.3626 178.535 51.9657 178.806 52.6291C179.077 53.2926 179.214 54.0033 179.208 54.72L179.189 54.6816Z" fill="#263238"/>
<path opacity="0.2" d="M175.637 149.866C175.53 150.065 175.504 150.298 175.565 150.517C175.626 150.735 175.768 150.921 175.963 151.037C176.199 151.18 176.482 151.225 176.75 151.163C177.019 151.101 177.253 150.937 177.403 150.706L179.933 146.803L179.981 146.717L183.235 146.371L182.904 147.019C182.853 147.114 182.838 147.224 182.862 147.329C182.886 147.434 182.947 147.527 183.034 147.59C183.083 147.625 183.139 147.648 183.197 147.66C183.256 147.671 183.317 147.67 183.375 147.656C183.434 147.643 183.489 147.617 183.536 147.581C183.584 147.545 183.624 147.499 183.653 147.446L184.31 146.261L186.758 146.002L186.278 146.904C186.228 147.001 186.217 147.113 186.246 147.218C186.276 147.323 186.344 147.413 186.437 147.47C186.449 147.522 186.476 147.568 186.514 147.604C186.553 147.639 186.602 147.662 186.654 147.67C186.706 147.677 186.759 147.668 186.806 147.645C186.853 147.621 186.892 147.584 186.917 147.538L187.834 145.886L189.456 145.714C189.754 145.683 190.042 145.587 190.299 145.432C190.555 145.277 190.774 145.066 190.939 144.816L191.208 144.413L186.24 143.894C186.24 143.894 183.019 143.602 182.515 142.018L184.997 137.381L185.021 137.318L188.462 136.944L189.216 135.946L185.918 135.134L186.144 134.592C186.149 134.581 186.15 134.568 186.146 134.556C186.143 134.544 186.135 134.534 186.125 134.527C186.115 134.52 186.102 134.517 186.09 134.519C186.078 134.52 186.066 134.525 186.058 134.534L185.578 135.014L183.293 132.379L182.64 133.594L184.018 136.574L183.931 136.661L181.248 140.64C180.744 141.062 179.808 141.6 179.03 140.717C177.85 139.435 174.744 134.438 174.744 134.438L174.437 135.202C174.24 135.701 174.24 136.257 174.437 136.757L174.984 138.197L174.24 139.584C174.189 139.679 174.174 139.789 174.198 139.894C174.222 139.999 174.283 140.092 174.37 140.155C174.42 140.189 174.476 140.212 174.535 140.222C174.595 140.233 174.656 140.231 174.714 140.217C174.773 140.203 174.828 140.177 174.876 140.141C174.924 140.105 174.964 140.059 174.994 140.006L175.378 139.315L176.184 141.422L175.474 142.805C175.422 142.901 175.407 143.012 175.432 143.118C175.457 143.224 175.519 143.318 175.608 143.381C175.658 143.414 175.714 143.437 175.773 143.448C175.832 143.458 175.892 143.457 175.95 143.443C176.009 143.429 176.063 143.403 176.111 143.366C176.159 143.33 176.198 143.284 176.227 143.232L176.64 142.56L177.869 145.762L175.637 149.866Z" fill="#263238"/>
<path opacity="0.2" d="M85.9535 42.5903H63.1919V56.2799H85.9535V42.5903Z" fill="#263238"/>
<path d="M74.2275 53.256C76.4623 53.256 78.274 51.4444 78.274 49.2096C78.274 46.9748 76.4623 45.1632 74.2275 45.1632C71.9928 45.1632 70.1812 46.9748 70.1812 49.2096C70.1812 51.4444 71.9928 53.256 74.2275 53.256Z" fill="white"/>
<path opacity="0.2" d="M77.1649 49.2096L72.7153 46.6416V51.7776L77.1649 49.2096Z" fill="#263238"/>
<path opacity="0.2" d="M58.3776 134.227V144.96C57.9341 144.726 57.4392 144.605 56.9376 144.61C55.5456 144.61 54.4224 145.478 54.4224 146.53C54.4224 147.581 55.5456 148.474 56.9376 148.474C59.28 148.474 59.4528 146.87 59.4528 146.87V137.443L66.1344 136.483V143.683C65.6897 143.452 65.1953 143.334 64.6944 143.338C63.3024 143.338 62.1792 144.206 62.1792 145.282C62.1792 146.357 63.3024 147.202 64.6944 147.202C65.928 147.202 66.9552 146.506 67.1616 145.598L67.2 136.32V132.96L58.3776 134.227Z" fill="#263238"/>
<path opacity="0.2" d="M131.064 36.48V35.2368C131.064 35.0318 130.982 34.8353 130.838 34.6903C130.693 34.5454 130.496 34.464 130.291 34.464H128.981C128.776 34.464 128.579 34.5454 128.434 34.6903C128.289 34.8353 128.208 35.0318 128.208 35.2368V39.7344H115.248V35.2368C115.248 35.0318 115.167 34.8353 115.022 34.6903C114.877 34.5454 114.68 34.464 114.475 34.464H113.078C112.876 34.4678 112.683 34.5508 112.541 34.6954C112.399 34.8399 112.32 35.0343 112.32 35.2368V36.48H110.261C110.028 36.48 109.804 36.5725 109.64 36.7373C109.475 36.902 109.382 37.1254 109.382 37.3584V43.2C109.382 43.4334 109.475 43.6573 109.639 43.8228C109.804 43.9883 110.027 44.0819 110.261 44.0832H112.32V45.312C112.321 45.5128 112.4 45.7053 112.541 45.8487C112.682 45.992 112.873 46.075 113.074 46.08H114.47C114.675 46.08 114.872 45.9986 115.017 45.8536C115.162 45.7087 115.243 45.5121 115.243 45.3072V41.76H128.203V45.2832C128.2 45.3871 128.218 45.4906 128.255 45.5874C128.293 45.6843 128.35 45.7726 128.422 45.847C128.495 45.9213 128.582 45.9803 128.678 46.0204C128.774 46.0604 128.877 46.0807 128.981 46.08H130.291C130.496 46.08 130.693 45.9986 130.838 45.8536C130.982 45.7087 131.064 45.5121 131.064 45.3072V44.064H133.042C133.272 44.0628 133.492 43.9718 133.656 43.8105C133.82 43.6491 133.915 43.4301 133.92 43.2V37.3488C133.917 37.1175 133.824 36.8965 133.659 36.7339C133.495 36.5712 133.273 36.48 133.042 36.48H131.064Z" fill="#263238"/>
<path opacity="0.2" d="M121.723 157.675C151.181 157.675 175.061 133.795 175.061 104.338C175.061 74.8801 151.181 51 121.723 51C92.2658 51 68.3857 74.8801 68.3857 104.338C68.3857 133.795 92.2658 157.675 121.723 157.675Z" fill="#263238"/>
<path d="M121.723 153.49C148.869 153.49 170.875 131.483 170.875 104.338C170.875 77.1916 148.869 55.1855 121.723 55.1855C94.5774 55.1855 72.5713 77.1916 72.5713 104.338C72.5713 131.483 94.5774 153.49 121.723 153.49Z" fill="#62BFCC" stroke="#263238" stroke-miterlimit="10"/>
<g opacity="0.2">
<path d="M121.723 105.946C121.509 105.947 121.296 105.905 121.099 105.823C120.901 105.74 120.721 105.619 120.571 105.466L89.6545 73.7136C89.3722 73.4053 89.221 72.9991 89.2331 72.5813C89.2452 72.1634 89.4195 71.7666 89.7191 71.4751C90.0187 71.1836 90.4201 71.0202 90.8382 71.0197C91.2562 71.0191 91.658 71.1813 91.9585 71.472L122.88 103.2C123.101 103.426 123.25 103.713 123.309 104.024C123.368 104.335 123.334 104.656 123.211 104.948C123.088 105.24 122.882 105.489 122.618 105.663C122.354 105.838 122.045 105.931 121.728 105.931L121.723 105.946Z" fill="#263238"/>
</g>
<path opacity="0.2" d="M107.856 115.224C107.51 115.226 107.173 115.116 106.895 114.91C106.616 114.705 106.411 114.416 106.31 114.085C106.21 113.754 106.218 113.399 106.335 113.073C106.452 112.748 106.671 112.468 106.959 112.277L120.831 102.998C121.185 102.774 121.614 102.697 122.024 102.784C122.435 102.871 122.795 103.115 123.028 103.464C123.261 103.813 123.349 104.239 123.272 104.652C123.195 105.064 122.959 105.431 122.616 105.672L108.749 114.95C108.485 115.128 108.174 115.223 107.856 115.224Z" fill="#263238"/>
<path d="M123.715 104.338C123.716 103.943 123.6 103.558 123.382 103.23C123.164 102.901 122.853 102.645 122.489 102.494C122.125 102.342 121.724 102.302 121.338 102.379C120.951 102.455 120.596 102.644 120.317 102.923C120.038 103.201 119.847 103.556 119.77 103.942C119.693 104.329 119.732 104.73 119.883 105.094C120.033 105.458 120.289 105.77 120.616 105.989C120.944 106.208 121.329 106.325 121.723 106.325C122.251 106.325 122.757 106.116 123.13 105.743C123.504 105.371 123.714 104.865 123.715 104.338Z" fill="#263238" stroke="#263238" stroke-miterlimit="10" stroke-linecap="round"/>
<path d="M121.762 59.5824V66.2256" stroke="#263238" stroke-width="2" stroke-miterlimit="10" stroke-linecap="round"/>
<path d="M121.762 141.931V148.574" stroke="#263238" stroke-width="2" stroke-miterlimit="10" stroke-linecap="round"/>
<path d="M166.258 104.078H159.61" stroke="#263238" stroke-width="2" stroke-miterlimit="10" stroke-linecap="round"/>
<path d="M83.9088 104.078H77.2656" stroke="#263238" stroke-width="2" stroke-miterlimit="10" stroke-linecap="round"/>
<path d="M145.095 66.192L141.61 71.8512" stroke="#263238" stroke-width="2" stroke-miterlimit="10" stroke-linecap="round"/>
<path d="M101.909 136.306L98.4243 141.965" stroke="#263238" stroke-width="2" stroke-miterlimit="10" stroke-linecap="round"/>
<path d="M160.906 82.9248L155.06 86.0832" stroke="#263238" stroke-width="2" stroke-miterlimit="10" stroke-linecap="round"/>
<path d="M88.4592 122.074L82.6128 125.232" stroke="#263238" stroke-width="2" stroke-miterlimit="10" stroke-linecap="round"/>
<path d="M159.648 127.416L153.989 123.926" stroke="#263238" stroke-width="2" stroke-miterlimit="10" stroke-linecap="round"/>
<path d="M89.5347 84.2304L83.8755 80.7456" stroke="#263238" stroke-width="2" stroke-miterlimit="10" stroke-linecap="round"/>
<path d="M142.915 143.227L139.757 137.376" stroke="#263238" stroke-width="2" stroke-miterlimit="10" stroke-linecap="round"/>
<path d="M103.766 70.7809L100.608 64.9344" stroke="#263238" stroke-width="2" stroke-miterlimit="10" stroke-linecap="round"/>
<path d="M120.715 217.406C141.846 217.406 158.976 215.382 158.976 212.885C158.976 210.388 141.846 208.363 120.715 208.363C99.5845 208.363 82.4546 210.388 82.4546 212.885C82.4546 215.382 99.5845 217.406 120.715 217.406Z" fill="#62BFCC"/>
<path opacity="0.5" d="M120.715 217.406C141.846 217.406 158.976 215.382 158.976 212.885C158.976 210.388 141.846 208.363 120.715 208.363C99.5845 208.363 82.4546 210.388 82.4546 212.885C82.4546 215.382 99.5845 217.406 120.715 217.406Z" fill="white"/>
<path d="M130.983 145.608C130.93 144.542 130.983 142.901 131.026 141.955C131.153 141.191 131.218 140.417 131.218 139.642C131.218 129.35 127.248 128.486 122.343 128.486C117.437 128.486 113.467 130.138 113.467 139.642C113.467 139.891 113.467 140.122 113.491 140.386C113.535 140.798 113.938 144.744 113.568 146.232C113.175 147.802 110.031 148.118 108.226 151.886C106.421 155.654 110.347 161.155 123.149 161.861C135.951 162.566 137.28 154.013 137.28 151.109C137.28 148.205 131.064 147.178 130.983 145.608Z" fill="#263238"/>
<path d="M113.155 140.424L113.472 140.39V140.347L113.155 140.424Z" fill="#263238"/>
<path d="M114.96 154.56C114.96 154.56 109.781 154.843 107.943 155.875C106.104 156.907 105.759 162.998 105.759 162.998L100.248 174.826C100.248 174.826 85.4306 164.491 84.1682 163.459C82.9058 162.427 82.5602 161.621 81.2882 160.814C80.0162 160.008 79.565 160.013 77.957 160.013C76.349 160.013 76.1186 160.243 76.2338 160.699C76.349 161.155 76.925 161.275 77.381 161.275C77.8851 161.315 78.3857 161.392 78.8786 161.506L74.2802 163.344C73.133 163.8 73.3634 161.962 72.3314 161.962C71.2994 161.962 71.4098 164.606 73.133 165.869C74.8562 167.131 76.013 166.786 77.381 166.67C78.749 166.555 81.9794 166.099 81.9794 166.099C81.9794 166.099 90.821 173.909 94.037 176.779C97.253 179.65 101.616 182.405 103.224 181.258C104.832 180.11 110.904 168.854 110.904 168.854L114.807 158.52C114.807 158.52 115.896 156.35 114.96 154.56Z" fill="white"/>
<mask id="mask0_52_4300" style="mask-type:luminance" maskUnits="userSpaceOnUse" x="71" y="154" width="45" height="28">
<path d="M114.96 154.56C114.96 154.56 109.781 154.843 107.943 155.875C106.104 156.907 105.759 162.998 105.759 162.998L100.248 174.826C100.248 174.826 85.4306 164.491 84.1682 163.459C82.9058 162.427 82.5602 161.621 81.2882 160.814C80.0162 160.008 79.565 160.013 77.957 160.013C76.349 160.013 76.1186 160.243 76.2338 160.699C76.349 161.155 76.925 161.275 77.381 161.275C77.8851 161.315 78.3857 161.392 78.8786 161.506L74.2802 163.344C73.133 163.8 73.3634 161.962 72.3314 161.962C71.2994 161.962 71.4098 164.606 73.133 165.869C74.8562 167.131 76.013 166.786 77.381 166.67C78.749 166.555 81.9794 166.099 81.9794 166.099C81.9794 166.099 90.821 173.909 94.037 176.779C97.253 179.65 101.616 182.405 103.224 181.258C104.832 180.11 110.904 168.854 110.904 168.854L114.807 158.52C114.807 158.52 115.896 156.35 114.96 154.56Z" fill="white"/>
</mask>
<g mask="url(#mask0_52_4300)">
<path opacity="0.1" d="M114.96 154.56C114.96 154.56 109.781 154.843 107.943 155.875C106.104 156.907 105.759 162.998 105.759 162.998L100.248 174.826C100.248 174.826 85.4306 164.491 84.1682 163.459C82.9058 162.427 82.5602 161.621 81.2882 160.814C80.0162 160.008 79.565 160.013 77.957 160.013C76.349 160.013 76.1186 160.243 76.2338 160.699C76.349 161.155 76.925 161.275 77.381 161.275C77.8851 161.315 78.3857 161.392 78.8786 161.506L74.2802 163.344C73.133 163.8 73.3634 161.962 72.3314 161.962C71.2994 161.962 71.4098 164.606 73.133 165.869C74.8562 167.131 76.013 166.786 77.381 166.67C78.749 166.555 81.9794 166.099 81.9794 166.099C81.9794 166.099 90.821 173.909 94.037 176.779C97.253 179.65 101.616 182.405 103.224 181.258C104.832 180.11 110.904 168.854 110.904 168.854L114.807 158.52C114.807 158.52 115.896 156.35 114.96 154.56Z" fill="black"/>
</g>
<path d="M114.96 154.56C114.96 154.56 109.781 154.843 107.943 155.875C106.104 156.907 105.759 162.998 105.759 162.998L100.248 174.826C100.248 174.826 85.4306 164.491 84.1682 163.459C82.9058 162.427 82.5602 161.621 81.2882 160.814C80.0162 160.008 79.565 160.013 77.957 160.013C76.349 160.013 76.1186 160.243 76.2338 160.699C76.349 161.155 76.925 161.275 77.381 161.275C77.8851 161.315 78.3857 161.392 78.8786 161.506L74.2802 163.344C73.133 163.8 73.3634 161.962 72.3314 161.962C71.2994 161.962 71.4098 164.606 73.133 165.869C74.8562 167.131 76.013 166.786 77.381 166.67C78.749 166.555 81.9794 166.099 81.9794 166.099C81.9794 166.099 90.821 173.909 94.037 176.779C97.253 179.65 101.616 182.405 103.224 181.258C104.832 180.11 110.904 168.854 110.904 168.854L114.807 158.52C114.807 158.52 115.896 156.35 114.96 154.56Z" stroke="#263238" stroke-miterlimit="10" stroke-linecap="round"/>
<path d="M73.464 166.123C73.464 166.123 71.2272 164.309 72.432 162.533C72.7296 162.091 73.392 162.758 73.584 163.973C73.776 165.187 74.3808 165.658 74.6928 165.744" fill="white"/>
<mask id="mask1_52_4300" style="mask-type:luminance" maskUnits="userSpaceOnUse" x="72" y="162" width="3" height="5">
<path d="M73.464 166.123C73.464 166.123 71.2272 164.309 72.432 162.533C72.7296 162.091 73.392 162.758 73.584 163.973C73.776 165.187 74.3808 165.658 74.6928 165.744" fill="white"/>
</mask>
<g mask="url(#mask1_52_4300)">
<path opacity="0.1" d="M73.464 166.123C73.464 166.123 71.2272 164.309 72.432 162.533C72.7296 162.091 73.392 162.758 73.584 163.973C73.776 165.187 74.3808 165.658 74.6928 165.744" fill="black"/>
</g>
<path d="M73.464 166.123C73.464 166.123 71.2272 164.309 72.432 162.533C72.7296 162.091 73.392 162.758 73.584 163.973C73.776 165.187 74.3808 165.658 74.6928 165.744" stroke="#263238" stroke-miterlimit="10" stroke-linecap="round"/>
<path d="M75.1348 165.725C74.602 165.725 74.6308 164.285 73.6276 163.598C72.8308 163.037 72.9316 164.141 73.1188 165.038C73.1921 165.407 73.3746 165.744 73.6426 166.007C73.9106 166.27 74.2517 166.446 74.6212 166.512C74.965 166.598 75.3227 166.613 75.6724 166.555" fill="white"/>
<mask id="mask2_52_4300" style="mask-type:luminance" maskUnits="userSpaceOnUse" x="72" y="163" width="4" height="4">
<path d="M75.1348 165.725C74.602 165.725 74.6308 164.285 73.6276 163.598C72.8308 163.037 72.9316 164.141 73.1188 165.038C73.1921 165.407 73.3746 165.744 73.6426 166.007C73.9106 166.27 74.2517 166.446 74.6212 166.512C74.965 166.598 75.3227 166.613 75.6724 166.555" fill="white"/>
</mask>
<g mask="url(#mask2_52_4300)">
<path opacity="0.1" d="M75.1348 165.725C74.602 165.725 74.6308 164.285 73.6276 163.598C72.8308 163.037 72.9316 164.141 73.1188 165.038C73.1921 165.407 73.3746 165.744 73.6426 166.007C73.9106 166.27 74.2517 166.446 74.6212 166.512C74.965 166.598 75.3227 166.613 75.6724 166.555" fill="black"/>
</g>
<path d="M75.1348 165.725C74.602 165.725 74.6308 164.285 73.6276 163.598C72.8308 163.037 72.9316 164.141 73.1188 165.038C73.1921 165.407 73.3746 165.744 73.6426 166.007C73.9106 166.27 74.2517 166.446 74.6212 166.512C74.965 166.598 75.3227 166.613 75.6724 166.555" stroke="#263238" stroke-miterlimit="10" stroke-linecap="round"/>
<path d="M81.874 163.378C81.874 163.378 81.1204 162.845 79.6564 163.334C78.1924 163.824 76.4644 165.95 76.066 165.773C75.6933 165.559 75.4103 165.218 75.2692 164.813C75.0436 164.371 74.6068 163.733 74.3092 164.246C73.6468 165.37 75.4516 166.646 75.4516 166.646C75.4516 166.646 75.7012 166.858 77.098 166.69C78.4948 166.522 81.6484 166.08 81.6484 166.08" fill="white"/>
<mask id="mask3_52_4300" style="mask-type:luminance" maskUnits="userSpaceOnUse" x="74" y="163" width="8" height="4">
<path d="M81.874 163.378C81.874 163.378 81.1204 162.845 79.6564 163.334C78.1924 163.824 76.4644 165.95 76.066 165.773C75.6933 165.559 75.4103 165.218 75.2692 164.813C75.0436 164.371 74.6068 163.733 74.3092 164.246C73.6468 165.37 75.4516 166.646 75.4516 166.646C75.4516 166.646 75.7012 166.858 77.098 166.69C78.4948 166.522 81.6484 166.08 81.6484 166.08" fill="white"/>
</mask>
<g mask="url(#mask3_52_4300)">
<path opacity="0.1" d="M81.874 163.378C81.874 163.378 81.1204 162.845 79.6564 163.334C78.1924 163.824 76.4644 165.95 76.066 165.773C75.6933 165.559 75.4103 165.218 75.2692 164.813C75.0436 164.371 74.6068 163.733 74.3092 164.246C73.6468 165.37 75.4516 166.646 75.4516 166.646C75.4516 166.646 75.7012 166.858 77.098 166.69C78.4948 166.522 81.6484 166.08 81.6484 166.08" fill="black"/>
</g>
<path d="M81.874 163.378C81.874 163.378 81.1204 162.845 79.6564 163.334C78.1924 163.824 76.4644 165.95 76.066 165.773C75.6933 165.559 75.4103 165.218 75.2692 164.813C75.0436 164.371 74.6068 163.733 74.3092 164.246C73.6468 165.37 75.4516 166.646 75.4516 166.646C75.4516 166.646 75.7012 166.858 77.098 166.69C78.4948 166.522 81.6484 166.08 81.6484 166.08" stroke="#263238" stroke-miterlimit="10" stroke-linecap="round"/>
<path d="M110.991 166.392L109.315 161.597" stroke="#263238" stroke-miterlimit="10" stroke-linecap="round"/>
<path d="M128.405 154.454C128.405 154.454 133.863 154.843 135.701 155.894C137.539 156.946 137.885 163.018 137.885 163.018L143.395 174.845C143.395 174.845 158.213 164.51 159.475 163.478C160.738 162.446 161.083 161.64 162.355 160.834C163.627 160.027 164.079 160.032 165.687 160.032C167.295 160.032 167.525 160.262 167.41 160.718C167.295 161.174 166.719 161.294 166.258 161.294C165.755 161.335 165.256 161.412 164.765 161.525L169.359 163.363C170.511 163.819 170.28 161.981 171.312 161.981C172.344 161.981 172.234 164.626 170.511 165.888C168.787 167.15 167.631 166.805 166.258 166.69C164.885 166.574 161.664 166.118 161.664 166.118C161.664 166.118 152.823 173.928 149.607 176.798C146.391 179.669 142.027 182.424 140.419 181.277C138.811 180.13 132.739 168.874 132.739 168.874L128.837 158.539C128.837 158.539 127.474 156.245 128.405 154.454Z" fill="white"/>
<mask id="mask4_52_4300" style="mask-type:luminance" maskUnits="userSpaceOnUse" x="128" y="154" width="44" height="28">
<path d="M128.405 154.454C128.405 154.454 133.863 154.843 135.701 155.894C137.539 156.946 137.885 163.018 137.885 163.018L143.395 174.845C143.395 174.845 158.213 164.51 159.475 163.478C160.738 162.446 161.083 161.64 162.355 160.834C163.627 160.027 164.079 160.032 165.687 160.032C167.295 160.032 167.525 160.262 167.41 160.718C167.295 161.174 166.719 161.294 166.258 161.294C165.755 161.335 165.256 161.412 164.765 161.525L169.359 163.363C170.511 163.819 170.28 161.981 171.312 161.981C172.344 161.981 172.234 164.626 170.511 165.888C168.787 167.15 167.631 166.805 166.258 166.69C164.885 166.574 161.664 166.118 161.664 166.118C161.664 166.118 152.823 173.928 149.607 176.798C146.391 179.669 142.027 182.424 140.419 181.277C138.811 180.13 132.739 168.874 132.739 168.874L128.837 158.539C128.837 158.539 127.474 156.245 128.405 154.454Z" fill="white"/>
</mask>
<g mask="url(#mask4_52_4300)">
<path opacity="0.1" d="M128.405 154.454C128.405 154.454 133.863 154.843 135.701 155.894C137.539 156.946 137.885 163.018 137.885 163.018L143.395 174.845C143.395 174.845 158.213 164.51 159.475 163.478C160.738 162.446 161.083 161.64 162.355 160.834C163.627 160.027 164.079 160.032 165.687 160.032C167.295 160.032 167.525 160.262 167.41 160.718C167.295 161.174 166.719 161.294 166.258 161.294C165.755 161.335 165.256 161.412 164.765 161.525L169.359 163.363C170.511 163.819 170.28 161.981 171.312 161.981C172.344 161.981 172.234 164.626 170.511 165.888C168.787 167.15 167.631 166.805 166.258 166.69C164.885 166.574 161.664 166.118 161.664 166.118C161.664 166.118 152.823 173.928 149.607 176.798C146.391 179.669 142.027 182.424 140.419 181.277C138.811 180.13 132.739 168.874 132.739 168.874L128.837 158.539C128.837 158.539 127.474 156.245 128.405 154.454Z" fill="black"/>
</g>
<path d="M128.405 154.454C128.405 154.454 133.863 154.843 135.701 155.894C137.539 156.946 137.885 163.018 137.885 163.018L143.395 174.845C143.395 174.845 158.213 164.51 159.475 163.478C160.738 162.446 161.083 161.64 162.355 160.834C163.627 160.027 164.079 160.032 165.687 160.032C167.295 160.032 167.525 160.262 167.41 160.718C167.295 161.174 166.719 161.294 166.258 161.294C165.755 161.335 165.256 161.412 164.765 161.525L169.359 163.363C170.511 163.819 170.28 161.981 171.312 161.981C172.344 161.981 172.234 164.626 170.511 165.888C168.787 167.15 167.631 166.805 166.258 166.69C164.885 166.574 161.664 166.118 161.664 166.118C161.664 166.118 152.823 173.928 149.607 176.798C146.391 179.669 142.027 182.424 140.419 181.277C138.811 180.13 132.739 168.874 132.739 168.874L128.837 158.539C128.837 158.539 127.474 156.245 128.405 154.454Z" stroke="#263238" stroke-miterlimit="10" stroke-linecap="round"/>
<path d="M132.739 165.389L134.074 161.486" stroke="#263238" stroke-miterlimit="10" stroke-linecap="round"/>
<path d="M170.731 165.47C170.731 165.47 171.691 162.758 171.211 162.533C170.731 162.307 170.251 162.758 170.059 163.973C169.867 165.187 169.263 165.657 168.951 165.744" fill="white"/>
<mask id="mask5_52_4300" style="mask-type:luminance" maskUnits="userSpaceOnUse" x="168" y="162" width="4" height="4">
<path d="M170.731 165.47C170.731 165.47 171.691 162.758 171.211 162.533C170.731 162.307 170.251 162.758 170.059 163.973C169.867 165.187 169.263 165.657 168.951 165.744" fill="white"/>
</mask>
<g mask="url(#mask5_52_4300)">
<path opacity="0.1" d="M171.389 164.885C171.389 164.885 171.701 162.758 171.211 162.533C170.722 162.307 170.251 162.758 170.059 163.973C169.867 165.187 169.263 165.657 168.951 165.744" fill="black"/>
</g>
<path d="M170.731 165.47C170.731 165.47 171.691 162.758 171.211 162.533C170.731 162.307 170.251 162.758 170.059 163.973C169.867 165.187 169.263 165.657 168.951 165.744" stroke="#263238" stroke-miterlimit="10" stroke-linecap="round"/>
<path d="M170.002 165.955C170.002 165.955 171.211 162.533 169.81 163.44C168.778 164.107 169.042 165.725 168.509 165.725" fill="white"/>
<mask id="mask6_52_4300" style="mask-type:luminance" maskUnits="userSpaceOnUse" x="168" y="163" width="3" height="3">
<path d="M170.002 165.955C170.002 165.955 171.211 162.533 169.81 163.44C168.778 164.107 169.042 165.725 168.509 165.725" fill="white"/>
</mask>
<g mask="url(#mask6_52_4300)">
<path opacity="0.1" d="M170.28 165.994C170.28 165.994 171.211 162.533 169.8 163.44C168.768 164.107 169.032 165.725 168.499 165.725" fill="black"/>
</g>
<path d="M170.002 165.955C170.002 165.955 171.211 162.533 169.81 163.44C168.778 164.107 169.042 165.725 168.509 165.725" stroke="#263238" stroke-miterlimit="10" stroke-linecap="round"/>
<path d="M161.76 163.378C161.76 163.378 162.514 162.845 163.978 163.334C165.442 163.824 167.17 165.95 167.568 165.773C167.941 165.559 168.224 165.218 168.365 164.813C168.586 164.371 168.989 164.107 169.253 164.635C169.517 165.163 168.72 166.723 168.72 166.723C168.72 166.723 168.24 167.064 167.064 166.79C165.736 166.471 164.387 166.248 163.027 166.123" fill="white"/>
<mask id="mask7_52_4300" style="mask-type:luminance" maskUnits="userSpaceOnUse" x="161" y="163" width="9" height="4">
<path d="M161.76 163.378C161.76 163.378 162.514 162.845 163.978 163.334C165.442 163.824 167.17 165.95 167.568 165.773C167.941 165.559 168.224 165.218 168.365 164.813C168.586 164.371 168.989 164.107 169.253 164.635C169.517 165.163 168.72 166.723 168.72 166.723C168.72 166.723 168.24 167.064 167.064 166.79C165.736 166.471 164.387 166.248 163.027 166.123" fill="white"/>
</mask>
<g mask="url(#mask7_52_4300)">
<path opacity="0.1" d="M161.76 163.378C161.76 163.378 162.514 162.845 163.978 163.334C165.442 163.824 167.17 165.95 167.568 165.773C167.941 165.559 168.224 165.218 168.365 164.813C168.586 164.371 168.989 164.107 169.253 164.635C169.517 165.163 168.72 166.723 168.72 166.723C168.72 166.723 168.24 167.064 167.064 166.79C165.888 166.517 162.711 165.672 161.986 165.672" fill="black"/>
</g>
<path d="M161.76 163.378C161.76 163.378 162.514 162.845 163.978 163.334C165.442 163.824 167.17 165.95 167.568 165.773C167.941 165.559 168.224 165.218 168.365 164.813C168.586 164.371 168.989 164.107 169.253 164.635C169.517 165.163 168.72 166.723 168.72 166.723C168.72 166.723 168.24 167.064 167.064 166.79C165.736 166.471 164.387 166.248 163.027 166.123" stroke="#263238" stroke-miterlimit="10" stroke-linecap="round"/>
<path d="M119.674 147.571C119.674 147.571 119.439 150.245 118.339 152.05C117.24 153.854 114.979 154.56 114.979 154.56L110.506 168.307L112.843 177.6C112.843 177.6 108.677 183.936 107.04 187.786C105.403 191.635 107.371 195.989 109.099 197.794C110.827 199.598 113.122 202.046 118.978 201.816C127.138 201.494 132.898 202.238 135.514 199.176C138.13 196.114 138.394 190.33 135.283 185.966C133.402 183.312 130.834 177.576 130.834 177.576L133.378 168L129.48 154.56C129.48 154.56 127.133 154.426 125.722 152.698C124.311 150.97 124.623 147.826 124.623 147.826L119.674 147.571Z" fill="white"/>
<mask id="mask8_52_4300" style="mask-type:luminance" maskUnits="userSpaceOnUse" x="106" y="147" width="32" height="55">
<path d="M119.674 147.571C119.674 147.571 119.439 150.245 118.339 152.05C117.24 153.854 114.979 154.56 114.979 154.56L110.506 168.307L112.843 177.6C112.843 177.6 108.677 183.936 107.04 187.786C105.403 191.635 107.371 195.989 109.099 197.794C110.827 199.598 113.122 202.046 118.978 201.816C127.138 201.494 132.898 202.238 135.514 199.176C138.13 196.114 138.394 190.33 135.283 185.966C133.402 183.312 130.834 177.576 130.834 177.576L133.378 168L129.48 154.56C129.48 154.56 127.133 154.426 125.722 152.698C124.311 150.97 124.623 147.826 124.623 147.826L119.674 147.571Z" fill="white"/>
</mask>
<g mask="url(#mask8_52_4300)">
<path opacity="0.1" d="M119.674 147.571C119.674 147.571 119.439 150.245 118.339 152.05C117.24 153.854 114.979 154.56 114.979 154.56L110.506 168.307L112.843 177.6C112.843 177.6 108.677 183.936 107.04 187.786C105.403 191.635 107.371 195.989 109.099 197.794C110.827 199.598 113.122 202.046 118.978 201.816C127.138 201.494 132.898 202.238 135.514 199.176C138.13 196.114 138.394 190.33 135.283 185.966C133.402 183.312 130.834 177.576 130.834 177.576L133.378 168L129.48 154.56C129.48 154.56 127.133 154.426 125.722 152.698C124.311 150.97 124.623 147.826 124.623 147.826L119.674 147.571Z" fill="black"/>
</g>
<path d="M119.674 147.571C119.674 147.571 119.439 150.245 118.339 152.05C117.24 153.854 114.979 154.56 114.979 154.56L110.506 168.307L112.843 177.6C112.843 177.6 108.677 183.936 107.04 187.786C105.403 191.635 107.371 195.989 109.099 197.794C110.827 199.598 113.122 202.046 118.978 201.816C127.138 201.494 132.898 202.238 135.514 199.176C138.13 196.114 138.394 190.33 135.283 185.966C133.402 183.312 130.834 177.576 130.834 177.576L133.378 168L129.48 154.56C129.48 154.56 127.133 154.426 125.722 152.698C124.311 150.97 124.623 147.826 124.623 147.826L119.674 147.571Z" stroke="#263238" stroke-miterlimit="10" stroke-linecap="round"/>
<path d="M133.378 168L129.48 154.56C129.09 154.532 128.702 154.468 128.324 154.368C128.775 157.493 128.237 159.058 128.237 159.058C128.16 159.743 127.92 160.4 127.536 160.974C127.153 161.548 126.638 162.021 126.034 162.355C123.917 163.613 119.909 163.848 117.394 161.808C115.474 160.267 115.834 156.048 116.117 154.066C115.747 154.264 115.36 154.429 114.96 154.56L110.487 168.307L112.844 177.6H130.824L133.378 168Z" fill="#263238" stroke="#263238" stroke-miterlimit="10" stroke-linecap="round"/>
<path d="M115.867 141.336C115.867 141.336 114.427 139.454 113.919 140.856C113.41 142.258 115.939 143.501 115.939 143.501L115.867 141.336Z" fill="white"/>
<mask id="mask9_52_4300" style="mask-type:luminance" maskUnits="userSpaceOnUse" x="113" y="140" width="3" height="4">
<path d="M115.867 141.336C115.867 141.336 114.427 139.454 113.919 140.856C113.41 142.258 115.939 143.501 115.939 143.501L115.867 141.336Z" fill="white"/>
</mask>
<g mask="url(#mask9_52_4300)">
<path opacity="0.1" d="M115.867 141.336C115.867 141.336 114.427 139.454 113.919 140.856C113.41 142.258 115.939 143.501 115.939 143.501L115.867 141.336Z" fill="black"/>
</g>
<path d="M115.867 141.336C115.867 141.336 114.427 139.454 113.919 140.856C113.41 142.258 115.939 143.501 115.939 143.501L115.867 141.336Z" stroke="#263238" stroke-miterlimit="10" stroke-linecap="round"/>
<path d="M128.602 141.336C128.602 141.336 130.066 139.454 130.551 140.856C131.035 142.258 128.535 143.501 128.535 143.501L128.602 141.336Z" fill="white"/>
<mask id="mask10_52_4300" style="mask-type:luminance" maskUnits="userSpaceOnUse" x="128" y="140" width="3" height="4">
<path d="M128.602 141.336C128.602 141.336 130.066 139.454 130.551 140.856C131.035 142.258 128.535 143.501 128.535 143.501L128.602 141.336Z" fill="white"/>
</mask>
<g mask="url(#mask10_52_4300)">
<path opacity="0.1" d="M128.602 141.336C128.602 141.336 130.066 139.454 130.551 140.856C131.035 142.258 128.535 143.501 128.535 143.501L128.602 141.336Z" fill="black"/>
</g>
<path d="M128.602 141.336C128.602 141.336 130.066 139.454 130.551 140.856C131.035 142.258 128.535 143.501 128.535 143.501L128.602 141.336Z" stroke="#263238" stroke-miterlimit="10" stroke-linecap="round"/>
<path d="M122.299 149.448C120.624 149.448 119.017 148.782 117.833 147.598C116.648 146.413 115.982 144.806 115.982 143.131V133.44C115.982 133.131 116.042 132.824 116.16 132.538C116.278 132.252 116.451 131.993 116.67 131.774C116.888 131.555 117.148 131.381 117.433 131.263C117.719 131.144 118.025 131.083 118.334 131.083H126.24C126.553 131.077 126.864 131.134 127.155 131.25C127.446 131.366 127.711 131.539 127.935 131.758C128.158 131.977 128.335 132.239 128.457 132.528C128.578 132.817 128.64 133.127 128.64 133.44V143.146C128.638 143.976 128.472 144.797 128.151 145.563C127.831 146.329 127.364 147.025 126.775 147.61C126.186 148.195 125.488 148.659 124.72 148.974C123.952 149.289 123.129 149.45 122.299 149.448Z" fill="white"/>
<mask id="mask11_52_4300" style="mask-type:luminance" maskUnits="userSpaceOnUse" x="115" y="131" width="14" height="19">
<path d="M122.299 149.448C120.624 149.448 119.017 148.782 117.833 147.598C116.648 146.413 115.982 144.806 115.982 143.131V133.44C115.982 133.131 116.042 132.824 116.16 132.538C116.278 132.252 116.451 131.993 116.67 131.774C116.888 131.555 117.148 131.381 117.433 131.263C117.719 131.144 118.025 131.083 118.334 131.083H126.24C126.553 131.077 126.864 131.134 127.155 131.25C127.446 131.366 127.711 131.539 127.935 131.758C128.158 131.977 128.335 132.239 128.457 132.528C128.578 132.817 128.64 133.127 128.64 133.44V143.146C128.638 143.976 128.472 144.797 128.151 145.563C127.831 146.329 127.364 147.025 126.775 147.61C126.186 148.195 125.488 148.659 124.72 148.974C123.952 149.289 123.129 149.45 122.299 149.448Z" fill="white"/>
</mask>
<g mask="url(#mask11_52_4300)">
<path opacity="0.1" d="M122.299 149.448C120.624 149.448 119.017 148.782 117.833 147.598C116.648 146.413 115.982 144.806 115.982 143.131V133.44C115.982 133.131 116.042 132.824 116.16 132.538C116.278 132.252 116.451 131.993 116.67 131.774C116.888 131.555 117.148 131.381 117.433 131.263C117.719 131.144 118.025 131.083 118.334 131.083H126.24C126.553 131.077 126.864 131.134 127.155 131.25C127.446 131.366 127.711 131.539 127.935 131.758C128.158 131.977 128.335 132.239 128.457 132.528C128.578 132.817 128.64 133.127 128.64 133.44V143.146C128.638 143.976 128.472 144.797 128.151 145.563C127.831 146.329 127.364 147.025 126.775 147.61C126.186 148.195 125.488 148.659 124.72 148.974C123.952 149.289 123.129 149.45 122.299 149.448Z" fill="black"/>
</g>
<path d="M122.299 149.448C120.624 149.448 119.017 148.782 117.833 147.598C116.648 146.413 115.982 144.806 115.982 143.131V133.44C115.982 133.131 116.042 132.824 116.16 132.538C116.278 132.252 116.451 131.993 116.67 131.774C116.888 131.555 117.148 131.381 117.433 131.263C117.719 131.144 118.025 131.083 118.334 131.083H126.24C126.553 131.077 126.864 131.134 127.155 131.25C127.446 131.366 127.711 131.539 127.935 131.758C128.158 131.977 128.335 132.239 128.457 132.528C128.578 132.817 128.64 133.127 128.64 133.44V143.146C128.638 143.976 128.472 144.797 128.151 145.563C127.831 146.329 127.364 147.025 126.775 147.61C126.186 148.195 125.488 148.659 124.72 148.974C123.952 149.289 123.129 149.45 122.299 149.448Z" stroke="#263238" stroke-miterlimit="10" stroke-linecap="round"/>
<path d="M117.6 138.83C118.033 139.118 118.542 139.271 119.062 139.271C119.582 139.271 120.09 139.118 120.523 138.83" stroke="#263238" stroke-miterlimit="10" stroke-linecap="round"/>
<path d="M124.147 138.83C124.58 139.118 125.087 139.271 125.607 139.271C126.126 139.271 126.634 139.118 127.066 138.83" stroke="#263238" stroke-miterlimit="10" stroke-linecap="round"/>
<path d="M122.894 137.789L123.312 141.821H121.642" stroke="#263238" stroke-miterlimit="10" stroke-linecap="round"/>
<path d="M121.709 144.115H123.379" stroke="#263238" stroke-miterlimit="10" stroke-linecap="round"/>
<path d="M122.362 131.069H118.334C118.025 131.069 117.719 131.13 117.433 131.248C117.148 131.367 116.888 131.54 116.67 131.759C116.451 131.978 116.278 132.238 116.16 132.524C116.042 132.81 115.982 133.116 115.982 133.426V138.226C118.56 135.984 121.56 132.13 122.362 131.069Z" fill="#263238" stroke="#263238" stroke-miterlimit="10"/>
<path d="M128.64 138.408V133.44C128.64 132.815 128.392 132.215 127.95 131.773C127.508 131.331 126.909 131.083 126.284 131.083H122.679C123.509 133.714 126.72 136.8 128.64 138.408Z" fill="#263238" stroke="#263238" stroke-miterlimit="10"/>
<path d="M117.327 136.954C117.327 136.954 118.08 135.629 120.48 135.84" stroke="#263238" stroke-width="2" stroke-miterlimit="10" stroke-linecap="round"/>
<path d="M123.658 135.84C124.296 135.574 125.007 135.539 125.669 135.743C126.33 135.946 126.899 136.375 127.277 136.954" stroke="#263238" stroke-width="2" stroke-miterlimit="10" stroke-linecap="round"/>
<path d="M107.04 187.786C105.389 191.626 107.371 195.989 109.099 197.794C110.827 199.598 113.122 202.046 118.978 201.816C127.138 201.494 132.898 202.238 135.514 199.176C138.13 196.114 138.394 190.33 135.283 185.966C134.58 184.933 133.939 183.86 133.363 182.75H109.656C108.689 184.378 107.816 186.059 107.04 187.786Z" fill="#263238" stroke="#263238" stroke-miterlimit="10" stroke-linecap="round"/>
<path d="M119.885 195.576C115.752 191.29 108.25 189.144 104.573 188.529C100.896 187.915 94.162 184.209 94.162 184.209C94.162 184.209 90.178 184.075 90.4852 188.822C90.7924 193.57 102.274 199.085 106.719 201.533C108.715 202.659 110.953 203.29 113.244 203.374C115.534 203.458 117.812 202.991 119.885 202.013" fill="#263238"/>
<path d="M119.885 195.576C115.752 191.29 108.25 189.144 104.573 188.529C100.896 187.915 94.162 184.209 94.162 184.209C94.162 184.209 90.178 184.075 90.4852 188.822C90.7924 193.57 102.274 199.085 106.719 201.533C108.715 202.659 110.953 203.29 113.244 203.374C115.534 203.458 117.812 202.991 119.885 202.013" stroke="#263238" stroke-miterlimit="10" stroke-linecap="round"/>
<path d="M122.472 195.729C126.605 191.443 134.107 189.297 137.784 188.683C141.461 188.069 147.178 184.939 147.178 184.939C147.178 184.939 152.179 184.243 151.872 188.99C151.565 193.738 140.083 199.248 135.639 201.701C133.642 202.826 131.404 203.457 129.114 203.54C126.823 203.624 124.546 203.158 122.472 202.181" fill="#263238"/>
<path d="M122.472 195.729C126.605 191.443 134.107 189.297 137.784 188.683C141.461 188.069 147.178 184.939 147.178 184.939C147.178 184.939 152.179 184.243 151.872 188.99C151.565 193.738 140.083 199.248 135.639 201.701C133.642 202.826 131.404 203.457 129.114 203.54C126.823 203.624 124.546 203.158 122.472 202.181" stroke="#263238" stroke-miterlimit="10" stroke-linecap="round"/>
<path d="M139.723 203.222C139.723 203.222 140.29 202.848 140.006 201.902C139.723 200.957 138.211 201.71 137.17 201.71C136.128 201.71 132.158 201.331 130.272 201.144C128.654 200.981 126.01 201.029 125.275 201.043C125.382 202.206 125.143 203.375 124.589 204.403L124.958 204.442C128.174 204.758 129.571 204.821 130.555 205.027C132.35 205.406 134.333 206.918 136.315 206.827C138.298 206.736 140.098 205.387 140.098 204.557C140.117 204.084 139.986 203.616 139.723 203.222Z" fill="white"/>
<mask id="mask12_52_4300" style="mask-type:luminance" maskUnits="userSpaceOnUse" x="124" y="201" width="17" height="6">
<path d="M139.723 203.222C139.723 203.222 140.29 202.848 140.006 201.902C139.723 200.957 138.211 201.71 137.17 201.71C136.128 201.71 132.158 201.331 130.272 201.144C128.654 200.981 126.01 201.029 125.275 201.043C125.382 202.206 125.143 203.375 124.589 204.403L124.958 204.442C128.174 204.758 129.571 204.821 130.555 205.027C132.35 205.406 134.333 206.918 136.315 206.827C138.298 206.736 140.098 205.387 140.098 204.557C140.117 204.084 139.986 203.616 139.723 203.222Z" fill="white"/>
</mask>
<g mask="url(#mask12_52_4300)">
<path opacity="0.1" d="M139.723 203.222C139.723 203.222 140.29 202.848 140.006 201.902C139.723 200.957 138.211 201.71 137.17 201.71C136.128 201.71 132.158 201.331 130.272 201.144C128.654 200.981 126.01 201.029 125.275 201.043C125.382 202.206 125.143 203.375 124.589 204.403L124.958 204.442C128.174 204.758 129.571 204.821 130.555 205.027C132.35 205.406 134.333 206.918 136.315 206.827C138.298 206.736 140.098 205.387 140.098 204.557C140.117 204.084 139.986 203.616 139.723 203.222Z" fill="black"/>
</g>
<path d="M139.723 203.222C139.723 203.222 140.29 202.848 140.006 201.902C139.723 200.957 138.211 201.71 137.17 201.71C136.128 201.71 132.158 201.331 130.272 201.144C128.654 200.981 126.01 201.029 125.275 201.043C125.382 202.206 125.143 203.375 124.589 204.403L124.958 204.442C128.174 204.758 129.571 204.821 130.555 205.027C132.35 205.406 134.333 206.918 136.315 206.827C138.298 206.736 140.098 205.387 140.098 204.557C140.117 204.084 139.986 203.616 139.723 203.222Z" stroke="#263238" stroke-miterlimit="10" stroke-linecap="round"/>
<path d="M139.723 203.222C139.172 203.316 138.609 203.316 138.058 203.222" stroke="#263238" stroke-miterlimit="10" stroke-linecap="round"/>
<path d="M140.103 204.547C139.369 204.603 138.633 204.603 137.899 204.547" stroke="#263238" stroke-miterlimit="10" stroke-linecap="round"/>
<path d="M137.53 205.392C138.046 205.681 138.647 205.779 139.229 205.67" stroke="#263238" stroke-miterlimit="10" stroke-linecap="round"/>
<path d="M136.8 206.011C137.289 206.246 137.837 206.331 138.375 206.256" stroke="#263238" stroke-miterlimit="10" stroke-linecap="round"/>
<path d="M124.589 204.394C125.143 203.365 125.382 202.197 125.276 201.034H125.069C125.069 201.034 117.792 199.536 111.744 195.84C105.696 192.144 98.0356 186.485 94.162 184.214C90.2884 181.944 86.5972 185.347 86.962 188.942C87.3268 192.538 90.2692 194.424 95.5636 196.622C100.858 198.821 110.501 202.2 115.604 203.237C118.248 203.76 121.656 204.12 124.589 204.394Z" fill="#263238" stroke="#263238" stroke-miterlimit="10" stroke-linecap="round"/>
<path d="M116.088 205.392C115.535 204.363 115.298 203.195 115.406 202.032H115.608C115.608 202.032 122.885 200.52 128.938 196.834C134.99 193.147 142.642 187.474 146.52 185.203C150.398 182.933 154.08 186.341 153.72 189.931C153.36 193.522 150.413 195.413 145.118 197.587C139.824 199.762 130.186 203.165 125.078 204.206C122.429 204.754 119.04 205.114 116.088 205.392Z" fill="#263238" stroke="#263238" stroke-miterlimit="10" stroke-linecap="round"/>
<path d="M115.407 202.042C115.407 202.042 108.404 202.315 106.181 202.162C103.959 202.008 102.274 200.933 101.664 201.47C101.055 202.008 101.818 202.848 101.818 202.848C101.818 202.848 101.588 204.149 102.202 204.84C102.816 205.531 103.642 206.141 106.258 206.909C108.874 207.677 111.538 206.592 112.978 206.208L116.074 205.392C116.074 205.392 115.364 204.293 115.407 202.042Z" fill="white"/>
<mask id="mask13_52_4300" style="mask-type:luminance" maskUnits="userSpaceOnUse" x="101" y="201" width="16" height="7">
<path d="M115.407 202.042C115.407 202.042 108.404 202.315 106.181 202.162C103.959 202.008 102.274 200.933 101.664 201.47C101.055 202.008 101.818 202.848 101.818 202.848C101.818 202.848 101.588 204.149 102.202 204.84C102.816 205.531 103.642 206.141 106.258 206.909C108.874 207.677 111.538 206.592 112.978 206.208L116.074 205.392C116.074 205.392 115.364 204.293 115.407 202.042Z" fill="white"/>
</mask>
<g mask="url(#mask13_52_4300)">
<path opacity="0.1" d="M115.407 202.042C115.407 202.042 108.404 202.315 106.181 202.162C103.959 202.008 102.274 200.933 101.664 201.47C101.055 202.008 101.818 202.848 101.818 202.848C101.818 202.848 101.588 204.149 102.202 204.84C102.816 205.531 103.642 206.141 106.258 206.909C108.874 207.677 111.538 206.592 112.978 206.208L116.074 205.392C116.074 205.392 115.364 204.293 115.407 202.042Z" fill="black"/>
</g>
<path d="M115.407 202.042C115.407 202.042 108.404 202.315 106.181 202.162C103.959 202.008 102.274 200.933 101.664 201.47C101.055 202.008 101.818 202.848 101.818 202.848C101.818 202.848 101.588 204.149 102.202 204.84C102.816 205.531 103.642 206.141 106.258 206.909C108.874 207.677 111.538 206.592 112.978 206.208L116.074 205.392C116.074 205.392 115.364 204.293 115.407 202.042Z" stroke="#263238" stroke-miterlimit="10" stroke-linecap="round"/>
<path d="M101.818 202.848C101.976 202.742 102.162 202.685 102.353 202.685C102.544 202.685 102.73 202.742 102.888 202.848C103.255 203.098 103.673 203.262 104.112 203.328" stroke="#263238" stroke-miterlimit="10" stroke-linecap="round"/>
<path d="M101.904 204.336C102.027 204.225 102.174 204.147 102.334 204.107C102.494 204.066 102.661 204.066 102.821 204.106C103.187 204.21 103.564 204.265 103.944 204.269" stroke="#263238" stroke-miterlimit="10" stroke-linecap="round"/>
<path d="M103.075 205.55C103.075 205.55 103.21 205.161 103.464 205.161C103.718 205.161 104.77 205.301 105.043 205.277" stroke="#263238" stroke-miterlimit="10" stroke-linecap="round"/>
<path d="M104.563 206.309C104.563 206.309 104.818 205.963 105.043 205.944C105.333 205.903 105.625 205.879 105.917 205.872" stroke="#263238" stroke-miterlimit="10" stroke-linecap="round"/>
<path d="M118.968 201.816C118.968 201.816 133.618 194.616 139.536 190.521" stroke="white" stroke-miterlimit="10" stroke-linecap="round"/>
<path d="M102.432 189.6C102.432 189.6 114.951 199.387 122.007 200.069" stroke="white" stroke-miterlimit="10" stroke-linecap="round"/>
<path d="M108.293 189.336C108.293 189.336 117.816 192.288 120.293 196.099" stroke="white" stroke-miterlimit="10" stroke-linecap="round"/>
<path d="M123.629 194.765C123.629 194.765 129.533 190.574 135.629 189.336" stroke="white" stroke-miterlimit="10" stroke-linecap="round"/>
</svg>
